<?xml version="1.0" standalone="no"?>
<!DOCTYPE svg PUBLIC "-//W3C//DTD SVG 20010904//EN"
 "http://www.w3.org/TR/2001/REC-SVG-20010904/DTD/svg10.dtd">
<svg version="1.0" xmlns="http://www.w3.org/2000/svg"
 width="124.000000pt" height="139.000000pt" viewBox="0 0 124.000000 139.000000"
 preserveAspectRatio="xMidYMid meet">
<metadata>
Created by potrace 1.10, written by Peter Selinger 2001-2011
</metadata>
<g transform="translate(0.000000,139.000000) scale(0.100000,-0.100000)"
fill="#000000" stroke="none">
<path d="M632 1274 c-60 -83 -73 -122 -73 -210 0 -54 6 -86 26 -135 30 -70 47
-219 26 -219 -6 0 -11 8 -11 19 0 10 -13 42 -28 72 -16 30 -29 69 -30 88 -5
81 -59 154 -164 221 -58 38 -141 66 -160 54 -17 -11 -3 -113 25 -175 35 -80
87 -134 153 -159 30 -11 67 -20 83 -20 32 0 50 -17 80 -77 l21 -43 -128 0
c-165 0 -172 -4 -172 -100 0 -71 10 -92 48 -104 14 -5 21 -23 30 -74 25 -153
43 -217 68 -242 24 -25 25 -25 214 -25 189 0 190 0 215 25 26 27 46 105 60
243 4 37 12 67 17 67 5 0 20 11 33 25 22 21 25 33 25 94 0 45 -4 73 -12 78 -7
4 -68 10 -135 13 l-123 5 31 47 c29 44 37 50 101 69 54 16 82 31 119 66 57 53
112 156 107 199 -3 26 -7 29 -46 32 -58 4 -139 -21 -191 -58 -51 -38 -94 -121
-93 -183 1 -31 -9 -57 -41 -109 -23 -37 -46 -68 -50 -68 -5 0 -6 27 -2 61 6
47 17 77 51 132 59 96 85 168 85 238 1 106 -47 219 -92 219 -12 0 -36 -24 -67
-66z m95 -41 c23 -60 22 -142 -2 -213 -18 -55 -61 -130 -75 -130 -10 0 -50
131 -50 166 0 17 6 52 14 78 15 48 72 146 86 146 5 0 17 -21 27 -47z m-398
-149 c108 -63 171 -139 171 -207 0 -25 -3 -27 -27 -21 -16 3 -53 18 -83 32
-61 30 -84 63 -119 165 -24 68 -15 73 58 31z m701 -29 c0 -23 -28 -74 -66
-122 -58 -70 -174 -111 -174 -60 1 38 36 103 74 133 31 26 119 62 154 63 6 1
12 -6 12 -14z m-87 -422 c3 -5 2 -28 -2 -53 l-6 -45 -300 0 -300 0 -3 53 -3
52 305 0 c168 0 307 -3 309 -7z m-68 -180 c-3 -15 -11 -65 -16 -111 -5 -46
-16 -99 -24 -118 l-14 -34 -175 0 c-172 0 -176 0 -191 23 -11 17 -65 240 -65
269 0 2 111 2 246 0 l246 -3 -7 -26z"/>
</g>
</svg>
