<svg width="15" height="15" viewBox="0 0 15 15" fill="none" xmlns="http://www.w3.org/2000/svg">
<path d="M6.89682 1.91582C6.13452 2.92312 6.13452 3.62385 6.90911 4.05086L7.30256 4.25889L6.97059 4.36838C6.65092 4.47787 6.63862 4.51071 6.63862 5.28808V6.08735L5.07715 6.53626C4.2042 6.77714 3.09764 7.09465 2.59354 7.22604C1.1796 7.60925 1.24108 7.45597 1.22878 10.3793C1.21649 13.3027 1.21649 13.2808 2.33534 13.4669C3.29436 13.6312 11.5935 13.6421 12.2575 13.4779C13.1427 13.2589 13.155 13.226 13.155 10.1384V7.41217L12.6755 6.84283C12.1222 6.18589 11.0157 5.32093 10.5976 5.20049C10.4378 5.1567 9.9337 5.21144 9.42961 5.32093C8.9378 5.41947 8.51977 5.51801 8.48288 5.51801C8.446 5.52896 8.39682 5.28808 8.35993 4.98152C8.31075 4.55451 8.23698 4.41217 8.00338 4.31363L7.72059 4.18225L8.02797 3.99611C8.72879 3.591 8.6919 2.58371 7.9419 1.72969C7.57305 1.31363 7.32715 1.35743 6.89682 1.91582ZM7.67141 2.58371C7.79436 2.87933 7.75747 3.36108 7.58534 3.49246C7.22879 3.75524 6.97059 3.08735 7.25338 2.61655C7.41321 2.36473 7.57305 2.35378 7.67141 2.58371ZM7.63452 5.1129C7.63452 5.22239 7.65911 5.52896 7.67141 5.80268C7.72059 6.38298 7.63452 6.84283 7.48698 6.71144C7.40092 6.6348 7.33944 5.82458 7.36403 5.16765C7.37633 4.88298 7.62223 4.83918 7.63452 5.1129ZM10.7698 6.10925C11.2862 6.44867 12.2944 7.41217 12.2944 7.56546C12.2944 7.6202 11.9255 7.664 11.4706 7.664C11.0034 7.67495 8.99928 7.69684 7.00747 7.72969C5.01567 7.76254 3.40501 7.76254 3.45419 7.72969C3.49108 7.69684 4.1919 7.46692 5.01567 7.22604L6.51567 6.78808L6.76157 7.00706C7.01977 7.23699 7.16731 7.26984 7.80665 7.22604C8.22469 7.20414 8.35993 7.07276 8.35993 6.6567C8.35993 6.49246 8.4337 6.32823 8.50747 6.28443C8.64272 6.20779 10.0075 5.83553 10.2165 5.81363C10.2534 5.80268 10.5116 5.94502 10.7698 6.10925ZM10.7329 8.33188L12.4173 8.29903V8.99976C12.4173 9.97422 11.9501 10.2589 11.2247 9.74429C10.7944 9.44867 10.0935 9.45962 9.40502 9.79903L8.82715 10.0618L8.35993 9.78808C7.74518 9.41582 6.97059 9.41582 6.28206 9.76619C5.86403 9.97422 5.74108 9.99611 5.56895 9.88662C4.65911 9.31728 4.09354 9.26254 3.17141 9.64575C2.24928 10.029 1.96649 9.89757 1.96649 9.08735V8.43042L5.07715 8.41947C6.77387 8.40852 8.33534 8.41947 8.53206 8.43042C8.77797 8.44137 8.85174 8.40852 8.79026 8.30998C8.71649 8.22239 8.74108 8.20049 8.86403 8.27714C8.96239 8.33188 9.79846 8.35378 10.7329 8.33188ZM4.85583 10.3027C5.56895 10.7078 6.24518 10.6968 6.89682 10.2917L7.29026 10.0399L7.86813 10.3246C8.59354 10.6859 9.38043 10.7187 9.83534 10.4012C10.2288 10.1275 10.2903 10.1275 11.0034 10.4122C11.3968 10.5655 11.7288 10.6202 11.9993 10.5874C12.4173 10.5217 12.4173 10.5326 12.4173 10.9596V11.3866L10.9788 11.3976C7.35174 11.4304 2.85174 11.3866 2.4337 11.3209C2.00338 11.2662 1.96649 11.2333 1.96649 10.883C1.96649 10.5217 1.97879 10.5107 2.49518 10.5107C2.81485 10.5107 3.22059 10.4122 3.56485 10.237C4.25338 9.90852 4.14272 9.89757 4.85583 10.3027ZM7.67141 12.0545H12.4173V12.383C12.4173 12.9414 11.9993 12.9852 6.26977 12.9414C2.38452 12.9195 1.96649 12.8647 1.96649 12.383C1.96649 11.9779 2.07715 11.9122 2.53206 11.9888C2.75338 12.0217 5.06485 12.0545 7.67141 12.0545Z" fill="currentColor"/>
</svg>
