<svg viewBox="0 0 18 22" fill="none" xmlns="http://www.w3.org/2000/svg">
<path d="M11.9996 1.40039V5.00039C11.9996 5.66313 12.5369 6.20039 13.1996 6.20039H16.7996M14.9996 3.20039C14.4655 2.72253 13.9113 2.15577 13.5614 1.78767C13.3286 1.54273 13.007 1.40039 12.669 1.40039H3.59931C2.27383 1.40039 1.19932 2.4749 1.19931 3.80038L1.19922 18.2003C1.19921 19.5258 2.27372 20.6003 3.59921 20.6003L14.3993 20.6004C15.7247 20.6004 16.7992 19.5259 16.7993 18.2004L16.7996 5.47822C16.7996 5.17138 16.6825 4.87643 16.4696 4.65552C16.0758 4.24704 15.4182 3.57491 14.9996 3.20039Z" stroke="currentColor" stroke-width="1" stroke-linecap="round" stroke-linejoin="round"/>
</svg>
