<svg width="15" height="15" viewBox="0 0 15 15" fill="none" xmlns="http://www.w3.org/2000/svg">
<path d="M7.07339 1.16816C6.73193 1.46816 6.46364 1.75781 6.46364 1.81988C6.46364 1.88195 6.32949 2.03712 6.15876 2.1716C5.98803 2.30609 5.71974 2.61643 5.549 2.85436C5.37827 3.09229 5.12217 3.38195 4.97583 3.4854C4.64657 3.70264 4.02461 4.45781 4.02461 4.63367C4.02461 4.83023 4.45144 4.96471 5.0612 4.96471H5.63437L4.25632 6.15436C2.34169 7.79919 2.28071 8.01643 3.70754 8.14057C4.3051 8.19229 4.8173 8.3785 4.36608 8.3785C4.21974 8.3785 3.47583 9.03023 2.17096 10.282C1.41486 11.0061 1.73193 11.1199 4.46364 11.1095L6.42705 11.0992L6.3173 11.5233C6.25632 11.7509 6.18315 12.082 6.15876 12.2578C6.13437 12.4233 6.08559 12.7647 6.03681 12.9923C5.90266 13.6337 6.18315 13.7578 7.70754 13.7578C9.09778 13.7578 9.23193 13.6957 9.19535 12.9923C9.18315 12.7233 9.15876 12.4854 9.13437 12.4647C9.10998 12.444 9.10998 12.1337 9.14657 11.7716L9.20754 11.1199L11.0246 11.1613C12.3173 11.182 12.8173 11.1613 12.7563 11.0785C12.6953 11.0061 12.7441 10.9957 12.8661 11.0371C13.0856 11.0992 13.2929 10.913 13.2929 10.6544C13.2929 10.5716 13.0246 10.2613 12.7075 9.98195C11.0002 8.44057 10.9027 8.27505 11.6466 8.27505C12.1466 8.27505 12.6466 8.09919 12.7441 7.89229C12.8051 7.72678 12.1222 6.96126 11.4271 6.44402C11.0124 6.12333 10.2441 5.33712 10.2441 5.21298C10.2441 5.18195 10.4271 5.18195 10.6588 5.21298C11.5368 5.35781 12.049 4.85092 11.4758 4.40609C11.2197 4.20954 10.3295 3.14402 9.59778 2.13023C9.01242 1.34402 8.47583 0.868156 8.02461 0.733673C7.70754 0.64057 7.63437 0.671604 7.07339 1.16816ZM8.5612 2.02678C8.8051 2.35781 9.0612 2.62678 9.14657 2.60609C9.21974 2.59574 9.25632 2.62678 9.20754 2.6785C9.10998 2.82333 9.41486 3.28885 9.87827 3.69229C10.0856 3.8785 10.2197 4.03367 10.171 4.03367C10.1222 4.03367 10.1953 4.13712 10.3417 4.2716C10.7075 4.60264 10.6222 4.63367 9.75632 4.50954C8.76852 4.37505 8.62218 4.48885 9.08559 5.08885C9.64657 5.81298 10.2563 6.42333 10.3783 6.36126C10.4392 6.31988 10.4514 6.36126 10.4271 6.43367C10.3905 6.51643 10.4758 6.6716 10.61 6.77505C11.7807 7.74747 11.7685 7.73712 10.7075 7.64402C9.76852 7.57161 9.47583 7.66471 9.62217 7.99574C9.74413 8.25436 9.84169 8.36816 11.0856 9.56816C11.5612 10.0233 11.9514 10.4268 11.9514 10.4682C11.9514 10.5095 11.3905 10.5199 10.7075 10.4785C9.14657 10.4061 6.08559 10.3957 4.35388 10.4578C3.10998 10.4992 3.049 10.4888 3.28071 10.3233C3.42705 10.2302 3.53681 10.1268 3.53681 10.1061C3.53681 10.0751 3.68315 9.91988 3.87827 9.75436C5.92705 7.92333 6.049 7.56126 4.63437 7.55092C3.79291 7.54057 3.82949 7.43712 5.02461 6.39229C6.79291 4.85092 7.15876 4.04402 6.00022 4.30264C5.18315 4.48885 5.049 4.35436 5.549 3.8785C5.79291 3.65092 6.0612 3.34057 6.17096 3.17505C6.26852 3.01988 6.39047 2.89574 6.45144 2.89574C6.50022 2.89574 6.62217 2.7716 6.71974 2.60609C6.8173 2.45091 7.09778 2.14057 7.34169 1.91298C7.59778 1.6854 7.8051 1.45781 7.8051 1.41643C7.8051 1.18885 8.14657 1.46816 8.5612 2.02678ZM8.23193 11.0578C8.3051 11.0682 8.36608 11.482 8.37827 12.0509C8.40266 13.1268 8.45144 13.0544 7.62217 13.0544C6.87827 13.0544 6.91486 13.0957 7.00022 12.2475C7.13437 10.9957 7.13437 10.9854 8.23193 11.0578Z" fill="currentColor"/>
</svg>
