<svg width="15" height="15" viewBox="0 0 15 15" fill="none" xmlns="http://www.w3.org/2000/svg">
<g clip-path="url(#clip0_1008_1260)">
<path d="M7.48807 0.83376C7.32528 0.905189 7.11597 1.25043 6.86016 1.89328C6.54621 2.679 6.45318 2.82186 6.3369 2.66709C6.22063 2.48852 4.98807 2.41709 4.4183 2.54805C4.32528 2.55995 4.04621 2.61947 3.80202 2.679C3.30202 2.77424 3.1276 3.07186 3.22063 3.60757C3.27877 3.89328 3.23225 3.95281 2.77877 4.15519C1.40667 4.78614 0.302021 6.85757 0.348532 8.75043C0.348532 8.9409 0.348532 9.1909 0.336904 9.28614C0.302021 10.1076 1.22063 12.1552 1.53458 11.9528C1.60435 11.9052 1.6276 11.9171 1.59272 11.9885C1.4997 12.1433 2.25551 12.8933 2.38342 12.7742C2.42993 12.7147 2.44156 12.7385 2.40667 12.8219C2.29039 13.0242 3.26714 13.7385 3.39504 13.5361C3.46481 13.429 3.48807 13.4409 3.48807 13.5838C3.48807 13.81 3.95318 13.9885 4.45318 13.9528C4.6276 13.9409 4.76714 13.9766 4.76714 14.0361C4.76714 14.1671 6.22063 14.4528 6.38342 14.3576C6.44156 14.31 6.52295 14.3338 6.55783 14.3814C6.6276 14.4885 7.09272 14.4885 8.73225 14.3576C9.80202 14.2742 11.2555 13.7861 11.5462 13.4171C11.6625 13.2742 11.7323 13.2266 11.6857 13.3219C11.5578 13.56 12.1043 13.1671 12.3253 12.8576C12.4183 12.7266 12.5578 12.6195 12.6276 12.6195C12.7671 12.6195 13.3718 11.7504 13.3718 11.548C13.3718 11.4885 13.4183 11.429 13.4764 11.429C13.6276 11.429 14.1043 10.0361 13.9997 9.86948C13.9532 9.77424 13.9648 9.75043 14.0462 9.80995C14.1276 9.85757 14.1974 9.80995 14.1974 9.679C14.209 9.55995 14.2323 9.29805 14.2555 9.10757C14.4648 7.45281 14.0927 5.91709 13.2671 5.05995C12.7788 4.54805 12.0927 3.98852 11.9416 3.98852C11.8718 3.98852 11.7671 3.80995 11.7206 3.59567C11.6276 3.26233 11.5113 3.14328 11.3369 3.23852C11.3136 3.26233 11.2206 3.179 11.1392 3.05995C10.9416 2.78614 9.73225 2.50043 8.90667 2.53614C8.17411 2.55995 8.13923 2.51233 8.27877 1.85757C8.44156 1.09567 8.06946 0.619475 7.48807 0.83376ZM7.72063 1.929C7.69737 2.08376 7.6276 2.45281 7.56946 2.76233C7.4997 3.07186 7.4183 3.63138 7.37179 4.01233L7.30202 4.70281L7.52295 4.40519C7.65086 4.23852 7.79039 4.01233 7.82528 3.88138C7.88342 3.73852 7.95318 3.70281 8.05783 3.77424C8.26714 3.9409 8.98807 3.89328 9.04621 3.70281C9.08109 3.59567 9.03458 3.57186 8.86016 3.61947C8.73225 3.66709 8.59272 3.64328 8.54621 3.57186C8.51132 3.51233 8.37179 3.45281 8.24388 3.45281C8.1276 3.45281 8.02295 3.38138 8.02295 3.29805C8.02295 3.20281 8.23225 3.15519 8.68574 3.16709C9.05784 3.16709 9.39504 3.11947 9.44156 3.04805C9.4997 2.95281 9.53458 2.96471 9.53458 3.05995C9.53458 3.14328 9.81365 3.23852 10.2323 3.28614C10.616 3.33376 10.9299 3.39328 10.9299 3.4409C10.9299 3.65519 9.29039 4.32186 9.02295 4.21471C8.87179 4.15519 8.48807 4.45281 8.48807 4.61947C8.48807 4.66709 8.67411 4.88138 8.88342 5.09567C9.24388 5.45281 9.26714 5.52424 9.17411 5.86947C9.11597 6.08376 9.06946 6.26233 9.06946 6.28614C9.06946 6.35757 8.31365 6.179 7.96481 6.01233C7.77877 5.929 7.54621 5.83376 7.46481 5.80995C7.37179 5.78614 7.15086 5.63138 6.95318 5.4409C6.56946 5.09567 6.27877 5.02424 6.27877 5.28614C6.27877 5.679 4.51132 6.04805 4.29039 5.70281C4.16249 5.47662 4.47644 5.09567 5.02295 4.82186C5.68574 4.50043 5.72063 4.11947 5.09272 4.09567C4.46481 4.05995 3.59272 3.33376 4.19737 3.33376C4.32528 3.33376 4.40667 3.28614 4.37179 3.23852C4.3369 3.179 4.709 3.13138 5.19737 3.10757C5.68574 3.09567 6.1276 3.05995 6.17411 3.03614C6.22063 3.00043 6.31365 3.05995 6.39504 3.15519C6.47644 3.26233 6.48807 3.33376 6.4183 3.33376C6.36016 3.33376 6.31365 3.53614 6.31365 3.79805C6.32528 4.04805 6.39504 4.23852 6.45318 4.20281C6.58109 4.15519 7.03458 3.1909 7.13923 2.73852C7.19737 2.45281 7.6276 1.66709 7.709 1.66709C7.74388 1.66709 7.74388 1.78614 7.72063 1.929ZM4.1276 4.52424C4.08109 4.59567 3.9997 4.60757 3.92993 4.57186C3.84853 4.52424 3.8369 4.54805 3.88342 4.63138C3.92993 4.70281 3.90667 4.85757 3.82528 4.95281C3.75551 5.04805 3.66249 5.38138 3.63923 5.70281C3.58109 6.50043 3.84853 6.58376 5.82528 6.45281C5.98807 6.4409 6.24388 6.32186 6.39504 6.1909C6.66249 5.95281 6.67411 5.95281 6.90667 6.179C7.04621 6.30995 7.209 6.429 7.26714 6.4409C7.3369 6.45281 7.65086 6.57186 7.96481 6.72662C8.8369 7.11947 9.40667 7.05995 9.73225 6.55995C10.0462 6.08376 10.0811 5.41709 9.81365 5.02424C9.65086 4.77424 9.65086 4.76233 9.88342 4.76233C10.0462 4.76233 10.1043 4.71471 10.0462 4.60757C9.98807 4.50043 9.9997 4.50043 10.116 4.60757C10.2206 4.71471 10.3602 4.70281 10.6974 4.58376C11.0927 4.4409 11.1857 4.45281 11.6625 4.679C11.9532 4.82186 12.1974 5.00043 12.209 5.08376C12.209 5.15519 12.3136 5.26233 12.4532 5.29805C12.5811 5.34567 12.6625 5.40519 12.6276 5.45281C12.5811 5.48852 12.6741 5.65519 12.8253 5.82186C13.395 6.45281 13.7555 8.51233 13.4648 9.40519C13.4299 9.50043 13.3718 9.73852 13.3136 9.9409C13.0811 10.8814 12.0695 12.2028 11.1741 12.7385C10.0346 13.429 7.67411 13.8219 6.19737 13.56C5.76714 13.4885 5.25551 13.4171 5.05784 13.4052C4.87179 13.4052 4.68574 13.3695 4.65086 13.3338C4.61597 13.298 4.23225 13.0838 3.79039 12.8695C2.97644 12.4647 1.55783 11.1552 1.69737 10.9409C1.73225 10.8814 1.67411 10.798 1.58109 10.7623C1.47644 10.7266 1.42993 10.6433 1.46481 10.5838C1.48807 10.5242 1.46481 10.3695 1.39504 10.2266C1.18574 9.84567 1.1276 9.429 1.1276 8.45281C1.1276 7.41709 1.54621 6.33376 2.24388 5.57186C2.46481 5.33376 2.61597 5.09567 2.56946 5.05995C2.53458 5.01233 2.55783 5.00043 2.61597 5.01233C2.76714 5.05995 3.60435 4.61947 3.60435 4.50043C3.60435 4.45281 3.74388 4.40519 3.90667 4.40519C4.06946 4.40519 4.17411 4.45281 4.1276 4.52424Z" fill="currentColor"/>
<path d="M2.57001 8.26326C2.22117 8.69183 2.65141 10.6918 3.15141 10.9537C3.50024 11.1561 3.50024 11.0966 3.17466 10.4418C2.93048 9.96564 2.86071 9.64421 2.84908 9.02516C2.83745 8.14421 2.77931 8.00135 2.57001 8.26326Z" fill="currentColor"/>
</g>
<defs>
<clipPath id="clip0_1008_1260">
<rect width="15" height="15" fill="currentColor"/>
</clipPath>
</defs>
</svg>
