<svg width="15" height="15" viewBox="0 0 15 15" fill="none" xmlns="http://www.w3.org/2000/svg">
<path d="M8.90009 0.967392C8.23009 1.01184 8.00009 1.13406 8.00009 1.43406C8.00009 1.53406 7.82009 1.73406 7.60009 1.88961C7.14009 2.20073 7.12009 2.2785 7.42009 2.63406C7.61009 2.85628 7.62009 2.93406 7.52009 3.30073C7.46009 3.53406 7.38009 3.82295 7.35009 3.94517C7.33009 4.06739 7.00009 4.3785 6.63009 4.63406C5.65009 5.31184 4.35009 6.80073 3.80009 7.8785C3.72009 8.03406 3.56009 8.32295 3.45009 8.50073C3.34009 8.68961 3.14009 9.06739 3.01009 9.35628C2.88009 9.65628 2.72009 9.88961 2.66009 9.88961C2.52009 9.88961 1.49009 10.6452 1.02009 11.0785C0.64009 11.4452 0.64009 11.7896 1.03009 12.2007C1.99009 13.2118 2.37009 13.4452 2.55009 13.1118C2.59009 13.0452 2.65009 13.0229 2.69009 13.0452C2.73009 13.0785 2.98009 12.9118 3.26009 12.6674C4.49009 11.6007 4.86009 11.4118 5.54009 11.5007C5.87009 11.5341 6.29009 11.5674 6.45009 11.5674C7.00009 11.5563 7.18009 11.6563 7.38009 12.1007C7.60009 12.5674 7.55009 12.7118 7.15009 12.8007C7.03009 12.8229 6.94009 12.9452 6.92009 13.1007C6.88009 13.3563 6.90009 13.3674 7.34009 13.3118C7.78009 13.2563 8.20009 13.4785 8.20009 13.7785C8.20009 13.9007 8.53009 13.9341 8.63009 13.8229C8.66009 13.7785 8.65009 13.6563 8.59009 13.5341C8.49009 13.3229 8.50009 13.3229 8.80009 13.5007C9.19009 13.7229 9.40009 13.6563 9.33009 13.3341C9.27009 13.1007 8.94009 12.8674 8.50009 12.7452C8.23009 12.6674 7.72009 11.7007 7.87009 11.5452C7.92009 11.5007 8.13009 11.4341 8.35009 11.4007C8.75009 11.3229 8.76009 11.3341 8.95009 11.7452C9.06009 11.9785 9.13009 12.3007 9.11009 12.4674C9.10009 12.6452 9.14009 12.7896 9.19009 12.7896C9.25009 12.8007 9.33009 12.8118 9.38009 12.8229C9.42009 12.8229 9.61009 12.9674 9.81009 13.1452C10.2801 13.5341 10.5401 13.5452 10.4801 13.1674C10.4301 12.8896 10.6201 12.7674 10.7501 13.0007C10.8401 13.1563 11.2001 12.9341 11.2001 12.7229C11.2001 12.5229 10.7301 12.2452 10.2301 12.1563C10.0201 12.1229 9.82009 12.0674 9.77009 12.0341C9.70009 11.9896 9.28009 11.0785 9.33009 11.0674C10.3901 10.5896 11.0901 9.88961 11.5701 8.80073C11.9401 7.9785 11.9501 7.93406 11.9701 6.60073C11.9901 4.75628 12.0701 4.55628 12.8701 4.4785C13.3501 4.43406 13.9001 4.14517 13.9001 3.94517C13.9001 3.73406 13.1601 3.20073 12.5201 2.94517C12.1901 2.81184 11.9501 2.61184 11.7301 2.26739C11.0401 1.25628 10.2401 0.878503 8.90009 0.967392ZM10.8201 2.21184C11.1401 2.46739 11.4801 2.85628 11.5901 3.06739C11.7201 3.31184 11.8701 3.44517 12.0201 3.45628C12.1501 3.45628 12.4301 3.55628 12.6501 3.66739L13.0501 3.8785H12.7201C12.2401 3.88961 11.7201 4.20073 11.5501 4.55628C11.4501 4.76739 11.4001 5.33406 11.3801 6.3785C11.3601 7.21184 11.3201 7.88961 11.2901 7.88961C11.2601 7.88961 11.1301 8.15628 11.0001 8.46739C10.7201 9.15628 10.0001 9.95628 9.33009 10.3341C9.07009 10.4785 8.83009 10.5896 8.80009 10.5896C8.77009 10.5785 8.67009 10.6229 8.57009 10.6785C8.16009 10.9341 6.62009 10.9785 5.60009 10.7674C4.91009 10.6341 4.89009 10.6341 4.34009 10.9563C4.04009 11.1341 3.71009 11.3563 3.62009 11.4452C3.24009 11.8229 2.39009 12.4452 2.25009 12.4452C1.94009 12.4452 2.12009 12.1118 2.64009 11.6896C3.41009 11.0785 3.23009 10.9229 2.31009 11.4007C1.55009 11.7896 1.26009 11.8118 1.70009 11.4341C1.84009 11.3229 2.02009 11.1452 2.11009 11.0563C2.20009 10.9674 2.32009 10.8896 2.39009 10.8896C2.46009 10.8896 2.72009 10.7118 2.97009 10.5007C3.31009 10.2118 3.46009 10.1452 3.56009 10.2341C3.75009 10.4118 5.34009 10.3229 6.17009 10.0896C8.07009 9.55628 9.40009 8.16739 9.40009 6.70073C9.40009 5.90073 9.07009 5.53406 8.95009 6.18961C8.69009 7.60073 8.23009 8.33406 7.21009 8.92295C6.57009 9.30073 6.40009 9.30073 6.80009 8.93406C7.30009 8.46739 7.53009 7.7785 7.20009 7.7785C7.15009 7.7785 6.96009 7.95628 6.78009 8.1785C6.29009 8.7785 5.86009 9.22295 5.76009 9.22295C5.71009 9.22295 5.59009 9.30073 5.50009 9.38961C5.41009 9.4785 5.19009 9.58961 5.01009 9.62295C4.68009 9.70073 4.69009 9.68961 5.33009 9.00073C5.79009 8.50073 5.96009 8.24517 5.93009 8.10073C5.85009 7.78961 5.64009 7.84517 5.33009 8.24517C4.79009 8.92295 4.09009 9.55628 3.87009 9.55628C3.70009 9.55628 3.72009 9.4785 4.00009 8.91184C4.18009 8.56739 4.40009 8.1785 4.50009 8.05628C4.60009 7.93406 4.75009 7.6785 4.83009 7.50073C5.09009 6.92295 6.78009 5.11184 7.06009 5.11184C7.43009 5.11184 7.79009 4.72295 7.90009 4.18961C7.97009 3.86739 8.11009 3.41184 8.22009 3.16739C8.39009 2.75628 8.39009 2.71184 8.24009 2.58961C8.05009 2.43406 8.13009 2.3785 8.60009 2.31184C8.75009 2.28961 8.84009 2.21184 8.82009 2.12295C8.75009 1.74517 8.88009 1.66739 9.58009 1.70073C10.2001 1.73406 10.3001 1.7785 10.8201 2.21184Z" fill="black"/>
<path d="M9.93927 2.90134C9.75927 3.23468 9.79927 3.66801 10.0493 3.84579C10.5193 4.19023 10.9293 3.72356 10.6693 3.11245C10.5393 2.81245 10.0693 2.66801 9.93927 2.90134Z" fill="black"/>
</svg>
