<svg width="15" height="15" viewBox="0 0 15 15" fill="none" xmlns="http://www.w3.org/2000/svg">
<path d="M5.05717 0.662542C4.2049 0.760368 3.14808 1.20602 2.87536 1.58645C2.59126 1.97776 2.28445 2.29298 1.84126 2.60819C1.39808 2.91254 1.13672 3.44515 1.13672 4.03211C1.13672 4.4995 1.40945 4.83645 1.69354 4.71689C2.26172 4.48863 2.76172 4.34732 2.8299 4.40167C2.89808 4.47776 2.88672 4.98863 2.77308 6.1408C2.61399 7.85819 3.43217 9.48863 4.92081 10.3908C5.42081 10.706 5.42081 10.7495 5.05717 11.3038C4.85263 11.6082 4.71626 11.7169 4.55717 11.6843C3.93217 11.5756 3.0799 12.1299 3.25036 12.543C3.34126 12.7712 3.48899 12.7604 3.8299 12.4995C4.25036 12.1843 4.54581 12.206 4.23899 12.5212C3.67081 13.1299 4.13672 13.4234 4.77308 12.8691C5.09126 12.5973 5.29581 12.4886 5.4549 12.5321C5.77308 12.6082 5.9549 12.2712 5.73899 11.9995C5.51172 11.706 5.94354 10.956 6.29581 11.0321C6.43217 11.0647 6.69354 11.1191 6.87536 11.1517C7.48899 11.2821 7.60263 11.4125 7.42081 11.8147C7.3299 12.0321 7.19354 12.1734 7.06854 12.1734C6.51172 12.1734 5.68217 12.5538 5.68217 12.8038C5.69354 13.1082 5.89808 13.1843 6.28445 13.0104C6.79581 12.7712 6.85263 12.7821 6.7049 13.0321C6.40945 13.5756 6.85263 13.6517 7.35263 13.1517C7.54581 12.9452 7.73899 12.8473 7.86399 12.8908C8.53445 13.0865 8.88672 12.9886 8.78445 12.6191C8.75036 12.4886 8.5799 12.3908 8.34126 12.3365C7.89808 12.2604 7.88672 12.2278 8.17081 11.7821C8.36399 11.4778 8.40945 11.456 8.88672 11.5104C9.34126 11.5647 9.4549 11.6517 9.98899 12.2604C10.614 12.9669 11.3867 13.543 11.5799 13.4343C11.6367 13.3908 11.7163 13.4125 11.7617 13.4778C11.8299 13.5865 12.364 13.5104 12.5458 13.3691C12.5913 13.3147 12.7958 13.3256 12.9776 13.3908C13.3072 13.4995 14.1935 13.2169 14.3754 12.9343C14.5004 12.7278 14.1594 12.2169 13.3754 11.4452C12.6708 10.7495 12.6026 10.6408 12.864 10.6952C13.2731 10.7604 13.489 10.5212 13.3185 10.1843C13.2504 10.0538 13.1708 9.80385 13.1254 9.62993C13.0231 9.15167 12.1026 7.16254 11.7163 6.55385C11.5231 6.2495 11.364 5.95602 11.364 5.90167C11.364 5.61906 9.0799 3.58645 8.76172 3.58645C8.69354 3.58645 8.61399 3.45602 8.56854 3.28211C8.53445 3.11906 8.46626 2.86906 8.40945 2.71689C8.35263 2.56472 8.28445 2.32559 8.25036 2.17341C8.04581 1.28211 6.42081 0.510368 5.05717 0.662542ZM6.59126 1.56472C7.18217 1.84732 7.69354 2.54298 7.77308 3.17341C7.85263 3.77124 8.02308 3.98863 8.67081 4.3908C9.35263 4.80385 10.614 6.07559 10.8754 6.59732C10.9663 6.79298 11.0913 6.95602 11.1481 6.95602C11.2049 6.95602 11.2504 7.02124 11.2504 7.08645C11.2504 7.16254 11.3754 7.46689 11.5344 7.77124C11.6822 8.06472 11.8185 8.36906 11.8185 8.43428C11.8185 8.4995 11.9208 8.78211 12.0572 9.06472C12.4435 9.91254 12.2504 9.86906 11.1935 8.87993C10.1935 7.94515 10.0344 7.83646 9.8299 8.03211C9.69354 8.15167 9.22763 7.79298 8.92081 7.35819C8.81854 7.19515 8.65945 7.06472 8.5799 7.06472C8.36399 7.06472 8.27308 7.3908 8.43217 7.58645C8.88672 8.11906 9.54581 8.69515 9.71626 8.69515C9.88672 8.69515 11.7049 9.94515 11.7049 10.0647C11.7049 10.0973 11.5913 10.0865 11.4663 10.0538C11.3299 10.0104 11.1594 9.96689 11.0913 9.95602C9.0799 9.61906 7.03445 7.72776 6.85263 6.02124C6.72763 4.93428 6.0799 5.11906 6.17081 6.21689C6.31854 7.95602 8.53445 10.1408 10.5231 10.4995C11.3185 10.6408 11.7163 10.8691 12.5685 11.6843C13.3413 12.4125 13.5572 12.7169 13.3185 12.7169C13.1708 12.7169 11.8072 11.7386 11.5344 11.4343C11.3754 11.2604 11.2163 11.1843 11.1026 11.2278C10.7617 11.3473 10.9208 11.5865 11.8526 12.3582C12.2163 12.6625 12.2504 12.7169 12.0685 12.8038C11.7958 12.9452 11.6481 12.8691 11.0799 12.293C10.3867 11.5865 10.1026 11.2169 10.0685 11.0104C10.0458 10.8691 9.86399 10.8256 9.02308 10.8038C7.44354 10.7604 6.92081 10.6408 5.8299 10.0973C4.52308 9.44515 3.38672 7.7495 3.48899 6.62993C3.52308 6.29298 3.64808 3.96689 3.65945 3.56472C3.67081 3.40167 3.53445 3.06472 3.36399 2.83645C3.05717 2.41254 3.04581 2.40167 3.25036 2.1408C3.85263 1.37993 5.60263 1.07559 6.59126 1.56472ZM2.77308 3.17341C3.05717 3.55385 3.00036 3.65167 2.3299 3.87993L1.7049 4.10819L1.77308 3.81472C1.85263 3.53211 2.35263 2.93428 2.51172 2.93428C2.55717 2.93428 2.68217 3.04298 2.77308 3.17341Z" fill="black"/>
<path d="M4.60243 2.53295C4.35243 2.90251 4.48879 3.44599 4.84107 3.51121C5.35243 3.59817 5.80697 2.77208 5.43197 2.41338C5.2047 2.19599 4.79561 2.26121 4.60243 2.53295Z" fill="black"/>
<path d="M4.25056 5.81556C4.17101 6.00034 4.27328 6.30469 4.40965 6.30469C4.4551 6.30469 4.51192 6.15251 4.52328 5.9786C4.54601 5.64164 4.36419 5.53295 4.25056 5.81556Z" fill="black"/>
<path d="M5.08074 5.82537C4.94438 5.95581 4.98983 6.37972 5.14893 6.51015C5.36483 6.6732 5.46711 6.54276 5.38756 6.20581C5.29665 5.86885 5.18302 5.72755 5.08074 5.82537Z" fill="black"/>
<path d="M4.28361 7.55392C4.22679 7.85827 4.5677 8.36914 4.84043 8.36914C4.97679 8.36914 4.97679 8.31479 4.84043 8.01044C4.74952 7.82566 4.64725 7.57566 4.61316 7.46697C4.52225 7.19523 4.35179 7.23871 4.28361 7.55392Z" fill="black"/>
<path d="M5.31768 7.56461C5.16995 7.70592 5.41995 8.20592 5.65859 8.23853C5.95404 8.282 5.96541 8.23853 5.73813 7.82548C5.56768 7.51027 5.44268 7.43418 5.31768 7.56461Z" fill="black"/>
<path d="M5.56836 9.09734C5.56836 9.21691 5.6479 9.35821 5.75018 9.39082C6.057 9.49952 6.09109 9.35821 5.81836 9.09734L5.56836 8.86908V9.09734Z" fill="black"/>
</svg>
