<svg width="15" height="15" viewBox="0 0 15 15" fill="none" xmlns="http://www.w3.org/2000/svg">
<path d="M9.46935 2.36777C9.10299 2.5455 8.85414 2.74455 8.78502 2.88673C8.75045 2.97204 8.62603 3.14976 8.50852 3.29194C8.2735 3.56209 7.87949 4.39384 7.87949 4.60711C7.87949 4.6782 7.85184 4.76351 7.81727 4.79905C7.78271 4.84171 7.73432 5.01232 7.71359 5.19005C7.69285 5.36777 7.67903 5.51706 7.67903 5.53128C7.67211 5.5455 7.56843 5.47441 7.444 5.37488C7.31267 5.26825 7.17442 5.19005 7.13294 5.19005C7.08456 5.19005 7.04999 5.11896 7.04308 5.02654C7.00161 4.18057 7.01543 4.08104 7.20207 3.69716C7.444 3.20664 7.45091 3.05735 7.23663 3.05735C6.76658 3.05735 6.39331 4.41517 6.66981 5.13318C6.69746 5.21138 6.65598 5.28957 6.53847 5.37488C6.35875 5.48863 6.35184 5.48863 6.1652 5.28957C5.51543 4.59289 4.21589 4.38673 4.21589 4.97678C4.21589 5.09763 4.26428 5.11896 4.54769 5.11896C5.13525 5.11896 5.63985 5.3109 5.92326 5.63792C6.07534 5.80142 6.20667 6.55498 6.06151 6.40569C6.02004 6.36303 5.90253 6.32749 5.80575 6.32749C5.70898 6.32749 5.59838 6.29905 5.56382 6.26351C5.52234 6.22085 5.38409 6.1782 5.25276 6.16398C5.11451 6.14976 4.96935 6.12133 4.92787 6.09289C4.79654 6.00758 3.41405 6.07157 3.30345 6.16398C3.24815 6.21375 3.18594 6.23507 3.15829 6.21375C3.09608 6.14976 2.52234 6.43412 2.37027 6.60474C2.12833 6.86777 2.03847 7.33697 2.16981 7.61422C2.23202 7.74218 2.28041 7.88436 2.28041 7.94123C2.28041 7.99811 2.48778 8.25403 2.75045 8.51706C3.78041 9.5692 4.52004 9.98152 5.09377 9.81801C5.37718 9.7327 5.44631 9.76114 5.33571 9.89621C4.90714 10.4436 5.26658 11.8085 5.95783 12.2351C6.1099 12.3275 6.26889 12.4412 6.31727 12.4839C6.46935 12.6332 7.00161 12.7043 7.2781 12.6261C7.92787 12.4341 8.41866 11.645 8.43939 10.7706C8.45322 10.145 8.48087 10.1166 8.77119 10.4009C9.40714 11.0337 9.72511 10.9697 9.65598 10.2374C9.62833 9.98863 9.57303 9.74692 9.53156 9.69005C9.36566 9.491 9.5523 9.50521 9.93939 9.71848C11.6537 10.664 13.0707 9.61185 12.4832 7.8346C12.2689 7.18768 11.5846 6.61185 11.0246 6.61185C10.7481 6.61185 10.7343 6.59052 10.921 6.38436C11.3081 5.95782 11.3979 5.25403 11.2044 4.1237C10.9763 2.77299 10.209 1.99811 9.46935 2.36777ZM10.1744 2.98626C10.6583 3.37725 10.9693 5.05498 10.6998 5.79431C10.5892 6.08578 9.88409 6.75403 9.68363 6.75403C9.64907 6.75403 9.6076 6.77536 9.59377 6.80379C9.57303 6.86777 8.56382 7.40095 8.48778 7.39384C8.45322 7.39384 8.43248 7.35119 8.43248 7.30142C8.43248 7.25166 8.32188 7.08815 8.19055 6.93176C7.92096 6.61185 7.92096 6.61896 8.02465 6.1C8.06612 5.89384 8.12833 5.5455 8.16981 5.33223C8.48087 3.67583 9.52465 2.45308 10.1744 2.98626ZM7.21589 5.83697C7.43709 6.01469 7.45783 6.29905 7.25737 6.36303C7.18133 6.38436 7.11912 6.44123 7.11912 6.47678C7.11912 6.5692 6.74585 6.55498 6.64907 6.45545C6.51773 6.32038 6.54538 5.85119 6.69055 5.76588C6.87027 5.65213 7.01543 5.67346 7.21589 5.83697ZM4.73432 6.5692C5.10068 6.60474 5.44631 6.71848 6.56612 7.14503C6.82188 7.24455 6.82879 7.25877 7.05691 7.76351C7.21589 8.12607 7.19515 8.28958 7.00161 8.36777C6.93248 8.39621 6.86336 8.43176 6.84262 8.45308C6.78732 8.52417 6.56612 8.64503 5.8887 8.99337C4.80345 9.55498 4.38179 9.43412 3.18594 8.2327C2.46704 7.5218 2.43248 7.14503 3.04769 6.76825C3.25506 6.64029 4.14677 6.45545 4.28502 6.51232C4.30575 6.51943 4.50621 6.54076 4.73432 6.5692ZM7.89331 7.2801C8.21128 7.72796 8.88179 8.95782 8.80575 8.95782C8.7781 8.95782 8.79193 9.00048 8.8334 9.04313C8.92326 9.16398 9.19976 10.0384 9.15829 10.081C9.03386 10.209 7.97626 8.71612 7.56151 7.84171C7.17442 7.00995 7.17442 6.8891 7.53386 6.83934C7.5546 6.83223 7.71359 7.03128 7.89331 7.2801ZM11.3426 7.21612C12.0615 7.6 12.3587 8.8583 11.8472 9.32749C11.4117 9.71848 10.7343 9.64029 9.79423 9.10711C9.26889 8.80142 9.20668 8.74455 8.9993 8.33223C8.7781 7.89858 8.77119 7.87725 8.8887 7.74218C8.95091 7.67109 9.04078 7.60711 9.08225 7.60711C9.12373 7.60711 9.25506 7.55735 9.36566 7.49337C10.1399 7.07394 10.8795 6.97441 11.3426 7.21612ZM7.73432 9.05024C7.99009 9.46256 8.07303 10.1308 7.95552 10.8701C7.79654 11.8512 7.40944 12.2635 6.80114 12.0929C6.497 12.0076 5.944 11.6095 5.944 11.4744C5.944 11.4246 5.8887 11.3322 5.82649 11.2611C5.59147 11.0265 5.65368 10.273 5.93709 9.84645C6.17903 9.47678 7.38179 8.5455 7.47165 8.65924C7.49239 8.68768 7.6099 8.8654 7.73432 9.05024Z" fill="currentColor"/>
</svg>
