<svg width="15" height="15" viewBox="0 0 15 15" fill="none" xmlns="http://www.w3.org/2000/svg">
<path d="M3.99991 1.96551C3.88149 2.19051 4.14464 2.44551 4.94728 2.91051C5.53938 3.27051 5.92096 3.76551 5.92096 4.20051C5.92096 4.29051 5.6578 4.35051 5.34201 4.35051C4.84201 4.35051 4.71043 4.29051 4.48675 3.91551C3.97359 3.09051 1.48675 2.70051 1.74991 3.48051C1.78938 3.63051 2.10517 3.73551 2.63149 3.79551C3.84201 3.94551 4.42096 4.48551 3.61833 4.71051C3.43412 4.77051 3.05254 5.08551 2.76307 5.41551C1.46043 6.94551 2.01307 9.85552 3.69728 10.2755C4.48675 10.4705 3.77622 11.0705 2.5657 11.2055C1.82886 11.2955 1.57886 11.5355 1.92096 11.8655C2.4078 12.3305 4.60517 11.4305 4.60517 10.7855C4.60517 10.7105 4.9078 10.6505 5.26307 10.6505C5.73675 10.6505 5.92096 10.7105 5.92096 10.8605C5.92096 11.2355 5.35517 11.8805 4.77622 12.1655C4.18412 12.4505 3.94728 12.8105 4.18412 13.0805C4.38149 13.3055 6.10517 12.2405 6.30254 11.7605C6.38149 11.5505 6.44728 11.1905 6.44728 10.9355C6.44728 10.5905 6.52622 10.4555 6.78938 10.3355C6.98675 10.2605 7.14464 10.2155 7.1578 10.2305C7.17096 10.2605 7.30254 10.5905 7.46043 10.9805C7.71043 11.5805 7.86833 11.7455 8.57886 12.1505C9.03938 12.4055 9.55254 12.7205 9.73675 12.8405C10.1841 13.1255 10.921 13.1255 10.921 12.8255C10.921 12.5855 10.5262 12.3005 10.171 12.3005C10.0394 12.3005 9.86833 12.1805 9.78938 12.0305C9.69728 11.8805 9.39464 11.6705 9.10517 11.5805C8.46043 11.3555 7.89464 10.8605 7.89464 10.5155C7.89464 10.3055 7.97359 10.2605 8.21043 10.3055C8.39464 10.3505 8.74991 10.3055 9.02622 10.2005C9.47359 10.0205 9.52622 10.0355 9.72359 10.3355C10.342 11.2655 11.7236 11.5655 12.5789 10.9655C13.1183 10.5905 13.6052 9.70552 13.4867 9.28552C13.3946 8.95552 13.4341 8.95552 12.2762 9.25552C11.9999 9.33052 11.9867 9.30052 12.0525 8.86552C12.1315 8.46052 12.1052 8.40052 11.8683 8.40052C11.7104 8.40052 11.5525 8.46052 11.5131 8.55052C11.4736 8.62552 11.2236 8.70052 10.9867 8.70052C10.421 8.70052 10.3025 8.44552 10.3289 7.35052C10.3552 6.33051 10.6841 6.03051 11.3946 6.37551C11.8552 6.58551 12.1841 6.45051 12.0657 6.09051C11.9473 5.76051 12.1052 5.70051 12.6578 5.83551C13.592 6.07551 13.842 5.44551 13.1315 4.57551C12.2499 3.51051 10.8289 3.52551 9.88149 4.60551C9.49991 5.04051 9.38149 5.10051 9.18412 4.96551C9.05254 4.87551 8.71043 4.80051 8.42096 4.80051C7.47359 4.80051 7.89464 3.88551 9.01307 3.51051C9.4078 3.39051 9.73675 3.19551 9.73675 3.09051C9.73675 3.00051 9.98675 2.82051 10.3025 2.70051C11.0394 2.40051 11.0657 2.01051 10.3289 2.07051C10.0394 2.10051 9.71043 2.20551 9.60517 2.31051C9.49991 2.41551 9.14464 2.61051 8.8157 2.76051C7.9078 3.15051 7.23675 3.97551 7.23675 4.72551C7.23675 4.93551 7.19728 4.93551 6.84201 4.72551C6.51307 4.53051 6.44728 4.41051 6.44728 3.93051C6.44728 3.21051 6.1578 2.83551 5.13149 2.25051C4.27622 1.75551 4.13149 1.72551 3.99991 1.96551ZM12.592 4.87551L12.9604 5.25051L12.4078 5.16051C12.0525 5.10051 11.7762 5.13051 11.6578 5.23551C11.4341 5.44551 10.1052 5.85051 9.96043 5.74551C9.8157 5.64051 10.3815 4.80051 10.7104 4.65051C11.3025 4.36551 12.1973 4.48551 12.592 4.87551ZM6.52622 5.34051C6.94728 5.56551 6.97359 5.62551 6.97359 6.31551C6.97359 6.72051 6.93412 7.06551 6.88149 7.06551C6.8157 7.08051 5.86833 7.11051 4.77622 7.14051C2.5657 7.20051 2.55254 7.18551 2.96043 6.30051C3.17096 5.83551 3.72359 5.32551 4.14464 5.20551C4.76307 5.04051 6.09201 5.11551 6.52622 5.34051ZM8.98675 5.56551C9.49991 5.82051 9.67096 6.37551 9.6578 7.59052C9.63149 8.89552 9.43412 9.34552 8.74991 9.60052C8.21043 9.79552 7.63149 9.51052 7.63149 9.03052C7.61833 8.89552 7.59201 8.50552 7.55254 8.19052C7.27622 6.09051 7.89464 4.99551 8.98675 5.56551ZM6.99991 8.58052C7.05254 9.55552 6.80254 9.76552 5.52622 9.87052C4.07886 9.99052 2.93412 9.31552 2.69728 8.20552L2.60517 7.80052L4.77622 7.81552H6.94728L6.99991 8.58052ZM10.7894 9.30052C11.1183 9.30052 11.3552 9.40552 11.5262 9.61552C11.7236 9.87052 11.8683 9.91552 12.3683 9.82552L12.9604 9.73552L12.5262 10.2005C11.8289 10.9505 10.6578 10.7555 10.0525 9.78052C9.84201 9.43552 9.94728 8.88052 10.171 9.13552C10.2499 9.22552 10.5262 9.30052 10.7894 9.30052Z" fill="black"/>
<path d="M8.36762 5.83488C8.27552 5.99988 8.60446 6.32988 8.72289 6.19488C8.77552 6.14988 8.81499 6.01488 8.81499 5.89488C8.81499 5.66988 8.47289 5.62488 8.36762 5.83488Z" fill="black"/>
<path d="M8.46064 8.94056C8.36853 9.22556 8.48695 9.36056 8.75011 9.25556C9.00011 9.13556 9.00011 8.91056 8.75011 8.79056C8.63169 8.74556 8.51327 8.80556 8.46064 8.94056Z" fill="black"/>
</svg>
