<svg width="15" height="15" viewBox="0 0 15 15" fill="none" xmlns="http://www.w3.org/2000/svg">
<path d="M9.07813 2.15145C8.92023 2.42417 8.49918 2.90902 8.17023 3.2272C7.59128 3.74236 7.52549 3.87872 7.39391 4.75751C7.30181 5.28781 7.23602 5.86357 7.23602 6.03023C7.23602 6.63629 6.78865 6.28781 6.34128 5.33326C5.88076 4.33326 5.53865 4.04539 4.69655 3.89387C4.43339 3.84842 4.02549 3.6666 3.81497 3.48478C3.42023 3.15145 3.15707 3.18175 3.15707 3.56054C3.15707 3.92417 3.82813 4.37872 4.63076 4.57569C5.38076 4.75751 5.42023 4.78781 5.78865 5.59084C6.24918 6.56054 6.10444 6.87872 5.48602 6.27266C5.27549 6.07569 5.06497 5.90902 5.02549 5.89387C4.97286 5.89387 4.77549 5.84842 4.59128 5.81811C4.3676 5.77266 4.07813 5.89387 3.76234 6.13629C3.18339 6.59084 2.69655 6.40902 2.27549 5.60599C2.02549 5.10599 1.57812 4.98478 1.57812 5.40902C1.57812 5.90902 2.06497 6.60599 2.6176 6.87872C3.1176 7.15145 3.15707 7.21205 3.15707 7.74236C3.15707 8.25751 3.10444 8.36357 2.65707 8.62114C2.02549 8.99993 1.53865 9.59084 1.60444 9.93932C1.65707 10.2727 2.10444 10.4242 2.10444 10.106C2.10444 9.84842 2.43339 9.49993 2.9597 9.18175C3.31497 8.96963 3.3676 8.96963 3.63076 9.25751C4.13076 9.80296 4.88076 9.80296 5.40707 9.27266C6.01234 8.6666 6.3676 8.83326 5.94655 9.51508C5.78865 9.75751 5.60444 10.1363 5.52549 10.3636C5.4597 10.5757 5.31497 10.7575 5.22286 10.7575C4.42023 10.7575 2.97286 11.6363 3.1176 12.0454C3.22286 12.3636 3.60444 12.3181 3.88076 11.9696C4.01234 11.803 4.22286 11.6666 4.34128 11.6666C4.4597 11.6666 4.85444 11.5605 5.2097 11.4393C5.82813 11.2272 5.89391 11.1666 6.24918 10.2878C6.57813 9.51508 6.89391 9.09084 7.14391 9.09084C7.18339 9.09084 7.24918 9.60599 7.30181 10.2272L7.39391 11.3636L8.43339 12.5757C9.01234 13.2424 9.53865 13.7575 9.6176 13.7121C9.99918 13.4242 9.44655 12.4696 8.38076 11.5908C8.03865 11.3181 7.99918 11.1666 7.90707 10.0757C7.76234 8.46963 7.88076 8.39387 8.52549 9.74236C9.1176 10.9848 9.34128 11.1514 10.8413 11.5151C11.4465 11.6514 11.7229 11.8181 12.0387 12.2121C12.4992 12.7727 12.8939 12.8787 12.8939 12.4545C12.8939 11.8636 11.9597 11.0908 10.986 10.8484C9.77549 10.5605 9.65707 10.4999 9.42023 10.0757C9.30181 9.86357 9.2097 9.68175 9.2097 9.6666C9.2097 9.63629 9.60444 9.62114 10.1044 9.60599C11.0913 9.59084 11.5781 9.36357 12.3808 8.53023C12.9992 7.87872 13.0255 7.60599 12.486 6.90902C11.9334 6.18175 10.815 5.71205 9.90707 5.80296C8.56497 5.95448 9.44655 5.03023 11.0387 4.63629C12.1044 4.36357 12.8939 3.71205 12.8939 3.06054C12.8939 2.60599 12.4729 2.6969 12.0913 3.2272C11.815 3.60599 11.5518 3.80296 11.2097 3.87872C9.76234 4.1666 9.03865 4.60599 8.67023 5.42417C7.89391 7.1666 7.68339 7.15145 7.90707 5.39387C8.05181 4.25751 8.06497 4.2272 8.74918 3.54539C9.57813 2.74236 9.89392 2.2272 9.78865 1.90902C9.65707 1.53023 9.39392 1.62114 9.07813 2.15145ZM5.09128 6.90902C5.63076 7.54539 5.27549 8.93932 4.56497 8.93932C4.19655 8.93932 3.68339 8.34842 3.68339 7.93932C3.68339 6.68175 4.42023 6.13629 5.09128 6.90902ZM9.80181 7.7272C9.80181 9.12114 9.59128 9.30296 8.81497 8.54539C8.10444 7.84842 8.59128 6.57569 9.60444 6.53023C9.76234 6.51508 9.80181 6.74236 9.80181 7.7272ZM11.065 6.6666C11.4597 6.90902 11.4202 8.37872 11.0255 8.6969C10.4071 9.1969 10.2887 9.04539 10.315 7.7272C10.3281 6.42417 10.4334 6.28781 11.065 6.6666ZM7.42023 7.33326L7.81497 7.68175L7.4597 8.09084C7.09128 8.51508 6.64391 8.59084 6.30181 8.28781C5.82813 7.84842 5.97286 7.21205 6.57813 7.07569C6.76234 7.04539 6.93339 6.99993 6.97286 6.98478C7.01234 6.98478 7.2097 7.13629 7.42023 7.33326ZM12.1965 7.51508C12.236 7.63629 12.1702 7.86357 12.0518 7.99993C11.8544 8.2272 11.8413 8.21205 11.8413 7.75751C11.8413 7.25751 12.0518 7.10599 12.1965 7.51508Z" fill="black"/>
</svg>
