<svg width="15" height="15" viewBox="0 0 15 15" fill="none" xmlns="http://www.w3.org/2000/svg">
<path d="M6.16169 2.92401C5.97707 3.09792 5.60784 3.29357 5.34246 3.35879C5.06554 3.43488 4.66169 3.65227 4.41938 3.88053C4.14246 4.1414 3.88861 4.27184 3.72707 4.2501C3.42707 4.21749 2.88477 4.68488 2.88477 4.96749C2.88477 5.2827 3.21938 5.66314 3.6463 5.82618C4.0963 6.0001 4.0963 6.0327 3.854 7.02184C3.06938 10.2284 5.41169 14.5762 7.13092 13.1088C7.56938 12.7392 7.86938 12.0653 7.93861 11.3371L7.9963 10.6631L8.55015 10.9349C9.50784 11.3805 9.65784 11.3044 9.7963 10.2501L9.86554 9.69575L10.4771 9.96749C11.6078 10.4675 13.0502 10.2718 13.2348 9.57618C13.5348 8.43488 12.3925 6.65227 10.604 5.52184C9.704 4.94575 8.40015 4.34792 8.04246 4.34792C7.63861 4.34792 7.47707 4.07618 7.604 3.65227C7.70784 3.26097 7.6963 3.20662 7.38477 2.92401C6.96938 2.52183 6.57707 2.52183 6.16169 2.92401ZM7.11938 3.31531C7.21169 3.56531 7.10784 3.60879 6.77323 3.44575C6.45015 3.2827 6.47323 3.15227 6.83092 3.15227C6.9463 3.15227 7.07323 3.22836 7.11938 3.31531ZM6.57707 3.94575C6.96938 4.13053 6.88861 4.26097 6.254 4.48923C5.954 4.59792 5.41169 4.90227 5.054 5.17401L4.38477 5.65227L4.37323 5.34792C4.35015 4.88053 4.38477 4.7501 4.65015 4.38053C5.01938 3.86966 5.96554 3.65227 6.57707 3.94575ZM3.80784 5.06531C3.80784 5.40227 3.54246 5.36966 3.48477 5.02184C3.46169 4.85879 3.50784 4.7827 3.62323 4.7827C3.75015 4.7827 3.80784 4.88053 3.80784 5.06531ZM7.36169 5.48923C7.41938 6.67401 6.81938 7.18488 5.83861 6.7827C4.59246 6.26097 4.55784 6.0327 5.58477 5.40227C6.93477 4.57618 7.31554 4.59792 7.36169 5.48923ZM9.78477 5.56531C10.604 6.0327 12.3578 7.63053 12.1963 7.7827C12.1271 7.84792 10.2463 6.85879 10.0386 6.6414C9.9463 6.54357 9.43861 6.13053 8.91938 5.72836C8.38861 5.31531 7.96169 4.93488 7.96169 4.88053C7.96169 4.73923 9.02323 5.1414 9.78477 5.56531ZM8.55015 5.94575C9.00015 6.34792 9.05784 6.46749 9.404 7.83705C9.61169 8.67401 9.61169 8.69575 9.47323 8.69575C9.11554 8.69575 7.96169 6.44575 7.96169 5.7501C7.96169 5.46749 8.01938 5.48923 8.55015 5.94575ZM4.67323 7.08705C4.6963 7.22836 4.80015 7.80444 4.91554 8.36966C5.1463 9.55444 5.204 10.261 5.11169 11.0218L5.04246 11.5544L4.82323 11.1631C4.32707 10.2284 4.05015 7.77184 4.37323 7.02184C4.52323 6.68488 4.62707 6.70662 4.67323 7.08705ZM7.96169 7.56531C7.96169 7.58705 7.754 7.70662 7.48861 7.83705L7.01554 8.05444L6.73861 7.81531L6.46169 7.56531L6.87707 7.43488C7.10784 7.35879 7.37323 7.20662 7.47707 7.08705C7.66169 6.86966 7.67323 6.86966 7.81169 7.19575C7.89246 7.38053 7.96169 7.54357 7.96169 7.56531ZM10.5232 7.81531C11.2732 8.8914 11.7117 9.78271 11.4925 9.78271C11.4578 9.78271 11.1232 9.65227 10.7425 9.5001C10.1078 9.23923 10.0386 9.17401 9.98092 8.81531C9.91169 8.46749 9.78477 7.81531 9.62323 7.08705C9.56554 6.83705 9.57707 6.83705 9.83092 7.02184C9.98092 7.11966 10.2925 7.47836 10.5232 7.81531ZM6.104 7.8914C6.71554 8.54357 7.31554 9.55444 7.2463 9.83705C7.22323 9.94575 6.92323 9.7501 6.33477 9.20662C5.51554 8.46749 5.07707 7.73923 5.07707 7.13053C5.07707 6.96749 5.56169 7.32618 6.104 7.8914ZM11.7578 8.0001C12.6694 8.43488 12.9463 8.83705 12.6809 9.38053C12.4155 9.92401 12.1502 9.82618 11.7578 9.04357C11.5617 8.6414 11.2732 8.15227 11.1232 7.95662C10.7655 7.52184 10.7655 7.52184 11.7578 8.0001ZM8.37707 8.22836C8.63092 8.54357 8.56169 8.67401 8.07707 8.91314L7.62707 9.13053L7.44246 8.79357C7.22323 8.40227 7.21169 8.42401 7.73092 8.21749C8.23861 8.01097 8.19246 8.01097 8.37707 8.22836ZM7.41938 10.7284C7.52323 10.8914 7.304 12.0653 7.17707 12.0653C6.9463 12.0653 5.72323 9.95662 5.46938 9.13053C5.38861 8.86966 7.17707 10.3262 7.41938 10.7284ZM9.21938 9.46749C9.08092 9.71749 8.61938 9.97836 8.23861 10.0218C7.95015 10.0544 7.904 10.011 7.86938 9.7501C7.8463 9.56531 7.88092 9.45662 7.98477 9.45662C8.07707 9.45662 8.31938 9.33705 8.53861 9.19575C8.90784 8.95662 8.954 8.94575 9.12707 9.11966C9.254 9.22836 9.28861 9.35879 9.21938 9.46749ZM9.26554 10.5544C9.16169 10.6523 8.654 10.5653 8.654 10.4457C8.654 10.4023 8.79246 10.3153 8.97707 10.261C9.30015 10.1523 9.4963 10.3371 9.26554 10.5544ZM5.94246 11.0544C6.18477 11.4675 6.4963 11.9457 6.6463 12.1414C6.98092 12.5653 6.98092 12.5653 6.6463 12.7718C6.32323 12.9784 5.76938 12.7936 5.58477 12.424C5.504 12.2718 5.42323 10.3262 5.504 10.3262C5.51554 10.3262 5.71169 10.6523 5.94246 11.0544Z" fill="black"/>
</svg>
