<svg width="15" height="15" viewBox="0 0 15 15" fill="none" xmlns="http://www.w3.org/2000/svg">
<path d="M9.03976 2.47706C8.44172 2.7139 7.75545 4.08561 7.59859 5.32903C7.46133 6.51324 7.32408 6.73035 7.21623 5.97048C7.14761 5.53627 6.81427 5.13167 6.51035 5.13167C6.32408 5.13167 6.25545 4.79614 6.33388 4.28298C6.3927 3.87838 6.3829 3.82903 6.21623 3.86851C5.94172 3.91785 5.82408 4.3718 5.95153 4.85535C6.10839 5.43759 5.85349 5.65469 5.26525 5.45732C4.75545 5.27969 4.27506 5.31917 4.23584 5.54614C4.20643 5.69417 4.27506 5.72377 4.59859 5.72377C5.21623 5.72377 5.49074 5.8718 5.49074 6.19746C5.49074 6.51324 5.77506 6.82903 6.22604 7.0264C6.50055 7.13496 6.43192 7.15469 5.44172 7.2139C3.58878 7.33232 2.8731 7.52969 2.47114 8.03298C2.11819 8.48693 2.3731 9.0889 2.98094 9.25667C3.46133 9.39482 4.80447 9.21719 5.14761 8.98035C5.20643 8.94088 5.32408 8.88167 5.42212 8.85206C5.61819 8.78298 5.45153 9.06917 5.02996 9.52311C4.79466 9.77969 4.51035 10.4113 4.51035 10.6678C4.51035 11.5363 5.54957 11.6053 6.29466 10.7961C6.65741 10.4014 7.24564 9.23693 7.31427 8.77311C7.40251 8.23035 7.6378 8.26982 8.03976 8.89153C8.21623 9.16785 8.72604 9.76982 9.16721 10.2238C10.0398 11.1119 10.3143 11.2402 10.5104 10.806C10.6084 10.579 10.5692 10.4902 10.1672 9.88824C9.58878 9.03956 9.27506 8.64482 8.73584 8.13167C8.24564 7.65798 8.27506 7.50009 8.85349 7.50009C10.2162 7.49022 11.6672 6.59219 11.6672 5.75338C11.6672 5.00338 10.8633 4.85535 9.80447 5.39811C9.15741 5.74351 9.128 5.73364 9.41231 5.32903C10.1084 4.35206 10.2947 3.20732 9.84368 2.67443C9.57898 2.35864 9.42212 2.31917 9.03976 2.47706ZM9.58878 2.98035C9.8927 3.28627 9.43192 4.81588 8.82408 5.5264C8.28486 6.15798 7.91231 6.51324 7.86329 6.4639C7.83388 6.44417 7.8731 6.07903 7.94172 5.65469C8.27506 3.71061 9.05937 2.44746 9.58878 2.98035ZM11.2751 5.76324C11.2751 6.0593 10.6182 6.61193 10.0005 6.84877C9.43192 7.05601 8.24564 7.20403 8.16721 7.06588C8.128 7.01653 8.15741 6.94746 8.22604 6.92772C8.29466 6.90798 8.43192 6.79943 8.51035 6.70074C8.59859 6.59219 8.72604 6.51324 8.79466 6.51324C8.86329 6.51324 8.92212 6.47377 8.92212 6.4343C8.92212 6.38496 9.03976 6.28627 9.19662 6.21719C9.34368 6.13824 9.52996 6.01982 9.61819 5.95074C9.86329 5.75338 10.5104 5.53627 10.9123 5.53627C11.2358 5.5264 11.2751 5.55601 11.2751 5.76324ZM6.74564 5.74351C7.07898 6.07903 6.60839 6.75009 6.19663 6.52311C5.90251 6.36522 5.8731 6.15798 6.08878 5.88167C6.30447 5.60535 6.55937 5.55601 6.74564 5.74351ZM7.41231 6.86851C7.8829 7.1843 8.128 7.99351 7.75545 7.99351C7.3731 7.99351 6.73584 7.09548 6.91231 6.81917C7.00055 6.67114 7.128 6.68101 7.41231 6.86851ZM6.47113 7.69746C6.47113 7.80601 5.60839 8.38824 5.45153 8.38824C5.3927 8.38824 5.21623 8.45732 5.05937 8.53627C4.24564 8.97048 3.1378 9.02969 2.77506 8.66456C2.56917 8.44746 2.95153 8.02311 3.46133 7.88496C4.46133 7.61851 6.47113 7.49022 6.47113 7.69746ZM7.00055 8.41785C6.76525 9.54285 5.78486 10.9442 5.21623 10.954C4.628 10.9639 5.02015 10.0363 6.11819 8.84219C6.90251 7.97377 7.11819 7.87509 7.00055 8.41785ZM8.72604 8.75338C8.72604 8.97048 8.45153 8.9014 8.27506 8.63496C8.04957 8.28956 8.19663 8.1218 8.49074 8.39811C8.61819 8.51653 8.72604 8.67443 8.72604 8.75338ZM9.26525 9.33561C9.49074 9.69088 9.31427 9.86851 9.02996 9.56259C8.92212 9.4343 8.82408 9.2764 8.82408 9.20732C8.82408 8.99022 9.08878 9.06917 9.26525 9.33561ZM9.82408 10.0363C10.1084 10.2928 10.0594 10.5001 9.75545 10.3027C9.61819 10.2139 9.51035 10.0757 9.51035 10.0067C9.51035 9.82903 9.59859 9.82903 9.82408 10.0363Z" fill="currentColor"/>
</svg>
