<svg width="15" height="15" viewBox="0 0 15 15" fill="none" xmlns="http://www.w3.org/2000/svg">
<path d="M6.02136 2.07647L4.97881 2.13416L4.44689 3.17262C4.14902 3.73801 3.90434 4.26878 3.8937 4.33801C3.88306 4.41878 3.81923 4.5457 3.7554 4.62647C3.70221 4.71878 3.46817 5.1457 3.23413 5.5957C2.50008 7.06108 1.68094 8.46878 1.26604 9.01108C0.766042 9.65724 0.851149 9.91108 1.59583 9.99185C3.13838 10.1534 4.55328 10.2226 6.40434 10.2111C8.2554 10.2111 8.51072 10.2342 8.51072 10.3957C8.51072 10.6842 8.3937 10.7303 8.08519 10.5572C7.50008 10.2226 7.21285 11.1919 7.68094 11.9188C7.8086 12.1149 7.86179 12.2419 7.79796 12.1957C7.65966 12.1034 7.2554 12.4495 7.22349 12.6919C7.18094 13.0842 7.24477 13.2919 7.50008 13.5572C7.86179 13.9611 8.34051 13.938 9.00008 13.488C9.91498 12.8534 10.1277 12.7842 10.6597 12.9919C10.915 13.0842 11.2341 13.188 11.3831 13.2111C11.532 13.2342 11.8192 13.3034 12.0214 13.3611C12.7022 13.5457 13.1916 13.0726 13.1916 12.2419C13.1916 11.8842 12.8299 11.5034 12.532 11.5495C12.0746 11.6072 12.0214 11.5611 12.1916 11.1342C12.266 10.9149 12.3405 10.5572 12.3405 10.338C12.3405 9.91108 12.3831 9.88801 13.5639 9.78416C14.032 9.73801 14.0426 9.29954 13.5852 8.65339C12.9043 7.68416 11.2767 4.5457 11.2767 4.21108C11.2767 4.17647 11.0639 3.65724 10.798 3.0457L10.3192 1.94954L8.69157 1.98416C7.8086 2.00724 6.60647 2.04185 6.02136 2.07647ZM10.7129 4.6957C11.8299 7.10724 12.2554 7.97262 12.6703 8.58416C13.032 9.12647 13.0639 9.09185 12.3405 9.14954C12.0214 9.17262 11.6809 9.23031 11.5852 9.27647C11.4469 9.3457 11.3511 9.23031 11.1384 8.7457C10.7873 7.96108 10.2129 7.23416 10.0001 7.31493C9.91498 7.36108 9.76604 7.51108 9.68094 7.66108C9.59583 7.79954 9.37243 8.16878 9.19157 8.45724L8.86179 8.98801L8.64902 8.73416C7.87243 7.77647 6.02136 4.21108 5.70221 3.03416C5.61711 2.7457 5.43626 2.76878 8.58519 2.67647L9.77668 2.64185L10.7129 4.6957ZM5.60647 4.59185C6.10647 5.7457 7.69157 8.71108 8.01072 9.08031C8.12774 9.23031 8.20221 9.38031 8.15966 9.41493C8.04264 9.54185 6.55328 9.56493 6.41498 9.44954C6.28732 9.32262 5.88306 8.22647 5.58519 7.16493C5.41498 6.56493 5.20221 4.03801 5.31923 4.03801C5.35115 4.03801 5.47881 4.29185 5.60647 4.59185ZM4.57455 6.17262C4.43626 6.9457 4.38306 7.15339 3.96817 8.51493L3.68094 9.47262L3.20221 9.44954C2.69157 9.41493 2.12774 9.23031 2.12774 9.10339C2.12774 9.06878 2.2554 8.82647 2.40434 8.58416C2.65966 8.18031 3.65966 6.31108 4.35115 4.93801L4.62774 4.38416L4.65966 4.93801C4.68094 5.23801 4.63838 5.79185 4.57455 6.17262ZM10.3618 8.75724C10.5107 8.99954 10.6597 9.40339 10.7022 9.6457C10.8405 10.5111 10.9894 10.6495 11.3618 10.2572C11.4894 10.1303 11.6384 10.0495 11.6916 10.0842C11.8831 10.2111 11.6171 10.938 11.266 11.2957C10.7873 11.7688 10.6384 11.7457 10.6384 11.238C10.6384 10.7995 10.3724 10.1995 10.1384 10.1072C9.8937 10.0034 9.56391 10.7303 9.59583 11.2842L9.62774 11.7919L9.3937 11.4803C8.95753 10.938 9.09583 9.96878 9.76604 8.80339C10.1065 8.20339 10.0533 8.21493 10.3618 8.75724ZM12.4894 12.5188C12.4043 12.738 12.149 12.738 11.6916 12.5188L11.3299 12.3572L11.9363 12.3457C12.4363 12.3457 12.532 12.3803 12.4894 12.5188ZM8.56391 12.9226C8.06391 13.188 7.94689 13.1995 8.00008 13.0149C8.05328 12.8649 8.41498 12.7149 8.77668 12.7034C8.90434 12.7034 8.82987 12.7842 8.56391 12.9226Z" fill="currentColor"/>
</svg>
