<svg width="15" height="15" viewBox="0 0 15 15" fill="none" xmlns="http://www.w3.org/2000/svg">
<path d="M6.17864 1.58716C5.89898 1.81542 5.9117 1.83716 6.50915 2.3589L7.04305 2.82629H6.6617C6.40746 2.82629 6.1278 2.7176 5.9117 2.54369C4.81847 1.68499 2.65746 1.78282 1.71678 2.73934C1.31 3.15238 1.32271 3.32629 1.75492 3.55456C1.94559 3.65238 2.12356 3.75021 2.13627 3.76108C2.16169 3.77195 2.03458 4.00021 1.86932 4.26108C1.43712 4.88064 1.19559 6.02195 1.38627 6.45673C1.5261 6.76108 1.55153 6.77195 2.22525 6.70673C2.83542 6.65238 2.92441 6.67412 2.92441 6.83716C2.92441 6.94586 3.05153 7.15238 3.21678 7.29369C3.45831 7.53282 3.48373 7.59803 3.3439 7.82629C2.88627 8.6089 3.26763 9.64151 4.13203 9.95673C4.5261 10.098 4.53881 10.1306 4.48797 10.5654C4.4117 11.1306 4.80576 11.7067 5.40322 11.935C5.74644 12.0654 5.78458 12.1306 5.79729 12.6089C5.81 13.2502 6.10237 13.6633 6.69983 13.8806C7.81847 14.2719 9.16593 13.4024 8.96254 12.4241C8.89898 12.1524 8.96254 12.0872 9.45831 11.8263C10.0558 11.5219 10.3608 10.9785 10.221 10.5002C10.1702 10.3263 10.2592 10.2285 10.6151 10.0546C11.149 9.81542 11.5685 9.20673 11.5685 8.67412C11.5685 8.38064 11.632 8.28282 11.9498 8.17412C12.56 7.93499 12.9922 6.88064 12.6617 6.42412C12.5981 6.34803 12.7253 6.30456 12.9922 6.30456C13.7422 6.30456 14.0219 6.03282 13.9456 5.42412C13.8566 4.83716 13.6405 4.42412 13.1447 3.92412C12.7888 3.56542 11.6575 3.00021 11.5176 3.11977C11.4795 3.16325 11.4414 3.13064 11.4414 3.06542C11.4414 2.98934 11.5176 2.93499 11.6066 2.93499C11.7083 2.93499 12.0007 2.77195 12.2676 2.57629L12.7507 2.2176L12.3693 1.84803C11.988 1.48934 11.9498 1.47847 11.0473 1.48934C9.85237 1.50021 9.33119 1.69586 8.5939 2.40238C8.26339 2.70673 7.98373 2.94586 7.97102 2.92412C7.94559 2.90238 7.81847 2.69586 7.69136 2.4676C7.43712 2.05455 6.71254 1.41325 6.48373 1.41325C6.42017 1.41325 6.28034 1.48934 6.17864 1.58716ZM10.8312 2.48934C10.31 2.81542 10.0558 3.20673 10.2592 3.36977C10.31 3.41325 10.6786 3.53282 11.06 3.64151C11.8481 3.8589 12.8651 4.64151 13.0176 5.16325C13.132 5.56542 13.1447 5.55456 11.9244 5.56542C11.2253 5.57629 10.7676 5.63064 10.5769 5.73934C10.31 5.88064 10.2592 5.88064 10.0049 5.67412C9.67441 5.40238 9.1278 5.2176 8.69559 5.2176C8.42864 5.2176 8.39051 5.17412 8.39051 4.78282V4.34803L8.93712 4.33716C9.85237 4.31542 10.0812 4.3589 10.7168 4.65238C11.2253 4.90238 11.3397 4.92412 11.4414 4.78282C11.721 4.40238 10.5769 3.86977 9.44559 3.86977C8.56848 3.8589 8.56848 3.84803 8.82271 3.32629C9.11509 2.7176 10.0812 2.19586 10.9202 2.18499L11.3524 2.17412L10.8312 2.48934ZM5.04729 2.80455C5.22525 2.89151 5.17441 2.94586 4.72949 3.14151C3.94136 3.48934 3.30576 4.00021 3.30576 4.30456C3.30576 4.65238 3.45831 4.63064 3.96678 4.22847C4.39898 3.88064 4.81847 3.66325 5.31424 3.54369C5.56847 3.4676 5.5939 3.50021 5.5939 3.88064C5.5939 4.31542 5.41593 4.95673 5.22525 5.20673C5.12356 5.33716 5.03458 5.30456 4.70407 5.07629C4.23373 4.73934 4.13203 4.7176 3.91593 4.95673C3.29305 5.61977 2.40322 6.11977 2.19983 5.93499C1.99644 5.76108 2.35237 4.84803 2.81 4.32629C3.42017 3.63064 3.42017 3.63064 2.83542 3.34803L2.36508 3.1089L3.00068 2.84803C3.63627 2.58716 4.55153 2.57629 5.04729 2.80455ZM7.29729 3.69586C7.51339 3.88064 7.6278 5.03282 7.43712 5.19586C7.37356 5.25021 6.10237 5.31542 6.10237 5.26108C6.10237 5.25021 6.16593 5.09803 6.2422 4.92412C6.31847 4.76108 6.36932 4.33716 6.36932 3.98934L6.35661 3.36977L6.71254 3.43499C6.90322 3.47847 7.15746 3.58716 7.29729 3.69586ZM4.69136 5.91325C5.14898 6.32629 5.03458 7.00021 4.50068 7.04369C3.73797 7.1089 3.45831 6.55456 3.96678 5.97847C4.29729 5.58716 4.33542 5.58716 4.69136 5.91325ZM7.34814 6.17412C7.56424 6.42412 7.43712 6.9676 7.10661 7.19586C6.20407 7.82629 5.21254 6.83716 6.03881 6.13064C6.40746 5.81542 7.04305 5.84803 7.34814 6.17412ZM9.56 6.23934C9.61085 6.30456 9.6617 6.53282 9.6617 6.73934C9.6617 7.17412 9.57271 7.31542 9.21678 7.47847C8.82271 7.65238 8.08542 7.32629 8.18712 7.02195C8.22525 6.89151 8.26339 6.64151 8.26339 6.44586C8.26339 5.90238 9.19136 5.75021 9.56 6.23934ZM11.8227 6.51108C12.0261 6.84803 11.9753 7.2176 11.6956 7.47847C11.3778 7.76108 11.4286 7.76108 10.8693 7.53282C10.4371 7.3589 10.4117 7.31542 10.488 6.95673C10.6024 6.43499 10.7676 6.30456 11.2634 6.30456C11.5558 6.30456 11.7337 6.36977 11.8227 6.51108ZM5.44136 7.89151C5.81 8.1089 5.82271 8.77195 5.46678 9.1089C4.86932 9.65238 3.94136 9.30456 3.94136 8.54369C3.94136 7.8589 4.78034 7.48934 5.44136 7.89151ZM8.21254 8.20673C8.79729 8.97847 7.56424 9.84803 6.80153 9.19586C6.45831 8.90238 6.39475 8.51108 6.64898 8.23934C7.00492 7.84803 7.92017 7.82629 8.21254 8.20673ZM10.6532 8.39151C10.8439 8.66325 10.8439 8.7176 10.6532 9.06542C10.2337 9.79369 9.15322 9.61977 9.15322 8.81542C9.15322 8.01108 10.1702 7.72847 10.6532 8.39151ZM6.67441 10.0546C7.27186 10.5546 6.8778 11.4133 6.03881 11.4133C5.26339 11.4133 5.02186 10.1415 5.74644 9.89151C6.20407 9.73934 6.3439 9.76108 6.67441 10.0546ZM9.2422 10.1306C9.52187 10.3263 9.44559 11.0546 9.1278 11.2393C8.18712 11.8046 7.27187 10.848 8.08542 10.1524C8.41593 9.8589 8.86085 9.8589 9.2422 10.1306ZM7.92017 12.0437C8.03458 12.1306 8.13627 12.3589 8.13627 12.5328C8.13627 13.4459 6.72525 13.5437 6.57271 12.6415C6.44559 11.9241 7.25915 11.5654 7.92017 12.0437Z" fill="currentColor"/>
</svg>
