<svg width="15" height="15" viewBox="0 0 15 15" fill="none" xmlns="http://www.w3.org/2000/svg">
<path d="M7.68752 1.94813C7.57722 1.97938 7.50002 2.07313 7.51105 2.16688C7.54413 2.56272 7.48899 2.68772 7.22428 2.75022C6.87134 2.83355 6.87134 3.09397 7.23531 3.25022C7.40075 3.32313 7.5331 3.4898 7.57722 3.66688C7.66546 4.1148 8.08457 4.02105 8.21693 3.52105C8.26105 3.37522 8.38237 3.22938 8.50369 3.19813C8.75737 3.13563 8.79046 2.70855 8.53678 2.70855C8.43752 2.70855 8.29413 2.53147 8.19487 2.29188C8.0956 2.06272 7.98531 1.88563 7.95222 1.88563C7.91913 1.89605 7.79781 1.91688 7.68752 1.94813Z" fill="black"/>
<path d="M4.55438 2.16733C4.4882 2.209 4.15732 2.72983 3.82644 3.334C3.49555 3.93816 3.02129 4.72983 2.76761 5.09441C2.17202 5.96941 2.19408 6.35483 2.83379 6.35483C3.18673 6.35483 3.16467 6.41733 2.48085 7.2715C1.6757 8.29233 1.70879 8.59442 2.62423 8.66733C3.01026 8.68817 3.03232 8.63608 2.17202 9.60483C1.41099 10.4382 1.46614 10.6569 2.4257 10.7298C2.82276 10.7611 3.34114 10.7507 3.58379 10.709C4.16835 10.6257 4.19041 10.6465 4.19041 11.3861C4.19041 12.1986 4.17938 12.209 3.25291 12.4277C2.33747 12.6569 1.98452 12.8444 1.98452 13.1361C1.98452 13.4486 2.26026 13.4798 2.95511 13.2507C4.12423 12.8444 5.67938 12.8652 6.98085 13.2819C7.68673 13.5111 8.75658 13.6152 9.48453 13.5215C10.9845 13.334 11.7456 13.3236 12.286 13.4798C12.6831 13.5944 12.8706 13.6048 12.9808 13.5215C13.6426 13.0111 11.8779 12.4694 10.3338 12.7194C9.49555 12.8444 9.37423 12.7923 9.37423 12.3132C9.37423 12.0736 9.661 12.0215 10.6095 12.084C11.0948 12.1048 11.8007 11.8861 11.8007 11.6986C11.8007 11.6152 11.5911 11.3548 11.3375 11.1257C10.9183 10.7715 10.8853 10.709 11.0507 10.6152C11.4919 10.3861 11.4808 10.1673 11.0176 9.6465C10.5103 9.05275 10.4992 9.03192 10.8632 8.87567C11.1831 8.74025 11.2161 8.50067 10.9625 8.25067C10.7639 8.06317 9.69408 6.5215 9.42938 6.04233C9.16467 5.57358 8.86688 5.63608 8.58011 6.21941C8.21614 6.96941 7.57644 7.81316 7.36688 7.81316C7.26761 7.81316 6.38526 6.54233 6.44041 6.49025C6.46247 6.46941 6.59482 6.42775 6.7382 6.40691C6.98085 6.36525 7.27864 6.10483 7.27864 5.92775C7.27864 5.8965 7.09114 5.63608 6.8485 5.35483C6.42938 4.84441 5.69041 3.60483 5.40364 2.91733C5.161 2.31316 4.81908 2.01108 4.55438 2.16733ZM5.13894 3.87566C5.31541 4.22983 5.64629 4.79233 5.86688 5.11525L6.26394 5.709L5.94408 5.62566C5.71247 5.56316 5.58011 5.57358 5.45879 5.68816C5.26026 5.87566 5.3485 6.09441 6.07644 7.18816C6.3632 7.61525 6.59482 7.97983 6.58379 7.99025C6.56173 8.00066 6.3632 7.96941 6.12055 7.91733C5.18305 7.71941 5.24923 8.29233 6.29703 9.49025L6.71614 9.96942L4.76394 10.0319C3.69408 10.0632 2.8007 10.0736 2.77864 10.0527C2.75658 10.0423 2.94408 9.80275 3.19776 9.53192C4.21247 8.42775 4.28967 7.85483 3.40732 7.96941C2.76761 8.05275 2.76761 8.05275 3.23085 7.41733C3.82644 6.62566 4.19041 5.99025 4.19041 5.76108C4.19041 5.46941 3.89261 5.37566 3.60585 5.57358C3.21982 5.834 3.1757 5.75066 3.4735 5.31316C3.62791 5.084 3.74923 4.87566 3.74923 4.84441C3.74923 4.82358 3.91467 4.55275 4.12423 4.25066C4.32276 3.94858 4.52129 3.59441 4.56541 3.459C4.68673 3.10483 4.786 3.17775 5.13894 3.87566ZM9.90364 8.41733C9.45144 8.49025 9.58379 8.959 10.2456 9.68817L10.5875 10.0527L10.1794 10.1048C9.72717 10.1569 9.58379 10.3861 9.83747 10.6465C9.91467 10.7298 10.1242 10.9382 10.2897 11.1048L10.5985 11.4277L10.0139 11.4069C9.69408 11.3861 8.94408 11.3757 8.35952 11.3652L7.27864 11.3548L7.66467 11.0111C8.18305 10.5527 8.28232 10.1465 7.89629 10.0007L7.60952 9.8965L7.99555 9.41733C8.43673 8.87567 8.48085 8.62567 8.161 8.42775C7.94041 8.28192 7.95144 8.2715 8.24923 7.94858C8.4257 7.76108 8.67938 7.44858 8.83379 7.25066L9.0985 6.88608L9.60585 7.63608C10.047 8.30275 10.0911 8.38608 9.90364 8.41733ZM7.38894 8.90692C7.58747 8.96942 7.58747 8.97983 7.36688 9.18817L7.13526 9.40692L6.87055 9.10483C6.7382 8.93817 6.61688 8.7715 6.61688 8.72983C6.61688 8.60483 7.1132 8.59442 7.14629 8.71942C7.16835 8.79233 7.27864 8.87567 7.38894 8.90692ZM6.38526 10.7194L6.99188 10.7298L6.63894 11.0527C5.95511 11.6882 6.21982 11.9694 7.52129 12.0111C8.29335 12.0319 8.49188 12.0632 8.50291 12.1882C8.50291 12.2715 8.52497 12.4486 8.536 12.584C8.58011 12.9277 8.52497 12.9382 7.32276 12.6673C6.72717 12.5319 5.9882 12.3861 5.70144 12.3444L5.17202 12.2819L5.22717 11.7402C5.24923 11.4382 5.28232 11.0736 5.28232 10.9173C5.29335 10.6777 5.33747 10.6361 5.54702 10.6673C5.67938 10.6986 6.05438 10.7194 6.38526 10.7194Z" fill="black"/>
<path d="M10.9076 2.86463C9.60609 3.66671 9.93697 5.78129 11.3929 6.01046C12.1759 6.12504 13.3451 5.45838 13.3451 4.89588C13.3451 4.71879 13.0693 4.55213 12.8377 4.59379C11.9995 4.72921 11.437 3.92713 11.8671 3.22921C12.2531 2.61463 11.6686 2.39588 10.9076 2.86463ZM11.1171 3.61463C11.0068 3.97921 11.2826 4.60421 11.6906 4.90629C12.0105 5.14588 12.0987 5.27088 11.9995 5.33338C11.2274 5.79171 10.334 4.57296 10.8745 3.80213C11.0509 3.55213 11.1612 3.46879 11.1171 3.61463Z" fill="black"/>
<path d="M12.2423 7.44916C12.1871 7.58458 12.0437 7.76166 11.9114 7.83458C11.6136 8.01166 11.6357 8.18875 11.9555 8.39708C12.1099 8.48041 12.2423 8.6575 12.2643 8.7825C12.3195 9.14708 12.6724 9.13666 12.8158 8.77208C12.893 8.595 13.0585 8.4075 13.2018 8.345C13.5437 8.19916 13.5217 7.95958 13.1357 7.77208C12.9592 7.67833 12.7937 7.52208 12.7607 7.39708C12.6835 7.10541 12.3636 7.13666 12.2423 7.44916Z" fill="black"/>
</svg>
