<svg width="15" height="15" viewBox="0 0 15 15" fill="none" xmlns="http://www.w3.org/2000/svg">
<path d="M7.91311 1.00713C7.7392 1.11018 7.60876 1.29339 7.60876 1.41934C7.60876 1.54529 7.57615 1.60255 7.53268 1.5682C7.43485 1.46514 6.85876 2.74758 6.82615 3.1369C6.79354 3.46896 6.71746 3.50331 6.50007 3.28575C5.96746 2.71323 4.4892 2.56438 3.2392 2.93079C3.1305 2.96514 3.04354 3.07965 3.03268 3.1827C3.03268 3.2972 3.00007 3.3201 2.97833 3.23995C2.8805 2.98804 1.92398 3.75522 1.50007 4.40789C1.01094 5.18652 0.739197 6.12545 0.728327 7.09873C0.706588 8.04911 0.782675 8.81629 0.891371 8.88499C0.934849 8.91934 0.934849 9.02239 0.90224 9.12545C0.847893 9.26285 0.869632 9.28575 0.989197 9.21705C1.10876 9.14835 1.10876 9.1598 1.01094 9.2743C0.869632 9.43461 0.945719 9.76667 1.10876 9.66362C1.17398 9.61781 1.19572 9.68652 1.14137 9.83537C1.10876 9.97278 1.11963 10.0758 1.18485 10.0758C1.25007 10.0758 1.34789 10.2819 1.41311 10.5224C1.56528 11.1178 1.72833 11.4384 2.17398 12.0224C2.72833 12.7323 3.58702 13.6254 3.72833 13.6254C3.79354 13.6254 3.93485 13.7171 4.05441 13.8201C4.27181 14.0377 5.28268 14.0835 6.35876 13.9232C6.66311 13.8774 7.00007 13.843 7.11963 13.8545C7.70659 13.8888 7.8805 13.9232 7.93485 13.9919C8.11963 14.2438 9.25007 14.1636 9.89137 13.843C10.5327 13.5224 12.174 11.9766 12.0327 11.8277C11.9892 11.7934 12.0327 11.7018 12.1196 11.6331C12.424 11.3926 13.0544 9.70942 12.9022 9.51476C12.8262 9.41171 12.8153 9.37736 12.8914 9.42316C13.0109 9.50331 13.3153 8.95369 13.2066 8.83919C13.174 8.80484 13.1522 8.85064 13.1522 8.93079C13.1522 9.01094 13.1196 9.05674 13.087 9.02239C13.0544 8.97659 13.1088 8.81629 13.2066 8.65598C13.5435 8.11781 13.3044 5.26667 12.924 5.26667C12.8914 5.26667 12.8588 5.19797 12.8588 5.10636C12.8588 4.62545 12.0653 3.48041 11.6848 3.41171C11.5653 3.38881 11.424 3.3201 11.3588 3.23995C11.1848 3.03384 10.3044 2.77049 9.89137 2.79339C8.79354 2.88499 7.60876 3.2972 7.60876 3.58346C7.60876 3.65216 7.58702 3.67507 7.55441 3.64071C7.35876 3.43461 7.84789 2.20942 8.31528 1.7514C8.8805 1.20178 8.95659 0.858271 8.51094 0.82392C8.33702 0.81247 8.07615 0.892623 7.91311 1.00713ZM5.41311 3.61781C5.72833 3.65216 6.03268 3.76667 6.09789 3.84682C6.16311 3.93842 6.28268 4.00713 6.34789 4.00713C6.47833 4.00713 6.84789 4.62545 6.84789 4.86591C6.84789 5.04911 6.50007 4.98041 5.97833 4.69415C5.53268 4.44224 5.26094 4.53384 5.3805 4.91171C5.41311 5.03766 5.52181 5.15216 5.60876 5.15216C5.69572 5.15216 5.76094 5.20942 5.76094 5.27812C5.76094 5.33537 5.81528 5.35827 5.86963 5.32392C5.93485 5.28957 5.97833 5.31247 5.97833 5.38117C5.97833 5.46132 6.04355 5.49568 6.1305 5.46132C6.21746 5.42697 6.30441 5.44987 6.32615 5.51858C6.34789 5.58728 6.70659 5.66743 7.11963 5.69033C7.94572 5.74758 8.97833 5.41552 8.89137 5.11781C8.83702 4.94606 8.30441 4.86591 8.11963 5.00331C8.04354 5.06056 7.76094 5.07201 7.47833 5.03766L6.96746 4.98041L7.26094 4.6369C7.58702 4.25903 8.36963 3.77812 8.64137 3.77812C8.7392 3.77812 8.79354 3.74377 8.77181 3.68652C8.7392 3.64071 8.89137 3.59491 9.10876 3.59491C9.33702 3.58346 9.69572 3.54911 9.91311 3.52621C10.1414 3.49186 10.337 3.50331 10.3479 3.53766C10.3696 3.57201 10.5762 3.70942 10.8153 3.83537C11.5762 4.24758 12.2283 5.03766 12.4457 5.86209C12.6631 6.65216 12.6957 8.11781 12.5218 8.59873C12.4566 8.77049 12.3914 9.05674 12.3696 9.2285C12.3479 9.41171 12.1957 9.83537 12.0327 10.1674C11.8696 10.4995 11.7609 10.8201 11.7935 10.8659C11.8153 10.9232 11.7283 11.0491 11.5762 11.1522C11.424 11.2552 11.3044 11.4041 11.3044 11.4842C11.2935 11.7476 10.3805 12.6636 9.81528 12.9842C9.14137 13.3506 8.76094 13.4193 8.18485 13.2705C7.46746 13.0758 6.6305 13.0415 6.16311 13.1903C5.91311 13.259 5.66311 13.3277 5.59789 13.3506C5.54355 13.3621 5.44572 13.385 5.3805 13.4079C5.26094 13.4308 5.05441 13.3621 4.47833 13.0987C4.28268 13.0071 4.06528 12.9728 4.00007 13.0071C3.92398 13.0529 3.91311 13.03 3.95659 12.9613C4.00007 12.8812 3.97833 12.8239 3.91311 12.8239C3.68485 12.8239 2.28268 11.0606 2.28268 10.7743C2.28268 10.7171 2.20659 10.6369 2.10876 10.6025C2.02181 10.5682 1.96746 10.488 2.01094 10.4193C2.04354 10.3621 1.97833 10.0758 1.84789 9.80102C1.72833 9.51476 1.6305 9.21705 1.6305 9.1369C1.6305 9.04529 1.55441 8.86209 1.45659 8.72468C1.36963 8.58728 1.33702 8.47278 1.3805 8.47278C1.43485 8.47278 1.44572 8.16362 1.41311 7.78575C1.29354 6.49186 1.70659 5.19797 2.51094 4.37354C3.06528 3.80102 4.00007 3.40026 4.57615 3.49186C4.72833 3.51476 5.10876 3.57201 5.41311 3.61781Z" fill="black"/>
</svg>
