<svg width="15" height="15" viewBox="0 0 15 15" fill="none" xmlns="http://www.w3.org/2000/svg">
<path d="M5.76013 1.60769C4.21513 2.18992 3.52513 3.26558 4.11013 4.134C4.47013 4.65703 4.38013 4.94321 3.82513 5.06163C2.11513 5.4169 1.56013 6.36427 1.41013 9.21624C1.30513 11.2294 1.38013 11.3281 3.42013 11.9004C3.43513 11.9004 3.34513 12.0386 3.22513 12.2064C2.88013 12.6702 2.80513 13.2722 3.09013 13.4301C3.48013 13.6373 10.7851 13.657 11.1451 13.4498C11.4751 13.2524 11.4751 12.9465 11.1301 12.3544L10.8451 11.8708L11.5651 11.6537C12.9001 11.259 13.1101 10.9531 13.0051 9.59124C12.9001 8.23927 12.5251 6.56163 12.2251 6.09782C11.9101 5.6044 11.0701 5.14058 10.3501 5.08137C9.90013 5.0419 9.82513 4.60769 10.2001 4.15374C10.7551 3.46295 10.0201 2.19979 8.77513 1.71624C8.07013 1.44979 6.34513 1.38071 5.76013 1.60769ZM8.34013 2.23927C9.33013 2.57479 9.87013 3.67019 9.19513 3.99584C8.88013 4.15374 8.62513 4.04519 8.49013 3.69979C8.23513 3.04848 5.95513 3.08795 5.76013 3.74913C5.68513 3.96624 5.61013 4.00571 5.31013 3.96624C4.81513 3.90703 4.75513 3.80834 4.87513 3.29519C5.11513 2.2294 6.79513 1.71624 8.34013 2.23927ZM7.48513 3.83795C7.71013 3.92677 7.54513 4.01558 7.20013 3.99584C6.57013 3.9465 6.52513 3.93663 6.82513 3.84782C7.21513 3.73927 7.24513 3.73927 7.48513 3.83795ZM8.73013 4.58795C8.79013 4.63729 8.85013 4.76558 8.85013 4.8544C8.85013 5.02216 8.46013 5.03203 5.59513 4.94321C5.49013 4.93334 5.40013 4.84453 5.40013 4.73598C5.40013 4.55834 5.52013 4.53861 6.79513 4.51887C8.67013 4.4794 8.61013 4.4794 8.73013 4.58795ZM4.75513 5.68334C4.80013 5.76229 4.60513 6.15703 4.30513 6.5419C3.61513 7.44979 3.63013 7.44979 3.51013 8.46624C3.40513 9.45308 3.57013 10.0156 4.12513 10.4498C4.45513 10.7064 4.48513 10.7754 4.33513 10.9926C4.02013 11.4465 2.83513 11.2787 2.37013 10.7261C2.10013 10.3807 2.23513 8.23927 2.61013 6.93663C2.76013 6.42348 3.48013 5.80177 4.12513 5.62413C4.56013 5.49584 4.65013 5.50571 4.75513 5.68334ZM8.47513 5.58466C8.59513 5.62413 8.70013 5.75242 8.70013 5.89058V6.12742L7.27513 6.09782C5.73013 6.05834 5.62513 6.02874 5.77513 5.74255C5.85013 5.56492 6.00013 5.54519 7.05013 5.53532C7.71013 5.53532 8.35513 5.55505 8.47513 5.58466ZM10.8451 5.90045C11.6101 6.34453 11.9251 7.20308 12.1051 9.39387C12.2101 10.7754 11.8951 11.1011 10.2901 11.2689C9.90013 11.3083 9.67513 10.8149 10.0051 10.6472C11.1301 10.0254 11.1901 8.11098 10.1401 6.65045C9.84013 6.23598 9.60013 5.84124 9.60013 5.76229C9.60013 5.58466 10.4551 5.68334 10.8451 5.90045ZM9.40513 6.86755C10.2301 7.60769 10.2301 9.83795 9.39013 10.2129C8.94013 10.4202 8.83513 10.3906 9.00013 10.1044C9.22513 9.7294 9.18013 9.20637 8.91013 8.85111C8.46013 8.27874 7.44013 7.509 7.12513 7.49913C6.84013 7.49913 6.01513 8.19979 5.40013 8.96953C5.20513 9.20637 5.25013 9.9465 5.49013 10.3116C5.70013 10.657 4.92013 10.2524 4.62013 9.85769C4.11013 9.21624 4.33513 7.53861 5.01013 6.85769C5.25013 6.62084 5.28013 6.62084 7.23013 6.65045C8.94013 6.68005 9.22513 6.70966 9.40513 6.86755ZM7.69513 8.68334C8.23513 9.18663 8.37013 9.68005 8.04013 10.0156C7.74013 10.3116 7.44013 10.3412 7.54513 10.0649C7.65013 9.81821 7.35013 9.27545 7.11013 9.27545C6.88513 9.27545 6.75013 9.50242 6.75013 9.92677C6.75013 10.3412 6.60013 10.3511 6.24013 9.95637C5.91013 9.59124 6.00013 9.30505 6.61513 8.71295C7.15513 8.19979 7.17013 8.19979 7.69513 8.68334ZM8.95513 11.1208C9.09013 11.3379 8.98513 11.3577 7.14013 11.3577C5.28013 11.3676 5.16013 11.3478 5.31013 11.1011C5.43013 10.884 8.82013 10.8939 8.95513 11.1208ZM9.42013 11.9991C9.91513 12.0682 10.4251 12.5814 10.2601 12.8577C10.1851 12.986 6.69013 13.0353 4.26013 12.9366C3.91513 12.9169 3.94513 12.5518 4.30513 12.2458L4.66513 11.9399H6.81013C7.99513 11.9399 9.16513 11.9695 9.42013 11.9991Z" fill="currentColor"/>
</svg>
