<svg width="15" height="15" viewBox="0 0 15 15" fill="none" xmlns="http://www.w3.org/2000/svg">
<path d="M6.06799 1.05802C5.24981 1.25569 4.84072 1.77895 4.84072 2.61616V3.34871L4.49981 3.20918C3.35436 2.72081 1.82708 3.61616 1.86799 4.74406C1.89527 5.34871 2.54981 5.98825 3.31345 6.12778C3.73617 6.19755 3.77708 6.3022 3.44981 6.52313C3.32708 6.61616 3.14981 6.84871 3.04072 7.05802C2.31799 8.54639 3.88617 9.65104 5.61799 8.8836C5.98617 8.72081 6.01345 8.73244 6.13617 9.01151C6.21799 9.18592 6.27254 9.36034 6.27254 9.41848C6.27254 9.47662 6.49072 9.6743 6.76345 9.87197L7.26799 10.2208L7.18617 11.1278C7.14527 11.6859 6.98163 12.3371 6.76345 12.8371C6.49072 13.4417 6.44981 13.6743 6.5589 13.7906C6.83163 14.0696 7.18617 13.965 7.55436 13.4883C8.0589 12.8487 8.45436 12.6394 8.91799 12.7906C11.0998 13.4883 13.0634 12.1859 13.4453 9.79058C13.568 8.96499 13.3634 8.89523 11.5907 9.12778C10.268 9.3022 8.89072 10.2208 8.52254 11.1743C8.22254 11.9417 7.82708 12.2208 7.94981 11.5696C8.00436 11.3138 8.04527 10.8603 8.04527 10.5464C8.04527 10.1627 8.09981 9.99988 8.23617 9.99988C8.61799 9.99988 9.27254 9.20918 9.27254 8.74406V8.3022L10.1589 8.34871C11.018 8.39523 11.0589 8.3836 11.5089 7.99988C12.3816 7.25569 12.2725 6.23244 11.2498 5.6743C10.6771 5.34871 10.6771 5.31383 11.1271 5.05802C12.0134 4.56964 12.1907 3.22081 11.468 2.53476C10.8407 1.94174 10.118 1.96499 8.56345 2.65104C8.49527 2.6743 8.45436 2.5929 8.45436 2.47662C8.42708 1.58127 7.10436 0.790575 6.06799 1.05802ZM7.25436 1.96499C7.67708 2.29057 7.70436 2.34871 7.69072 3.06964C7.67708 3.98825 7.63617 4.04639 6.74981 4.0929C6.09527 4.12778 6.05436 4.11616 5.83617 3.72081C5.59072 3.31383 5.5089 2.37197 5.69981 2.13941C5.84981 1.95337 6.44981 1.62778 6.64072 1.62778C6.73617 1.62778 7.0089 1.77895 7.25436 1.96499ZM10.9089 3.10453C11.5089 3.75569 11.0589 4.48825 9.83163 4.8836C9.04072 5.15104 8.72708 5.1743 8.72708 4.98825C8.72708 4.91848 8.60436 4.73244 8.45436 4.56964L8.19527 4.27895L8.52254 3.86034C9.32708 2.84871 10.3771 2.52313 10.9089 3.10453ZM4.93617 4.1743C5.68617 4.58127 5.78163 4.69755 5.60436 4.96499C5.53617 5.08127 5.44072 5.26732 5.39981 5.37197C5.26345 5.76732 3.28617 5.62778 2.89072 5.19755C2.56345 4.83709 2.57708 4.41848 2.94526 4.12778C3.44981 3.72081 4.13163 3.74406 4.93617 4.1743ZM7.79981 4.96499C8.09981 5.19755 8.12708 5.84871 7.82708 6.0929C7.34981 6.51151 6.58617 6.41848 6.27254 5.93011C5.83617 5.22081 7.09072 4.41848 7.79981 4.96499ZM10.7725 6.26732C11.3453 6.66267 11.4544 7.0929 11.0589 7.43011C10.5271 7.8836 9.76345 7.73244 8.83617 6.99988C8.38617 6.63941 8.38617 6.6743 8.74072 6.1743C8.99981 5.8022 9.04072 5.79057 9.65436 5.87197C10.0498 5.91848 10.4862 6.06964 10.7725 6.26732ZM5.67254 6.26732C5.63163 6.32546 5.74072 6.49988 5.93163 6.63941C6.42254 7.03476 6.35436 7.37197 5.71345 7.90685C4.56799 8.84871 3.47708 8.55802 3.73617 7.3836C3.84527 6.8836 4.56799 6.44174 5.69981 6.1743C5.72708 6.16267 5.71345 6.20918 5.67254 6.26732ZM8.33163 7.96499C8.52254 8.70918 8.42708 9.11616 7.99072 9.36034C7.29527 9.75569 6.79072 9.15104 6.88617 8.02313C6.94072 7.22081 6.99527 7.13941 7.49981 7.06964C7.93617 7.01151 8.12708 7.22081 8.33163 7.96499ZM12.5589 10.1394C12.1634 11.5929 11.0725 12.465 9.87254 12.2673C9.28617 12.1743 9.28617 12.058 9.88617 11.872C10.1453 11.7906 10.3634 11.6859 10.3634 11.6278C10.3634 11.5696 10.4862 11.4883 10.6362 11.4534C10.9907 11.3603 11.318 11.0696 11.318 10.8603C11.318 10.6278 10.7453 10.651 10.3498 10.9069C9.98163 11.1394 9.27254 11.4185 9.27254 11.3255C9.27254 10.7673 11.0725 9.8022 12.1498 9.77895C12.6544 9.76732 12.6544 9.76732 12.5589 10.1394Z" fill="currentColor"/>
</svg>
