<svg width="15" height="15" viewBox="0 0 15 15" fill="none" xmlns="http://www.w3.org/2000/svg">
<path d="M8.30452 1.71331C7.85887 2.04038 7.43496 2.7509 7.32626 3.32609C7.19583 4.11557 7.11974 4.18324 6.68496 3.99151C5.39148 3.4276 3.46756 4.32985 2.72843 5.84113C1.47843 8.42384 2.53278 12.1569 4.70669 12.7885C5.39148 12.9915 8.08713 13.0479 10.2937 12.9126C11.0328 12.8674 11.4132 12.7885 11.7067 12.6193C14.0654 11.2659 14.5763 6.95767 12.6197 4.88248C11.8806 4.08173 11.4241 3.90128 10.1958 3.89H9.13061V3.43887C9.14148 3.11181 9.22843 2.88624 9.4567 2.59301C9.848 2.11933 9.86974 1.88248 9.51104 1.64564C9.14148 1.39752 8.69583 1.42008 8.30452 1.71331ZM8.64148 2.63812C8.54365 2.78474 8.4567 3.1682 8.4567 3.48399C8.44583 4.00278 8.41322 4.05918 8.18496 4.05918C7.9893 4.05918 7.93496 4.00278 7.93496 3.74339C7.93496 3.41632 8.51104 2.36745 8.69583 2.36745C8.76104 2.36745 8.72843 2.49151 8.64148 2.63812ZM11.5871 4.85993C12.3915 5.36745 12.9567 6.34865 13.1415 7.53286C13.4458 9.59677 12.1523 12.1795 10.7937 12.1795H10.435L10.6958 11.7396C11.7937 9.93512 11.6089 6.66444 10.3154 5.14188C9.81539 4.54414 9.80452 4.53286 10.1958 4.48775C10.5763 4.44263 11.1632 4.58925 11.5871 4.85993ZM5.86974 4.61181C5.86974 4.65692 5.71756 4.90504 5.53278 5.14188C4.58713 6.35993 4.13061 8.55918 4.51104 10.0366C4.52191 10.0705 4.56539 10.2735 4.60887 10.4877C4.65235 10.702 4.85887 11.1983 5.06539 11.593C5.47843 12.3599 5.45669 12.3938 4.76104 12.0667C3.50017 11.4802 2.88061 10.2622 2.88061 8.40128C2.88061 6.6306 3.53278 5.34489 4.72843 4.73587C5.17409 4.5103 5.86974 4.43136 5.86974 4.61181ZM6.94583 5.45767C6.46756 6.98023 6.43496 9.65316 6.88061 11.2434L7.14148 12.1795H6.848C6.69583 12.1795 6.40235 12.0554 6.20669 11.9088C4.46756 10.578 4.72843 6.11181 6.598 5.08549C7.16322 4.7697 7.16322 4.7697 6.94583 5.45767ZM9.36974 5.17572C11.5871 6.6306 11.0328 12.3938 8.68496 12.3374C8.4567 12.3261 8.15235 12.2471 8.02191 12.1569C7.36974 11.7171 7.00017 9.17948 7.27191 7.10429C7.44583 5.78474 7.44583 5.76218 7.53278 5.68324C7.57626 5.63812 7.60887 5.52534 7.60887 5.43512C7.60887 4.79226 8.57626 4.65692 9.36974 5.17572Z" fill="currentColor"/>
</svg>
