<svg width="15" height="15" viewBox="0 0 15 15" fill="none" xmlns="http://www.w3.org/2000/svg">
<path d="M7.97228 2.89797C7.75607 3.10136 7.52634 3.50814 7.43174 3.7878C7.22904 4.5378 6.78309 4.52509 6.01282 3.73696C5.51282 3.24119 5.37769 3.16492 4.9858 3.20306C4.29661 3.26662 4.22904 3.81323 4.90472 3.81323C5.20201 3.81323 5.45877 3.91492 5.64796 4.1056C5.95877 4.41069 6.05337 4.83018 5.81012 4.83018C5.40472 4.83018 5.05337 5.99967 5.26958 6.55899C5.41823 6.90221 5.41823 6.90221 4.44526 6.73696C3.12093 6.49543 2.32364 7.02933 2.26958 8.19882C2.22904 8.87255 2.81012 9.53357 3.43174 9.53357C3.71553 9.53357 3.75607 9.59713 3.75607 10.0039C3.75607 10.8302 4.52634 11.2624 5.29661 10.881C5.63445 10.7158 5.67499 10.7285 5.85066 10.97C6.22904 11.5166 6.79661 11.9488 7.29661 12.0887C7.59391 12.1776 7.94526 12.4064 8.12093 12.6226C8.40472 12.9912 8.43174 12.9912 8.59391 12.7751C8.70201 12.648 8.78309 12.4446 8.78309 12.3302C8.78309 12.2158 8.95877 11.9997 9.1885 11.8471C9.66147 11.5039 9.97228 11.0971 10.202 10.4742C10.3507 10.0548 10.4182 10.0166 10.9588 9.97848C11.8912 9.90221 12.4317 9.16492 11.9723 8.58018C11.8101 8.37679 11.8507 8.31323 12.2426 7.98272C12.7966 7.52509 12.9317 6.96577 12.648 6.34289C12.1885 5.30052 10.9588 5.14797 9.71553 5.98696L9.32364 6.24119V5.79628C9.32364 5.27509 8.71553 4.52509 8.1885 4.39797C7.70201 4.28357 7.97228 3.52086 8.60742 3.24119C8.8912 3.11408 9.05337 2.94882 9.05337 2.79628C9.05337 2.40221 8.43174 2.46577 7.97228 2.89797ZM8.24255 5.04628C9.1885 5.65645 8.87769 6.81323 7.6885 7.09289C6.44526 7.38526 5.60742 6.81323 5.81012 5.78357C5.95877 4.99543 7.45877 4.5378 8.24255 5.04628ZM11.8101 6.24119C12.229 6.55899 12.2831 7.08018 11.9182 7.49967C11.5128 7.97001 10.2696 8.02085 9.81012 7.58865C9.33715 7.14374 9.36418 6.99119 10.0263 6.54628C10.9993 5.88526 11.2696 5.84713 11.8101 6.24119ZM5.08039 7.47424L5.63445 7.69035L5.47228 8.13526C5.06688 9.27933 2.83715 9.33018 2.83715 8.19882C2.83715 7.35984 3.91823 7.01662 5.08039 7.47424ZM9.09391 7.67763C9.28309 7.94458 9.28309 8.00814 9.12093 8.13526C8.52634 8.6056 6.08039 8.84713 6.08039 8.44035C6.08039 7.9573 6.35066 7.75391 6.99931 7.74119C7.35066 7.74119 7.85066 7.65221 8.10742 7.56323C8.76958 7.3217 8.86418 7.33441 9.09391 7.67763ZM11.1885 8.59289C11.6615 8.89797 11.5399 9.33018 10.9723 9.38102C10.5399 9.41916 10.2696 9.11408 10.2696 8.56747C10.2696 8.32594 10.8101 8.33865 11.1885 8.59289ZM9.72904 9.19035C9.72904 9.6734 9.45877 9.86408 8.44526 10.1183C7.3912 10.3853 6.25607 10.3471 6.08039 10.0548C5.74255 9.44458 5.87769 9.33018 6.93174 9.30475C7.51282 9.29204 8.20201 9.19035 8.64796 9.0378C9.67499 8.69458 9.72904 8.7073 9.72904 9.19035ZM5.32364 9.48272C5.4858 9.87679 5.40472 10.1692 5.06688 10.3726C4.3912 10.792 4.02634 10.0166 4.67499 9.54628C5.10742 9.22848 5.21553 9.21577 5.32364 9.48272ZM9.20201 11.0463C8.64796 11.7709 7.51282 11.8726 6.90472 11.2624L6.60742 10.97L7.6885 10.8937C8.35066 10.8556 8.8912 10.7539 9.08039 10.6268C9.4858 10.3598 9.55337 10.5759 9.20201 11.0463Z" fill="black"/>
<path d="M7.56641 5.72001C7.56641 6.02509 7.9583 6.20306 8.10695 5.97424C8.26911 5.73272 8.12046 5.46577 7.82316 5.46577C7.661 5.46577 7.56641 5.55475 7.56641 5.72001Z" fill="black"/>
<path d="M6.44439 5.66919C6.22818 5.87258 6.3498 6.22852 6.63358 6.22852C6.83628 6.22852 6.90385 6.16496 6.86331 5.94885C6.82277 5.66919 6.60655 5.52936 6.44439 5.66919Z" fill="black"/>
</svg>
