<svg width="15" height="15" viewBox="0 0 15 15" fill="none" xmlns="http://www.w3.org/2000/svg">
<path d="M4.03932 1.3973C3.86285 1.66066 3.61775 2.81714 3.61775 3.45836C3.60795 4.466 3.9903 5.22172 4.94128 6.0118C5.32363 6.33241 5.32363 6.33241 5.4903 6.57287C5.62755 6.77897 5.61775 6.79042 5.14716 6.71027C4.62755 6.61867 3.7452 6.35531 3.33344 6.1721C3.04912 6.04615 2.61775 5.35913 2.5001 4.86676C2.45108 4.6721 2.41187 4.50035 2.40206 4.466C2.39226 4.43165 2.35305 4.23699 2.31383 4.03088C2.2452 3.67592 1.95108 3.36676 1.82363 3.51562C1.70599 3.65302 1.76481 4.4202 1.94128 5.01562C2.03932 5.34768 2.15697 5.57668 2.18638 5.53088C2.22559 5.49653 2.25501 5.54233 2.25501 5.64539C2.25501 6.1492 3.14716 6.90493 3.92167 7.06523C5.50991 7.37439 5.94128 7.5805 5.32363 7.72936C5.17657 7.77516 4.83344 7.85531 4.55893 7.92401C3.56873 8.17592 2.70599 8.78279 2.37265 9.48126C2.05893 10.1454 1.64716 11.7026 1.7452 11.8171C1.96089 12.069 2.17657 11.84 2.37265 11.1874C2.77461 9.81333 3.04912 9.36676 3.67657 9.00035C4.46089 8.55378 5.26481 8.33623 5.33344 8.55378C5.39226 8.72554 5.25501 8.90875 4.46089 9.60722C3.80403 10.2026 3.61775 10.6149 3.61775 11.5996C3.60795 13.1797 4.03932 14.4507 4.44128 13.9813C4.54912 13.8553 4.52952 13.7523 4.25501 12.653C4.21579 12.5271 4.19618 12.0347 4.20599 11.5652L4.21579 10.7065L4.67657 10.2255C5.19618 9.68737 5.2452 9.67592 5.27461 10.2141C5.34324 11.2446 6.21579 12.3782 7.08834 12.5843C8.41187 12.9049 9.75501 11.8744 9.86285 10.466C9.94128 9.57287 9.95108 9.56142 10.4021 9.95073C10.6276 10.1339 10.8727 10.4316 10.9511 10.6149C11.157 11.0843 11.1276 12.3668 10.8825 13.1225C10.6374 13.8897 10.6374 13.924 10.8727 14.0042C11.255 14.1187 11.5197 13.4087 11.6178 12.0232C11.7354 10.5232 11.5687 10.1568 10.3923 9.195C9.81383 8.71409 9.59814 8.26752 10.0099 8.40493C10.1374 8.45073 10.5197 8.56523 10.853 8.66829C11.6276 8.89729 12.1864 9.43546 12.5099 10.2599C12.6374 10.592 12.7452 10.9126 12.7452 10.9813C12.7452 11.279 13.0883 11.9087 13.255 11.9087C13.6962 11.9087 13.0883 9.69882 12.4511 8.9431C11.9609 8.37058 10.5883 7.71791 9.78442 7.68355C9.45108 7.66065 9.58834 7.32859 9.93148 7.32859C10.9805 7.32859 12.3432 6.77897 12.7452 6.18355C13.2452 5.45073 13.6374 3.80188 13.3727 3.50417C13.2452 3.34386 12.9511 3.36676 12.9315 3.53852C12.9119 3.75607 12.8334 4.12249 12.6864 4.76371C12.4021 6.02325 11.8825 6.41256 10.2256 6.60722C9.50991 6.68737 9.47069 6.63012 9.9805 6.25226C10.4609 5.88584 11.206 5.06142 11.4217 4.6721C11.6472 4.23699 11.6864 2.27898 11.4707 1.77516C11.2354 1.22554 10.9217 1.30569 10.9805 1.88966C11.0099 2.14157 11.0295 2.75989 11.0295 3.27516C11.0295 4.17974 11.0197 4.21409 10.6472 4.74081C10.3432 5.17592 9.61775 5.87439 9.53932 5.79424C9.52952 5.78279 9.5001 5.64539 9.47069 5.47363C9.40206 5.02707 9.14716 4.6263 8.82363 4.466C8.56873 4.34004 8.53932 4.27134 8.50991 3.74462C8.47069 2.95455 8.20599 2.85149 7.96089 3.53852C7.81383 3.96218 7.76481 4.00798 7.5001 3.98508C7.29422 3.96218 7.19618 3.88203 7.17657 3.72172C7.05893 2.966 6.56873 2.90875 6.56873 3.65302C6.56873 4.15684 6.53932 4.23699 6.2354 4.5118C6.04912 4.6721 5.82363 5.00417 5.72559 5.25607L5.55893 5.70264L5.25501 5.47363C4.63736 4.99272 4.18638 4.16829 4.19618 3.51562C4.19618 2.79424 4.26481 2.21027 4.39226 1.83241C4.5001 1.50035 4.45108 1.25989 4.26481 1.25989C4.19618 1.25989 4.09814 1.32859 4.03932 1.3973ZM8.10795 4.76371C8.90206 5.07287 9.18638 5.65684 8.92167 6.40111C8.67657 7.09958 8.40206 7.27134 7.52952 7.27134H6.7452L6.40206 6.82478C5.85305 6.1263 6.00991 5.42783 6.86285 4.82096C7.27461 4.5347 7.4903 4.52325 8.10795 4.76371ZM6.71579 7.78661C6.78442 7.92401 7.85304 7.93546 8.33344 7.79806C8.70599 7.695 8.92167 7.74081 8.92167 7.92401C8.92167 7.98126 9.00991 8.16447 9.10795 8.31333C9.35304 8.67974 9.45108 9.36676 9.36285 10.1683C9.30403 10.7179 9.2354 10.8782 8.82363 11.382L8.34324 11.966H7.62755C6.39226 11.966 5.71579 11.0614 5.77461 9.48126C5.81383 8.39348 6.44128 7.27134 6.71579 7.78661Z" fill="black"/>
<path d="M6.89205 5.55309C6.66656 5.7363 6.68617 6.06836 6.91166 6.06836C7.08813 6.06836 7.38225 5.6447 7.30382 5.50729C7.22539 5.33553 7.13715 5.34699 6.89205 5.55309Z" fill="black"/>
<path d="M8.0094 5.57673C7.84273 5.77138 7.94077 6.08054 8.16626 6.04619C8.45057 6.00039 8.53881 5.49657 8.2545 5.49657C8.15646 5.49657 8.03881 5.53092 8.0094 5.57673Z" fill="black"/>
</svg>
