<svg width="15" height="15" viewBox="0 0 15 15" fill="none" xmlns="http://www.w3.org/2000/svg">
<path d="M1.59364 2.27915C1.38385 2.57915 1.44679 2.77415 1.9293 3.14915C2.59014 3.65915 2.8314 4.48415 2.40133 4.79915C0.869864 5.98415 0.848885 9.31415 2.38035 10.6792C2.84189 11.0842 4.07965 11.1142 4.6356 10.7392C5.19154 10.3642 5.71602 10.8142 5.3384 11.3542C5.19154 11.5642 5.28595 11.9992 5.48525 11.9992C5.55867 11.9992 5.75798 11.8042 5.92581 11.5492C6.3349 10.9342 6.71252 10.9342 6.71252 11.5492C6.71252 11.8342 6.78595 12.0442 6.92231 12.1492C7.20553 12.3742 7.34189 12.2242 7.34189 11.6842C7.34189 10.9642 7.76147 10.5442 8.2335 10.7992C8.46427 10.9192 8.48525 10.9792 8.38035 11.3092C8.30693 11.5192 8.28595 11.7892 8.31742 11.9092C8.4328 12.3142 8.70553 12.1642 8.87336 11.6242C9.08315 10.8892 9.55518 10.8592 9.70203 11.5792C9.78595 11.9692 9.86986 12.0892 10.1006 12.1192C10.3943 12.1642 10.3943 12.1642 10.3209 11.5942C10.2894 11.2792 10.2475 10.9642 10.237 10.8892C10.2055 10.5892 10.73 10.3492 10.9188 10.5742C11.0027 10.6942 11.1601 10.7992 11.2545 10.7992C11.3804 10.7992 11.4118 10.9042 11.3594 11.2942C11.2859 11.9392 11.5272 12.2842 11.7894 11.9242C11.8838 11.7892 11.9573 11.4892 11.9573 11.2492C11.9573 10.8892 12.0097 10.8292 12.3034 10.7542C12.7125 10.6642 12.7964 10.7242 12.7964 11.0992C12.7964 11.2642 12.8908 11.4592 13.0062 11.5492C13.2894 11.7592 13.4887 11.1142 13.3314 10.4842C13.2475 10.1392 13.279 9.92915 13.4887 9.40415C13.6985 8.84915 13.73 8.60915 13.688 7.87415C13.6251 6.85415 13.4992 6.52415 12.8804 5.80415C12.3139 5.12915 11.0237 4.85915 10.5517 5.30915C10.2999 5.53415 10.258 5.53415 9.85937 5.30915C9.35588 5.02415 8.54819 5.09915 8.09714 5.47415C7.86637 5.68415 7.76147 5.68415 7.49923 5.53415C7.00623 5.24915 6.38735 5.26415 5.89434 5.56415L5.45378 5.83415L5.05518 5.45915C4.84539 5.24915 4.6356 5.00915 4.59364 4.91915C4.47826 4.63415 4.91881 3.59915 5.30693 3.26915C5.69504 2.93915 5.75798 2.63915 5.48525 2.41415C5.11812 2.12915 4.27895 3.13415 4.14259 4.03415C4.00623 4.91915 3.39784 4.82915 3.14609 3.86915C2.82091 2.62415 1.96077 1.75415 1.59364 2.27915ZM4.26847 5.71415C4.88735 6.14915 5.17056 6.76415 5.22301 7.78415C5.28595 9.28415 4.64609 10.1992 3.54469 10.1992C2.75798 10.1992 2.51672 10.0192 2.11812 9.14915C1.10063 6.92915 2.57965 4.54415 4.26847 5.71415ZM9.75448 6.14915C10.9398 7.06415 10.6671 10.0642 9.38735 10.2142C8.49574 10.3342 8.22301 10.1092 8.45378 9.47915C8.66357 8.86415 8.66357 7.91915 8.44329 7.00415C8.25448 6.19415 8.25448 6.16415 8.60063 6.07415C8.72651 6.04415 8.86287 5.96915 8.89434 5.92415C8.96777 5.83415 9.52371 5.96915 9.75448 6.14915ZM12.1985 6.13415C12.744 6.43415 13.1111 7.27415 13.1111 8.20415C13.1111 9.40415 12.1356 10.4242 11.4013 9.98915L11.0762 9.80915L11.0657 8.45915C11.0657 7.49915 11.0132 6.97415 10.8769 6.61415C10.6566 5.98415 10.6566 6.02915 10.9398 5.96915C11.3174 5.89415 11.8838 5.96915 12.1985 6.13415ZM7.34189 6.37415C8.19154 7.00415 8.22301 9.35915 7.39434 10.1392C7.10063 10.4092 6.08315 10.3642 5.68455 10.0642C5.41182 9.85415 5.41182 9.85415 5.62161 9.28415C5.72651 8.99915 5.78944 8.38415 5.79993 7.67915C5.81042 6.83915 5.85238 6.47915 5.97826 6.34415C6.19853 6.08915 6.97476 6.10415 7.34189 6.37415Z" fill="black"/>
<path d="M2.41278 6.75C2.28691 7.08 2.38131 7.5 2.57013 7.5C2.70649 7.5 2.83236 7.185 2.83236 6.825C2.83236 6.495 2.52817 6.435 2.41278 6.75Z" fill="black"/>
<path d="M3.7966 7.19823C3.54485 7.78323 3.70219 8.15823 4.06932 7.81323C4.22667 7.67823 4.20569 7.01823 4.03786 6.94323C3.97492 6.91323 3.87002 7.03323 3.7966 7.19823Z" fill="black"/>
<path d="M2.20117 8.68344C2.20117 9.10344 3.13474 9.55344 3.48089 9.28344C3.82705 9.01344 3.71166 8.65344 3.31306 8.75844C3.10327 8.81844 2.92495 8.78844 2.88299 8.69844C2.79907 8.51844 2.20117 8.48844 2.20117 8.68344Z" fill="black"/>
</svg>
