<svg width="15" height="15" viewBox="0 0 15 15" fill="none" xmlns="http://www.w3.org/2000/svg">
<path d="M8.22389 2.65664C8.1851 2.7202 8.23682 2.9363 8.34027 3.12698C8.54717 3.53376 8.59889 4.14393 8.43079 4.24562C8.36613 4.28376 8.12044 4.34732 7.88768 4.38546C7.38337 4.47444 6.96958 4.67783 6.76268 4.94478C6.52993 5.23715 6.38768 4.9702 6.2713 4.11851C6.19372 3.44478 6.06441 3.22868 5.83165 3.35579C5.74113 3.41935 5.80579 4.04223 6.01268 5.03376C6.12906 5.54223 5.87044 5.65664 5.23682 5.38969C4.7713 5.19901 3.72389 5.24986 3.36182 5.46596C3.14199 5.60579 3.33596 5.87274 3.59458 5.79647C4.33165 5.59308 5.1463 5.58037 5.21096 5.77105C5.36613 6.17783 4.7713 6.82613 4.18941 6.88969C3.46527 6.97868 2.13337 8.13546 2.75406 8.13546C2.85751 8.13546 3.03855 8.02105 3.18079 7.86851C3.42648 7.60156 4.03424 7.24563 4.24113 7.24563C4.30579 7.24563 4.35751 7.66512 4.34458 8.16088C4.31872 9.95325 5.54717 10.7795 7.20234 10.1058C7.78424 9.86427 7.75837 9.86427 7.75837 10.2329C7.75837 10.3982 7.59027 10.7922 7.38337 11.0846C6.87906 11.7965 7.08596 12.0888 7.62906 11.4405C8.02993 10.9702 8.22389 10.3473 8.10751 9.90241C8.02993 9.61003 8.57303 8.89817 8.87044 8.89817C9.11613 8.89817 9.19372 9.08885 9.25837 9.87698C9.33596 10.6778 9.40062 10.8431 9.58165 10.7414C9.82734 10.5888 9.71096 9.33037 9.40062 8.88546C8.90924 8.16088 9.03855 8.02105 10.2541 7.98291C11.573 7.93207 11.6506 7.70325 10.3834 7.6524C9.38768 7.61427 9.2713 7.51257 9.67217 7.08037C9.82734 6.91512 9.89199 6.62274 9.89199 6.12698C9.89199 5.31342 10.1894 5.12274 11.0687 5.36427C11.573 5.49139 11.7023 5.45325 11.5989 5.17359C11.4696 4.84308 10.5773 4.80495 9.76268 5.09732C9.69803 5.12274 9.45234 5.00834 9.21958 4.84308C8.83165 4.56342 8.80579 4.48715 8.88337 4.0041C8.98682 3.2541 8.48251 2.23715 8.22389 2.65664ZM8.61182 4.90664C9.46527 5.31342 9.86613 6.30495 9.36182 6.788C9.1032 7.05495 9.06441 7.05495 8.39199 6.63546C7.70665 6.20325 7.08596 5.5041 7.13768 5.22444C7.2282 4.76681 7.96527 4.60156 8.61182 4.90664ZM7.31872 6.26681C7.49975 6.48291 7.49975 6.53376 7.31872 6.80071C7.04717 7.20749 5.17217 9.33037 5.02993 9.38122C4.9782 9.40664 4.86182 9.17783 4.7713 8.87274C4.49975 7.85579 5.05579 6.59732 6.11613 5.83461L6.65924 5.45325L6.89199 5.74563C7.0213 5.91088 7.21527 6.13969 7.31872 6.26681ZM8.49544 7.13122C9.14199 7.4363 9.14199 7.46173 8.77993 8.09732C8.1463 9.22868 7.03424 9.96596 6.06441 9.88969C5.76699 9.86427 5.49544 9.788 5.46958 9.72444C5.43079 9.58461 7.70665 6.86427 7.84889 6.86427C7.90061 6.86427 8.1851 6.97868 8.49544 7.13122Z" fill="black"/>
</svg>
