<svg width="15" height="15" viewBox="0 0 15 15" fill="none" xmlns="http://www.w3.org/2000/svg">
<path d="M7.84152 1.14049C7.25291 1.43397 6.26557 2.57528 6.26557 2.93397C6.26557 3.26006 4.97443 3.11332 4.84152 2.78723C4.61367 2.13506 3.43645 1.45028 2.69595 1.49919C1.95544 1.5481 1.74658 1.84158 2.39215 1.9231C3.3605 2.05354 3.60734 2.15136 3.98709 2.60788L4.38582 3.09702L3.8162 3.52093C3.49341 3.74919 3.22759 4.09158 3.22759 4.25462C3.22759 5.05354 4.49974 6.32528 5.48709 6.50463L6.05671 6.60245L5.69595 7.30354L5.33519 8.00463L4.25291 7.25463C2.82886 6.24376 2.54405 6.29267 1.74658 7.74376C1.06303 8.93397 0.778225 9.94484 1.08202 9.94484C1.19595 9.94484 1.59468 9.32528 1.99341 8.55897C2.39215 7.79267 2.7719 7.1731 2.84785 7.1731C3.03772 7.1731 4.29088 7.9068 4.78455 8.31441C5.43012 8.81984 5.79088 8.72202 6.07569 7.98832C6.30354 7.38506 6.3605 7.35245 6.62633 7.58071C6.89215 7.80897 6.89215 7.8905 6.55038 8.41223C6.05671 9.19484 5.86683 9.22745 4.89848 8.75463C3.62633 8.11876 3.28455 8.06984 3.01873 8.51006C2.65797 9.08071 2.12633 11.347 2.27822 11.5753C2.52506 11.9177 2.79088 11.6079 2.94278 10.809C3.01873 10.3851 3.2086 9.7655 3.3605 9.4231L3.64531 8.81984L4.38582 9.14593C5.90481 9.7981 6.01873 9.81441 6.55038 9.32528C6.8162 9.08071 7.02506 8.77093 7.02506 8.6405C7.02506 8.46115 7.06303 8.44484 7.17696 8.59158C7.44278 8.96658 6.72126 11.5753 6.28455 11.8525C5.73392 12.1785 5.79088 12.4231 6.39848 12.3579C7.15797 12.2927 7.34784 11.8525 7.76557 9.37419L7.89848 8.55897L8.20228 9.0481C8.35417 9.30897 8.54405 9.94484 8.60101 10.434C8.71493 11.4285 9.2086 12.4883 9.64531 12.6351C10.044 12.7655 10.177 12.5861 9.93012 12.2438C9.8162 12.0807 9.60734 11.6405 9.49341 11.2655C9.37949 10.8905 9.22759 10.4503 9.17063 10.3035C9.09468 10.1242 9.24658 10.1731 9.60734 10.4666C10.2149 10.9394 11.544 11.5101 12.4175 11.6405C12.7213 11.6894 13.082 11.8688 13.2339 12.0644C13.5187 12.4068 13.9554 12.4883 14.1453 12.2438C14.2023 12.1622 14.1263 11.9829 13.9554 11.8525C13.7086 11.6405 13.7086 11.5916 13.9554 11.5101C14.4111 11.3633 14.2972 10.9557 13.6137 10.222C13.2529 9.83071 12.7592 8.95028 12.4744 8.16767C11.5251 5.73832 11.0124 5.46115 10.044 6.92854C9.45544 7.84158 8.99974 8.05354 8.80987 7.5318C8.75291 7.38506 8.44911 6.7818 8.1643 6.21115C7.76557 5.44484 7.67063 5.08615 7.80354 4.87419C8.14531 4.30354 8.0124 3.74919 7.40481 3.45571C6.72126 3.11332 6.72126 3.09702 7.29088 2.2981C7.59468 1.89049 8.03139 1.58071 8.54405 1.40136C8.96177 1.25462 9.26557 1.05897 9.2086 0.97745C9.01873 0.732884 8.50607 0.781797 7.84152 1.14049ZM7.13898 3.92854C7.53772 4.20571 7.46177 4.49919 6.8162 5.13506C5.96177 5.96658 5.58202 6.11332 5.0124 5.80354C4.46177 5.47745 3.77822 4.36875 3.9681 4.09158C4.32886 3.60245 6.53139 3.48832 7.13898 3.92854ZM7.78455 6.84702C8.24025 7.9068 8.18329 8.20028 7.61367 7.76006C7.00607 7.28723 6.55038 6.24376 6.83519 5.95028C7.15797 5.60789 7.29088 5.73832 7.78455 6.84702ZM11.677 7.8905C12.0567 8.86876 11.9997 8.91767 11.0314 8.44484C10.139 8.00463 10.12 7.93941 10.6516 7.18941C11.1073 6.55354 11.1643 6.58615 11.677 7.8905ZM9.85417 8.6568C11.4301 9.16223 13.4808 10.5318 13.4808 11.0698C13.4808 11.6079 10.4808 10.434 9.34152 9.45571C8.06936 8.36332 8.22126 8.11876 9.85417 8.6568Z" fill="currentColor"/>
<path d="M4.30949 4.3199C4.15759 4.61337 4.51835 4.82533 4.78417 4.59707C4.99303 4.41772 4.84113 4.07533 4.55632 4.07533C4.48037 4.07533 4.36645 4.18946 4.30949 4.3199Z" fill="currentColor"/>
<path d="M6.28495 4.30265C6.0571 4.53091 6.19001 4.72656 6.58875 4.72656C6.87356 4.72656 6.93052 4.30265 6.6647 4.17221C6.56976 4.1233 6.39887 4.17221 6.28495 4.30265Z" fill="currentColor"/>
</svg>
