<svg width="15" height="15" viewBox="0 0 15 15" fill="none" xmlns="http://www.w3.org/2000/svg">
<path d="M6.66601 2.36544C6.46601 2.74044 6.26601 3.37505 6.21601 3.7789C6.14934 4.41351 5.96601 4.61544 5.03268 5.10582L3.93268 5.71159L3.09934 4.70197C1.68268 3.0289 0.866009 3.89428 1.66601 6.25967C1.99934 7.26928 2.01601 7.32697 1.73268 8.6539C1.23268 11.1058 1.64934 11.5385 3.14934 10.0962C4.21601 9.08659 4.56601 9.00005 4.41601 9.7789C4.29934 10.4712 4.84934 11.5385 5.31601 11.5385C5.48268 11.5385 5.79934 11.2789 6.03268 10.9904C6.69934 10.0674 7.79934 10.4712 7.86601 11.6539C7.94934 13.0097 8.93268 13.1251 9.56601 11.7981C9.89934 11.1347 10.2327 10.8174 10.7993 10.6443C12.516 10.0962 13.6993 8.39428 13.2993 7.0962C12.8827 5.74044 11.9327 4.78851 10.3827 4.1539C9.46601 3.7789 9.16601 3.51928 8.78268 2.71159C8.18268 1.4712 7.23268 1.32697 6.66601 2.36544ZM8.18268 2.88467C8.53268 3.23082 8.61601 4.03851 8.28268 4.03851C7.99934 4.03851 7.33268 3.20197 7.33268 2.85582C7.33268 2.50967 7.78268 2.50967 8.18268 2.88467ZM2.63268 5.10582C2.88268 5.39428 3.21601 5.85582 3.36601 6.11544C3.74934 6.7789 3.66601 6.7789 5.24934 5.88467C6.69934 5.10582 9.26601 4.41351 9.71601 4.70197C9.94934 4.8462 9.96601 5.01928 9.79934 5.76928C9.63268 6.66351 9.68268 8.62505 9.91601 9.57697C10.1493 10.5577 7.63268 10.1539 5.26601 8.85582L4.13268 8.2212L3.13268 9.20197C1.94934 10.327 1.81601 10.2116 2.28268 8.53851L2.64934 7.26928L2.23268 6.31736C1.56601 4.73082 1.74934 4.1539 2.63268 5.10582ZM12.2827 6.51928C12.9493 7.41351 12.9827 7.99044 12.3827 8.45197C12.116 8.62505 11.8493 8.94236 11.7493 9.14428C11.666 9.31736 11.3827 9.57697 11.1493 9.66351C10.3327 10.0097 9.88268 7.70197 10.3327 5.62505C10.4993 4.9039 10.4993 4.9039 11.116 5.33659C11.4493 5.5962 11.9827 6.11544 12.2827 6.51928ZM5.44934 9.83659C5.86601 10.0962 5.88268 10.1539 5.61601 10.4135C5.31601 10.7308 4.83268 10.327 4.83268 9.7789C4.83268 9.46159 4.88268 9.46159 5.44934 9.83659ZM9.16601 11.3943C8.94934 11.8558 8.33268 12.0001 8.33268 11.5962C8.33268 11.1635 8.54934 10.9616 8.96601 10.9616C9.31601 10.9616 9.33268 11.0193 9.16601 11.3943Z" fill="currentColor"/>
<path d="M11.1002 6.86449C10.9668 7.23949 11.2835 7.87411 11.4835 7.67218C11.7502 7.38372 11.7168 6.63372 11.4335 6.63372C11.3002 6.63372 11.1502 6.74911 11.1002 6.86449Z" fill="currentColor"/>
</svg>
