<svg width="15" height="15" viewBox="0 0 15 15" fill="none" xmlns="http://www.w3.org/2000/svg">
<path d="M6.72386 3.33253C6.62041 3.59443 6.56868 4.09443 6.58593 4.45158C6.63765 5.04681 6.55144 5.14205 5.37903 5.7611L4.10317 6.45158L2.98248 5.23729C1.13765 3.28491 0.482478 3.85634 1.48248 6.59443C1.89627 7.78491 1.91351 7.85634 1.62041 8.59443C0.775581 10.8801 1.10317 11.5944 2.51696 10.5706C2.98248 10.2373 3.48248 9.80872 3.63765 9.61824C4.08593 9.07062 4.41351 9.23729 4.58593 10.0468C4.84455 11.2373 5.51696 11.6659 6.25834 11.1182C7.15489 10.4516 7.70662 10.7373 7.68937 11.8563C7.67213 12.5944 7.7411 12.7611 8.05144 12.8087C8.49972 12.904 9.41351 12.0944 9.55144 11.4754C9.62041 11.1897 9.96524 10.9754 10.6894 10.7849C12.6721 10.2611 14.0687 8.66586 13.6032 7.45158C13.1377 6.2611 11.0514 4.7611 9.84455 4.7611C9.49972 4.7611 9.13765 4.47539 8.65489 3.80872C7.86179 2.71348 7.05144 2.4992 6.72386 3.33253ZM8.06868 3.95158C8.63765 4.4992 8.5342 4.7611 7.75834 4.7611C7.20662 4.7611 7.06868 4.66586 7.06868 4.33253C7.06868 3.4992 7.44799 3.35634 8.06868 3.95158ZM2.94799 6.11824C3.99972 7.2611 4.10317 7.28491 4.87903 6.80872C6.31006 5.92777 7.72386 5.42777 8.91351 5.42777C10.4135 5.40396 10.4308 5.40396 10.0687 6.40396C9.75834 7.28491 9.70662 8.78491 9.98248 9.4992C10.2928 10.2611 10.2411 10.3087 8.67213 10.1897C7.39627 10.0944 6.93075 9.95158 5.7411 9.21348C4.32731 8.35634 3.98248 8.30872 3.44799 8.95158C3.05144 9.40396 1.86179 10.2611 1.79282 10.1659C1.75834 10.1182 1.87903 9.52301 2.08593 8.88015L2.44799 7.66586L1.99972 6.52301C1.20662 4.45158 1.34455 4.40396 2.94799 6.11824ZM12.6549 7.11824C13.3101 8.02301 13.1549 8.61824 12.0342 9.38015C10.9135 10.1659 10.7239 10.1421 10.4997 9.33253C10.1894 8.23729 10.2066 7.54681 10.5342 6.59443L10.8618 5.71348L11.517 6.07062C11.8618 6.28491 12.379 6.7611 12.6549 7.11824ZM5.68937 10.023C6.13765 10.2373 6.18937 10.3563 5.98248 10.4992C5.65489 10.7611 5.22386 10.5706 5.10317 10.0944C4.99972 9.68967 4.98248 9.68967 5.68937 10.023ZM8.96524 11.4278C8.86179 11.6897 8.75834 11.904 8.70662 11.904C8.67213 11.904 8.5342 11.9754 8.37903 12.0468C8.05144 12.2135 7.99972 11.6659 8.31006 11.2373C8.67213 10.7373 9.17213 10.8801 8.96524 11.4278Z" fill="black"/>
<path d="M11.3958 7.14118C11.12 7.35547 11.2924 7.85547 11.6545 7.85547C11.9131 7.85547 11.9993 7.26023 11.7579 7.04594C11.689 6.99833 11.5165 7.02214 11.3958 7.14118Z" fill="black"/>
</svg>
