<svg width="15" height="15" viewBox="0 0 15 15" fill="none" xmlns="http://www.w3.org/2000/svg">
<path d="M6.91228 0.831145C6.87478 0.929685 6.88728 1.03917 6.94978 1.08297C7.01228 1.11582 7.06228 1.38954 7.06228 1.68516V2.2326L6.44978 2.41874C5.82478 2.62677 4.96228 3.2399 5.07478 3.41509C5.11228 3.45888 5.08728 3.50268 5.03728 3.50268C4.88728 3.50268 4.51228 4.15961 4.42478 4.59757C4.37478 4.8056 4.29978 5.02458 4.24978 5.09027C4.16228 5.19976 3.96228 5.7691 3.94978 5.95523C3.93728 6.02093 3.77478 6.22895 3.56228 6.43698C3.36228 6.63406 3.18728 6.83114 3.18728 6.87494C3.18728 6.91874 2.98728 7.12676 2.73728 7.33479C2.23728 7.7618 1.94978 8.16691 2.04978 8.30925C2.08728 8.36399 2.04978 8.42968 1.94978 8.46253C1.41228 8.64866 0.962281 10.6414 1.24978 11.583C1.53728 12.5246 2.64978 13.8165 3.01228 13.6304C3.07478 13.5866 3.12478 13.6085 3.12478 13.6633C3.12478 13.8494 3.76228 14.145 4.23728 14.1888C4.48728 14.2107 4.94978 14.2764 5.27478 14.3202C5.61228 14.3749 5.89978 14.3859 5.93728 14.353C6.16228 14.1669 7.84978 14.1341 8.33728 14.3092C8.93728 14.5282 10.4748 14.2217 11.3623 13.7071C11.9998 13.3348 12.8623 12.4589 12.8748 12.1742C12.8748 12.1085 12.9373 12.0428 12.9998 12.0428C13.0748 12.0428 13.1248 11.9662 13.1248 11.8676C13.1248 11.7691 13.0623 11.7253 12.9748 11.7691C12.8873 11.8129 12.9123 11.7691 13.0248 11.6925C13.3498 11.4516 13.4498 10.51 13.1873 10.072C13.0748 9.88589 13.0373 9.7545 13.1123 9.78735C13.2623 9.87494 13.2373 9.25085 13.0873 9.11947C13.0373 9.08662 12.9998 8.95523 12.9998 8.84574C12.9998 8.73625 12.9498 8.64866 12.8873 8.64866C12.8248 8.64866 12.7373 8.55012 12.6873 8.42968C12.6498 8.30925 12.4248 8.02458 12.2123 7.79465C11.6373 7.18151 10.9498 6.31655 10.9373 6.18516C10.9373 6.11947 10.8623 5.96618 10.7873 5.84574C10.6998 5.71436 10.5248 5.17786 10.3873 4.64136C10.2498 4.10487 10.0748 3.65596 10.0123 3.63406C9.93728 3.61217 9.89978 3.54647 9.94978 3.49173C9.98728 3.43698 9.94978 3.39319 9.87478 3.39319C9.79978 3.39319 9.77478 3.33844 9.81228 3.2837C9.92478 3.13041 9.08728 2.40779 8.79978 2.40779C8.31228 2.40779 7.93728 2.05742 7.94978 1.61947C7.98728 0.929685 7.14978 0.305597 6.91228 0.831145ZM8.84978 3.31655C9.14978 3.52458 9.47478 4.20341 9.63728 4.92604C9.82478 5.78005 10.6998 7.48808 10.8998 7.37859C10.9748 7.33479 10.9998 7.34574 10.9623 7.41144C10.9123 7.47713 11.0873 7.71801 11.3498 7.96983C11.5998 8.21071 11.8248 8.42968 11.8498 8.44063C11.8623 8.46253 11.9123 8.59392 11.9498 8.7253C11.9998 8.86764 12.0873 8.97713 12.1498 8.97713C12.2123 8.97713 12.2498 9.04282 12.2248 9.10852C12.2123 9.18516 12.2623 9.34939 12.3373 9.46983C12.4998 9.7326 12.5248 11.4735 12.3623 11.5611C12.2623 11.6158 11.8748 12.3165 11.8498 12.4808C11.8373 12.6341 10.1373 13.4662 9.83728 13.4662C9.64978 13.4662 9.46228 13.5428 9.42478 13.6304C9.37478 13.718 9.29978 13.7618 9.23728 13.729C9.17478 13.6961 8.99978 13.6523 8.84978 13.6195C7.48728 13.3676 7.51228 13.3676 6.12478 13.5319C5.19978 13.6414 4.06228 13.499 3.64978 13.2144C3.57478 13.1596 3.49978 13.1377 3.49978 13.1706C3.49978 13.4552 2.34978 12.1195 2.17478 11.6377C1.82478 10.6633 2.16228 8.98808 2.83728 8.33114C2.98728 8.17786 3.07478 8.01363 3.03728 7.95888C2.99978 7.89319 3.01228 7.88224 3.08728 7.91509C3.36228 8.06837 4.72478 6.37129 4.54978 6.10852C4.49978 6.03187 4.51228 6.02093 4.59978 6.06472C4.68728 6.10852 4.76228 6.08662 4.76228 6.03187C4.79978 5.8129 4.82478 5.7472 4.97478 5.49538C5.06228 5.36399 5.09978 5.19976 5.06228 5.14501C5.02478 5.09027 5.04978 5.02458 5.12478 4.98078C5.18728 4.94793 5.24978 4.79465 5.24978 4.64136C5.24978 3.96253 6.36228 3.06472 7.24978 3.03187C7.52478 3.02093 7.74978 2.97713 7.74978 2.93333C7.74978 2.84574 8.59978 3.14136 8.84978 3.31655Z" fill="currentColor"/>
<path d="M7.51308 3.82114C7.30058 3.94158 7.42558 4.31384 7.66308 4.24815C7.82558 4.1934 7.95058 3.7226 7.78808 3.7226C7.73808 3.7226 7.61308 3.7664 7.51308 3.82114Z" fill="currentColor"/>
<path d="M3.46305 11.134C3.36305 11.2764 3.76305 12.0209 3.96305 12.0866C4.28805 12.1961 4.30055 12.0866 4.00055 11.561C3.73805 11.0793 3.58805 10.9589 3.46305 11.134Z" fill="currentColor"/>
</svg>
