<svg width="15" height="15" viewBox="0 0 15 15" fill="none" xmlns="http://www.w3.org/2000/svg">
<path d="M6.38817 2.38597C6.10581 2.54506 5.6117 3.09051 5.29405 3.61324C4.95875 4.13597 4.58817 4.54506 4.46464 4.54506C3.65287 4.54506 1.90581 6.2496 1.39405 7.52233C1.05875 8.4087 1.05875 8.4087 1.39405 9.27233C1.78228 10.2723 2.71758 11.136 4.00581 11.7269C4.6764 12.0223 4.9764 12.3178 5.20581 12.886C5.41758 13.386 5.71758 13.7041 6.07052 13.8178C7.0764 14.1587 7.69405 13.5905 7.27052 12.7041C6.98817 12.1132 6.98817 12.1132 7.69405 11.9314C8.17052 11.8178 8.41758 11.886 8.64699 12.1587C9.56464 13.2269 10.9411 12.0451 10.3058 10.7496C9.88228 9.88597 10.4646 9.95415 11.5588 10.9314C12.6176 11.8632 13.3058 12.0451 13.4646 11.4769C13.5705 11.136 13.1293 8.9087 12.8646 8.4996C12.7764 8.36324 12.8999 7.68142 13.1646 6.84051C13.6411 5.29506 13.6588 4.84051 13.1999 4.47688C12.8293 4.18142 12.2646 4.52233 11.2235 5.70415L10.4999 6.52233L9.75875 5.9087L9.01758 5.29506L9.37052 4.63597C9.8117 3.77233 9.8117 3.7496 9.12346 3.06779C8.34699 2.31779 7.09405 2.02233 6.38817 2.38597ZM6.89993 3.36324C6.63523 3.9996 6.22934 4.36324 5.8764 4.27233C5.59405 4.20415 5.62934 4.11324 6.07052 3.56779C6.67052 2.84051 7.16464 2.72688 6.89993 3.36324ZM8.11758 3.34051C8.11758 3.61324 7.53523 4.31779 7.28817 4.31779C7.09405 4.31779 7.1117 4.20415 7.34111 3.7496C7.60581 3.22688 8.11758 2.95415 8.11758 3.34051ZM8.82346 4.43142C8.6117 4.77233 8.11758 4.9087 8.11758 4.61324C8.11758 4.54506 8.25875 4.27233 8.41758 4.04506C8.78817 3.52233 9.1764 3.88597 8.82346 4.43142ZM7.60581 5.2496C7.94111 5.4087 8.66464 5.9087 9.24699 6.38597C10.5176 7.47688 10.4823 7.47688 11.647 6.2496C12.1764 5.68142 12.7058 5.22688 12.8293 5.22688C13.1117 5.22688 12.6352 6.97688 12.1764 7.61324C11.8411 8.09051 11.8411 8.09051 12.2646 8.86324C12.5117 9.29506 12.7588 9.9996 12.8117 10.4314L12.9352 11.2041L12.3882 10.7723C12.0705 10.5451 11.5764 10.0678 11.2588 9.72688C10.5529 8.95415 10.4999 8.95415 9.7764 9.6587C8.69993 10.7269 7.39405 11.3632 6.31758 11.3632C4.85287 11.3632 4.74699 11.2723 5.09993 10.386C5.54111 9.2496 5.48817 6.81779 4.99405 5.93142C4.62346 5.31779 4.62346 5.2496 4.90581 5.1587C5.50581 4.95415 7.02346 4.9996 7.60581 5.2496ZM4.79993 7.29506C4.95875 8.04506 4.95875 8.4087 4.69405 9.45415C4.32346 10.9996 4.09405 11.1132 3.10581 10.3632C2.3117 9.77233 1.85287 9.20415 2.36464 9.45415C2.82346 9.68142 2.68228 9.09051 2.20581 8.81779C1.46464 8.38597 1.83523 7.4087 3.24699 6.09051L3.97052 5.43142L4.27052 5.9087C4.44699 6.18142 4.6764 6.81779 4.79993 7.29506ZM9.84699 11.3178C9.93523 11.7041 9.37052 11.9314 9.12346 11.6132C8.96464 11.4087 8.98228 11.2951 9.1764 11.136C9.49405 10.886 9.74111 10.9541 9.84699 11.3178ZM6.38817 12.4314C6.8117 12.9314 6.79405 13.2269 6.33523 13.136C5.80581 13.0451 5.2764 12.0451 5.73523 12.0451C5.9117 12.0451 6.2117 12.2041 6.38817 12.4314Z" fill="black"/>
<path d="M3 7.47615C3 8.06706 3.47647 8.24888 3.68824 7.74888C3.9 7.2716 3.77647 7.04433 3.31765 7.04433C3.12353 7.04433 3 7.20342 3 7.47615Z" fill="black"/>
</svg>
