<svg width="15" height="15" viewBox="0 0 15 15" fill="none" xmlns="http://www.w3.org/2000/svg">
<path d="M7.21276 2.68046C6.83776 3.0862 6.58776 3.86079 6.58776 4.69685C6.57526 5.70505 6.43776 5.80341 5.65026 5.28702C5.03776 4.89358 4.52526 4.75833 3.86276 4.8198C3.18776 4.88128 3.28776 5.22554 3.97526 5.17636C4.37526 5.15177 4.70026 5.23784 5.20026 5.48374C5.86276 5.81571 5.87526 5.81571 5.80026 6.28292C5.75026 6.5903 5.78776 6.93456 5.92526 7.26653C6.16276 7.85669 6.15026 7.90587 5.72526 7.80751C5.50026 7.74603 5.38776 7.59849 5.27526 7.20505C5.01276 6.22144 3.75026 5.37308 3.93776 6.29521L4.01276 6.70095L3.66276 6.29521C3.03776 5.59439 2.63776 5.88948 2.81276 6.92226C2.92526 7.5739 3.78776 8.48374 4.30026 8.48374C4.48776 8.48374 4.81276 8.5698 5.01276 8.68046C5.22526 8.77882 5.65026 8.86489 5.97526 8.85259C6.83776 8.81571 6.86276 8.8403 6.31276 9.0862C5.68776 9.35669 5.51276 9.578 5.41276 10.1436C5.31276 10.7337 5.62526 10.6969 5.77526 10.1067C5.85026 9.8239 6.02526 9.65177 6.38776 9.45505C6.93776 9.18456 7.21276 9.23374 6.78776 9.52882C6.40026 9.79931 6.21276 10.3403 6.33776 10.8321C6.50026 11.41 6.68776 11.3485 6.70026 10.7214C6.71276 10.3526 6.81276 10.0944 7.01276 9.88538C7.37526 9.50423 7.37526 9.50423 7.75026 10.0821C7.91276 10.3526 8.08776 10.5739 8.13776 10.5739C8.20026 10.5739 8.17526 10.746 8.10026 10.9428C7.81276 11.7665 8.35026 12.369 9.05026 12.0124C9.26276 11.9141 9.60026 11.7911 9.78776 11.7542C9.98776 11.7051 10.1878 11.5452 10.2753 11.3731C10.3503 11.201 10.4878 11.0657 10.5753 11.0657C10.8128 11.0657 11.1003 10.5862 11.0378 10.3157C10.9628 10.0575 10.4003 9.71325 10.0628 9.71325C9.96276 9.71325 9.87526 9.60259 9.87526 9.46735C9.87526 9.3198 9.78776 9.03702 9.67526 8.828C9.51276 8.52062 9.50026 8.43456 9.65026 8.34849C10.0128 8.11489 10.6003 8.17636 10.9503 8.49603C11.2503 8.77882 11.3753 8.79112 11.3753 8.55751C11.3753 8.45915 11.2003 8.23784 10.9753 8.05341C10.5753 7.72144 10.3628 7.69685 9.50026 7.94276C9.23776 8.02882 9.25026 7.97964 9.66276 7.63538C10.1003 7.25423 10.1753 7.22964 10.7628 7.30341C11.5253 7.40177 11.5878 7.14358 10.8503 6.95915C10.3128 6.8239 9.90026 6.92226 9.52526 7.26653C9.36276 7.40177 9.20026 7.48784 9.15026 7.43866C9.10026 7.38948 9.13776 7.31571 9.22526 7.29112C9.46276 7.20505 9.87526 6.3321 9.87526 5.92636C9.87526 5.72964 9.96276 5.39767 10.0753 5.17636C10.5128 4.30341 9.61276 2.64358 8.75026 2.72964C8.42526 2.76653 8.41276 2.828 8.55026 3.66407L8.62526 4.11899L8.38776 3.8362C8.03776 3.43046 7.87526 3.50423 7.87526 4.05751C7.87526 4.61079 8.08776 5.10259 8.48776 5.45915C8.73776 5.68046 8.85026 6.25833 8.67526 6.43046C8.62526 6.47964 8.37526 6.27062 8.11276 5.97554C7.85026 5.68046 7.48776 5.39767 7.31276 5.36079C7.02526 5.28702 7.00026 5.22554 7.00026 4.61079C7.00026 3.97144 7.36276 2.92636 7.63776 2.75423C7.70026 2.71735 7.75026 2.64358 7.75026 2.5698C7.75026 2.38538 7.42526 2.44685 7.21276 2.68046ZM9.57526 3.8362C9.81276 4.27882 9.80026 5.0903 9.56276 5.28702C9.30026 5.50833 8.73776 5.25013 8.46276 4.80751C8.21276 4.38948 8.18776 4.19276 8.40026 4.40177C8.48776 4.48784 8.66276 4.54931 8.78776 4.54931C9.01276 4.54931 9.02526 4.48784 8.96276 3.79931C8.90026 3.06161 8.90026 3.06161 9.15026 3.28292C9.28776 3.40587 9.47526 3.65177 9.57526 3.8362ZM7.73776 6.13538C8.17526 6.73784 8.01276 7.05751 7.08776 7.43866C6.65026 7.62308 6.62526 7.61079 6.43776 7.3403C6.03776 6.72554 6.05026 6.30751 6.51276 6.03702C7.10026 5.68046 7.43776 5.71735 7.73776 6.13538ZM9.50026 5.90177C9.50026 6.12308 9.16276 6.84849 9.01276 6.93456C8.91276 6.99603 8.91276 6.93456 9.00026 6.70095C9.07526 6.51653 9.12526 6.24603 9.12526 6.0739C9.12526 5.88948 9.20026 5.77882 9.31276 5.77882C9.41276 5.77882 9.50026 5.8403 9.50026 5.90177ZM4.21276 7.22964C4.35026 7.20505 4.43776 7.0821 4.42526 6.90997C4.41276 6.35669 4.63776 6.63948 4.92526 7.52472C5.02526 7.8444 4.65026 8.15177 4.26276 8.05341C3.81276 7.94276 3.62526 7.75833 3.36276 7.19276C3.01276 6.44276 3.07526 6.29521 3.56276 6.81161C3.82526 7.0944 4.07526 7.25423 4.21276 7.22964ZM8.66276 7.43866C8.77526 7.68456 8.87526 7.97964 8.87526 8.0903C8.87526 8.71735 7.92526 9.17226 7.31276 8.85259C6.80026 8.5821 6.62526 7.86899 7.06276 7.86899C7.31276 7.86899 8.08776 7.38948 8.17526 7.19276C8.28776 6.89767 8.43776 6.98374 8.66276 7.43866ZM6.18776 8.37308C6.38776 8.44685 6.33776 8.47144 5.97526 8.47144C5.43776 8.48374 5.10026 8.37308 5.20026 8.22554C5.26276 8.11489 5.68776 8.17636 6.18776 8.37308ZM9.25026 8.93866C9.25026 9.20915 8.52526 9.71325 8.15026 9.71325C7.76276 9.71325 7.81276 9.52882 8.23776 9.34439C8.43776 9.27062 8.70026 9.09849 8.82526 8.96325C9.08776 8.66817 9.25026 8.66817 9.25026 8.93866ZM9.37526 10.0206C9.20026 10.2296 8.56276 10.3772 8.36276 10.2665C8.28776 10.2173 8.43776 10.0821 8.72526 9.95915C9.00026 9.8362 9.26276 9.66407 9.32526 9.578C9.41276 9.44276 9.43776 9.45505 9.47526 9.62718C9.50026 9.75013 9.45026 9.92226 9.37526 10.0206ZM10.5628 10.3403C10.6253 10.4141 10.6253 10.5001 10.5378 10.5862C10.4503 10.6723 10.3003 10.6231 10.0503 10.3895L9.68776 10.0821L10.0628 10.1559C10.2753 10.2051 10.4878 10.2911 10.5628 10.3403ZM9.96276 10.9059C10.0378 11.1026 9.71276 11.4346 9.42526 11.4346C9.23776 11.4346 9.11276 10.66 9.28776 10.5493C9.46276 10.4387 9.86276 10.66 9.96276 10.9059ZM8.86276 11.3977C8.87526 11.5698 8.80026 11.6805 8.70026 11.6805C8.40026 11.6805 8.33776 11.4469 8.51276 11.0411C8.65026 10.7091 8.68776 10.6846 8.76276 10.8936C8.81276 11.0165 8.86276 11.2501 8.86276 11.3977Z" fill="black"/>
</svg>
