<svg width="15" height="15" viewBox="0 0 15 15" fill="none" xmlns="http://www.w3.org/2000/svg">
<path d="M8.53064 2.12594C8.31635 2.36205 7.82082 3.19538 7.40564 3.95927C6.99046 4.72316 6.62885 5.37594 6.60207 5.40372C6.57528 5.44538 6.37439 5.23705 6.14671 4.94538C5.86546 4.59816 5.63778 4.44538 5.45028 4.47316C5.0351 4.52872 4.04403 6.13983 2.82528 8.6815C1.4726 11.5148 1.35207 11.9732 1.83421 12.5287C2.0351 12.7509 2.43689 12.7648 7.2851 12.6954C13.5396 12.6121 13.928 12.5982 14.2896 12.3482C14.8119 12.0148 14.7851 11.7926 14.1155 10.1398C14.0083 9.87594 13.8208 9.50094 13.7137 9.3065C13.6199 9.11205 13.3119 8.51483 13.044 7.98705C12.7896 7.44538 12.428 6.76483 12.2539 6.45927C12.0797 6.15372 11.7315 5.50094 11.4771 5.00094C10.7672 3.61205 10.5262 3.19538 10.419 3.19538C10.3521 3.19538 10.3119 3.09816 10.3119 2.98705C10.3119 2.72316 9.33421 1.66761 9.09314 1.66761C8.98599 1.66761 8.73153 1.87594 8.53064 2.12594ZM10.111 3.9315C10.5128 4.63983 10.8476 5.29261 10.8476 5.37594C10.8476 5.6815 10.6065 5.69538 10.2583 5.40372C9.86992 5.08427 9.7226 5.13983 9.37439 5.72316L9.13332 6.13983L8.82528 5.70927C8.43689 5.16761 8.32974 5.16761 7.76724 5.76483C6.84314 6.76483 6.9101 6.25094 7.99492 4.26483C8.79849 2.8065 9.05296 2.44538 9.25385 2.57038C9.32082 2.61205 9.69582 3.23705 10.111 3.9315ZM6.21367 6.13983C6.56189 6.62594 7.20474 7.57038 7.63332 8.26483C8.63778 9.84816 9.1601 10.4871 9.3476 10.3621C9.50832 10.2648 9.14671 9.3065 8.94582 9.3065C8.89224 9.3065 8.83867 9.22316 8.83867 9.11205C8.83867 9.00094 8.7851 8.88983 8.73153 8.86205C8.67796 8.83427 8.36992 8.41761 8.06189 7.9315L7.48599 7.04261L7.92796 6.57038L8.35653 6.11205L8.67796 6.52872C9.07974 7.07038 9.29403 7.0565 9.66903 6.47316L9.97707 6.00094L10.2985 6.26483C10.5931 6.51483 10.6333 6.51483 10.9414 6.3065C11.1289 6.19538 11.2896 6.11205 11.303 6.13983C11.6512 6.58427 13.7003 10.7787 13.861 11.3482C13.9949 11.8343 13.5797 11.9176 10.8342 11.9593C5.73153 12.0287 2.16903 12.0148 2.07528 11.9176C2.0351 11.8759 2.04849 11.7232 2.12885 11.5704C2.20921 11.4315 2.65117 10.4732 3.13332 9.44538C4.01724 7.54261 5.28957 5.27872 5.49046 5.27872C5.54403 5.27872 5.87885 5.66761 6.21367 6.13983Z" fill="currentColor"/>
</svg>
