<svg width="15" height="15" viewBox="0 0 15 15" fill="none" xmlns="http://www.w3.org/2000/svg">
<path d="M5.00084 1.70197C2.66261 3.49043 2.95672 5.2212 5.73614 6.01447C8.30967 6.73562 8.25084 7.35581 5.53025 7.8462C3.41261 8.2212 2.19202 8.89908 1.3979 10.0962C0.765548 11.077 0.486136 12.5914 0.883195 12.8366C1.20672 13.0241 1.28025 12.9087 1.36849 12.0722C1.57437 10.0385 3.07437 8.92793 6.36849 8.36543C7.69202 8.13466 8.29496 7.73081 8.35378 7.03851C8.41261 6.38947 8.04496 6.08658 6.57437 5.55293C4.70672 4.87505 4.44202 4.74524 4.26555 4.34139C4.04496 3.79331 4.36849 3.10101 5.22143 2.33658C6.17731 1.48562 5.98614 0.937546 5.00084 1.70197Z" fill="currentColor"/>
<path d="M8.50035 1.80229C6.3827 2.56671 6.27976 4.15325 8.30917 4.5571C8.47093 4.58594 8.80917 4.64364 9.04446 4.70133C11.7798 5.23498 13.6327 6.63402 13.4268 8.01864C13.3092 8.76864 12.618 9.4321 11.2945 10.0667C9.57388 10.8744 8.55917 12.0859 8.97093 12.8359C9.19152 13.2398 9.23564 13.2109 9.54446 12.5042C9.92682 11.6533 10.3239 11.2927 11.5151 10.7302C14.8386 9.17248 15.1327 6.98018 12.2798 5.09075C11.8092 4.78787 10.5445 4.35517 8.97093 3.96575C7.25035 3.53306 7.16211 3.23017 8.52976 2.48017C8.97093 2.24941 9.26505 1.98979 9.26505 1.83114C9.26505 1.54267 9.22093 1.54267 8.50035 1.80229Z" fill="currentColor"/>
<path d="M10.6635 7.21182C10.6193 7.28393 10.6046 7.39932 10.6488 7.47143C10.7517 7.64451 10.3988 8.01951 9.85464 8.29355C8.98699 8.74067 8.86934 8.94259 9.53111 8.8849C10.6782 8.76951 11.4429 8.12047 11.2664 7.41374C11.1782 7.06759 10.8252 6.9522 10.6635 7.21182Z" fill="currentColor"/>
<path d="M5.51597 10.0088C4.69244 10.3694 4.11891 11.2348 4.48656 11.5377C4.66303 11.6819 4.73656 11.6386 4.86891 11.3358C5.0895 10.8598 5.61891 10.5281 6.45714 10.3117C6.81008 10.2252 7.13361 10.081 7.17773 9.97999C7.25126 9.7348 6.0895 9.76364 5.51597 10.0088Z" fill="currentColor"/>
</svg>
