<svg width="15" height="15" viewBox="0 0 15 15" fill="none" xmlns="http://www.w3.org/2000/svg">
<path d="M3.0274 1.52591C2.19112 1.61565 1.62032 1.96181 1.97873 2.16693C2.08492 2.23104 2.29731 2.24386 2.44333 2.17976C2.60262 2.12847 3.33271 2.07719 4.0628 2.06437C6.0805 2.02591 6.09377 2.03873 6.16015 6.51309C6.18669 8.28232 6.16015 9.48745 6.0805 9.48745C6.01413 9.48745 5.72209 9.37206 5.43006 9.21822C4.84599 8.93616 4.15572 8.96181 3.47873 9.30796C3.06722 9.51309 2.41678 9.53873 1.93891 9.37206C1.55395 9.21822 1.12917 9.53873 1.44776 9.74386C2.07165 10.1157 2.68227 10.1798 3.30616 9.94899C4.20882 9.60283 4.68669 9.56437 5.1513 9.79514C5.93448 10.1798 6.5451 10.1926 7.20882 9.82078L7.80616 9.47463L8.48315 9.74386C9.34599 10.0644 9.62475 10.0644 10.6203 9.73104C11.3371 9.48745 11.4699 9.48745 12.1203 9.65411C12.8902 9.8336 13.4079 9.75668 13.4079 9.43616C13.4079 9.32078 13.1823 9.23104 12.7044 9.17975C12.3194 9.12847 11.9478 9.05155 11.8814 9.00027C11.8017 8.94899 11.7486 7.94899 11.7354 6.53873C11.7221 3.53873 11.6955 3.25668 11.3902 2.60283C11.0318 1.80796 10.8991 1.7695 8.35041 1.82078C7.1159 1.84642 6.10705 1.82078 6.10705 1.78232C6.10705 1.52591 4.46103 1.3977 3.0274 1.52591ZM10.6469 2.66693C11.0318 3.03873 11.138 3.80796 11.138 6.55155L11.1513 8.93616L10.554 9.15411C9.79731 9.43616 9.31944 9.44899 8.80174 9.17975C8.27077 8.92334 7.75307 8.92334 7.24864 9.16693C7.04953 9.2695 6.85041 9.35924 6.83714 9.35924C6.81059 9.35924 6.77077 7.87206 6.74422 6.05155C6.71767 4.24386 6.6513 2.65411 6.58492 2.53873C6.41236 2.17976 10.2619 2.29514 10.6469 2.66693Z" fill="currentColor"/>
<path d="M9.59765 5.44872C9.6242 7.17949 9.65075 7.5 9.82332 7.5C10.1552 7.5 10.1552 4.07692 9.82332 3.69231C9.58438 3.39744 9.5711 3.4359 9.59765 5.44872Z" fill="currentColor"/>
<path d="M7.95146 3.59012C7.87182 3.82089 7.89836 7.32089 7.96474 7.43628C8.03111 7.52602 8.11075 7.5132 8.21695 7.385C8.44261 7.12859 8.36297 3.92346 8.1373 3.69269C8.04438 3.61577 7.95146 3.56448 7.95146 3.59012Z" fill="currentColor"/>
<path d="M2.0592 11.0271C1.93973 11.2194 2.24504 11.5399 2.70964 11.7323C3.09459 11.8861 3.24061 11.8733 4.47512 11.5143C4.97955 11.3733 5.09902 11.3861 5.61672 11.6425C6.33353 11.9887 6.70521 12.0015 7.46185 11.681C8.07247 11.4246 8.3645 11.4246 8.9353 11.6553C9.46627 11.8605 10.3026 11.8348 10.7804 11.5912C11.0194 11.4758 11.3247 11.4246 11.5371 11.463C11.7229 11.5015 12.0149 11.5656 12.1742 11.604C12.6123 11.7066 12.6654 11.463 12.2672 11.1681C11.8424 10.8476 11.4043 10.8348 10.4884 11.1169C9.85123 11.3092 9.77158 11.3092 9.16097 11.104C8.49725 10.8733 7.83353 10.9117 7.16981 11.2066C6.74504 11.3989 6.3999 11.3733 5.84238 11.104C5.29813 10.8476 4.64769 10.8348 4.0238 11.0912C3.41318 11.3348 2.85566 11.3348 2.4707 11.0784C2.24504 10.9502 2.12557 10.9246 2.0592 11.0271Z" fill="currentColor"/>
<path d="M7.04964 12.9111C6.58504 13.0778 6.37265 13.0778 6.04079 12.9624C5.11159 12.6419 4.75318 12.9368 5.58946 13.347C6.17353 13.6291 7.28858 13.6162 7.66026 13.3214C7.80628 13.1932 8.57619 13.2445 8.72221 13.3855C8.76203 13.4239 8.92132 13.3983 9.06734 13.3214C9.31955 13.1803 9.30628 13.1675 8.94787 12.9368C8.48327 12.6547 7.8461 12.6419 7.04964 12.9111Z" fill="currentColor"/>
</svg>
