<svg width="15" height="15" viewBox="0 0 15 15" fill="none" xmlns="http://www.w3.org/2000/svg">
<path d="M6.7896 2.12806C3.44046 2.61193 1.63012 4.61193 1.61719 7.82161C1.61719 9.01516 1.65598 9.17645 2.04391 9.95064C3.36288 12.5474 6.06546 13.6281 9.6215 12.999C13.4232 12.3216 15.2465 7.25709 12.8284 4.07967C11.6775 2.56354 9.19477 1.77322 6.7896 2.12806ZM10.087 3.11193C12.0784 3.72483 13.1517 5.07967 13.281 7.11193C13.4491 9.41838 12.2336 11.3216 10.1517 12.0474C9.31115 12.3377 6.86719 12.4506 5.94908 12.241C1.59133 11.2248 0.77667 5.43451 4.73357 3.51515C5.22495 3.28935 5.89736 3.04741 6.2077 2.9829C6.53098 2.91838 6.81546 2.83774 6.85426 2.78935C6.9965 2.61193 9.18184 2.82161 10.087 3.11193Z" fill="currentColor"/>
<path d="M6.0783 5.3869C5.54813 5.74174 4.92744 5.85465 4.72054 5.64497C4.61709 5.53207 4.43606 5.49981 4.31968 5.5482C4.12571 5.64497 4.12571 5.67723 4.33261 5.96755C4.61709 6.37078 5.31537 6.3869 6.15589 6.03207C6.72485 5.79013 6.78951 5.79013 7.4102 6.12884C8.1214 6.51594 8.93606 6.48368 9.38864 6.0482C9.72485 5.72561 9.98347 5.75787 10.63 6.14497C11.2119 6.48368 12.0266 6.35465 11.8326 5.95142C11.7809 5.85465 11.6645 5.82239 11.574 5.87078C11.4835 5.90303 11.1085 5.774 10.7335 5.5482C9.91882 5.08045 9.8283 5.08045 9.22054 5.48368C8.94899 5.6611 8.57399 5.80626 8.36709 5.80626C8.17313 5.80626 7.7852 5.6611 7.50071 5.48368C6.91882 5.11271 6.53089 5.08045 6.0783 5.3869Z" fill="currentColor"/>
<path d="M6.53165 8.72411C5.91096 9.07894 5.56183 9.1112 4.97993 8.80475C4.592 8.59507 4.52734 8.59507 4.52734 8.78862C4.52734 9.46604 5.65234 9.72411 6.66096 9.28862C7.61786 8.86927 7.68252 8.86927 8.30321 9.25636C8.94976 9.65959 9.80321 9.69185 10.3722 9.32088C10.8377 9.01443 10.6696 8.62733 10.1653 8.86927C9.62217 9.12733 9.02734 9.06282 8.56183 8.70798C8.03165 8.30475 7.22993 8.30475 6.53165 8.72411Z" fill="currentColor"/>
</svg>
