<svg width="15" height="15" viewBox="0 0 15 15" fill="none" xmlns="http://www.w3.org/2000/svg">
<path d="M5.14439 1.70384C4.79392 2.13016 4.42943 3.75648 4.26121 5.60384C4.20513 6.1249 4.14906 6.567 4.13504 6.59858C4.107 6.63016 3.9528 6.17227 3.78457 5.57227C3.46214 4.41963 2.8313 3.15648 2.57896 3.15648C2.27055 3.15648 2.27055 3.37753 2.57896 4.08806C3.19579 5.46174 3.39205 6.29858 3.64439 8.55648L3.81261 10.0723L4.37336 10.0565L4.9341 10.0249L5.32663 8.76174C5.76121 7.29332 6.29392 6.07753 6.77055 5.43016C7.52756 4.38806 7.30326 3.96174 6.44812 4.83016C6.09766 5.19332 5.66308 5.91963 5.31261 6.69332L4.75186 7.97227L4.83597 6.867C4.96214 5.43016 4.99018 5.17753 5.32663 3.51963C5.48083 2.76174 5.63504 2.00384 5.66308 1.86174C5.73317 1.49858 5.39672 1.38806 5.14439 1.70384Z" fill="black"/>
<path d="M9.78623 5.05201C9.75819 5.14675 9.78623 5.80991 9.82828 6.52043C9.94043 8.20991 9.87034 8.3678 9.37968 7.49938C9.15538 7.10464 8.91707 6.78885 8.84697 6.78885C8.58062 6.78885 8.53856 7.10464 8.76286 7.56254C8.87501 7.83096 8.97314 8.05201 8.97314 8.08359C8.97314 8.11517 8.30024 8.14675 7.47314 8.17833C5.98716 8.2257 5.62267 8.33622 5.80492 8.6678C5.90305 8.84149 8.58062 8.77833 9.00118 8.60464C9.12735 8.54149 9.26753 8.68359 9.37968 8.95201C9.54791 9.36254 9.57595 9.36254 9.74417 9.10991C9.91239 8.85728 9.92641 8.85728 10.0105 9.09412C10.0806 9.31517 10.1367 9.33096 10.2769 9.17307C10.5012 8.92043 10.4872 5.93622 10.2629 5.32043C10.0946 4.89412 9.87034 4.7678 9.78623 5.05201Z" fill="black"/>
<path d="M11.2286 6.69352C10.8641 7.35667 10.5137 8.44615 10.5137 8.93562C10.5137 9.61457 10.9062 9.34615 11.1585 8.47773C11.2847 8.03562 11.509 7.37246 11.6492 7.0251C12.0417 6.04615 11.7193 5.79352 11.2286 6.69352Z" fill="black"/>
<path d="M1.34603 6.93097C1.30398 6.99413 1.43014 7.26255 1.62641 7.51518C1.82267 7.76781 2.10304 8.16255 2.25725 8.39939L2.53762 8.8415L2.17313 8.99939C1.97687 9.07834 1.76659 9.15729 1.72454 9.15729C1.45818 9.15729 0.701172 10.0099 0.701172 10.3099C0.701172 10.9415 1.41613 11.5257 2.20117 11.5257C2.76192 11.5257 2.98622 11.731 2.87407 12.1415C2.73388 12.6783 3.30865 13.1994 4.21986 13.3257C6.575 13.6573 10.4582 13.3257 11.2572 12.7257C11.7339 12.3626 11.9021 11.8099 11.6358 11.4468C11.4395 11.1783 11.5376 11.1152 12.5189 10.9099C14.0049 10.6099 14.6498 10.0257 14.3834 9.23623C14.1731 8.58887 11.2713 7.83097 11.3694 8.44676C11.4115 8.66781 11.6638 8.79413 12.4068 8.95202C14.0049 9.31518 14.1591 9.80466 12.7853 10.1047C10.9208 10.5152 10.2479 11.0836 10.9208 11.6994C11.2012 11.9678 11.2152 11.9836 10.9769 12.1257C10.2339 12.552 9.07033 12.7099 6.56098 12.6941C3.68715 12.6941 3.39276 12.5994 3.67313 11.9204C3.88341 11.4152 3.63108 11.0836 2.95818 10.9731C1.86472 10.7836 1.37407 10.5626 1.45818 10.3257C1.50024 10.1836 1.54229 10.0573 1.54229 10.0099C1.54229 9.94676 2.50958 9.47308 2.66379 9.47308C2.71986 9.47308 2.83201 9.64676 2.91613 9.86781C3.12641 10.3889 3.50491 10.3889 3.50491 9.86781C3.50491 8.65202 1.72454 6.23623 1.34603 6.93097Z" fill="black"/>
<path d="M7.07967 9.80532C6.88341 10.1369 7.87873 10.6106 8.83201 10.6422C9.63107 10.658 9.75724 10.2158 8.97219 10.1369C8.70584 10.1053 8.28528 9.9948 8.03294 9.86848C7.51425 9.58427 7.20584 9.56848 7.07967 9.80532Z" fill="black"/>
<path d="M5.6227 11.0679C5.07597 11.3047 5.45447 11.5258 6.49186 11.5731C7.29092 11.6047 7.93578 11.3837 7.69746 11.1626C7.54326 11.0047 5.91709 10.9416 5.6227 11.0679Z" fill="black"/>
</svg>
