<svg width="15" height="15" viewBox="0 0 15 15" fill="none" xmlns="http://www.w3.org/2000/svg">
<path d="M5.93737 1.74107C5.51237 2.65179 5.27487 3.68304 5.17487 5.10268C5.12487 5.75893 5.07487 6.28125 5.04987 6.25446C5.03737 6.24107 4.92487 5.78571 4.82487 5.25C4.51237 3.60268 3.63737 1.86161 3.42487 2.45089C3.38737 2.55804 3.44987 2.85268 3.57487 3.10714C4.06237 4.125 4.62487 6.66964 4.62487 7.91518C4.62487 8.74554 4.83737 9.375 5.12487 9.375C5.39987 9.375 5.46237 9.09375 5.56237 7.43304C5.69987 5.31696 5.97487 3.44196 6.29987 2.42411C6.67487 1.27232 6.69987 1.07143 6.43737 1.07143C6.33737 1.07143 6.11237 1.36607 5.93737 1.74107Z" fill="black"/>
<path d="M7.07467 3.63066C6.34967 4.55477 5.93717 5.8137 5.73717 7.70209C5.62467 8.84049 5.62467 9.14852 5.74967 9.30924C6.02467 9.65745 6.22467 9.28245 6.29967 8.22441C6.39967 7.01906 6.64967 6.01459 7.19967 4.54138C7.42467 3.89852 7.62467 3.34941 7.62467 3.29584C7.62467 3.09495 7.37467 3.24227 7.07467 3.63066Z" fill="black"/>
<path d="M2.125 4.67404C2.125 4.7544 2.325 5.15618 2.575 5.55797C2.8125 5.97315 3.2125 6.95083 3.45 7.741C3.9375 9.32136 4.0375 9.52225 4.225 9.16065C4.525 8.55797 3.9125 6.37493 3.15 5.29011C2.7125 4.67404 2.125 4.32583 2.125 4.67404Z" fill="black"/>
<path d="M7.88744 5.69335C6.89994 6.83174 6.14994 9.49692 6.84994 9.3496C6.97494 9.32281 7.11244 9.05496 7.19994 8.65317C7.37494 7.90317 8.03744 6.44335 8.37494 6.05496C8.67494 5.70674 8.87494 5.27817 8.78744 5.17103C8.61244 4.98353 8.38744 5.11746 7.88744 5.69335Z" fill="black"/>
<path d="M10.3631 5.45099C10.3381 6.60277 10.4006 9.45545 10.4631 9.56259C10.8006 10.1385 11.0131 7.47331 10.7756 5.77242C10.6756 5.08938 10.3756 4.8617 10.3631 5.45099Z" fill="black"/>
<path d="M9.56352 7.15165C9.67602 8.70523 9.78852 9.33469 9.93852 9.24094C10.1135 9.14719 10.0635 6.52219 9.88852 6.17397C9.57602 5.5579 9.47602 5.87933 9.56352 7.15165Z" fill="black"/>
<path d="M11.5247 6.65701C11.1622 7.56773 11.0372 8.15701 11.0497 8.82666C11.0622 9.50969 11.3247 9.72398 11.4372 9.14809C11.4747 8.94719 11.6247 8.29094 11.7747 7.70166C12.1747 6.02755 12.1747 6.02755 11.9622 6.02755C11.8622 6.02755 11.6622 6.3088 11.5247 6.65701Z" fill="black"/>
<path d="M12.5389 7.05852C11.9139 7.91566 11.5514 9.22816 11.8764 9.44245C11.9389 9.48263 12.0639 9.3487 12.1514 9.14781C12.2389 8.94691 12.3139 8.75941 12.3139 8.74602C12.3264 8.71924 12.5764 8.82638 12.8639 8.98709C13.7514 9.44245 13.4514 9.79066 11.8139 10.1389C11.2389 10.2594 11.1514 10.5005 11.6639 10.5541C11.8514 10.5808 12.0514 10.7148 12.1264 10.8487C12.5139 11.6255 11.3639 12.0273 9.60144 11.7192C9.21394 11.6523 8.80144 11.6791 8.43894 11.7862C7.98894 11.9201 7.72644 11.9201 7.13894 11.7862C6.51394 11.6523 6.28894 11.6523 5.57644 11.8398C4.82644 12.0407 4.72644 12.0407 4.37644 11.8532C4.16394 11.7326 3.93894 11.6791 3.87644 11.7192C3.40144 12.0407 4.31394 12.5094 5.17644 12.3889C5.52644 12.3487 6.11394 12.3085 6.47644 12.3085C7.85144 12.3219 8.52644 12.3085 9.22644 12.2817C9.61394 12.2683 10.1264 12.3085 10.3639 12.3621C11.4889 12.6299 12.8014 11.8933 12.7264 11.0362C12.6889 10.5808 12.7139 10.5407 13.2389 10.3264C13.8764 10.0719 14.0639 9.81745 13.9639 9.3487C13.8764 8.9737 12.8639 8.35763 12.5514 8.49156C12.3139 8.58531 12.3264 8.53174 12.7139 7.72816C13.2264 6.68352 13.2639 6.56298 13.0764 6.56298C12.9764 6.56298 12.7389 6.79066 12.5389 7.05852Z" fill="black"/>
<path d="M8.67608 7.39303C8.92608 8.37071 8.96358 8.30375 8.30108 8.30375C7.63858 8.30375 7.30108 8.45107 7.42608 8.67875C7.47608 8.7725 7.77608 8.79928 8.23858 8.74571C8.90108 8.67875 8.98858 8.70553 9.11358 8.96C9.52608 9.77696 9.65108 8.59839 9.25108 7.66089C8.98858 7.05821 8.52608 6.83053 8.67608 7.39303Z" fill="black"/>
<path d="M2.45051 8.49247C1.66301 8.67997 1.53801 8.97461 2.23801 8.97461C2.80051 8.97461 3.40051 8.73354 3.33801 8.51925C3.27551 8.31836 3.12551 8.31836 2.45051 8.49247Z" fill="black"/>
<path d="M2.75098 10.2857C2.31348 10.6607 2.52598 10.8482 3.13848 10.6339C3.60098 10.4598 3.68848 10.4598 4.21348 10.7143C4.90098 11.0357 5.35098 11.0491 5.92598 10.7545C6.33848 10.5536 6.41348 10.5536 7.03848 10.7812C7.68848 11.0089 7.73848 11.0089 8.33848 10.7812C8.91348 10.567 8.97598 10.567 9.35098 10.7678C9.81348 11.0223 10.501 11.0491 10.501 10.808C10.501 10.7277 10.1385 10.5268 9.70098 10.3661C8.97598 10.1116 8.87598 10.0982 8.30098 10.2857C7.75098 10.4598 7.62598 10.4464 7.10098 10.2455C6.51348 10.0178 5.83848 10.058 5.68848 10.3259C5.57598 10.5134 4.72598 10.4598 4.37598 10.2455C3.92598 9.96428 3.08848 9.99106 2.75098 10.2857Z" fill="black"/>
</svg>
