<svg width="15" height="15" viewBox="0 0 15 15" fill="none" xmlns="http://www.w3.org/2000/svg">
<path d="M6.73105 1.91362C4.949 2.55647 4.5772 2.99933 3.83361 5.28504C3.47464 6.44219 3.39772 6.55647 2.949 6.78504C2.26951 7.1279 1.87207 7.6279 1.43618 8.71362C0.948997 9.88504 0.846433 10.7422 1.1413 11.1136C1.65413 11.7708 4.03874 12.285 6.59002 12.285C8.12849 12.285 8.26951 12.3136 8.56438 12.5993C9.16695 13.2422 12.8849 13.0565 13.8721 12.3565C15.0003 11.5279 14.5772 9.34219 13.1413 8.58504C12.7567 8.38504 12.5644 8.19933 12.5644 8.01362C12.5644 7.6279 11.8593 4.99933 11.6413 4.57076C10.7952 2.91362 9.98746 2.05647 8.91054 1.7279C8.17977 1.49933 7.74387 1.54219 6.73105 1.91362ZM8.8849 2.34219C9.70541 2.67076 10.3464 3.27076 10.8208 4.15647C11.308 5.07076 11.8849 6.9279 11.949 7.79933C11.9875 8.34219 11.9875 8.34219 11.4234 8.45647C10.2952 8.67076 8.67977 10.1279 8.5131 11.0708C8.43618 11.5279 8.39772 11.5708 7.84643 11.6565C6.26951 11.9136 2.17977 11.385 1.59002 10.8565C1.16695 10.4565 2.02592 8.05647 2.82079 7.45647C3.38489 7.04219 3.38489 7.04219 3.5772 7.84219C3.73105 8.51362 4.3849 9.44219 4.5772 9.24219C4.61566 9.18504 4.50028 8.79933 4.32079 8.38504C3.84643 7.37076 3.87207 6.69933 4.43618 5.09933C5.00028 3.47076 5.41054 2.98504 6.60284 2.51362C7.61566 2.11362 8.17977 2.07076 8.8849 2.34219ZM12.8593 9.15647C13.4875 9.34219 13.8464 9.97076 13.8464 10.885C13.8464 11.6279 13.6413 11.8708 12.808 12.1422C12.2439 12.3279 9.10284 12.3422 8.93618 12.1565C8.67977 11.8708 9.20541 10.6422 9.87207 10.0136C10.9234 9.0279 11.7182 8.79933 12.8593 9.15647Z" fill="currentColor"/>
<path d="M9.39745 4.08565C9.16668 4.28565 8.61539 4.6285 8.1795 4.84279C6.97437 5.45707 6.89745 5.58565 6.76924 7.45708C6.70514 8.41422 6.70514 9.09993 6.78206 9.18565C6.96155 9.38565 7.1795 8.45708 7.2436 7.29993C7.28206 6.29993 7.53847 5.57136 7.83334 5.57136C8.35898 5.57136 10 4.29993 10 3.89993C10 3.6285 9.85898 3.67136 9.39745 4.08565Z" fill="currentColor"/>
</svg>
