<svg width="15" height="15" viewBox="0 0 15 15" fill="none" xmlns="http://www.w3.org/2000/svg">
<path d="M6.04858 1.89708C4.15258 2.76029 3.01258 4.07633 2.70058 5.78859C2.65258 6.05746 2.41258 6.52444 2.16058 6.84991C1.44058 7.78387 1.28458 8.26501 1.22458 9.72255C1.16458 11.3075 1.27258 11.5622 2.16058 11.9443C2.84458 12.2273 4.57258 12.199 4.65658 11.8876C5.01658 10.6424 9.24058 10.5575 9.24058 11.8027C9.24058 12.3546 10.1886 12.5527 11.6646 12.3405C12.7566 12.1707 13.4406 11.8169 13.6566 11.2933C13.8966 10.699 13.6686 9.21312 13.2126 8.46312C12.9606 8.02444 12.8286 7.61406 12.7806 7.00557C12.6486 5.73199 12.3606 5.06689 11.7246 4.58576C11.4006 4.35935 11.1006 3.99142 11.0166 3.75086C10.3566 1.85463 8.04058 1.00557 6.04858 1.89708ZM9.31258 2.51972C9.82858 2.83104 10.2366 3.32633 10.5846 4.07633C10.6926 4.31689 11.0526 4.74142 11.3766 5.02444C11.9526 5.50557 12.0606 5.71784 12.1926 6.6518C12.3846 7.92538 12.5166 8.49142 12.6846 8.66123C12.9726 8.94425 13.2006 9.6801 13.2006 10.3593C13.2006 11.3075 12.9846 11.5197 11.8206 11.6754C11.4246 11.732 10.9926 11.8027 10.8606 11.831C10.7286 11.8593 10.4406 11.8452 10.2366 11.8027L9.85258 11.7178V10.3452C9.85258 6.55274 8.43658 4.59991 6.27658 5.39236C5.24458 5.77444 4.45258 7.72727 4.26058 10.3593C4.16458 11.6046 4.11658 11.6471 3.02458 11.4631C1.82458 11.265 1.68058 11.1235 1.68058 10.1895C1.68058 9.00086 1.96858 8.02444 2.55658 7.24614C2.90458 6.79331 3.13258 6.29803 3.28858 5.68953C3.81658 3.58104 5.77258 2.08104 7.86058 2.16595C8.54458 2.2084 8.96458 2.30746 9.31258 2.51972Z" fill="currentColor"/>
<path d="M5.31592 12.8205C4.95592 13.0045 5.20792 13.1602 5.83192 13.1602C6.31192 13.1602 6.49192 13.1036 6.45592 12.9762C6.39592 12.8064 5.57992 12.6932 5.31592 12.8205Z" fill="currentColor"/>
<path d="M7.95589 13.2595C7.63189 13.401 7.82389 13.5991 8.24389 13.5567C8.77189 13.5001 8.95189 13.1604 8.43589 13.1746C8.25589 13.1746 8.02789 13.217 7.95589 13.2595Z" fill="currentColor"/>
</svg>
