<svg width="15" height="15" viewBox="0 0 15 15" fill="none" xmlns="http://www.w3.org/2000/svg">
<path d="M7.1001 1.28388C7.08899 1.34388 7.08899 1.42788 7.1001 1.47588C7.11121 1.53588 7.06677 1.54788 7.0001 1.49988C6.83343 1.39188 6.55566 1.66788 6.55566 1.93188C6.55566 2.06388 6.47788 2.15988 6.38899 2.15988C6.3001 2.15988 6.22232 2.20788 6.22232 2.27988C6.22232 2.33988 6.15566 2.39988 6.06677 2.39988C5.86677 2.39988 4.68899 3.15588 4.35566 3.47988C4.22232 3.61188 4.06677 3.71988 4.01121 3.71988C3.94455 3.71988 3.62232 4.01988 3.28899 4.37988C2.95566 4.73988 2.63343 5.03988 2.57788 5.03988C2.37788 5.03988 1.56677 6.44388 1.35566 7.16388C1.02232 8.27988 1.07788 9.93588 1.48899 10.8479C1.85566 11.6639 2.41121 12.3959 2.58899 12.2759C2.64455 12.2399 2.66677 12.2639 2.63343 12.3239C2.51121 12.5399 4.47788 13.8119 4.64455 13.6199C4.67788 13.5839 4.77788 13.6319 4.86677 13.7039C5.06677 13.8959 5.33343 13.9319 5.33343 13.7759C5.33343 13.7159 5.41121 13.7519 5.51121 13.8479C5.6001 13.9559 5.73343 14.0159 5.78899 13.9799C5.84455 13.9319 5.95566 13.9439 6.03343 14.0039C6.1001 14.0519 6.38899 14.1119 6.65566 14.1239C6.92232 14.1359 7.33343 14.1719 7.56677 14.1959C7.81121 14.2199 8.0001 14.1959 8.0001 14.1359C8.0001 14.0759 8.05566 14.0639 8.11121 14.0999C8.17788 14.1479 8.31121 14.1119 8.41121 14.0159C8.54455 13.9079 8.57788 13.9079 8.51121 14.0159C8.41121 14.2079 8.57788 14.2079 8.76677 14.0159C8.86677 13.9199 8.9001 13.9079 8.84455 14.0039C8.77788 14.1479 9.58899 13.9439 10.3334 13.6439C10.5445 13.5479 10.889 13.4039 11.089 13.3319C11.2779 13.2479 11.4445 13.1279 11.4445 13.0679C11.4445 13.0079 11.6445 12.8519 11.8779 12.7199C12.3557 12.4559 12.7001 12.0359 12.589 11.8319C12.5557 11.7599 12.5668 11.7359 12.6112 11.7959C12.7557 11.9279 13.1001 11.5199 13.0334 11.3039C12.989 11.1959 13.0112 11.1479 13.0779 11.1959C13.189 11.2679 13.4334 10.7999 13.4557 10.4999C13.4557 10.4279 13.5112 10.3079 13.5779 10.2359C13.7557 10.0079 13.8557 8.14788 13.7223 7.46388C13.5779 6.62388 13.3334 5.98788 13.2001 6.07188C13.1445 6.10788 13.1112 6.05988 13.1334 5.96388C13.189 5.66388 12.689 4.89588 12.089 4.37988C11.789 4.11588 11.4112 3.77988 11.2557 3.63588C11.1001 3.49188 10.689 3.22788 10.3445 3.04788C9.42232 2.55588 8.3001 1.73988 8.13343 1.45188C8.0001 1.19988 7.13343 1.06788 7.1001 1.28388ZM8.1001 2.48388C8.24455 2.63988 8.42232 2.75988 8.5001 2.75988C8.56677 2.75988 8.72232 2.86788 8.84455 3.01188C8.95566 3.14388 9.13343 3.22788 9.23343 3.20388C9.33343 3.17988 9.46677 3.25188 9.53343 3.37188C9.67788 3.61188 10.3334 4.01988 10.3334 3.87588C10.3334 3.81588 10.3779 3.85188 10.4334 3.93588C10.4779 4.01988 10.589 4.10388 10.6779 4.12788C10.7668 4.13988 11.0557 4.39188 11.3334 4.67988C11.6001 4.97988 11.8668 5.20788 11.9112 5.18388C11.9557 5.17188 12.0001 5.20788 12.0001 5.25588C12.0001 5.31588 12.1223 5.51988 12.2779 5.71188C12.8445 6.41988 13.3334 8.63988 13.0779 9.35988C12.8668 9.94788 12.7779 10.4519 12.8445 10.5719C12.889 10.6679 12.8779 10.6799 12.8001 10.6319C12.7223 10.5839 12.6668 10.5959 12.6668 10.6559C12.6668 10.7159 12.5334 10.9199 12.3779 11.0999C12.1334 11.3879 12.0557 11.4239 11.8668 11.2919C11.7557 11.2199 11.6001 11.1839 11.5334 11.2319C11.4668 11.2799 11.4445 11.2679 11.4779 11.1959C11.5223 11.1239 11.4223 11.0279 11.2445 10.9679C10.8668 10.8599 10.8668 10.8599 10.6557 10.7519C10.5668 10.7039 10.2445 10.6559 9.96677 10.6439C9.67788 10.6319 9.44455 10.5839 9.44455 10.5359C9.44455 10.4519 9.44455 10.4519 8.25566 10.4039C7.81121 10.3919 7.44455 10.3439 7.44455 10.3079C7.44455 10.2719 7.25566 10.2479 7.03343 10.2839C6.8001 10.3079 6.31121 10.3439 5.94455 10.3799C5.05566 10.4519 4.54455 10.5719 4.61121 10.6799C4.63343 10.7279 4.54455 10.7399 4.41121 10.7159C4.05566 10.6439 2.82232 11.1959 2.86677 11.4119C2.91121 11.6759 2.44455 11.0279 2.16677 10.4399C2.02232 10.1399 1.91121 9.87588 1.92232 9.83988C1.92232 9.80388 1.88899 9.57588 1.84455 9.32388C1.75566 8.80788 1.97788 7.07988 2.12232 7.07988C2.17788 7.07988 2.22232 7.00788 2.22232 6.91188C2.22232 6.71988 3.06677 5.51988 3.3001 5.36388C3.37788 5.30388 3.66677 5.05188 3.92232 4.78788C4.17788 4.53588 4.42232 4.31988 4.46677 4.31988C4.51121 4.31988 4.67788 4.17588 4.84455 3.99588C5.01121 3.81588 5.21121 3.65988 5.26677 3.65988C5.4001 3.65988 6.2001 3.11988 6.53343 2.81988C7.37788 2.03988 7.63343 1.99188 8.1001 2.48388ZM9.52232 11.3519C10.1223 11.5199 10.7001 11.6639 10.8112 11.6759C10.9112 11.6879 11.0001 11.7359 11.0001 11.7959C11.0001 11.8439 11.0334 11.8679 11.089 11.8319C11.1334 11.8079 11.2557 11.8559 11.3668 11.9399C11.6445 12.1559 11.5001 12.4919 11.1557 12.4319C10.9779 12.3959 10.889 12.4319 10.889 12.5399C10.889 12.6359 10.8334 12.7439 10.7557 12.7919C10.6779 12.8519 10.6668 12.8159 10.7223 12.7079C10.789 12.5759 10.7779 12.5639 10.6557 12.6959C10.5779 12.7679 10.4001 12.8399 10.2668 12.8399C10.1223 12.8399 9.98899 12.8879 9.94455 12.9479C9.91121 13.0199 9.8001 13.0679 9.68899 13.0679C9.58899 13.0679 9.3001 13.1159 9.05566 13.1879C8.53343 13.3319 7.18899 13.3679 6.38899 13.2479C6.08899 13.2119 5.74455 13.1759 5.64455 13.1759C5.53343 13.1879 5.42232 13.1399 5.38899 13.0679C5.34455 13.0079 5.22232 12.9599 5.08899 12.9599C4.86677 12.9599 3.6001 12.3239 3.4001 12.1079C3.24455 11.9519 3.31121 11.9159 4.23343 11.5679C5.86677 10.9559 7.78899 10.8719 9.52232 11.3519Z" fill="black"/>
<path d="M7.6891 4.18752C7.83354 4.45152 8.30021 4.75152 8.3891 4.65552C8.51132 4.53552 8.32243 4.25952 8.03354 4.10352C7.62243 3.89952 7.53354 3.92352 7.6891 4.18752Z" fill="black"/>
<path d="M4.37771 6.03629C4.25548 6.18029 4.09993 6.43229 4.03326 6.60029C3.74437 7.30829 3.55549 7.94429 3.61104 8.04029C3.64437 8.10029 3.62215 8.17229 3.57771 8.20829C3.43326 8.30429 3.54437 9.27629 3.73326 9.48029C3.85549 9.62429 3.91104 9.62429 4.02215 9.49229C4.12215 9.38429 4.12215 9.31229 4.05549 9.28829C3.78882 9.18029 3.97771 7.57229 4.34437 6.70829C4.72215 5.82029 4.73326 5.59229 4.37771 6.03629Z" fill="black"/>
<path d="M7.36591 12.2047C7.16591 12.2887 7.18814 12.7207 7.38814 12.7207C7.58814 12.7207 7.73258 12.3847 7.59925 12.2527C7.54369 12.1927 7.43258 12.1807 7.36591 12.2047Z" fill="black"/>
</svg>
