<svg width="15" height="15" viewBox="0 0 15 15" fill="none" xmlns="http://www.w3.org/2000/svg">
<path d="M10.5742 1.10952C9.62745 1.34998 9.02499 1.9225 8.88975 2.68967C8.85286 2.94158 8.72991 3.10189 8.53319 3.19349C7.86926 3.4683 7.59876 4.26983 7.93073 4.9912C8.09057 5.35761 8.09057 5.42632 7.93073 5.64387C7.5127 6.20494 7.83237 7.30418 8.47172 7.49883C8.60696 7.53319 8.74221 7.68204 8.77909 7.84235C8.86516 8.16296 9.60286 8.60952 10.0455 8.60952H10.3529L10.2668 9.74311L10.1807 10.8767L10.525 10.9912C11.0291 11.1744 11.1029 11.0141 11.0414 9.80036C10.9922 8.75838 11.0045 8.70112 11.2504 8.70112C11.7176 8.68967 12.5414 8.26601 12.6889 7.93395C12.775 7.76219 13.0578 7.43013 13.316 7.20112C13.5619 6.97212 13.7709 6.69731 13.7832 6.57135C13.7832 6.45685 13.8078 6.26219 13.8324 6.14769C13.857 6.04464 13.7463 5.72403 13.5865 5.46067C13.3406 5.0141 13.3283 4.9454 13.4881 4.73929C13.8078 4.34998 13.6356 3.45685 13.1684 3.06754C12.9594 2.89578 12.7012 2.74693 12.6029 2.74693C12.5045 2.74693 12.4184 2.66677 12.4184 2.57517C12.4184 2.26601 11.9389 1.49884 11.6684 1.36143C11.275 1.16677 10.7832 1.05227 10.5742 1.10952ZM11.3856 1.86525C11.6193 2.0599 11.7422 2.28891 11.7914 2.64387C11.8529 3.03319 11.9266 3.14769 12.1111 3.18204C13.1316 3.3309 13.3406 3.91487 12.7258 4.91105C12.5783 5.16296 12.5906 5.20876 12.9225 5.50647C13.4881 5.99883 13.3406 6.67441 12.5783 7.09807C12.3447 7.22403 12.1848 7.37288 12.2217 7.43013C12.357 7.62479 11.8652 8.02555 11.4102 8.09425C10.9676 8.15151 10.943 8.14006 10.943 7.86525C10.943 7.70494 11.0168 7.52174 11.1152 7.47593C11.3242 7.37288 11.9266 6.4225 11.9266 6.20494C11.9266 5.89578 11.5701 6.09044 11.2381 6.59425L10.8816 7.12097L10.8201 5.81563C10.7709 4.76219 10.7217 4.52174 10.5742 4.52174C10.4389 4.52174 10.3775 4.68204 10.3529 5.14006L10.316 5.75838L9.97172 5.44922C9.7504 5.25456 9.59057 5.17441 9.54139 5.25456C9.43073 5.40341 9.72581 5.94158 10.0701 6.22784C10.4143 6.5141 10.4635 8.12861 10.1316 8.12861C9.82417 8.12861 9.22172 7.67059 9.22172 7.44158C9.22172 7.31563 9.07417 7.15532 8.88975 7.07517C8.27499 6.80036 8.15204 6.4225 8.48401 5.78128C8.7545 5.26601 8.7545 5.22021 8.55778 4.9225C8.17663 4.30418 8.37336 3.73166 9.03729 3.57135C9.36926 3.47975 9.40614 3.43395 9.41844 2.99883C9.43073 1.91105 10.6111 1.24693 11.3856 1.86525Z" fill="black"/>
<path d="M4.09513 1.33886C3.51726 1.63657 2.97627 2.40375 3.05005 2.80451C3.06234 2.86176 2.85332 2.99917 2.59513 3.10222C1.73447 3.44573 1.37791 4.41901 1.85742 5.14039C2.07873 5.4839 2.09103 5.54115 1.9189 5.71291C1.19349 6.45718 2.25086 7.89993 3.51726 7.89993H3.97218L3.89841 9.20527C3.80005 10.6824 3.89841 11.0831 4.31644 11.0488C4.72218 11.0259 4.82054 10.5679 4.73447 9.20527L4.673 8.04879L5.34923 7.99153C6.07464 7.93428 6.50496 7.71672 6.923 7.19001C7.19349 6.85795 7.23037 6.03352 6.99677 5.77016C6.88611 5.6442 6.89841 5.51825 7.07054 5.19764C7.37791 4.57932 7.26726 3.85795 6.77546 3.38848C6.54185 3.17092 6.36972 2.86176 6.32054 2.5755C6.12382 1.39611 5.09103 0.835045 4.09513 1.33886ZM5.07873 1.72817C5.48447 1.89993 5.77955 2.4152 5.77955 2.96482C5.77955 3.36558 5.82873 3.45718 6.07464 3.54879C6.6648 3.75489 6.83693 4.64802 6.39431 5.18619C6.25906 5.3465 6.14841 5.5068 6.14841 5.5526C6.14841 5.5984 6.25906 5.75871 6.39431 5.91901C6.99677 6.62894 6.39431 7.40756 5.18939 7.49917C4.6607 7.54497 4.55005 7.29306 4.9066 6.8923C5.33693 6.37703 5.55824 5.94191 5.47218 5.74726C5.4107 5.58695 5.33693 5.6213 5.04185 5.95337L4.68529 6.35413L4.673 5.47245C4.673 4.95718 4.61152 4.55642 4.53775 4.51062C4.34103 4.40756 4.18119 4.68237 4.18119 5.14039V5.54115L3.83693 5.23199C3.20988 4.67092 3.09923 5.06024 3.68939 5.79306C4.19349 6.42283 4.23037 7.44191 3.75086 7.44191C2.58283 7.44191 1.94349 6.59459 2.50906 5.81596L2.81644 5.3923L2.49677 5.08314C1.9189 4.49917 2.32464 3.50298 3.19759 3.41138C3.45578 3.37703 3.51726 3.29688 3.56644 2.91901C3.64021 2.3923 3.923 1.96863 4.32873 1.75108C4.68529 1.57932 4.72218 1.57932 5.07873 1.72817Z" fill="black"/>
<path d="M8.17659 8.90892C7.46347 8.97762 6.16019 9.51579 5.84052 9.87075C5.42249 10.3288 5.44708 10.6036 5.98806 11.0616C6.55364 11.5425 6.46757 11.6685 5.07823 12.2753C4.03315 12.7333 3.81183 12.9395 4.37741 12.9395C5.18888 12.9395 6.652 12.1265 6.87331 11.554C6.99626 11.2219 6.97167 11.1646 6.56593 10.8097C6.28315 10.5807 6.1479 10.3746 6.18478 10.2601C6.27085 10.054 7.18069 9.61884 8.09052 9.34403C8.92659 9.08067 8.97577 8.81732 8.17659 8.90892Z" fill="black"/>
<path d="M8.98787 9.50359C7.81984 10.099 7.70918 10.5685 8.60672 11.1753C9.38131 11.6906 9.4182 11.9769 8.72967 12.4921C8.45918 12.6982 8.27476 12.9044 8.31164 12.9502C8.58213 13.3509 9.6764 12.5608 9.79935 11.8853C9.87312 11.4387 9.71328 11.2211 8.9141 10.683L8.54525 10.4425L9.07394 9.97306C9.36902 9.72115 9.57803 9.45779 9.52885 9.40054C9.49197 9.33184 9.44279 9.28603 9.43049 9.28603C9.4182 9.29748 9.22148 9.40054 8.98787 9.50359Z" fill="black"/>
<path d="M11.6942 10.5335C11.4237 10.9915 11.3745 11.7816 11.6204 11.6899C11.7311 11.6441 12.2967 10.3961 12.2967 10.1785C12.2967 9.91514 11.9401 10.1212 11.6942 10.5335Z" fill="black"/>
<path d="M2.75579 10.923C2.65743 11.152 2.86644 12.0565 3.02628 12.1023C3.2353 12.171 3.32136 11.7245 3.18612 11.2779C3.05087 10.8314 2.86644 10.671 2.75579 10.923Z" fill="black"/>
<path d="M12.3701 11.0146C12.1119 11.4039 12.0259 11.7588 12.1611 11.8505C12.3087 11.9306 12.948 11.026 12.8496 10.8772C12.7267 10.694 12.5546 10.7512 12.3701 11.0146Z" fill="black"/>
<path d="M3.61539 11.3924C3.51702 11.61 3.65227 12.1367 3.81211 12.1367C3.97194 12.1367 4.0826 11.7131 3.99653 11.4497C3.89817 11.1749 3.71375 11.152 3.61539 11.3924Z" fill="black"/>
<path d="M1.96875 11.4502C1.96875 11.6563 2.25154 12.1258 2.41137 12.1831C2.69416 12.2861 2.73105 12.0456 2.49744 11.6792C2.30072 11.3586 1.96875 11.2098 1.96875 11.4502Z" fill="black"/>
</svg>
