<svg width="15" height="15" viewBox="0 0 15 15" fill="none" xmlns="http://www.w3.org/2000/svg">
<path d="M9.02662 1.67483C8.33636 1.86415 6.42485 2.35929 4.79211 2.76706C3.15936 3.17483 1.71246 3.56803 1.57972 3.64085C0.889453 4.04862 1.28768 5.18454 2.07087 5.02434L2.5222 4.93696V6.23308V7.54376L1.88503 7.90784C1.32751 8.22823 1.26113 8.31561 1.26113 8.7525C1.26113 9.21852 1.32751 9.29133 2.25671 9.85929C2.80096 10.1942 4.07529 11.0389 5.07087 11.7525C6.99565 13.1069 7.23459 13.2379 7.47352 12.9758C7.57972 12.8593 7.55317 12.7574 7.35405 12.6117C7.11512 12.4224 7.07529 12.1748 7.14167 11.3447C7.16821 11.1408 9.14609 9.99036 9.69034 9.87386C9.80981 9.84473 10.3806 10.0777 10.9779 10.3836L12.0399 10.937L13.0222 10.6748C13.7656 10.4709 14.0178 10.3544 14.0443 10.136C14.0974 9.88842 14.031 9.87386 13.4337 9.94667L12.77 10.0341L12.7965 9.36415C12.8098 8.69425 12.8098 8.69425 13.4337 8.49036C14.1372 8.27192 14.3629 7.83502 14.0841 7.19425C13.9647 6.87386 13.8718 6.84473 13.4868 6.90298C12.9824 6.99036 12.7302 6.78648 12.8098 6.33502C12.8364 6.17483 12.8629 5.67968 12.8629 5.22823L12.8762 4.41269L13.4868 4.22337C14.2036 4.00493 14.4691 3.56803 14.2302 2.98551C14.031 2.50493 13.9249 2.51949 11.8142 3.20396C9.69034 3.90298 9.82308 3.88842 9.82308 3.36415C9.82308 3.00007 9.88945 2.92726 10.301 2.81075C10.9249 2.65056 11.124 2.34473 10.9381 1.79133C10.7788 1.26706 10.5532 1.2525 9.02662 1.67483ZM10.4868 2.02434C10.4868 2.15541 10.2346 2.28648 9.73016 2.40298C9.59742 2.43211 7.79211 2.91269 5.72131 3.48065C3.65051 4.03405 1.8983 4.47095 1.83193 4.42726C1.65936 4.31075 1.81866 4.12143 2.15051 4.03405C2.8806 3.85929 7.24786 2.72337 8.69476 2.34473C10.593 1.83502 10.4868 1.86415 10.4868 2.02434ZM9.29211 3.53891C9.29211 3.99036 9.23901 4.04862 8.77441 4.19425C8.01777 4.45638 7.93813 4.42726 7.99122 3.90298C8.03105 3.48065 8.09742 3.4224 8.62839 3.26221C8.96025 3.16027 9.23901 3.08745 9.26556 3.07289C9.27883 3.05832 9.29211 3.27677 9.29211 3.53891ZM13.6461 3.37871C13.5797 3.56803 13.3939 3.62629 8.69476 5.22823C5.40273 6.34959 5.30981 6.36415 5.30981 6.04376C5.30981 5.92726 5.53547 5.76706 5.8806 5.67968C7.40715 5.24279 10.301 4.32531 12.4116 3.59716C13.6992 3.16027 13.7125 3.16027 13.6461 3.37871ZM7.4337 4.06318C7.4337 4.55832 7.39388 4.60201 6.57087 4.86415L5.97352 5.06803V4.51463C5.97352 3.99036 6.00007 3.96124 6.54432 3.83017C7.40715 3.59716 7.4337 3.59716 7.4337 4.06318ZM5.30981 4.71852C5.30981 5.09716 5.24343 5.24279 5.04432 5.31561C4.83193 5.38842 4.77883 5.53405 4.77883 5.98551C4.77883 6.49522 4.73901 6.56803 4.28768 6.77192C3.13282 7.29619 3.15936 7.32531 3.21246 5.95638L3.25228 4.74764L4.11512 4.50007C5.30981 4.15056 5.30981 4.15056 5.30981 4.71852ZM12.2125 5.51949V6.39328L11.3231 5.94182C10.0886 5.34473 10.0886 5.33017 11.1771 4.98065C11.708 4.82046 12.1594 4.67483 12.1859 4.67483C12.1992 4.66027 12.2125 5.05347 12.2125 5.51949ZM10.9779 6.33502C11.7213 6.71366 12.3054 7.07774 12.2788 7.13599C12.0797 7.48551 11.4691 7.33988 10.1417 6.64085C8.84078 5.92726 8.76113 5.869 9.05317 5.72337C9.41158 5.51949 9.29211 5.4758 10.9779 6.33502ZM9.53105 6.85929L10.9514 7.60201L10.4868 7.79133C10.0487 7.95153 9.94255 7.9224 8.60184 7.22337C7.15494 6.46609 6.99565 6.33502 7.40715 6.21852C7.91158 6.07289 8.17706 6.1457 9.53105 6.85929ZM6.37175 6.99036C6.37175 7.32531 6.21246 7.35444 5.80096 7.10687C5.5222 6.94667 5.5222 6.94667 5.77441 6.83017C6.21246 6.64085 6.37175 6.68454 6.37175 6.99036ZM8.25671 7.58745C9.05317 8.02434 9.27883 8.21366 9.14609 8.31561C8.85405 8.51949 8.58857 8.4758 7.79211 8.09716C7.07529 7.73308 6.88945 7.5292 7.00892 7.16512C7.08857 6.93211 7.03547 6.91755 8.25671 7.58745ZM6.01335 7.71852C6.25228 7.84959 6.37175 8.02434 6.37175 8.25735C6.37175 8.67968 6.42485 8.69425 5.08414 8.05347L3.95582 7.51463L4.39388 7.33988C4.85848 7.16512 4.99122 7.19425 6.01335 7.71852ZM13.5399 7.68939C13.5399 7.76221 12.9558 7.99522 12.2523 8.21366C10.4735 8.78162 8.56202 9.62629 6.94255 10.5583C5.68149 11.2865 4.96467 11.4467 5.80096 10.8059C7.4337 9.5826 13.5399 7.10687 13.5399 7.68939ZM4.9514 8.54862C6.02662 9.05832 6.37175 9.29133 6.37175 9.49522C6.37175 10.0486 5.94697 9.96124 4.46025 9.10201C2.72131 8.09716 2.81423 8.16997 3.05317 8.00978C3.35848 7.79133 3.42485 7.82046 4.9514 8.54862ZM7.50007 8.50493C7.75228 8.62143 7.96467 8.76706 7.96467 8.81075C7.96467 8.88357 7.26113 9.20396 7.03547 9.23308C6.99565 9.24764 6.95582 9.0292 6.94255 8.76706C6.916 8.22823 6.90273 8.24279 7.50007 8.50493ZM3.87618 9.34959C5.45582 10.2525 5.4691 10.2525 5.16379 10.5001C4.87175 10.7331 4.83193 10.7331 4.50007 10.4709C4.30096 10.3253 4.11512 10.1942 4.08857 10.1942C4.04874 10.1942 3.5045 9.87386 2.86733 9.48065C1.85848 8.869 1.73901 8.7525 1.9514 8.60687C2.08414 8.51949 2.21689 8.44667 2.24343 8.44667C2.26998 8.44667 3.00007 8.85444 3.87618 9.34959ZM12.2125 9.53891C12.2125 9.90298 12.1461 10.1942 12.0797 10.1942C11.8673 10.1942 10.7523 9.59716 10.7523 9.48065C10.7523 9.39328 11.801 8.94182 12.1195 8.89813C12.1726 8.88357 12.2125 9.17483 12.2125 9.53891Z" fill="black"/>
<path d="M1.48726 11.1709C1.2085 11.2874 1.44744 11.5059 1.87222 11.5059C2.12443 11.5059 2.25717 11.433 2.25717 11.2874C2.25717 11.069 1.84567 11.0107 1.48726 11.1709Z" fill="black"/>
<path d="M8.65408 11.621C8.16293 11.7812 8.25585 12.0142 8.82665 12.1016C9.11868 12.1453 9.49036 12.2618 9.66293 12.3638C9.8355 12.4657 10.0612 12.5094 10.1541 12.4657C10.247 12.4366 10.6452 12.4948 11.0435 12.5968C11.7736 12.8152 12.2647 12.7715 12.1718 12.4803C12.1452 12.3783 11.9196 12.2764 11.6674 12.2181C11.4151 12.1744 11.1364 12.0871 11.0302 12.0288C10.9373 11.9706 10.6585 11.9123 10.4063 11.9123C10.1408 11.9123 9.76913 11.8249 9.58328 11.7084C9.19833 11.49 9.11868 11.49 8.65408 11.621Z" fill="black"/>
<path d="M2.7213 12.5103C2.6151 12.7287 3.03988 12.9181 3.71687 12.9763C4.39386 13.0346 4.59298 12.8307 4.10183 12.5686C3.71687 12.3501 2.84077 12.321 2.7213 12.5103Z" fill="black"/>
</svg>
