<svg width="15" height="15" viewBox="0 0 15 15" fill="none" xmlns="http://www.w3.org/2000/svg">
<path d="M11.5983 1.80254C11.3666 1.96212 11.1227 2.32914 11.0252 2.6802C11.013 2.72807 7.87881 3.39829 6.03735 3.74935C5.30564 3.89297 4.59832 4.03659 4.48857 4.08446C4.33003 4.14829 4.26905 4.08446 4.26905 3.87701C4.26905 3.44616 4.02515 3.19084 3.63491 3.19084C3.24466 3.19084 2.80564 3.68552 2.80564 4.11637C2.80564 4.32382 2.6593 4.46744 2.33003 4.61105C1.57393 4.89829 1.28125 5.5685 1.28125 6.94084C1.29345 8.64829 2.08613 10.0206 2.96418 9.8451C3.28125 9.79722 3.29345 9.81318 3.22027 10.3557C3.17149 10.6749 3.06174 11.0579 2.95198 11.2174C2.70808 11.5685 2.72027 11.5845 3.96418 12.1589C4.6593 12.4781 5.06174 12.5898 5.1471 12.4781C5.30564 12.2706 4.56174 11.5206 4.04954 11.393C3.67149 11.2972 3.67149 11.2813 3.73247 10.4674C3.81784 9.47807 3.76905 9.5419 4.4032 9.52595L4.9154 9.49403L5.12271 10.3717C5.43979 11.76 5.56174 11.9674 6.03735 11.9674C6.33003 11.9674 6.53735 12.0951 6.75686 12.3983C7.07393 12.8451 8.58613 13.244 8.81784 12.9408C8.98857 12.7174 8.57393 12.4302 7.87881 12.3025C7.35442 12.2068 7.1471 12.0791 6.95198 11.76C6.79345 11.5047 6.54954 11.3291 6.31784 11.2972C6.11052 11.2653 5.9032 11.1376 5.85442 11.01C5.69588 10.5951 5.36662 9.2068 5.4032 9.15893C5.4154 9.12701 6.56174 8.80786 7.92759 8.44084C9.30564 8.07382 10.5373 7.73871 10.6715 7.7068C10.891 7.64297 10.9154 7.72276 10.9154 8.32914C10.9154 8.90361 10.952 9.01531 11.1593 9.01531C11.3666 9.01531 11.391 8.91956 11.3666 8.44084C11.3178 7.77063 11.5617 7.35573 12.0252 7.32382C12.1837 7.30786 12.3788 7.2919 12.4642 7.27595C12.5495 7.25999 12.6471 7.46744 12.6959 7.73871C12.7447 7.99403 12.83 8.37701 12.8666 8.5685C12.952 8.91956 12.9154 8.93552 12.3788 8.93552C11.9764 8.93552 11.83 8.99935 11.8544 9.12701C11.9398 9.46212 12.4886 9.62169 13.0983 9.50999C13.7569 9.38233 13.952 9.03127 13.5739 8.63233C13.1837 8.23339 13.013 7.05254 13.3178 6.92488C13.9032 6.68552 14.2203 5.00999 13.891 3.87701C13.7447 3.35042 13.1837 2.55254 12.9642 2.55254C12.8788 2.55254 12.6471 2.32914 12.4398 2.07382C12.013 1.53127 12.0008 1.53127 11.5983 1.80254ZM13.0983 3.49403C13.5252 4.10041 13.5861 5.74403 13.2081 6.23871C13.1227 6.35042 10.5983 7.08446 8.53735 7.61105C7.69588 7.8185 5.68369 8.36105 4.79345 8.61637L3.80564 8.90361L3.86662 8.05786C3.95198 6.9568 3.84223 6.22276 3.48857 5.55254L3.20808 4.99403L5.84223 4.48339C7.29345 4.19616 9.1593 3.79722 10.0008 3.58978C11.9886 3.12701 12.8178 3.0951 13.0983 3.49403ZM2.9154 5.72807C3.53735 6.5419 3.52515 8.52063 2.9032 8.95148C2.19588 9.44616 1.52515 7.13233 2.01296 5.90361C2.23247 5.3451 2.57393 5.28127 2.9154 5.72807Z" fill="currentColor"/>
<path d="M2.20804 6.5731C2.11048 6.92416 2.17146 7.6582 2.3056 7.6582C2.34219 7.6582 2.37878 7.33905 2.39097 6.94012C2.40317 6.14225 2.35439 6.0465 2.20804 6.5731Z" fill="currentColor"/>
<path d="M2.73308 7.33898C2.73308 8.3443 2.75748 8.44004 2.90382 8.18472C3.01357 7.99323 3.05016 7.67408 3.00138 7.1794C2.87943 6.03047 2.72089 6.11025 2.73308 7.33898Z" fill="currentColor"/>
<path d="M9.06103 9.04779C8.74396 9.20736 8.91469 9.39885 9.51225 9.55843C10.2805 9.78183 10.244 9.78183 10.244 9.4946C10.244 9.36694 10.0488 9.1914 9.79274 9.11162C9.29274 8.92013 9.28054 8.92013 9.06103 9.04779Z" fill="currentColor"/>
<path d="M6.9772 10.0854C6.78208 10.4046 6.91622 10.5322 7.465 10.5322C7.76988 10.5322 8.07476 10.6599 8.30647 10.8833C8.62354 11.1865 8.84305 11.2503 9.67232 11.2503C10.4894 11.2663 10.7699 11.3301 11.2089 11.6333C11.6235 11.9365 11.8065 11.9844 12.0626 11.8727C12.5016 11.6652 12.4406 11.4259 11.904 11.3141C11.6601 11.2663 11.3552 11.0907 11.2089 10.9152C10.9894 10.6599 10.7821 10.612 9.91622 10.6439C9.02598 10.6759 8.81866 10.6439 8.51378 10.3567C8.05037 9.90989 7.18451 9.76628 6.9772 10.0854Z" fill="currentColor"/>
</svg>
