<svg width="15" height="15" viewBox="0 0 15 15" fill="none" xmlns="http://www.w3.org/2000/svg">
<path d="M5.53401 2.04123C5.26246 2.17636 4.59005 2.44663 4.02108 2.63582C3.3228 2.86555 2.90901 3.09528 2.72798 3.32501C2.50815 3.62231 2.09436 5.18988 1.8616 6.68988C1.80987 6.98717 1.64177 7.43312 1.46074 7.66285C1.12453 8.14933 0.775391 9.73042 0.775391 10.825C0.775391 11.5953 0.865908 11.6764 2.26246 12.2304C2.76677 12.4331 3.59436 12.771 4.1116 12.9872L5.06849 13.3926L6.50384 13.0277C7.8228 12.6899 7.99091 12.6764 8.58574 12.8385C9.68487 13.1223 10.4219 13.0547 12.0642 12.5142C12.8918 12.2304 13.59 11.9331 13.59 11.8385C13.6547 11.298 13.5383 10.3115 13.3702 9.98717C13.2797 9.78447 13.1892 9.43312 13.1892 9.23042C13.1763 8.37906 12.8013 6.68988 12.4392 5.87906C11.9995 4.90609 11.5857 4.55474 10.978 4.62231C10.5642 4.66285 10.5513 4.64933 10.1375 3.59528C9.64608 2.32501 9.72367 2.37906 8.00384 2.10879C7.25384 1.98717 6.50384 1.86555 6.3228 1.82501C6.1547 1.79798 5.79263 1.89258 5.53401 2.04123ZM7.68056 2.63582C8.81849 2.89258 8.83143 2.90609 8.21074 3.4196C7.92625 3.66285 7.37022 4.17636 6.95643 4.56825L6.23229 5.28447L5.08143 4.66285C4.46074 4.32501 3.80125 3.93312 3.63315 3.79798L3.33574 3.55474L3.76246 3.39258C4.00815 3.29798 4.30556 3.16285 4.42194 3.09528C4.55125 3.02771 4.75815 2.97366 4.88746 2.97366C5.00384 2.97366 5.31418 2.85204 5.55987 2.7169C6.10298 2.39258 6.51677 2.37906 7.68056 2.63582ZM9.62022 3.96015C9.9047 4.74393 9.87884 5.17636 9.51677 5.63582C9.02539 6.27096 8.93487 6.47366 8.59867 8.10879C8.5728 8.2169 8.54694 8.37906 8.54694 8.46015C8.53401 8.54123 8.36591 8.79798 8.15901 9.0142C7.8228 9.39258 7.49953 10.3791 7.49953 11.0412C7.49953 11.1628 7.25384 10.7845 6.96936 10.1899L6.43918 9.12231L6.51677 7.97366C6.56849 7.33852 6.60729 6.60879 6.59436 6.35204C6.59436 6.09528 6.64608 5.79798 6.6978 5.70339C6.89177 5.40609 9.10298 3.39258 9.25815 3.39258C9.33574 3.37906 9.50384 3.63582 9.62022 3.96015ZM3.93056 4.66285C4.40901 5.00069 4.88746 5.27096 4.99091 5.27096C5.09436 5.27096 5.17194 5.3115 5.17194 5.36555C5.17194 5.43312 5.35298 5.58177 5.5728 5.7169L5.97367 5.94663L5.92194 7.82501C5.87022 9.46015 5.83143 9.74393 5.58574 10.0953C5.41763 10.3385 5.24953 10.9196 5.15901 11.5007C5.06849 12.0547 4.99091 12.5142 4.99091 12.5277C4.95211 12.5818 3.80125 12.1358 3.16763 11.825C2.80556 11.6493 2.34005 11.4601 2.13315 11.4061C1.91332 11.352 1.66763 11.2574 1.59005 11.1764C1.24091 10.9061 1.49953 8.56825 1.92625 8.09528C2.06849 7.93312 2.27539 7.36555 2.39177 6.83852C2.72798 5.28447 3.01246 4.05474 3.03832 4.05474C3.05125 4.05474 3.46505 4.32501 3.93056 4.66285ZM11.8573 6.02771C12.1676 6.58177 12.465 7.82501 12.6073 9.05474C12.6461 9.46015 12.7883 10.1223 12.9047 10.5277C13.1116 11.2439 13.1116 11.2439 12.8142 11.5007C12.6461 11.6493 12.3616 11.798 12.1676 11.8385C11.9866 11.8791 11.3659 12.0683 10.8099 12.2439C9.86591 12.5547 9.74953 12.5683 9.25815 12.3791C8.96074 12.271 8.55987 12.1493 8.36591 12.0953C8.00384 12.0142 8.00384 12.0142 8.08143 11.1764C8.18487 10.0683 8.2366 9.89258 8.67625 9.3115C8.88315 9.04123 9.05125 8.73042 9.05125 8.63582C9.05125 8.00069 9.5297 6.60879 9.93056 6.05474C10.7064 4.97366 11.2883 4.97366 11.8573 6.02771ZM6.81418 11.1223L7.22798 12.0953L6.94349 12.2574C6.78832 12.352 6.43918 12.4196 6.1547 12.4331H5.65039L5.74091 11.6764C5.81849 10.9466 6.11591 10.1358 6.30987 10.1358C6.3616 10.1358 6.58143 10.5818 6.81418 11.1223Z" fill="black"/>
<path d="M7.43572 7.32434C7.33227 7.63515 7.53917 7.91894 7.74606 7.7838C7.95296 7.64867 7.91417 7.20272 7.70727 7.12164C7.59089 7.06758 7.48744 7.14867 7.43572 7.32434Z" fill="black"/>
<path d="M3.65978 7.12247C3.5434 7.33869 3.3365 7.63598 3.19426 7.79815C2.88391 8.16301 2.98736 10.7306 3.31064 10.8657C3.58219 10.9738 3.63391 10.7711 3.59512 9.43328C3.55633 8.27112 3.58219 8.12247 3.90547 7.5549C4.22874 6.97382 4.2546 6.75761 3.99598 6.75761C3.93133 6.75761 3.78909 6.91977 3.65978 7.12247Z" fill="black"/>
<path d="M10.3968 7.81105C10.0088 8.32456 9.91831 8.90564 10.0993 9.64888C10.2157 10.1354 10.2157 10.4192 10.0993 10.811C10.0218 11.0948 9.9959 11.4192 10.0347 11.5408C10.1381 11.8246 10.4743 11.8246 10.4743 11.5273C10.4743 11.4056 10.539 11.1083 10.6295 10.8651C10.7459 10.5273 10.7459 10.2165 10.6037 9.48672C10.4485 8.59483 10.4485 8.51375 10.72 8.0678C11.1468 7.32456 10.9011 7.13537 10.3968 7.81105Z" fill="black"/>
</svg>
