<svg width="15" height="15" viewBox="0 0 15 15" fill="none" xmlns="http://www.w3.org/2000/svg">
<path d="M11.0969 1.45877C10.2606 1.89913 9.95529 3.01381 10.6588 3.02757C10.7252 3.02757 10.7385 2.97253 10.6987 2.91748C10.5925 2.73858 11.2562 1.78904 11.4818 1.78904C11.5748 1.78904 11.7606 1.89913 11.8933 2.02299C12.0925 2.24317 12.0925 2.28445 11.6942 2.64225C11.2429 3.06886 11.2562 3.37161 11.7208 3.22023C12.3579 3.02757 12.6898 2.11932 12.3181 1.6239C12.0659 1.29363 11.5217 1.22482 11.0969 1.45877Z" fill="currentColor"/>
<path d="M4.84466 4.36229C4.11458 5.17421 3.10573 6.28889 2.58803 6.83935C2.0305 7.44486 1.6721 7.94027 1.69865 8.09164C1.75174 8.43568 2.52166 9.08247 2.88006 9.08247C3.1721 9.08247 3.1721 9.10999 3.14555 10.8439L3.119 12.5916L2.66767 12.6192C2.11015 12.6467 1.88449 12.8531 2.11015 13.1283C2.25617 13.3072 2.98626 13.3348 7.60573 13.3072L12.942 13.2797V12.9357C12.942 12.6329 12.8756 12.5916 12.3845 12.5504L11.8137 12.5091V11.0916C11.8137 10.1559 11.7606 9.63293 11.6544 9.50908C11.5349 9.39898 11.5349 9.3577 11.6278 9.38522C11.827 9.44027 12.5703 8.87605 12.7429 8.53201C12.8624 8.29807 12.7827 8.14669 12.1854 7.4999L11.4818 6.72926L11.4553 5.27054C11.4287 3.56412 11.4287 3.55036 10.2208 3.6054L9.35794 3.64669L9.29157 4.11458C9.21192 4.73385 9.03935 4.77513 8.56148 4.29348C6.67652 2.47696 6.55705 2.47696 4.84466 4.36229ZM7.06148 4.01825C8.33581 5.2155 9.34466 6.10999 10.088 6.72926C11.7871 8.11917 11.9332 8.25678 11.8668 8.4632C11.734 8.821 11.4287 8.68339 10.4199 7.80265C9.87564 7.33476 8.95971 6.55036 8.36236 6.06871C7.77829 5.57329 7.30042 5.13293 7.30042 5.06412C7.30042 5.00907 7.11458 4.95403 6.88891 4.95403C6.53051 4.95403 6.23847 5.18797 5.05705 6.37146C2.85351 8.60082 2.93316 8.54577 2.6544 8.18797C2.52166 8.02284 2.81369 7.63752 4.45971 5.86229C5.5482 4.69256 6.50396 3.72926 6.5836 3.72926C6.66325 3.7155 6.87564 3.85311 7.06148 4.01825ZM10.7517 5.24302V6.22008L10.3668 5.88981C10.0349 5.62834 9.96856 5.47696 9.96856 4.91274C9.95528 4.27972 9.96856 4.26596 10.3535 4.26596H10.7517V5.24302ZM7.2075 5.93109C7.36679 6.09623 7.92431 6.56412 8.42874 6.99073C8.94643 7.41733 9.57033 7.95403 9.82254 8.18797C10.088 8.40816 10.4863 8.75219 10.7252 8.94486L11.15 9.28889V10.9678V12.6605H10.765H10.3933L10.327 11.2155C10.2871 10.4173 10.2208 9.72926 10.1677 9.66045C10.0349 9.5366 8.25617 9.55036 8.1367 9.68797C8.07033 9.74302 8.00396 10.4173 7.96413 11.188L7.89776 12.5779L5.97298 12.5504C4.91104 12.5504 4.00838 12.5366 3.95528 12.5366C3.80927 12.5228 3.82254 9.01366 3.96856 8.6421C4.14112 8.22926 6.53051 5.6421 6.74289 5.6421C6.83581 5.6421 7.0482 5.77972 7.2075 5.93109ZM9.66325 11.4494L9.70307 12.6605H9.1721C8.56148 12.6605 8.5482 12.6329 8.6013 11.188L8.6544 10.1696L9.13227 10.2109L9.62342 10.2522L9.66325 11.4494Z" fill="currentColor"/>
<path d="M5.20375 8.64174C4.91172 8.68302 4.89844 8.73807 4.93827 9.88027L4.97809 11.0775L6.02676 11.1188C6.7834 11.1463 7.11526 11.105 7.18163 10.9812C7.34092 10.7197 7.32765 8.8344 7.16835 8.73807C7.00906 8.62798 5.64181 8.57293 5.20375 8.64174ZM6.58428 9.7977C6.59756 10.417 6.37189 10.6647 5.90729 10.5408C5.62853 10.472 5.57543 10.3757 5.57543 9.92156C5.57543 9.28853 5.65508 9.1922 6.17278 9.24724C6.53119 9.28853 6.57101 9.32981 6.58428 9.7977Z" fill="currentColor"/>
</svg>
