<svg width="15" height="15" viewBox="0 0 15 15" fill="none" xmlns="http://www.w3.org/2000/svg">
<path d="M7.3646 2.09213C7.10551 2.33732 6.42369 2.91425 5.8646 3.39021C5.30551 3.86617 4.78732 4.31329 4.70551 4.41425C4.63732 4.50079 4.14642 4.9479 3.6146 5.40944C2.07369 6.75079 1.9646 7.11136 2.82369 7.87579C3.3146 8.30848 3.32823 8.35175 3.17823 8.84213C3.06914 9.23155 3.06914 9.4479 3.20551 9.72194C3.3146 9.92386 3.35551 10.3133 3.3146 10.645C3.27369 10.9623 3.3146 11.3373 3.39642 11.5104C3.49187 11.7123 3.50551 11.8421 3.41005 11.8998C3.19187 12.0441 3.24642 12.6354 3.51914 12.9816C3.7646 13.2989 3.77823 13.2989 8.1146 13.2844C13.3237 13.27 12.9282 13.4431 12.901 11.3229C12.8873 10.5441 12.9419 9.8229 13.0373 9.64982C13.1873 9.33252 13.1464 8.6979 12.9419 8.58252C12.8873 8.53925 13.1055 8.23636 13.4464 7.90463C13.7737 7.58732 14.0464 7.21232 14.0464 7.06809C14.0464 6.77963 12.5873 5.27963 10.9101 3.85175C10.801 3.75079 10.2691 3.30367 9.72369 2.84213C9.19187 2.38059 8.7146 1.91906 8.67369 1.80367C8.55096 1.45752 7.88278 1.61617 7.3646 2.09213ZM8.96005 3.24598C9.30096 3.60656 9.64187 3.89502 9.69642 3.89502C9.75096 3.89502 10.2146 4.27002 10.7328 4.71713C12.901 6.64982 13.2964 7.09694 13.0101 7.31329C12.6964 7.55848 12.5328 7.44309 11.101 6.04405C9.43732 4.44309 8.5646 3.75079 8.15551 3.75079C7.71914 3.75079 7.09187 4.24117 5.38732 5.89982C4.01005 7.24117 3.47823 7.55848 3.26005 7.1979C3.08278 6.90944 3.05551 6.93829 4.40551 5.75559C5.10096 5.14982 6.05551 4.29886 6.54642 3.86617C7.55551 2.98636 8.06005 2.59694 8.21005 2.59694C8.2646 2.59694 8.60551 2.8854 8.96005 3.24598ZM8.66005 4.83252L9.06914 5.19309H8.18278H7.29642L7.70551 4.83252C7.93732 4.64502 8.14187 4.48636 8.18278 4.48636C8.22369 4.48636 8.44187 4.64502 8.66005 4.83252ZM9.81914 5.98636C10.0101 6.08732 10.2691 6.30367 10.4191 6.47675L10.6646 6.76521L8.19642 6.75079C6.84642 6.75079 5.72823 6.72194 5.72823 6.67867C5.72823 6.64982 5.91914 6.43348 6.15096 6.21713C6.56005 5.81329 6.6146 5.79886 8.01914 5.79886C8.93278 5.79886 9.60096 5.87098 9.81914 5.98636ZM11.8237 7.71713C12.0828 7.9479 12.1646 8.10655 12.0691 8.19309C11.8782 8.39502 9.69642 8.45271 9.27369 8.26521C8.8646 8.10655 6.94187 8.12098 6.66914 8.29405C6.4646 8.43829 4.39187 8.39502 4.17369 8.25079C4.10551 8.20752 4.24187 8.00559 4.48732 7.78925L4.92369 7.39982L8.18278 7.3854C11.4419 7.37098 11.4555 7.37098 11.8237 7.71713ZM6.41005 9.30367V9.80848L5.22369 9.75079C3.98278 9.67867 3.75096 9.57771 3.90096 9.18829C3.96914 9.00079 4.22823 8.94309 5.15551 8.89982C5.81005 8.8854 6.35551 8.84213 6.38278 8.82771C6.39642 8.81329 6.41005 9.02963 6.41005 9.30367ZM8.87823 9.50559C8.87823 9.90944 8.87823 10.5585 8.87823 10.9623C8.87823 11.3517 8.87823 11.8854 8.87823 12.1162L8.8646 12.5633L8.01914 12.52L7.16005 12.4767V11.0344C7.14642 8.75559 7.10551 8.85655 8.06005 8.81329L8.8646 8.78444L8.87823 9.50559ZM12.3146 9.11617C12.4782 9.67867 12.2737 9.79405 11.0191 9.83732C10.2964 9.86617 9.75096 9.8229 9.71005 9.73636C9.58732 9.53444 9.54642 9.20271 9.62823 9.05848C9.75096 8.85655 12.2464 8.91425 12.3146 9.11617ZM6.43732 10.7171C6.54642 11.3229 6.43732 11.395 5.31914 11.395C4.13278 11.395 3.81914 11.2075 4.09187 10.6883C4.32369 10.2123 6.35551 10.2412 6.43732 10.7171ZM12.2464 11.0056C12.2055 11.3085 12.1373 11.3229 10.9101 11.3229H9.6146L9.57369 10.9335L9.53278 10.5441L10.6646 10.5008C11.9737 10.4575 12.3146 10.5585 12.2464 11.0056ZM6.41005 12.2316C6.41005 12.5489 6.38278 12.5633 5.29187 12.52C4.3646 12.4912 4.16005 12.4335 4.11914 12.2316C4.0646 11.9431 4.26914 11.8998 5.48278 11.8998C6.35551 11.8998 6.41005 11.9142 6.41005 12.2316ZM12.001 12.1162C12.3555 12.3469 11.9737 12.52 10.8691 12.5777C9.81914 12.6498 9.39642 12.4912 9.6146 12.1162C9.72369 11.9287 11.7282 11.9287 12.001 12.1162Z" fill="black"/>
</svg>
