<svg width="15" height="15" viewBox="0 0 15 15" fill="none" xmlns="http://www.w3.org/2000/svg">
<path d="M6.41138 1.83718C6.27903 1.94529 6.17609 2.2561 6.17609 2.51285C6.17609 3.02637 6.49962 2.97231 3.63197 3.01285C1.86727 3.05339 1.88197 3.01285 1.98491 5.52637C2.04374 6.94529 2.11727 7.53988 2.26432 7.67501C2.42609 7.82366 2.89668 7.8642 4.23491 7.85069C5.57315 7.82366 6.01432 7.8642 6.07315 7.99934C6.10256 8.10745 6.14668 9.10745 6.13197 10.2426V12.2831L5.57315 11.7561C4.9555 11.175 4.74962 11.0939 4.61727 11.4183C4.52903 11.6345 4.7055 11.9183 5.35256 12.6345C5.67609 12.9993 5.74962 13.0264 6.02903 12.8642C6.19079 12.7696 6.41138 12.7291 6.49962 12.7831C6.82315 12.9723 6.91138 12.4318 6.91138 10.2291V7.97231H7.27903H7.64668V10.2156C7.64668 12.6885 7.72021 12.9453 8.36727 12.9183C8.86727 12.9047 9.94079 11.7561 9.79374 11.4047C9.67609 11.121 9.2055 11.175 8.88197 11.4993L8.60256 11.7831L8.51432 11.4588C8.42609 11.0939 8.49962 8.09393 8.60256 7.98583C8.64668 7.9588 9.26432 7.90474 9.97021 7.87772L11.2496 7.82366L12.1761 6.98583C13.0584 6.20204 13.529 5.59393 13.529 5.28312C13.529 5.20204 12.9849 4.6615 12.3231 4.05339L11.1173 2.97231H9.82315H8.52903V2.59393C8.52903 1.91826 8.16138 1.62096 7.35256 1.62096C6.89668 1.62096 6.55844 1.70204 6.41138 1.83718ZM7.64668 2.63447C7.64668 2.90475 7.57315 2.97231 7.26432 2.97231C6.97021 2.97231 6.89668 2.91826 6.97021 2.7561C7.01432 2.63447 7.05844 2.48583 7.05844 2.41826C7.05844 2.35069 7.19079 2.29664 7.35256 2.29664C7.57315 2.29664 7.64668 2.39123 7.64668 2.63447ZM11.7055 4.52637C12.1467 4.9588 12.4996 5.3642 12.4996 5.41826C12.4996 5.62096 10.8526 7.02637 10.529 7.09393C10.3673 7.13447 8.57315 7.14799 6.54374 7.13447L2.86727 7.09393V5.47231V3.85069L4.41138 3.78312C5.26432 3.74258 7.07315 3.72907 8.44079 3.72907L10.9261 3.7561L11.7055 4.52637Z" fill="currentColor"/>
<path d="M9.60171 4.40393C9.5576 4.52555 9.5723 4.72826 9.66054 4.84988C9.79289 5.05258 9.54289 5.06609 6.86642 5.10663C3.92524 5.13366 3.55759 5.18771 3.71936 5.59312C3.80759 5.78231 4.23407 5.80934 6.92524 5.80934H10.0429L9.77818 6.07961C9.54289 6.32285 9.52818 6.39042 9.71936 6.55258C9.89583 6.71474 10.0135 6.6742 10.5576 6.20123C11.3223 5.52555 11.3223 5.48501 10.5576 4.7688C9.88112 4.13366 9.73407 4.07961 9.60171 4.40393Z" fill="currentColor"/>
<path d="M3.4259 12.1342C2.91119 12.2018 3.02884 12.5261 3.6906 12.8369C4.60237 13.2694 5.1906 12.9991 4.54354 12.445C4.1906 12.1477 3.89648 12.0666 3.4259 12.1342Z" fill="currentColor"/>
<path d="M9.96999 12.2162C9.66117 12.4324 9.63175 12.8243 9.91117 12.9189C10.2641 13.0405 11.2053 12.5945 11.1465 12.3378C11.0876 12.027 10.3229 11.9594 9.96999 12.2162Z" fill="currentColor"/>
</svg>
