<svg width="15" height="15" viewBox="0 0 15 15" fill="none" xmlns="http://www.w3.org/2000/svg">
<path d="M6.0152 1.40276C5.95398 1.58166 5.89275 1.84312 5.87745 1.9945C5.86214 2.42111 5.64785 3.05413 5.37234 3.50826C4.91316 4.2789 4.88255 4.29267 4.59173 3.82478C4.05602 2.91652 3.48969 3.21927 2.64785 4.8156C2.17336 5.72386 2.09683 5.98533 2.09683 6.94863C2.08153 8.02202 2.43357 9.02661 2.90806 9.28808C3.18357 9.43945 3.07642 9.61835 2.57132 9.8523C1.14785 10.4991 0.719282 11.4211 1.40806 12.3294C1.98969 13.0862 2.72438 13.0312 4.22438 12.0954L4.92847 11.6688L4.80602 12.1229C4.60704 12.9349 4.71418 13.389 5.20398 13.7881C5.87745 14.3385 6.99479 14.3385 7.68357 13.7743C8.17336 13.3752 8.18867 13.3477 8.18867 12.2055C8.17336 10.8431 8.09683 10.8569 9.78051 11.8752C11.1581 12.6872 11.755 12.7835 12.3979 12.3018C13.4081 11.5312 13.1019 10.444 11.7091 9.8523C11.2499 9.65964 10.806 9.4945 10.7295 9.4945C10.6683 9.4945 10.607 9.39817 10.607 9.30184C10.607 9.19175 10.6836 9.10918 10.7601 9.12294C11.5101 9.24679 11.7244 6.34312 11.0968 4.91193C10.4999 3.56331 10.0713 3.39817 9.5203 4.26514C9.18357 4.80184 9.13765 4.78808 8.89275 4.01744C8.57132 3.04037 8.18867 2.42111 7.45398 1.73303C6.71928 1.0312 6.21418 0.921105 6.0152 1.40276ZM7.65296 3.20551C7.83663 3.52202 8.15806 4.25138 8.32643 4.8156C8.72438 6.06789 8.98459 6.17799 9.58153 5.37982C9.81112 5.06331 10.0407 4.8156 10.1019 4.8156C10.3928 4.8156 10.6376 5.7789 10.6223 6.90734C10.607 8.29725 10.3774 8.76514 9.35194 9.45322C8.54071 10.0174 8.29581 10.0312 8.70908 9.50826C9.61214 8.36606 9.21418 6.59083 8.23459 7.389C7.97438 7.59542 7.95908 7.59542 7.95908 7.2789C7.95908 6.87982 7.33153 5.64129 7.0101 5.40734C6.82643 5.25597 6.73459 5.26973 6.55092 5.47615C6.2601 5.76514 5.66316 6.93487 5.66316 7.2101C5.66316 7.49909 5.37234 7.62294 5.12745 7.43028C4.40806 6.89358 4.20908 8.66881 4.88255 9.45322C5.34173 9.96239 5.17336 10.0037 4.39275 9.56331C2.95398 8.73762 2.5101 7.2101 3.19887 5.43487C3.65806 4.26514 3.90296 4.07248 4.19377 4.70551C4.53051 5.40734 4.80602 5.44863 5.34173 4.84312C5.89275 4.2101 6.58153 2.84771 6.58153 2.36606V2.02202L6.93357 2.31101C7.13255 2.47615 7.45398 2.87523 7.65296 3.20551ZM7.19377 7.2789C7.19377 8.28349 7.71418 8.76514 8.29581 8.29725C8.46418 8.15964 8.57132 8.13212 8.57132 8.24221C8.57132 8.90276 7.13255 10.1275 6.5203 9.98991C6.0152 9.87982 5.20398 9.01285 5.20398 8.58624C5.20398 8.29725 5.2652 8.25597 5.57132 8.33854C5.95398 8.42111 6.15296 8.25597 6.22949 7.77432C6.2601 7.62294 6.39785 7.23762 6.53561 6.90734L6.78051 6.32936L6.97949 6.68716C7.10194 6.87982 7.19377 7.15505 7.19377 7.2789ZM11.1734 10.7193C10.6836 11.5174 10.653 11.5174 9.81112 11.0083C8.89275 10.444 8.89275 10.4303 9.53561 10.1551C10.1632 9.89358 11.4183 10.3202 11.1734 10.7193ZM4.53051 10.4028C5.20398 10.6917 5.18867 10.7193 4.28561 11.2422C3.39785 11.7651 3.36724 11.7789 3.36724 11.4486C3.36724 11.311 3.2601 11.0633 3.12234 10.8982C2.98459 10.7193 2.90806 10.5679 2.92336 10.5404C3.07642 10.4578 3.7652 10.1963 3.87234 10.1963C3.94887 10.1826 4.23969 10.2789 4.53051 10.4028ZM7.28561 11.2697C7.49989 11.8477 7.39275 12.2881 7.08663 12.1917C6.96418 12.1505 6.56622 12.1092 6.21418 12.1092H5.55602L5.80092 11.4211C6.04581 10.7468 6.06112 10.733 6.58153 10.7606C7.04071 10.8018 7.14785 10.8706 7.28561 11.2697ZM12.2448 11.1184C12.2448 11.4211 11.954 11.7651 11.6019 11.8752C11.2499 11.9853 11.2346 11.6688 11.5713 11.2147C11.8621 10.8156 12.2448 10.7606 12.2448 11.1184ZM2.60194 11.311C2.89275 11.6 2.99989 11.9853 2.83153 12.1367C2.61724 12.3294 2.005 12.0541 1.86724 11.7101C1.59173 11.0083 2.03561 10.7606 2.60194 11.311ZM7.13255 12.9486C7.53051 13.2514 6.96418 13.5541 6.09173 13.4991C5.78561 13.4853 5.44887 12.9899 5.60194 12.7835C5.72438 12.5908 6.81112 12.7147 7.13255 12.9486Z" fill="black"/>
</svg>
