<svg width="15" height="15" viewBox="0 0 15 15" fill="none" xmlns="http://www.w3.org/2000/svg">
<path d="M5.83245 0.749642C2.22988 1.67761 0.152959 4.85557 0.960651 8.26235C0.973472 8.30049 1.02475 8.51659 1.07604 8.75812C2.01193 12.6607 6.85809 14.4912 10.5504 12.3302C10.8068 12.1776 11.0248 11.9615 11.0248 11.8598C11.0248 11.7581 11.076 11.7073 11.1401 11.7454C11.294 11.8471 12.2812 10.792 12.5376 10.2454C13.5248 8.18608 13.653 7.00388 13.1017 5.12252C12.4222 2.87252 10.935 1.38524 8.65296 0.698795C8.15296 0.558964 8.10168 0.558964 8.16578 0.749642C8.21706 0.927608 8.21706 0.927608 8.08886 0.749642C7.90937 0.469981 6.94783 0.469981 5.83245 0.749642ZM9.43501 1.7793C13.0504 3.53354 13.8324 8.27507 10.9735 10.9827C9.7427 12.1268 8.79399 12.4954 6.98629 12.5081C5.37091 12.5081 4.12732 11.9869 3.07604 10.8429C1.93501 9.5971 1.60168 8.71998 1.60168 6.92761C1.60168 5.47846 1.62732 5.36405 1.99911 4.57591C3.33245 1.81744 6.81963 0.495405 9.43501 1.7793Z" fill="currentColor"/>
<path d="M5.96044 2.27544C3.44762 2.8856 1.84505 5.27544 2.31941 7.74154C2.4989 8.69493 2.87069 9.66103 3.07582 9.66103C3.13992 9.66103 3.20403 9.7373 3.20403 9.82628C3.20403 10.2204 4.9989 11.517 5.69121 11.6187C5.76813 11.6314 5.90915 11.6822 5.9989 11.7458C6.16556 11.8475 7.4348 11.8729 7.88351 11.7712C8.66556 11.6059 8.94762 11.517 9.33223 11.2881C9.55018 11.1483 9.71685 10.9958 9.69121 10.9449C9.65274 10.8941 9.75531 10.8432 9.90915 10.8432C10.4604 10.7924 11.4604 9.38137 11.7809 8.17374C12.2681 6.39408 11.6912 4.4873 10.3322 3.39408C9.02454 2.32628 7.44762 1.9195 5.96044 2.27544ZM8.74249 3.03815C11.3451 4.28391 12.1912 7.32205 10.563 9.54662C8.74249 12.0254 4.67839 11.7076 3.22967 8.97459C2.81941 8.21188 2.72967 6.08899 3.063 5.38984C3.563 4.33476 3.67839 4.15679 3.90915 3.9534C5.19121 2.79662 7.39633 2.37713 8.74249 3.03815Z" fill="currentColor"/>
<path d="M6.8321 3.40671C6.69107 3.4957 6.60133 3.91519 6.63979 4.34739C6.67825 4.70332 7.16543 4.62705 7.25518 4.25841C7.40902 3.64824 7.17825 3.19061 6.8321 3.40671Z" fill="currentColor"/>
<path d="M9.46071 4.61374C9.37097 4.71543 9.22994 4.76628 9.15302 4.74085C8.97353 4.6773 6.66584 5.92306 6.33251 6.26628C6.17866 6.41882 5.83251 6.97814 5.56328 7.49933C5.29405 8.02052 4.93507 8.6434 4.78123 8.88492C4.12738 9.83831 4.34533 9.83831 6.34533 8.89763C7.05046 8.55441 7.74276 8.24933 7.88379 8.21119C8.12738 8.13492 8.48635 7.55018 9.38379 5.78323C9.58892 5.36374 9.81969 4.93153 9.87097 4.81713C10.0633 4.46119 9.76841 4.32136 9.46071 4.61374ZM8.58892 6.16458C8.30687 6.62221 8.0761 7.05441 8.0761 7.11797C8.0761 7.19424 7.99918 7.24509 7.92225 7.24509C7.7043 7.24509 7.0761 6.32984 7.24276 6.26628C7.31969 6.24085 7.74276 6.02475 8.2043 5.78323C8.66584 5.5417 9.05046 5.35102 9.06328 5.35102C9.08892 5.33831 8.87097 5.70696 8.58892 6.16458ZM6.5761 8.23662C6.12738 8.46543 5.69148 8.6434 5.6402 8.61797C5.5761 8.59255 5.74276 8.16035 5.99917 7.65187L6.46071 6.73662L6.93507 7.27052L7.40943 7.81713L6.5761 8.23662Z" fill="currentColor"/>
<path d="M3.33203 6.91538C3.33203 7.30945 4.20383 7.52555 4.48588 7.18233C4.72947 6.90267 4.51152 6.73741 3.89613 6.73741C3.4987 6.73741 3.33203 6.78826 3.33203 6.91538Z" fill="currentColor"/>
<path d="M9.69062 7.06652C9.57524 7.38432 9.58806 7.38432 10.1522 7.34618C10.5496 7.32076 10.7163 7.24449 10.7419 7.07923C10.806 6.77415 9.80601 6.76144 9.69062 7.06652Z" fill="currentColor"/>
<path d="M6.72893 9.78774C6.63918 10.0674 6.75457 10.8047 6.89559 10.8047C7.17765 10.792 7.31867 10.5377 7.28021 10.0928C7.24175 9.5335 6.86995 9.33011 6.72893 9.78774Z" fill="currentColor"/>
</svg>
