<svg width="15" height="15" viewBox="0 0 15 15" fill="none" xmlns="http://www.w3.org/2000/svg">
<path d="M12.3176 1.42764C11.403 1.72033 10.4395 1.93984 10.342 1.87886C10.281 1.84228 10.2444 1.86667 10.2444 1.91545C10.2444 1.97643 10.0859 2.0374 9.89077 2.0496C9.69564 2.06179 9.3054 2.15935 9.02491 2.25691C8.74443 2.35447 8.36638 2.43984 8.18345 2.43984C8.01272 2.43984 7.79321 2.48862 7.70784 2.5496C7.61028 2.61057 7.36638 2.56179 7.09808 2.42764C6.85418 2.30569 6.47613 2.17155 6.26882 2.14716C6.0615 2.11057 5.67125 2.00082 5.40296 1.90325C4.0615 1.42764 2.32979 1.57399 2.07369 2.18374C1.97613 2.42764 1.96394 12.0252 2.0615 12.1472C2.14686 12.2691 2.50052 12.2935 2.62247 12.1959C2.85418 12.0008 4.48833 11.9642 5.08589 12.1472C5.61028 12.3057 6.91516 12.8301 7.36638 13.074C7.52491 13.1594 7.84199 13.1106 8.52491 12.8789C9.5493 12.5496 11.0249 12.1959 11.6956 12.1228C12.6103 12.0374 12.9395 11.9764 13.0005 11.9276C13.0981 11.8301 13.1591 9.70813 13.1469 6.70813C13.1469 5.19594 13.1591 3.40325 13.1591 2.73252C13.1834 1.26911 13.1225 1.18374 12.3176 1.42764ZM12.4883 6.30569C12.4639 8.70813 12.4274 10.8301 12.4152 11.0374C12.3786 11.4155 12.22 11.4642 10.1834 11.7569C9.35418 11.8789 8.78101 12.0496 8.58589 12.2569C8.50052 12.3423 8.3054 12.3789 8.14686 12.3545C7.87857 12.3057 7.86638 12.2447 7.87857 11.3667C7.87857 10.2569 7.82979 10.0008 7.61028 10.0008C7.47613 10.0008 7.43955 10.2569 7.43955 11.1594C7.43955 12.4276 7.40296 12.4764 6.76882 12.0984C5.89077 11.5618 3.95174 11.1594 3.23223 11.3545C3.03711 11.4155 2.82979 11.4155 2.78101 11.3667C2.63467 11.2203 2.64686 2.5496 2.79321 2.40325C3.0493 2.14716 5.87857 2.5496 6.86638 2.97643L7.3176 3.17155L7.32979 4.24472C7.36638 8.13496 7.40296 8.63496 7.59808 8.84228C7.79321 9.02521 7.8054 8.85447 7.8054 6.2935C7.8054 4.41545 7.76882 3.5374 7.67125 3.5374C7.59808 3.5374 7.63467 3.45203 7.74443 3.34228C7.91516 3.15935 9.46394 2.68374 10.4274 2.51301C10.72 2.46423 12.4517 2.00082 12.5127 1.96423C12.5249 1.95203 12.5127 3.91545 12.4883 6.30569Z" fill="currentColor"/>
<path d="M10.0616 4.35459C9.2201 5.29361 8.53717 6.51312 8.74449 6.72044C9.00059 6.97654 11.7079 6.84239 11.7079 6.5741C11.7079 6.39117 11.0738 5.18385 10.964 5.14727C10.903 5.12288 10.8542 5.00093 10.8542 4.89117C10.8542 4.76922 10.7201 4.54971 10.5616 4.40337C10.2811 4.13507 10.2567 4.13507 10.0616 4.35459ZM10.8542 6.0619C10.8542 6.318 10.7933 6.34239 10.1835 6.34239C9.4518 6.34239 9.41522 6.28142 9.69571 5.72044C10.1347 4.89117 10.2567 4.8302 10.5738 5.34239C10.7201 5.58629 10.8542 5.91556 10.8542 6.0619Z" fill="currentColor"/>
<path d="M3.53653 6.73287C3.06092 7.18409 3.28043 7.36702 4.02433 7.14751C4.69506 6.95239 4.78043 6.63531 4.19506 6.56214C3.90238 6.52556 3.69506 6.58653 3.53653 6.73287Z" fill="currentColor"/>
<path d="M5.18394 6.95213C5.09857 7.08627 5.57418 7.74481 5.84248 7.86676C5.94004 7.90334 6.09857 7.85456 6.19613 7.757C6.36687 7.59847 6.33028 7.53749 5.98882 7.20822C5.57418 6.81798 5.31809 6.74481 5.18394 6.95213Z" fill="currentColor"/>
<path d="M10.244 8.11015C10.0123 8.39063 10.0245 9.07356 10.2562 9.12234C10.5001 9.17112 10.7806 8.53698 10.6708 8.18332C10.5732 7.87844 10.4513 7.85405 10.244 8.11015Z" fill="currentColor"/>
<path d="M6.31685 8.5982C6.1827 8.73234 6.49978 9.50063 6.79246 9.78112C7.29246 10.2445 7.4266 9.87868 6.99978 9.19576C6.65831 8.63478 6.46319 8.46405 6.31685 8.5982Z" fill="currentColor"/>
<path d="M8.94041 9.89122C8.61115 10.0985 8.56237 10.1839 8.65993 10.379C8.83066 10.6839 8.92822 10.6717 9.37944 10.2937C10.0746 9.70829 9.7209 9.39122 8.94041 9.89122Z" fill="currentColor"/>
</svg>
