<svg width="15" height="15" viewBox="0 0 15 15" fill="none" xmlns="http://www.w3.org/2000/svg">
<path d="M7.09431 0.869331C6.95242 0.903165 6.80039 0.959556 6.73958 1.01595C6.6889 1.06106 6.4862 1.14001 6.3139 1.18512C6.13147 1.21895 5.97945 1.30918 5.97945 1.36557C5.97945 1.43324 5.9389 1.4558 5.88823 1.42196C5.84769 1.38813 5.69566 1.48963 5.57404 1.63625C5.42201 1.8167 5.38147 1.9182 5.47269 1.9182C5.54363 1.9182 5.57404 1.95204 5.5335 1.99715C5.49296 2.04226 5.17877 2.08738 4.83417 2.09865C4.02336 2.12121 4.0335 2.12121 4.11458 2.27911C4.15512 2.34677 4.14499 2.36933 4.08417 2.3355C4.0335 2.30166 3.8612 2.36933 3.6889 2.49339C3.52674 2.60617 3.44566 2.70768 3.49634 2.70768C3.55715 2.70768 3.51661 2.78662 3.40512 2.87685C3.30377 2.9558 3.25309 3.09114 3.29363 3.1588C3.32404 3.22647 3.30377 3.26031 3.23282 3.24903C3.16188 3.22647 3.0808 3.33926 3.04026 3.49715C3.00985 3.65505 2.87809 3.8355 2.75647 3.90317C2.43215 4.08362 2.02674 4.52347 2.02674 4.70392C2.02674 4.78286 1.9862 4.85053 1.94566 4.85053C1.77336 4.85053 1.60107 5.437 1.74296 5.54978C1.85445 5.61745 1.84431 5.66256 1.73282 5.74151C1.62134 5.82046 1.62134 5.91068 1.71255 6.23775C1.86458 6.73399 1.94566 6.80166 2.58417 7.04978C3.03012 7.21896 3.24296 7.26407 3.85107 7.36557C3.93215 7.38813 4.18553 7.50091 4.4085 7.62497C4.63147 7.76031 4.87472 7.83926 4.9558 7.80542C5.03688 7.77159 5.06728 7.80542 5.02674 7.88437C4.9862 7.95204 5.01661 8.00843 5.11796 8.00843C5.64499 8.00843 6.75985 9.29414 7.00309 10.1851C7.27674 11.1776 7.0335 12.5987 6.47607 13.2528C6.21255 13.5573 6.46593 14.3242 6.84093 14.3242C7.10445 14.3242 7.80377 13.6588 7.80377 13.4107C7.80377 13.3317 7.89499 13.0498 8.00647 12.7904C8.12809 12.531 8.23958 12.1137 8.26999 11.8769C8.30039 11.64 8.39161 11.2904 8.47269 11.0874C8.55377 10.8956 8.61458 10.6475 8.61458 10.5235C8.61458 10.4107 8.7362 10.0611 8.86796 9.75655C9.00985 9.44076 9.12134 9.14753 9.12134 9.10241C9.12134 8.78662 9.79026 8.40317 10.8038 8.12121C11.3004 7.97459 11.7463 7.82798 11.797 7.77159C11.8477 7.72647 11.949 7.7152 12.02 7.74903C12.1011 7.78286 12.2227 7.76031 12.2936 7.70392C12.3544 7.63625 12.5876 7.5573 12.8105 7.52347C13.1754 7.4558 13.5707 7.07234 13.4997 6.84677C13.4896 6.79038 13.52 6.77911 13.5707 6.82422C13.6315 6.85805 13.743 6.73399 13.8342 6.54226C13.9153 6.36181 13.9558 6.20392 13.9153 6.20392C13.8646 6.20392 13.824 5.98963 13.824 5.71896C13.7936 4.73775 13.449 3.91444 12.922 3.50843C12.7294 3.36181 12.5673 3.20392 12.5673 3.14753C12.5673 2.97835 12.1315 2.60617 12.02 2.67384C11.9592 2.70768 11.9389 2.70768 11.9794 2.65129C12.0605 2.54978 11.8274 2.25655 11.6653 2.25655C11.6044 2.25655 11.5538 2.20016 11.5538 2.12121C11.5538 2.05354 11.5234 2.01971 11.493 2.06482C11.4626 2.09865 11.3105 2.0761 11.1686 2.01971C10.9963 1.94076 10.8747 1.95204 10.8038 2.03098C10.5909 2.26783 10.3274 2.16632 10.3984 1.86181C10.4389 1.68136 10.4186 1.57986 10.3376 1.57986C10.2767 1.57986 10.2463 1.53474 10.2767 1.47835C10.3071 1.42196 10.1044 1.35429 9.8308 1.30918C9.55715 1.26407 9.3139 1.1964 9.2835 1.15129C9.19228 0.970834 8.29026 0.993391 8.11796 1.17384C7.96593 1.33174 7.91526 1.32046 7.66188 1.07234C7.49972 0.914443 7.35782 0.801661 7.35782 0.801661C7.34769 0.81294 7.2362 0.846774 7.09431 0.869331ZM7.57066 2.26783C7.64161 2.5385 7.72269 3.2152 7.74296 3.77911C7.76323 4.33174 7.79363 4.89565 7.79363 5.01971C7.80377 5.21144 7.82404 5.22271 7.9558 5.06482C8.19904 4.80542 8.30039 4.00467 8.35107 2.16632L8.3612 1.67008L8.83755 1.73775C9.80039 1.88437 9.95242 1.99715 9.88147 2.50467C9.82066 2.86557 9.84093 2.94452 9.94228 2.87685C10.0335 2.80918 10.0538 2.84301 10.0031 2.96708C9.90174 3.26031 10.2058 3.20392 10.5605 2.87685C10.7227 2.71895 10.9355 2.59489 11.0267 2.59489C11.3207 2.59489 11.9592 3.26031 11.9592 3.55354C11.9592 3.73399 12.0301 3.84677 12.1923 3.90317C12.5065 4.00467 13.074 4.73775 13.074 5.04226C13.074 5.1776 13.1247 5.32422 13.1754 5.35805C13.5403 5.60617 13.1044 6.68888 12.5977 6.80166C11.9997 6.937 9.66863 7.69264 9.41526 7.85053C9.06053 8.05354 8.40174 8.93324 8.38147 9.23775C8.38147 9.36181 8.3308 9.42948 8.29026 9.40693C8.24972 9.37309 8.20918 9.46332 8.20918 9.60993C8.20918 9.75655 8.16863 9.92572 8.10782 9.99339C8.05715 10.0498 7.99634 10.3881 7.9862 10.7378C7.97607 11.0874 7.92539 11.3468 7.88485 11.3242C7.83418 11.2904 7.80377 11.3242 7.80377 11.3806C7.80377 11.4483 7.75309 11.5047 7.69228 11.5047C7.63147 11.5047 7.6112 11.4144 7.65174 11.2904C7.76323 10.8731 7.79363 10.6024 7.71255 10.6024C7.66188 10.6024 7.65174 10.4784 7.68215 10.3205C7.70242 10.1513 7.68215 10.0385 7.6112 10.0385C7.55039 10.0385 7.49972 9.937 7.49972 9.81294C7.49972 9.28287 6.4862 7.96332 5.77674 7.5573C5.5639 7.43324 5.37134 7.36557 5.34093 7.39941C5.32066 7.43324 5.13823 7.35429 4.9558 7.24151C4.76323 7.12873 4.55039 7.04978 4.48958 7.07234C4.41863 7.10617 4.35782 7.07234 4.35782 7.01595C4.35782 6.89189 3.50647 6.5761 2.84769 6.45204C2.25985 6.33926 2.1585 6.14753 2.3308 5.48211C2.43215 5.05354 2.54363 4.90692 2.99972 4.56858C3.55715 4.15129 3.84093 3.77911 3.63823 3.70016C3.52674 3.65505 4.12472 2.93324 4.27674 2.93324C4.32742 2.93324 4.34769 2.88813 4.30715 2.83174C4.27674 2.76407 4.33755 2.74151 4.45917 2.76407C4.57066 2.78662 4.68215 2.76407 4.71255 2.6964C4.75309 2.64001 4.85445 2.64001 4.97607 2.70768C5.07742 2.77535 5.16863 2.7979 5.16863 2.75279C5.16863 2.71895 5.28012 2.76407 5.42201 2.86557C5.7362 3.10241 5.83755 3.03474 5.9389 2.56106C5.99972 2.25655 6.32404 1.83926 6.4862 1.87309C6.51661 1.88437 6.64836 1.79414 6.78012 1.68136C7.11458 1.38813 7.37809 1.59114 7.57066 2.26783ZM7.54026 12.5987C7.49972 12.7791 7.4389 12.937 7.39836 12.9708C7.35782 13.0047 7.29701 13.14 7.25647 13.2753C7.21593 13.3994 7.11458 13.546 7.02336 13.5799C6.89161 13.6362 6.88147 13.625 6.98282 13.4896C7.05377 13.3994 7.08418 13.2753 7.05377 13.2077C7.02336 13.1513 7.0639 13.0723 7.15512 13.0385C7.2362 13.0047 7.35782 12.8242 7.4085 12.6325C7.55039 12.2039 7.63147 12.1926 7.54026 12.5987Z" fill="currentColor"/>
<path d="M4.62131 4.37714C4.54023 4.53504 4.83415 4.77188 4.98617 4.67038C5.05712 4.62526 5.08753 4.62526 5.04699 4.68166C5.00644 4.72677 5.14834 5.00872 5.35104 5.29068C5.95915 6.10271 6.19226 6.52 6.29361 6.93729C6.35442 7.15158 6.44563 7.33203 6.49631 7.33203C6.65847 7.33203 6.50644 6.54256 6.2328 6.03504C5.97942 5.55008 4.9659 4.27564 4.9659 4.44481C4.9659 4.5012 4.90509 4.47865 4.82401 4.41098C4.74293 4.33203 4.65171 4.32075 4.62131 4.37714Z" fill="currentColor"/>
<path d="M10.8958 4.51214C10.541 4.67003 9.79102 5.54973 9.27413 6.39559C8.62548 7.4783 8.72683 7.53469 9.48697 6.50838C9.81129 6.06853 10.1762 5.57229 10.2876 5.42567C10.3991 5.26777 10.6525 4.97454 10.8451 4.77153C11.2201 4.3768 11.2201 4.35424 10.8958 4.51214Z" fill="currentColor"/>
</svg>
