<svg width="15" height="15" viewBox="0 0 15 15" fill="none" xmlns="http://www.w3.org/2000/svg">
<path d="M7.10485 0.86078C6.13117 0.971436 5.49959 1.34029 5.13117 1.97963C4.90748 2.39766 4.67064 2.61898 4.30222 2.76652C3.03906 3.29521 2.1838 4.58619 2.22327 5.93865C2.22327 6.44275 2.15748 6.7993 1.96012 7.15586C1.80222 7.43865 1.57854 8.15176 1.44696 8.75422C0.762747 11.9386 1.53906 13.119 4.47327 13.328C7.13117 13.537 7.84169 13.537 8.40748 13.3403C8.72327 13.2419 9.13117 13.1559 9.31538 13.1559C9.80222 13.1559 11.1443 12.5534 11.3812 12.2214C11.4864 12.0616 11.697 11.9264 11.8417 11.9264C11.9733 11.9264 12.1312 11.8649 12.1706 11.8034C12.2101 11.7296 12.3549 11.6805 12.4864 11.6805C12.7627 11.6805 13.447 11.0288 13.7496 10.4755C13.9206 10.1313 13.9601 9.8116 13.9075 8.69275C13.8285 6.94685 13.197 4.22963 12.8285 4.10668C12.7233 4.0698 12.6706 3.97144 12.7101 3.88537C12.8417 3.5657 10.8812 2.32389 10.6312 2.5575C10.4864 2.69275 9.99959 2.60668 9.99959 2.44685C9.99959 2.37307 9.90748 2.12717 9.80222 1.86898C9.63117 1.50012 9.56538 1.45094 9.46012 1.59848C9.35485 1.74603 9.34169 1.72144 9.40748 1.52471C9.46012 1.3157 9.40748 1.24193 9.1838 1.19275C9.01275 1.15586 8.61801 1.04521 8.28906 0.95914C7.9338 0.860779 7.46012 0.8116 7.10485 0.86078ZM8.11801 1.46324C8.44696 1.47553 9.24959 2.0657 9.14433 2.22553C9.09169 2.28701 8.55222 2.33619 7.92064 2.32389C7.28906 2.32389 6.55222 2.36078 6.28906 2.39766C5.6838 2.49603 5.60485 2.23783 6.11801 1.86898C6.28906 1.73373 6.40748 1.59848 6.36801 1.5616C6.32854 1.52471 6.40748 1.52471 6.55222 1.5616C6.69696 1.58619 6.84169 1.57389 6.88117 1.51242C6.92064 1.46324 7.14433 1.42635 7.39433 1.43865C7.63117 1.45094 7.96012 1.46324 8.11801 1.46324ZM9.59169 3.0616C9.97327 3.13537 10.3154 3.19685 10.3417 3.19685C10.3549 3.19685 10.1838 3.47963 9.9338 3.83619C9.6838 4.18045 9.44696 4.63537 9.40748 4.84439C9.09169 6.38127 8.65748 6.87308 7.48643 7.00832C6.80222 7.09439 6.78906 7.08209 6.84169 6.49193C6.89433 5.74193 6.77591 5.65586 5.72327 5.65586C4.67064 5.65586 4.63117 5.68045 4.40748 6.39357C4.2759 6.78701 4.22327 6.82389 3.76275 6.83619C2.32854 6.87308 2.67064 4.46324 4.23643 3.51652C5.22327 2.91406 7.71012 2.70504 9.59169 3.0616ZM11.2627 5.40996C11.3022 5.85258 11.3417 6.72553 11.3549 7.36488L11.3812 8.53291L10.9864 8.74193C10.7759 8.85258 10.3943 8.98783 10.1706 9.03701C9.73643 9.12308 9.73643 9.11078 9.73643 8.64357C9.72327 8.38537 9.71012 7.78291 9.6838 7.3157C9.63117 6.38127 9.99959 5.00422 10.5391 4.19275L10.8154 3.76242L11.0127 4.19275C11.118 4.41406 11.2364 4.96734 11.2627 5.40996ZM12.2627 4.61078C12.447 4.94275 12.6443 5.44685 12.697 5.74193C12.7364 6.03701 12.8154 6.27062 12.868 6.27062C12.9206 6.27062 12.9733 6.41816 12.9733 6.60258C12.9864 6.7993 13.0391 7.36488 13.0917 7.86898C13.3022 9.63947 13.2496 10.1067 12.7496 10.6354C12.2233 11.2009 12.0917 11.1764 12.118 10.537C12.1706 9.25832 11.8285 4.73373 11.6312 4.14357C11.4733 3.68865 11.8943 3.99603 12.2627 4.61078ZM6.09169 6.41816C6.15748 6.66406 6.01275 7.58619 5.89433 7.68455C5.69696 7.84439 5.26275 7.84439 5.07854 7.68455C4.85485 7.46324 4.90748 6.60258 5.17064 6.29521C5.39433 6.02471 6.01275 6.11078 6.09169 6.41816ZM3.64433 7.38947C4.10485 7.41406 4.22327 7.47553 4.34169 7.75832C4.6838 8.50832 6.44696 8.54521 6.44696 7.79521C6.44696 7.67226 6.61801 7.62308 7.10485 7.62308C7.48643 7.62308 7.96012 7.53701 8.19696 7.41406C8.74959 7.14357 9.07854 7.09439 9.07854 7.29111C9.07854 7.36488 9.11801 8.21324 9.15748 9.15996C9.26275 11.3239 9.11801 12.1477 8.51275 12.6149L8.09169 12.9468L6.31538 12.8608C3.03906 12.7255 2.1838 12.4427 1.85485 11.3608C1.72327 10.9305 1.76275 9.43045 1.92064 9.20914C1.98643 9.11078 2.05222 8.92635 2.06538 8.79111C2.11801 8.39767 2.39433 7.46324 2.5259 7.21734C2.64433 7.00832 2.67064 7.00832 2.86801 7.18045C2.99959 7.27881 3.34169 7.37717 3.64433 7.38947ZM11.5522 10.2542C11.5127 11.41 11.118 11.9755 10.1049 12.3567C9.44696 12.6026 9.39433 12.5534 9.59169 11.9386C9.67064 11.6682 9.74959 11.0042 9.76275 10.4632C9.78906 9.52881 9.80222 9.47963 10.0522 9.52881C10.2101 9.5657 10.5654 9.49193 10.8549 9.35668C11.5654 9.04931 11.6049 9.09849 11.5522 10.2542Z" fill="black"/>
<path d="M2.565 9.20839C2.28869 9.71249 2.30185 11.0158 2.60448 11.5568C2.94658 12.2084 3.565 12.4174 5.315 12.4789C7.51237 12.5527 8.065 12.0977 8.07816 10.2289C8.09132 9.07315 8.02553 9.02397 6.35448 8.98708C5.64395 8.97479 4.55185 8.9379 3.92027 8.90102L2.77553 8.85184L2.565 9.20839ZM7.44658 9.62643C7.78869 9.9461 7.40711 11.5813 6.94658 11.815C6.61764 11.9871 4.4729 11.9625 3.78869 11.7904C3.44658 11.7043 3.2229 11.5568 3.09132 11.3109C2.89395 10.942 2.815 9.7002 2.99922 9.54036C3.10448 9.4297 7.32816 9.51577 7.44658 9.62643Z" fill="black"/>
</svg>
