<svg width="15" height="15" viewBox="0 0 15 15" fill="none" xmlns="http://www.w3.org/2000/svg">
<path d="M7.00505 2.12109C6.86869 2.16163 6.68274 2.25623 6.60836 2.3238C6.52158 2.40488 5.80257 2.45893 4.97199 2.44542C3.47199 2.41839 2.76538 2.58055 2.52985 2.98596C2.38109 3.26974 2.36869 5.14812 2.51745 5.04001C2.59183 4.99947 2.60423 5.0265 2.56704 5.10758C2.51745 5.17515 2.44307 5.78326 2.40588 6.44542C2.36869 7.09407 2.25712 7.9319 2.15794 8.29677C1.91001 9.2292 1.77365 12.2968 1.97199 12.2968C2.05877 12.2968 2.09596 12.3508 2.05877 12.4184C1.78604 12.8914 5.3191 13.1751 5.81497 12.7157C6.0753 12.4589 6.34803 12.4589 6.88109 12.7022C7.15381 12.8238 8.03398 13.067 8.61662 13.1751C9.11249 13.2697 10.6993 13.2697 11.4679 13.1751C13.4761 12.9319 13.8108 12.5806 13.7984 10.7697C13.7736 8.74272 13.2158 8.08055 11.2075 7.71569C10.3026 7.54001 9.90588 7.28326 9.4596 6.5265C9.16208 6.0265 9.13729 5.91839 9.12489 4.24272C9.11249 2.31028 9.01332 2.13461 7.98439 2.08055C7.5877 2.05353 7.14142 2.08055 7.00505 2.12109ZM8.28191 2.8238C8.38109 2.89136 8.43067 3.13461 8.40588 3.45893L8.36869 3.98596L7.66208 4.0265L6.95547 4.06704L6.86869 3.56704C6.80671 3.16163 6.8315 3.0265 7.00505 2.87785C7.26538 2.68866 8.03398 2.64812 8.28191 2.8238ZM6.19927 3.31028C6.29844 3.44542 6.33563 3.7292 6.27365 4.17515C6.21166 4.67515 6.23646 4.86434 6.38522 4.99947C6.62076 5.21569 6.62076 5.7292 6.39761 5.94542C6.18687 6.12109 6.27365 6.48596 6.52158 6.48596C6.8315 6.48596 6.98026 7.16163 6.74472 7.44542C6.47199 7.78326 6.70753 8.10758 7.2158 8.10758C7.73646 8.10758 8.30671 8.49947 8.30671 8.87785C8.30671 9.4319 8.56704 9.35082 9.16208 8.63461C9.71993 7.94542 9.76952 7.9319 10.1166 8.08055C10.315 8.16163 10.8108 8.29677 11.2199 8.37785C11.629 8.45893 12.0257 8.54001 12.1001 8.56704C12.6703 8.68866 13.1414 9.48596 13.1414 10.3643C13.1414 10.9454 12.3604 11.1481 10.0422 11.1481C8.54224 11.1481 7.88522 11.0535 6.63315 10.7022C6.36042 10.6211 6.05051 10.5535 5.95133 10.567C5.21993 10.6211 5.14555 10.567 5.12076 9.86434C5.07117 8.76974 4.55051 7.86434 3.55877 7.16163L3.0753 6.8238V5.3238C3.0629 3.05353 2.97613 3.17515 4.84803 3.12109C5.79018 3.10758 6.0753 3.14812 6.19927 3.31028ZM8.3191 4.83731C8.3191 4.89136 8.3439 5.04001 8.36869 5.16163C8.39348 5.33731 8.26952 5.41839 7.83563 5.5265C7.16621 5.67515 7.06704 5.63461 7.06704 5.20217C7.06704 4.94542 7.14142 4.87785 7.47613 4.83731C7.68687 4.81028 7.972 4.78326 8.09596 4.76974C8.20753 4.75623 8.30671 4.78326 8.3191 4.83731ZM8.67861 6.45893C8.67861 6.64812 8.56704 6.74272 8.3439 6.79677C8.14555 6.83731 7.87282 6.90488 7.73646 6.95893C7.41414 7.06704 7.22819 6.55353 7.51332 6.37785C7.92241 6.13461 8.67861 6.18866 8.67861 6.45893ZM9.21167 7.51299C9.24886 7.56704 9.16208 7.71569 9.00092 7.85082C8.72819 8.08055 8.66621 8.08055 8.35629 7.90488L8.00919 7.71569L8.3191 7.58055C8.66621 7.4319 9.10009 7.39136 9.21167 7.51299ZM3.47199 7.79677C3.98026 8.17515 4.2034 8.54001 4.41414 9.29677C4.67447 10.2697 4.61249 10.4049 3.88109 10.3914C2.44307 10.3508 2.43067 10.3373 2.74059 8.47244C2.90175 7.51299 2.98852 7.4319 3.47199 7.79677ZM4.43894 11.1481C5.17034 11.1887 5.87695 11.2427 6.01332 11.2697C6.39761 11.3508 7.9472 11.6211 8.43067 11.6887C8.66621 11.7292 9.37282 11.7968 10.0051 11.8373C11.0092 11.8914 11.4803 11.8508 12.8687 11.54C13.0546 11.4995 13.1414 11.54 13.1414 11.6887C13.1414 12.6887 8.65381 12.9589 7.01745 12.067C6.49679 11.7697 5.61662 11.7968 5.41828 12.0941C5.26952 12.2968 5.10836 12.3238 3.96786 12.2427C2.56704 12.1481 2.48026 12.1076 2.48026 11.3643C2.48026 10.9454 2.50505 10.9184 2.80257 10.9995C2.97613 11.0535 3.71993 11.1211 4.43894 11.1481Z" fill="currentColor"/>
</svg>
