<svg width="15" height="15" viewBox="0 0 15 15" fill="none" xmlns="http://www.w3.org/2000/svg">
<path d="M2.55145 2.08333C2.28532 2.31944 2.22484 2.55556 2.11597 3.58333C1.995 4.72222 2.07968 4.86111 2.84177 4.86111C3.59177 4.86111 3.65226 4.98611 3.44661 5.93056C3.27726 6.68056 3.34984 6.625 2.29742 6.72222C1.19661 6.81944 1.02726 6.98611 1.07564 7.875C1.11193 8.625 1.245 8.84722 1.71677 8.91667C2.18855 8.98611 2.18855 8.98611 1.93451 10.4167C1.65629 11.9722 1.66839 11.8472 1.80145 11.75C1.86193 11.7083 1.89822 11.7778 1.88613 11.9167C1.87403 12.1111 1.995 12.1667 2.46677 12.1944C3.22887 12.25 3.45871 12.0139 3.55548 11.0694C3.64016 10.2917 3.66435 10.1667 3.79742 9.47222C3.96677 8.65278 4.31758 8.875 4.41435 9.88889C4.51113 10.875 4.64419 11.25 4.89822 11.25C5.21274 11.25 5.29742 10.8056 5.15226 9.98611C4.9829 9.08333 5.0071 8.90278 5.29742 8.97222C5.40629 9 6.41032 9.04167 7.52322 9.06944C8.64822 9.09722 9.57968 9.15278 9.60387 9.18056C9.62806 9.20833 9.55548 9.81944 9.43451 10.5417C9.31355 11.25 9.24097 11.9306 9.27726 12.0417C9.36193 12.3056 9.82161 12.5 10.3418 12.5C10.9224 12.5 10.9708 12.3611 11.1764 10.2083C11.249 9.40278 11.3942 9.02778 11.6119 9.02778C11.8418 9.02778 12.0474 9.68056 12.1926 10.9028C12.2652 11.5278 12.3135 11.5972 12.616 11.6389C13.0152 11.6944 13.0273 11.5833 12.7127 10.1389C12.4587 8.94444 12.4587 8.94444 12.9305 8.81944C13.3055 8.73611 13.4265 8.44444 13.4265 7.70833C13.4265 7.01389 13.2813 6.875 12.4708 6.81944C12.3498 6.80556 12.3256 6.625 12.3861 6.01389C12.4708 5.09722 12.4224 5.18056 12.9184 5.09722C13.4627 5 13.366 5.23611 13.6563 3.27778C13.874 1.81944 14.3821 1.93056 7.05145 1.88889C3.39822 1.875 2.75709 1.90278 2.55145 2.08333ZM12.8821 2.66667C13.0756 2.90278 12.8942 4.29167 12.6523 4.31944C12.4345 4.34722 7.02726 4.29167 5.92645 4.23611C5.3579 4.22222 4.42645 4.19444 3.8458 4.18056L2.78129 4.16667V3.47222C2.78129 2.97222 2.84177 2.75 2.99903 2.63889C3.18048 2.51389 12.7732 2.52778 12.8821 2.66667ZM4.78935 5.02778C4.82564 5.08333 4.82564 5.45833 4.77726 5.88889C4.69258 6.63889 4.68048 6.66667 4.31758 6.66667H3.95468L4.03935 5.875C4.13613 4.97222 4.43855 4.63889 4.78935 5.02778ZM10.4385 5.125C10.4869 5.18056 10.499 5.59722 10.4506 6.02778L10.366 6.83333L8.05548 6.75C6.78532 6.70833 5.64822 6.68056 5.53935 6.66667C5.29742 6.66667 5.23693 5.83333 5.43048 5.23611L5.53935 4.90278L7.94661 4.97222C9.26516 5 10.3902 5.06944 10.4385 5.125ZM11.8297 5.93056C11.7934 6.70833 11.7813 6.72222 11.3821 6.81944L10.9829 6.91667L11.0555 6.40278C11.0918 6.125 11.1281 5.73611 11.1281 5.51389C11.1281 5.19444 11.1764 5.13889 11.491 5.13889H11.866L11.8297 5.93056ZM7.31758 7.40278C9.18048 7.45833 11.1764 7.5 11.7692 7.5C12.7974 7.5 12.8216 7.5 12.8216 7.83333C12.8216 8.06944 12.7248 8.20833 12.5555 8.29167C12.241 8.41667 5.11597 8.38889 4.49903 8.26389C4.19661 8.19444 4.11193 8.22222 4.18451 8.34722C4.245 8.45833 4.2208 8.48611 4.12403 8.41667C4.03935 8.34722 3.61597 8.29167 3.16839 8.26389C2.7208 8.25 2.21274 8.22222 2.03129 8.20833C1.74097 8.19444 1.69258 8.13889 1.69258 7.77778C1.69258 7.31944 1.70468 7.31944 2.78129 7.34722C3.14419 7.36111 3.53129 7.30556 3.62806 7.23611C3.72484 7.15278 3.83371 7.15278 3.87 7.20833C3.90629 7.27778 5.45468 7.36111 7.31758 7.40278ZM3.19258 9.5C3.14419 9.81944 3.0958 10.3611 3.0958 10.7083C3.08371 11.0556 3.03532 11.3472 2.96274 11.3611C2.90226 11.3611 2.7329 11.3889 2.59984 11.4167C2.46677 11.4444 2.37 11.3889 2.38209 11.2917C2.40629 11.1944 2.47887 10.6667 2.55145 10.1111C2.70871 9.08333 2.76919 8.93056 3.0958 8.93056C3.22887 8.93056 3.25306 9.05556 3.19258 9.5ZM10.7531 9.30556C10.7531 9.41667 10.6805 10.0139 10.6079 10.625C10.4748 11.6667 10.4385 11.7361 10.1603 11.7361C9.89419 11.7361 9.8579 11.6806 9.89419 11.3194C9.93048 10.8611 10.1482 9.47222 10.2208 9.20833C10.2934 8.97222 10.7652 9.04167 10.7531 9.30556Z" fill="currentColor"/>
</svg>
