<svg width="15" height="15" viewBox="0 0 15 15" fill="none" xmlns="http://www.w3.org/2000/svg">
<path d="M6.81171 1.79717C6.64334 1.87438 6.45967 1.97364 6.39844 2.03982C6.33722 2.09497 6.27599 2.106 6.27599 2.05085C6.27599 1.9957 6.15354 2.02879 6.01579 2.11703C5.86273 2.20526 5.26579 2.46997 4.66885 2.70159C4.08722 2.9332 3.5515 3.17585 3.49028 3.24203C3.42905 3.3082 3.36783 3.33026 3.36783 3.27512C3.36783 3.231 3.09232 3.31923 2.77089 3.48467C1.82191 3.93688 1.83722 4.34497 2.83211 4.4332C3.27599 4.46629 3.2913 4.47732 3.33722 5.15012L3.38313 5.84497H2.90865C2.23518 5.84497 2.06681 6.20894 2.32701 7.15747C2.5413 7.9185 2.49538 7.88541 3.41375 7.92953C3.56681 7.94056 3.67395 8.02879 3.67395 8.15012C3.67395 8.42585 2.86273 10.9295 2.41885 12.0104C2.09742 12.7935 2.09742 12.8266 2.37293 12.97C2.67905 13.1354 3.09232 13.0251 3.15354 12.7825C3.3066 12.0435 3.56681 11.7236 4.40865 11.2714C4.88313 11.0178 5.67905 10.5876 6.15354 10.3119L7.02599 9.81556L8.21987 10.4884C8.87803 10.8523 9.68926 11.3045 10.0413 11.492C10.5311 11.7457 10.6995 11.9332 10.8525 12.3523C11.0515 12.8928 11.2964 13.0582 11.7097 12.9479C12.0464 12.8486 11.9546 12.4295 10.9444 9.42953C10.577 8.3707 10.577 8.00673 10.9444 7.96262C11.9852 7.84129 11.9546 7.88541 12.0005 6.61703L12.0158 5.90012L11.526 5.86703L11.0362 5.83394L11.0668 5.09497L11.0974 4.356L11.6637 4.32291C12.9188 4.2457 12.7352 3.80453 11.1893 3.18688C10.7148 2.98835 10.0566 2.72364 9.71987 2.59129C7.14844 1.5435 7.31681 1.58762 6.81171 1.79717ZM8.15864 2.59129C8.46477 2.7457 9.21477 3.06556 9.82701 3.3082L10.9444 3.74938L9.56681 3.76041C7.0566 3.7935 3.64334 3.76041 3.58211 3.69423C3.5515 3.66114 3.56681 3.66114 3.61273 3.69423C3.67395 3.71629 3.90354 3.65012 4.13313 3.52879C4.37803 3.40747 4.60762 3.3082 4.65354 3.3082C4.69946 3.3082 5.09742 3.15379 5.5413 2.95526C7.31681 2.19423 7.33211 2.19423 8.15864 2.59129ZM7.50048 5.13909V5.84497H5.83211H4.16375L4.10252 5.22732C4.08722 4.88541 4.08722 4.56556 4.13313 4.52144C4.24028 4.40012 5.31171 4.34497 6.5515 4.38909L7.50048 4.4332V5.13909ZM10.2862 5.00673C10.3627 5.87806 10.3933 5.84497 9.26069 5.84497C8.15864 5.84497 8.15864 5.83394 8.23518 4.95159C8.2964 4.37806 8.32701 4.36703 9.67395 4.34497L10.225 4.33394L10.2862 5.00673ZM10.9903 6.39644C11.1127 6.39644 11.174 6.57291 11.174 6.89276V7.38909L9.07701 7.40012C6.67395 7.40012 4.24028 7.37806 3.67395 7.34497C3.42905 7.32291 3.26069 7.22364 3.19946 7.04717C2.93926 6.38541 2.89334 6.40747 5.02089 6.37438C6.56681 6.35232 9.75048 6.36335 10.9903 6.39644ZM8.0362 8.43688C7.11783 9.0435 7.13313 9.0435 6.27599 8.43688L5.58722 7.94056H7.19436L8.8015 7.95159L8.0362 8.43688ZM9.85762 8.65747C9.90354 8.90012 10.0413 9.4957 10.1791 9.96997C10.3015 10.4553 10.3933 10.8523 10.3627 10.8744C10.3321 10.8964 9.75048 10.5545 9.0464 10.1244L7.76069 9.34129L8.15864 9.13173C8.37293 9.02144 8.8015 8.75673 9.12293 8.5582C9.45967 8.34864 9.71987 8.1832 9.73518 8.19423C9.75048 8.20526 9.7964 8.41482 9.85762 8.65747ZM5.75558 8.95526C6.47497 9.39644 6.47497 9.38541 5.43416 9.96997C5.02089 10.2126 4.60762 10.4553 4.51579 10.5214C3.96477 10.9516 3.85762 10.9406 3.88824 10.4332C3.88824 10.1685 3.94946 9.96997 3.99538 9.99203C4.0566 10.0141 4.13313 9.82659 4.19436 9.56188C4.25558 9.3082 4.36273 8.91114 4.45456 8.67953C4.62293 8.20526 4.53109 8.1832 5.75558 8.95526Z" fill="currentColor"/>
</svg>
