<svg width="15" height="15" viewBox="0 0 15 15" fill="none" xmlns="http://www.w3.org/2000/svg">
<path d="M6.02507 1.29444C5.68473 1.39122 5.42003 1.52428 5.42003 1.58477C5.42003 1.65735 5.357 1.66944 5.29398 1.63315C5.04188 1.48799 3.71835 2.5888 3.86961 2.81864C3.90742 2.89122 3.88221 2.90332 3.80658 2.86703C3.61751 2.74606 2.74776 4.17348 2.5965 4.86299C2.40742 5.74606 2.3444 5.89122 2.06709 6.14525C1.57549 6.59283 1.62591 7.72993 2.15532 8.15332L2.54608 8.46783L2.58389 10.3186C2.6091 11.3227 2.65952 12.2541 2.70994 12.363C3.08809 13.2582 10.2478 13.4033 12.2394 12.5565C12.7057 12.363 12.7436 12.1694 12.7183 10.0767C12.7057 8.38315 12.7183 8.29848 12.9957 8.10493C13.5251 7.70573 13.5503 6.27832 13.0209 6.12106C12.857 6.07267 12.7183 5.79444 12.5545 5.17751C12.2772 4.12509 11.8612 3.24203 11.7099 3.3388C11.6469 3.37509 11.6091 3.36299 11.6217 3.30251C11.6721 3.13315 11.3318 2.64928 11.2057 2.72186C11.1427 2.77025 11.0923 2.75815 11.1049 2.69767C11.1553 2.50412 10.941 2.17751 10.7646 2.17751C10.6637 2.17751 10.5881 2.12912 10.5881 2.06864C10.5881 2.00815 10.3234 1.8388 9.99566 1.69364C9.65532 1.54848 9.27717 1.37912 9.15112 1.30654C8.82339 1.13719 6.74356 1.01622 6.8444 1.17348C6.88221 1.23396 6.8444 1.29444 6.74356 1.29444C6.64272 1.29444 6.5923 1.24606 6.63011 1.18557C6.66793 1.13719 6.68053 1.0888 6.65532 1.1009C6.63011 1.11299 6.3528 1.19767 6.02507 1.29444ZM7.75196 1.69364C7.78978 1.75412 7.71415 1.81461 7.58809 1.81461C7.37381 1.81461 7.07129 2.09283 6.42843 2.86703C5.97465 3.41138 5.42003 5.18961 5.42003 6.12106V6.44767L4.55028 6.37509C3.30238 6.26622 3.02507 6.14525 3.1007 5.72186C3.25196 4.8509 3.71835 3.67751 4.03347 3.36299C4.22255 3.15735 4.24776 3.07267 4.13431 2.98799C4.02087 2.91541 4.03347 2.90332 4.17213 2.93961C4.29818 2.9759 4.49986 2.89122 4.66372 2.72186C5.02927 2.34686 5.94944 1.91138 6.74356 1.74202C7.57549 1.56057 7.66373 1.54848 7.75196 1.69364ZM9.57969 2.2138C9.81919 2.33477 10.1091 2.51622 10.2225 2.61299C10.336 2.70977 10.4494 2.77025 10.4746 2.75815C10.4999 2.73396 10.5125 2.74606 10.4999 2.77025C10.4746 2.79444 10.5755 2.91541 10.7141 3.02428C11.0671 3.31461 11.7982 4.89928 11.899 5.6009C12.0125 6.31461 11.9242 6.36299 10.0083 6.48396C9.25196 6.52025 8.53347 6.61703 8.39482 6.67751C8.23095 6.76219 8.19314 6.76219 8.24356 6.66541C8.30658 6.56864 8.00406 6.53235 7.26036 6.53235H6.17633V5.9638C6.17633 4.53638 6.71835 3.29041 7.73936 2.39525C8.45784 1.77832 8.70994 1.74202 9.57969 2.2138ZM3.27717 6.82267C5.45784 7.25815 11.1175 7.25815 12.2015 6.82267C12.441 6.73799 12.6553 6.65332 12.6679 6.65332C12.6931 6.65332 12.731 6.84686 12.7562 7.0767C12.7814 7.30654 12.7814 7.4638 12.7436 7.43961C12.7183 7.40332 12.6301 7.4638 12.5545 7.56057C12.0629 8.2017 3.07549 8.2017 2.52087 7.56057C2.31919 7.33073 2.50826 6.62912 2.76036 6.7017C2.87381 6.73799 3.1007 6.78638 3.27717 6.82267ZM12.1007 10.0888C12.1007 11.3348 12.0503 11.8549 11.9494 11.9517C11.773 12.0848 10.6763 12.3025 9.69314 12.3872C9.37801 12.4235 9.06288 12.4598 8.99986 12.4719C8.93683 12.484 8.44524 12.484 7.91583 12.4719L6.94524 12.4598V11.2985C6.93263 9.97993 6.88221 9.87106 6.1133 9.68961C4.65112 9.3388 4.28557 9.64122 4.28557 11.1896V12.3146L3.80658 12.1573L3.3402 12.0001L3.30238 10.2219L3.26457 8.45574L4.49986 8.54041C6.08809 8.66138 10.462 8.62509 11.2814 8.47993C11.6343 8.41944 11.9494 8.37106 12.0125 8.35896C12.0629 8.35896 12.1007 9.13315 12.1007 10.0888ZM6.26457 10.488C6.30238 10.5848 6.3402 10.9719 6.32759 11.3469C6.32759 12.5565 6.37801 12.484 5.70994 12.4114C5.36961 12.3872 5.06709 12.3509 5.01667 12.3509C4.86541 12.3388 4.89062 10.4759 5.04188 10.3307C5.21835 10.1614 6.17633 10.2823 6.26457 10.488Z" fill="currentColor"/>
</svg>
