<svg width="15" height="15" viewBox="0 0 15 15" fill="none" xmlns="http://www.w3.org/2000/svg">
<path d="M8.67134 1.77608C8.46679 1.93565 7.94407 3.28672 7.79634 4.01012C7.69407 4.45693 7.35316 5.58459 7.28497 5.65906C7.25088 5.69097 6.88725 5.7548 6.47816 5.78672C6.06907 5.81863 5.53497 5.87182 5.28497 5.8931C2.73952 6.11651 2.27361 6.29736 2.27361 7.05268C2.27361 7.24416 2.37588 7.35055 2.72816 7.49948C3.34179 7.7548 3.33043 7.72289 3.08043 8.74416C2.95543 9.22289 2.83043 9.76544 2.79634 9.94629C2.54634 11.2122 2.5577 11.191 2.21679 11.042C1.72816 10.8293 1.00088 11.4037 1.34179 11.7229C1.40997 11.7867 1.4327 11.8931 1.40997 11.9569C1.34179 12.1165 1.9327 12.6484 2.22816 12.7016C2.34179 12.7335 2.67134 12.8293 2.95543 12.925C3.54634 13.1271 5.61452 13.2229 5.95543 13.0527C6.11452 12.9782 6.20543 12.9888 6.29634 13.0952C7.33043 14.308 10.7054 14.191 12.6145 12.8931C12.9441 12.6697 13.9441 11.7548 13.8645 11.7548C13.8532 11.7548 13.8759 11.6271 13.9213 11.4569C14.0918 10.8399 13.4213 10.4144 12.8872 10.7974C12.5463 11.042 12.4782 10.9888 12.5577 10.5208C12.6032 10.2761 12.6486 9.88246 12.6713 9.63778C12.6827 9.3931 12.7282 9.10587 12.7622 8.98885C12.8077 8.87182 12.8532 8.60587 12.8872 8.40374C12.91 8.20161 12.9895 7.91438 13.0463 7.76544C13.1145 7.61651 13.2509 7.09523 13.3532 6.59523C13.4668 6.09523 13.6486 5.28672 13.7736 4.78672C14.1259 3.37182 14.1827 3.08459 14.0804 3.08459C14.0236 3.08459 14.0122 3.02076 14.0463 2.94629C14.2054 2.55268 13.2054 2.18033 12.9668 2.54204C12.8986 2.63778 12.2168 2.64842 12.2168 2.55268C12.2168 2.54204 12.1032 2.51012 11.9668 2.48885C11.8191 2.46757 11.5918 2.42502 11.4554 2.40374C11.3077 2.38246 11.1941 2.35055 11.1941 2.33991C11.1941 2.32927 10.8645 2.30799 10.4554 2.28672C10.0463 2.27608 9.71679 2.21225 9.71679 2.1697C9.69407 1.72289 9.03497 1.47821 8.67134 1.77608ZM9.31907 2.46757C9.31907 2.60587 9.21679 3.04204 9.09179 3.45693C8.97816 3.86119 8.89861 4.22289 8.9327 4.24416C8.95543 4.26544 8.9327 4.33991 8.87588 4.40374C8.77361 4.51012 8.60316 5.18034 8.3077 6.51012C8.25088 6.72289 8.08043 7.01012 7.92134 7.15906C7.75088 7.29736 7.61452 7.48885 7.61452 7.57395C7.61452 7.76544 7.50088 7.88246 7.37588 7.80799C7.31907 7.77608 7.34179 7.62714 7.4327 7.46757C7.52361 7.30799 7.61452 7.01012 7.64861 6.80799C7.67134 6.60587 7.78497 6.22289 7.88725 5.95693C7.98952 5.69097 8.06907 5.38246 8.06907 5.2548C8.06907 5.13778 8.22816 4.60587 8.40997 4.08459C8.60316 3.56331 8.78497 3.02076 8.81907 2.88246C8.94407 2.29736 9.31907 1.98885 9.31907 2.46757ZM11.6827 3.04204L12.5236 3.23353L12.4554 3.55268C12.3645 3.97821 12.3986 3.96757 11.4554 3.82927C11.0009 3.7548 10.4441 3.68033 10.2282 3.64842C9.76225 3.58459 9.54634 3.44629 9.54634 3.20161C9.54634 2.74416 10.1372 2.70161 11.6827 3.04204ZM13.5236 3.27608C13.5236 3.54204 12.7963 6.2548 12.7054 6.33991C12.66 6.37182 12.5463 6.38246 12.4668 6.35055C12.3077 6.29736 12.3872 5.83991 12.7963 4.41438C12.8304 4.29736 12.8759 4.12714 12.8986 4.04204C12.91 3.95693 12.9554 3.80799 12.9895 3.72289C13.035 3.63778 13.1145 3.42502 13.1827 3.26544C13.2963 2.95693 13.5236 2.96757 13.5236 3.27608ZM10.0804 4.3931C9.87588 5.27608 9.48952 6.56331 9.39861 6.6697C9.34179 6.74416 9.17134 6.80799 9.03497 6.80799C8.77361 6.80799 8.77361 6.79736 8.9327 6.30799C9.02361 6.02076 9.12588 5.58459 9.15997 5.32927C9.25088 4.56331 9.46679 4.20161 9.83043 4.1697C10.1032 4.14842 10.1372 4.18033 10.0804 4.3931ZM11.1486 4.36119C11.2168 4.36119 11.2054 4.44629 11.1372 4.57395C11.0691 4.69097 11.0463 4.78672 11.0804 4.78672C11.1145 4.78672 11.0691 4.95693 10.9782 5.15906C10.8872 5.36119 10.7736 5.74416 10.7282 6.01012C10.6486 6.52076 10.2963 6.86119 10.1145 6.59523C10.0236 6.46757 10.1259 5.97821 10.2963 5.73353C10.3418 5.6697 10.3872 5.5314 10.3986 5.43565C10.4554 4.90374 10.7395 4.2548 10.8872 4.30799C10.9668 4.33991 11.0918 4.36119 11.1486 4.36119ZM12.1145 4.64842C12.0804 4.7548 12.0236 4.95693 11.9895 5.10587C11.6713 6.46757 11.6713 6.48885 11.3872 6.48885C11.0918 6.48885 11.0804 6.56331 11.5122 5.24416C11.7054 4.64842 11.8077 4.46757 11.9668 4.46757C12.1145 4.46757 12.16 4.52076 12.1145 4.64842ZM7.11452 6.3931C7.19407 6.52076 7.01225 6.73353 6.77361 6.76544C6.6827 6.77608 6.38725 6.81863 6.11452 6.85055C5.84179 6.8931 5.42134 6.94629 5.17134 6.97821C4.92134 7.01012 4.53497 7.07395 4.31907 7.11651C4.10316 7.15906 3.81907 7.18034 3.69407 7.18034C3.56907 7.1697 3.33043 7.15906 3.15997 7.14842C2.35316 7.09523 3.06907 6.71225 4.09179 6.63778C4.4327 6.61651 4.84179 6.57395 5.00088 6.54204C5.15997 6.51012 5.56907 6.45693 5.90997 6.42502C6.25088 6.3931 6.5577 6.35055 6.58043 6.31863C6.6827 6.23353 7.03497 6.27608 7.11452 6.3931ZM12.6145 7.07395C12.6145 7.15906 12.5236 7.27608 12.3986 7.32927C12.1941 7.43565 11.9782 7.47821 10.7963 7.60587C10.4554 7.64842 10.0918 7.70161 10.0009 7.73353C9.51225 7.91438 8.44407 7.94629 8.28497 7.79736C8.06907 7.59523 8.63725 7.35055 9.37588 7.31863C9.75088 7.29736 10.1259 7.24416 10.2054 7.19097C10.285 7.14842 10.3759 7.12714 10.3986 7.14842C10.4327 7.1697 10.8191 7.13778 11.2736 7.06331C12.4213 6.88246 12.6145 6.8931 12.6145 7.07395ZM6.9327 7.38246C6.9327 7.77608 6.67134 7.95693 5.88725 8.13778C5.4327 8.24416 4.98952 8.35055 4.92134 8.37182C4.75088 8.43565 4.72816 8.01012 4.87588 7.77608C5.00088 7.59523 6.9327 7.23353 6.9327 7.38246ZM4.20543 7.93565C4.20543 8.02076 4.09179 8.33991 3.95543 8.63778C3.76225 9.05268 3.73952 9.23353 3.81907 9.45693C3.9327 9.73353 3.88725 10.1378 3.62588 11.0314C3.46679 11.574 3.10316 11.6697 3.15997 11.1591C3.21679 10.6803 3.29634 10.2335 3.34179 10.1059C3.37588 10.0208 3.4327 9.82927 3.45543 9.68033C3.48952 9.5314 3.59179 9.08459 3.69407 8.6697C3.78497 8.26544 3.86452 7.8931 3.86452 7.85055C3.86452 7.79736 3.94407 7.76544 4.03497 7.76544C4.12588 7.76544 4.20543 7.83991 4.20543 7.93565ZM12.3191 8.26544C12.2736 8.48885 12.2054 8.74416 12.16 8.82927C12.1145 8.91438 12.035 9.41438 11.9895 9.94629C11.8759 11.3931 11.8418 11.5314 11.6372 11.6697C11.3418 11.8718 11.3304 11.808 11.4668 10.7761C11.535 10.2654 11.6145 9.57395 11.6372 9.2548C11.7168 8.49948 11.8986 7.99948 12.1372 7.94629C12.2395 7.91438 12.3418 7.8931 12.3645 7.88246C12.3872 7.88246 12.3645 8.05268 12.3191 8.26544ZM11.2395 8.38246C11.1486 8.64842 11.0804 8.68033 10.7622 8.63778C9.76225 8.5314 9.97816 8.29736 11.2736 8.09523C11.3191 8.09523 11.3077 8.22289 11.2395 8.38246ZM8.21679 8.40374C8.42134 8.40374 8.4327 8.45693 8.35316 9.01012C8.23952 9.83991 8.20543 9.90374 7.85316 9.83991C7.69407 9.80799 7.37588 9.7548 7.15997 9.73353C6.15997 9.60587 4.70543 9.31863 4.56907 9.22289C4.31907 9.04204 4.87588 8.82927 5.96679 8.6697C6.21679 8.63778 6.62588 8.55268 6.87588 8.49948C7.12588 8.43565 7.38725 8.37182 7.46679 8.36119C7.54634 8.35055 7.64861 8.30799 7.69407 8.26544C7.72816 8.22289 7.81907 8.23353 7.88725 8.29736C7.94407 8.35055 8.10316 8.40374 8.21679 8.40374ZM9.65997 8.46757C9.65997 8.49948 9.61452 8.60587 9.5577 8.71225C9.45543 8.88246 8.96679 11.0314 8.8077 11.9995C8.71679 12.4995 8.38725 12.6059 8.31907 12.1591C8.28497 11.9676 8.84179 9.33991 9.04634 8.70161C9.10316 8.51012 9.65997 8.29736 9.65997 8.46757ZM10.8872 9.13778C10.9554 9.14842 11.0236 9.26544 11.0236 9.40374C11.0236 9.61651 10.9441 9.6697 10.4554 9.7548C9.78497 9.88246 9.73952 9.85055 9.95543 9.38246C10.0804 9.08459 10.1486 9.04204 10.4213 9.08459C10.5918 9.10587 10.8077 9.13778 10.8872 9.13778ZM5.71679 10.1165C6.13725 10.2229 6.13725 10.2229 6.13725 10.7974C6.13725 11.4676 6.13725 11.4676 5.26225 11.574C4.10316 11.7229 3.98952 11.574 4.34179 10.2867C4.45543 9.82927 4.51225 9.82927 5.71679 10.1165ZM10.9554 10.7761C10.8191 12.042 10.8304 12.0208 10.535 12.0633C10.4441 12.074 10.285 12.1378 10.1941 12.2123C10.1032 12.2867 9.86452 12.3293 9.65997 12.3186C9.3077 12.2974 9.29634 12.2867 9.37588 11.8612C9.40997 11.6271 9.47816 11.2229 9.51225 10.9569C9.58043 10.3718 9.54634 10.3931 10.2622 10.2654C11.0236 10.1165 11.0236 10.1165 10.9554 10.7761ZM7.10316 10.6059C7.06907 10.8293 6.95543 11.0846 6.85316 11.1697C6.70543 11.308 6.69407 11.2761 6.76225 10.8505C6.85316 10.2974 6.89861 10.2122 7.06907 10.2122C7.13725 10.2122 7.15997 10.3612 7.10316 10.6059ZM8.02361 10.6591C7.97816 10.9676 7.61452 11.0633 7.61452 10.7654C7.61452 10.5314 7.70543 10.425 7.92134 10.425C8.01225 10.425 8.0577 10.5208 8.02361 10.6591ZM13.0918 11.7654C12.9213 11.9676 12.6941 12.1591 12.5918 12.191C12.4782 12.2229 12.3872 12.2867 12.3872 12.3399C12.3872 12.4782 10.7963 13.1591 10.1486 13.2974C9.71679 13.3931 8.10316 13.3931 7.76225 13.308C7.73952 13.2974 7.69407 13.2974 7.64861 13.2867C7.38725 13.2548 6.92134 12.9463 6.96679 12.8399C7.01225 12.7016 7.19407 12.7016 7.84179 12.8186C8.51225 12.9463 9.56907 12.9144 10.3418 12.7442C10.8986 12.6165 11.7054 12.308 11.8191 12.1697C11.8986 12.0952 12.0236 12.0208 12.0918 12.0208C12.1713 12.0208 12.3532 11.8931 12.5122 11.7442C13.0804 11.1697 13.5804 11.191 13.0918 11.7654ZM2.5577 11.7123C2.9327 11.925 4.39861 12.2654 4.5577 12.1803C4.59179 12.1591 4.86452 12.1271 5.1827 12.1165C5.70543 12.0952 6.85316 11.7974 7.3077 11.574C7.56907 11.4463 7.85316 11.542 7.77361 11.7335C7.72816 11.8505 6.73952 12.3612 6.47816 12.3931C6.44407 12.4037 6.23952 12.4463 6.02361 12.4888C5.60316 12.5846 3.73952 12.5952 3.35316 12.5101C2.37588 12.2761 1.72816 11.8825 1.94407 11.6271C2.10316 11.4569 2.06907 11.4463 2.5577 11.7123Z" fill="currentColor"/>
</svg>
