<svg width="15" height="15" viewBox="0 0 15 15" fill="none" xmlns="http://www.w3.org/2000/svg">
<path d="M3.17959 2.34968C2.44078 2.54735 1.53406 3.83805 1.67959 4.47759C1.71317 4.65201 1.79153 9.26828 1.79153 11.5125V13.4892L2.10496 13.5706C2.34003 13.6287 3.88481 13.652 4.79153 13.6171C4.85869 13.6055 4.92585 13.5241 4.92585 13.4194C4.92585 13.3148 4.98183 13.2799 5.06018 13.3264C5.14974 13.3846 5.16093 13.3497 5.11615 13.2218C5.08257 13.1171 5.09377 13.0008 5.13854 12.9776C5.19451 12.9427 5.20571 12.6055 5.18332 12.2334L5.12735 11.5474L5.45197 11.5706C5.61988 11.5822 5.79899 11.6055 5.83257 11.6055C5.86615 11.6171 5.87735 12.0125 5.84377 12.4776C5.7878 13.5939 5.87735 13.6753 7.0975 13.6404C8.38481 13.6055 9.146 13.5008 9.28033 13.3264C9.3363 13.2567 9.38108 12.8381 9.35869 12.4078L9.31391 11.6287H9.68332H10.0527L10.0303 12.4078C10.0191 13.4892 10.1311 13.5822 11.6199 13.652C12.9296 13.7218 13.0415 13.6985 13.2654 13.245C13.5117 12.7683 13.5676 4.08224 13.3326 3.51247C13.2542 3.30317 13.1647 3.15201 13.1423 3.17526C13.1199 3.19852 12.8848 3.0241 12.6273 2.76829C11.9445 2.11712 11.4632 2.18689 10.7915 3.0241C10.1982 3.75666 10.1535 3.83805 10.1087 4.33805C10.0415 4.89619 10.0303 4.91945 9.73929 4.96596C9.57138 4.98922 9.51541 4.90782 9.45944 4.55898C9.42585 4.32642 9.36988 4.01247 9.3363 3.87294C9.31391 3.72177 9.00048 3.29154 8.65347 2.90782C7.70197 1.87294 7.32138 1.90782 6.43705 3.08224C6.19078 3.39619 5.9669 3.68689 5.92212 3.72177C5.83257 3.79154 5.82138 3.83805 5.82138 4.34968C5.82138 4.76829 5.55272 5.16363 5.32884 5.08224C5.26168 5.04735 5.2169 4.95433 5.23929 4.87294C5.30645 4.60549 5.13854 3.7334 5.00421 3.58224C4.92585 3.50084 4.70197 3.22177 4.51168 2.97759C4.07511 2.41945 3.64974 2.22177 3.17959 2.34968ZM3.97436 3.33805C4.18705 3.58224 4.36615 3.84968 4.36615 3.91945C4.36615 4.00084 4.42212 4.07061 4.47809 4.07061C4.61242 4.07061 4.56765 12.7334 4.44451 12.8613C4.35496 12.9543 2.5975 12.966 2.50794 12.8846C2.48556 12.8497 2.42959 10.8264 2.4072 8.38456C2.36242 3.51247 2.31765 3.88456 3.02287 3.18689C3.39227 2.8148 3.5266 2.83805 3.97436 3.33805ZM8.17212 3.38456C8.4072 3.65201 8.61988 3.96596 8.65347 4.08224C8.69824 4.25666 8.67585 12.1636 8.63108 12.7567C8.61988 12.9776 6.64974 12.966 6.57138 12.7567C6.5378 12.6636 6.50421 10.8846 6.50421 8.80317C6.49302 6.71015 6.48182 4.96596 6.48182 4.90782C6.42585 4.57061 6.5266 4.07061 6.69451 3.84968C7.52287 2.72177 7.56765 2.71015 8.17212 3.38456ZM12.2915 3.53573L12.8176 4.05898L12.8288 5.51247C12.84 6.3148 12.8736 7.04735 12.9072 7.15201C12.952 7.24503 12.9296 7.34968 12.8736 7.38456C12.7841 7.4427 12.7505 8.61712 12.7393 11.8846C12.7393 12.5706 12.6945 12.9078 12.6162 12.9194C11.8102 13.0125 10.8475 12.9892 10.7915 12.8846C10.7467 12.8148 10.7132 10.8032 10.7244 8.41945C10.7244 3.67526 10.6908 3.96596 11.3848 3.22177C11.6423 2.9427 11.6982 2.96596 12.2915 3.53573ZM10.0751 5.98922C10.0751 6.25666 10.0079 6.41945 9.88481 6.48922C9.54899 6.66363 9.40347 6.5241 9.40347 6.03573C9.40347 5.60549 9.42585 5.58224 9.73929 5.58224C10.0527 5.58224 10.0751 5.61712 10.0751 5.98922ZM5.82138 6.16363C5.82138 6.59387 5.79899 6.62875 5.50794 6.62875C5.2169 6.62875 5.18332 6.58224 5.17212 6.25666C5.16093 5.77991 5.2169 5.69852 5.55272 5.69852C5.7878 5.69852 5.82138 5.74503 5.82138 6.16363ZM10.0191 8.25666V9.33805L9.7169 9.37294L9.40347 9.40782V8.32642C9.40347 7.14038 9.40347 7.12875 9.76168 7.15201C10.0079 7.17526 10.0191 7.21015 10.0191 8.25666ZM5.83257 7.71015C5.86615 9.43108 5.88854 9.36131 5.53033 9.36131H5.20571L5.18332 8.43108C5.14974 7.29154 5.16093 7.26829 5.53033 7.2334C5.79899 7.21015 5.82138 7.24503 5.83257 7.71015ZM5.82138 10.466C5.82138 10.9078 5.79899 10.9311 5.48556 10.9311C5.17212 10.9311 5.14974 10.9078 5.14974 10.466C5.14974 10.0241 5.17212 10.0008 5.48556 10.0008C5.79899 10.0008 5.82138 10.0241 5.82138 10.466ZM10.0751 10.466C10.0751 10.9427 9.99675 11.0008 9.51541 10.9311C9.26914 10.8962 9.26914 10.8846 9.3475 10.4194C9.41466 10.059 9.47063 10.0008 9.75048 10.0008C10.0527 10.0008 10.0751 10.0357 10.0751 10.466Z" fill="currentColor"/>
<path d="M3.35938 4.5367C3.35938 5.10647 3.39296 5.23438 3.53848 5.23438C3.6952 5.23438 3.71758 5.14135 3.65042 4.69949C3.61684 4.39717 3.58326 4.08321 3.58326 4.00182C3.58326 3.90879 3.53848 3.83903 3.47132 3.83903C3.40415 3.83903 3.35938 4.15298 3.35938 4.5367Z" fill="currentColor"/>
<path d="M3.07962 6.72229C2.99007 7.29206 3.15798 7.73392 3.32589 7.37345C3.46022 7.09438 3.44902 6.74555 3.28111 6.46648C3.18036 6.2688 3.14678 6.30369 3.07962 6.72229Z" fill="currentColor"/>
<path d="M3.41517 8.73417C3.28084 9.50161 3.39278 10.5132 3.62786 10.5597C3.81815 10.6063 3.82935 10.5365 3.76218 9.57137C3.68383 8.46672 3.52711 8.10626 3.41517 8.73417Z" fill="currentColor"/>
<path d="M3.30333 11.4767C3.21377 11.686 3.20258 11.7674 3.23616 12.1628C3.25855 12.5232 3.5496 12.1163 3.52721 11.7442C3.50482 11.3023 3.41527 11.2093 3.30333 11.4767Z" fill="currentColor"/>
<path d="M7.46749 4.57081C7.41152 4.96616 7.46749 6.09407 7.56824 6.39639C7.61301 6.54756 7.6354 6.54756 7.72495 6.39639C7.88167 6.15221 7.87048 4.41965 7.71376 4.41965C7.65779 4.41965 7.6354 4.36151 7.66898 4.30337C7.70257 4.2336 7.69137 4.18709 7.6354 4.18709C7.57943 4.18709 7.50107 4.36151 7.46749 4.57081Z" fill="currentColor"/>
<path d="M7.10932 7.55982C7.04216 7.6761 7.08693 8.3854 7.21007 9.01331C7.24365 9.14121 7.26604 9.29238 7.26604 9.35052C7.27723 9.40866 7.35559 9.3854 7.44514 9.304C7.57947 9.18773 7.61305 8.99005 7.56828 8.45517C7.51231 7.75749 7.27723 7.28075 7.10932 7.55982Z" fill="currentColor"/>
<path d="M7.79127 10.3144C7.67933 10.7097 7.80247 11.8027 7.95918 11.8027C8.09351 11.8027 8.1159 11.6167 8.07112 10.3725C8.05993 10.0702 7.88083 10.0353 7.79127 10.3144Z" fill="currentColor"/>
<path d="M11.5746 4.47714C11.4962 4.7911 11.5857 5.90738 11.6977 6.02366C11.8208 6.16319 11.9104 5.88412 11.9551 5.19807C11.9887 4.63993 11.9551 4.43063 11.8208 4.31435C11.6753 4.18645 11.6417 4.2097 11.5746 4.47714Z" fill="currentColor"/>
<path d="M11.464 6.31468C11.3744 6.55887 11.4975 7.09375 11.6431 7.09375C11.7886 7.09375 11.7886 6.51235 11.6431 6.2798C11.5535 6.14026 11.5311 6.14026 11.464 6.31468Z" fill="currentColor"/>
<path d="M11.911 9.00172C11.8214 9.23428 11.9222 9.80404 12.0565 9.85055C12.1796 9.89707 12.2916 9.38544 12.2244 9.0366C12.1796 8.80404 12.0005 8.76916 11.911 9.00172Z" fill="currentColor"/>
</svg>
