<svg width="15" height="15" viewBox="0 0 15 15" fill="none" xmlns="http://www.w3.org/2000/svg">
<path d="M6.54806 1.39238C6.24806 1.49953 6.20893 1.5531 6.0785 2.05667L6.00024 2.34595L4.39589 2.33524C1.95676 2.32453 1.20024 2.61381 1.5785 3.39595C1.72198 3.68524 1.73502 4.16738 1.61763 6.11738C1.55241 7.44596 1.59154 7.4781 3.9785 7.54238C4.77415 7.56381 5.54372 7.59595 5.70024 7.59595C5.98719 7.60667 5.98719 7.61738 5.94806 9.23524L5.89589 10.8745L5.51763 10.9388C5.02198 11.0245 4.46111 11.3245 4.3698 11.5817C4.31763 11.6888 4.17415 11.7852 4.01763 11.7852C3.62633 11.7852 3.00024 12.1281 3.00024 12.3424C3.00024 12.5781 3.32633 12.7067 3.56111 12.5567C3.83502 12.3745 4.22633 12.3531 4.5785 12.5031C5.04806 12.6852 5.33502 12.4495 5.11328 12.0638C4.94372 11.7531 5.07415 11.5817 5.4785 11.5495C5.75241 11.5174 5.81763 11.571 5.84372 11.8174C5.89589 12.1281 6.19589 12.3102 6.39154 12.1495C6.54806 12.021 6.63937 10.9388 6.69154 9.03167C6.70459 8.1531 6.7698 7.54238 6.83502 7.58524C6.90024 7.61738 7.10893 7.64953 7.29154 7.66024L7.63067 7.67095L7.59154 9.11738C7.56546 9.91024 7.52633 10.9495 7.51328 11.4424C7.46111 12.5888 7.73502 12.8245 8.21763 12.0531C8.37415 11.8174 8.53067 11.721 8.84372 11.6995C9.24806 11.6674 9.26111 11.6781 9.26111 12.096C9.26111 12.6317 9.3785 12.696 9.96546 12.4602C10.3828 12.2995 10.4481 12.2995 10.6568 12.4495C11.1524 12.8031 11.4524 12.3102 10.9698 11.9567C10.8263 11.8495 10.5915 11.7852 10.422 11.8067C10.2133 11.8281 10.0698 11.7531 9.91328 11.5174C9.74372 11.2602 9.58719 11.1852 9.15676 11.1317C8.8698 11.0995 8.64806 11.1102 8.68719 11.1531C8.71328 11.196 8.62198 11.2067 8.4785 11.1745C8.24372 11.121 8.21763 11.046 8.2698 10.6174C8.30893 10.3495 8.37415 9.55667 8.42633 8.87096L8.50459 7.60667L10.122 7.66024C11.0089 7.68167 11.7655 7.66024 11.8046 7.60667C11.8437 7.5531 11.9611 7.53167 12.0524 7.56381C12.235 7.6281 12.6394 7.34953 12.6655 7.14595C12.7176 6.69595 12.7959 5.49595 12.7959 5.14238C12.7828 5.05667 12.822 4.51024 12.8611 3.94238L12.9394 2.9031L12.4437 2.73167C11.9742 2.57095 10.722 2.4531 9.22198 2.43167C8.59589 2.42095 8.58285 2.42095 8.66111 2.09953C8.80459 1.5531 8.49154 1.31738 7.60459 1.30667C7.1872 1.29595 6.71763 1.33881 6.54806 1.39238ZM7.91763 2.0031C8.04806 2.27095 7.65676 2.48524 7.2785 2.36738C6.84806 2.23881 6.71763 2.06738 6.90024 1.88524C7.08285 1.71381 7.82633 1.79953 7.91763 2.0031ZM8.8698 3.04238C9.9785 3.07453 11.035 3.1281 11.2176 3.14953C12.235 3.33167 12.2742 3.34238 12.2089 3.5031C12.1698 3.58881 12.1307 3.84595 12.1307 4.07095V4.48881L11.5176 4.52095C10.9959 4.5531 10.8915 4.58524 10.8915 4.76738C10.8915 4.93881 10.9959 4.99238 11.4133 5.01381C12.1437 5.06738 12.1698 5.11024 12.0002 6.09596L11.8437 6.96381L11.2959 6.97453C11.0089 6.97453 9.96546 6.97453 9.00024 6.96381C8.03502 6.9531 7.03067 6.94238 6.78285 6.94238C5.4785 6.9531 4.0698 6.93167 3.71763 6.91024C3.50893 6.88881 3.18285 6.86738 3.00024 6.86738C2.36111 6.84596 2.24372 6.62096 2.40024 5.78524C2.42633 5.63524 2.45241 5.41024 2.46546 5.27095C2.4785 5.09953 2.55676 5.03524 2.7785 5.03524C3.20893 5.03524 3.44372 4.87453 3.31328 4.68167C3.19589 4.51024 3.1698 4.49953 2.72633 4.49953C2.46546 4.49953 2.45241 4.45667 2.51763 3.97453C2.55676 3.66381 2.53067 3.40667 2.45241 3.34238C1.94372 2.92453 3.02632 2.88167 8.8698 3.04238Z" fill="currentColor"/>
</svg>
