<svg width="15" height="15" viewBox="0 0 15 15" fill="none" xmlns="http://www.w3.org/2000/svg">
<path d="M8.30155 1.67363C8.281 1.69671 8.06525 1.74286 7.81867 1.77748C6.75018 1.93901 6.52415 2.37747 6.61662 4.09671C6.67826 5.31978 6.66798 5.42363 6.5036 5.43517C6.40086 5.43517 6.2262 5.46978 6.11319 5.49286C6.00018 5.52748 5.74333 5.57363 5.54812 5.59671C2.56867 6.06978 2.53785 6.08132 2.02415 6.66978C0.739903 8.14671 1.10977 11.4006 2.66114 12.289C2.94881 12.4506 3.28785 12.5775 3.41114 12.5775C3.7399 12.5775 5.12689 12.2429 5.35292 12.1159C5.69196 11.9082 5.85634 12.0006 6.08237 12.5313C6.44196 13.4082 6.98648 13.7659 7.8084 13.6967C8.40429 13.639 10.2331 13.0506 11.0447 12.6467C11.2194 12.5544 11.5173 12.4275 11.7228 12.3582C12.0413 12.2429 12.5241 11.8159 12.5241 11.6544C12.5241 11.6198 12.5755 11.4352 12.6372 11.2506C13.0276 10.1198 12.6063 8.94286 11.62 8.36594C11.4454 8.27363 11.3015 8.12363 11.2913 8.04286C11.2913 7.97363 11.2707 7.01594 11.2502 5.94286C11.1783 2.21594 11.1885 2.33132 11.0036 2.14671C10.7468 1.88132 8.48648 1.48901 8.30155 1.67363ZM10.2125 2.43517C10.5824 2.63132 10.5515 2.71209 10.0584 2.93132C9.41114 3.21978 7.52072 3.18517 7.2536 2.88517C7.20223 2.81594 7.17141 2.75824 7.20223 2.74671C7.81867 2.31978 9.61662 2.13517 10.2125 2.43517ZM10.6851 4.17747C10.6851 4.58132 10.6851 5.00824 10.6851 5.13517C10.6954 5.26209 10.6954 6.00055 10.6954 6.76209L10.6851 8.15824L10.3563 8.31978C10.1714 8.40055 9.9762 8.48132 9.91456 8.5044C9.55497 8.58517 9.37004 8.6544 9.09264 8.76978C8.92826 8.83901 8.76388 8.89671 8.73305 8.88517C8.39401 8.81594 6.781 9.4044 6.49333 9.7044C6.18511 10.039 5.78442 10.7313 5.90771 10.7313C5.94881 10.7313 5.93853 10.8006 5.88716 10.8698C5.84607 10.9506 5.80497 11.0659 5.80497 11.1236C5.80497 11.1698 5.58922 11.3082 5.32209 11.4236C5.0447 11.539 4.84949 11.5967 4.85977 11.5621C5.16798 10.8813 5.27072 10.4544 5.29127 9.77363C5.32209 8.86209 5.31182 8.87363 5.82552 8.81594C6.58579 8.72363 7.2947 8.45824 7.32552 8.25055C7.35634 8.0544 6.82209 8.0544 6.31867 8.23901C5.5173 8.55055 5.19881 8.49286 5.0447 8.01978C4.97278 7.80055 4.75703 7.38517 4.57209 7.09671C4.15086 6.49671 4.12004 6.53132 5.34264 6.30055C6.83237 6.02363 7.20223 6.01209 7.62346 6.19671C7.97278 6.34671 8.52757 6.99286 8.52757 7.23517C8.52757 7.36209 8.93853 7.37363 8.94881 7.24671C8.9899 6.93517 8.96936 6.81978 8.76388 6.42748C8.58922 6.09286 8.36319 5.89671 7.85977 5.64286L7.19196 5.28517V4.41978C7.19196 3.63517 7.21251 3.56594 7.37689 3.63517C7.46936 3.68132 8.09607 3.75055 8.76388 3.78517C9.65771 3.81978 9.94538 3.86594 9.87346 3.96978C9.781 4.09671 9.82209 5.29671 9.92483 5.42363C10.0687 5.57363 10.1714 5.0544 10.1303 4.41978C10.0892 3.81978 10.1098 3.68132 10.2536 3.58901C10.6132 3.34671 10.6851 3.43901 10.6851 4.17747ZM4.09949 7.46594C5.13716 8.88517 4.74675 11.8852 3.51388 11.8852C2.33237 11.8852 1.62346 10.2813 1.89059 8.21594C2.08579 6.72748 3.25703 6.32363 4.09949 7.46594ZM11.5173 9.08132C12.0721 9.45055 12.3289 10.6967 11.9591 11.2852C11.805 11.539 11.0755 12.0006 10.8289 12.0006C10.757 12.0006 10.5721 12.0698 10.4077 12.1621C10.12 12.3236 9.15429 12.6929 9.031 12.6929C8.9899 12.6929 9.02072 12.4967 9.09264 12.2659C9.21593 11.8621 9.25703 11.8275 10.0584 11.5967C10.9933 11.3198 11.4351 11.0198 10.7365 11.1352C10.3666 11.2044 9.77072 11.3544 9.33922 11.4929C9.2262 11.5275 9.14401 11.4121 9.06182 11.1006C8.9899 10.8467 8.82552 10.4544 8.67141 10.2121C8.37346 9.71594 8.41456 9.63517 8.9899 9.47363C9.77072 9.26594 10.5002 9.01209 10.5618 8.9544C10.6748 8.81594 11.2296 8.89671 11.5173 9.08132ZM7.88031 10.1775C8.29127 10.2236 8.66114 11.8852 8.40429 12.5082C8.07552 13.3275 6.92483 13.3044 6.61662 12.4852C6.17483 11.2852 6.67826 9.91209 7.50018 10.1082C7.64401 10.1429 7.81867 10.1659 7.88031 10.1775Z" fill="currentColor"/>
<path d="M8.13765 4.3046C7.98354 4.51229 8.02464 4.86998 8.20957 5.10075C8.36368 5.27383 8.37395 5.23921 8.40478 4.78921C8.42532 4.25845 8.31231 4.06229 8.13765 4.3046Z" fill="currentColor"/>
<path d="M9.56445 6.75018C9.58499 7.28095 9.72883 7.75403 9.76993 7.41941C9.88294 6.56557 9.84184 6.11557 9.64664 6.11557C9.58499 6.11557 9.55417 6.38095 9.56445 6.75018Z" fill="currentColor"/>
<path d="M7.0176 6.76277C6.13404 6.95892 5.75391 7.09738 5.75391 7.23585C5.75391 7.37431 5.88747 7.44354 6.1135 7.38585C6.96623 7.20123 7.72651 6.93585 7.87034 6.78585C7.92171 6.71662 7.27445 6.70508 7.0176 6.76277Z" fill="currentColor"/>
<path d="M3.01002 7.5245C2.06481 7.81297 1.99289 9.91297 2.90728 10.9053C3.58536 11.6322 4.44837 10.5245 4.17098 9.27835C4.05796 8.7822 3.90385 8.98989 3.90385 9.63604C3.90385 10.5937 3.4518 11.0207 3.01002 10.4668C2.74289 10.1437 2.68125 9.90143 2.6607 9.1745C2.64015 8.38989 2.64015 8.37835 2.86618 8.10143C3.11276 7.76681 3.20522 7.77835 3.58536 8.21681C3.87303 8.55143 3.90385 8.56297 3.90385 8.34373C3.90385 7.8822 3.39015 7.40912 3.01002 7.5245Z" fill="currentColor"/>
<path d="M3.10238 9.17374C3.12293 9.48527 3.18458 9.75066 3.26677 9.78527C3.4517 9.8545 3.43115 8.9545 3.22567 8.75835C3.09211 8.63143 3.07156 8.67758 3.10238 9.17374Z" fill="currentColor"/>
<path d="M10.3042 9.95774C9.9035 10.1654 9.46172 10.4193 9.32815 10.5231C9.10213 10.7077 9.10213 10.7077 9.55418 10.6039C10.8487 10.2924 11.496 9.95774 11.3521 9.68081C11.2597 9.51928 11.1056 9.56543 10.3042 9.95774Z" fill="currentColor"/>
<path d="M7.06937 10.859C6.5454 11.1937 7.0591 12.4629 7.71663 12.4629C8.23033 12.4629 8.24061 11.5514 7.72691 11.0206C7.42896 10.709 7.3365 10.686 7.06937 10.859ZM7.71663 11.6206C7.81937 11.9321 7.74746 12.186 7.54198 12.2783C7.38787 12.3475 7.14129 11.5167 7.23376 11.2283C7.31595 11.009 7.58307 11.2283 7.71663 11.6206Z" fill="currentColor"/>
</svg>
