<svg width="15" height="15" viewBox="0 0 15 15" fill="none" xmlns="http://www.w3.org/2000/svg">
<path d="M5.81034 2.03437C5.38497 2.4677 5.03796 2.85659 5.03796 2.91214C5.03796 2.9677 4.87004 3.24548 4.66855 3.53437C4.46706 3.82325 4.03049 4.45659 3.69467 4.94548C3.37004 5.43437 2.91109 6.11214 2.67602 6.45659C2.42975 6.81214 2.20587 7.17881 2.16109 7.28992C2.11631 7.40103 1.90363 7.7677 1.67975 8.11214C1.03049 9.10103 0.54915 10.0788 0.627508 10.2677C0.784224 10.6566 1.07527 10.4344 1.64616 9.4677C1.97079 8.93437 2.28422 8.44548 2.35139 8.3677C2.40736 8.28992 2.46333 8.18992 2.46333 8.13437C2.46333 8.07881 2.55288 7.93437 2.66482 7.80103C2.76557 7.6677 3.01184 7.31214 3.19094 7.00103C3.95213 5.73437 4.43348 5.12325 4.60139 5.22325C4.78049 5.34548 5.38497 5.27881 5.6984 5.12325C5.8887 5.02325 5.92228 5.05659 5.97825 5.38992C6.02303 5.60103 6.09019 5.77881 6.13497 5.77881C6.17975 5.77881 6.2693 5.88992 6.32527 6.02325C6.57154 6.57881 7.2096 6.32325 7.73572 5.47881L7.9596 5.12325L8.37378 5.33437C8.59766 5.45659 8.92228 5.55659 9.10139 5.55659C9.34766 5.55659 9.43721 5.62325 9.53796 5.88992C9.67228 6.27881 9.96333 6.47881 10.1872 6.33437C10.3103 6.25659 10.3103 6.15659 10.1648 5.73437C10.0081 5.2677 10.0081 5.21214 10.2096 5.00103C10.5902 4.60103 10.7357 4.74548 11.7208 6.50103C12.1797 7.31214 13.0081 9.08992 13.0641 9.3677C13.1312 9.73437 13.4223 10.3344 13.5342 10.3344C13.5902 10.3344 13.7245 10.2566 13.8253 10.1566C14.038 9.93437 13.9932 9.65659 13.5902 8.81214C13.4447 8.50103 13.3215 8.20103 13.3215 8.14548C13.3215 8.01214 12.6611 6.75659 12.4932 6.55659C12.4148 6.4677 12.2693 6.23437 12.1797 6.05659C11.0715 3.92325 10.7133 3.62325 10.0193 4.25659L9.59393 4.64548L9.30288 4.24548C9.14616 4.01214 8.93348 3.67881 8.84393 3.50103C8.75437 3.31214 8.5081 2.92325 8.28422 2.63437C7.05288 0.967699 6.88497 0.923254 5.81034 2.03437ZM7.36631 2.54548C7.62378 2.84548 7.83646 3.12325 7.83646 3.15659C7.83646 3.18992 8.07154 3.5677 8.35139 4.00103C8.94467 4.91214 8.93348 4.9677 8.329 4.6677C7.79169 4.38992 7.54542 4.48992 7.22079 5.14548C6.89616 5.77881 6.78422 5.7677 6.49318 5.05659C6.21333 4.37881 6.16855 4.35659 5.35139 4.61214C5.04915 4.70103 4.81407 4.73437 4.81407 4.70103C4.81407 4.40103 6.59393 2.00103 6.81781 2.00103C6.86258 2.00103 7.12004 2.24548 7.36631 2.54548Z" fill="currentColor"/>
<path d="M7.33259 6.57853C7.07513 6.72297 5.88856 7.72297 5.11617 8.44519C4.55647 8.96742 4.4893 9.33408 4.93707 9.33408C5.11617 9.33408 5.13856 9.40075 5.09378 9.85631C5.02662 10.4674 5.0602 10.4341 4.62363 10.3674C4.34378 10.323 4.24304 10.2341 4.14229 9.95631C3.81766 8.95631 3.28035 8.94519 2.74304 9.92297C2.54154 10.2785 2.36244 10.523 2.31766 10.4896C2.0602 10.2341 1.32139 11.123 1.43333 11.5896C1.5005 11.923 1.8699 11.7563 2.04901 11.3119C2.10498 11.1563 2.19453 11.1341 2.45199 11.1785C2.72065 11.2341 2.8102 11.2119 2.86617 11.0452C3.01169 10.5785 3.35871 9.88964 3.45945 9.88964C3.58259 9.88964 3.69453 10.1674 3.69453 10.5007C3.69453 10.8341 3.9408 11.023 4.28781 10.9452C4.80274 10.8119 5.03781 10.9674 5.03781 11.4341C5.03781 11.8452 5.02662 11.8674 4.52289 11.9896C3.86244 12.1563 3.47065 12.4119 3.47065 12.6785C3.47065 12.9341 3.61617 12.9452 4.28781 12.7119C4.71318 12.5674 5.17214 12.5452 6.85124 12.6007C10.1199 12.6896 9.90722 12.7119 11.8998 12.1452C12.0005 12.1119 12.1012 12.0119 12.1012 11.9341C12.1124 11.8452 12.1348 11.6785 12.146 11.5563C12.1572 11.4341 12.1796 11.2785 12.1908 11.223C12.2132 11.0007 12.6498 11.1119 12.8289 11.3896C13.1871 11.9341 13.5789 11.6119 13.3214 10.9896C13.1647 10.6119 12.9072 10.4452 12.493 10.4452C12.2132 10.4452 12.202 10.4119 12.202 9.87853C12.202 9.56742 12.2468 9.22297 12.3139 9.11186C12.4595 8.85631 12.0229 8.25631 11.1498 7.50075C10.2654 6.74519 10.1535 6.70075 9.06766 6.63408C8.54154 6.60075 7.98184 6.54519 7.83632 6.51186C7.6796 6.47853 7.45572 6.50075 7.33259 6.57853ZM9.85125 7.35631C10.008 7.41186 10.4333 7.74519 10.8027 8.11186L11.4632 8.77853H10.758C10.0863 8.77853 10.0303 8.75631 9.42587 8.24519C9.06766 7.95631 8.74304 7.65631 8.69826 7.57853C8.65348 7.51186 8.53035 7.44519 8.45199 7.44519C8.36244 7.44519 8.28408 7.38964 8.28408 7.32297C8.28408 7.18964 9.41468 7.21186 9.85125 7.35631ZM7.6796 7.62297C7.82513 7.72297 8.19453 8.02297 8.48557 8.28964C8.77662 8.55631 9.05647 8.77853 9.10125 8.77853C9.15722 8.77853 9.16841 8.82297 9.12363 8.87853C9.09005 8.94519 8.70945 8.95631 8.2505 8.92297C7.81393 8.88964 7.03035 8.85631 6.53781 8.85631L5.6199 8.86742L6.42587 8.15631C7.32139 7.36742 7.29901 7.37853 7.6796 7.62297ZM9.13483 9.58964C9.15722 9.61186 9.1908 10.1674 9.20199 10.823L9.23557 12.0119L8.78781 11.9785L8.34005 11.9452V11.0007V10.0563L8.00423 10.0007C6.91841 9.81186 6.60498 10.0896 6.60498 11.223C6.60498 11.9563 6.52662 12.0563 5.9893 11.9563L5.6199 11.8785L5.67587 10.8563C5.70945 10.2896 5.73184 9.74519 5.74304 9.64519C5.75423 9.46742 5.89975 9.45631 7.42214 9.48964C8.34005 9.52297 9.11244 9.55631 9.13483 9.58964ZM11.4968 10.4785L11.508 11.4563L11.0042 11.6785C10.7356 11.7896 10.355 11.8896 10.1759 11.8896C9.81766 11.8896 9.81766 11.8896 9.85125 10.3341C9.87363 9.41186 9.85125 9.43408 10.7244 9.46742L11.4744 9.50075L11.4968 10.4785ZM7.75796 10.6896C7.73557 10.7452 7.72438 11.0563 7.72438 11.4007C7.72438 11.9674 7.70199 12.0119 7.4893 11.9785C7.03035 11.9119 7.07513 10.5785 7.53408 10.6007C7.66841 10.6007 7.76916 10.6452 7.75796 10.6896Z" fill="currentColor"/>
<path d="M10.4895 9.96821C10.3216 10.1238 10.4112 11.0127 10.5903 11.0793C10.9037 11.2015 11.0269 10.7015 10.8701 9.91265C10.8477 9.8571 10.5567 9.89043 10.4895 9.96821Z" fill="currentColor"/>
</svg>
