<svg width="15" height="15" viewBox="0 0 15 15" fill="none" xmlns="http://www.w3.org/2000/svg">
<path d="M6.13255 0.925986C5.06589 1.41535 4.09922 2.53237 4.277 3.08556C4.34366 3.27705 4.31033 3.28769 3.99922 3.22386C3.59922 3.14939 2.75477 3.38343 2.85477 3.54301C2.88811 3.60684 2.86589 3.61747 2.78811 3.57492C2.71033 3.52173 2.54366 3.60684 2.377 3.79833C2.22144 3.9579 1.977 4.21322 1.83255 4.36216C1.15477 5.05364 1.04366 6.28769 1.577 7.29833L1.85477 7.83024L1.64366 8.24513C1.377 8.7345 1.28811 9.44726 1.45477 9.64939C1.52144 9.72386 1.55477 9.78769 1.51033 9.78769C1.39922 9.78769 1.75477 10.4047 1.91033 10.5005C1.98811 10.543 2.11033 10.6813 2.177 10.7983C2.24366 10.9153 2.33255 10.9898 2.36589 10.9579C2.39922 10.926 2.49922 10.9898 2.58811 11.1068C2.66589 11.2132 2.91033 11.3196 3.12144 11.3302C3.33255 11.3515 3.49922 11.3728 3.49922 11.3834C3.49922 11.3941 3.72144 11.426 3.99922 11.4473C4.377 11.4898 4.62144 11.4366 5.03255 11.2451C5.32144 11.0962 5.58811 11.0217 5.62144 11.0749C5.65478 11.1281 5.95478 11.2877 6.28811 11.4366C6.62144 11.5856 6.88811 11.7558 6.89922 11.8302C6.95478 13.0005 6.95478 13.2983 6.88811 13.4047C6.79922 13.543 6.96589 14.1388 7.08811 14.16C7.45478 14.2345 8.06589 14.2026 8.13255 14.1068C8.277 13.9153 8.23255 13.2026 8.06589 12.8196C7.977 12.6175 7.94366 12.4473 7.99922 12.4473C8.05478 12.4473 8.077 12.309 8.04366 12.1494C7.96589 11.809 8.08811 11.6813 8.66589 11.5005C8.877 11.4366 9.19922 11.2664 9.38811 11.1281L9.71033 10.8834L10.1659 11.1175C11.2881 11.7026 12.9881 11.1281 13.5103 10.0005C13.6992 9.5962 13.7437 8.47918 13.5659 8.42599C13.5103 8.40471 13.477 8.33024 13.5103 8.24513C13.5437 8.17067 13.4992 8.04301 13.4103 7.96854C13.277 7.85152 13.3103 7.75577 13.5992 7.30896C13.8881 6.85152 13.9437 6.6813 13.9548 5.96854C13.9548 5.52173 13.9214 5.0962 13.8548 5.02173C13.7992 4.9579 13.7881 4.89407 13.8214 4.89407C13.8659 4.89407 13.8326 4.78769 13.7548 4.64939C13.677 4.52173 13.6214 4.38343 13.6103 4.34088C13.6103 4.2345 12.6881 3.42599 12.4103 3.28769C12.1214 3.13875 11.7881 3.06428 11.3548 3.06428C11.0437 3.06428 10.9437 2.98982 10.6992 2.61747C10.5437 2.38343 10.3659 2.16003 10.3103 2.14939C10.2659 2.12811 10.2437 2.07492 10.277 2.03237C10.3214 1.94726 9.63255 1.27705 9.48811 1.27705C9.45478 1.27705 9.28811 1.19194 9.13255 1.08556C8.68811 0.787688 8.11033 0.617475 8.11033 0.777049C8.11033 0.862156 8.06589 0.851517 8.01033 0.755773C7.92144 0.617475 7.877 0.617475 7.71033 0.755773C7.56589 0.862156 7.54366 0.862156 7.59922 0.766411C7.74366 0.532369 6.74366 0.638752 6.13255 0.925986ZM7.56589 1.34088C7.96589 1.34088 8.33255 1.41535 8.63255 1.56428C8.88811 1.69194 9.12144 1.76641 9.16589 1.72386C9.21033 1.6813 9.22144 1.70258 9.19922 1.76641C9.177 1.83024 9.29922 2.04301 9.477 2.22386C9.64366 2.40471 9.75478 2.55365 9.72144 2.55365C9.65478 2.55365 9.78811 2.72386 10.1326 3.08556C10.2326 3.19194 10.2881 3.30896 10.2548 3.34088C10.2214 3.37279 10.2214 3.51109 10.2659 3.64939C10.3214 3.87279 10.377 3.90471 10.6881 3.86216C11.4881 3.75577 11.8659 3.79833 12.2326 4.04301C12.5992 4.28769 13.1437 4.78769 13.0548 4.78769C13.0326 4.78769 13.077 4.96854 13.1548 5.1813C13.2992 5.57492 13.2881 6.16003 13.1214 6.67067C13.1103 6.69194 13.1214 6.71322 13.1326 6.72386C13.1437 6.74513 12.9659 6.94726 12.7548 7.17067L12.3548 7.58556L12.6326 8.02173C12.9992 8.57492 13.0881 9.2345 12.8437 9.6813C12.7548 9.87279 12.6992 10.0749 12.7437 10.1388C12.777 10.1919 12.7548 10.2132 12.6881 10.1707C12.6214 10.1388 12.5326 10.16 12.4881 10.2239C12.1103 10.8196 10.3659 10.809 10.1659 10.2132C10.0437 9.83024 9.78811 9.89407 9.19922 10.426C8.877 10.7239 8.53255 10.9579 8.43255 10.9579C8.32144 10.9579 8.16589 11.0217 8.08811 11.0962C7.96589 11.2132 7.94366 11.0643 7.95478 10.2239C7.96589 9.0962 8.04366 8.61747 8.32144 8.13875C8.49922 7.8196 9.33255 6.86216 9.33255 6.97918C9.33255 7.04301 10.1326 6.47918 10.2437 6.33024C10.3992 6.13875 10.3326 5.85152 10.1548 5.85152C9.88811 5.85152 8.65478 6.5962 8.72144 6.71322C8.76589 6.76641 8.71033 6.80896 8.62144 6.80896C8.45478 6.80896 8.38811 6.93662 8.43255 7.16003C8.44366 7.21322 8.41033 7.22386 8.35478 7.19194C8.31033 7.17067 8.16589 7.28769 8.05478 7.4579C7.74366 7.88343 7.72144 7.86216 7.71033 7.10684C7.69922 5.76641 7.63255 4.90471 7.54366 4.9579C7.48811 4.98982 7.48811 4.90471 7.54366 4.76641C7.63255 4.53237 7.59922 3.84088 7.48811 3.51109C7.43255 3.37279 7.41033 3.38343 7.28811 3.54301C7.177 3.6813 7.14366 4.2345 7.177 5.87279C7.21033 7.80896 7.19922 7.98982 7.04366 7.80896C6.94366 7.70258 6.89922 7.6813 6.94366 7.76641C6.977 7.85152 6.85478 7.75577 6.66589 7.55364C6.477 7.35152 6.277 7.19194 6.22144 7.20258C6.16589 7.22386 6.09922 7.13875 6.05478 7.03237C5.99922 6.85152 5.75478 6.72386 5.53255 6.74513C5.48811 6.75577 5.38811 6.67067 5.31033 6.57492C5.09922 6.29833 4.58811 6.14939 4.51033 6.33024C4.477 6.41535 4.68811 6.63875 5.03255 6.89407C6.74366 8.16003 7.31033 9.03237 7.077 10.0536C7.02144 10.2877 6.95478 10.5856 6.93255 10.7239C6.88811 10.9473 6.86589 10.9579 6.56589 10.809C6.38811 10.7132 6.22144 10.6813 6.177 10.7132C6.14366 10.7558 6.11033 10.7239 6.11033 10.6494C6.11033 10.5749 6.06589 10.543 6.02144 10.5749C5.96589 10.6068 5.85478 10.5111 5.777 10.3728C5.56589 9.98982 4.88811 10.0324 4.88811 10.4366C4.88811 10.6707 4.56589 10.8515 4.13255 10.8515C3.777 10.8515 2.777 10.5536 2.777 10.4366C2.777 10.4047 2.65477 10.2345 2.49922 10.0749C2.05477 9.61747 1.99922 8.84088 2.377 8.29833C2.75477 7.75577 2.74366 7.57492 2.32144 7.12811C1.96589 6.75577 1.92144 6.54301 1.99922 5.53237C2.077 4.64939 3.077 3.91535 4.22144 3.89407C4.83255 3.88343 4.83255 3.88343 4.81033 3.57492C4.79922 3.39407 4.85478 3.1813 4.94366 3.08556C5.03255 2.98982 5.077 2.87279 5.03255 2.84088C4.99922 2.79833 5.02144 2.76641 5.08811 2.76641C5.16589 2.76641 5.22144 2.70258 5.22144 2.61747C5.22144 2.54301 5.29922 2.41535 5.38811 2.34088C5.477 2.26641 5.53255 2.17067 5.49922 2.12811C5.46589 2.08556 5.53255 1.97918 5.63255 1.90471C5.78811 1.77705 5.81033 1.77705 5.73255 1.91535C5.68811 2.00045 5.75478 1.9579 5.877 1.8196C6.01033 1.6813 6.11033 1.61747 6.11033 1.66003C6.11033 1.71322 6.18811 1.67067 6.277 1.55365C6.35478 1.44726 6.48811 1.39407 6.54366 1.43662C6.61033 1.46854 6.69922 1.42599 6.73255 1.33024C6.777 1.2345 6.84366 1.19194 6.877 1.24513C6.91033 1.28769 7.22144 1.33024 7.56589 1.34088Z" fill="black"/>
</svg>
