<svg width="15" height="15" viewBox="0 0 15 15" fill="none" xmlns="http://www.w3.org/2000/svg">
<path d="M7.07739 2.37084C7.04406 2.41923 6.34406 2.45552 5.53295 2.47971C4.72184 2.49181 3.95517 2.5402 3.83295 2.58858C3.65517 2.64907 2.2885 4.59665 1.83295 5.41923C1.64406 5.77003 1.17739 6.47165 1.09961 6.53213C1.05517 6.56842 0.988503 6.73778 0.944058 6.91923C0.866281 7.27003 0.944058 7.31842 1.66628 7.4031L1.94406 7.43939V9.67729C1.94406 12.1571 1.94406 12.2176 1.67739 12.2176C1.57739 12.2176 1.43295 12.3749 1.36628 12.5926C1.23295 12.9555 1.24406 12.9676 1.49961 12.9071C1.65517 12.8829 1.77739 12.895 1.77739 12.9434C1.77739 12.9797 1.9885 13.0281 2.24406 13.0281C7.53295 13.1491 9.1885 13.1612 9.8885 13.0644C10.3441 13.0039 11.0441 12.9192 11.4441 12.8829C11.8441 12.8587 12.2774 12.8104 12.4107 12.7741C12.5552 12.7378 12.6885 12.762 12.7218 12.8346C12.7663 12.895 12.8663 12.9071 12.9774 12.8346C13.0885 12.7741 13.2441 12.762 13.3329 12.8225C13.5996 12.9797 13.9663 12.6289 13.8107 12.3628C13.7441 12.2539 13.6107 12.1692 13.5218 12.1692C13.3996 12.1813 13.3774 12.1087 13.4329 11.8668C13.4885 11.6975 13.4885 11.4192 13.4441 11.2499C13.3996 11.0805 13.3885 10.8386 13.3996 10.7055C13.4218 10.5725 13.4441 9.77407 13.4441 8.93939L13.4552 7.4031L13.7663 7.34262C14.2441 7.23374 14.2774 6.84665 13.8552 6.31439C13.6552 6.07245 13.4663 5.84262 13.4218 5.83052C13.3663 5.80632 13.3329 5.70955 13.3329 5.61278C13.3329 5.516 13.2552 5.40713 13.1663 5.37084C13.0774 5.32245 12.9996 5.22568 12.9996 5.12891C12.9996 5.03213 12.8218 4.7781 12.6107 4.54826C12.3996 4.33052 12.2552 4.11278 12.2885 4.08858C12.3107 4.05229 12.1663 3.79826 11.9441 3.50794C11.7329 3.22971 11.5552 2.95149 11.5552 2.891C11.5552 2.56439 10.9107 2.45552 9.22184 2.47971C8.27739 2.49181 7.42184 2.45552 7.32184 2.40713C7.22184 2.34665 7.11073 2.33455 7.07739 2.37084ZM7.39961 3.18132C7.51073 3.18132 6.55517 4.97165 5.81073 6.10874C5.47739 6.62891 5.36628 6.71358 5.04406 6.72568C4.65517 6.73778 4.43295 6.56842 4.64406 6.42326C4.69961 6.38697 5.07739 5.80632 5.47739 5.141C6.7885 2.95149 6.75517 2.99987 7.03295 3.09665C7.16628 3.14503 7.33295 3.18132 7.39961 3.18132ZM8.99961 3.20552C8.99961 3.14503 9.02184 3.13294 9.05517 3.16923C9.0885 3.20552 8.77739 3.79826 8.35517 4.48778C7.93295 5.17729 7.45517 5.97568 7.2885 6.266C7.01073 6.73778 6.96628 6.77407 6.55517 6.73778C6.31073 6.71358 6.0885 6.6652 6.05517 6.62891C5.9885 6.55633 6.59961 5.50391 6.7885 5.38294C6.84406 5.33455 6.85517 5.24987 6.82184 5.17729C6.77739 5.09262 6.79961 5.08052 6.86628 5.12891C6.94406 5.17729 7.05517 5.05632 7.14406 4.81439C7.23295 4.59665 7.43295 4.24584 7.5885 4.0402C7.75517 3.82245 7.8885 3.55632 7.8885 3.43536C7.8885 3.24181 7.86628 3.22971 7.76628 3.38697C7.66628 3.53213 7.65517 3.53213 7.6885 3.39907C7.72184 3.2902 7.8885 3.21761 8.13295 3.20552C8.35517 3.20552 8.57739 3.15713 8.62184 3.10874C8.66628 3.06036 8.76628 3.08455 8.85517 3.15713C8.93295 3.22971 8.99961 3.25391 8.99961 3.20552ZM6.11073 3.2781C6.11073 3.31439 5.81073 3.83455 5.44406 4.45149C5.07739 5.05632 4.77739 5.57649 4.77739 5.61278C4.77739 5.64907 4.6885 5.78213 4.5885 5.9031C4.47739 6.03616 4.29961 6.2781 4.17739 6.44745C4.01072 6.70149 3.89961 6.76197 3.55517 6.73778L3.14406 6.71358L3.36628 6.2902C3.47739 6.06036 3.67739 5.74584 3.79961 5.60068C3.93295 5.44342 3.9885 5.27407 3.93295 5.17729C3.8885 5.09262 3.89961 5.05632 3.94406 5.11681C4.05517 5.22568 4.44406 4.86278 4.44406 4.65713C4.44406 4.57245 4.51072 4.47568 4.59961 4.43939C4.7885 4.35471 5.17739 3.53213 5.07739 3.42326C4.99961 3.35068 4.56628 3.83455 3.99961 4.64503C3.7885 4.94745 3.54406 5.27407 3.47739 5.37084C3.39961 5.46762 3.33295 5.57649 3.33295 5.62487C3.33295 5.77003 2.75517 6.641 2.61073 6.70149C2.41073 6.77407 1.99961 6.6531 1.99961 6.50794C1.99961 6.44745 2.12184 6.25391 2.27739 6.07245C2.43295 5.891 2.55517 5.68536 2.55517 5.60068C2.55517 5.516 2.61073 5.44342 2.66628 5.44342C2.73295 5.44342 2.77739 5.39503 2.77739 5.32245C2.77739 5.26197 2.97739 4.98374 3.22184 4.69342C3.46628 4.4031 3.66628 4.11278 3.66628 4.0281C3.66628 3.95552 3.84406 3.72568 4.05517 3.54423C4.41072 3.21761 4.52184 3.19342 5.27739 3.19342C5.73295 3.20552 6.11073 3.24181 6.11073 3.2781ZM10.5552 3.31439C10.5552 3.47165 10.2329 4.00391 10.0663 4.13697C9.99961 4.18536 9.9885 4.23374 10.0329 4.23374C10.0885 4.23374 9.97739 4.45149 9.7885 4.70552C9.59961 4.95955 9.44406 5.21358 9.44406 5.26197C9.44406 5.37084 8.94406 6.07245 8.53295 6.52003C8.29961 6.78616 8.16628 6.83455 7.84406 6.79826L7.44406 6.74987L7.77739 6.33858C7.95517 6.10874 8.11073 5.86681 8.11073 5.79423C8.11073 5.73374 8.21073 5.56439 8.33295 5.41923C8.44406 5.27407 8.52184 5.12891 8.49961 5.08052C8.47739 5.04423 8.59961 4.81439 8.7885 4.58455C8.96628 4.35471 9.11073 4.10068 9.11073 4.016C9.11073 3.94342 9.16628 3.87084 9.22184 3.87084C9.2885 3.87084 9.33295 3.78616 9.33295 3.68939C9.33295 3.47165 9.82184 3.21761 10.2663 3.19342C10.4218 3.18132 10.5552 3.22971 10.5552 3.31439ZM11.4441 4.24584C11.4441 4.4031 12.2107 5.60068 12.3552 5.66116C12.5552 5.75794 12.4218 5.99987 12.1107 6.13294C11.9218 6.20552 11.7996 6.21762 11.8441 6.15713C11.9329 5.99987 11.7329 6.02407 11.5663 6.19342C11.4774 6.2781 11.4441 6.2902 11.4774 6.21762C11.5329 6.12084 11.3218 6.09665 10.7885 6.13294C9.84406 6.19342 9.76628 6.09665 10.2441 5.37084C10.4441 5.06842 10.6663 4.71762 10.7218 4.60874C10.7885 4.49987 10.8774 4.34262 10.9218 4.25794C11.0329 4.07649 11.4441 4.06439 11.4441 4.24584ZM12.7441 6.93133C12.7885 7.42729 12.8441 7.4031 11.7774 7.43939C10.1996 7.49987 9.59961 7.53616 9.31073 7.63294C8.9885 7.72971 8.9885 7.72971 9.37739 6.88294L9.57739 6.44745L11.1441 6.45955L12.6996 6.47165L12.7441 6.93133ZM7.26628 7.57245C8.22184 7.53616 8.1885 7.51197 8.2885 8.20149L8.35517 8.69745L7.43295 8.73374C6.74406 8.75794 6.46628 8.72165 6.37739 8.60068C6.1885 8.33455 4.84406 8.31036 4.53295 8.57649C4.3885 8.69745 4.17739 8.77003 4.05517 8.74584C3.93295 8.70955 3.57739 8.68536 3.25517 8.67326C2.63295 8.64907 2.52184 8.49181 2.64406 7.80229C2.6885 7.51197 2.73295 7.49987 3.26628 7.52407C3.57739 7.53616 3.86628 7.60874 3.91072 7.68132C3.96628 7.766 3.99961 7.766 3.99961 7.68132C3.99961 7.60874 4.32184 7.53616 4.74406 7.52407C5.15517 7.49987 5.51073 7.47568 5.53295 7.45149C5.54406 7.42729 5.75517 7.45149 5.9885 7.51197C6.22184 7.57245 6.79961 7.59665 7.26628 7.57245ZM12.8441 8.04423C12.8441 8.17729 12.7996 8.41923 12.7552 8.58858L12.6663 8.891L11.0774 8.86681C10.2107 8.85471 9.3885 8.83052 9.24406 8.83052C8.95517 8.83052 8.83295 8.58858 8.93295 8.18939C8.9885 7.94745 9.05517 7.91116 9.57739 7.92326C9.89961 7.92326 10.3885 7.89907 10.6663 7.86278C10.9441 7.82649 11.5441 7.80229 11.9996 7.80229C12.7552 7.80229 12.8329 7.82649 12.8441 8.04423ZM4.03295 9.10874C4.32184 9.13294 4.33295 9.15713 4.33295 9.76197C4.33295 10.512 4.35517 10.4999 3.42184 10.4273L2.6885 10.3789L2.64406 9.77407C2.59961 8.95149 2.53295 8.97568 4.03295 9.10874ZM8.29961 9.85874L8.27739 10.5846L7.39961 10.5604C6.91073 10.5362 6.46628 10.4757 6.39961 10.4031C6.32184 10.3184 6.33295 10.2821 6.42184 10.2821C6.4885 10.2821 6.53295 10.2096 6.49961 10.1249C6.47739 10.0523 6.43295 9.78616 6.41073 9.54423L6.35517 9.09665L7.34406 9.12084L8.32184 9.13294L8.29961 9.85874ZM10.2774 9.30229C10.5663 9.33858 10.3885 10.4757 10.0885 10.4878C10.0107 10.4878 9.73295 10.5241 9.47739 10.5725C8.99961 10.6692 8.99961 10.6692 8.97739 10.2942C8.96628 10.0886 8.95517 9.77407 8.94406 9.58052C8.92184 9.25391 8.93295 9.25391 9.54406 9.266C9.8885 9.2781 10.2218 9.2902 10.2774 9.30229ZM12.7774 9.72568C12.7774 10.3426 12.7552 10.3668 12.2218 10.4273C11.8441 10.4636 11.8329 10.4515 11.7996 9.99181C11.7441 9.30229 11.8218 9.19342 12.3329 9.19342H12.7774V9.72568ZM12.6441 10.9596C12.7441 10.9837 12.7774 11.1773 12.7552 11.5039C12.7218 12.0604 12.7663 12.0362 11.6107 12.145C11.2441 12.1692 10.5329 12.2418 10.0329 12.2902C9.26628 12.3628 9.09961 12.3386 8.94406 12.1692C8.84406 12.0604 8.81073 11.9757 8.86628 11.9757C8.93295 11.9757 8.96628 11.8063 8.95517 11.6128C8.91073 11.0079 8.99961 10.9716 10.3218 10.9475C10.9996 10.9354 11.5885 10.8991 11.6218 10.8507C11.6885 10.7902 12.3329 10.8507 12.6441 10.9596ZM4.27739 11.6128V12.2781H3.51073C2.6885 12.2781 2.65517 12.2539 2.62184 11.5765C2.57739 10.9112 2.62184 10.8749 3.4885 10.9112L4.27739 10.9475V11.6128ZM8.19961 11.0684C8.29961 11.1773 8.2885 12.2297 8.1885 12.3023C7.92184 12.4716 6.53295 12.3991 6.44406 12.2055C6.35517 12.0362 6.3885 11.4071 6.49961 11.0563C6.53295 10.9233 8.07739 10.9354 8.19961 11.0684Z" fill="black"/>
</svg>
