<svg width="15" height="15" viewBox="0 0 15 15" fill="none" xmlns="http://www.w3.org/2000/svg">
<path d="M7.21136 2.0921C6.66905 2.26112 5.4229 2.96886 5.05367 3.30689C4.96136 3.3914 4.77674 3.49703 4.63828 3.52872C3.91136 3.73999 3.36905 4.46886 3.2652 5.36675C3.23059 5.67309 3.1729 5.89492 3.13828 5.87379C3.08059 5.81041 2.22674 6.28576 1.86905 6.58154C1.41905 6.96182 1.23443 7.76464 1.44213 8.48295C1.64982 9.20126 1.64982 9.32802 1.49982 9.24351C1.30367 9.12731 0.726742 9.51816 0.530588 9.89844C0.322896 10.2893 0.276742 11.2506 0.461358 11.3562C0.530588 11.3984 0.553665 11.4618 0.51905 11.5146C0.415204 11.6625 1.02674 12.2329 1.41905 12.3491C2.11136 12.5604 2.63059 12.5604 3.05751 12.3597L3.46136 12.1696L3.72674 12.4548C4.03828 12.8034 4.92674 13.2048 5.44597 13.247C5.84982 13.2787 6.63444 12.9829 6.72674 12.7611C6.7729 12.666 6.87674 12.7189 7.03828 12.909C7.17674 13.078 7.36136 13.2048 7.45367 13.2048C7.54597 13.2048 7.6152 13.247 7.6152 13.3104C7.6152 13.49 8.41136 13.7541 9.03444 13.7646C9.98059 13.7858 10.4652 13.4794 12.3806 11.7048C13.3152 10.8386 14.0883 10.0675 14.0998 10.0041C14.2614 8.82098 14.0306 8.07098 13.3844 7.70126C13.0267 7.50055 12.946 7.40548 13.0152 7.23647C13.1767 6.81393 13.096 5.83154 12.8652 5.59915C12.7498 5.48295 12.6344 5.409 12.5998 5.44069C12.5652 5.47238 12.4729 5.39844 12.3806 5.28224C12.2883 5.16605 12.1152 5.07098 11.9883 5.07098C11.746 5.07098 11.4691 4.5745 11.4921 4.19422C11.5037 4.09915 11.4344 4.01464 11.3537 4.01464C11.2729 4.01464 11.2267 3.95126 11.2614 3.87731C11.3421 3.66605 10.5344 3.13788 10.1421 3.14844C9.87674 3.14844 9.76136 3.0745 9.5652 2.74703C9.12674 2.03929 8.19213 1.7752 7.21136 2.0921ZM8.19213 2.7576C8.19213 2.81041 8.07674 2.89492 7.93828 2.94774C7.78828 3.00055 7.39597 3.23295 7.06136 3.46534C6.4729 3.86675 5.99982 3.95126 5.99982 3.65548C5.99982 3.5921 5.94213 3.61323 5.8729 3.69774C5.76905 3.83506 5.75751 3.83506 5.79213 3.69774C5.94213 3.18013 8.19213 2.29281 8.19213 2.7576ZM9.0229 3.22238C9.09213 3.46534 9.05751 3.56041 8.8729 3.67661C8.73444 3.76112 8.33059 4.05689 7.94982 4.3421C7.2229 4.90196 7.15367 4.93365 7.15367 4.72238C7.15367 4.52168 6.72674 4.19422 6.58828 4.27872C6.50751 4.31041 6.49597 4.27872 6.53059 4.18365C6.5652 4.08858 6.66905 4.01464 6.74982 4.01464C6.81905 4.01464 7.00367 3.91957 7.15367 3.80337C7.30367 3.68717 7.47674 3.5921 7.55751 3.5921C7.62674 3.5921 7.78828 3.5076 7.9152 3.40196C8.63059 2.79985 8.88444 2.7576 9.0229 3.22238ZM10.6267 4.26816C10.846 4.60619 10.9383 5.23999 10.7421 5.13436C10.6844 5.0921 10.6152 5.10267 10.5921 5.14492C10.5806 5.19774 10.3037 5.41957 9.99213 5.65196C9.68059 5.87379 9.24213 6.21182 9.0229 6.40196C8.79213 6.5921 8.54982 6.71886 8.45751 6.69774C8.37674 6.67661 8.2152 6.62379 8.11136 6.58154C7.8229 6.48647 7.75367 6.47591 7.53444 6.45478C7.36136 6.44422 7.33828 6.35971 7.36136 5.91605C7.38444 5.63084 7.45367 5.38788 7.5229 5.38788C7.58059 5.38788 8.05367 5.0921 8.5729 4.72238C10.0267 3.7083 10.2229 3.66605 10.6267 4.26816ZM5.71136 4.3421C6.27674 4.53224 6.5652 5.0076 6.5652 5.7576C6.5652 6.37027 6.55367 6.40196 6.10367 6.7083C5.15751 7.35267 3.9229 6.8245 3.9229 5.77872C3.9229 4.50055 4.58059 3.97238 5.71136 4.3421ZM11.6998 5.69422C11.7806 5.79985 11.3767 6.18013 10.4767 6.84562C10.1075 7.12027 9.80751 7.39492 9.80751 7.46886C9.80751 7.68013 10.0614 7.68013 10.3152 7.4583C10.5806 7.21534 11.3652 6.63436 11.9306 6.25407L12.2883 6.01112L12.3691 6.30689C12.496 6.75055 12.1498 7.39492 11.7691 7.39492C11.7114 7.39492 11.6075 7.47943 11.5498 7.5745C11.4806 7.68013 11.4229 7.72238 11.4229 7.66957C11.4229 7.61675 11.3306 7.68013 11.2037 7.79633C11.0883 7.92309 10.9729 8.0076 10.9383 7.97591C10.9152 7.95478 10.6152 8.16605 10.2921 8.45126C9.54213 9.10619 9.46136 9.10619 9.46136 8.45126C9.46136 8.07098 9.40367 7.90196 9.2652 7.82802C9.14982 7.76464 9.10367 7.71182 9.16136 7.71182C9.21905 7.71182 9.19597 7.64844 9.12674 7.56393C8.98828 7.41605 9.6229 6.77168 10.5575 6.11675C10.7537 5.97943 10.9729 5.81041 11.0537 5.73647C11.2267 5.57802 11.6075 5.55689 11.6998 5.69422ZM3.34597 6.77168C3.34597 6.8245 3.6229 7.0252 3.96905 7.22591C4.71905 7.659 4.94982 8.11323 4.73059 8.71534C4.56905 9.159 4.00367 9.61323 3.6229 9.61323C3.14982 9.61323 2.09982 8.89492 2.24982 8.67309C2.28443 8.62027 2.26136 8.55689 2.19213 8.53577C2.13443 8.5252 2.03059 8.28224 1.9729 8.0076C1.92674 7.72238 1.9152 7.53224 1.9729 7.56393C2.03059 7.59562 2.07674 7.52168 2.07674 7.40548C2.07674 7.12027 2.75751 6.68717 3.20751 6.68717C3.27674 6.68717 3.34597 6.72943 3.34597 6.77168ZM7.63828 7.19422C8.05367 7.39492 8.53828 7.84915 8.53828 8.02872C8.53828 8.12379 8.58444 8.23999 8.65367 8.30337C8.86136 8.49351 8.82674 9.18013 8.58444 9.47591C8.24982 9.88788 7.40751 10.2787 7.03828 10.1942C6.87674 10.1625 6.66905 10.1203 6.57674 10.1097C6.48444 10.0991 6.20751 9.89844 5.9652 9.66605C5.56136 9.2752 5.53828 9.21182 5.56136 8.66253C5.59597 8.07098 5.65367 7.98647 6.5652 7.26816C6.80751 7.07802 7.32674 7.04633 7.63828 7.19422ZM12.8075 8.12379C12.8075 8.17661 12.4614 8.47238 12.0344 8.77872C11.146 9.42309 10.6152 9.88788 10.6152 10.0463C10.6152 10.1097 10.6614 10.1308 10.7191 10.0991C10.7767 10.0569 10.846 10.0886 10.8691 10.1414C10.8921 10.2048 11.3767 9.84562 11.9421 9.35971C12.5191 8.86323 13.0383 8.46182 13.1075 8.45126C13.4075 8.45126 13.6152 9.51816 13.3614 9.75055C13.2806 9.83506 12.7729 10.3315 12.2421 10.8703C11.7114 11.3984 11.2383 11.8315 11.1921 11.8315C11.146 11.8315 11.0537 11.5991 10.9844 11.3034C10.8344 10.7118 10.5114 10.321 10.0267 10.1414C9.66905 10.0041 9.5652 9.71886 9.87674 9.71886C9.99213 9.71886 10.0383 9.65548 9.99213 9.56041C9.95751 9.47591 9.96905 9.41253 10.0152 9.42309C10.1537 9.46534 10.8344 9.05337 10.7767 8.9583C10.7421 8.91605 10.7883 8.87379 10.8806 8.87379C10.9729 8.87379 11.1691 8.76816 11.3306 8.63084C11.9421 8.13436 12.8075 7.83858 12.8075 8.12379ZM2.52674 9.909C3.16136 10.1942 3.39213 10.5639 3.29982 11.1238C3.14982 12.0534 1.90367 12.2013 1.21136 11.3668C0.426742 10.416 1.36136 9.38084 2.52674 9.909ZM5.59597 10.1731C5.76905 10.3738 6.42674 10.7752 6.48444 10.7224C6.55367 10.659 6.57674 10.8808 6.58828 11.4935C6.58828 12.0006 6.39213 12.2752 5.83828 12.5393C4.77674 13.0463 3.39213 11.3456 4.10751 10.416C4.43059 9.99351 5.31905 9.85619 5.59597 10.1731ZM9.7152 10.7435C10.2344 10.9759 10.5575 11.7365 10.3844 12.2752C10.3614 12.328 10.3498 12.402 10.3383 12.4548C10.3152 12.6238 9.58828 13.0991 9.25367 13.1625C8.67674 13.2682 7.66136 12.7611 7.48828 12.2752C7.19982 11.4829 7.3729 11.0076 8.09982 10.6801C8.63059 10.4372 9.1152 10.4583 9.7152 10.7435Z" fill="black"/>
<path d="M9.01064 5.18753C8.56064 5.53612 8.19141 5.89527 8.19141 5.97978C8.19141 6.20161 8.29525 6.15936 8.83756 5.72626C9.10294 5.51499 9.48371 5.20865 9.67987 5.06076C10.026 4.78612 10.1414 4.54316 9.93371 4.54316C9.86448 4.54316 9.4491 4.82837 9.01064 5.18753Z" fill="black"/>
<path d="M4.83531 4.73297C4.45454 4.77522 4.28146 5.10269 4.32761 5.7048C4.41992 6.76114 5.82761 6.89846 6.03531 5.86325C6.093 5.56748 5.75838 4.76466 5.56223 4.74353C5.51608 4.74353 5.40069 4.73297 5.30838 4.71184C5.21608 4.70128 4.99684 4.71184 4.83531 4.73297ZM5.55069 5.18719C5.71223 5.33508 5.76992 5.49353 5.72377 5.71536C5.57377 6.58156 4.76608 6.52874 4.56992 5.64142C4.43146 5.03931 5.06608 4.74353 5.55069 5.18719Z" fill="black"/>
<path d="M4.8457 5.64096C4.8457 5.72547 4.9034 5.8311 4.96109 5.86279C5.11109 5.9473 5.4457 5.71491 5.3534 5.58814C5.24955 5.42969 4.8457 5.48251 4.8457 5.64096Z" fill="black"/>
<path d="M2.86117 7.363C2.23809 7.51089 2.54963 8.96863 3.20732 8.9792C3.28809 8.9792 3.3227 9.03202 3.27655 9.0954C3.14963 9.28554 3.95732 9.15878 4.11886 8.96863C4.38424 8.65173 4.21117 8.00737 3.76117 7.63765C3.35732 7.29962 3.25347 7.26793 2.86117 7.363ZM3.5304 7.89117C3.99193 8.3454 4.03809 8.87356 3.61117 8.87356C3.39193 8.87356 2.75732 8.38765 2.86117 8.30314C2.89578 8.26089 2.8727 8.19751 2.79193 8.14469C2.68809 8.09187 2.69963 8.01793 2.83809 7.83835C3.06886 7.53202 3.18424 7.54258 3.5304 7.89117Z" fill="black"/>
<path d="M3.1964 8.30251C3.03486 8.46096 3.25409 8.66167 3.47332 8.54547C3.60025 8.49265 3.66948 8.39758 3.63486 8.3342C3.55409 8.22857 3.31179 8.20744 3.1964 8.30251Z" fill="black"/>
<path d="M6.64624 7.89065C6.02316 8.18643 5.85009 9.1477 6.35778 9.57023C6.79624 9.93995 7.75393 9.77094 8.10009 9.26389C8.59624 8.52446 7.50009 7.47868 6.64624 7.89065ZM7.67316 8.27094C7.90393 8.5984 7.85778 9.09488 7.56932 9.31671C7.05009 9.74981 6.25393 9.28502 6.39239 8.63009C6.51932 8.00685 7.32701 7.78502 7.67316 8.27094Z" fill="black"/>
<path d="M6.96837 8.82076C6.87606 9.02147 7.00298 9.19048 7.1876 9.1271C7.39529 9.05316 7.40683 8.66231 7.19914 8.66231C7.10683 8.66231 7.00298 8.73626 6.96837 8.82076Z" fill="black"/>
<path d="M11.8616 10.0784C11.2847 10.5432 11.2039 10.6699 11.4693 10.6699C11.7347 10.6699 12.6462 9.85654 12.5193 9.74034C12.4385 9.6664 12.2193 9.7826 11.8616 10.0784Z" fill="black"/>
<path d="M1.52364 10.374C1.13133 10.7332 1.76595 11.6733 2.35441 11.5994C2.72364 11.5466 2.93133 11.0607 2.76979 10.617C2.64287 10.2684 2.60825 10.2473 2.14672 10.2473C1.88133 10.2473 1.60441 10.3001 1.52364 10.374ZM2.40056 10.5853C2.78133 10.9339 2.40056 11.4938 1.98518 11.198C1.62748 10.9233 1.71979 10.4585 2.13518 10.4585C2.20441 10.4585 2.31979 10.5114 2.40056 10.5853Z" fill="black"/>
<path d="M4.75428 10.5533C4.37351 10.7751 4.2812 11.166 4.51197 11.5885C4.93889 12.3702 5.90812 12.4124 6.06966 11.6519C6.20812 10.9547 5.3312 10.2153 4.75428 10.5533ZM5.65428 11.1026C6.00043 11.6836 5.52735 12.1484 5.00812 11.747C4.65043 11.4723 4.59274 11.1237 4.86966 10.8808C5.14658 10.6484 5.44658 10.7329 5.65428 11.1026Z" fill="black"/>
<path d="M8.16824 11.2299C7.66055 11.7263 7.76439 12.2651 8.44516 12.582C9.09132 12.8777 9.64516 12.6982 9.82978 12.1277C10.1298 11.2087 8.88362 10.5327 8.16824 11.2299ZM9.37978 11.3461C9.74901 11.5996 9.48362 12.4658 9.02209 12.4658C8.73362 12.4658 8.19132 12.1066 8.19132 11.9165C8.19132 11.3038 8.84901 10.9763 9.37978 11.3461Z" fill="black"/>
<path d="M8.60812 11.7149C8.51582 11.8522 8.83889 12.1903 8.97735 12.1058C9.20812 11.979 9.13889 11.6198 8.89658 11.6198C8.76966 11.6198 8.64274 11.6621 8.60812 11.7149Z" fill="black"/>
</svg>
