<svg width="15" height="15" viewBox="0 0 15 15" fill="none" xmlns="http://www.w3.org/2000/svg">
<path d="M3.53678 1.35886C3.50393 1.44582 3.43824 1.52191 3.37255 1.52191C3.3178 1.52191 3.30685 1.46756 3.3397 1.41321C3.47109 1.20669 3.25211 1.30452 2.8032 1.65234C2.02583 2.2393 1.53313 3.16321 1.48933 4.10886C1.46744 4.42408 1.43459 4.70669 1.40174 4.7393C1.33605 4.79365 1.57693 5.68495 1.71926 5.90234C1.76306 5.97843 1.80685 6.05452 1.8178 6.08713C1.87255 6.3806 2.15722 6.79365 2.61707 7.27191C2.92364 7.58713 3.17547 7.85886 3.17547 7.86973C3.17547 7.89147 2.97839 7.95669 2.72656 8.03278C2.23386 8.17408 1.8616 8.45669 1.8616 8.66321C1.8616 8.7393 1.8178 8.80452 1.76306 8.80452C1.59882 8.80452 1.41269 9.52191 1.45649 9.96756C1.56598 10.9241 2.12437 11.5219 3.16452 11.7936C3.74481 11.935 5.38714 11.8371 5.63897 11.6306C5.72656 11.5654 5.83605 11.5328 5.90174 11.5654C5.95649 11.598 6.02218 11.5871 6.04408 11.5328C6.05503 11.4893 6.18641 11.4023 6.32875 11.3697C6.53678 11.3045 6.56963 11.3263 6.58058 11.598C6.61342 12.3806 6.65722 12.6197 6.8324 12.8806C6.93094 13.0328 7.08423 13.1523 7.17182 13.1523C7.347 13.1523 7.35795 13.0871 7.37985 12.011C7.39079 11.598 7.46744 11.261 7.57693 11.098C7.68641 10.9567 7.74116 10.7936 7.70831 10.7393C7.64262 10.6306 7.75211 10.6197 8.54043 10.6415C9.30685 10.6741 10.2375 10.2284 10.555 9.69582C10.8835 9.11973 10.8178 8.39147 10.4017 8.01104L10.0514 7.70669L10.3251 7.46756C10.6098 7.21756 11.4309 5.97843 11.3215 5.97843C11.2777 5.97843 11.2996 5.91321 11.3652 5.83713C11.42 5.77191 11.5295 5.43495 11.5952 5.10886C11.8908 3.66321 11.7047 2.78278 11.0149 2.28278C10.566 1.94582 10.0733 1.84799 10.0733 2.08713C10.0733 2.18495 10.0404 2.18495 9.95284 2.09799C9.73386 1.8806 8.90174 2.32626 8.36525 2.93495C7.50028 3.92408 7.44554 3.96756 7.44554 3.78278C7.44554 3.33713 6.09882 1.9893 5.3105 1.6306C4.50028 1.26104 3.63532 1.1306 3.53678 1.35886ZM4.94919 2.33713C5.21196 2.4893 5.55138 2.72843 5.68277 2.86973C5.8251 3.02191 5.98933 3.11973 6.05503 3.07626C6.12072 3.04365 6.13167 3.06539 6.08787 3.1306C6.04408 3.20669 6.06598 3.26104 6.12072 3.26104C6.18641 3.26104 6.24116 3.32626 6.24116 3.41321C6.24116 3.50017 6.3835 3.70669 6.55868 3.86973C6.79955 4.09799 6.86525 4.2393 6.8324 4.4893C6.8105 4.66321 6.86525 4.96756 6.94189 5.16321C7.02948 5.35886 7.12802 5.8806 7.17182 6.31539C7.20466 6.76104 7.28131 7.40234 7.33605 7.75017C7.44554 8.44582 7.37985 8.95669 7.14992 9.29365C7.07328 9.41321 7.00758 9.58713 7.00758 9.69582C7.00758 9.86973 6.13167 10.8697 5.96744 10.8697C5.93459 10.8697 5.92364 10.8263 5.95649 10.7719C6.06598 10.598 5.21196 10.848 5.08058 11.0328C5.00393 11.1306 4.92729 11.1632 4.91634 11.098C4.88349 11.0328 4.68641 11.0328 4.35795 11.0871C4.06233 11.1415 3.71196 11.1415 3.51488 11.0871C3.32875 11.0328 3.17547 11.0219 3.17547 11.0654C3.17547 11.098 2.97839 10.9241 2.72656 10.6741C2.17912 10.098 2.13532 9.36973 2.62802 8.95669C3.08787 8.57626 4.09517 8.30452 4.42364 8.47843C4.57693 8.55452 4.77401 8.58713 4.8616 8.55452C4.96014 8.51104 5.03678 8.53278 5.03678 8.598C5.03678 8.66321 5.08058 8.68495 5.14627 8.64147C5.25576 8.57626 5.05868 8.04365 4.92729 8.04365C4.80685 8.04365 3.52583 7.18495 3.43824 7.05452C3.40539 7.00017 3.32875 6.97843 3.27401 7.01104C3.21926 7.05452 3.17547 7.01104 3.17547 6.92408C3.17547 6.71756 2.8032 6.39147 2.68277 6.4893C2.63897 6.54365 2.62802 6.52191 2.66087 6.45669C2.69371 6.39147 2.62802 6.15234 2.51853 5.91321C1.97109 4.81539 2.16817 3.36973 2.98933 2.51104C3.60247 1.8806 4.05138 1.83713 4.94919 2.33713ZM10.5441 2.84799C11.2886 3.42408 11.1791 4.52191 10.1499 6.64147C9.73386 7.4893 9.65722 7.58713 9.39444 7.57626C9.23021 7.57626 9.01123 7.64147 8.91269 7.71756C8.75941 7.85886 8.74846 7.82626 8.81415 7.36973C8.85795 7.098 8.89079 6.69582 8.90174 6.47843C8.91269 6.26104 8.95649 6.08713 9.01123 6.08713C9.05503 6.08713 9.08787 6.00017 9.07693 5.89147C9.06598 5.79365 9.07693 5.6306 9.12072 5.54365C9.28496 5.08713 9.28496 5.02191 9.07693 4.96756C8.89079 4.91321 8.81415 5.01104 8.85795 5.25017C8.8689 5.29365 8.79225 5.35886 8.70466 5.39147C8.50758 5.46756 8.48568 5.76104 8.67182 5.76104C8.73751 5.76104 8.71561 5.82626 8.60612 5.90234C8.44189 6.02191 8.43094 6.16321 8.47474 6.8806C8.52948 7.68495 8.51853 7.71756 8.23386 7.91321C7.78496 8.22843 7.57693 8.30452 7.85065 8.06539C8.11342 7.83713 8.12437 7.3806 7.93824 5.6306C7.87255 5.05452 7.89444 4.94582 8.22291 4.3806C8.96744 3.09799 9.97474 2.42408 10.5441 2.84799ZM8.96744 9.41321C8.70466 9.67408 8.47474 9.89147 8.46379 9.89147C8.3543 9.89147 8.68277 9.44582 8.92364 9.26104C9.07693 9.14147 9.19736 8.9893 9.19736 8.91321C9.19736 8.848 9.25211 8.82626 9.3178 8.86973C9.39444 8.91321 9.25211 9.11973 8.96744 9.41321Z" fill="black"/>
<path d="M4.40162 4.31432C4.73008 4.94476 5.27753 6.20563 5.31037 6.3578C5.32132 6.47737 5.45271 6.78171 5.79213 7.53171C5.90162 7.78171 6.033 8.14041 6.06585 8.33606C6.10964 8.52084 6.21913 8.70563 6.29578 8.73824C6.38337 8.77084 6.42716 8.86867 6.39432 8.9665C6.31767 9.14041 6.5257 9.18389 6.75563 9.04258C6.86512 8.97737 6.84322 8.8578 6.67899 8.53171C6.55855 8.29258 6.46001 8.05345 6.46001 7.97737C6.46001 7.91215 6.37242 7.66215 6.27388 7.43389C6.17534 7.19476 6.08775 6.95563 6.06585 6.90128C6.02205 6.69476 5.13519 4.94476 4.89432 4.59693C4.69724 4.30345 4.27023 4.06432 4.40162 4.31432Z" fill="black"/>
<path d="M4.78469 9.75016C4.43433 9.78277 4.27009 9.83712 4.30294 9.92408C4.39053 10.2176 5.47447 10.1306 5.47447 9.83712C5.47447 9.75016 5.44163 9.68495 5.39783 9.69581C5.34309 9.70668 5.06936 9.72842 4.78469 9.75016Z" fill="black"/>
<path d="M11.4414 10.5864C10.7736 11.0321 10.5765 11.2495 10.686 11.4342C10.7298 11.5103 10.7188 11.5429 10.675 11.4886C10.5655 11.3908 10.0728 11.8255 10.0728 12.0321C10.0728 12.1082 10.029 12.1734 9.96335 12.1734C9.87576 12.1734 9.52539 12.8364 9.52539 12.9995C9.52539 13.0212 9.62393 13.0864 9.74437 13.1516C9.91955 13.2495 9.98524 13.2277 10.04 13.0755C10.0728 12.9668 10.3685 12.5429 10.686 12.1299C11.0035 11.7277 11.2772 11.3582 11.2991 11.3147C11.321 11.2821 11.54 11.0864 11.8028 10.8908C12.6458 10.2277 12.3393 9.97772 11.4414 10.5864Z" fill="black"/>
<path d="M8.79224 11.8145C8.64991 11.9014 8.54042 12.0536 8.54042 12.1297C8.54042 12.2166 8.49662 12.2818 8.44188 12.2818C8.2448 12.2818 8.2229 12.771 8.39808 13.0427L8.58421 13.3145L8.67181 12.8905C8.72655 12.6623 8.87983 12.3253 9.03312 12.1514C9.46013 11.6405 9.31779 11.4449 8.79224 11.8145Z" fill="black"/>
<path d="M11.6612 12.097C11.07 12.4557 10.7087 12.9774 10.9167 13.1839C11.0481 13.3252 12.2525 12.3035 12.2634 12.0318C12.2634 11.9122 11.913 11.9557 11.6612 12.097Z" fill="black"/>
<path d="M5.19073 12.4353C5.12503 12.6092 5.32211 13.0331 5.4754 13.0549C5.69438 13.0875 5.74912 13.0983 5.86956 13.1744C6.18708 13.3809 6.21992 12.8483 5.91336 12.5222C5.65058 12.2505 5.27832 12.207 5.19073 12.4353Z" fill="black"/>
<path d="M3.83203 12.8149C3.83203 12.9997 4.1824 13.2715 4.34663 13.2171C4.43422 13.1845 4.46707 13.2062 4.43422 13.2606C4.39043 13.3258 4.49991 13.3584 4.70794 13.3475L5.05831 13.3258L4.71889 13.0215C4.39043 12.728 3.83203 12.6084 3.83203 12.8149Z" fill="black"/>
</svg>
