<svg width="15" height="15" viewBox="0 0 15 15" fill="none" xmlns="http://www.w3.org/2000/svg">
<path d="M7.63364 2.6986C7.30488 2.83888 7.32542 3.13025 7.65419 3.13025C8.00351 3.13025 8.13707 3.51874 8.13707 4.48996C8.12679 5.20219 8.10625 5.28852 7.8083 5.62306C7.63364 5.82809 7.45898 6.13025 7.42816 6.29212C7.36652 6.59428 7.35624 6.59428 7.02748 5.96838C6.84255 5.62306 6.64734 5.24536 6.59597 5.11586C6.53433 4.99716 6.25693 4.67342 5.96926 4.39284C5.13707 3.61586 3.79118 3.40003 3.02063 3.9396C2.78433 4.10147 2.49666 4.53313 2.63022 4.53313C2.67131 4.53313 2.61994 4.63025 2.5172 4.74896C2.16789 5.14824 2.39392 7.17701 2.8357 7.55471C2.90761 7.63025 2.97953 7.74896 2.97953 7.8245C2.97953 8.02953 3.51378 8.53673 3.66789 8.48277C3.87337 8.39644 4.03775 8.79572 3.85282 8.95759C3.73981 9.05471 3.69871 9.05471 3.69871 8.96838C3.69871 8.80651 2.85624 9.41083 2.57885 9.76694C2.20898 10.2633 2.12679 11.0511 2.37337 11.6446C2.60967 12.2274 3.09255 12.6806 3.40076 12.5943C3.5035 12.5619 3.57542 12.5727 3.5446 12.6267C3.47268 12.7454 3.89392 12.8317 4.28433 12.7777C4.81857 12.713 5.26035 12.4756 5.78433 11.9576L6.2672 11.4828L6.47268 11.8389C6.75008 12.3353 6.97611 12.2705 7.37679 11.5691C7.54118 11.2885 7.59255 11.2454 7.64392 11.3856C7.67474 11.4828 7.68501 11.6015 7.65419 11.6446C7.63364 11.6878 7.65419 11.9144 7.71583 12.141C8.16789 13.8461 10.3871 14.2777 11.2912 12.8317C11.6302 12.3029 11.6405 12.249 11.6199 11.4828C11.6097 11.0619 11.548 10.8677 11.3734 10.6626C11.1473 10.4036 11.1473 10.382 11.3117 10.2741C11.4247 10.1986 11.5069 10.1878 11.5275 10.2633C11.5686 10.4036 12.5343 10.0583 12.5343 9.89644C12.5343 9.8209 12.4932 9.8209 12.411 9.90723C12.3391 9.98277 12.2158 10.0367 12.1336 10.0367C11.9179 10.0259 12.2364 9.83169 12.5549 9.76694C12.9247 9.6914 13.2432 9.30291 13.048 9.16262C12.9145 9.0655 12.9145 9.05471 13.0686 9.09788C13.2946 9.17342 13.5001 8.83888 13.7569 7.97557C13.9624 7.26334 14.0035 6.87485 13.8494 6.97198C13.8083 7.00435 13.7672 6.96119 13.7672 6.86406C13.7672 6.77773 13.7056 6.6914 13.6439 6.65903C13.5515 6.62665 13.5617 6.56191 13.6953 6.45399C14.1165 6.10867 13.0788 5.35327 12.0515 5.26694C11.7432 5.23457 11.5069 5.26694 11.5069 5.3209C11.5069 5.37485 11.4453 5.39644 11.3631 5.36406C11.0446 5.23457 9.48296 6.22737 9.52405 6.52953C9.53433 6.64824 9.52405 6.6914 9.49323 6.61586C9.46241 6.54032 9.36994 6.51874 9.28775 6.55111C9.18501 6.59428 9.14392 6.51874 9.13364 6.30291C9.13364 6.13025 9.11309 5.89284 9.09255 5.78493C9.06172 5.59068 9.13364 5.37485 9.59597 4.46838C9.84255 3.96119 10.1199 3.75615 10.5515 3.74536C10.9727 3.72378 11.0754 3.50795 10.7569 3.30291C10.2946 3.00075 9.22611 4.10147 8.96926 5.14824C8.93844 5.3209 8.8357 5.39644 8.67131 5.39644C8.43501 5.39644 8.42474 5.36406 8.41446 4.55471C8.40419 3.21658 8.38364 3.05471 8.17816 2.8173C7.96241 2.5691 7.95214 2.5691 7.63364 2.6986ZM5.01378 4.5655C5.43501 4.78133 6.16446 5.46119 6.16446 5.63385C6.16446 5.67701 6.35967 6.04392 6.60624 6.4432C7.0583 7.20939 7.06857 7.27414 6.83227 8.09428C6.75008 8.36406 6.66789 8.74176 6.65761 8.93601C6.64734 9.14104 6.59597 9.32449 6.55487 9.34608C6.51378 9.37845 6.47268 9.52953 6.47268 9.68061C6.47268 9.97198 6.23638 10.4684 5.90761 10.8461C5.0857 11.7849 4.92131 11.936 4.48981 12.0655C3.96583 12.2274 3.28775 12.141 3.28775 11.9144C3.28775 11.8281 3.24666 11.7633 3.19529 11.7633C3.14392 11.7633 3.06172 11.6662 3.0309 11.5475C2.91789 11.1806 2.87679 10.6842 2.95898 10.6842C3.01035 10.6842 3.09255 10.5223 3.16446 10.3281C3.27748 9.99356 3.86309 9.49716 4.13022 9.49716C4.20213 9.49716 4.39734 9.42162 4.55145 9.33529C4.75693 9.22737 4.90077 9.20579 5.03433 9.28133C5.43501 9.50795 6.16446 9.51874 6.16446 9.3137C6.16446 9.16262 5.97953 9.04392 5.49666 8.84967C5.12679 8.70939 4.82885 8.54752 4.82885 8.50435C4.82885 8.46119 4.75693 8.45039 4.67474 8.48277C4.572 8.52593 4.52063 8.48277 4.52063 8.36406C4.52063 8.26694 4.47953 8.22378 4.41789 8.25615C4.36652 8.28852 4.31515 8.26694 4.31515 8.20219C4.31515 8.13744 4.27405 8.10507 4.22268 8.13744C4.17131 8.16982 4.0994 8.12665 4.06857 8.02953C4.03775 7.9432 3.96583 7.88924 3.90419 7.93241C3.85282 7.96478 3.75008 7.90003 3.67816 7.77054C3.60624 7.65183 3.5035 7.55471 3.44186 7.55471C3.3494 7.55471 3.31857 7.37126 3.25693 6.25975C3.24666 6.10867 3.18501 5.92521 3.11309 5.84968C2.95898 5.6878 2.92816 5.46119 3.072 5.54752C3.12337 5.57989 3.18501 5.42881 3.22611 5.20219C3.38022 4.25255 3.98638 4.03673 5.01378 4.5655ZM12.7809 6.05471C12.7604 6.09788 12.8323 6.23816 12.9453 6.36766C13.161 6.63744 13.233 7.48996 13.048 7.60867C12.9967 7.64104 12.9761 7.84608 13.0069 8.06191C13.0583 8.37485 13.0378 8.4396 12.9145 8.38565C12.7706 8.33169 12.3597 8.67701 12.3905 8.83888C12.4419 9.09788 11.5275 9.72378 11.0651 9.74536C10.9419 9.74536 10.4384 9.71298 9.94529 9.66982C9.14392 9.59428 9.04118 9.60507 9.04118 9.75615C9.04118 10.0151 9.08227 10.0907 9.21583 10.0907C9.27748 10.0907 9.36994 10.1231 9.40077 10.1662C9.44186 10.2094 9.53433 10.2094 9.61652 10.177C9.69871 10.1446 9.88364 10.2418 10.0275 10.4036C10.1816 10.5547 10.3357 10.6626 10.3768 10.6303C10.4179 10.5979 10.4795 10.6734 10.5104 10.7921C10.572 11.0295 10.7467 11.0835 10.8186 10.8677C10.8391 10.8029 10.8494 10.8245 10.8391 10.9216C10.8186 11.0295 10.8494 11.2885 10.8905 11.5044C10.9624 11.8389 10.9316 11.9684 10.7056 12.3461C10.4076 12.8209 10.0891 13.1662 9.94529 13.1662C9.89392 13.1662 9.87337 13.2094 9.91446 13.2741C9.94529 13.3281 9.84255 13.3065 9.68844 13.2202C9.53433 13.1338 9.32885 13.0583 9.24666 13.0583C8.98981 13.0475 8.57885 12.5943 8.40419 12.141C8.0446 11.1698 8.05488 9.8209 8.42474 9.8209C8.52748 9.8209 8.63022 9.72378 8.66104 9.60507C8.70214 9.45399 8.66104 9.38924 8.52748 9.38924C8.17816 9.38924 8.80488 7.77054 9.33912 7.32809C10.6336 6.22737 11.2193 5.93601 12.1439 5.96838C12.5138 5.97917 12.8015 6.02234 12.7809 6.05471ZM8.20898 7.695C8.33227 7.66262 8.42474 7.68421 8.42474 7.75975C8.42474 7.8245 8.36309 7.87845 8.30145 7.87845C8.22953 7.88924 8.06515 8.11586 7.95214 8.39644C7.52063 9.37845 7.19186 10.231 7.19186 10.3389C7.19186 10.3928 7.11994 10.4684 7.03775 10.5008C6.822 10.5979 6.92474 9.70219 7.15077 9.52953C7.2946 9.42162 7.2946 9.38924 7.18159 9.38924C7.0994 9.38924 7.07885 9.35687 7.14049 9.30291C7.20214 9.25975 7.31515 9.07629 7.39734 8.90363C7.47953 8.72018 7.56172 8.54752 7.58227 8.49356C7.60282 8.45039 7.54118 8.41802 7.44871 8.41802C7.35624 8.41802 7.30487 8.45039 7.3357 8.50435C7.35624 8.54752 7.31515 8.6986 7.23296 8.84967C7.03775 9.23816 7.0583 9.01155 7.30487 8.24536C7.51035 7.61946 7.54118 7.57629 7.75693 7.66262C7.89049 7.71658 8.0857 7.72737 8.20898 7.695Z" fill="currentColor"/>
<path d="M4.01725 5.20231C3.96588 5.35339 3.93505 5.63396 3.94533 5.839C3.96588 6.04404 3.98642 6.31382 3.9967 6.44332C4.00697 6.74548 4.73642 7.56562 4.99327 7.56562C6.0104 7.5872 6.17478 7.16634 5.59944 6.07641C5.1782 5.25627 4.97273 5.06202 4.52067 4.99727C4.16108 4.94332 4.09944 4.9649 4.01725 5.20231Z" fill="currentColor"/>
<path d="M3.86278 10.1766C3.49292 10.4572 3.6573 11.5039 4.02716 11.2665C4.08881 11.2233 4.171 11.2665 4.22237 11.3421C4.29429 11.4715 4.36621 11.4608 4.67442 11.2881C4.99292 11.1046 5.03401 11.0399 5.00319 10.7054C4.94155 10.1442 4.29429 9.84205 3.86278 10.1766Z" fill="currentColor"/>
<path d="M11.2502 6.767C10.9215 6.84254 10.377 7.53319 10.377 7.87851C10.377 8.75261 11.7023 8.82815 12.2057 7.97563C12.6989 7.11232 12.2365 6.52959 11.2502 6.767Z" fill="currentColor"/>
<path d="M9.04084 11.0079C8.88674 11.1266 8.82509 11.2561 8.86619 11.3748C8.90728 11.4719 8.88674 11.5475 8.83537 11.5475C8.65043 11.5475 8.72235 11.7633 8.98947 12.0439C9.20523 12.2705 9.28742 12.3029 9.41071 12.1842C9.4929 12.1194 9.58537 12.0871 9.62646 12.1302C9.65728 12.1626 9.63674 12.195 9.56482 12.195C9.4929 12.195 9.46208 12.2381 9.4929 12.2921C9.59564 12.4648 9.97578 12.2813 10.0785 12.0115C10.2121 11.6446 10.2018 11.5907 9.93468 11.3101C9.52372 10.8676 9.31824 10.7921 9.04084 11.0079Z" fill="currentColor"/>
</svg>
