<svg width="15" height="15" viewBox="0 0 15 15" fill="none" xmlns="http://www.w3.org/2000/svg">
<path d="M9.13066 1.24011C9.05457 1.3021 8.93501 1.31449 8.85892 1.2897C8.7937 1.25251 8.61979 1.52524 8.47849 1.88474C8.1524 2.70292 8.07631 4.85995 8.36979 4.93433C8.48936 4.95912 8.5437 4.81036 8.57631 4.31449C8.61979 3.57069 8.61979 3.49631 8.73936 2.69053C8.81544 2.21945 8.89153 2.0583 9.14153 1.90954C9.31544 1.81036 9.45675 1.77317 9.45675 1.83515C9.45675 1.88474 9.63066 2.00871 9.82631 2.10788C10.2937 2.30623 10.4241 2.65334 10.4785 3.73185C10.5111 4.51284 10.2502 6.32276 10.0763 6.52111C10.0328 6.57069 10.0002 6.73185 10.0002 6.88061C10.0002 7.02937 9.84805 7.37648 9.6524 7.6616C9.30457 8.18226 9.30457 8.18226 9.16327 7.90954C9.08718 7.74838 9.03283 7.53763 9.02197 7.43846C9.02197 7.10375 8.34805 5.7773 7.85892 5.10788C6.81544 3.70706 4.93501 2.64094 3.73936 2.7773C2.81544 2.88887 2.43501 3.24838 2.55457 3.9302C2.77196 5.31863 3.43501 6.88061 4.14153 7.68639L4.67414 8.29383L4.2611 8.44259C2.47849 9.11201 2.13066 10.9963 3.64153 11.7773C4.28283 12.112 4.6524 12.174 4.92414 12.0004C5.05457 11.9137 5.20675 11.8641 5.27196 11.8889C5.43501 11.9385 6.30457 11.6285 6.30457 11.517C6.30457 11.455 6.38066 11.4054 6.46762 11.4054C6.55457 11.4054 6.69588 11.2442 6.78283 11.0583C6.94588 10.7112 6.93501 10.6988 6.6524 10.7236C6.48936 10.736 6.2611 10.798 6.14153 10.8723C5.25023 11.4178 4.02196 11.3558 3.69588 10.7608C3.50023 10.3889 3.50023 10.2277 3.71762 9.70706C3.89153 9.29797 5.08718 8.8021 5.89153 8.8021C6.93501 8.8021 7.18501 8.31863 6.25023 8.12028C5.77196 8.0335 4.78283 7.46325 4.78283 7.2897C4.78283 7.22772 4.71762 7.21532 4.6524 7.26491C4.57631 7.31449 4.5437 7.31449 4.58718 7.25251C4.63066 7.20292 4.50023 6.9302 4.30457 6.64507C3.95675 6.1492 3.63066 5.34342 3.5437 4.71119C3.51109 4.53763 3.48936 4.38887 3.47849 4.36408C3.34805 4.17813 3.47849 3.75664 3.69588 3.63268C4.55457 3.1492 7.07631 4.93433 8.11979 6.78144C8.22849 6.96739 8.39153 7.22772 8.47849 7.33929C8.56544 7.45086 8.73936 7.74838 8.84805 7.98392L9.05457 8.4302L8.2937 9.26078C6.75023 10.9715 6.11979 12.6203 6.93501 12.8558C7.2937 12.955 7.82631 12.6203 8.2611 12.0004C9.30457 10.5252 10.0002 9.83102 10.4894 9.76904C11.0654 9.69466 11.7394 9.23598 11.7394 8.92606C11.7394 8.8021 11.7937 8.67813 11.8589 8.65334C11.9241 8.62854 11.9894 8.33102 12.0002 7.99631L12.0111 7.37648L12.6089 7.04177C13.1307 6.75664 13.2285 6.73185 13.3807 6.89301C13.6959 7.21532 14.0654 6.99218 13.8046 6.63268C13.5437 6.27317 12.2502 6.5583 12.1089 7.00458C12.0546 7.14094 12.0002 7.15334 11.8481 7.04177C11.6633 6.9054 11.6633 6.88061 11.8589 6.50871C12.0981 6.05003 12.435 5.67813 12.5654 5.72772C12.7937 5.7897 13.1524 5.54177 13.1524 5.31863C13.1524 5.14507 13.0763 5.08309 12.8698 5.08309C12.4567 5.08309 12.0111 5.50458 11.6633 6.19879C11.4241 6.69466 11.2828 6.83102 11.0002 6.89301C10.5546 6.99218 10.522 6.94259 10.685 6.57069C11.4785 4.78557 11.2176 2.13268 10.185 1.52524C9.69588 1.24011 9.28283 1.12854 9.13066 1.24011Z" fill="currentColor"/>
<path d="M1.80441 11.2436C1.76093 11.2932 1.47832 11.3428 1.16311 11.3428C0.565281 11.3552 0.413107 11.5163 0.869629 11.6651C1.33702 11.8138 1.75006 11.7891 1.92398 11.5783C2.05441 11.4296 2.11963 11.4296 2.17398 11.5411C2.23919 11.6403 2.29354 11.6031 2.3805 11.4172C2.50006 11.1816 2.47832 11.1568 2.19572 11.1568C2.0218 11.1568 1.84789 11.194 1.80441 11.2436Z" fill="currentColor"/>
</svg>
