<svg width="15" height="15" viewBox="0 0 15 15" fill="none" xmlns="http://www.w3.org/2000/svg">
<path d="M6.33964 1.59536C6.36383 1.66679 6.35174 1.6906 6.32754 1.63107C6.23077 1.47631 5.96464 1.54774 5.51706 1.84536C5.15416 2.09536 5.02109 2.11917 4.81545 2.01203C4.39206 1.78584 3.55738 1.98822 3.27916 2.36917C2.77109 3.07155 2.79529 5.04774 3.31545 6.08346C3.42432 6.29774 3.50899 6.47631 3.50899 6.48822C3.50899 6.51203 3.35174 6.54774 3.15819 6.58346C2.96464 6.63108 2.57754 6.86917 2.31141 7.11917C1.87593 7.52393 1.81545 7.64298 1.82754 8.10727C1.83964 9.28584 2.45658 10.0001 3.44851 10.0001C3.90819 10.0001 4.00496 10.0596 4.30738 10.4406C4.48883 10.6906 4.68238 10.9168 4.71867 10.9525C4.76706 10.9882 4.85174 11.0954 4.91222 11.2144C5.04529 11.4406 6.134 12.6192 6.21867 12.6192C6.25496 12.6192 6.44851 12.7739 6.66625 12.9644C7.67029 13.8692 8.85577 13.9168 8.92835 13.0596C8.96464 12.643 9.00093 12.6073 9.23077 12.6787C11.2509 13.3096 13.5977 12.5001 13.3558 11.2501C13.3195 11.0358 13.3316 10.8335 13.4042 10.7858C13.4646 10.7501 13.4888 10.8573 13.4646 11.0477C13.4163 11.2977 13.4404 11.3335 13.5372 11.1906C13.7429 10.9049 13.7066 10.3573 13.4767 10.3573C13.3558 10.3573 13.3316 10.3096 13.3921 10.2025C13.5856 9.89298 13.1259 8.92869 12.763 8.92869C12.6783 8.92869 12.5816 8.84536 12.5453 8.76203C12.4485 8.52393 11.5654 8.29774 10.9848 8.35727C10.4525 8.40488 10.4404 8.34536 10.7792 7.65488C10.9122 7.36917 11.0453 7.04774 11.0695 6.9406C11.0937 6.82155 11.1179 6.72631 11.13 6.72631C11.1421 6.72631 11.1663 6.48822 11.1783 6.1906C11.2146 5.48822 10.8275 4.10727 10.4042 3.51203C10.0413 2.98822 9.14609 2.14298 8.97674 2.14298C8.90416 2.14298 8.83158 2.07155 8.79529 1.97631C8.63803 1.58346 6.25496 1.21441 6.33964 1.59536ZM7.9848 2.30965C8.40819 2.53584 9.55738 3.61917 9.55738 3.79774C9.55738 3.85727 9.62996 3.96441 9.72674 4.03584C9.90819 4.1906 10.3437 5.32155 10.4525 5.97631C10.5735 6.61917 9.93238 8.16679 9.30335 8.77393C8.7348 9.32155 8.91625 9.39298 10.0413 9.05965C12.388 8.35727 13.9122 11.012 11.7953 12.1073C11.4929 12.262 10.3316 12.2858 9.92029 12.143C9.75093 12.0835 9.30335 11.9525 8.92835 11.8454C8.44448 11.7144 8.19045 11.5716 8.08158 11.3811C7.90012 11.0596 7.36787 10.4287 6.38803 9.36917C5.43238 8.34536 5.20254 7.6906 5.17835 5.9406C5.15416 4.04774 5.48077 2.75012 6.04932 2.40488C6.18238 2.32155 6.27916 2.21441 6.24287 2.16679C6.134 1.97631 7.57351 2.09536 7.9848 2.30965ZM4.35577 2.59536C4.35577 2.64298 4.30738 2.73822 4.2469 2.79774C4.05335 2.98822 3.73883 3.80965 3.8598 3.80965C3.92029 3.80965 4.00496 3.66679 4.05335 3.47631C4.17432 2.97631 4.45254 2.63107 4.71867 2.65488C4.94851 2.66679 5.08158 2.85727 4.85174 2.85727C4.68238 2.85727 4.48883 3.46441 4.41625 4.28584C4.33158 5.08346 4.21061 5.35727 3.90819 5.35727C3.76303 5.35727 3.73883 5.22631 3.81141 4.61917C3.89609 3.97631 3.88399 3.89298 3.72674 4.02393C3.46061 4.23822 3.66625 3.02393 3.94448 2.72631C4.16222 2.48822 4.35577 2.42869 4.35577 2.59536ZM4.41625 5.85727C4.39206 6.2025 4.33158 6.48822 4.28319 6.48822C4.13803 6.48822 3.98077 5.77393 4.11383 5.73822C4.18641 5.71441 4.2348 5.59536 4.2348 5.46441C4.2348 5.34536 4.28319 5.23822 4.34367 5.23822C4.41625 5.23822 4.44045 5.52393 4.41625 5.85727ZM3.58158 8.01203C3.4727 8.23822 3.38803 8.53584 3.38803 8.67869C3.38803 9.00012 3.02512 9.01203 2.94045 8.6906C2.90416 8.55965 2.83158 8.4525 2.77109 8.4525C2.54125 8.4525 2.67432 8.08346 3.04932 7.67869C3.38803 7.29774 3.44851 7.27393 3.60577 7.42869C3.76303 7.58346 3.76303 7.65488 3.58158 8.01203ZM4.71867 9.33346C4.50093 9.54774 4.30738 9.23822 4.48883 8.91679L4.63399 8.64298L4.74287 8.92869C4.80335 9.10727 4.80335 9.25012 4.71867 9.33346ZM6.00093 10.2501C6.19448 10.4763 6.44851 10.7263 6.55738 10.8096C6.66625 10.893 6.73883 11.0358 6.69045 11.1311C6.64206 11.262 6.67835 11.2858 6.82351 11.2382C6.95658 11.1906 7.00496 11.2144 6.95658 11.3216C6.92029 11.4168 7.04125 11.6549 7.2227 11.8573C7.65819 12.3335 7.90012 12.7382 7.75496 12.7382C7.68238 12.7382 7.56141 12.6311 7.46464 12.5001C7.36787 12.3692 7.27109 12.2977 7.2348 12.3335C7.18641 12.3692 7.06545 12.2501 6.93238 12.0716C6.53319 11.5001 6.17029 11.1787 6.02512 11.262C5.94045 11.3096 5.92835 11.2977 5.97674 11.2025C6.07351 11.0596 5.63803 10.4406 5.51706 10.5596C5.48077 10.5954 5.44448 10.5477 5.44448 10.4406C5.44448 10.3335 5.3598 10.2025 5.25093 10.143C5.14206 10.0835 5.08158 9.97631 5.11787 9.91679C5.26303 9.6906 5.66222 9.84536 6.00093 10.2501Z" fill="black"/>
<path d="M7.07712 4.44066C6.53277 5.26209 5.85535 7.73828 6.16986 7.73828C6.23035 7.73828 6.33922 7.51209 6.4118 7.22638C6.59325 6.5359 7.11341 5.15495 7.37954 4.60733C7.64567 4.09542 7.40373 3.95257 7.07712 4.44066Z" fill="black"/>
<path d="M7.68233 6.03646C7.57346 6.41741 7.4162 6.91741 7.33153 7.1436C7.02911 7.94122 6.98072 8.45312 7.21056 8.45312C7.33153 8.45312 7.39201 8.41741 7.35572 8.3817C7.31943 8.34598 7.4404 7.8817 7.62185 7.33408C7.8154 6.79836 7.99685 6.15551 8.03314 5.91741C8.14201 5.21503 7.88798 5.29836 7.68233 6.03646Z" fill="black"/>
<path d="M9.85974 10.7388C9.6662 10.7983 9.36378 10.8697 9.20652 10.8697C9.04926 10.8816 8.892 10.965 8.85571 11.0602C8.80732 11.215 9.56942 11.203 10.0775 11.0245C10.1864 10.9888 10.3799 10.9292 10.4888 10.8816C10.6702 10.834 10.6702 10.8102 10.5251 10.715C10.3194 10.584 10.3315 10.584 9.85974 10.7388Z" fill="black"/>
</svg>
