<svg width="15" height="15" viewBox="0 0 15 15" fill="none" xmlns="http://www.w3.org/2000/svg">
<path d="M9.28084 2.14289C8.8225 2.25003 7.95792 3.22503 7.85375 3.7286C7.81209 3.93218 7.72875 4.1036 7.66625 4.12503C7.60375 4.13575 7.31209 4.20003 7.03084 4.2536C6.49959 4.35003 6.49959 4.35003 6.54125 4.07146C6.56209 3.92146 6.49959 3.70718 6.385 3.56789C6.28084 3.43932 6.0725 3.17146 5.91625 2.96789C5.52042 2.44289 5.01 2.16432 4.49959 2.18575C3.8225 2.21789 3.39542 2.80718 3.77042 3.19289C3.93709 3.36432 4.37459 3.3536 4.37459 3.17146C4.37459 2.63575 4.98917 2.74289 5.65584 3.38575C6.36417 4.08218 6.48917 4.63932 6.12459 5.59289C5.97875 6.00003 5.76 5.96789 5.8225 5.53932C5.8225 5.49646 5.80167 5.46432 5.76 5.46432C5.70792 5.46432 5.51 5.31432 5.31209 5.14289C5.11417 4.97146 4.89542 4.82146 4.83292 4.82146C4.77042 4.82146 4.58292 4.7036 4.42667 4.56432C4.09334 4.27503 3.09334 3.91075 2.86417 4.00718C2.78084 4.03932 2.68709 4.01789 2.65584 3.96432C2.61417 3.90003 2.54125 3.85718 2.48917 3.85718C2.42667 3.85718 2.41625 3.90003 2.4475 3.96432C2.47875 4.01789 2.45792 4.07146 2.40584 4.07146C2.34334 4.07146 2.29125 4.01789 2.29125 3.9536C2.29125 3.77146 1.85375 3.96432 1.51 4.29646C1.135 4.65003 0.885005 5.43218 0.978755 5.92503C1.18709 7.07146 1.28084 7.33932 1.635 7.8536C2.11417 8.53932 2.66625 9.0536 2.92667 9.03218C3.16625 9.01075 3.02042 9.39646 2.74959 9.5036C2.46834 9.61075 2.0725 10.575 2.06209 11.175C2.03084 12.7072 3.23917 13.4572 4.89542 12.9536C5.3225 12.8143 6.06209 12.1393 6.46834 11.4965C6.61417 11.2715 6.66625 11.2393 6.66625 11.3893C6.66625 12.3536 7.86417 12.3 7.93709 11.325L7.96834 10.875L8.24959 11.4215C8.97875 12.8465 9.87459 13.3179 11.2288 12.975C12.1038 12.75 12.5517 12.1179 12.5517 11.0786C12.5517 10.5 12.51 10.2536 12.3746 10.1036C12.2704 9.98575 12.1871 9.83575 12.1871 9.77146C12.1871 9.5786 11.9579 9.49289 11.8538 9.6536C11.7913 9.76075 11.7808 9.7286 11.8225 9.55718C11.8746 9.37503 11.8538 9.32146 11.7496 9.34289C11.5829 9.37503 11.0413 9.02146 11.0413 8.87146C11.0413 8.80718 11.1038 8.80718 11.1871 8.88218C11.3017 8.9786 11.4267 8.9036 11.8017 8.51789C12.0621 8.25003 12.3225 8.03575 12.3746 8.03575C12.8225 8.03575 13.6975 5.65718 13.5829 4.75718C13.4683 3.8036 12.4058 3.10718 11.8433 3.61075C11.7288 3.71789 11.6663 3.73932 11.7079 3.66432C11.8121 3.49289 11.7079 3.5036 11.0933 3.73932C9.72875 4.28575 8.81209 4.87503 8.90584 5.13218C8.93709 5.2286 8.93709 5.26075 8.89542 5.21789C8.85375 5.17503 8.70792 5.21789 8.56209 5.31432C8.27042 5.50718 8.29125 5.5286 8.15584 4.98218C8.02042 4.39289 8.10375 4.15718 8.64542 3.51432C8.90584 3.2036 9.10375 2.91432 9.09334 2.87146C9.0725 2.8286 9.14542 2.8286 9.23917 2.86075C9.33292 2.9036 9.385 2.88218 9.34334 2.8286C9.31209 2.77503 9.37459 2.72146 9.48917 2.72146C9.61417 2.72146 9.68709 2.79646 9.68709 2.91432C9.68709 3.19289 10.1558 3.16075 10.3538 2.87146C10.4475 2.74289 10.5204 2.6036 10.5204 2.57146C10.5204 2.50718 9.73917 2.02503 9.67667 2.04646C9.65584 2.05718 9.47875 2.10003 9.28084 2.14289ZM12.2913 4.1036C12.2913 4.1786 12.3954 4.28575 12.5204 4.33932C13.3225 4.7036 12.8538 6.49289 11.6454 7.73575C11.1142 8.28218 10.8538 8.3786 9.79125 8.42146C9.30167 8.44289 8.77042 8.47503 8.59334 8.48575C8.33292 8.51789 8.28084 8.48575 8.31209 8.3036C8.3225 8.18575 8.35375 7.76789 8.36417 7.38218C8.385 6.68575 8.40584 6.6536 8.92667 6.03218C9.51 5.33575 10.3642 4.75718 11.3538 4.38218C11.6975 4.2536 12.01 4.1036 12.0413 4.06075C12.1246 3.92146 12.2913 3.94289 12.2913 4.1036ZM2.96834 4.51075C2.92667 4.57503 2.95792 4.60718 3.03084 4.58575C3.16625 4.56432 3.36417 4.67146 4.17667 5.21789C4.37459 5.34646 4.61417 5.46432 4.6975 5.46432C4.79125 5.46432 4.92667 5.58218 4.99959 5.73218C5.08292 5.88218 5.20792 5.9786 5.28084 5.95718C5.35375 5.92503 5.41625 5.96789 5.41625 6.06432C5.41625 6.22503 5.43709 6.26789 5.87459 6.77146C6.135 7.07146 6.18709 7.36075 6.30167 9.10718C6.45792 11.5393 4.34334 13.3715 2.92667 12.0215C2.79125 11.8929 2.73917 11.7857 2.80167 11.7857C2.87459 11.7857 2.89542 11.7322 2.85375 11.6572C2.46834 11.0143 3.135 9.91075 4.20792 9.41789C4.96834 9.07503 4.9475 8.78575 4.14542 8.78575C3.93709 8.78575 3.72875 8.73218 3.6975 8.6786C3.59334 8.50718 3.35375 8.55003 3.29125 8.7536C3.26 8.87146 3.24959 8.83932 3.26 8.6786C3.27042 8.49646 3.18709 8.35718 2.95792 8.19646C2.48917 7.88575 2.01 7.12503 1.8225 6.39646C1.52042 5.19646 1.66625 4.76789 2.43709 4.63932C2.64542 4.60718 2.81209 4.53218 2.81209 4.48932C2.81209 4.43575 2.86417 4.39289 2.92667 4.39289C2.97875 4.39289 2.99959 4.44646 2.96834 4.51075ZM7.39542 6.81432C7.39542 6.90003 7.46834 6.96432 7.56209 6.96432C7.68709 6.96432 7.70792 7.06075 7.66625 7.46789C7.64542 7.75718 7.61417 8.04646 7.61417 8.12146C7.60375 8.19646 7.55167 8.2286 7.48917 8.19646C7.42667 8.1536 7.39542 8.18575 7.40584 8.26075C7.41625 8.34646 7.37459 8.55003 7.31209 8.71075C7.23917 8.88218 7.18709 9.08575 7.18709 9.17146C7.18709 9.25718 7.14542 9.32146 7.08292 9.32146C6.90584 9.32146 6.95792 7.97146 7.135 7.82146C7.21834 7.74646 7.29125 7.6286 7.29125 7.56432C7.29125 7.50003 7.20792 7.54289 7.12459 7.66075C6.95792 7.86432 6.95792 7.86432 6.99959 7.57503C7.03084 7.41432 7.02042 7.28575 6.97875 7.28575C6.91625 7.28575 6.91625 6.71789 6.96834 6.56789C7.01 6.48218 7.39542 6.70718 7.39542 6.81432ZM9.29125 8.9036C9.79125 8.88218 9.99959 8.91432 10.0725 9.02146C10.1142 9.10718 10.3121 9.23575 10.4996 9.31075C10.9267 9.49289 11.635 10.3072 11.7183 10.725C11.76 10.8965 11.8225 11.0143 11.8538 10.9929C11.8954 10.9715 11.9163 11.1322 11.8954 11.3679C11.8225 12.1072 10.9267 12.6643 10.1454 12.4393C9.77042 12.3322 9.06209 11.7857 9.06209 11.6036C9.06209 11.5179 8.6975 10.6929 8.47875 10.2536C8.39542 10.0929 8.35375 9.96432 8.39542 9.96432C8.42667 9.96432 8.41625 9.90003 8.36417 9.82503C8.28084 9.71789 8.27042 9.52503 8.3225 8.91432C8.33292 8.8286 8.385 8.80718 8.46834 8.86075C8.53084 8.9036 8.90584 8.92503 9.29125 8.9036ZM7.59334 9.82503C7.54125 9.96432 7.51 10.1143 7.51 10.1572C7.56209 10.4572 7.48917 10.5965 7.3225 10.5322C7.16625 10.4679 7.15584 10.4893 7.26 10.6179C7.35375 10.7357 7.34334 10.8215 7.21834 10.9822C7.06209 11.1965 7.06209 11.1965 7.08292 10.9822C7.12459 10.5965 7.08292 10.3822 6.98917 10.4357C6.93709 10.4679 6.86417 10.425 6.83292 10.3286C6.78084 10.2 6.81209 10.1679 6.93709 10.2215C7.06209 10.275 7.09334 10.2429 7.04125 10.1143C6.99959 10.0072 7.03084 9.96432 7.10375 9.99646C7.17667 10.0179 7.29125 9.96432 7.36417 9.86789C7.52042 9.6536 7.53084 9.53575 7.39542 9.53575C7.34334 9.53575 7.30167 9.58932 7.3225 9.6536C7.33292 9.71789 7.28084 9.8036 7.21834 9.82503C7.01 9.90003 7.06209 9.58932 7.29125 9.37503C7.40584 9.26789 7.49959 9.10718 7.51 9.01075C7.52042 8.91432 7.56209 9.00003 7.60375 9.2036C7.65584 9.40718 7.64542 9.68575 7.59334 9.82503Z" fill="black"/>
<path d="M11.7288 4.77786C11.6247 5.06714 11.6559 5.19571 11.8851 5.335C12.1559 5.51714 12.3955 5.335 12.3955 4.96C12.3955 4.735 12.3642 4.72428 12.1872 4.82071C12.0205 4.91714 11.9788 4.90643 11.9788 4.76714C11.9788 4.55286 11.8122 4.56357 11.7288 4.77786Z" fill="black"/>
<path d="M10.4051 5.56009C9.55096 5.84938 8.65513 6.94224 8.76971 7.57438C8.81138 7.79938 10.1447 7.92795 10.3426 7.72438C10.4051 7.66009 10.5614 7.60652 10.676 7.60652C11.2905 7.60652 11.9572 6.06366 11.5197 5.68866C11.3218 5.51724 10.7385 5.45295 10.4051 5.56009ZM11.0405 6.14938C11.1343 6.33152 11.1343 6.46009 11.0614 6.61009C10.8843 6.93152 10.103 7.44581 9.7593 7.45652H9.4468L9.86346 7.08152C10.0822 6.86724 10.3635 6.64224 10.478 6.57795C10.5822 6.50295 10.6447 6.41724 10.603 6.37438C10.4989 6.26724 9.6343 6.80295 9.42596 7.09224C9.30096 7.28509 9.26971 7.29581 9.26971 7.15652C9.26971 6.79224 10.4989 5.74224 10.7905 5.86009C10.853 5.88152 10.9676 6.02081 11.0405 6.14938Z" fill="black"/>
<path d="M3.01953 4.97185C3.01953 5.16471 3.30078 5.28256 3.39453 5.12185C3.4362 5.06828 3.39453 4.97185 3.32161 4.91828C3.11328 4.77899 3.01953 4.80042 3.01953 4.97185Z" fill="black"/>
<path d="M2.18791 5.15441C2.05249 5.40084 2.13582 5.57227 2.37541 5.57227C2.48999 5.57227 2.56291 5.47584 2.56291 5.31512C2.58374 4.98298 2.33374 4.87584 2.18791 5.15441Z" fill="black"/>
<path d="M2.71931 5.77469C2.10472 6.25683 2.84431 7.72469 3.78181 7.88541C3.99014 7.92826 4.19847 8.00326 4.22972 8.04612C4.32347 8.20683 5.59431 8.16398 5.65681 7.99255C5.78181 7.67112 4.75056 6.22469 4.06306 5.75326C3.76097 5.53898 3.27139 5.51755 3.19847 5.69969C3.15681 5.80683 3.13597 5.80683 3.13597 5.69969C3.12556 5.51755 3.01097 5.53898 2.71931 5.77469ZM3.71931 6.03183C3.79222 6.03183 3.82347 6.07469 3.79222 6.12826C3.76097 6.17112 3.78181 6.21398 3.83389 6.21398C3.93806 6.21398 4.58389 6.79255 4.58389 6.89969C4.58389 6.94255 4.49014 6.92112 4.38597 6.85683C4.27139 6.80326 4.12556 6.74969 4.07347 6.74969C3.85472 6.74969 4.18806 7.13541 4.49014 7.25326C4.65681 7.31755 4.79222 7.43541 4.79222 7.52112C4.79222 7.73541 4.05264 7.70326 3.80264 7.46755C3.68806 7.36041 3.47972 7.19969 3.33389 7.10326C2.93806 6.86755 2.81306 6.51398 2.99014 6.17112C3.10472 5.94612 3.18806 5.89255 3.36514 5.95683C3.49014 5.99969 3.64639 6.03183 3.71931 6.03183Z" fill="black"/>
<path d="M5.34264 8.79619C4.87389 8.93548 4.91556 9.06405 5.42597 9.08548C5.92597 9.1069 6.05097 9.05333 5.96764 8.83905C5.90514 8.6569 5.82181 8.6569 5.34264 8.79619Z" fill="black"/>
<path d="M4.56292 9.76062C3.76083 10.1785 3.39625 10.682 3.37542 11.4106C3.365 11.8606 3.38583 11.9678 3.50042 11.9249C3.58375 11.8928 3.64625 11.807 3.64625 11.7213C3.64625 11.6035 3.71917 11.582 3.91708 11.6356C4.14625 11.6999 4.1775 11.6785 4.115 11.5606C4.03167 11.432 4.0525 11.432 4.19833 11.5606C4.29208 11.6356 4.34417 11.7535 4.31292 11.807C4.27125 11.8713 4.35458 11.8499 4.49 11.7749C4.62542 11.6999 4.77125 11.6463 4.81292 11.657C4.85458 11.6678 4.90667 11.582 4.94833 11.4749C4.97958 11.3678 5.09417 11.2499 5.18792 11.2285C5.35458 11.1749 5.78167 10.007 5.78167 9.58919C5.78167 9.37491 5.12542 9.47134 4.56292 9.76062ZM5.13583 10.2535C5.06292 10.2749 5.00042 10.3499 5.00042 10.4035C5.00042 10.5749 4.45875 11.357 4.34417 11.357C4.28167 11.357 4.14625 11.282 4.04208 11.1856C3.865 11.0142 3.865 10.9928 4.13583 10.7356C4.41708 10.4785 4.95875 10.1785 5.15667 10.1892C5.21917 10.1892 5.19833 10.2213 5.13583 10.2535Z" fill="black"/>
<path d="M8.88462 9.29016C8.5617 9.40802 8.8742 10.3294 9.50962 11.1759C9.67628 11.3902 9.85337 11.5509 9.90545 11.508C9.95753 11.4759 9.9992 11.508 9.9992 11.5616C9.9992 11.7544 10.5513 11.6902 10.8325 11.4652C11.2179 11.1652 11.1867 10.4473 10.77 10.0937C10.52 9.89016 10.1763 9.68659 9.89503 9.59016C9.82212 9.56873 9.45753 9.42944 9.21795 9.33302C9.10337 9.27944 8.94712 9.26873 8.88462 9.29016ZM10.4992 10.758C10.6763 11.1223 10.6242 11.1866 10.2909 11.0259C10.1034 10.9402 10.0409 10.8437 10.0721 10.7044C10.1034 10.5973 10.0721 10.5009 10.0096 10.5009C9.94712 10.5009 9.89503 10.5652 9.89503 10.6294C9.88462 10.7044 9.77003 10.6294 9.63462 10.458C9.4992 10.2759 9.40545 10.1044 9.4367 10.0509C9.53045 9.90087 10.3534 10.4473 10.4992 10.758Z" fill="black"/>
<path d="M11.0196 11.5286C10.9155 11.6357 11.0613 12 11.2071 12C11.2905 12 11.353 11.9571 11.353 11.9036C11.353 11.85 11.3842 11.7321 11.4155 11.6357C11.478 11.4643 11.1551 11.3786 11.0196 11.5286Z" fill="black"/>
</svg>
