<svg width="15" height="15" viewBox="0 0 15 15" fill="none" xmlns="http://www.w3.org/2000/svg">
<path d="M5.1342 1.12881C5.01782 1.15207 4.94023 1.23346 4.97903 1.2916C5.12127 1.48927 4.90144 1.65207 4.70748 1.5009C4.37127 1.24509 3.31092 2.48927 3.32386 3.12881C3.32386 3.23346 3.28506 3.36137 3.23334 3.43114C3.18161 3.48927 3.15575 3.73346 3.18161 3.95439C3.20748 4.17532 3.23334 4.46602 3.23334 4.59393C3.24627 4.89625 3.75058 6.15207 3.89282 6.23346C4.13851 6.36137 3.99627 6.46602 3.54368 6.48928C2.78075 6.53579 1.68161 7.17532 1.68161 7.57067C1.68161 7.68695 1.61696 7.7916 1.53937 7.7916C1.46179 7.7916 1.42299 7.873 1.46179 7.96602C1.51351 8.05904 1.48765 8.16369 1.43592 8.18695C1.30661 8.26834 1.44886 9.03579 1.66868 9.39625C1.78506 9.59393 1.90144 9.64044 2.10834 9.59393C2.32817 9.53579 2.35403 9.54741 2.19886 9.64044C1.97903 9.77997 2.52213 10.0125 2.81954 9.91951C2.89713 9.88462 2.97472 9.91951 2.97472 9.98927C2.97472 10.1753 4.50058 10.059 5.12127 9.82648C5.37989 9.73346 5.61265 9.65207 5.62558 9.65207C5.63851 9.65207 5.62558 9.76834 5.59972 9.91951C5.5092 10.3497 6.01351 10.8265 6.41437 10.6986C6.8411 10.5474 6.89282 10.559 6.77644 10.7218C6.62127 10.9428 6.71179 11.7451 6.93161 12.0939C7.19023 12.4776 7.9661 12.7451 8.48334 12.6288C9.31092 12.4428 10.2549 10.9195 9.71179 10.6637C9.59541 10.6172 9.64713 10.6172 9.82817 10.6521C10.4747 10.8149 11.3152 10.7335 11.9489 10.466C12.7118 10.1288 13.5523 9.43114 13.3195 9.30323C13.2032 9.24509 13.2032 9.19858 13.3066 9.14044C13.3842 9.09393 13.4489 9.09393 13.4489 9.15207C13.4489 9.39625 13.8626 8.51253 13.8626 8.24509C13.8756 7.873 13.5135 7.36137 13.1644 7.25672C12.9187 7.18695 11.7937 7.10555 11.0308 7.09393C10.8368 7.09393 10.7592 7.03579 10.8109 6.93114C10.8497 6.83811 10.7851 6.57067 10.6687 6.34974L10.4489 5.93114L10.8756 5.61718C11.729 4.95439 12.2463 4.7916 12.6601 5.02416C13.0092 5.22183 13.3713 4.95439 13.1902 4.64044C12.8799 4.14044 11.6644 4.51253 10.5782 5.45439C10.229 5.74509 10.048 5.82648 9.94454 5.73346C9.8411 5.64044 9.87989 5.55904 10.0609 5.45439C10.3066 5.2916 10.8885 4.38462 10.8368 4.22183C10.8368 4.16369 10.8626 4.03579 10.9144 3.91951C11.173 3.40788 10.3842 2.68695 9.97041 3.05904C9.73765 3.26834 9.8023 3.45439 10.1514 3.53579C10.6558 3.65207 10.5911 4.26834 10.0092 5.03579C9.53075 5.65207 9.44023 5.73346 8.97472 5.86137C8.72903 5.93114 8.7161 5.88462 8.7161 5.09393C8.72903 2.71021 6.90575 0.698577 5.1342 1.12881ZM6.8411 2.38462C6.99627 2.41951 7.08679 2.51253 7.03506 2.57067C6.99627 2.64044 7.04799 2.77997 7.15144 2.88462C7.41006 3.14044 7.61696 3.62881 7.69454 4.17532C7.72041 4.41951 7.79799 4.74509 7.86265 4.89625C7.9273 5.04741 7.9661 5.51253 7.95317 5.93114C7.9273 6.66369 7.91437 6.69858 7.29368 7.2916C6.94454 7.61718 6.51782 8.09393 6.33679 8.34974C5.87127 9.03579 5.27644 9.2916 4.06092 9.34974C2.28937 9.43114 1.70748 8.69858 2.74196 7.66369C3.10403 7.2916 4.57817 7.11718 5.61265 7.32648C6.03937 7.40788 6.28506 7.40788 6.40144 7.32648C6.47903 7.26834 6.59541 7.24509 6.6342 7.2916C6.68592 7.32648 6.72472 7.31486 6.72472 7.25672C6.72472 7.04741 6.50489 6.84974 6.23334 6.80323C6.07817 6.77997 5.69023 6.57067 5.36696 6.33811C5.03075 6.0823 4.73334 5.94276 4.64282 6.0009C4.5523 6.04741 4.52644 6.03579 4.57817 5.95439C4.61696 5.88462 4.5523 5.62881 4.41006 5.38462C4.26782 5.14044 4.13851 4.77997 4.11265 4.59393C4.08679 4.39625 4.02213 4.21021 3.94454 4.16369C3.86696 4.10555 3.87989 4.07067 3.97041 4.07067C4.06092 4.07067 4.12558 3.91951 4.11265 3.68695C4.09972 3.32648 4.47472 2.59393 4.88851 2.16369C5.06954 2.0009 5.23765 1.96602 5.7161 2.0009C6.11696 2.03579 6.33679 2.01253 6.34972 1.93114C6.34972 1.86137 6.40144 1.91951 6.4661 2.05904C6.53075 2.19858 6.69886 2.33811 6.8411 2.38462ZM8.85834 7.26834C8.58679 7.47765 8.28937 7.62881 8.22472 7.5823C8.14713 7.54741 8.16006 7.5009 8.26351 7.46602C8.35403 7.44276 8.57386 7.2916 8.75489 7.14044C8.93592 6.98927 9.15575 6.86137 9.23334 6.86137C9.31092 6.873 9.14282 7.04741 8.85834 7.26834ZM13.0609 8.18695C13.0609 8.89625 11.6902 10.0125 10.7463 10.0474C10.2937 10.0707 9.82817 9.873 9.2592 9.39625C9.11696 9.27997 8.96179 9.18695 8.89713 9.18695C8.62558 9.18695 8.84541 8.81486 9.34972 8.44276C9.95748 8.0009 10.5523 7.74509 10.8109 7.83811C10.9144 7.873 11.0049 7.86137 11.0437 7.81486C11.0695 7.76834 11.5351 7.74509 12.0782 7.76834L13.0609 7.81486V8.18695ZM7.88851 8.71021C7.88851 8.76834 7.79799 8.873 7.69454 8.95439C7.52644 9.0823 7.51351 9.07067 7.57817 8.89625C7.64282 8.74509 7.62989 8.71021 7.52644 8.76834C7.43592 8.81486 7.37127 8.93114 7.37127 9.02416C7.37127 9.11718 7.22903 9.25672 7.04799 9.32648C6.86696 9.39625 6.72472 9.51253 6.72472 9.5823C6.72472 9.65207 6.66006 9.64044 6.56954 9.54741C6.4273 9.43114 6.49196 9.32648 6.87989 9.0009C7.33248 8.64044 7.88851 8.46602 7.88851 8.71021ZM8.72903 9.67532C8.85834 10.1521 8.8842 11.1637 8.78075 11.1637C8.72903 11.1637 8.66437 11.28 8.61265 11.4311C8.52213 11.7683 8.01782 12.0009 7.72041 11.8381C7.26782 11.6172 8.03075 9.30323 8.53506 9.30323C8.58679 9.30323 8.6773 9.47765 8.72903 9.67532Z" fill="currentColor"/>
</svg>
