<svg width="15" height="15" viewBox="0 0 15 15" fill="none" xmlns="http://www.w3.org/2000/svg">
<path d="M3.66002 1.68599C2.72645 2.02541 1.80338 3.21884 1.72995 4.19329C1.70897 4.35752 1.65652 4.5546 1.59359 4.63125C1.44673 4.81738 1.43624 6.613 1.57261 7.09475C1.80338 7.88307 1.7824 7.83928 1.89778 7.66409C1.99219 7.53271 2.00268 7.53271 1.95023 7.69694C1.82436 8.0911 2.90477 9.02176 3.50268 9.03271C3.61806 9.03271 3.72296 9.0984 3.75443 9.18599C3.78589 9.28453 3.74394 9.30643 3.58659 9.26263C3.04114 9.0765 2.36981 10.7955 2.55862 11.8794C2.84184 13.4561 4.95023 13.4013 5.90477 11.7918C6.10408 11.4743 6.29289 11.3977 6.29289 11.6495C6.29289 12.1203 6.94324 12.0875 7.13205 11.5947C7.26841 11.2553 7.44673 11.2663 7.44673 11.6057C7.44673 11.7152 7.52016 11.8794 7.60408 11.967C7.70897 12.0765 7.71946 12.1531 7.64603 12.175C7.57261 12.1969 7.76142 12.4378 8.05512 12.7115C8.61107 13.2371 9.74394 13.6531 9.83834 13.3685C9.86981 13.2809 9.92226 13.2699 10.0062 13.3466C10.2999 13.6093 11.6635 12.8867 11.4747 12.5692C11.4432 12.5254 11.4957 12.4816 11.5796 12.4816C11.7474 12.4816 11.8838 11.9561 11.8943 11.321C11.8943 10.9159 11.632 10.3028 11.3279 10.0181C11.0446 9.75533 11.0656 9.6349 11.3698 9.6349C11.5167 9.6349 11.695 9.53636 11.7789 9.41592C11.8628 9.29548 11.9572 9.22979 11.9887 9.27358C12.0306 9.30643 12.0621 9.28453 12.0621 9.21884C12.0621 9.14219 12.1355 9.08745 12.2299 9.08745C12.3139 9.08745 12.3558 9.03271 12.3244 8.97796C12.2929 8.91227 12.3348 8.83563 12.4188 8.80278C12.5132 8.76993 12.5866 8.68234 12.5866 8.6057C12.5866 8.54001 12.6705 8.43052 12.7859 8.35387C13.5936 7.82833 13.8453 5.00351 13.195 3.68964C12.9118 3.0984 12.4607 2.51811 12.3034 2.51811C12.2299 2.51811 12.167 2.46336 12.167 2.40862C12.167 2.28818 11.0237 2.25533 10.4992 2.36482C10.3209 2.40862 10.2055 2.48526 10.2474 2.55095C10.2789 2.61665 10.2579 2.6276 10.195 2.5838C10.0796 2.51811 9.66002 2.68234 9.54463 2.84658C9.51317 2.87942 9.31387 3.02176 9.10408 3.16409C8.8838 3.29548 8.62156 3.52541 8.50617 3.67869C8.40128 3.82103 8.25443 3.94147 8.19149 3.94147C8.12855 3.94147 8.0761 3.99621 8.0761 4.0619C8.0761 4.11665 8.03415 4.14949 7.99219 4.11665C7.93974 4.0838 7.91876 3.91957 7.95023 3.74439C7.9817 3.50351 7.92925 3.38307 7.76142 3.25168C7.43624 3.01081 7.26841 3.1203 6.89079 3.82103L6.55512 4.43417L6.49219 3.94147C6.40827 3.28453 6.27191 2.96701 5.90477 2.5619C5.05512 1.65314 4.43624 1.40132 3.66002 1.68599ZM4.52016 2.28818C4.89778 2.34293 6.07261 3.89767 6.0831 4.35752C6.0831 4.44512 6.15652 4.67504 6.25093 4.87212C6.39778 5.20059 6.39778 5.26628 6.26142 5.49621C6.1775 5.63855 6.07261 5.96701 6.04114 6.24074C5.95722 6.87577 5.84184 8.43052 5.85233 8.67139C5.85233 8.78088 5.82086 8.89037 5.75792 8.92322C5.70547 8.96701 5.66352 8.94511 5.66352 8.87942C5.66352 8.81373 5.44324 8.79183 5.13904 8.81373C4.85582 8.83563 4.61456 8.81373 4.61456 8.76993C4.61456 8.72614 4.33135 8.6057 3.98519 8.49621C2.85233 8.1349 2.26491 7.25898 2.16002 5.74803C2.08659 4.72979 2.90477 2.75898 3.49219 2.5619C3.58659 2.52906 3.67051 2.46336 3.67051 2.40862C3.67051 2.31008 4.03764 2.22249 4.29988 2.25533C4.3838 2.26628 4.48869 2.28818 4.52016 2.28818ZM12.0097 3.26263C12.8174 3.93052 13.0691 5.67139 12.5866 7.20424C12.4502 7.6422 12.3034 7.99256 12.2509 7.99256C12.209 7.99256 12.167 8.05825 12.167 8.12395C12.167 8.57285 10.4782 9.29548 9.41876 9.30643C8.69498 9.30643 8.7789 9.78818 9.51317 9.89767C10.2789 10.0072 10.8663 10.5656 11.0132 11.3429C11.1286 11.8904 11.1181 11.978 10.9397 12.175C10.5097 12.6677 9.61806 12.8648 9.09359 12.5802C8.85233 12.4378 8.08659 11.6057 8.0761 11.4634C8.0761 11.4196 7.9817 11.2334 7.85582 11.0692C7.61457 10.7188 7.42575 9.16409 7.5831 8.73709C7.63554 8.59475 7.68799 7.90497 7.70897 7.20424C7.74044 6.27358 7.79289 5.81373 7.92925 5.50716C8.11806 5.08015 9.56561 3.50351 9.76491 3.50351C9.82785 3.50351 9.9747 3.43782 10.1006 3.36117C10.7929 2.95606 11.5796 2.91227 12.0097 3.26263ZM7.52016 4.54366C7.48869 4.76263 7.44673 4.95971 7.41526 4.99256C7.33135 5.08015 7.21596 4.40132 7.28939 4.26993C7.42575 4.02906 7.55163 4.18234 7.52016 4.54366ZM7.00617 6.64585C6.98519 7.0619 6.94324 7.42322 6.89079 7.45606C6.84883 7.48891 6.80687 7.81738 6.79638 8.20059C6.78589 8.57285 6.74394 8.90132 6.69149 8.93417C6.64953 8.96701 6.60757 9.0546 6.60757 9.1203C6.60757 9.20789 6.63904 9.20789 6.70198 9.0984C6.76491 8.99986 6.81736 8.98891 6.85932 9.0765C6.90128 9.14219 6.90128 9.25168 6.86981 9.30643C6.82785 9.37212 6.7754 9.55825 6.75442 9.72249C6.66002 10.2371 6.4817 10.2918 6.53415 9.77723C6.55512 9.52541 6.53415 9.26263 6.49219 9.18599C6.45023 9.10935 6.46072 8.92322 6.51317 8.78088C6.58659 8.5838 6.5761 8.47431 6.49219 8.41957C6.38729 8.35387 6.38729 8.29913 6.49219 8.16774C6.56561 8.08015 6.59708 7.94876 6.55512 7.88307C6.52366 7.82833 6.52366 7.71884 6.56561 7.65314C6.60757 7.5765 6.66002 7.36847 6.67051 7.18234C6.71247 6.82103 6.74394 6.67869 6.86981 6.20789C6.99568 5.72614 7.03764 5.85752 7.00617 6.64585ZM5.90477 9.68964C6.02016 10.2699 5.91526 10.7626 5.61107 11.1568C5.46422 11.332 5.34883 11.4962 5.34883 11.5291C5.34883 11.6933 4.76142 12.186 4.46771 12.2736C3.93275 12.4378 3.79638 12.394 3.52366 11.967C3.09359 11.3101 3.36631 10.1166 4.03764 9.74438C4.1845 9.65679 4.28939 9.53636 4.25792 9.45971C4.22645 9.38307 4.2789 9.35022 4.39429 9.38307C4.49918 9.40497 4.74044 9.38307 4.93974 9.31738C5.60058 9.1203 5.79988 9.19694 5.90477 9.68964Z" fill="black"/>
</svg>
