<svg width="15" height="15" viewBox="0 0 15 15" fill="none" xmlns="http://www.w3.org/2000/svg">
<path d="M9.82776 1.10769C9.02087 1.58077 8.50362 2.49231 8.21397 4.01538C8.12087 4.5 8.01742 5.01923 7.99673 5.16923C7.945 5.38846 7.88293 5.42308 7.56225 5.38846C7.16914 5.35385 7.16914 5.36538 6.99328 4.18846C6.87949 3.46154 6.77604 3.11538 6.51742 2.53846C6.20707 1.86923 5.48293 0.980768 5.48293 1.28077C5.47259 1.40769 5.44155 1.39615 5.33811 1.23461C5.18293 1.00384 5.0588 0.992306 4.53121 1.15384C4.045 1.30384 3.48638 1.82308 3.5588 2.04231C3.58983 2.13461 3.54845 2.28461 3.46569 2.38846C3.31052 2.56154 3.3519 2.82692 3.51742 2.71154C3.56914 2.67692 3.63121 2.74615 3.67259 2.87308C3.77604 3.24231 4.2519 3.39231 4.67604 3.19615C5.14155 2.97692 5.22431 2.82692 5.04845 2.55C4.91397 2.34231 4.88293 2.33077 4.57259 2.50385C4.31397 2.64231 4.20018 2.65385 4.11742 2.56154C3.84845 2.26154 4.51052 1.61538 5.08983 1.61538C5.38983 1.61538 5.96914 2.35385 6.19673 3.03461C6.48638 3.92308 6.75535 5.27308 6.69328 5.53846C6.66225 5.66538 6.69328 5.78077 6.76569 5.81538C6.84845 5.85 6.84845 5.89615 6.76569 5.96538C6.69328 6.01154 6.58983 6.27692 6.52776 6.54231C6.45535 6.81923 6.36224 7.03846 6.32087 7.03846C6.26914 7.03846 6.24845 6.94615 6.27949 6.83077C6.32087 6.62308 6.18638 6.46154 5.38983 5.73461C5.26569 5.63077 5.1519 5.53846 5.13121 5.53846C5.10018 5.53846 4.93466 5.38846 4.74845 5.20385C4.56224 5.00769 4.38638 4.86923 4.35535 4.88077C4.32431 4.89231 4.06569 4.77692 3.78638 4.62692C3.39328 4.40769 3.24845 4.37308 3.09328 4.47692C2.96914 4.56923 2.89673 4.56923 2.87604 4.48846C2.85535 4.40769 2.68983 4.39615 2.4519 4.44231C2.17259 4.5 2.06914 4.58077 2.11052 4.68461C2.14155 4.77692 2.12086 4.84615 2.06914 4.84615C2.00707 4.84615 1.96569 4.77692 1.96569 4.70769C1.96569 4.39615 1.52086 5.08846 1.33466 5.66538C0.765692 7.54615 1.7588 9.63461 3.48638 10.1769C3.5588 10.2 3.445 10.4192 3.19673 10.7308C2.9588 11.0423 2.80362 11.3308 2.83466 11.4577C2.85535 11.5615 2.83466 11.6308 2.78293 11.5962C2.66914 11.5038 2.7519 12.3808 2.88638 12.6808C3.08293 13.0846 3.60018 13.3962 4.16914 13.4654C4.83121 13.5346 5.53466 13.2 6.26914 12.4385C6.71397 11.9885 6.73466 11.9769 6.79673 12.2077C6.84845 12.4731 7.24156 12.6577 7.43811 12.5308C7.50018 12.4846 7.62431 12.2769 7.71742 12.0577C7.89328 11.6423 8.06914 11.5269 8.06914 11.8154C8.06914 12.3577 9.60018 13.5 10.3243 13.5C11.9691 13.5 12.6829 11.7577 11.6071 10.35C11.4209 10.1192 11.4105 10.1423 11.9691 9.87692C12.445 9.64615 13.4381 8.63077 13.614 8.19231C14.214 6.70385 14.1726 5.57308 13.5105 4.85769C13.1898 4.51154 12.9829 4.41923 12.414 4.36154C11.6381 4.28077 9.745 5.42308 8.96914 6.45L8.73121 6.77308L8.49328 6.21923C8.36914 5.90769 8.29673 5.59615 8.32776 5.53846C8.3588 5.48077 8.4519 5.05385 8.53466 4.59231C8.61742 4.13077 8.71052 3.62308 8.74156 3.47308C8.88638 2.66538 9.50707 1.73077 9.88983 1.73077C9.97259 1.73077 10.0347 1.67308 10.0347 1.61538C10.0347 1.39615 10.9553 1.48846 11.1726 1.73077C11.4209 2.00769 11.4312 2.07692 11.2243 2.37692C11.0691 2.59615 11.0691 2.59615 10.8726 2.33077C10.7588 2.19231 10.645 2.12308 10.614 2.18077C10.5726 2.23846 10.614 2.31923 10.676 2.35385C10.7485 2.37692 10.6967 2.4 10.5519 2.38846C10.2622 2.36538 10.1485 2.67692 10.345 2.94231C10.7278 3.45 11.8036 2.82692 11.7829 2.11154C11.7726 1.68461 11.4726 1.13077 11.2243 1.06154C10.7898 0.946153 10.076 0.969229 9.82776 1.10769ZM3.68293 5.28461C4.22086 5.60769 5.31742 6.6 5.64845 7.05C5.82431 7.29231 6.01052 7.44231 6.09328 7.40769C6.18638 7.37308 6.21742 7.39615 6.16569 7.47692C6.13466 7.54615 6.17604 7.65 6.27949 7.70769C6.51742 7.85769 6.54845 10.6731 6.31052 11.3077C6.03121 12.0808 4.97604 12.9231 4.30362 12.9231C3.47604 12.9231 3.17604 11.7462 3.80707 10.9962C3.96224 10.8231 4.07604 10.65 4.06569 10.6154C4.05535 10.5808 4.17949 10.5462 4.345 10.5346C4.51052 10.5231 4.82087 10.4308 5.03811 10.3269L5.43121 10.1423L5.17259 9.99231C5.02776 9.91154 4.69673 9.80769 4.43811 9.77308C3.88983 9.69231 3.145 9.35769 2.82431 9.03461C2.48293 8.7 1.89328 7.55769 1.82086 7.08461C1.72776 6.54231 2.00707 5.49231 2.29673 5.25C2.59673 5.01923 3.27949 5.03077 3.68293 5.28461ZM13.045 5.43461C13.3864 5.93077 13.4278 6.19615 13.2933 6.87692C13.045 8.08846 12.0622 9.38077 11.2864 9.53077C10.7691 9.62308 10.2105 9.81923 10.0657 9.95769C9.84845 10.1423 9.91052 10.3846 10.1691 10.3615C10.3036 10.35 10.5829 10.4538 10.7898 10.6038C11.4312 11.0423 11.6485 12.3923 11.1209 12.6231C11.0278 12.6577 10.976 12.7269 11.0071 12.7846C11.1002 12.9577 9.83811 12.8308 9.54845 12.6346C9.39328 12.5308 9.145 12.2654 9.00018 12.0462C8.85535 11.8154 8.63811 11.5038 8.52431 11.3308C8.33811 11.0654 8.30707 10.8923 8.33811 10.1769C8.3588 9.47308 8.33811 9.33461 8.21397 9.39231C8.13121 9.42692 8.06914 9.38077 8.06914 9.3C8.06914 9.20769 8.1519 9.15 8.245 9.16154C8.38983 9.17308 8.44156 9.04615 8.49328 8.53846C8.55535 7.93846 8.59673 7.85769 9.21742 7.2C10.314 6.03461 10.5933 5.79231 11.2864 5.42308C12.1864 4.95 12.714 4.95 13.045 5.43461ZM7.7588 8.55C7.7588 8.61923 7.69673 8.63077 7.63466 8.58461C7.53121 8.51538 7.53121 8.52692 7.62431 8.66538C7.72776 8.80385 7.70707 8.98846 7.5519 9.58846C7.43811 9.99231 7.345 10.4654 7.345 10.6385C7.345 10.8231 7.30362 10.9615 7.26225 10.9615C7.10707 10.9615 7.17949 9.87692 7.345 9.72692C7.47949 9.6 7.47949 9.58846 7.33466 9.57692C7.18983 9.57692 7.1588 9.43846 7.1588 8.82692L7.14845 8.07692L7.4588 8.25C7.62431 8.35385 7.7588 8.48077 7.7588 8.55Z" fill="black"/>
<path d="M3.79764 7.35072C3.99419 7.98534 5.69074 9.13918 5.69074 8.64303C5.69074 8.53918 4.67695 7.6738 4.55281 7.6738C4.52177 7.6738 4.35626 7.55841 4.17005 7.40841C3.77695 7.09687 3.71488 7.08534 3.79764 7.35072Z" fill="black"/>
<path d="M5.38003 11.1913C5.38003 11.249 5.31796 11.2721 5.24555 11.2375C5.17313 11.2144 5.01796 11.2837 4.91451 11.4221C4.61451 11.7913 5.06968 11.7337 5.38003 11.3644C5.51451 11.2029 5.56623 11.076 5.50417 11.076C5.43175 11.076 5.38003 11.1221 5.38003 11.1913Z" fill="black"/>
<path d="M10.3665 7.65017C10.2423 7.80017 10.1389 7.97325 10.1389 8.04248C10.1389 8.12325 9.99407 8.28479 9.82856 8.42325C9.55959 8.64248 9.52856 8.70017 9.64235 8.85017C9.75614 9.01171 9.84925 8.94248 10.3044 8.36556C10.6044 7.99633 10.8217 7.6271 10.7906 7.53479C10.7182 7.31556 10.6251 7.35017 10.3665 7.65017Z" fill="black"/>
<path d="M9.47662 11.0431C9.35248 11.1816 9.4249 11.2969 9.76628 11.5277C10.1904 11.8277 10.3456 11.8393 10.2732 11.5623C10.2214 11.3546 9.58007 10.9277 9.47662 11.0431Z" fill="black"/>
</svg>
