<svg width="15" height="15" viewBox="0 0 15 15" fill="none" xmlns="http://www.w3.org/2000/svg">
<path d="M6.95164 1.27713C6.84215 1.39415 6.71077 1.76649 6.65602 2.10692C6.61223 2.43671 6.54653 2.80905 6.52463 2.92607C6.49179 3.04309 6.46989 3.33032 6.46989 3.56437L6.45894 3.97926L5.99909 3.54309C5.40785 3.00054 4.58668 2.46862 4.4115 2.52181C4.3458 2.54309 4.25821 2.51118 4.22536 2.45798C4.17062 2.38352 4.06113 2.38352 3.875 2.44735C3.68887 2.52181 3.62318 2.52181 3.66697 2.44735C3.76551 2.28777 2.68157 2.40479 2.09033 2.60692C1.47719 2.80905 0.875 3.27713 0.875 3.54309C0.875 4.01118 2.95529 5.70267 3.77646 5.90479C4.55383 6.08564 4.52099 6.08564 5.8458 6.03245C6.27281 6.01118 6.28376 6.02181 6.41515 6.51118C6.53558 6.96862 6.52463 7.01118 6.3604 6.93671C6.14142 6.83033 5.18887 6.84096 4.81661 6.95798C4.18157 7.14947 3.95164 7.2665 4.01734 7.37288C4.06113 7.44735 4.01734 7.45798 3.88595 7.41543C3.67792 7.33033 3.3604 7.52181 3.45894 7.67075C3.49179 7.72394 3.44799 7.73458 3.3604 7.70267C3.17427 7.63884 2.59398 8.2665 2.69252 8.42607C2.73631 8.4899 2.71442 8.51118 2.64872 8.46862C2.50639 8.38352 2.03558 9.09628 2.13412 9.25586C2.16697 9.30905 2.15602 9.36224 2.10128 9.36224C1.75091 9.36224 1.76186 11.3835 2.11223 12.1495C2.80201 13.6495 4.76186 14.341 6.32755 13.6282C6.79836 13.4154 6.9188 13.3942 7.06113 13.5112C7.14872 13.5856 7.25821 13.6176 7.29106 13.5856C7.33485 13.5537 7.42245 13.5856 7.49909 13.6601C7.80566 13.958 9.94069 13.6814 10.4772 13.2665C11.0794 12.809 11.6378 12.1601 11.5502 12.0218C11.5173 11.958 11.5283 11.9154 11.594 11.9154C11.8896 11.9154 12.0757 10.1708 11.8458 9.57501C11.7363 9.28777 11.7144 9.2133 11.7144 9.03245C11.7144 8.97926 11.6597 8.95798 11.583 9.00054C11.5064 9.04309 11.4954 9.03245 11.5392 8.94735C11.8239 8.50054 9.69982 6.74522 9.13047 6.95798C9.05383 6.9899 8.97719 6.96862 8.95529 6.90479C8.93339 6.8516 8.55018 6.78777 8.10128 6.77713C7.3239 6.74522 7.29106 6.73458 7.21442 6.45798C7.17062 6.29841 7.18157 6.17075 7.23631 6.17075C7.29106 6.17075 7.35675 6.05373 7.40055 5.91543C7.44434 5.74522 7.53193 5.66011 7.66332 5.67075C7.77281 5.68139 7.84945 5.7133 7.81661 5.75586C7.73996 5.88352 9.02099 6.05373 9.57938 5.9899C10.4662 5.89415 10.5648 5.88352 10.5648 5.86224C10.5648 5.84096 10.6414 5.81969 10.74 5.79841C11.167 5.72394 12.2619 5.13884 12.4042 4.91543C12.4589 4.84096 12.5356 4.80905 12.6013 4.84096C12.656 4.88352 12.6998 4.8516 12.6998 4.78777C12.6998 4.72394 12.7436 4.69203 12.7984 4.72394C12.8531 4.75586 12.9188 4.7133 12.9516 4.6282C12.9954 4.52181 12.9626 4.50054 12.8312 4.53245C12.7327 4.56437 12.7655 4.52181 12.9188 4.42607C13.0721 4.34096 13.2911 4.1282 13.4115 3.94735C13.5319 3.7665 13.6633 3.61756 13.7181 3.61756C13.7619 3.61756 13.7947 3.46862 13.7947 3.28777C13.7947 3.07501 13.8385 2.9899 13.9151 3.04309C13.9918 3.08564 14.0246 3.05373 13.9918 2.96862C13.8385 2.51118 12.2181 2.03245 10.9918 2.07501C10.1597 2.10692 9.30566 2.30905 9.30566 2.46862C9.30566 2.52181 9.25091 2.55373 9.19617 2.55373C8.70347 2.55373 7.3896 4.10692 7.4115 4.66011C7.42245 4.75586 7.35675 4.97926 7.28011 5.16011C7.20347 5.33033 7.11588 5.55373 7.08303 5.63884C7.03923 5.72394 7.01734 5.41543 7.02828 4.94735C7.03923 4.47926 7.08303 4.04309 7.12682 3.9899C7.15967 3.92607 7.22536 3.63884 7.25821 3.3516C7.30201 3.05373 7.37865 2.57501 7.44434 2.28777C7.65237 1.38352 7.64142 1.14947 7.37865 1.10692C7.24726 1.08564 7.06113 1.16011 6.95164 1.27713ZM12.3932 2.80905C12.6779 2.8516 12.9407 2.92607 12.9735 2.9899C13.0173 3.04309 13.094 3.05373 13.1597 3.02181C13.2801 2.94735 12.9078 3.63884 12.667 3.93671C12.1633 4.55373 10.6962 5.34096 10.2473 5.23458C10.2035 5.2133 10.094 5.25586 10.0173 5.31969C9.86405 5.44735 8.68157 5.44735 8.21077 5.31969C7.98084 5.2665 8.11223 5.17075 9.11953 4.70267C9.76551 4.39415 10.3458 4.14947 10.4005 4.14947C10.4662 4.14947 10.6962 4.07501 10.9261 3.97926C11.1451 3.88352 11.4078 3.79841 11.4954 3.78777C11.583 3.77713 11.6597 3.72394 11.6597 3.67075C11.6597 3.60692 11.6049 3.57501 11.5283 3.59628C11.4516 3.61756 11.3859 3.57501 11.3859 3.52181C11.3859 3.46862 11.2984 3.43671 11.1889 3.45798C10.6743 3.55373 9.97354 3.7665 9.63412 3.92607C9.42609 4.03245 9.05383 4.20267 8.81296 4.30905C8.57208 4.42607 8.28741 4.58564 8.17792 4.67075C8.06843 4.75586 7.89325 4.84096 7.79471 4.8516C7.64142 4.88352 7.64142 4.8516 7.82755 4.70267C7.95894 4.60692 8.18887 4.31969 8.36405 4.07501C8.52828 3.83032 8.73631 3.60692 8.8239 3.57501C8.90055 3.54309 8.95529 3.45798 8.93339 3.38352C8.92245 3.30905 8.92245 3.27713 8.94434 3.30905C8.96624 3.3516 9.11953 3.31969 9.28376 3.24522C9.74361 3.03245 10.3349 2.78777 10.4772 2.74522C10.7071 2.69203 11.8349 2.72394 12.3932 2.80905ZM4.49909 3.24522C4.91515 3.45798 5.85675 4.36224 5.8677 4.57501C5.87865 4.66011 5.92245 4.83033 5.96624 4.94735C6.03193 5.14947 6.03193 5.14947 5.87865 4.96862C5.79106 4.87288 5.67062 4.78777 5.59398 4.78777C5.52828 4.78777 5.47354 4.74522 5.47354 4.69203C5.47354 4.53245 4.17062 3.91543 3.90785 3.95798C3.71077 3.9899 3.79836 4.08564 4.43339 4.4899C5.59398 5.24522 5.80201 5.41543 5.52828 5.41543C5.40785 5.41543 5.15602 5.42607 4.96989 5.43671C4.56478 5.45798 3.49179 5.11756 3.3604 4.91543C3.30566 4.84096 3.22901 4.80905 3.16332 4.84096C3.10858 4.88352 3.06478 4.87288 3.06478 4.81969C3.06478 4.69203 2.61588 4.22394 2.30931 4.01118C2.00274 3.80905 1.92609 3.57501 2.11223 3.41543C2.51734 3.09628 3.98449 2.9899 4.49909 3.24522ZM8.64872 7.44735C8.64872 7.28777 9.8969 7.95798 10.3786 8.37288C11.5064 9.36224 11.5392 11.4793 10.4334 12.4048C9.75456 12.9686 8.75821 13.2559 8.45164 12.958C8.3531 12.8622 8.32026 12.8622 8.32026 12.9899C8.32026 13.1176 8.23266 13.1388 7.98084 13.1069C7.55383 13.0431 7.46624 12.8303 7.72901 12.4686C8.38595 11.575 8.63777 9.41543 8.13412 9.05373C8.09033 9.02181 8.04653 8.93671 8.03558 8.88352C8.02463 8.67075 7.52099 7.66011 7.43339 7.66011C7.37865 7.66011 7.33485 7.60692 7.33485 7.54309C7.33485 7.4899 7.3677 7.45798 7.42245 7.47926C7.46624 7.51118 7.59763 7.4899 7.71807 7.44735C7.8385 7.40479 8.09033 7.40479 8.28741 7.45798C8.48449 7.50054 8.64872 7.4899 8.64872 7.44735ZM6.29471 7.56437C5.8239 7.78777 5.18887 9.10692 5.27646 9.68139C5.3312 10.1282 5.8458 10.0537 5.8677 9.59628C5.8896 9.2665 6.50274 7.92607 6.68887 7.80905C6.73266 7.78777 6.98449 8.18139 7.24726 8.68139C7.84945 9.87288 7.93704 10.9154 7.48814 11.6069C7.3458 11.8303 7.22536 12.0431 7.22536 12.075C7.22536 12.5005 5.3969 13.4048 4.8823 13.2452C4.72901 13.192 4.05018 13.075 3.80931 13.0537C3.71077 13.0431 3.65602 13.0005 3.67792 12.958C3.71077 12.9154 3.56843 12.7771 3.37135 12.6601C3.17427 12.5431 3.04288 12.4473 3.08668 12.4473C3.13047 12.4473 3.05383 12.2878 2.9115 12.0856C2.76916 11.8835 2.62682 11.4899 2.59398 11.2027C2.50639 10.5856 2.67062 9.22394 2.83485 9.17075C2.90055 9.14947 2.95529 9.06437 2.95529 8.9899C2.95529 8.58564 4.49909 7.61756 5.30931 7.52181C6.02099 7.42607 6.52463 7.45798 6.29471 7.56437Z" fill="currentColor"/>
</svg>
