<svg width="15" height="15" viewBox="0 0 15 15" fill="none" xmlns="http://www.w3.org/2000/svg">
<path d="M6.91808 1.0971C6.8017 1.45871 6.91808 2.71764 7.08619 2.7846C7.20256 2.82478 7.24136 2.5971 7.24136 1.95425C7.24136 1.15067 7.06032 0.681924 6.91808 1.0971Z" fill="black"/>
<path d="M9.59502 2.34319C9.29761 2.98605 9.23295 3.34766 9.42692 3.34766C9.53036 3.34766 10.2157 1.98158 10.2157 1.79408C10.2157 1.51283 9.81485 1.87444 9.59502 2.34319Z" fill="black"/>
<path d="M3.87891 1.99581C3.87891 2.18331 4.68063 3.48242 4.79701 3.48242C5.05563 3.48242 4.99098 3.20117 4.57718 2.57171C4.16339 1.92885 3.87891 1.70117 3.87891 1.99581Z" fill="black"/>
<path d="M6.40036 3.4679C2.81846 4.43219 2.35294 9.26701 5.67622 10.9411C8.76674 12.5081 12.1547 8.94558 10.6805 5.67772C9.93053 4.01701 8.02967 3.02594 6.40036 3.4679ZM8.28829 3.96344C9.18053 4.23129 10.2409 5.30272 10.4866 6.18665C11.4823 9.72237 7.52536 12.4679 4.97794 10.0304C2.22363 7.4054 4.69346 2.86522 8.28829 3.96344Z" fill="black"/>
<path d="M5.22418 6.76307C5.17245 6.88361 5.19831 7.04432 5.2759 7.12468C5.46987 7.32557 5.84487 7.13807 5.79314 6.87022C5.74142 6.56218 5.32762 6.48182 5.22418 6.76307Z" fill="black"/>
<path d="M8.62396 6.64155C8.40413 6.86923 8.53344 7.24423 8.83086 7.20405C9.01189 7.17726 9.11534 7.07012 9.11534 6.89601C9.11534 6.62816 8.79206 6.46744 8.62396 6.64155Z" fill="black"/>
<path d="M6.42605 7.78038C6.62002 8.5036 7.61571 8.57056 7.87433 7.87413C8.04243 7.43217 7.92605 7.40538 7.61571 7.80717C7.2795 8.26253 7.0726 8.26253 6.74933 7.83396C6.43898 7.43217 6.33553 7.40538 6.42605 7.78038Z" fill="black"/>
<path d="M11.6509 4.23215C11.1854 4.55358 11.0043 4.75447 11.0948 4.84822C11.1983 4.95537 11.9612 4.54019 12.5302 4.05804C12.569 4.03126 12.5302 3.9509 12.4655 3.88394C12.3879 3.80358 12.0905 3.92412 11.6509 4.23215Z" fill="black"/>
<path d="M1.74451 4.2862C1.70572 4.35316 1.80916 4.48709 1.96434 4.59424C2.13244 4.70138 2.41692 4.87549 2.61089 4.99602C3.03761 5.26388 3.23158 5.29066 3.23158 5.04959C3.23158 4.96924 2.93416 4.72816 2.58503 4.51388C1.86089 4.11209 1.84796 4.0987 1.74451 4.2862Z" fill="black"/>
<path d="M12.3483 6.92295C11.7146 7.00331 11.5724 7.08366 11.7276 7.24438C11.9215 7.44527 13.4733 7.25777 13.4086 7.04348C13.3569 6.88277 12.956 6.8292 12.3483 6.92295Z" fill="black"/>
<path d="M1.2023 7.32478C0.775577 7.4721 1.12471 7.63281 1.87471 7.63281C2.54713 7.63281 2.71523 7.59263 2.71523 7.41853C2.71523 7.23103 1.68075 7.16406 1.2023 7.32478Z" fill="black"/>
<path d="M11.1725 9.52285C11.0819 9.69696 11.0561 9.67017 11.7931 10.0987C12.4656 10.4871 12.6725 10.5273 12.6725 10.2728C12.6725 10.0318 11.2888 9.33535 11.1725 9.52285Z" fill="black"/>
<path d="M2.56077 10.0575C2.04353 10.4057 1.73319 10.8477 2.00474 10.8477C2.18577 10.8477 3.3625 9.95033 3.3625 9.80301C3.3625 9.56194 3.23319 9.60212 2.56077 10.0575Z" fill="black"/>
<path d="M4.53886 12.0274C4.28024 12.5497 4.18973 12.8711 4.28024 12.9247C4.44835 13.0452 4.42248 13.072 4.84921 12.2015C5.08197 11.7194 5.14662 11.4381 5.06904 11.3577C4.97852 11.264 4.79748 11.4917 4.53886 12.0274Z" fill="black"/>
<path d="M9.43945 11.3168C9.43945 11.5846 10.3834 12.8703 10.4869 12.7632C10.655 12.5891 9.87911 11.2498 9.62049 11.2498C9.51704 11.2498 9.43945 11.2766 9.43945 11.3168Z" fill="black"/>
<path d="M7.17612 12.7363C7.2537 13.6068 7.34422 13.888 7.49939 13.7005C7.68043 13.4996 7.48646 11.9193 7.27957 11.9193C7.13733 11.9193 7.11146 12.08 7.17612 12.7363Z" fill="black"/>
</svg>
