<svg width="15" height="15" viewBox="0 0 15 15" fill="none" xmlns="http://www.w3.org/2000/svg">
<path d="M6.33453 1.47125C4.63064 1.86747 3.14521 3.042 2.31511 4.62691C1.58695 6.02785 1.57239 8.06559 2.28598 9.50898C3.72773 12.4807 7.4122 13.6977 10.4413 12.2118C11.6938 11.5892 13.4122 9.7354 13.0481 9.38162C13.0044 9.33917 12.6112 9.48068 12.2035 9.7071C10.2083 10.7684 7.68889 9.7354 6.84423 7.52785C5.94132 5.17879 7.35394 2.78728 9.94618 2.33445C10.8637 2.16464 10.5724 1.82502 9.24715 1.4854C8.24229 1.23068 7.35394 1.23068 6.33453 1.47125ZM8.86851 1.78257C9.48016 1.90993 9.43647 1.99483 8.59181 2.37691C5.9122 3.59389 5.31511 7.15993 7.45589 9.24011C7.8054 9.56559 8.34423 9.96181 8.66462 10.1175C9.36365 10.4429 11.0093 10.5703 11.6646 10.3439C12.32 10.1175 12.32 10.1882 11.6064 10.8958C8.99958 13.4712 4.4122 12.7071 2.70831 9.39578C0.713166 5.51842 4.42676 0.919359 8.86851 1.78257Z" fill="black"/>
</svg>
