<svg width="15" height="15" viewBox="0 0 15 15" fill="none" xmlns="http://www.w3.org/2000/svg">
<path d="M4.82946 2.02848C3.92157 2.45201 3.36894 3.3873 3.21104 4.74613C3.13209 5.43436 3.10578 5.46966 2.67157 5.46966C1.98736 5.46966 1.39525 6.33436 1.48736 7.16378C1.55315 7.71083 1.51367 7.85201 1.18472 8.2226C0.724198 8.75201 0.592619 9.49319 0.789988 10.3226C0.987356 11.152 1.48736 11.4697 2.52683 11.4697C3.3163 11.4697 3.36894 11.4873 3.52683 11.9814C3.85578 13.005 5.26367 13.3755 6.2242 12.7226C6.69788 12.405 6.7242 12.405 7.19788 12.7226C7.89525 13.1814 8.35578 13.252 9.10578 13.0402C9.77683 12.8461 10.6584 11.9991 10.6584 11.5402C10.6584 11.3638 10.8163 11.3285 11.29 11.4167C12.1058 11.5402 12.8031 11.152 13.1584 10.3755C13.6058 9.3873 13.4479 8.02848 12.8295 7.5873C12.5795 7.41083 12.54 7.26966 12.5926 6.77554C12.6847 5.98142 12.1584 5.24025 11.54 5.32848C11.1453 5.38142 11.1058 5.32848 10.9216 4.60495C10.5795 3.24613 9.57946 2.66377 8.63209 3.26377L8.14525 3.58142L7.73736 2.91083C7.05315 1.79907 5.9742 1.46377 4.82946 2.02848ZM7.0663 2.75201C7.30315 2.99907 7.59262 3.4226 7.69788 3.7226C7.93473 4.3226 8.0663 4.35789 8.51367 3.88142C9.38209 2.96377 10.6584 3.84613 10.6584 5.36378C10.6584 5.92848 10.8163 6.05201 11.2637 5.8226C11.8558 5.5226 12.29 6.01672 12.1979 6.91672C12.1321 7.51672 12.1716 7.6226 12.4216 7.76378C13.0531 8.08142 13.29 9.01672 12.961 9.93436C12.6847 10.7285 12.1716 11.0108 11.2768 10.905C10.6321 10.8167 10.5795 10.8344 10.3295 11.3461C9.67157 12.6873 8.19788 13.0932 7.25051 12.1932C6.8163 11.7697 6.80315 11.7697 6.42157 12.0873C5.27683 12.9873 3.68472 12.4932 3.68472 11.2402C3.68472 10.9226 3.61894 10.905 2.96104 11.0285C1.7242 11.2226 1.05315 10.7285 1.05315 9.61672C1.05315 8.92848 1.26367 8.5226 1.71104 8.31083C2.0663 8.15201 2.10578 8.08142 1.98736 7.78142C1.5663 6.74025 1.94788 5.91083 2.85578 5.91083C3.38209 5.91083 3.42157 5.87554 3.42157 5.41672C3.42157 3.03436 5.69788 1.35789 7.0663 2.75201Z" fill="black"/>
<path d="M5.40838 7.21699C5.25048 7.35816 5.23732 7.42875 5.38206 7.65816C5.59259 7.99346 5.94785 7.71111 5.82943 7.30522C5.75048 7.02287 5.67153 7.00522 5.40838 7.21699Z" fill="black"/>
<path d="M8.32862 7.33928C8.22336 7.69223 8.43388 7.97458 8.67072 7.78046C8.86809 7.60399 8.77599 7.05693 8.5523 7.05693C8.47336 7.05693 8.38125 7.18046 8.32862 7.33928Z" fill="black"/>
<path d="M6.46065 8.08235C6.43434 8.54118 6.72381 9 7.02644 9C7.34223 9 7.86855 8.38235 7.72381 8.18824C7.67118 8.11765 7.52644 8.24118 7.40802 8.45294C7.1317 8.91176 6.81591 8.82353 6.60539 8.24118C6.52644 8.02941 6.46065 7.95882 6.46065 8.08235Z" fill="black"/>
</svg>
