<svg width="15" height="15" viewBox="0 0 15 15" fill="none" xmlns="http://www.w3.org/2000/svg">
<path d="M6.73672 1.83612C4.85536 2.40083 3.2918 4.46553 2.89773 6.91848C2.7579 7.74789 2.65621 7.99495 2.28757 8.33024C1.8935 8.70083 1.84265 8.842 1.82994 9.53024C1.82994 9.97142 1.77909 10.4479 1.72824 10.6067C1.56299 11.1361 2.13502 11.8773 2.6435 11.7714C2.96129 11.6832 3.16468 11.7538 3.41892 12.0185C3.90197 12.5126 4.51214 12.5126 4.90621 11.9832C5.13502 11.6832 5.33841 11.5773 5.63079 11.6126C6.19011 11.6832 6.54604 11.1538 6.41892 10.4655C6.36807 10.2008 6.34265 9.72436 6.34265 9.442C6.35536 9.142 6.2918 8.73612 6.21553 8.52436C5.91045 7.73024 6.91468 6.35377 7.80451 6.35377C8.68163 6.35377 9.81299 7.88906 9.41892 8.542C9.32994 8.68318 9.27909 9.03612 9.2918 9.30083C9.31723 9.56553 9.26638 9.97142 9.1774 10.1832C8.83418 11.0655 9.36807 11.8949 10.1689 11.7185C10.4613 11.6479 10.6774 11.6655 10.6774 11.7714C10.6774 12.3891 11.8088 12.4949 12.2918 11.9302C12.4825 11.7008 12.813 11.5067 13.0037 11.5067C13.6011 11.5244 13.9443 10.9067 13.7537 10.1655C13.6647 9.84789 13.6265 9.442 13.6774 9.28318C13.7791 8.93024 13.4359 8.18906 13.1054 8.03024C12.9528 7.95965 12.8384 7.69495 12.7876 7.20083C12.3681 3.58318 9.45706 1.00671 6.73672 1.83612ZM8.70706 2.13612C10.2579 2.52436 11.4401 3.75965 12.1265 5.68318C12.546 6.81259 12.7367 8.11848 12.4952 8.11848C12.3299 8.10083 12.0121 7.3773 11.7579 6.442C11.224 4.44789 9.45706 2.82436 7.81723 2.82436C6.1774 2.82436 4.41045 4.44789 3.87655 6.442C3.58418 7.51848 3.08841 8.43612 2.98672 8.08318C2.8596 7.642 3.3935 5.68318 3.87655 4.76553C4.99519 2.64789 6.8257 1.64201 8.70706 2.13612ZM9.53333 3.72436C10.5757 4.41259 11.3384 5.542 11.6181 6.83024C11.796 7.58906 11.3384 7.27142 10.8935 6.30083C10.385 5.22436 10.1689 4.942 9.44435 4.41259C7.80451 3.23024 5.61807 4.14789 4.72824 6.35377C4.3596 7.28906 3.83841 7.642 4.01638 6.83024C4.29604 5.55965 5.08418 4.41259 6.16468 3.67142C7.16892 3.00083 8.44011 3.01848 9.53333 3.72436ZM8.92316 4.41259C9.94011 4.81848 11.1986 6.93612 10.7664 7.53612C10.6011 7.78318 10.5503 7.74789 10.3596 7.16553C9.35536 4.23612 6.13926 4.28906 5.28757 7.23612C5.09689 7.90671 5.05875 7.942 4.88079 7.6773C4.60112 7.30671 4.72824 6.75965 5.30028 5.842C6.15197 4.46553 7.5757 3.90083 8.92316 4.41259ZM8.98672 5.66553C9.59689 6.07142 10.1054 6.86553 10.2325 7.62436C10.3723 8.38318 9.90197 8.2773 9.52062 7.46553C9.03757 6.442 8.59265 6.08906 7.82994 6.08906C7.05451 6.08906 6.2918 6.742 6.05028 7.62436C5.96129 7.95965 5.83418 8.11848 5.63079 8.11848C5.22401 8.11848 5.26214 7.74789 5.7579 6.84789C6.58418 5.34789 7.82994 4.88906 8.98672 5.66553ZM11.9486 7.92436C12.2155 8.2773 12.4062 8.40083 12.6223 8.34789C13.2325 8.18906 13.7155 8.94789 13.3469 9.45965C13.2452 9.60083 13.2706 9.72436 13.4104 9.88318C13.8808 10.4302 13.4232 11.4714 12.8257 11.2067C12.6477 11.1185 12.4825 11.2244 12.2664 11.542C11.8596 12.142 11.2876 12.1597 10.8554 11.5597C10.5884 11.1891 10.4994 11.1538 10.296 11.3302C9.72401 11.842 9.02485 10.9244 9.46977 10.2361C9.64774 9.97142 9.64774 9.86553 9.52062 9.56553C9.26638 9.00083 9.69858 8.40083 10.2452 8.52436C10.5884 8.61259 10.6647 8.55965 10.7282 8.22436C10.7918 7.87142 11.1859 7.46553 11.4782 7.43024C11.5418 7.41259 11.7452 7.642 11.9486 7.92436ZM4.80451 8.10083C4.96977 8.48906 5.08418 8.55965 5.27485 8.47142C5.79604 8.20671 6.31723 8.8773 6.05028 9.442C5.89773 9.75965 5.91045 9.86553 6.11384 10.2185C6.49519 10.8714 6.01214 11.7008 5.46553 11.2949C5.12231 11.0479 4.98248 11.0832 4.8935 11.4361C4.71553 12.2479 3.59689 12.2479 3.2918 11.4361C3.19011 11.1714 3.11384 11.1361 3.01214 11.2773C2.78333 11.5949 2.18587 11.5067 2.03333 11.1361C1.86807 10.6949 1.86807 10.6597 2.1096 10.3244C2.27485 10.1126 2.28757 9.98906 2.17316 9.83024C1.72824 9.21259 2.17316 8.36553 2.8596 8.52436C3.10112 8.5773 3.30451 8.55965 3.30451 8.48906C3.30451 8.41848 3.41892 8.18906 3.55875 7.9773C3.94011 7.41259 4.52485 7.46553 4.80451 8.10083Z" fill="currentColor"/>
</svg>
