<svg width="15" height="15" viewBox="0 0 15 15" fill="none" xmlns="http://www.w3.org/2000/svg">
<path d="M10.5963 2.69421C9.25992 3.54905 8.14174 4.21034 8.11447 4.16196C8.07356 4.1297 8.41447 3.56518 8.86447 2.92002C10.1326 1.08131 9.98265 1.00067 8.08719 2.53292C7.35083 3.11357 6.45083 3.90389 6.06901 4.27486C5.05992 5.27486 4.99174 5.29099 5.25083 4.56518C5.7281 3.2426 5.46901 3.27486 4.13265 4.7426C0.60083 8.6297 0.014466 12.1942 2.65992 13.6458C4.13265 14.4684 5.71447 13.8878 7.8281 11.7587C10.5963 9.00067 11.4008 7.80712 10.0236 8.48454L9.51901 8.72647L9.7781 8.32325C9.91447 8.11357 10.7054 7.11357 11.5508 6.11357C12.3963 5.09744 13.0372 4.22647 12.9826 4.16196C12.9281 4.09744 12.1781 4.46841 11.319 5.00067C10.4599 5.53292 9.69628 5.95228 9.64174 5.96841C9.31447 5.98454 11.8236 2.79099 12.9145 1.82325C13.3781 1.40389 13.5008 1.11357 13.2008 1.14583C13.1054 1.14583 11.9326 1.83938 10.5963 2.69421ZM8.14174 3.33938C7.56901 4.27486 7.39174 4.83938 7.6781 4.83938C7.80083 4.83938 8.7281 4.32325 9.7781 3.69421L11.6599 2.54905L10.7599 3.64583C9.3281 5.38776 8.68719 6.61357 9.1781 6.61357C9.27356 6.61357 9.94174 6.27486 10.6508 5.87163L11.9326 5.1297L10.4736 6.90389C8.93265 8.7426 8.65992 9.30712 9.40992 9.1297C9.9281 9.0168 9.94174 8.98454 9.12356 9.92002C8.61901 10.5007 8.45537 10.6297 8.50992 10.3716C8.63265 9.93615 8.41447 9.77486 8.03265 10.0007C7.51447 10.3394 7.62356 10.0491 8.53719 8.69422C9.57356 7.14583 9.50537 6.95228 8.19628 7.72647C7.74628 8.00067 7.33719 8.22647 7.29628 8.22647C7.17356 8.22647 7.62356 7.25873 8.1281 6.40389C8.82356 5.25873 8.70083 5.17809 7.56901 6.04905C7.15992 6.35551 6.81901 6.56518 6.81901 6.53292C6.81901 6.48454 6.90083 6.19422 7.00992 5.88776C7.25537 5.19422 7.17356 5.11357 6.55992 5.48454C5.90537 5.88776 4.95083 6.87163 5.08719 7.03292C5.14174 7.09744 5.38719 6.93615 5.63265 6.66196C5.86447 6.38776 6.20537 6.08131 6.36901 5.98454C6.64174 5.82325 6.65537 5.83938 6.58719 6.45228C6.49174 7.21034 6.58719 7.2426 7.26901 6.69422C7.8281 6.22647 7.89628 6.27486 7.5281 6.90389C7.3781 7.14583 7.20083 7.58131 7.11901 7.87163C6.90083 8.59744 7.15992 8.67809 8.03265 8.16196C8.41447 7.92002 8.7281 7.80712 8.7281 7.88776C8.7281 7.98454 8.67356 8.08131 8.60537 8.14583C8.40083 8.29099 7.2281 10.1781 7.2281 10.3555C7.2281 10.4523 7.41901 10.4845 7.69174 10.4362L8.15537 10.3555L7.88265 10.9039C7.55537 11.5491 6.43719 12.6781 6.58719 12.1942C7.13265 10.5491 6.90083 8.96841 5.97356 7.95228C5.23719 7.1297 3.88719 6.85551 2.91901 7.33938C2.59174 7.50067 2.46901 7.5168 2.53719 7.37163C2.79628 6.87163 3.79174 5.58131 4.30992 5.06518L4.89628 4.50067L4.70537 5.17809C4.3781 6.2426 4.63719 6.25873 5.67356 5.19422C6.53265 4.33938 8.45537 2.59744 8.56447 2.58131C8.59174 2.58131 8.40083 2.92002 8.14174 3.33938ZM5.14174 7.88776C6.55992 8.66196 6.91447 11.0652 5.82356 12.5329C3.88719 15.1458 0.382648 12.2749 1.71901 9.16196C2.33265 7.7426 3.83265 7.19422 5.14174 7.88776Z" fill="black"/>
<path d="M2.22323 9.93574C2.11414 10.2744 2.4005 10.6132 2.60505 10.3712C2.78232 10.1615 2.67323 9.67767 2.45505 9.67767C2.37323 9.67767 2.27778 9.79058 2.22323 9.93574Z" fill="black"/>
<path d="M4.77344 10.4682C4.77344 10.6456 4.82798 10.823 4.88253 10.8714C5.07344 11.0165 5.3598 10.6778 5.27798 10.4198C5.15526 10.0488 4.77344 10.0972 4.77344 10.4682Z" fill="black"/>
<path d="M3.15028 10.9682C3.19119 11.2585 3.30028 11.3876 3.55937 11.4198C3.90028 11.4682 4.35028 11.065 4.17301 10.8553C4.1321 10.7908 3.99574 10.8876 3.88665 11.065C3.6821 11.3714 3.66847 11.3553 3.39574 10.9682L3.10938 10.565L3.15028 10.9682Z" fill="black"/>
</svg>
