<svg width="15" height="15" viewBox="0 0 15 15" fill="none" xmlns="http://www.w3.org/2000/svg">
<path d="M12.1147 3.14792C11.5378 3.35919 10.4224 3.86623 9.67244 4.28876C8.05705 5.19721 8.01859 5.17609 8.9609 4.01412C9.34551 3.54933 9.61474 3.10566 9.55705 3.04228C9.24936 2.68313 6.53782 4.96482 5.69167 6.31693L5.13398 7.20426L4.7109 6.63383C4.23013 5.95778 4.11474 6.08454 3.78782 7.54228C3.53782 8.5775 3.63398 8.53524 1.88398 8.95778C1.11474 9.14792 1.2109 9.40144 2.28782 10.0352L3.23013 10.6057L3.13398 11.8521C2.99936 13.3521 3.19167 13.4367 4.23013 12.2958L4.9609 11.493L5.69167 11.8521C7.15321 12.5705 7.42244 12.2747 6.73013 10.7958L6.36474 9.97186L7.11474 9.08454C8.05705 7.96482 7.9609 7.79581 6.55705 7.94369C5.59551 8.07045 5.42244 8.0282 5.30705 7.69017C5.17244 7.30989 6.55705 5.55637 7.76859 4.60566L8.30705 4.162L8.09551 4.62679C7.9609 4.88031 7.92244 5.17609 7.98013 5.28172C8.03782 5.38735 7.78782 5.72538 7.42244 6.02116C7.05705 6.31693 6.61474 6.82397 6.42244 7.14088C6.13398 7.60566 6.24936 7.56341 7.03782 6.8451C8.59551 5.40848 10.2878 4.30989 11.8647 3.69721C12.6917 3.38031 13.5378 3.04228 13.7494 2.95778C14.5186 2.59862 13.2301 2.74651 12.1147 3.14792ZM4.82628 7.73243C5.23013 8.45074 5.28782 8.49299 6.17244 8.40848C6.69167 8.38735 7.11474 8.40848 7.11474 8.49299C7.11474 8.59862 7.03782 8.662 6.94167 8.662C6.84551 8.662 6.55705 8.95778 6.32628 9.31693C5.92244 9.95074 5.92244 9.99299 6.23013 10.7113C6.63398 11.6409 6.55705 11.7254 5.65321 11.3028C4.94167 10.9859 4.92244 10.9859 4.32628 11.6197C3.53782 12.4648 3.48013 12.4226 3.51859 11.2395C3.55705 10.2676 3.53782 10.2254 2.78782 9.82397L2.01859 9.42257L2.69167 9.23243C3.76859 8.93665 3.92244 8.78876 4.11474 7.85919C4.34551 6.78172 4.28782 6.80285 4.82628 7.73243Z" fill="black"/>
<path d="M10.4411 5.28082C9.78726 5.63997 8.88341 6.31603 8.42188 6.78082L7.59495 7.62589L8.46034 7.01321C9.53726 6.25265 10.018 5.99913 9.53726 6.42166C9.30649 6.6118 9.21034 6.90758 9.28726 7.18223C9.34495 7.41462 9.30649 7.60476 9.22957 7.60476C8.9988 7.60476 6.92188 9.71744 6.92188 9.97096C6.92188 10.0766 7.38341 9.73857 7.94111 9.18927C8.47957 8.63997 9.40264 7.90054 9.96034 7.56251C11.1526 6.82307 11.2103 6.65406 10.2488 6.86533C9.34495 7.03434 9.59495 6.65406 10.9796 5.6611C12.5757 4.54138 12.2296 4.30899 10.4411 5.28082Z" fill="black"/>
</svg>
