<svg width="15" height="15" viewBox="0 0 15 15" fill="none" xmlns="http://www.w3.org/2000/svg">
<path d="M6.41215 0.40163C5.28383 0.669487 4.18206 1.75431 4.02277 2.75877C3.95639 3.17395 3.9033 3.21413 3.47852 3.21413C2.88117 3.21413 2.00507 3.72306 1.52719 4.36592C0.770554 5.37038 1.00949 6.91056 2.07144 7.71413L2.56259 8.10252L6.92985 8.1427C11.7219 8.18288 12.0139 8.15609 12.8369 7.43288C14.1511 6.30788 14.2042 3.76324 12.9298 2.58467C12.3856 2.08913 11.5095 1.88824 10.806 2.11592C10.3944 2.23645 10.3546 2.22306 10.0228 1.72752C9.30595 0.629308 7.7794 0.0668081 6.41215 0.40163ZM8.11126 1.35252C8.90772 1.62038 9.51834 2.37038 9.87675 3.50877C9.9564 3.76324 10.3546 3.84359 10.3546 3.61592C10.3546 3.53556 10.5537 3.36145 10.7927 3.21413C12.2927 2.29002 13.6334 4.32574 12.7175 6.16056C12.1599 7.25877 12.0405 7.29895 7.69976 7.33913C3.12011 7.3927 2.93427 7.37931 2.31038 6.72306C1.28825 5.66502 2.13781 4.31234 3.91657 4.15163C4.69976 4.08467 4.71303 4.07127 4.72631 3.68288C4.7794 1.94181 6.45197 0.803415 8.11126 1.35252Z" fill="currentColor"/>
<path d="M4.56796 9.07918C4.39539 9.19971 3.65203 10.2979 3.54583 10.6327C3.33344 11.1819 4.11663 11.4899 4.39539 10.9676C4.99273 9.82918 5.09893 8.70418 4.56796 9.07918Z" fill="currentColor"/>
<path d="M7.62005 9.07867C7.38111 9.25278 6.79704 10.2439 6.77049 10.5117C6.67757 11.3689 7.20855 11.3689 7.58023 10.5251C8.03156 9.49385 8.0581 8.77064 7.62005 9.07867Z" fill="currentColor"/>
<path d="M10.0897 9.90988C9.6517 10.7804 9.6517 11.1152 10.0632 11.1152C10.342 11.1152 10.9659 10.084 11.0455 9.50809C11.072 9.25363 11.019 9.15988 10.7933 9.13309C10.5544 9.09291 10.4216 9.24023 10.0897 9.90988Z" fill="currentColor"/>
<path d="M5.12382 11.9991C4.57958 12.7089 4.57958 12.7223 4.81851 13.0437C5.20347 13.5794 5.81409 12.9768 5.88046 11.9991C5.92028 11.2625 5.68135 11.2625 5.12382 11.9991Z" fill="currentColor"/>
<path d="M8.24357 12.0788C7.77897 12.7083 7.73915 12.8824 8.03118 13.1235C8.33649 13.3779 8.61525 13.1904 8.89402 12.5208C9.34534 11.4494 8.92056 11.1547 8.24357 12.0788Z" fill="currentColor"/>
</svg>
