<svg width="15" height="15" viewBox="0 0 15 15" fill="none" xmlns="http://www.w3.org/2000/svg">
<path d="M6.04192 0.702424C5.17276 0.972916 4.26155 1.80898 4.02323 2.54669C3.84099 3.09996 3.79893 3.13685 3.2522 3.22292C0.504537 3.62865 -0.0421921 6.65324 2.48117 7.45242C3.42042 7.73521 11.9158 7.69833 12.5886 7.39095C13.9204 6.78849 14.4812 5.57128 14.0466 4.21882C13.7101 3.19833 12.0279 2.33767 10.9485 2.64505C10.7522 2.69423 10.6541 2.64505 10.584 2.44833C10.4298 2.03029 9.2522 0.985211 8.70547 0.78849C7.93444 0.505703 6.75687 0.468818 6.04192 0.702424ZM8.01856 1.35406C8.97183 1.58767 9.81295 2.42374 9.81295 3.12456C9.81295 3.65324 10.1915 3.86226 10.612 3.56718C11.0326 3.2721 11.5933 3.24751 12.2662 3.49341C13.6541 4.0098 13.6681 5.91554 12.3083 6.64095C11.8737 6.87456 11.5933 6.88685 7.54192 6.88685C2.07463 6.88685 1.82229 6.82537 1.82229 5.44833C1.82229 4.45242 2.31295 4.05898 3.71482 3.94833L4.55594 3.87456L4.65407 3.28439C4.87837 1.84587 6.40641 0.972916 8.01856 1.35406Z" fill="currentColor"/>
<path d="M10.121 8.38655C10.0229 8.47261 9.95282 8.76769 9.95282 9.06278V9.59146L9.37805 9.27179C8.83132 8.97671 8.77525 8.96441 8.56497 9.16114C8.32665 9.38245 8.41076 9.48081 9.25189 9.97261L9.57432 10.157L9.06964 10.3783C8.2846 10.698 8.46684 11.2267 9.2659 10.9685C9.77058 10.7964 9.86871 10.8456 9.84067 11.2513C9.79861 11.7062 9.99488 11.989 10.2893 11.8906C10.4435 11.8292 10.5136 11.657 10.5136 11.2513V10.698L11.0743 10.9562C12.0416 11.3988 12.5743 11.0177 11.6771 10.5136C11.1164 10.2062 11.1024 10.1202 11.6351 9.86196C12.35 9.5054 12.1397 8.95212 11.4108 9.28409C10.7799 9.56687 10.6538 9.51769 10.6538 8.989C10.6538 8.46032 10.3874 8.15294 10.121 8.38655Z" fill="currentColor"/>
<path d="M3.4633 8.57005C3.40723 8.60693 3.36517 8.88972 3.36517 9.1971V9.73808L3.01471 9.54136C2.83246 9.4307 2.51003 9.34464 2.31377 9.34464C1.79508 9.34464 1.85115 9.76267 2.38386 9.95939C3.00069 10.1807 3.00069 10.2791 2.45396 10.5741C2.04742 10.7955 1.99134 10.8815 2.10349 11.0782C2.29975 11.3733 2.45396 11.3733 2.97265 11.0537C3.44928 10.7586 3.4633 10.7586 3.54742 11.2504C3.65957 12.0619 4.40256 11.9143 4.30442 11.0905C4.29041 10.8815 4.27639 10.6971 4.29041 10.6971C4.30442 10.6971 4.54274 10.7832 4.83714 10.8815C5.21564 11.0291 5.39788 11.0414 5.53807 10.943C5.80443 10.7463 5.66424 10.5004 5.17358 10.3282C4.68293 10.1438 4.66891 10.0823 5.11751 9.71349C5.81844 9.13562 5.36985 8.63152 4.64087 9.16021C4.40256 9.34464 4.19228 9.45529 4.19228 9.41841C4.1362 9.20939 4.12218 9.13562 4.02405 8.81595C3.92592 8.50857 3.65957 8.38562 3.4633 8.57005Z" fill="currentColor"/>
<path d="M6.72965 11.3C6.64554 11.4475 6.49134 11.5582 6.36517 11.5582C6.0848 11.5582 5.94461 11.927 6.18293 12.05C6.33713 12.1361 6.32311 12.1975 6.11283 12.4066C5.7904 12.7139 5.94461 12.9598 6.39321 12.8615C6.64554 12.8 6.72965 12.8369 6.72965 12.9721C6.72965 13.2426 7.16423 13.3533 7.34648 13.132C7.43059 13.0336 7.66891 12.9107 7.89321 12.8615C8.31377 12.7754 8.39788 12.4926 8.03339 12.3205C7.80909 12.2098 7.80909 12.1852 8.03339 11.9885C8.32779 11.7303 8.20162 11.5213 7.79508 11.6074C7.57078 11.6566 7.45863 11.5951 7.3605 11.4107C7.16423 11.0418 6.9119 11.0049 6.72965 11.3Z" fill="currentColor"/>
</svg>
