<svg width="15" height="15" viewBox="0 0 15 15" fill="none" xmlns="http://www.w3.org/2000/svg">
<path d="M7.17196 1.48611C6.81741 1.875 6.84468 2.125 7.28105 2.5C7.49923 2.68056 7.58105 3.05556 7.40377 3.05556C7.34923 3.05556 7.10377 2.86111 6.85832 2.61111C6.24468 2 6.27196 2.41667 6.88559 3.05556C7.15832 3.33333 7.39014 3.70833 7.43105 3.90278C7.48559 4.19444 7.43105 4.16667 6.95377 3.66667C6.16287 2.79167 6.09468 3.29167 6.88559 4.19444C7.77196 5.19444 7.73105 5.65278 6.81741 4.86111C6.29923 4.40278 6.13559 4.34722 6.13559 4.625C6.13559 4.72222 6.40832 5.02778 6.73559 5.31944C7.25377 5.75 7.33559 5.90278 7.3765 6.44444L7.43105 7.05556L6.88559 6.72222C6.39468 6.43056 6.31287 6.30556 6.13559 5.52778C6.0265 5.04167 5.8765 4.68056 5.79468 4.72222C5.64468 4.80556 5.64468 5.13889 5.78105 5.79167L5.89014 6.25L5.48105 6.01389C5.22196 5.86111 5.03105 5.59722 4.92196 5.22222C4.84014 4.90278 4.70377 4.55556 4.63559 4.44444C4.41741 4.09722 4.30832 4.43056 4.47196 4.95833C4.55377 5.23611 4.60832 5.5 4.58105 5.52778C4.43105 5.66667 3.95377 4.93056 3.87196 4.45833C3.73559 3.61111 3.39468 3.58333 3.50377 4.41667C3.58559 5.125 3.43559 5.11111 3.20377 4.40278C3.06741 3.98611 3.0265 3.95833 2.46741 3.98611C1.73105 4.02778 1.73105 4.01389 1.96286 4.66667C2.14014 5.19444 2.15377 5.20833 2.74014 5.16667C3.29923 5.13889 3.3265 5.15278 3.08105 5.34722C2.93105 5.45833 2.69923 5.55556 2.56286 5.55556C2.4265 5.55556 2.31741 5.65278 2.31741 5.76389C2.31741 6.02778 2.34468 6.02778 3.23105 5.73611C3.88559 5.52778 3.98105 5.52778 4.17196 5.70833C4.32196 5.875 4.33559 5.93056 4.19923 5.94444C4.10377 5.94444 3.89923 5.98611 3.74923 6.02778C3.59923 6.05556 3.39468 6.09722 3.31287 6.09722C3.21741 6.11111 3.13559 6.20833 3.13559 6.31944C3.13559 6.52778 3.43559 6.51389 4.48559 6.25C4.8265 6.15278 5.01741 6.18056 5.2765 6.34722L5.61741 6.58333L4.99014 6.90278C4.64923 7.08333 4.36286 7.29167 4.36286 7.36111C4.36286 7.54167 4.89468 7.875 5.35832 7.98611C5.71287 8.08333 5.8765 8.33333 5.5765 8.33333C5.50832 8.33333 5.48105 8.40278 5.53559 8.5C5.59014 8.58333 5.5765 8.61111 5.48105 8.55556C5.39923 8.51389 5.18105 8.52778 4.9765 8.61111C4.78559 8.68056 4.64923 8.69444 4.69014 8.625C4.73105 8.55556 4.59468 8.47222 4.39014 8.43056C4.18559 8.38889 3.91286 8.30556 3.79014 8.26389C3.61286 8.19444 3.54468 8.23611 3.54468 8.375C3.54468 8.51389 3.72196 8.625 4.02196 8.69444C4.55377 8.79167 4.63559 8.95833 4.2265 9.09722C3.99468 9.16667 3.24468 9.02778 2.64468 8.79167C2.53559 8.75 2.45377 8.80556 2.45377 8.94444C2.45377 9.06944 2.49468 9.16667 2.56286 9.18056C3.51741 9.27778 3.85832 9.625 2.94468 9.56944C2.2765 9.52778 2.2765 9.52778 2.08559 10.0694C1.86741 10.6944 1.84014 10.6528 2.54923 10.8056L3.10832 10.9306L3.31287 10.4028C3.69468 9.41667 3.88559 9.75 3.58559 10.8611C3.55832 11 3.58559 11.1111 3.66741 11.1111C3.73559 11.1111 3.89923 10.75 4.02196 10.3194C4.2265 9.625 4.51286 9.18056 4.78559 9.16667C4.92196 9.16667 4.74468 9.91667 4.56741 10.0694C4.32196 10.2778 4.21286 10.6667 4.39014 10.7778C4.56741 10.8889 4.70377 10.6806 5.05832 9.72222C5.29014 9.05556 5.78105 8.47222 5.94468 8.63889C5.97196 8.66667 5.94468 9.01389 5.8765 9.41667C5.74014 10.3056 6.04014 10.3889 6.81741 9.72222C7.74468 8.90278 7.78559 9.56944 6.85832 10.5694C6.43559 11.0417 6.27196 11.3056 6.36741 11.4028C6.46287 11.5 6.64014 11.375 6.94014 11.0278C7.18559 10.75 7.40377 10.5556 7.44468 10.5972C7.56741 10.7083 7.25377 11.3194 6.83105 11.7778C6.12196 12.5556 6.31287 12.7917 7.04923 12.0556C7.58105 11.5278 7.6765 11.8194 7.14468 12.375L6.79014 12.75L7.17196 13.25L7.56741 13.75L8.04468 13.2639L8.50832 12.7778L8.14014 12.3889C7.51287 11.7222 7.66287 11.375 8.31741 12.0139C8.76741 12.4722 8.86287 12.5139 8.86287 12.2778C8.86287 12.125 8.61741 11.8056 8.31741 11.5417C7.99014 11.2778 7.77196 10.9583 7.77196 10.7917C7.77196 10.5278 7.8265 10.5556 8.29014 11.0139C8.5765 11.2917 8.84923 11.5278 8.90377 11.5278C9.14923 11.5278 8.93105 11.125 8.38559 10.5556C8.00377 10.1806 7.77196 9.80556 7.77196 9.61111C7.77196 9.29167 7.78559 9.30556 8.33105 9.77778C8.64468 10.0417 8.97196 10.2222 9.05377 10.1667C9.13559 10.1111 9.27196 10.0694 9.34014 10.0694C9.4765 10.0694 9.4765 9.81944 9.3265 8.90278C9.25832 8.43056 9.25832 8.43056 9.57196 8.63889C9.73559 8.75 10.0083 9.18056 10.172 9.59722C10.4856 10.3611 10.6629 10.5278 10.7447 10.0972C10.772 9.97222 10.731 9.86111 10.6629 9.86111C10.5947 9.86111 10.5401 9.77778 10.5401 9.68056C10.5401 9.59722 10.4856 9.40278 10.431 9.26389C10.3356 9.04167 10.3629 9.04167 10.6629 9.16667C10.881 9.27778 11.0447 9.52778 11.181 10.0278C11.2901 10.4167 11.4674 10.7778 11.5765 10.8056C11.7265 10.8611 11.7401 10.7917 11.672 10.5417C11.4129 9.58333 11.4129 9.58333 11.631 9.66667C11.7538 9.70833 11.8901 9.93056 11.931 10.1528C12.0401 10.6667 12.122 10.7083 12.722 10.5417C13.2538 10.3889 13.322 10.2222 13.0629 9.65278C12.9129 9.31944 12.8447 9.29167 12.3265 9.375C11.6447 9.47222 11.3856 9.23611 12.0538 9.11111C12.3129 9.05556 12.5583 8.93056 12.5992 8.81944C12.6947 8.55556 12.6129 8.55556 11.7947 8.81944C11.2901 8.97222 11.072 8.97222 10.8538 8.86111C10.581 8.70833 10.5947 8.69444 10.9901 8.61111C11.7265 8.44444 11.9174 8.33333 11.7674 8.18056C11.672 8.08333 11.3856 8.09722 10.8401 8.25C10.2265 8.40278 10.0083 8.41667 9.80377 8.29167C9.43559 8.05556 9.4765 8 10.131 7.76389C10.9356 7.45833 10.9356 7.18056 10.1038 6.79167C9.44923 6.5 9.42196 6.47222 9.69468 6.27778C9.96741 6.08333 10.8538 6.09722 11.3583 6.31944C11.522 6.38889 11.5901 6.36111 11.5901 6.20833C11.5901 5.97222 11.3038 5.83333 10.7992 5.83333H10.4447L10.7447 5.625C11.031 5.41667 11.3174 5.41667 12.381 5.63889C12.5447 5.66667 12.681 5.63889 12.681 5.55556C12.681 5.40278 12.5856 5.36111 11.9447 5.20833C11.3583 5.08333 11.781 4.84722 12.422 4.94444C12.8856 5.02778 12.9129 5 13.0629 4.5C13.2538 3.84722 13.1992 3.75 12.5447 3.75C12.0538 3.75 11.9856 3.79167 11.8083 4.23611C11.5765 4.80556 11.2492 4.93056 11.4538 4.36111C11.6583 3.84722 11.631 3.47222 11.3992 3.55556C11.3038 3.59722 11.181 3.93056 11.1265 4.29167C11.072 4.70833 10.9356 5.05556 10.7583 5.22222C10.4856 5.47222 10.4856 5.47222 10.581 5.06944C10.6356 4.83333 10.731 4.51389 10.7856 4.34722C10.9083 4.02778 10.7447 3.80556 10.4992 3.95833C10.3083 4.06944 10.0629 5.11111 10.172 5.30556C10.2265 5.40278 10.2129 5.41667 10.1174 5.36111C10.022 5.30556 9.95377 5.31944 9.95377 5.38889C9.95377 5.45833 9.79014 5.69444 9.59923 5.90278L9.24468 6.29167L9.34014 5.375C9.44923 4.40278 9.28559 4.18056 8.83559 4.625C8.74014 4.72222 8.45377 4.94444 8.22196 5.125L7.77196 5.43056V5.09722C7.77196 4.90278 8.00377 4.5 8.31741 4.125C8.61741 3.77778 8.86287 3.45833 8.86287 3.41667C8.86287 3.19444 8.52196 3.375 8.16741 3.77778C7.78559 4.23611 7.77196 4.23611 7.77196 3.88889C7.77196 3.68056 7.9765 3.33333 8.33105 2.97222C9.0265 2.25 8.98559 1.90278 8.29014 2.58333C7.70377 3.13889 7.59468 2.95833 8.09923 2.29167L8.44014 1.84722L8.05832 1.47222C7.59468 1.02778 7.59468 1.02778 7.17196 1.48611ZM7.86741 1.81944C7.94923 2.23611 7.66287 2.45833 7.44468 2.15278C7.30832 1.95833 7.29468 1.81944 7.39014 1.69444C7.56741 1.48611 7.8265 1.54167 7.86741 1.81944ZM12.7083 4.11111C12.7492 4.15278 12.7629 4.29167 12.722 4.43056C12.6538 4.72222 12.1356 4.66667 12.1356 4.38889C12.1356 4.08333 12.5038 3.90278 12.7083 4.11111ZM2.86286 4.36111C2.86286 4.38889 2.90377 4.51389 2.94468 4.63889C3.01287 4.80556 2.94468 4.86111 2.68559 4.86111C2.46741 4.86111 2.33105 4.76389 2.2765 4.58333C2.22196 4.36111 2.2765 4.30556 2.53559 4.30556C2.71286 4.30556 2.86286 4.33333 2.86286 4.36111ZM8.91741 5.73611C8.83559 6.27778 8.75377 6.43056 8.35832 6.66667C7.75832 7.02778 7.77196 7.02778 7.77196 6.41667C7.77196 5.94444 7.84014 5.83333 8.35832 5.45833C9.04014 4.94444 9.0265 4.93056 8.91741 5.73611ZM9.72196 7C10.322 7.25 10.2401 7.44444 9.43559 7.73611C9.04014 7.875 8.91741 7.86111 8.50832 7.61111L8.03105 7.31944L8.54923 7.01389C8.83559 6.83333 9.09468 6.70833 9.13559 6.73611C9.1765 6.75 9.43559 6.875 9.72196 7ZM6.61287 7.04167C7.19923 7.33333 7.19923 7.375 6.6265 7.69444C6.1765 7.94444 6.13559 7.94444 5.53559 7.70833C4.78559 7.41667 4.78559 7.43056 5.4265 7.09722C6.05377 6.75 6.0265 6.75 6.61287 7.04167ZM7.36287 8.26389C7.29468 8.83333 6.66741 9.58333 6.25832 9.58333C6.1765 9.58333 6.35377 8.31944 6.44923 8.26389C6.46287 8.25 6.69468 8.11111 6.95377 7.94444C7.21287 7.77778 7.43105 7.63889 7.43105 7.63889C7.44468 7.63889 7.40377 7.91667 7.36287 8.26389ZM8.8765 8.38889C8.8765 8.47222 8.93105 8.83333 8.98559 9.19444C9.06741 9.69444 9.05377 9.81944 8.93105 9.72222C8.83559 9.65278 8.7265 9.63889 8.67196 9.69444C8.61741 9.75 8.59014 9.72222 8.61741 9.63889C8.64468 9.55556 8.45377 9.31944 8.22196 9.11111C7.79923 8.75 7.62196 8.125 7.85377 7.875C7.96287 7.76389 8.86287 8.20833 8.8765 8.38889ZM12.8174 10.0139C12.8174 10.2222 12.7356 10.2917 12.5174 10.25C12.1356 10.1944 12.0265 9.76389 12.3674 9.69444C12.7083 9.61111 12.8174 9.69444 12.8174 10.0139ZM2.93105 9.97222C3.01287 10.0278 3.06741 10.2083 3.08105 10.3611C3.08105 10.625 3.04014 10.6528 2.71286 10.5278C2.44014 10.4306 2.35832 10.3333 2.41286 10.125C2.48105 9.84722 2.68559 9.79167 2.93105 9.97222ZM7.89468 12.625C8.11287 13.0278 7.6765 13.3611 7.41741 12.9861C7.28105 12.8056 7.26741 12.6806 7.3765 12.5417C7.59468 12.2917 7.73105 12.3194 7.89468 12.625Z" fill="black"/>
</svg>
