<svg width="15" height="15" viewBox="0 0 15 15" fill="none" xmlns="http://www.w3.org/2000/svg">
<path d="M6.75646 1.52786L6.44134 1.97786L6.74386 2.31877C6.92033 2.52331 7.05898 2.82331 7.05898 3.00058C7.05898 3.30058 7.02117 3.28695 6.54218 2.75513C6.12621 2.27786 6.00016 2.19604 5.8489 2.3324C5.54638 2.60513 5.65982 2.90513 6.36571 3.6824C6.88251 4.24149 7.05898 4.52786 7.05898 4.82786V5.20968L6.6052 4.78695C6.13882 4.33695 5.82369 4.32331 6.05058 4.75968C6.11361 4.89604 6.36571 5.1824 6.61781 5.38695C7.02117 5.74149 7.05898 5.83695 7.05898 6.50513C7.05898 7.18695 6.97075 7.36422 6.75646 7.1324C6.70604 7.06422 6.61781 7.02331 6.57999 7.00968C6.18924 6.96877 5.65982 6.42331 5.5968 6.00058C5.42033 4.81422 5.06739 4.47331 5.14302 5.55058C5.19344 6.17786 5.11781 6.24604 4.71445 5.9324C4.53797 5.80968 4.39932 5.45513 4.28587 4.92331C4.0968 3.92786 3.90772 3.60058 3.5926 3.73695C3.40352 3.80513 3.37831 3.92786 3.44134 4.50058C3.52957 5.30513 3.30268 5.3324 3.03798 4.55513C2.87411 4.07786 2.8615 4.06422 2.3573 4.14604C1.68924 4.26877 1.70184 4.25513 1.87831 4.89604L2.02957 5.44149L2.64722 5.35968C3.40352 5.26422 3.50436 5.49604 2.81108 5.74149C2.13041 5.97331 1.95394 6.30058 2.36991 6.5324C2.5968 6.66877 3.51697 6.46422 3.73125 6.2324C3.88251 6.06877 4.47495 6.12331 4.73966 6.32786C4.96655 6.51877 4.96655 6.5324 4.62621 6.66877C4.42453 6.75058 4.21024 6.81877 4.14722 6.81877C4.08419 6.81877 4.03377 6.91422 4.03377 7.02331C4.03377 7.2824 4.0968 7.2824 4.81529 6.99604C5.40772 6.76422 5.42033 6.77786 5.94974 7.09149C6.74386 7.55513 6.74386 7.56877 6.15142 7.95058L5.5968 8.29149L4.91613 8.04604C4.23545 7.81422 3.90772 7.86877 4.0968 8.1824C4.14722 8.26422 4.29848 8.31877 4.42453 8.27786C4.56319 8.23695 4.63882 8.25058 4.601 8.31877C4.56319 8.37331 4.66403 8.45513 4.82789 8.50968L5.1052 8.59149L4.8405 8.7824C4.56319 9.00058 3.65562 9.01422 3.65562 8.80968C3.65562 8.75513 3.51697 8.72786 3.3405 8.75513C3.17663 8.79604 3.06319 8.76877 3.101 8.71422C3.21445 8.50968 2.43293 8.57786 2.28167 8.76877C2.0926 9.02786 2.3447 9.34149 2.94974 9.54604C3.56739 9.76422 3.31529 9.96877 2.58419 9.85968C2.07999 9.79149 2.06739 9.79149 1.91613 10.3097C1.75226 10.9233 1.80268 11.0051 2.42033 11.1142C2.8489 11.196 2.88671 11.1688 3.02537 10.7051C3.17663 10.2006 3.74386 9.6824 3.6052 10.1869C3.39092 10.9779 3.39092 11.1824 3.56739 11.3869C3.74386 11.5779 3.79428 11.5642 4.02117 11.3051C4.27327 11.0051 4.62621 9.73695 4.48755 9.58695C4.42453 9.51877 5.13041 8.86422 5.26907 8.86422C5.29428 8.86422 5.28167 9.17786 5.23125 9.54604C5.0926 10.596 5.44554 10.4733 5.68503 9.3824C5.8489 8.60513 5.91192 8.49604 6.36571 8.22331C7.04638 7.80058 7.05898 7.81422 7.05898 8.6324C7.05898 9.28695 7.00856 9.40968 6.6052 9.8324C6.07579 10.3779 5.8489 10.7597 6.0884 10.7188C6.36571 10.6779 6.55478 10.4869 6.47915 10.3369C6.42873 10.2415 6.45394 10.2279 6.54218 10.2824C6.61781 10.3369 6.71865 10.2824 6.75646 10.1733C6.88251 9.80513 7.05898 9.92786 7.05898 10.3915C7.05898 10.7188 6.92033 10.9642 6.36571 11.5506C5.6094 12.3551 5.5968 12.3824 5.83629 12.7506C6.00016 12.9824 6.03797 12.9688 6.51697 12.4915C7.24806 11.7824 7.50016 11.9733 6.86991 12.7642C6.49176 13.2415 6.49176 13.2006 6.86991 13.6779C7.24806 14.1279 7.27327 14.1279 7.63882 13.6642C8.01697 13.2006 8.01697 13.1188 7.61361 12.6688C7.07159 12.0551 7.27327 11.7415 7.8405 12.3279C8.3447 12.8597 8.62201 12.9415 8.74806 12.6006C8.8615 12.2869 8.87411 12.3142 8.06739 11.4006C7.33629 10.5688 7.14722 10.0506 7.52537 9.90058C7.61361 9.85968 7.67663 9.87331 7.66403 9.92786C7.601 10.296 8.19344 10.8688 8.45814 10.7051C8.53377 10.6506 8.31949 10.296 7.95394 9.88695C7.37411 9.2324 7.31108 9.09604 7.31108 8.53695C7.31108 7.80058 7.31108 7.80058 8.13041 8.29149C8.73545 8.65968 8.76066 8.70058 8.87411 9.45058C9.02537 10.4188 9.36571 10.5688 9.25226 9.61422C9.17663 8.9324 9.18924 8.9324 9.61781 9.15058C9.86991 9.27331 9.97075 9.49149 10.1472 10.3097C10.3111 11.046 10.4245 11.3324 10.601 11.3869C11.0044 11.5233 11.0926 11.346 11.017 10.6233C10.9287 9.8324 11.2186 9.77786 11.4329 10.5415C11.559 11.0324 11.8489 11.1415 12.3909 10.9233C12.7186 10.7869 12.7186 10.7733 12.5548 10.2688C12.3909 9.76422 12.3783 9.75058 11.8111 9.79149C11.0674 9.84604 10.9287 9.60058 11.5968 9.40968C12.1766 9.24604 12.3531 8.94604 12.0632 8.6324C11.8867 8.42786 11.7859 8.44149 11.0548 8.70058C10.1094 9.05513 9.95814 9.06877 9.63041 8.80968C9.37831 8.59149 9.3531 8.61877 10.3237 8.23695C10.4371 8.19604 10.4623 8.12786 10.3867 8.04604C10.3111 7.96422 9.99596 7.99149 9.54218 8.12786C8.82369 8.3324 8.81108 8.3324 8.20604 7.95058C7.601 7.5824 7.58839 7.5824 7.86571 7.36422C8.44554 6.88695 8.8615 6.79149 9.44134 7.02331C10.1346 7.2824 10.3363 7.2824 10.3363 7.00968C10.3363 6.87331 10.2607 6.81877 10.1472 6.87331C10.0464 6.91422 9.95814 6.90058 9.95814 6.8324C9.95814 6.76422 9.80688 6.66877 9.61781 6.61422C9.27747 6.5324 9.27747 6.51877 9.51697 6.32786C9.65562 6.20513 9.90772 6.15058 10.0842 6.17786C10.2607 6.21877 10.7523 6.31422 11.1934 6.40968C12.0506 6.58695 12.2649 6.51877 12.1514 6.05513C12.101 5.86422 11.9119 5.71422 11.5842 5.60513C10.9287 5.38695 11.08 5.14149 11.7859 5.26422L12.3405 5.34604L12.4918 4.78695C12.6682 4.1324 12.6808 4.14604 12.0254 4.02331C11.496 3.94149 11.496 3.94149 11.3447 4.45968C11.1934 4.93695 11.0296 5.16877 10.8279 5.1824C10.7901 5.1824 10.8153 4.86877 10.8909 4.48695C10.9918 3.92786 10.9918 3.77786 10.8405 3.6824C10.5758 3.50513 10.2355 3.90058 10.1472 4.48695C10.0338 5.19604 9.75646 5.82331 9.47915 5.98695C9.101 6.20513 9.101 6.19149 9.21445 5.55058C9.26487 5.23695 9.26487 4.92331 9.20184 4.85513C9.07579 4.71877 9.06318 4.7324 8.73545 5.85058C8.54638 6.46422 8.42033 6.62786 7.96655 6.90058C7.27327 7.32331 7.31108 7.33695 7.31108 6.57331C7.31108 5.97331 7.3615 5.86422 7.87831 5.31877C8.42033 4.74604 8.5968 4.36422 8.31949 4.36422C8.24386 4.36422 8.00436 4.55513 7.77747 4.78695L7.37411 5.20968L7.33629 4.84149C7.29848 4.54149 7.42453 4.30968 7.99176 3.69604C8.69764 2.9324 8.87411 2.42786 8.52117 2.27786C8.40772 2.22331 8.15562 2.37331 7.92873 2.60513C7.29848 3.24604 7.07159 3.09604 7.62621 2.40058C8.01697 1.90968 8.01697 1.90968 7.58839 1.45968C7.14722 0.996039 7.14722 0.996039 6.75646 1.52786ZM7.37411 1.63695C7.42453 1.71877 7.50016 1.74604 7.55058 1.71877C7.73966 1.5824 7.63882 2.11422 7.44974 2.27786C7.17243 2.50968 7.14722 2.49604 6.95814 2.16877C6.83209 1.95058 6.83209 1.84149 6.94554 1.69149C7.12201 1.45968 7.26066 1.44604 7.37411 1.63695ZM6.70604 3.34149C7.0968 3.80513 7.18503 4.11877 6.83209 3.77786C6.70604 3.64149 6.55478 3.58695 6.49176 3.64149C6.44134 3.70968 6.42873 3.6824 6.46655 3.60058C6.51697 3.51877 6.40352 3.30058 6.23966 3.13695C6.06318 2.95968 5.92453 2.75513 5.92453 2.68695C5.92453 2.53695 6.22705 2.7824 6.70604 3.34149ZM8.00436 3.27331C7.50016 3.8324 7.31108 3.94149 7.32369 3.64149C7.32369 3.45058 8.31949 2.55058 8.42033 2.65968C8.45814 2.70058 8.26907 2.97331 8.00436 3.27331ZM3.90772 4.54149C3.90772 4.67786 3.94554 4.75968 4.00856 4.7324C4.14722 4.63695 4.12201 5.49604 3.97075 5.74149C3.81949 6.00058 2.68503 6.43695 2.58419 6.27331C2.54638 6.20513 2.82369 6.05513 3.17663 5.91877C4.03377 5.6324 4.07159 5.60513 3.93293 5.41422C3.86991 5.31877 3.78167 4.93695 3.73125 4.56877C3.66823 4.07786 3.68083 3.94149 3.76907 4.09149C3.8447 4.20058 3.90772 4.40513 3.90772 4.54149ZM10.5884 4.70513C10.5128 5.05968 10.3741 5.44149 10.2733 5.55058C9.98335 5.85058 10.0464 5.55058 10.5254 4.10513C10.6766 3.6824 10.7144 4.09149 10.5884 4.70513ZM12.2523 4.71877C12.2144 4.95058 12.1136 5.04604 11.8993 5.04604C11.5464 5.04604 11.4707 4.92331 11.5968 4.55513C11.7607 4.11877 12.3405 4.25513 12.2523 4.71877ZM2.77327 4.65058C2.94974 4.99149 2.92453 5.0324 2.50856 5.07331C2.25646 5.11422 2.19344 5.04604 2.16823 4.7324C2.11781 4.26877 2.55898 4.20058 2.77327 4.65058ZM11.5086 5.90513C11.6976 6.00058 11.8489 6.10968 11.8489 6.17786C11.8489 6.2324 11.6976 6.2324 11.5086 6.17786C11.3069 6.12331 10.9792 6.06877 10.7523 6.06877C10.3741 6.06877 10.2607 5.90513 10.5254 5.70058C10.664 5.59149 10.9413 5.64604 11.5086 5.90513ZM11.8993 8.85058C11.9497 8.91877 11.6724 9.0824 11.3195 9.21877C10.9539 9.34149 10.6136 9.46422 10.5632 9.49149C10.5254 9.51877 10.5632 9.85968 10.664 10.2551C10.8153 10.9233 10.8153 11.196 10.6388 11.0188C10.601 10.9642 10.5002 10.6369 10.4119 10.2824C10.2355 9.51877 10.4119 9.21877 11.206 8.91877C11.7607 8.70058 11.8111 8.70058 11.8993 8.85058ZM3.56739 9.0824C4.07159 9.17786 4.21024 9.40968 3.75646 9.40968C3.29008 9.40968 2.52117 9.13695 2.52117 8.97331C2.52117 8.89149 2.63461 8.86422 2.81108 8.91877C2.96234 8.95968 3.30268 9.04149 3.56739 9.0824ZM4.12201 10.3779C4.02117 10.7733 3.86991 11.1279 3.78167 11.1551C3.68083 11.196 3.65562 11.1279 3.69344 10.9642C3.74386 10.8142 3.80688 10.5142 3.8573 10.296C3.94554 9.88695 4.15982 9.49149 4.24806 9.58695C4.27327 9.61422 4.21024 9.96877 4.12201 10.3779ZM12.3279 10.2824C12.3531 10.6233 11.9876 10.8824 11.7228 10.7051C11.5464 10.5824 11.5716 10.1324 11.7607 10.0506C12.1136 9.88695 12.3027 9.96877 12.3279 10.2824ZM2.76066 10.2142C2.88671 10.296 2.88671 10.3915 2.78587 10.6097C2.62201 10.9369 2.14302 10.8688 2.14302 10.5142C2.14302 10.1051 2.40772 9.96877 2.76066 10.2142ZM6.90772 11.7551C6.21445 12.4369 6.05058 12.5733 6.05058 12.4506C6.05058 12.2324 6.98335 11.2915 7.03377 11.4551C7.05898 11.5233 6.99596 11.6597 6.90772 11.7551ZM8.11781 11.8915C8.3573 12.2188 8.53377 12.5051 8.49596 12.5324C8.43293 12.6142 7.43713 11.5779 7.43713 11.4279C7.43713 11.1688 7.70184 11.3597 8.11781 11.8915ZM7.55058 13.3779C7.39932 13.6915 7.33629 13.7051 7.03377 13.4051C6.81949 13.2006 6.81949 13.1733 7.02117 12.9279C7.31108 12.5869 7.76487 12.9688 7.55058 13.3779Z" fill="currentColor"/>
</svg>
