<svg width="15" height="15" viewBox="0 0 15 15" fill="none" xmlns="http://www.w3.org/2000/svg">
<path d="M7.1458 0.614455C6.69698 0.718621 5.98832 1.03112 5.88202 1.18737C5.83477 1.24987 5.78753 1.26029 5.78753 1.2082C5.78753 1.1457 5.59855 1.26029 5.37414 1.4582C5.14973 1.65612 4.96076 1.87487 4.96076 1.94779C4.96076 2.0207 4.91351 2.0832 4.85446 2.0832C4.7954 2.0832 4.6891 2.21862 4.60643 2.3957C4.50013 2.62487 4.33477 2.73945 3.99225 2.8332C3.46076 2.96862 2.49225 3.68737 2.14973 4.19779C1.84265 4.6457 1.74816 5.30195 1.88989 5.91654C1.99619 6.34362 1.98438 6.48945 1.78359 6.8957C1.35839 7.78112 1.64186 8.98945 2.48044 9.8332C2.70485 10.0624 2.94107 10.1978 3.03556 10.1665C3.13005 10.1353 3.16548 10.1457 3.13005 10.2082C2.90564 10.5311 4.96076 10.9374 5.84658 10.7395C6.55524 10.5832 6.75603 10.6978 6.6143 11.177C6.55524 11.3645 6.42532 11.9999 6.31902 12.5936C6.07099 14.052 6.04737 14.0311 7.91351 14.052C9.62611 14.0624 9.77966 13.979 9.49619 13.1457C9.4017 12.8749 9.28359 12.2186 9.23635 11.6978L9.14186 10.729L9.44895 10.7915C12.0828 11.3436 14.2088 9.43737 13.4765 7.19779C13.382 6.91654 13.4056 6.7707 13.5828 6.44779C13.9371 5.85404 13.8426 4.61445 13.4293 4.2082C13.2049 3.98945 13.0631 3.82279 12.8387 3.51029C12.7206 3.35404 12.5789 3.24987 12.5316 3.28112C12.4726 3.31237 12.3899 3.26029 12.3545 3.16654C12.3072 3.07279 12.2009 3.0207 12.1064 3.06237C12.0119 3.09362 11.9411 3.06237 11.9647 2.98945C11.9765 2.91654 11.8702 2.86445 11.7403 2.87487C11.5749 2.87487 11.5041 2.8332 11.5395 2.73945C11.7167 2.34362 10.5946 1.05195 10.193 1.18737C10.0867 1.22904 10.0631 1.2082 10.1104 1.12487C10.1694 1.04154 10.134 1.03112 9.99225 1.07279C9.87414 1.11445 9.81509 1.10404 9.86233 1.04154C10.0749 0.739455 8.01981 0.406121 7.1458 0.614455ZM9.09462 1.2707C9.41351 1.34362 10.7718 2.18737 10.5828 2.18737C10.5356 2.18737 10.6182 2.37487 10.7482 2.60404C10.8781 2.82279 10.9844 3.0832 10.9844 3.17695C10.9844 3.31237 11.3033 3.3957 11.634 3.3332C11.7049 3.32279 11.7167 3.35404 11.6694 3.3957C11.5395 3.49987 12.0237 3.78112 12.1891 3.68737C12.2718 3.6457 12.2836 3.65612 12.2363 3.72904C12.1891 3.80195 12.2009 3.85404 12.26 3.85404C12.3663 3.85404 12.8978 4.62487 12.9686 4.8957C13.1458 5.48945 13.0395 6.11445 12.7206 6.44779C12.4017 6.78112 12.4017 6.80195 12.5907 7.06237C12.8741 7.44779 12.9568 8.55195 12.7206 8.97904C12.1773 9.99987 10.8308 10.5103 9.64973 10.1561L9.07099 9.98945L8.59855 10.2707C7.99619 10.6457 7.51194 10.6249 7.01587 10.1978L6.66154 9.8957L5.89383 10.0936C3.67336 10.6978 1.67729 8.78112 2.61036 6.92695C2.83477 6.48945 2.84658 6.38529 2.71666 6.03112C2.49225 5.43737 2.62217 4.66654 3.00013 4.24987C3.41351 3.81237 4.33477 3.3332 4.74816 3.3332C5.008 3.3332 5.09068 3.2707 5.14973 3.04154C5.49225 1.80195 6.57887 1.11445 8.09068 1.17695C8.55131 1.2082 9.00013 1.23945 9.09462 1.2707ZM8.48044 11.5936C8.49225 11.9478 8.55131 12.2499 8.61036 12.2707C8.66942 12.2915 8.69304 12.3853 8.65761 12.4895C8.62217 12.604 8.65761 12.7811 8.72847 12.8957C8.98832 13.3228 8.78753 13.4374 7.83084 13.4374H6.94501L7.01587 13.0936C7.05131 12.9165 7.11036 12.3957 7.15761 11.9478C7.24028 11.0936 7.24028 11.104 7.93714 11.1457C8.10249 11.1561 8.27965 11.1145 8.3269 11.052C8.44501 10.8853 8.44501 10.8853 8.48044 11.5936Z" fill="black"/>
<path d="M7.61786 2.81296C7.58242 2.86505 7.57061 3.00046 7.60605 3.10463C7.6651 3.24005 7.54699 3.3963 7.21628 3.62546C6.43675 4.17755 6.49581 5.05255 7.3462 5.5213C7.93675 5.84421 9.04699 5.66713 9.33045 5.19838C9.53124 4.87546 9.68479 4.37546 9.57849 4.37546C9.53124 4.37546 9.49581 4.2713 9.484 4.1463C9.46038 3.86505 8.98794 3.46921 8.57455 3.37546C8.32652 3.32338 8.26746 3.25046 8.29108 3.03171C8.32652 2.80255 8.27927 2.75046 8.00762 2.72963C7.84227 2.7088 7.6651 2.75046 7.61786 2.81296ZM8.70447 4.0838C9.04699 4.36505 9.04699 4.7088 8.71628 5.04213C8.45644 5.29213 8.42101 5.29213 7.99581 5.15671C7.46431 4.99005 7.21628 4.74005 7.29896 4.43796C7.39345 4.0838 7.53518 3.97963 7.8777 4.04213C8.0903 4.07338 8.16116 4.05255 8.10211 3.96921C7.94857 3.76088 8.42101 3.84421 8.70447 4.0838Z" fill="black"/>
<path d="M5.14899 5.61499C5.10175 5.66707 5.11356 5.79207 5.1608 5.89624C5.20805 6.02124 5.19624 6.05249 5.08994 6.00041C4.99545 5.94832 4.96002 5.97957 4.98364 6.09416C5.00726 6.20874 4.93639 6.29207 4.81828 6.30249C4.15687 6.39624 3.58994 7.15666 3.71986 7.78166C3.81435 8.31291 3.9797 8.46916 4.57025 8.63582C6.03482 9.05249 7.20411 7.23999 5.94033 6.51082C5.75135 6.39624 5.66868 6.26082 5.6923 6.06291C5.72773 5.61499 5.36159 5.31291 5.14899 5.61499ZM5.17261 6.96916C5.27891 7.02124 5.46789 7.09416 5.586 7.12541C6.04663 7.25041 5.57419 8.12541 5.0545 8.12541C4.38128 8.12541 4.12143 7.50041 4.62931 7.08374C4.92458 6.84416 4.90096 6.84416 5.17261 6.96916Z" fill="black"/>
<path d="M10.1569 6.3953C10.1569 6.47863 10.1923 6.56196 10.2514 6.59321C10.2986 6.61405 10.2632 6.61405 10.1923 6.60363C10.1096 6.5828 10.0388 6.63488 10.0388 6.7078C10.0388 6.79113 9.88522 6.90571 9.68443 6.97863C8.57419 7.38488 8.70412 8.80155 9.87341 8.98905C11.2081 9.2078 11.964 8.12446 11.0899 7.24946C10.8892 7.04113 10.7592 6.8328 10.8065 6.78071C10.9246 6.60363 10.6411 6.24946 10.3931 6.24946C10.2632 6.24946 10.1569 6.31196 10.1569 6.3953ZM10.6884 7.60363C10.6529 7.65571 10.6766 7.71821 10.7356 7.74946C10.8892 7.8328 10.712 8.34321 10.4876 8.47863C10.1805 8.6453 9.66081 8.28071 9.70805 7.93696C9.73167 7.71821 9.83797 7.62446 10.1569 7.54113C10.5821 7.41613 10.8065 7.44738 10.6884 7.60363Z" fill="black"/>
</svg>
