<svg width="15" height="15" viewBox="0 0 15 15" fill="none" xmlns="http://www.w3.org/2000/svg">
<path d="M7.21199 1.55997C7.21199 2.65898 7.16872 2.70353 6.62064 2.03522C6.27449 1.61938 6.2168 1.58967 6.11584 1.8273C6.04372 2.03522 6.17353 2.27284 6.62064 2.73324L7.22641 3.357V4.84215C7.22641 5.64413 7.22641 6.3867 7.22641 6.47581C7.21199 6.56492 6.75045 6.16393 6.20237 5.58472C5.39468 4.76789 5.17834 4.44116 5.14949 4.05502C5.13507 3.78769 5.0918 3.56492 5.0341 3.56492C4.99084 3.56492 4.96199 3.357 4.96199 3.08967C4.97641 2.82235 4.88987 2.59957 4.77449 2.55502C4.63026 2.51046 4.60141 2.65898 4.63026 3.23819C4.6591 3.65403 4.64468 3.95106 4.58699 3.9065C4.51487 3.8768 4.4716 3.93621 4.4716 4.04017C4.4716 4.14413 4.38507 4.09957 4.29853 3.93621C4.11103 3.56492 3.28891 2.68868 3.14468 2.67383C2.85622 2.65898 3.08699 3.16393 3.60622 3.65403C4.3418 4.3669 4.32737 4.48571 3.51968 4.38175C2.94276 4.30749 2.87064 4.3372 2.91391 4.55997C2.9716 4.857 3.82257 4.94611 4.1543 4.70848C4.26968 4.61938 4.32737 4.63423 4.32737 4.73819C4.32737 4.8273 4.45718 4.90155 4.61584 4.90155C4.9043 4.90155 6.7793 6.60947 6.7793 6.86195C6.7793 6.95106 6.49084 6.98076 6.13026 6.95106C5.76968 6.92136 5.48122 6.95106 5.48122 7.01046C5.48122 7.06987 5.33699 7.06987 5.16391 6.99561C4.97641 6.92136 4.68795 6.92136 4.5293 6.99561C4.32737 7.06987 4.12545 7.04017 3.95237 6.9065C3.80814 6.80254 3.62064 6.72829 3.5341 6.74314C3.46199 6.77284 3.44757 6.75799 3.50526 6.71343C3.64949 6.63918 3.18795 6.08967 2.98603 6.08967C2.91391 6.08967 2.76968 5.98571 2.66872 5.8372C2.56776 5.70353 2.42353 5.64413 2.32257 5.71839C2.19276 5.79264 2.26487 5.97086 2.5966 6.31244C3.0293 6.77284 3.04372 6.83225 2.82737 7.05502C2.6543 7.23324 2.5966 7.24809 2.5966 7.09957C2.5966 6.96591 2.4091 6.92136 1.87545 6.95106C1.37064 6.99561 1.1543 7.06987 1.1543 7.21839C1.1543 7.38175 1.39949 7.42631 2.19276 7.42631H3.23122L2.76968 7.91641C2.51007 8.18373 2.30814 8.45106 2.30814 8.51046C2.30814 8.79264 2.76968 8.55502 3.28891 7.99066C3.7793 7.47086 3.95237 7.38175 4.45718 7.38175C4.78891 7.38175 5.04853 7.30749 5.04853 7.21839C5.04853 7.12928 5.10622 7.14413 5.17834 7.26294C5.26487 7.3966 5.52449 7.44116 6.04372 7.41145C6.44757 7.38175 6.76487 7.3966 6.75045 7.45601C6.63507 7.78274 4.97641 9.357 4.74564 9.357C4.60141 9.357 4.4716 9.41641 4.4716 9.47581C4.4716 9.53522 4.13987 9.57977 3.75045 9.56492C3.11584 9.53522 3.0293 9.56492 3.0293 9.8174C3.0293 10.1293 3.20237 10.1738 3.57737 9.96591C3.70718 9.89165 3.93795 9.8768 4.08218 9.93621C4.29853 10.0105 4.24084 10.1293 3.67834 10.6936C3.04372 11.3322 2.85622 11.7332 3.18795 11.7332C3.28891 11.7332 3.67834 11.4065 4.06776 11.0055L4.77449 10.2629L4.76007 10.961C4.73122 11.9263 4.73122 11.9709 4.94757 11.7629C5.14949 11.5402 5.14949 11.5253 5.17834 10.5451C5.19276 9.8471 5.25045 9.75799 6.10141 8.8372C6.5918 8.3174 6.93795 7.84215 6.85141 7.81244C6.7793 7.78274 6.83699 7.75304 6.99564 7.76789C7.26968 7.78274 7.2841 7.87185 7.2841 9.29759V10.8124L6.64949 11.5847C6.1591 12.1788 6.05814 12.3867 6.20237 12.5204C6.33218 12.654 6.46199 12.5798 6.79372 12.1788C7.02449 11.8966 7.21199 11.7332 7.22641 11.8075C7.24084 11.8966 7.25526 12.3421 7.26968 12.8025C7.29853 14.3025 7.78891 14.1689 7.78891 12.654L7.80334 11.659L8.19276 12.1491C8.5966 12.6392 8.94276 12.7728 8.94276 12.4313C8.94276 12.0748 8.20718 11.3025 7.96199 11.3917C7.77449 11.4511 7.76007 11.4214 7.9043 11.3322C8.04853 11.2134 8.04853 11.154 7.88987 11.0055C7.73122 10.8719 7.67353 10.456 7.68795 9.26789V7.70848L8.35141 8.3768C8.72641 8.76294 9.07257 9.05997 9.14468 9.05997C9.41872 9.05997 9.79372 9.77284 9.80814 10.2629C9.80814 11.1243 9.9668 11.7332 10.1831 11.7332C10.2985 11.7332 10.3851 11.5847 10.3851 11.3619C10.3851 11.154 10.3274 10.9907 10.2553 10.9907C10.1976 10.9907 10.1687 10.8124 10.212 10.6045C10.2841 10.2184 10.2841 10.2184 10.9476 10.9016C11.3226 11.2728 11.6976 11.5847 11.7985 11.5847C12.1447 11.5847 11.9572 11.1837 11.3226 10.5748C10.5293 9.8174 10.5293 9.83225 11.3226 9.8768C11.9716 9.93621 12.2745 9.77284 11.9428 9.55007C11.6399 9.357 10.5149 9.357 10.6158 9.55007C10.6735 9.66888 10.6447 9.65403 10.5149 9.53522C10.4139 9.44611 10.2553 9.357 10.1687 9.357C9.92353 9.357 8.10622 7.44116 8.2793 7.38175C8.36584 7.35205 9.00045 7.30749 9.67834 7.29264L10.9043 7.26294L11.6687 7.96096C12.2601 8.51046 12.462 8.61442 12.5918 8.48076C12.7216 8.33225 12.6639 8.19858 12.3033 7.8867C11.6543 7.32235 11.6976 7.27779 12.7649 7.27779C13.5149 7.27779 13.7024 7.23324 13.7024 7.05502C13.7024 6.86195 13.5293 6.83225 12.837 6.8471C11.7553 6.8768 11.6255 6.77284 12.2312 6.26789C12.6062 5.94116 12.6639 5.82235 12.5197 5.67383C12.3178 5.46591 11.4091 6.26789 11.3803 6.66888C11.3803 6.83225 11.3514 6.8471 11.2937 6.71343C11.2505 6.59462 11.1639 6.56492 11.063 6.66888C10.962 6.74314 10.3995 6.83225 9.80814 6.86195C9.04372 6.9065 8.74084 6.98076 8.76968 7.11442C8.7841 7.21839 8.74084 7.26294 8.6543 7.20353C8.56776 7.15898 8.55334 7.04017 8.5966 6.95106C8.66872 6.8471 8.61103 6.8174 8.4668 6.8768C8.19276 6.98076 8.12064 6.62433 8.36584 6.46096C8.45237 6.40155 8.4668 6.29759 8.42353 6.20848C8.36584 6.11938 8.38026 6.08967 8.4668 6.13423C8.53891 6.17878 8.92834 5.8966 9.30334 5.49561L10.0101 4.75304H10.9908C11.7264 4.75304 11.9716 4.70848 11.9716 4.54512C11.9716 4.41145 11.7697 4.3372 11.3081 4.3372C10.4139 4.30749 10.4139 4.29264 11.1639 3.55007C11.7841 2.92631 12.0005 2.52532 11.6976 2.52532C11.611 2.52532 11.2793 2.82235 10.9476 3.19363C10.1976 4.02532 10.1543 4.02532 10.1976 3.19363C10.2264 2.61443 10.0533 2.21344 9.86584 2.42136C9.80814 2.48076 9.7216 3.3273 9.67834 4.32235C9.66391 4.54512 8.07737 6.25304 7.78891 6.357C7.70237 6.3867 7.64468 5.85205 7.64468 4.94611V3.49066L8.2793 2.74809C8.6543 2.3174 8.87064 1.93126 8.82737 1.79759C8.76968 1.61938 8.72641 1.63423 8.63987 1.87185C8.56776 2.05007 8.52449 2.07977 8.52449 1.93126C8.51007 1.81244 8.33699 1.93126 8.07737 2.22829L7.6591 2.74809L7.64468 1.66393C7.64468 0.817396 7.60141 0.594623 7.42834 0.594623C7.25526 0.594623 7.21199 0.802544 7.21199 1.55997Z" fill="black"/>
</svg>
