<svg width="15" height="15" viewBox="0 0 15 15" fill="none" xmlns="http://www.w3.org/2000/svg">
<path d="M9.48628 2.40549C9.42745 2.49039 9.2951 2.53285 9.17745 2.49039C9.05981 2.44794 8.97157 2.47624 8.97157 2.56115C8.97157 2.64605 8.86863 2.68851 8.75098 2.64605C8.39804 2.50455 8.33922 2.81587 8.70687 2.97153C8.89804 3.05643 9.11863 3.28285 9.22157 3.46681C9.36863 3.79228 9.35392 3.82058 9.03039 3.82058C8.7951 3.82058 8.61863 3.70738 8.50098 3.46681C8.32451 3.07058 7.98628 3.07058 8.05981 3.45266C8.08922 3.58002 8.0451 3.67907 7.98628 3.67907C7.92745 3.67907 7.85392 3.84888 7.85392 4.047C7.82451 4.33002 7.86863 4.38662 8.07451 4.30171C8.51569 4.11775 9.08922 4.0753 9.17745 4.23096C9.30981 4.41492 8.69216 4.74039 8.28039 4.68379C7.91275 4.64134 7.80981 4.91021 8.14804 5.03756C8.26569 5.08002 8.32451 5.20738 8.28039 5.32058C8.23628 5.46209 8.28039 5.49039 8.42745 5.43379C8.57451 5.39134 8.67745 5.44794 8.72157 5.61775C8.78039 5.90077 8.7951 5.87247 9.05981 5.02341C9.13334 4.78285 9.2951 4.59888 9.41275 4.59888C9.64804 4.59888 9.69216 5.24983 9.50098 5.67436C9.41275 5.87247 9.47157 5.91492 9.76569 5.88662C9.97157 5.88662 10.148 5.81587 10.148 5.74511C10.148 5.68851 10.251 5.66021 10.3686 5.70266C10.7804 5.85832 10.7363 5.53285 10.2951 5.23568C9.70687 4.83945 9.67745 4.31587 10.251 4.45738C10.4716 4.49983 10.7363 4.66964 10.8539 4.8253C11.0892 5.13662 11.398 5.19322 11.2657 4.8819C11.2216 4.7687 11.251 4.66964 11.3245 4.66964C11.4275 4.66964 11.4275 4.25926 11.3392 3.84888C11.3245 3.82058 11.1922 3.89134 11.0304 4.00455C10.7363 4.20266 10.001 4.17436 10.001 3.96209C10.001 3.77813 10.3539 3.58002 10.8539 3.46681C11.3245 3.36775 11.5157 3.11304 11.1039 3.11304C10.9863 3.11304 10.8833 3.01398 10.8833 2.88662C10.8833 2.77341 10.8245 2.70266 10.751 2.74511C10.6775 2.78756 10.5745 2.73096 10.5304 2.6036C10.398 2.27813 10.148 2.50455 10.148 2.95738C10.148 3.31115 9.7951 3.80643 9.64804 3.66492C9.53039 3.53756 9.51569 3.02813 9.61863 2.71681C9.73628 2.36304 9.64804 2.15077 9.48628 2.40549Z" fill="black"/>
<path d="M4.48541 4.81209C4.42659 4.897 4.4707 5.18002 4.55894 5.44889C4.73541 5.97247 4.44129 6.79323 4.07364 6.79323C3.7207 6.77908 3.35306 6.09983 3.41188 5.49134C3.42659 5.12341 3.38247 4.88285 3.26482 4.8404C3.16188 4.81209 3.08835 4.9253 3.08835 5.16587C3.08835 5.47719 3.04423 5.51964 2.79423 5.44889C2.57364 5.37813 2.52953 5.40643 2.58835 5.5904C2.66188 5.77436 2.61776 5.80266 2.29423 5.71775C2.00011 5.647 1.91188 5.68945 1.91188 5.85926C1.91188 6.01492 2.10306 6.11398 2.50011 6.17058C3.4707 6.32625 3.89717 7.24606 3.07364 7.41587C2.706 7.48662 2.51482 7.41587 2.16188 7.13285C1.83835 6.87813 1.67659 6.82153 1.55894 6.93474C1.44129 7.04794 1.4707 7.147 1.66188 7.27436C1.9707 7.50077 1.98541 7.64228 1.69129 7.64228C1.57364 7.64228 1.4707 7.69889 1.4707 7.78379C1.4707 7.85455 1.60306 7.9253 1.76482 7.9253C2.05894 7.9253 2.05894 7.93945 1.82364 8.27908C1.456 8.81681 1.94129 8.76021 2.35306 8.20832C2.57364 7.91115 2.79423 7.78379 3.08835 7.78379C3.89717 7.78379 3.77953 8.88757 2.956 9.17059C2.39717 9.3687 2.32364 9.75077 2.86776 9.65172C3.07364 9.62342 3.23541 9.63757 3.2207 9.70832C3.16188 10.0338 3.25012 10.0762 3.44129 9.83568C3.63247 9.58096 3.64717 9.58096 3.73541 9.87813C3.79423 10.0479 3.91188 10.1895 3.98541 10.1895C4.16188 10.1895 4.14717 9.80738 3.956 9.46775C3.76482 9.11398 4.04423 8.20832 4.35306 8.20832C4.66188 8.20832 5.07364 8.91587 5.07364 9.48191C5.07364 10.0338 5.33835 10.2885 5.41188 9.80738C5.44129 9.60926 5.52953 9.52436 5.67659 9.58096C5.79423 9.62342 5.88247 9.56681 5.88247 9.4253C5.88247 9.29794 6.00012 9.19889 6.17659 9.19889C6.33835 9.19889 6.4707 9.14228 6.4707 9.07153C6.4707 8.93002 6.10306 8.77436 5.75012 8.77436C5.4707 8.77436 4.85306 8.20832 4.85306 7.9536C4.85306 7.44417 5.86776 7.38757 6.32364 7.85455C6.55894 8.09511 6.7207 8.16587 6.82364 8.06681C6.92659 7.96775 6.91188 7.8687 6.79423 7.75549C6.54423 7.51492 6.57364 7.35926 6.86776 7.35926C7.00012 7.35926 7.05894 7.31681 7.00012 7.24606C6.94129 7.18945 6.82364 7.147 6.75012 7.147C6.61776 7.147 6.60306 6.99134 6.73541 6.68002C6.88247 6.28379 6.57364 6.31209 6.206 6.72247C5.77953 7.2036 4.956 7.38757 4.80894 7.04794C4.66188 6.63757 5.10306 5.98662 5.64717 5.80266C6.206 5.63285 6.2207 5.30738 5.66188 5.40643C5.39717 5.46304 5.35306 5.42058 5.39717 5.18002C5.456 4.897 5.456 4.897 5.25012 5.12341C4.9707 5.44889 4.85306 5.44889 4.85306 5.10926C4.85306 4.78379 4.61776 4.59983 4.48541 4.81209ZM4.54423 7.26021C4.76482 7.52908 4.39717 8.01021 4.05894 7.88285C3.82364 7.79794 3.73541 7.34511 3.92659 7.1753C4.07364 7.01964 4.36776 7.06209 4.54423 7.26021Z" fill="black"/>
<path d="M9.70582 7.78331C9.70582 7.85406 9.61758 7.88236 9.49993 7.83991C9.11758 7.6984 9.10288 8.05217 9.48523 8.29274C9.74993 8.46255 9.85288 8.64651 9.85288 8.98614C9.85288 9.45312 9.83817 9.45312 9.4117 9.29746C9.17641 9.21255 8.9117 8.97198 8.80876 8.74557C8.64699 8.34934 8.32346 8.32104 8.48523 8.70312C8.52935 8.84463 8.47052 8.91538 8.30876 8.91538C8.10288 8.91538 8.08817 8.95783 8.22052 9.11349C8.35288 9.26915 8.33817 9.32576 8.1617 9.39651C8.02935 9.43897 7.95582 9.53802 8.01464 9.62293C8.07346 9.70783 8.23523 9.70783 8.48523 9.60878C8.76464 9.50972 8.99993 9.52387 9.29405 9.63708L9.72052 9.80689L9.39699 10.1324C9.14699 10.3871 8.98523 10.4295 8.58817 10.3729C8.08817 10.288 7.88229 10.5003 8.30876 10.6701C8.42641 10.7126 8.48523 10.8399 8.44111 10.9673C8.36758 11.1229 8.4117 11.1654 8.60288 11.0946C8.76464 11.0239 8.82346 11.0663 8.79405 11.1937C8.77935 11.3069 8.82346 11.4201 8.89699 11.4626C8.98523 11.505 9.05876 11.3635 9.08817 11.1512C9.13229 10.755 9.79405 10.1324 10.0146 10.2739C10.2352 10.4012 10.1617 11.2078 9.9117 11.4767C9.64699 11.7597 9.76464 12.1276 10.0441 11.9154C10.147 11.8446 10.4411 11.8022 10.7058 11.8305C11.2499 11.8588 11.3529 11.5616 10.8823 11.321C10.6176 11.1795 10.3088 10.2597 10.4852 10.1041C10.6323 9.96255 11.4411 10.4578 11.5146 10.755C11.6029 11.0805 11.9117 11.1371 11.9117 10.8258C11.9117 10.7126 11.9852 10.6135 12.0735 10.6135C12.1617 10.6135 12.2058 10.5286 12.1617 10.4154C12.1176 10.3022 12.1764 10.1748 12.2941 10.1324C12.7499 9.96255 12.3529 9.79274 11.8382 9.9201C11.4558 10.0192 11.2205 10.005 10.9411 9.86349L10.5588 9.66538L10.9999 9.36821C11.2499 9.1984 11.5882 9.07104 11.7646 9.08519C11.9558 9.11349 12.1323 9.04274 12.1617 8.94368C12.2058 8.85878 12.1323 8.77387 11.9999 8.77387C11.8529 8.77387 11.8088 8.68897 11.8676 8.53331C11.9264 8.37765 11.9117 8.33519 11.7941 8.40595C11.6911 8.46255 11.6176 8.4201 11.6176 8.29274C11.6176 8.16538 11.5146 8.06632 11.397 8.06632C11.2646 8.06632 11.1764 8.19368 11.1764 8.3918C11.1764 8.68897 10.647 9.33991 10.4117 9.33991C10.1764 9.33991 10.1323 8.46255 10.3529 8.22198C10.7499 7.79746 10.5882 7.41538 10.1764 7.81161C10.0441 7.93897 9.99993 7.93897 9.99993 7.81161C9.99993 7.71255 9.94111 7.6418 9.85288 7.6418C9.77935 7.6418 9.70582 7.6984 9.70582 7.78331Z" fill="black"/>
</svg>
