<svg width="15" height="15" viewBox="0 0 15 15" fill="none" xmlns="http://www.w3.org/2000/svg">
<path d="M8.24007 1.13778C7.83866 1.22814 7.1626 1.30043 6.76119 1.30043C5.95838 1.28236 5.53584 1.49922 5.26119 2.09561C5.15556 2.34862 4.88091 2.52934 4.52176 2.56549C4.20486 2.60163 3.76119 2.83657 3.5288 3.10766L3.10626 3.59561L3.65556 4.30043C4.05697 4.78838 4.22598 5.22212 4.22598 5.76428C4.22598 6.86669 4.85979 7.67995 6.14852 8.1679C6.8457 8.45706 7.14148 8.67392 7.0781 8.85465C7.03584 8.99922 6.93021 9.43296 6.8457 9.81248L6.69781 10.4992L6.04288 9.97513C4.7119 8.87272 2.49359 8.65585 2.36683 9.61368C2.24007 10.5354 4.33162 11.9269 5.83162 11.9269C6.23303 11.9269 6.33866 12.0173 6.33866 12.3607C6.33866 12.8486 6.65556 13.1197 6.86683 12.8305C6.93021 12.7402 7.22598 12.6498 7.50063 12.6498C9.08514 12.6498 11.8316 11.1679 11.8316 10.3366C11.8316 9.59561 9.82458 9.83055 8.21894 10.7522L7.395 11.204L7.52176 10.445C7.75415 9.16187 8.13443 8.67392 8.93725 8.67392C10.2894 8.67392 12.0429 7.26428 12.0429 6.19802C12.0429 6.03537 12.2964 5.58356 12.5922 5.20404C13.1415 4.53537 13.1415 4.5173 12.7612 4.02934C12.5288 3.72212 12.402 3.27031 12.4443 2.89079C12.5077 2.09561 12.064 1.71609 10.8809 1.53537C10.4161 1.46308 9.95134 1.35465 9.82458 1.28236C9.40204 1.01127 8.95838 0.975128 8.24007 1.13778ZM8.83162 2.18597C8.49359 2.38477 8.24007 2.67392 8.24007 2.8185C8.24007 3.17995 7.94429 3.12573 7.4795 2.69199C7.09922 2.33055 7.09922 2.31248 7.50063 2.05946C7.7119 1.91489 8.24007 1.80645 8.64148 1.80645L9.40204 1.82453L8.83162 2.18597ZM6.54993 2.42091C6.54993 2.92693 8.24007 4.3185 9.02176 4.44501L9.80345 4.57151L9.19077 4.98718L8.59922 5.38477L7.31049 4.48115C5.74711 3.36067 5.64148 3.21609 5.95838 2.63778C6.2119 2.13175 6.54993 2.00525 6.54993 2.42091ZM11.5781 2.83657C11.6204 3.08959 11.4513 3.41489 11.1133 3.70404C10.4161 4.30043 10.0992 4.28236 10.2894 3.64983C10.3739 3.37874 10.4373 2.98115 10.4161 2.74621C10.395 2.14983 11.4725 2.24019 11.5781 2.83657ZM9.63443 2.98115C9.7612 3.25224 9.40204 3.79441 9.08514 3.79441C8.78936 3.79441 8.6626 3.21609 8.895 2.96308C9.2119 2.63778 9.48655 2.63778 9.63443 2.98115ZM5.19781 3.72212C5.38796 4.08356 6.06401 4.67995 6.67669 5.07754C8.09218 5.96308 8.07105 5.92694 7.69077 6.88477C7.26824 7.89681 7.37387 7.86067 6.38091 7.42694C5.47246 7.02934 5.07105 6.37874 5.07105 5.29441C5.07105 4.95103 4.88091 4.44501 4.60626 4.15585C4.24711 3.72212 4.20486 3.57754 4.43725 3.3426C4.79641 2.98115 4.79641 2.98115 5.19781 3.72212ZM11.557 5.45706C11.2823 5.98115 10.9443 6.63175 10.8175 6.88477C10.4795 7.62573 8.21894 8.34862 8.24007 7.71609C8.26119 7.08356 9.29641 5.89079 10.564 5.07754C12.1274 4.06549 12.2753 4.13778 11.557 5.45706ZM4.50063 10.0113C5.21894 10.2643 6.06401 10.951 5.87387 11.1318C5.70486 11.2583 4.22598 10.7161 3.76119 10.3546C3.00063 9.77633 3.35979 9.59561 4.50063 10.0113ZM10.0147 11.0233C9.90908 11.1137 9.44429 11.3125 8.9795 11.4932C8.00767 11.8366 8.11331 11.692 9.23303 11.0956C9.99359 10.7161 10.4373 10.6619 10.0147 11.0233Z" fill="currentColor"/>
</svg>
