<svg width="15" height="15" viewBox="0 0 15 15" fill="none" xmlns="http://www.w3.org/2000/svg">
<path d="M5.66839 1.14297C4.49927 1.72422 3.81545 4.55547 4.49927 6.09297C4.91839 6.97422 5.86692 7.79922 6.74927 7.98672C7.23457 8.09922 7.25663 8.15547 7.14633 9.26172C6.92574 11.418 6.90369 11.4367 6.08751 10.293C5.20516 9.03672 3.77133 8.06172 2.77869 8.06172C1.36692 8.06172 1.19045 8.83047 2.22721 10.4992C3.02133 11.7742 3.90369 12.3555 5.99927 12.9555L7.49927 13.3867L8.80074 12.843C10.3228 12.243 11.9552 10.9117 12.4405 9.89922C12.8375 9.11172 12.7713 9.01797 11.6463 9.07422C10.7419 9.13047 8.84486 10.0867 8.16104 10.8367L7.6978 11.343L7.83016 10.3117C8.09486 8.28672 8.0728 8.30547 9.17574 8.15547C11.1169 7.91172 12.6169 5.98047 12.661 3.65547C12.6831 2.04297 12.1757 1.53672 11.0287 2.06172C10.6978 2.21172 10.5875 2.15547 10.389 1.68672C10.0581 0.861718 9.59486 0.805468 8.46986 1.46172L7.49927 2.04297L7.01398 1.49922C6.50663 0.899218 6.28604 0.842968 5.66839 1.14297ZM9.61692 1.81797C9.63898 2.00547 9.70516 2.28672 9.79339 2.47422C9.96986 2.83047 8.75663 4.12422 8.46986 3.88047C8.05074 3.52422 8.29339 2.38047 8.91104 1.94922C9.61692 1.40547 9.61692 1.42422 9.61692 1.81797ZM7.30074 3.35547C7.76398 4.38672 7.87427 5.71797 7.58751 6.78672C7.4331 7.40547 7.45516 7.40547 6.59486 7.01172C5.27133 6.43047 4.85221 4.08672 5.77869 2.47422C6.33016 1.48047 6.50663 1.59297 7.30074 3.35547ZM11.6463 3.99297C11.4919 6.09297 10.6096 7.27422 8.97721 7.61172L8.38163 7.72422L8.51398 6.63672C8.69045 5.49297 9.13163 4.68672 10.3449 3.41172C11.4919 2.21172 11.7787 2.34297 11.6463 3.99297ZM4.41104 11.0055C4.94045 11.6055 5.00663 11.793 4.71986 11.6617C4.0581 11.3617 3.39633 10.668 2.88898 9.74922L2.40368 8.90547L3.04339 9.52422C3.39633 9.86172 4.01398 10.5367 4.41104 11.0055ZM4.85221 10.2555L5.53604 11.1555L4.76398 10.4242C4.0581 9.76797 3.79339 9.37422 4.08016 9.37422C4.12427 9.37422 4.47721 9.76797 4.85221 10.2555ZM11.2272 10.518C10.9405 10.8367 10.2125 11.3805 9.59486 11.7555C8.58016 12.3555 8.60221 12.318 10.036 11.1742C11.7566 9.80547 11.9993 9.67422 11.2272 10.518Z" fill="black"/>
</svg>
