<svg width="15" height="15" viewBox="0 0 15 15" fill="none" xmlns="http://www.w3.org/2000/svg">
<path d="M6.75061 1.41972C6.45793 1.75972 6.22012 2.21972 6.22012 2.45972C6.22012 2.81972 6.18354 2.81972 5.7811 2.33972C4.73841 1.11972 3.38475 1.57972 3.5128 3.09972C3.54939 3.77972 3.5128 3.93972 3.29329 3.89972C1.84817 3.59972 1.11646 5.77972 2.36036 6.61972C2.68963 6.85972 2.67134 6.89972 2.08597 7.49972C1.04329 8.57972 1.44573 9.79972 2.79939 9.79972C3.32988 9.79972 3.32988 9.79972 3.03719 10.2997C2.37866 11.3997 3.09207 12.4597 4.22622 12.0197C5.04939 11.7197 5.12256 11.7397 5.12256 12.2997C5.12256 13.3797 6.75061 13.6997 7.17134 12.6997L7.35427 12.2597L7.79329 12.7197C8.48841 13.4997 9.87866 13.0597 9.87866 12.0597C9.87866 11.8997 10.1165 11.7997 10.5921 11.7997C11.653 11.7997 12.1104 10.7797 11.5433 9.63972C11.3604 9.25972 11.3787 9.19972 11.6713 9.19972C12.9884 9.19972 13.4091 7.35972 12.2567 6.69972L11.7445 6.39972L12.275 5.77972C13.1348 4.77972 12.7689 3.79972 11.525 3.79972C10.8299 3.79972 10.8116 3.79972 10.9213 3.13972C11.1043 1.81972 9.62256 1.31972 8.94573 2.45972C8.87256 2.55972 8.7628 2.37972 8.68963 2.01972C8.43354 0.699718 7.59207 0.439718 6.75061 1.41972ZM8.0128 2.75972C8.08597 3.95972 8.23232 4.01972 9.09207 3.19972C10.1896 2.13972 10.6287 2.63972 9.86036 4.07972C9.43963 4.87972 9.67744 5.23972 10.3726 4.83972C10.6835 4.63972 11.3604 4.53972 11.8543 4.57972C12.4762 4.63972 11.5433 5.85972 10.5555 6.25972C10.025 6.47972 10.2994 6.87972 11.0311 7.01972C11.7628 7.13972 12.2567 7.49972 12.2567 7.91972C12.2567 8.35972 11.525 8.65972 10.775 8.51972C10.2079 8.41972 10.0616 8.45972 10.0616 8.69972C10.0616 8.85972 10.153 8.99972 10.2445 8.99972C10.4823 8.99972 11.1591 10.1997 11.1591 10.6397C11.1591 11.1997 10.4457 11.2997 9.86036 10.8197C9.12866 10.2197 8.96402 10.2797 9.18354 11.0797C9.42134 11.9197 9.275 12.3997 8.79939 12.3997C8.37866 12.3997 7.95793 11.7997 7.775 10.9397C7.61036 10.2597 7.13476 10.2197 7.13476 10.8997C7.13476 11.5797 6.64085 12.5997 6.32988 12.5997C5.81768 12.5997 5.63475 12.0397 5.7628 10.9597L5.89085 9.89972L5.37866 10.4397C4.775 11.0597 3.89695 11.4597 3.5311 11.3197C3.22012 11.1797 3.45793 10.5797 4.15305 9.75972C4.775 9.03972 4.59207 8.83972 3.43963 8.95972C1.73841 9.09972 1.61036 8.27972 3.20183 7.61972C4.31768 7.15972 4.40915 6.91972 3.62256 6.47972C1.61036 5.35972 2.06768 4.35972 4.35427 4.89972C5.06768 5.07972 5.08597 4.89972 4.48232 3.99972C4.22622 3.61972 4.025 3.15972 4.025 2.97972C4.025 2.09972 5.0311 2.27972 5.65305 3.29972C5.89085 3.67972 6.18354 3.99972 6.32988 3.99972C6.56768 3.99972 6.62256 3.83972 6.86036 2.69972C7.17134 1.19972 7.93963 1.21972 8.0128 2.75972Z" fill="black"/>
<path d="M5.83544 4.80048C4.71958 5.44048 4.29885 6.90048 4.82934 8.26048C5.1769 9.18048 5.89032 9.64048 7.02446 9.64048C9.45739 9.66048 10.5915 7.56048 9.27446 5.46048C8.59763 4.36048 7.07934 4.08048 5.83544 4.80048ZM8.23178 5.48048C8.23178 5.52048 7.88422 5.86048 7.46349 6.22048L6.6769 6.88048L7.29885 6.14048C7.86593 5.48048 8.23178 5.22048 8.23178 5.48048Z" fill="black"/>
</svg>
