<svg width="15" height="15" viewBox="0 0 15 15" fill="none" xmlns="http://www.w3.org/2000/svg">
<path d="M6.8742 1.42236C6.52003 1.5782 6.27003 1.96781 6.04086 2.64963L5.72836 3.64314L4.9992 3.29249C2.72836 2.14314 1.02003 4.34443 3.04086 5.82495L3.54086 6.19508L2.66586 6.46781C0.540862 7.13015 0.707529 9.05872 2.91586 9.21456C3.27003 9.23404 3.54086 9.29249 3.54086 9.33145C3.54086 9.37041 3.3742 9.81846 3.1867 10.325C2.6867 11.6496 3.1242 12.3314 4.4367 12.234C4.91586 12.1951 5.29086 12.0782 5.27003 11.9613C5.2492 11.8444 5.3742 11.747 5.54086 11.747C5.6867 11.747 5.83253 11.9029 5.83253 12.0782C5.83253 12.5263 6.58253 13.2081 7.1867 13.3639C7.95753 13.5392 8.6867 12.9938 8.95753 12.0392C9.1242 11.5327 9.2492 11.3185 9.35336 11.4743C9.72836 12.0198 11.0617 12.0782 11.5825 11.5912C11.8534 11.3379 12.0825 11.0263 12.0825 10.9094C12.0825 10.5392 11.4575 9.27301 11.1867 9.11716C11.0409 9.03924 11.3117 8.96132 11.77 8.96132C12.2284 8.96132 12.8325 8.82495 13.0825 8.64963C14.145 7.96781 13.2492 6.23404 11.8325 6.23404L11.145 6.21456L11.7284 5.82495C13.9367 4.26651 12.395 2.08469 9.9367 3.31197L9.16586 3.70158V2.92236C9.16586 1.55872 8.08253 0.857421 6.8742 1.42236ZM8.33253 2.55223C8.4992 2.90288 8.54086 3.48729 8.45753 4.05223C8.29086 5.31846 8.4367 5.3769 9.4992 4.50028C10.5409 3.64314 10.9575 3.48729 11.6242 3.72106C12.4159 3.99378 12.1867 4.59768 10.9367 5.45482C9.64503 6.35093 9.6242 6.52625 10.8325 6.6821C11.895 6.81846 12.7075 7.28599 12.7075 7.77301C12.7075 8.2795 11.6867 8.4743 10.7075 8.1821C9.52003 7.81197 9.35336 8.20158 10.27 9.13664C11.1242 10.0327 11.4575 10.8704 11.0409 11.1042C10.52 11.4159 9.29086 10.6366 8.9367 9.7795C8.6242 9.03924 8.33253 9.29249 8.3742 10.2665C8.4367 12.1366 7.79086 13.1107 6.95753 12.4483C6.6867 12.234 6.64503 11.9418 6.77003 10.773C6.91586 9.19508 6.70753 8.92236 6.1242 9.9743C5.60336 10.9289 4.97836 11.4938 4.4367 11.4938C3.45753 11.4938 3.64503 10.286 4.8117 9.23404C5.83253 8.31846 5.5617 7.85093 4.2492 8.2795C3.22836 8.63015 2.66586 8.63015 2.20753 8.31846C1.4367 7.79249 2.33253 7.09119 4.0617 6.85742C5.3742 6.6821 5.41586 6.31197 4.20753 5.68859C2.6867 4.90937 2.45753 3.70158 3.8117 3.70158C4.35336 3.70158 4.77003 3.89638 5.47836 4.4808C6.5617 5.3769 6.6242 5.33794 6.6242 3.9743C6.6242 2.02625 7.70753 1.13015 8.33253 2.55223Z" fill="currentColor"/>
<path d="M6.31091 5.62982C5.26924 6.42852 5.22758 7.67528 6.16508 8.61034C7.68591 10.0714 10.2901 8.08437 9.35258 6.17528C8.91508 5.25969 7.16508 4.94801 6.31091 5.62982Z" fill="currentColor"/>
</svg>
