<svg width="15" height="15" viewBox="0 0 15 15" fill="none" xmlns="http://www.w3.org/2000/svg">
<path d="M6.1579 1.02669C5.79162 1.22406 5.23348 2.44775 5.23348 3.05959C5.23348 3.41485 5.21604 3.41485 4.62301 3.07932C4.34394 2.90169 3.89046 2.84248 3.43697 2.90169C1.77999 3.13853 1.6579 3.77011 3.0358 4.93459C3.94278 5.70432 4.36139 6.31617 4.01255 6.31617C3.71604 6.31617 2.58232 7.75695 2.32069 8.42801C2.00673 9.3359 2.02418 10.4412 2.37301 10.5991C2.52999 10.6583 2.98348 10.5398 3.38464 10.303C4.41371 9.7109 5.96604 9.53327 5.91371 10.007C5.79162 10.9543 7.15208 13.4806 7.74511 13.382C8.1986 13.303 9.22767 11.0925 9.27999 10.0267C9.34976 9.1188 9.59394 9.07932 11.1812 9.69117C12.4719 10.2043 12.6637 10.0662 12.6114 8.68459C12.5591 7.38195 12.1579 6.57274 11.373 6.15827C11.0242 5.98064 10.7102 5.82274 10.6753 5.80301C10.6405 5.78327 10.9021 5.19117 11.2509 4.48064C12.0881 2.78327 12.0532 2.09248 11.1288 2.01353C10.5009 1.95432 9.22767 2.52669 8.98348 2.9609C8.79162 3.31617 8.6172 3.17801 8.4079 2.50696C8.02418 1.28327 6.96022 0.592482 6.1579 1.02669ZM7.62301 2.34906C7.84976 2.72406 8.0765 3.37538 8.12883 3.78985L8.25092 4.53985L8.91371 3.8688C10.0125 2.7438 11.3381 2.17143 11.3381 2.82275C11.3381 3.17801 10.6579 4.55959 10.2219 5.09248C9.94278 5.46748 8.66953 6.31617 8.44278 6.31617C8.4079 6.31617 8.47767 6.03985 8.56487 5.68459C8.73929 4.97406 8.56487 4.6188 8.12883 4.79643C7.93697 4.89511 7.84976 5.19117 7.84976 5.76353C7.84976 7.10564 7.51836 7.42143 7.48348 6.1188C7.46604 4.77669 7.30906 4.10564 6.99511 3.98722C6.75092 3.88853 6.82069 5.72406 7.08232 6.67143C7.13464 6.84906 6.94278 6.59248 6.64627 6.07932C6.27999 5.44774 6.01836 5.17143 5.84394 5.25038C5.51255 5.40827 5.51255 5.38853 5.9486 6.3359C6.50673 7.59906 6.22767 7.4609 4.71022 5.7438C3.92534 4.87538 3.14046 4.10564 2.9486 4.04643C2.39046 3.84906 2.75673 3.55301 3.5765 3.55301C4.13464 3.55301 4.46604 3.69117 4.8672 4.06617C5.52999 4.67801 5.75673 4.55959 5.75673 3.53327C5.75673 1.63853 6.80325 0.967482 7.62301 2.34906ZM11.0939 6.73064C11.6695 6.96748 12.0358 7.69774 12.0358 8.54643C12.0358 9.19774 11.9835 9.29643 11.7393 9.17801C11.3905 9.00038 10.3963 8.64511 9.24511 8.25038C8.39046 7.97406 8.33813 7.6188 9.1579 7.57932C10.03 7.53985 10.1172 7.50038 10.1172 7.30301C10.1172 7.18459 9.92534 7.10564 9.68115 7.10564C9.14046 7.10564 9.10557 6.75038 9.64627 6.51353C10.0125 6.35564 10.3091 6.39511 11.0939 6.73064ZM5.00673 7.14511C5.54743 7.71748 5.51255 7.89511 4.90208 7.89511C4.60557 7.89511 4.3265 7.9938 4.25673 8.13195C4.16953 8.28985 4.43115 8.32932 5.2858 8.23064C7.29162 8.01353 6.6986 8.86222 4.62301 9.17801C4.15208 9.23722 3.50673 9.47406 3.21022 9.69117C2.42534 10.2241 2.4079 10.1846 2.79162 9.02011C3.08813 8.13195 4.1172 6.7109 4.48348 6.7109C4.55325 6.7109 4.77999 6.90827 5.00673 7.14511ZM8.44278 8.52669C8.84394 9.15827 8.77418 10.2043 8.2858 11.428C7.77999 12.632 7.6579 12.6122 6.87301 11.1122C6.3672 10.1056 6.38464 8.98064 6.9079 8.54643C7.3265 8.2109 7.50092 8.40827 7.50092 9.19774C7.50092 9.57274 7.58813 9.8688 7.67534 9.8688C7.77999 9.8688 7.84976 9.47406 7.84976 8.98064C7.84976 7.9938 8.04162 7.85564 8.44278 8.52669Z" fill="black"/>
</svg>
