<svg width="15" height="15" viewBox="0 0 15 15" fill="none" xmlns="http://www.w3.org/2000/svg">
<path d="M6.54374 1.97157C6.13124 2.23319 5.84999 2.58203 5.69999 3.05296C5.51249 3.73319 5.47499 3.73319 4.72499 3.68087C2.15624 3.52389 0.824993 7.08203 2.98124 8.33784C3.24374 8.49482 3.50624 8.63436 3.54374 8.66924C3.58124 8.70412 3.48749 8.8611 3.33749 9.01808C2.13749 10.3437 2.62499 12.3844 4.14374 12.3844C5.11874 12.3844 5.56874 12.1751 6.41249 11.2855L7.10624 10.553L6.93749 11.1634C6.65624 12.0878 6.69374 13.082 7.01249 13.082C7.18124 13.082 7.34999 12.6983 7.51874 11.9658L7.74374 10.8495L8.13749 11.3902C9.09374 12.6809 10.8937 13.0995 11.6812 12.1925C12.15 11.6518 12.0562 9.95994 11.55 9.43668C11.2125 9.08785 11.2125 9.0704 11.55 8.96575C13.9312 8.28552 14.4562 5.49482 12.4312 4.34366C11.8125 3.97738 11.55 3.97738 10.3687 4.29133C10.0312 4.37854 9.97499 4.34366 10.0687 4.04715C10.1062 3.85529 9.99374 3.34947 9.78749 2.91343C9.16874 1.60529 7.78124 1.20412 6.54374 1.97157ZM8.79374 2.54715C9.50624 3.10529 9.58124 4.16924 8.98124 5.25064C8.47499 6.1925 8.60624 6.41924 9.28124 5.75645C10.7812 4.30878 12.075 4.3611 12.9375 5.91343C13.6687 7.22157 11.8687 8.82622 10.2187 8.3204C9.26249 8.02389 9.14999 7.86691 9.56249 7.37854C9.76874 7.13436 9.93749 6.8204 9.93749 6.69831C9.93749 6.27971 9.05624 6.41924 8.64374 6.90761C8.11874 7.53552 7.87499 7.32622 8.08124 6.41924C8.28749 5.59947 8.19374 5.23319 7.78124 5.23319C7.44374 5.23319 7.12499 5.91343 7.12499 6.64598C7.12499 6.92505 7.04999 7.1518 6.93749 7.1518C6.84374 7.1518 6.74999 7.04715 6.74999 6.92505C6.74999 6.55878 6.05624 6.05296 5.71874 6.15761C5.36249 6.29715 5.36249 6.78552 5.73749 7.16924C5.99999 7.43087 5.98124 7.50064 5.51249 7.83203C3.91874 9.00064 1.93124 6.99482 2.92499 5.21575C3.52499 4.09947 4.91249 4.01226 5.81249 5.02389C6.48749 5.79133 6.67499 5.68668 6.35624 4.72738C5.75624 2.87854 7.38749 1.43087 8.79374 2.54715ZM7.96874 7.79715C7.96874 7.98901 8.02499 8.23319 8.11874 8.30296C8.45624 8.61691 8.24999 9.59366 7.79999 9.78552C7.01249 10.1344 6.43124 9.62854 6.56249 8.72157C6.63749 8.14598 6.95624 8.12854 6.89999 8.72157C6.84374 9.36691 7.27499 9.62854 7.76249 9.26226C8.11874 8.98319 7.91249 8.19831 7.49999 8.19831C7.18124 8.19831 6.86249 7.62273 7.08749 7.41343C7.34999 7.16924 7.96874 7.43087 7.96874 7.79715ZM5.94374 8.16343C5.75624 8.33784 5.62499 8.6518 5.62499 8.84366C5.62499 9.03552 5.41874 9.36691 5.15624 9.59366C4.44374 10.2216 4.70624 10.6402 5.43749 10.0297C5.71874 9.78552 5.79374 9.80296 6.11249 10.1344C6.46874 10.5006 6.46874 10.5006 5.64374 11.1809C4.34999 12.2623 3.37499 12.0355 3.37499 10.6751C3.37499 10.0995 4.34999 8.72157 4.78124 8.72157C4.91249 8.72157 5.28749 8.52971 5.56874 8.28552C6.18749 7.77971 6.37499 7.72738 5.94374 8.16343ZM10.0312 8.96575C10.6875 9.22738 11.4375 10.2913 11.4375 10.9541C11.4375 11.3902 10.7437 12.2099 10.3875 12.2099C9.84374 12.2099 9.03749 11.6867 8.62499 11.0762C8.21249 10.4658 8.21249 10.4309 8.54999 10.2041C8.86874 9.99482 8.96249 10.0123 9.39374 10.4134C10.0875 11.0064 10.3312 10.6053 9.67499 9.95994C9.41249 9.69831 9.18749 9.31459 9.18749 9.10529C9.18749 8.6518 9.20624 8.6518 10.0312 8.96575Z" fill="black"/>
</svg>
