<svg width="15" height="15" viewBox="0 0 15 15" fill="none" xmlns="http://www.w3.org/2000/svg">
<path d="M6.87977 1.74468C6.35977 1.9191 5.43977 2.87841 5.27977 3.38422C5.17977 3.7505 5.11977 3.76794 4.41977 3.61096C2.85977 3.24468 1.29977 4.72724 1.77977 6.10515C1.97977 6.71562 2.65977 7.37841 3.23977 7.53538C3.35977 7.57027 3.21977 7.95399 2.89977 8.4598C2.21977 9.50631 2.29977 10.3435 3.13977 11.0586C3.79977 11.6342 5.09977 11.6865 5.87977 11.1458L6.39977 10.797L6.25977 11.861C6.15977 12.7854 6.17977 12.9075 6.45977 12.8028C6.63977 12.7505 6.83977 12.454 6.89977 12.1575C7.17977 10.9365 7.13977 10.954 8.13977 11.5296C9.29977 12.1575 9.97977 12.1749 10.7798 11.5819C11.6998 10.9017 11.9598 9.97724 11.4598 9.08771L11.0598 8.39003L11.7198 8.19817C14.4198 7.41329 13.6998 3.97724 10.8998 4.23887L9.87977 4.32608L9.95977 3.82027C10.2198 2.32027 8.51977 1.1691 6.87977 1.74468ZM8.91977 2.72143C9.11977 2.98306 9.21977 3.45399 9.17977 4.08189C9.11977 5.28538 9.13977 5.30282 10.1798 4.97143C11.3598 4.62259 12.2598 4.93655 12.5998 5.82608C12.9998 6.92492 12.0598 7.67492 10.2798 7.67492H9.35977L10.0598 8.35515C12.0998 10.3261 10.1398 12.4889 8.01977 10.6226C7.67977 10.3261 7.39977 9.90748 7.39977 9.68073C7.39977 9.12259 6.97977 8.91329 6.71977 9.3319C5.75977 10.7796 4.33977 11.3028 3.55977 10.4656C2.83977 9.68073 3.33977 8.49469 4.73977 7.7098C5.53977 7.23887 5.43977 6.97724 4.45977 6.97724C2.69977 6.97724 1.77977 5.58189 2.89977 4.62259C3.49977 4.08189 4.49977 4.04701 5.19977 4.53538C5.91977 5.02375 5.99977 4.97143 5.99977 4.11678C5.99977 2.47724 8.01977 1.51794 8.91977 2.72143Z" fill="currentColor"/>
<path d="M7.19963 5.59923C7.01963 5.86086 7.03963 6.01784 7.21963 6.2097C7.53963 6.54109 7.99963 6.2097 7.99963 5.65156C7.99963 5.1283 7.49963 5.09342 7.19963 5.59923Z" fill="currentColor"/>
<path d="M5.86044 6.22634C5.78044 6.4182 5.88044 6.61006 6.18044 6.76703C6.58044 7.01122 6.58044 7.0461 6.30044 7.32517C5.96044 7.65657 6.08044 8.19727 6.50044 8.19727C6.98044 8.19727 7.30044 7.67401 7.04044 7.32517C6.92044 7.13331 6.86044 6.87168 6.92044 6.71471C7.06044 6.40075 6.68044 5.92982 6.26044 5.92982C6.12044 5.92982 5.92044 6.06936 5.86044 6.22634Z" fill="currentColor"/>
<path d="M8.29888 6.4542C7.71888 7.01234 7.97888 7.43094 8.65888 6.97745C8.95888 6.76815 9.19888 6.54141 9.19888 6.4542C9.19888 6.15768 8.61888 6.14024 8.29888 6.4542Z" fill="currentColor"/>
<path d="M7.48061 7.58759C7.18061 8.26782 8.00061 8.66899 8.40061 8.02364C8.56061 7.76201 8.52061 7.65736 8.22061 7.50038C7.70061 7.27364 7.60061 7.27364 7.48061 7.58759Z" fill="currentColor"/>
</svg>
