<svg width="15" height="15" viewBox="0 0 15 15" fill="none" xmlns="http://www.w3.org/2000/svg">
<path d="M6.37492 1.19623C6.10706 1.2805 5.89278 1.55016 5.89278 1.76927C5.89278 2.05578 5.73206 2.19061 5.30349 2.22432C4.66063 2.27488 4.47313 3.08387 4.92849 3.74118C5.06242 3.92657 4.98206 4.04455 4.58028 4.12882C3.56242 4.33106 4.12492 5.46028 5.57135 6.16814C5.86599 6.30297 5.70528 6.31983 4.98206 6.26927C3.69635 6.16814 3.45528 6.55578 4.39278 7.31421C5.22313 8.02207 5.22313 8.02207 4.55349 8.14005C3.74992 8.27488 3.91063 8.69623 5.08921 9.50522C5.86599 10.0277 6.16063 10.3816 6.16063 10.7693C6.16063 11.5108 5.91956 11.4266 4.60706 10.2131C2.99992 8.71309 2.49099 8.37601 2.00885 8.49398C0.883848 8.76365 2.08921 10.2974 4.60706 11.8311C6.74992 13.1457 6.58921 13.1457 9.08028 11.6962C10.7142 10.7524 11.866 9.69061 12.1874 8.88163C12.3481 8.47713 12.2946 8.42657 11.7321 8.42657C11.1428 8.42657 9.16063 9.8423 7.58028 11.3929C7.31242 11.6794 7.25885 11.6288 7.25885 11.0221C7.23206 10.4659 7.39278 10.2468 8.19635 9.75803C9.40171 9.03331 9.72313 8.66252 9.50885 8.25803C9.29456 7.81983 8.57135 7.83668 7.82135 8.25803C7.49992 8.46028 7.23206 8.5614 7.23206 8.51084C7.23206 8.46028 7.79456 8.08949 8.46421 7.685C9.80349 6.87601 9.93742 6.35354 8.89278 6.26927C8.54456 6.23556 8.03563 6.33668 7.74099 6.50522C7.47313 6.65691 7.23206 6.70747 7.23206 6.6232C7.23206 6.52207 7.66063 6.26927 8.19635 6.08387C8.81242 5.84792 9.10706 5.62882 8.99992 5.47713C8.91956 5.3423 8.99992 5.24118 9.18742 5.27488C9.61599 5.32545 9.77671 4.53331 9.32135 4.36477C9.13385 4.2805 8.81242 4.24679 8.65171 4.29736C8.16956 4.39848 8.22313 4.24679 8.83921 3.75803C9.66956 3.08387 9.26778 1.9041 8.30349 2.27488C8.14278 2.3423 8.03563 2.20747 8.03563 1.97151C8.03563 1.75241 7.82135 1.44904 7.55349 1.29736C6.99099 0.960277 6.99099 0.960277 6.37492 1.19623ZM5.73206 5.03893C6.26778 5.67938 5.91956 5.86477 5.30349 5.27488C4.76778 4.75241 4.71421 4.55016 5.08921 4.55016C5.22313 4.55016 5.51778 4.76927 5.73206 5.03893ZM6.05349 7.53331C5.83921 7.685 4.82135 6.99398 4.82135 6.69061C4.82135 6.57264 5.14278 6.70747 5.54456 6.94342C5.94635 7.19623 6.16063 7.46589 6.05349 7.53331ZM6.08028 9.20185C5.81242 9.37039 5.08921 8.93219 5.08921 8.62882C5.08921 8.40971 5.19635 8.42657 5.67849 8.71309C5.99992 8.93219 6.18742 9.13443 6.08028 9.20185ZM8.30349 8.93219C7.68742 9.48837 7.23206 9.70747 7.23206 9.47151C7.23206 9.30297 8.46421 8.42657 8.70528 8.42657C8.81242 8.42657 8.62492 8.64567 8.30349 8.93219ZM4.49992 10.9378C4.84813 11.3254 5.06242 11.6288 4.98206 11.6288C4.82135 11.6288 3.21421 10.1794 3.21421 10.0108C3.21421 9.77488 3.91063 10.2805 4.49992 10.9378Z" fill="black"/>
</svg>
