<svg width="15" height="15" viewBox="0 0 15 15" fill="none" xmlns="http://www.w3.org/2000/svg">
<path d="M6.06264 0.993842C5.07944 1.21108 4.2097 1.62488 3.41558 2.2766C2.65927 2.88695 1.81474 4.04557 1.94079 4.30419C1.9786 4.39729 1.95339 4.42832 1.89037 4.39729C1.81474 4.36626 1.76432 4.3766 1.76432 4.43867C1.76432 4.49039 1.86516 4.59384 1.99121 4.65591C2.18028 4.75936 2.18028 4.75936 1.94079 4.70763C1.63827 4.64557 1.55003 4.83177 1.19709 6.31108C0.831544 7.79039 0.919779 8.56626 1.56264 9.46626C1.91558 9.95246 2.65927 10.3973 2.9744 10.3042C3.07524 10.2732 3.12566 10.2835 3.08785 10.3456C2.9618 10.5111 3.9702 10.4697 4.53743 10.2835C5.02902 10.118 5.04163 10.118 5.63406 10.4387C5.94919 10.6145 6.30213 10.7594 6.40297 10.7594C6.59205 10.7594 6.55423 11.2973 6.28953 12.3938C6.2139 12.6938 6.18869 13.0145 6.2265 13.0973C6.26432 13.18 6.23911 13.2421 6.17608 13.2421C5.91138 13.2421 6.06264 13.5628 6.37776 13.6559C6.75591 13.78 8.44499 13.7904 8.67188 13.6766C8.79793 13.6042 8.77272 13.3869 8.57104 12.6111C8.2307 11.2559 8.2307 10.8007 8.60885 10.718C8.77272 10.6869 9.10045 10.5525 9.33995 10.418C9.68028 10.2318 9.85675 10.1904 10.071 10.2628C10.2349 10.3042 10.424 10.3145 10.487 10.2732C10.5752 10.2421 10.5878 10.2628 10.5374 10.3249C10.487 10.3973 10.6383 10.449 10.9912 10.4697C11.6467 10.5111 12.6929 10.1904 12.7937 9.92143C12.8441 9.80764 12.9198 9.72488 12.9828 9.72488C13.4618 9.72488 13.8399 7.81108 13.6005 6.67315C13.5374 6.3835 13.4618 5.9697 13.424 5.74212C13.3862 5.51453 13.3231 5.25591 13.2727 5.17315C13.1719 4.96626 13.1341 4.86281 13.0458 4.53177C12.882 3.88005 11.9114 2.53522 11.6971 2.64901C11.6089 2.69039 11.5962 2.6697 11.6467 2.59729C11.7601 2.45246 11.4954 2.15246 11.3315 2.23522C11.2685 2.26626 11.2307 2.24557 11.2433 2.20419C11.2937 2.0697 10.487 1.48005 9.9702 1.2835C8.79793 0.828324 7.32314 0.714531 6.06264 0.993842ZM9.01222 1.6766C9.35255 1.79039 9.69289 1.8835 9.75591 1.89384C9.81894 1.90419 10.0332 2.03867 10.2601 2.19384C10.4744 2.35936 10.6761 2.4835 10.7265 2.4835C10.7643 2.4835 11.029 2.75246 11.3063 3.07315C12.7559 4.81108 13.4114 7.9766 12.5416 9.07315C12.4282 9.20764 12.3778 9.37315 12.4282 9.44557C12.4786 9.51798 12.4786 9.53867 12.4156 9.49729C12.3652 9.45591 12.1509 9.53867 11.9492 9.67315C11.7475 9.81798 11.4954 9.93177 11.3946 9.93177C11.2937 9.93177 11.2181 9.99384 11.2181 10.0559C11.2181 10.1387 11.1803 10.149 11.1173 10.0869C11.0668 10.0249 10.8904 9.92143 10.7139 9.84901C10.5374 9.7766 10.2979 9.58005 10.1845 9.41453C9.91978 9.03177 9.66768 9.02143 9.39037 9.3835C9.02482 9.84901 8.7223 10.0456 8.25591 10.1076C7.75171 10.1697 7.7139 10.1283 7.63827 9.30074C7.58785 8.58695 7.51222 8.4835 7.10885 8.4835C6.85675 8.4835 6.79373 8.53522 6.80633 8.71108C6.81894 8.84557 6.81894 8.99039 6.80633 9.05246C6.79373 9.10419 6.79373 9.32143 6.79373 9.51798C6.81894 10.0559 6.64247 10.2318 6.27692 10.0456C6.11306 9.96281 5.84835 9.83867 5.67188 9.75591C5.49541 9.6835 5.43238 9.62143 5.52062 9.62143C5.64667 9.62143 5.64667 9.5697 5.54583 9.40419C5.30633 9.05246 5.07944 9.06281 4.66348 9.44557C3.88196 10.1904 2.79793 9.93177 2.10465 8.84557C1.56264 7.99729 1.86516 5.51453 2.65927 4.22143C2.81054 3.97315 3.15087 3.51798 3.41558 3.19729C3.68028 2.86626 3.85675 2.5766 3.80633 2.52488C3.75591 2.4835 3.78112 2.4835 3.85675 2.51453C3.93238 2.55591 4.09625 2.49384 4.2223 2.38005C4.34835 2.26626 4.52482 2.17315 4.61306 2.17315C4.70129 2.17315 4.82734 2.11108 4.87776 2.02832C5.24331 1.51108 7.80213 1.29384 9.01222 1.6766Z" fill="black"/>
<path d="M6.51671 2.76373C6.46629 2.79477 6.42847 2.96029 6.42847 3.1258C6.42847 3.32236 6.36545 3.41546 6.22679 3.41546C5.86125 3.41546 5.16797 4.08787 5.16797 4.4396C5.16797 5.25684 5.84864 5.74304 6.90746 5.67063C7.51251 5.62925 7.65116 5.57753 7.95368 5.26718C8.62175 4.60511 8.39486 3.66373 7.47469 3.35339C7.2478 3.27063 7.08394 3.15684 7.12175 3.11546C7.31083 2.85684 6.78141 2.54649 6.51671 2.76373ZM7.44948 4.14994C7.63856 4.30511 7.68898 4.4396 7.62595 4.63615C7.41167 5.39132 6.15116 5.36029 5.87385 4.60511C5.77301 4.3258 5.93688 4.14994 6.37805 4.03615C6.95788 3.90167 7.17217 3.92236 7.44948 4.14994Z" fill="black"/>
<path d="M9.63011 5.31762C9.5923 5.40038 9.57969 5.53486 9.61751 5.60727C9.64272 5.67969 9.47885 5.90727 9.23936 6.11417C8.54608 6.71417 8.5839 7.63486 9.31499 7.96589C9.90743 8.21417 11.3192 8.01762 11.1679 7.69693C11.1301 7.61417 11.1679 7.56245 11.2562 7.58314C11.3444 7.59348 11.3948 7.54176 11.3822 7.46934C11.357 7.40727 11.4074 7.34521 11.4705 7.34521C11.6091 7.34521 11.6343 6.94176 11.5209 6.68314C11.4831 6.59003 11.3948 6.54865 11.3318 6.57969C11.2688 6.61072 11.2562 6.559 11.294 6.48658C11.3318 6.39348 11.231 6.259 11.0293 6.13486C10.5377 5.85555 10.273 5.60727 10.273 5.40038C10.273 5.17279 9.73095 5.10038 9.63011 5.31762ZM10.8528 6.73486C11.0419 7.03486 10.9032 7.41762 10.5251 7.61417C10.2226 7.77969 10.1847 7.76934 9.76877 7.51072C9.26457 7.19003 9.28978 7.24176 9.47885 6.859C9.55448 6.70383 9.6049 6.52796 9.5923 6.48658C9.57969 6.43486 9.61751 6.42452 9.66793 6.44521C9.73095 6.46589 9.88221 6.45555 10.0209 6.41417C10.3234 6.32107 10.6637 6.44521 10.8528 6.73486Z" fill="black"/>
<path d="M4.18351 5.91879C4.09527 5.9912 4.03225 6.12569 4.03225 6.21879C4.03225 6.32224 3.88099 6.46707 3.69191 6.53948C2.59527 6.97396 2.94822 8.38086 4.1583 8.38086C5.50704 8.38086 5.89779 7.07741 4.70032 6.53948C4.52385 6.44638 4.51124 6.405 4.6499 6.27051C4.97763 5.94983 4.53645 5.62914 4.18351 5.91879ZM4.63729 6.90155C4.62469 6.95327 4.6625 7.11879 4.72553 7.27396C4.88939 7.76017 4.20872 8.17396 3.80536 7.84293C3.45242 7.55327 3.75494 7.02569 4.34737 6.90155C4.48603 6.88086 4.61208 6.84983 4.63729 6.83948C4.6499 6.83948 4.6499 6.86017 4.63729 6.90155Z" fill="black"/>
</svg>
