<svg width="15" height="15" viewBox="0 0 15 15" fill="none" xmlns="http://www.w3.org/2000/svg">
<path d="M6.96214 1.01231C6.44291 1.08208 5.67368 1.97161 5.42368 2.79138C5.30829 3.24487 5.17368 3.3844 4.88522 3.34952C2.2506 2.98324 1.15445 4.04719 2.48137 5.72161C2.78906 6.10533 3.15445 6.47161 3.26983 6.54138C3.42368 6.62859 3.26983 6.87277 2.80829 7.30882C2.15445 7.91929 1.53906 9.12277 1.53906 9.78557C1.53906 10.6751 3.11599 10.9193 4.63522 10.2391L5.53906 9.83789L5.63522 10.5879C5.7506 11.5821 6.57752 12.7332 7.19291 12.7332C7.7506 12.7332 8.11599 12.367 8.71214 11.1984C9.28906 10.0821 9.44291 10.2216 9.57752 11.8786C9.67368 13.117 9.88522 13.3611 10.3852 12.8204C10.5775 12.6111 10.5775 12.3321 10.4044 11.5646C10.2891 11.0239 10.1929 10.5181 10.1929 10.4484C10.1929 10.3611 10.5968 10.3437 11.116 10.396C12.1544 10.5007 12.9621 10.2042 13.0391 9.66347C13.116 9.14022 12.3852 7.70998 11.7314 7.15184L11.1737 6.68091L11.9044 5.9658C13.2891 4.64022 13.4429 3.24487 12.2121 3.03556C11.4237 2.91347 9.86599 3.08789 9.71214 3.33208C9.44291 3.7158 9.07752 3.45417 8.98137 2.75649C8.80829 1.55301 8.0006 0.855331 6.96214 1.01231ZM8.11599 2.26812C8.30829 2.59952 8.46214 3.24487 8.46214 3.7158V4.53556L9.36599 4.09952C10.0583 3.78556 10.5775 3.66347 11.4237 3.66347H12.5391L12.4044 4.1344C12.2314 4.84952 11.3275 5.79138 10.4237 6.24487C9.57752 6.66347 9.38522 6.97743 9.94291 6.97743C10.5968 6.97743 11.6929 7.86696 12.0968 8.72161C12.616 9.82045 12.6544 9.76812 11.5583 9.76812C10.3852 9.76812 9.69291 9.54138 9.0006 8.93091C8.42368 8.44254 8.40445 8.45998 8.46214 9.54138C8.5006 10.3263 7.96214 11.617 7.44291 12.0007C6.82752 12.4716 6.0006 10.6402 6.21214 9.22743C6.32752 8.45998 6.19291 8.37277 5.65445 8.91347C5.09675 9.47161 3.90445 9.95998 3.01983 9.99487L2.21214 10.0298L2.26983 9.41929C2.36599 8.26812 3.38522 7.22161 4.5006 7.09952C5.21214 7.02975 5.36599 6.69836 4.76983 6.54138C4.01983 6.33208 3.07752 5.58208 2.73137 4.93673C2.42368 4.36115 2.42368 4.30882 2.78906 4.08208C3.32752 3.73324 4.48137 3.78556 5.05829 4.18673C5.71214 4.65766 5.71214 4.65766 5.86599 3.69835C6.19291 1.70998 7.40445 0.942541 8.11599 2.26812Z" fill="black"/>
<path d="M7.03842 4.04743C6.9615 4.2044 6.92304 4.51836 6.9615 4.7451C7.03842 5.32068 6.23073 5.7044 5.74996 5.32068C5.49996 5.09394 5.38457 5.09394 5.26919 5.25092C5.19227 5.37301 5.28842 5.58231 5.49996 5.73929C6.05765 6.14045 5.9615 6.85557 5.30765 7.48347C4.59611 8.16371 4.80765 8.42533 5.55765 7.77999C6.01919 7.37882 6.13457 7.34394 6.32688 7.57068C6.57688 7.84975 7.59611 7.77999 7.9615 7.48347C8.07688 7.39626 8.38457 7.51836 8.69227 7.79743C9.1538 8.19859 9.28842 8.23347 9.42304 8.02417C9.53842 7.84975 9.44227 7.64045 9.03842 7.3265C8.38457 6.80324 8.34611 6.15789 8.94227 5.72185C9.4038 5.37301 9.17304 5.0765 8.6538 5.35557C8.01919 5.72185 7.34611 5.26836 7.26919 4.44859C7.2115 3.94278 7.15381 3.83812 7.03842 4.04743ZM7.4615 6.48929C7.38457 6.96022 6.92304 7.11719 6.92304 6.66371C6.92304 6.31487 7.07688 6.10557 7.34611 6.10557C7.44227 6.10557 7.49996 6.27998 7.4615 6.48929Z" fill="black"/>
<path d="M6.92383 8.72238C6.92383 9.08866 7.00075 9.24564 7.17383 9.19331C7.28921 9.15843 7.4046 8.94913 7.4046 8.72238C7.4046 8.49564 7.28921 8.28634 7.17383 8.23401C7.00075 8.19913 6.92383 8.3561 6.92383 8.72238Z" fill="black"/>
</svg>
