<svg width="15" height="15" viewBox="0 0 15 15" fill="none" xmlns="http://www.w3.org/2000/svg">
<path d="M4.87898 1.19377C4.67209 1.279 4.39623 1.50059 4.27554 1.70514C4.13761 1.90968 3.87898 2.04604 3.58588 2.04604C3.24105 2.04604 3.03416 2.18241 2.8445 2.55741C2.68933 2.83014 2.48243 3.06877 2.3445 3.06877C1.99967 3.06877 1.5514 3.64832 1.5514 4.12559C1.5514 4.34718 1.36174 4.72218 1.10312 4.96082C0.792778 5.25059 0.689329 5.48923 0.741053 5.779C0.792778 6.01764 0.723812 6.30741 0.585881 6.42673C0.292778 6.73355 0.361743 8.55741 0.689329 8.9665C0.82726 9.11991 1.01692 9.40968 1.12036 9.59718C1.22381 9.80173 1.44795 9.98923 1.63761 10.0404C1.81002 10.0745 2.18933 10.3301 2.44795 10.6029C2.75829 10.9267 3.03416 11.0801 3.20657 11.012C3.39623 10.9438 3.44795 10.9949 3.37898 11.2165C3.22381 11.6938 3.20657 12.887 3.36174 13.1085C3.70657 13.671 6.31002 12.6313 6.86174 11.7279C7.22381 11.1142 7.75829 11.0972 7.77554 11.6767C7.79278 11.9154 7.82726 12.171 7.8445 12.2733C7.86174 12.3585 7.89623 12.6654 7.91347 12.9551C7.94795 13.9949 8.27554 13.4324 8.27554 12.3074C8.27554 10.8074 8.43071 10.654 9.46519 11.1824C10.4307 11.6767 12.1204 11.8983 12.4997 11.5915C12.8445 11.3017 12.8273 10.9438 12.4307 10.1767C12.1204 9.59718 12.1204 9.51195 12.3962 8.9665C12.5514 8.62559 12.7583 8.36991 12.8617 8.35286C13.6204 8.33582 14.1376 6.63127 13.5169 6.11991C13.3273 5.9665 13.2755 5.74491 13.3617 5.33582C13.4479 4.87559 13.379 4.70514 13.0169 4.36423C12.7755 4.14264 12.5859 3.81877 12.5859 3.63127C12.5859 3.20514 12.3617 3.01764 11.4479 2.74491C10.9997 2.5915 10.6548 2.36991 10.5342 2.11423C10.4307 1.89264 10.1376 1.67104 9.87898 1.60286C9.62036 1.55173 9.22381 1.43241 9.01692 1.33014C8.81002 1.22786 8.44795 1.21082 8.15485 1.279C7.46519 1.4665 6.13761 1.43241 5.72381 1.21082C5.31002 0.989227 5.37898 1.00627 4.87898 1.19377ZM5.86174 1.79036C6.10312 2.01195 6.24105 2.029 6.60312 1.85854C6.96519 1.70514 7.12036 1.70514 7.32726 1.87559C7.81002 2.28468 6.91347 2.5915 6.06864 2.31877C5.62036 2.16536 4.82726 2.5915 4.82726 2.98354C4.82726 3.11991 4.72381 3.18809 4.58588 3.13695C4.44795 3.08582 4.15485 3.13695 3.93071 3.25627C3.70657 3.37559 3.46519 3.47786 3.36174 3.49491C3.27554 3.49491 3.15485 3.56309 3.10312 3.66536C3.0514 3.75059 2.8445 3.98923 2.63761 4.21082C2.31002 4.51764 2.27554 4.654 2.41347 5.029C2.56864 5.43809 2.39623 6.13695 2.13761 6.13695C2.08588 6.13695 2.10312 6.05173 2.15485 5.9665C2.20657 5.86423 2.17209 5.79605 2.08588 5.79605C1.98243 5.79605 1.89623 5.89832 1.89623 6.01764C1.89623 6.13695 1.74105 6.32445 1.5514 6.44377C1.36174 6.56309 1.20657 6.83582 1.20657 7.07445C1.20657 7.56877 0.94795 7.63695 0.775536 7.21082C0.706571 7.00627 0.792778 6.80173 1.01692 6.63127C1.29278 6.40968 1.3445 6.22218 1.27554 5.81309C1.17209 5.36991 1.22381 5.26764 1.62036 5.09718C1.99967 4.92673 2.06864 4.80741 1.98243 4.41536C1.86174 3.904 2.24105 3.40968 2.75829 3.40968C2.94795 3.40968 3.13761 3.20514 3.25829 2.88127C3.41347 2.43809 3.49967 2.36991 3.86174 2.45514C4.20657 2.54036 4.36174 2.45514 4.65485 2.04604C5.06864 1.48354 5.43071 1.39832 5.86174 1.79036ZM8.82726 1.85854C8.98243 2.11423 9.15485 2.16536 9.51692 2.09718C10.0169 1.99491 10.0686 2.04604 10.2411 3.00059C10.3273 3.51195 10.2928 3.54604 9.72381 3.61423C9.36174 3.64832 9.0514 3.59718 8.93071 3.46082C8.82726 3.3415 8.56864 3.23923 8.36174 3.23923C7.67209 3.23923 7.53416 2.84718 7.94795 2.14832C8.36174 1.44945 8.53416 1.39832 8.82726 1.85854ZM6.75829 2.89832C7.15485 2.89832 7.67209 3.44377 7.46519 3.64832C7.29278 3.81877 6.37898 3.76764 6.37898 3.58014C6.37898 3.47786 6.29278 3.40968 6.18933 3.40968C6.08588 3.40968 6.03416 3.51195 6.08588 3.64832C6.20657 3.93809 5.60312 4.51764 5.36174 4.34718C4.75829 3.98923 5.43071 2.404 6.0514 2.72786C6.22381 2.83014 6.53416 2.89832 6.75829 2.89832ZM11.2583 3.10286C11.4652 3.20514 11.7583 3.3415 11.8962 3.40968C12.0514 3.49491 12.1376 3.7165 12.1031 3.95514C12.0686 4.26195 12.1893 4.43241 12.4997 4.56877C12.9824 4.79036 13.0169 4.96082 12.7411 5.48923C12.5859 5.76195 12.6376 5.91536 12.9824 6.29036C13.31 6.61423 13.3962 6.85286 13.3273 7.21082C13.2238 7.72218 12.6893 8.13127 12.4997 7.8415C12.2755 7.50059 12.0859 7.68809 12.0342 8.30173C11.9824 8.86423 11.9135 8.94945 11.4997 9.00059C11.0169 9.05173 11.0169 9.05173 11.2928 8.62559C11.4652 8.36991 11.5514 7.99491 11.5169 7.75627C11.4479 7.4665 11.4997 7.33014 11.6721 7.33014C11.7928 7.33014 12.0686 7.22786 12.2928 7.10855C12.4997 7.00627 12.6893 6.904 12.7238 6.88695C12.7411 6.86991 12.6548 6.64832 12.4997 6.37559C12.3617 6.10286 12.2411 5.72786 12.2411 5.54036C12.2238 5.14832 11.2928 3.98923 11.1548 4.21082C11.1031 4.29604 11.1204 4.4665 11.2066 4.60286C11.6376 5.28468 10.9307 5.47218 10.3273 4.8415C9.96519 4.4665 9.81002 4.41536 9.18933 4.50059C8.48243 4.58582 7.58588 4.34718 7.58588 4.07445C7.58588 3.69945 8.18933 3.63127 8.65485 3.93809C9.03416 4.21082 9.20657 4.24491 9.48243 4.0915C9.72381 3.95514 9.93071 3.95514 10.1893 4.0915C10.6376 4.34718 10.7583 4.22786 10.7583 3.49491C10.7583 2.81309 10.7411 2.83014 11.2583 3.10286ZM4.77554 4.0915C4.93071 4.50059 4.91347 4.70514 4.72381 5.11423C4.46519 5.5915 4.44795 5.60855 4.0514 5.35286C3.82726 5.2165 3.46519 5.11423 3.24105 5.14832C2.94795 5.18241 2.82726 5.11423 2.79278 4.80741C2.72381 4.38127 3.18933 4.10854 3.49967 4.41536C3.79278 4.70514 3.96519 4.63695 3.96519 4.21082C3.96519 3.40968 4.48243 3.3415 4.77554 4.0915ZM7.10312 4.43241C7.22381 4.61991 7.44795 4.77332 7.60312 4.77332C8.0514 4.77332 8.32726 5.19945 8.12036 5.5915C7.86174 6.06877 7.44795 6.17105 6.79278 5.93241C6.3445 5.779 6.12036 5.779 5.77554 5.93241C5.25829 6.17105 4.99967 6.06877 4.99967 5.64264C4.99967 5.28468 5.32726 4.94377 5.65485 4.94377C5.79278 4.94377 6.0514 4.75627 6.24105 4.51764C6.65485 4.00627 6.82726 3.98923 7.10312 4.43241ZM9.68933 4.96082C9.96519 5.09718 10.0169 5.25059 9.93071 5.64264C9.87898 5.89832 9.91347 6.17105 9.99967 6.22218C10.2928 6.39264 10.1893 6.95514 9.82726 7.21082C9.41347 7.48355 7.93071 7.39832 7.72381 7.0915C7.49967 6.75059 7.58588 6.529 8.01692 6.3415C8.25829 6.23923 8.48243 5.94945 8.5514 5.67673C8.72381 4.92673 9.1376 4.67105 9.68933 4.96082ZM11.8617 6.76764C11.7583 6.88695 11.4997 6.98923 11.2755 6.98923C10.8273 6.98923 10.7583 7.17673 11.0342 7.654C11.3273 8.23355 10.1376 9.05173 9.60312 8.64264C9.15485 8.26764 9.08588 7.79036 9.49967 7.89264C10.2066 8.08014 11.0169 6.69945 10.4997 6.18809C10.2238 5.91536 10.4652 5.62559 10.9479 5.62559C11.1721 5.62559 11.4135 5.54036 11.4824 5.43809C11.5514 5.31877 11.6893 5.52332 11.8273 5.89832C11.9824 6.35855 11.9997 6.61423 11.8617 6.76764ZM3.87898 5.79605C3.93071 5.88127 4.13761 5.9665 4.32726 5.9665C4.75829 5.9665 4.74105 6.08582 4.22381 6.529C3.79278 6.88695 3.70657 7.19377 3.82726 7.92673C3.89623 8.404 3.25829 8.47218 2.86174 8.029C2.56864 7.70514 2.5514 7.654 2.82726 7.24491C3.0514 6.904 3.06864 6.76764 2.89623 6.49491C2.74105 6.23923 2.74105 6.10286 2.91347 5.89832C3.17209 5.5915 3.72381 5.54036 3.87898 5.79605ZM6.89623 6.83582C6.89623 7.02332 7.01692 7.21082 7.15485 7.26195C7.75829 7.50059 7.32726 8.52332 6.63761 8.52332C6.44795 8.52332 6.18933 8.67673 6.06864 8.86423C5.68933 9.46082 4.51692 9.06877 4.77554 8.42105C4.82726 8.28468 4.70657 7.99491 4.48243 7.75627C3.96519 7.21082 4.24105 6.64832 5.0514 6.64832C5.36174 6.64832 5.74105 6.529 5.93071 6.39264C6.3445 6.08582 6.89623 6.3415 6.89623 6.83582ZM2.46519 6.69945C2.51692 6.81877 2.44795 7.05741 2.32726 7.22786C2.15485 7.44945 2.13761 7.654 2.24105 7.94377C2.3445 8.19945 2.3445 8.35286 2.24105 8.35286C2.13761 8.35286 2.06864 8.43809 2.06864 8.54036C2.06864 8.64264 2.18933 8.69377 2.32726 8.62559C2.74105 8.47218 3.10312 8.69377 3.10312 9.10286C3.10312 9.59718 2.93071 9.76764 2.65485 9.529C2.49967 9.40968 2.32726 9.40968 2.10312 9.529C1.77554 9.69945 1.37898 9.49491 1.37898 9.13695C1.37898 9.05173 1.25829 8.84718 1.10312 8.67673C0.741053 8.28468 0.913467 7.8415 1.39623 7.8415C1.68933 7.8415 1.74105 7.77332 1.67209 7.4665C1.51692 6.88695 2.25829 6.17105 2.46519 6.69945ZM8.79278 8.45514C8.79278 8.69377 8.89623 8.86423 9.0514 8.86423C9.18933 8.86423 9.37898 9.01764 9.48243 9.20514C9.70657 9.59718 9.10312 10.3131 8.68933 10.1597C8.5514 10.1085 8.39623 10.1767 8.32726 10.3131C8.06864 11.012 7.06864 10.9608 7.06864 10.2449C7.06864 10.0915 6.91347 9.86991 6.72381 9.75059C6.29278 9.49491 6.53416 8.86423 7.06864 8.86423C7.25829 8.86423 7.53416 8.65968 7.70657 8.38695C8.24105 7.55173 8.79278 7.58582 8.79278 8.45514ZM4.77554 9.40968C5.13761 9.78468 5.27554 9.83582 5.53416 9.66536C5.82726 9.47786 6.3445 9.83582 6.37898 10.2449C6.37898 10.4665 5.81002 10.5688 5.58588 10.3813C5.46519 10.279 5.27554 10.2449 5.17209 10.3131C4.91347 10.4665 4.31002 10.2449 4.31002 9.97218C4.31002 9.83582 4.15485 9.69945 3.98243 9.63127C3.48243 9.47786 3.41347 9.06877 3.8445 8.67673C4.20657 8.35286 4.22381 8.35286 4.27554 8.64264C4.31002 8.81309 4.53416 9.154 4.77554 9.40968ZM10.6893 9.01764C10.6893 9.17105 10.31 9.54605 10.1376 9.54605C9.82726 9.54605 10.0169 8.93241 10.3445 8.91536C10.5342 8.89832 10.6893 8.94945 10.6893 9.01764ZM11.7583 9.92105C11.8962 10.1426 12.0686 10.5176 12.1376 10.7733C12.2411 11.2335 12.2238 11.2506 11.4652 11.2506C10.7583 11.2506 9.31002 10.8245 9.31002 10.6199C9.31002 10.4665 9.89623 10.0745 10.1376 10.0574C10.2583 10.0574 10.6721 10.262 11.0859 10.5006L11.81 10.9267L11.2238 10.4324C10.879 10.1426 10.6893 9.85286 10.7583 9.75059C10.9652 9.42673 11.4997 9.51195 11.7583 9.92105ZM3.86174 10.1597C3.99967 10.5347 3.13761 10.671 2.79278 10.3301C2.53416 10.0745 2.53416 10.0574 2.89623 10.0574C3.10312 10.0574 3.27554 9.98923 3.27554 9.88695C3.27554 9.64832 3.74105 9.86991 3.86174 10.1597ZM5.67209 10.8245C6.29278 10.8415 6.81002 10.9267 6.8445 11.012C6.99967 11.4892 4.20657 13.1256 3.74105 12.8358C3.56864 12.7335 3.68933 11.6938 3.96519 10.9949C4.06864 10.7051 4.20657 10.5858 4.3445 10.671C4.46519 10.7563 5.06864 10.8245 5.67209 10.8245Z" fill="currentColor"/>
</svg>
