<svg width="15" height="15" viewBox="0 0 15 15" fill="none" xmlns="http://www.w3.org/2000/svg">
<path d="M7.85585 1.96158C7.11358 2.45609 6.58781 3.1484 6.32492 3.92312C6.18575 4.35169 6.12389 4.38466 5.25791 4.40114C3.26307 4.43411 1.36101 5.91763 1.46925 7.35169C1.54657 8.29125 2.18059 9.46158 2.87647 9.93961C3.21668 10.1869 3.37132 10.3847 3.30946 10.5495C3.2476 10.6814 3.17028 11.1759 3.13936 11.6539C3.06204 12.4286 3.09296 12.511 3.4641 12.7748C4.26822 13.3352 6.21668 12.8242 7.09812 11.8022C7.50018 11.3572 8.02595 11.3572 8.5208 11.8022C8.65998 11.9341 8.81461 11.9836 8.86101 11.9176C8.92286 11.8682 8.96925 11.8847 8.96925 11.9836C8.96925 12.2803 10.3146 12.8572 10.9641 12.8572C12.2476 12.8572 12.6651 12.3627 12.3713 11.1924C12.2012 10.566 12.2167 10.4671 12.4796 10.2693C15.0002 8.37367 14.2888 5.53851 11.1342 4.89565C10.3919 4.7473 10.2373 4.66488 10.2528 4.36818C10.2837 3.2473 9.77338 2.01103 9.12389 1.6484C8.70637 1.41763 8.64451 1.43411 7.85585 1.96158ZM9.35585 2.58796C9.57235 2.93411 9.74245 3.3462 9.74245 3.51103C9.74245 3.67587 9.78884 3.77477 9.86616 3.72532C9.92802 3.69235 9.95894 3.93961 9.92802 4.28576C9.88163 4.73081 9.77338 4.9451 9.51049 5.07697C9.30946 5.17587 9.06204 5.53851 8.92286 5.96708C8.79915 6.36268 8.64451 6.80774 8.58266 6.95609C8.50534 7.17038 8.55173 7.25279 8.70637 7.25279C8.92286 7.25279 9.43317 6.3462 9.43317 5.9506C9.43317 5.71983 10.2528 5.27477 10.7012 5.27477C11.7528 5.27477 13.4538 6.62642 13.5156 7.50005C13.6394 9.0495 11.428 10.6154 10.2682 9.80774C10.0517 9.65939 9.81977 9.59345 9.77338 9.65939C9.71152 9.72532 9.75791 9.80774 9.86616 9.84071C9.95894 9.89016 10.0208 9.98906 9.95894 10.0715C9.8507 10.2693 10.6239 10.5825 11.1806 10.5825C11.6445 10.566 11.9074 11.011 11.9074 11.7858C11.9074 12.4781 10.794 12.511 9.55688 11.8517C8.83008 11.4561 8.72183 11.2583 9.04657 10.8792C9.20121 10.6978 9.27853 10.4506 9.23214 10.3187C9.18575 10.1869 9.2476 9.98906 9.37132 9.89016C9.89709 9.41213 9.21668 7.46708 8.64451 7.82972C8.55173 7.89565 8.33523 7.81323 8.14967 7.63191C7.80946 7.33521 7.80946 7.33521 8.07235 7.68136C8.28884 7.9451 8.30431 8.06049 8.16513 8.20884C7.88678 8.50554 7.7476 8.45609 7.5775 8.01104C7.33008 7.31873 6.44864 7.81323 6.10843 8.83521C5.84554 9.65939 5.08781 10.1539 4.29915 9.98906C3.06204 9.7418 1.77853 8.17587 1.94863 7.10444C2.02595 6.6429 3.27853 5.2418 3.69606 5.17587C4.39193 5.06049 4.88678 4.87917 4.97956 4.71433C5.05688 4.58246 5.10327 4.59895 5.10327 4.73082C5.10327 4.8462 5.25791 4.9451 5.45894 4.9451C6.27853 4.9451 6.47956 5.12642 6.71152 6.01653C6.8507 6.49455 7.06719 6.97257 7.20637 7.10444C7.63936 7.48356 7.28369 5.50554 6.77338 4.76378C6.52595 4.38466 7.25276 3.09895 8.07235 2.47257C8.87647 1.8462 8.87647 1.8462 9.35585 2.58796ZM8.01049 8.73631C8.21152 8.73631 8.3507 8.63741 8.3507 8.47257C8.3507 8.07697 8.72183 8.29125 8.89193 8.80224C9.00018 9.16488 8.96925 9.29675 8.6909 9.60994L8.3507 9.97257L8.44348 9.42862C8.56719 8.78576 8.25791 8.70334 8.04142 9.32972C7.85585 9.80774 8.07235 10.3847 8.42802 10.3847C8.7373 10.3847 8.72183 10.5989 8.39709 10.8132C8.05688 11.0275 7.0208 10.9121 6.80431 10.6319C6.68059 10.4671 6.74245 10.4011 7.03626 10.3187C7.60843 10.1704 8.01049 8.90115 7.50018 8.90115C7.36101 8.90115 7.26822 9.0495 7.26822 9.29675C7.26822 9.87367 7.03626 9.95609 6.80431 9.47807C6.51049 8.88466 6.98987 8.07697 7.4074 8.47257C7.56204 8.62093 7.82492 8.73631 8.01049 8.73631ZM6.37132 10.022C6.06204 10.1209 6.17028 10.8462 6.54142 11.1264L6.88162 11.3902L6.52595 11.7033C6.15482 12.033 4.80946 12.5275 4.31461 12.5275C3.55688 12.5275 3.38678 12.0989 3.72699 11.0605C3.88162 10.5989 3.95894 10.5495 4.54657 10.5495C4.99503 10.5495 5.38162 10.4176 5.73729 10.1704C6.03111 9.95609 6.32492 9.80774 6.41771 9.85719C6.49503 9.90664 6.47956 9.97257 6.37132 10.022Z" fill="black"/>
</svg>
