<svg width="15" height="15" viewBox="0 0 15 15" fill="none" xmlns="http://www.w3.org/2000/svg">
<path d="M9.87681 1.30753C9.72512 1.4098 9.60714 1.55753 9.60714 1.63707C9.60714 1.71662 9.4386 1.77344 9.23636 1.77344C8.81501 1.76207 8.74759 2.11435 9.01726 2.72798L9.15209 3.01207L8.71388 2.73935C7.82063 2.18253 7.46669 2.67116 8.19141 3.48935C8.46108 3.80753 8.57905 4.06889 8.51164 4.21662C8.39366 4.44389 8.37681 4.43253 8.07343 4.09162C7.82063 3.80753 7.65209 3.73935 7.2813 3.77344C6.624 3.81889 6.53973 4.43253 7.14647 4.7848C7.87119 5.20526 8.09029 5.50071 7.9386 5.86435C7.78692 6.27344 7.5004 6.19389 7.5004 5.75071C7.5004 5.17116 7.01164 5.11435 6.27006 5.60298C5.91613 5.83026 5.54534 6.02344 5.44422 6.02344C4.9386 6.02344 4.85433 6.35298 5.29254 6.62571C5.86557 6.97798 5.84872 7.02344 5.124 7.22798C4.66894 7.35298 4.55096 7.44389 4.63523 7.61435C4.68579 7.72798 4.63523 7.93253 4.53411 8.05753C4.19703 8.4098 4.61838 8.67116 5.42737 8.60298C5.7813 8.56889 6.06782 8.59162 6.06782 8.64844C6.06782 8.70526 6.27006 8.81889 6.50602 8.88707C6.89366 9.01207 6.92737 9.06889 6.82624 9.42116C6.69141 9.9098 6.69141 9.9098 6.33748 9.81889C6.13523 9.76207 6.06782 9.6598 6.13523 9.51207C6.33748 8.95526 5.64647 8.69389 4.9049 9.04616C4.68579 9.14844 4.34872 9.23935 4.14647 9.25071C3.87681 9.26207 3.79254 9.34162 3.79254 9.56889C3.77568 9.75071 3.69141 9.94389 3.57343 10.0234C3.01726 10.3984 3.57343 10.8643 4.43299 10.7621C5.52849 10.6484 6.25321 11.3189 6.01726 12.2053C5.76445 13.1257 5.74759 13.1598 5.47793 12.9098C5.27568 12.728 5.29254 12.6371 5.57905 12.2507C5.84872 11.8984 5.88242 11.7621 5.71388 11.6371C5.46108 11.4212 4.82063 11.4325 4.53411 11.6598C4.39928 11.7621 4.18018 11.8075 3.94422 11.7734C3.23636 11.6484 2.64647 12.0916 3.20265 12.3303C3.30377 12.3757 3.28692 12.478 3.16894 12.6143C2.81501 12.9893 3.28692 13.2166 4.23074 13.1484C5.3431 13.0575 5.61276 13.2734 5.46108 14.1371C5.35995 14.6712 5.39366 14.7734 5.61276 14.7734C5.79815 14.7734 5.94984 14.5348 6.15209 13.8984C6.30377 13.4098 6.45546 12.9553 6.48917 12.8757C6.52287 12.7962 6.87681 12.6825 7.2813 12.6143C7.68579 12.5348 8.124 12.4098 8.27568 12.3189C8.44422 12.2166 8.73074 12.1825 9.05096 12.228C9.4049 12.2734 9.64085 12.2393 9.82624 12.103C10.197 11.8643 10.1802 11.7848 9.77568 11.5348C9.50602 11.3757 9.45546 11.228 9.52287 10.7848C9.60714 10.2734 9.57343 10.2166 9.2195 10.1257C8.94984 10.0575 8.7813 9.89844 8.69703 9.6598C8.61276 9.31889 8.5622 9.29616 8.00602 9.34162C7.39928 9.38707 7.34872 9.34162 7.51726 8.9098C7.58467 8.73935 7.75321 8.67116 8.10714 8.67116C8.47793 8.67116 8.57905 8.71662 8.51164 8.83026C8.25883 9.2848 9.25321 9.60298 10.1802 9.36435C10.5004 9.2848 10.5341 8.87571 10.2476 8.79616C10.1128 8.77344 10.0116 8.48935 9.97793 8.11435C9.91051 7.09162 9.20265 6.63707 8.42737 7.10298C7.9386 7.39844 8.02287 7.13707 8.49478 6.83026C8.88242 6.58026 8.93299 6.58026 9.30377 6.75071C10.2307 7.19389 11.2083 6.79616 10.7532 6.1598C10.3993 5.67116 9.45546 5.67116 8.86557 6.14844C8.32624 6.58026 8.1577 6.52344 8.42737 5.97798C8.5622 5.67116 8.74759 5.55753 9.06782 5.51207C9.92737 5.38707 10.3656 5.17116 10.3656 4.88707C10.3656 4.51207 9.85995 4.45526 9.25321 4.76207C8.64647 5.06889 8.5622 5.05753 8.7813 4.73935C8.88242 4.58026 9.23636 4.43253 9.74197 4.31889C10.3319 4.19389 10.551 4.08026 10.5847 3.88707C10.6521 3.56889 10.2476 3.44389 9.67456 3.61435C8.94984 3.84162 9.25321 3.55753 10.1128 3.19389C11.0734 2.79616 11.2757 2.38707 10.5173 2.38707H10.0959L10.4161 2.10298C10.9892 1.61435 10.5004 0.898437 9.87681 1.30753ZM7.9049 4.38707C8.1577 4.77344 8.1577 4.7848 7.66894 4.63707C7.39928 4.55753 7.24759 4.42116 7.24759 4.25071C7.24759 3.9098 7.63523 4.00071 7.9049 4.38707ZM9.94422 4.86435C9.94422 5.0348 9.53973 5.22798 9.20265 5.22798C8.86557 5.22798 8.88242 5.20526 9.27006 5.00071C9.72512 4.76207 9.94422 4.71662 9.94422 4.86435ZM6.99478 5.93253C6.8431 6.4098 6.70827 6.50071 6.15209 6.50071C5.64647 6.50071 5.35995 6.36435 5.73074 6.27344C5.86557 6.23935 6.16894 6.06889 6.4049 5.88707C6.94422 5.46662 7.12961 5.47798 6.99478 5.93253ZM10.2813 6.23935C10.5173 6.55753 10.5004 6.59162 10.0791 6.59162C9.45546 6.59162 9.16894 6.42116 9.42175 6.20526C9.72512 5.95526 10.0622 5.97798 10.2813 6.23935ZM7.55096 6.61435C7.75321 6.7848 7.61838 7.38707 7.39928 7.38707C7.31501 7.38707 7.24759 7.29616 7.24759 7.18253C7.24759 7.08026 7.19703 6.87571 7.14647 6.72798C7.02849 6.45526 7.26445 6.38707 7.55096 6.61435ZM6.79254 6.89844C6.8431 6.95526 6.91051 7.17116 6.94422 7.38707C6.99478 7.77344 6.97793 7.7848 6.4386 7.75071C5.98355 7.71662 5.89928 7.75071 5.89928 7.94389C5.89928 8.20526 5.39366 8.43253 5.07343 8.30753C4.92175 8.23935 4.9386 8.18253 5.124 8.08026C5.32624 7.96662 5.3431 7.87571 5.20827 7.71662C5.07343 7.5348 5.10714 7.50071 5.37681 7.50071C5.5622 7.50071 5.86557 7.34162 6.06782 7.1598C6.42175 6.81889 6.6577 6.73935 6.79254 6.89844ZM9.4049 7.72798C9.4386 7.94389 9.52287 8.17116 9.60714 8.22798C9.69141 8.2848 9.69141 8.43253 9.57343 8.55753C9.4386 8.73935 9.45546 8.81889 9.67456 8.93253C9.92737 9.04616 9.92737 9.06889 9.69141 9.13707C9.27006 9.23935 8.91613 9.09162 9.03411 8.84162C9.16894 8.54616 8.84872 8.31889 8.35995 8.37571C7.85433 8.44389 7.68579 8.26207 7.9386 7.93253C8.52849 7.1598 9.32063 7.04616 9.4049 7.72798ZM7.24759 8.29616C7.24759 8.69389 6.96108 8.7848 6.59029 8.5348C6.10152 8.20526 6.15209 8.10298 6.74197 8.11435C7.07905 8.12571 7.24759 8.18253 7.24759 8.29616ZM5.62961 9.69389C5.61276 9.95526 5.59591 10.2166 5.57905 10.2848C5.5622 10.4212 3.87681 10.478 3.87681 10.3416C3.87681 10.2848 4.02849 10.1712 4.23074 10.0803C4.44984 9.97798 4.5004 9.88707 4.39928 9.83026C4.11276 9.71662 4.18018 9.54616 4.53411 9.54616C4.70265 9.54616 4.9386 9.46662 5.05658 9.37571C5.42737 9.06889 5.64647 9.18253 5.62961 9.69389ZM8.25883 9.94389C8.25883 10.1371 8.39366 10.2734 8.68018 10.3643C9.03411 10.4666 9.06782 10.5234 8.89928 10.728C8.79815 10.8643 8.69703 10.9893 8.69703 11.0234C8.68018 11.1143 8.41051 11.0348 8.14085 10.8416C7.9049 10.6939 7.85433 10.6939 7.56782 10.8643C6.87681 11.2848 6.70827 10.7734 7.33186 10.1143C7.82063 9.59162 8.25883 9.51207 8.25883 9.94389ZM6.4386 10.5234C6.42175 10.7053 6.35433 10.9325 6.30377 11.0234C6.13523 11.3303 5.88242 10.853 6.0004 10.4666C6.13523 10.0234 6.50602 10.0689 6.4386 10.5234ZM8.71388 11.3643C8.94984 11.3643 9.10152 11.4325 9.10152 11.5348C9.10152 11.6257 9.18579 11.7053 9.27006 11.7053C9.37119 11.7053 9.4386 11.7507 9.4386 11.8075C9.4386 11.9098 7.97231 11.8871 7.80377 11.7734C7.75321 11.7393 7.77006 11.5803 7.82063 11.4098C7.9049 11.1825 7.98917 11.1371 8.14085 11.2393C8.24197 11.3075 8.49478 11.3643 8.71388 11.3643ZM7.14647 11.3189C7.5004 11.4098 7.48355 11.6257 7.07905 11.9439L6.74197 12.2166L6.79254 11.7393C6.80939 11.4666 6.8431 11.2507 6.85995 11.2507C6.87681 11.2507 6.99478 11.2848 7.14647 11.3189ZM5.14085 12.2621C4.98917 12.4553 4.80377 12.5916 4.7195 12.5575C4.61838 12.5121 4.5004 12.5689 4.44984 12.6598C4.39928 12.7621 4.16332 12.8416 3.94422 12.8416C3.50602 12.8416 3.4386 12.728 3.74197 12.5234C3.87681 12.4325 3.87681 12.353 3.69141 12.2053C3.47231 12.0234 3.50602 12.0121 3.92737 12.0689C4.18018 12.103 4.38242 12.0803 4.38242 12.0234C4.38242 11.9666 4.44984 11.9439 4.53411 11.978C4.61838 12.0121 4.77006 11.9666 4.88804 11.8643C5.25883 11.5689 5.44422 11.8643 5.14085 12.2621Z" fill="black"/>
</svg>
