<svg width="15" height="15" viewBox="0 0 15 15" fill="none" xmlns="http://www.w3.org/2000/svg">
<path d="M4.75848 1.82459C3.5488 2.34818 3.0488 2.84346 2.95203 3.59346C2.87138 4.11705 2.77461 4.28686 2.51655 4.38592C1.95203 4.56988 1.00042 5.6029 0.871385 6.15478C0.500417 7.92365 1.59719 9.62176 3.12945 9.62176C3.50042 9.62176 3.51655 9.63592 3.30687 10.0038C2.24235 11.8859 3.95203 13.8104 6.29074 13.4001C7.14558 13.2586 7.06493 13.2586 8.30687 13.4425C10.7101 13.7821 12.4359 11.9991 11.5488 10.117C11.3069 9.63592 11.3069 9.62176 11.7424 9.53686C12.6294 9.36705 13.0811 9.15478 13.6133 8.6312C15.0488 7.23026 14.2424 4.73969 12.194 4.24441C11.9682 4.1878 11.8714 4.00384 11.823 3.60761C11.7424 2.94252 11.0165 1.9378 10.694 2.03686C10.5649 2.07931 10.5004 2.06516 10.5649 1.99441C10.7101 1.76799 9.53268 1.52742 8.823 1.62648C7.95203 1.73969 7.38751 1.73969 6.29074 1.62648C5.59719 1.56988 5.27461 1.59818 4.75848 1.82459ZM7.66171 2.58875C7.9359 2.58875 8.46816 2.54629 8.87138 2.48969C9.87138 2.33403 10.7101 2.80101 10.7746 3.56516C10.823 4.03214 10.7907 4.07459 10.2907 4.1595C9.37138 4.31516 8.08106 5.05101 7.79074 5.58875C7.46816 6.19724 7.40364 6.19724 7.03268 5.6595C6.88751 5.41893 6.67784 5.27742 6.58106 5.31988C6.46816 5.37648 6.45203 5.34818 6.51655 5.26327C6.67784 5.03686 5.51655 4.41422 4.72622 4.30101C3.90364 4.1878 3.74235 3.89063 4.11332 3.25384C4.48429 2.6312 5.19397 2.37648 6.29074 2.48969C6.77461 2.54629 7.40364 2.58875 7.66171 2.58875ZM12.2746 5.13592C13.2424 5.70195 13.6133 6.74912 13.1617 7.68309C12.6456 8.74441 11.6617 9.02743 9.96816 8.56044C8.62945 8.19252 8.5488 8.12176 9.25848 8.00856C9.91977 7.89535 10.2101 7.62648 10.1294 7.1878C10.0649 6.76327 9.5488 6.69252 8.85526 7.01799C8.35526 7.23026 8.323 7.23026 8.12945 7.00384C7.80687 6.60761 8.46816 5.84346 9.61332 5.27742C10.7585 4.72554 11.5004 4.68309 12.2746 5.13592ZM4.80687 5.17837C5.53268 5.43309 6.37138 6.12648 6.62945 6.67837C6.88751 7.23026 6.74235 7.30101 5.96816 7.00384C5.323 6.74912 5.30687 6.74912 4.96816 7.03214C4.58106 7.38592 4.66171 7.55573 5.4359 7.89535L6.00042 8.16422L5.24235 8.47554C4.5488 8.75856 2.67784 8.98497 2.83913 8.75856C2.87138 8.70195 2.75848 8.6029 2.56493 8.56044C2.14558 8.43309 1.77461 7.68309 1.77461 6.96139C1.77461 5.33403 3.11332 4.55573 4.80687 5.17837ZM7.71009 7.9095C7.77461 8.29158 7.50042 8.61705 7.27461 8.40478C7.06493 8.23497 7.25848 7.47082 7.48429 7.54158C7.58106 7.56988 7.69397 7.73969 7.71009 7.9095ZM9.62945 9.26799C10.6617 9.63592 11.1617 11.3057 10.4843 12.0699C9.9359 12.6784 8.0488 12.8765 7.56493 12.367C7.41977 12.2114 7.33913 12.2114 7.0488 12.3812C6.27461 12.8057 4.87138 12.6359 4.35526 12.0699C3.66171 11.2916 4.00042 10.0887 5.11332 9.48026C6.14558 8.90007 6.33913 8.92837 5.91977 9.60761C5.62945 10.0746 5.61332 10.1878 5.79074 10.3859C6.09719 10.7114 6.21009 10.6831 6.85526 10.1029C7.17784 9.81988 7.45203 9.62176 7.48429 9.63592C7.50042 9.66422 7.64558 9.87648 7.80687 10.0887C8.00042 10.3718 8.19397 10.4708 8.4359 10.4425C8.88751 10.3859 8.98429 9.86233 8.64558 9.4095C8.21009 8.82931 8.35526 8.81516 9.62945 9.26799Z" fill="black"/>
</svg>
