<svg width="15" height="15" viewBox="0 0 15 15" fill="none" xmlns="http://www.w3.org/2000/svg">
<path d="M5.92079 1.31719C5.38789 1.68385 5.13131 1.76719 4.79579 1.65052C3.65105 1.28385 2.0721 2.33385 2.28921 3.33385C2.38789 3.66719 2.28921 3.81719 1.89447 4.00052C0.78921 4.48385 0.512894 5.73385 1.22342 6.93385C2.01289 8.26719 3.31553 8.83385 5.605 8.83385C6.90763 8.83385 6.9471 8.85052 6.82868 9.20052C6.74974 9.41719 6.65105 9.98385 6.5721 10.4505C6.43395 11.4505 6.45368 11.4505 5.86158 10.9839C4.71684 10.0505 2.52605 9.70052 1.77605 10.3339C1.38131 10.6672 1.40105 10.9339 1.93395 11.6339C2.21026 12.0005 4.81553 13.1672 5.34842 13.1672C5.50631 13.1672 5.98 13.3172 6.39447 13.5172L7.16421 13.8672L8.66421 13.4172C11.9405 12.4339 14.0524 10.4339 12.1379 10.1339C10.9339 9.93385 9.78921 10.3505 7.71684 11.7339C7.48 11.8839 7.46026 11.7339 7.55895 10.7505C7.71684 9.13385 7.79579 9.00052 8.66421 9.00052C11.9011 9.00052 14.8221 6.36719 14.0326 4.16719C13.7366 3.30052 13.0063 2.66719 12.3353 2.66719C11.98 2.66719 11.8418 2.58385 11.8418 2.35052C11.8418 1.48385 10.1445 0.85052 9.09842 1.33385C8.8221 1.45052 8.64447 1.41719 8.38789 1.16719C7.83526 0.667187 6.74974 0.733853 5.92079 1.31719ZM8.15105 2.21719C8.50631 2.80052 8.88131 2.91719 8.88131 2.41719C8.88131 2.28385 9.03921 2.11719 9.23658 2.05052C10.3024 1.63385 11.5458 2.41719 11.0918 3.23385C10.8155 3.76719 10.9734 3.86719 11.6839 3.56719C12.2366 3.31719 12.2958 3.33385 12.7497 3.68385C13.9537 4.65052 12.9274 6.83385 10.855 7.70052C9.41421 8.31719 7.08526 8.41719 6.27605 7.91719C5.11158 7.18385 4.87474 6.31719 5.54579 5.38385C6.49316 4.10052 8.40763 4.21719 8.84184 5.56719C9.03921 6.20052 9.37474 6.16719 9.43395 5.50052C9.51289 4.78385 9.78921 4.50052 10.3813 4.50052C10.9142 4.50052 10.9932 4.58385 11.1511 5.35052C11.2892 6.00052 11.3484 6.06719 11.6247 5.91719C11.98 5.73385 11.8616 4.73385 11.4274 4.26719C10.9932 3.80052 9.76947 3.65052 9.33526 4.01719C9.17737 4.15052 8.96026 4.11719 8.52605 3.93385C7.51947 3.50052 6.31553 3.71719 5.28921 4.51719L4.63789 5.03385L3.90763 4.31719C3.05895 3.48385 2.96026 2.96719 3.59184 2.60052C4.18395 2.25052 4.40105 2.26719 5.0721 2.73385C5.72342 3.18385 6.21684 3.15052 5.92079 2.66719C5.76289 2.41719 5.84184 2.26719 6.33526 1.91719C7.16421 1.33385 7.6971 1.43385 8.15105 2.21719ZM3.71026 5.05052C4.22342 5.46719 4.34184 5.70052 4.34184 6.23385C4.34184 6.63385 4.51947 7.15052 4.75631 7.48385C5.24974 8.16719 5.17079 8.23385 4.16421 8.00052C2.15105 7.55052 0.966841 5.65052 2.17079 4.81719C2.36816 4.66719 2.48658 4.48385 2.40763 4.43385C1.97342 4.05052 3.17737 4.63385 3.71026 5.05052ZM4.93395 11.7005C5.94053 12.2505 5.88131 12.2505 4.30237 11.6339C3.67079 11.3839 3.15763 11.1339 3.15763 11.0839C3.15763 10.9005 4.00631 11.2005 4.93395 11.7005Z" fill="currentColor"/>
</svg>
