<svg width="15" height="15" viewBox="0 0 15 15" fill="none" xmlns="http://www.w3.org/2000/svg">
<path d="M6.27308 0.962474C4.42692 1.58512 2.04712 3.84927 1.83077 5.19361C1.81635 5.33512 1.75865 5.50493 1.70096 5.58983C1.58558 5.77379 1.54231 6.25493 1.57115 7.10398C1.58558 8.0521 2.22019 8.43417 4.23942 8.73134C5.03269 8.84455 5.71058 8.95776 5.725 8.97191C5.75385 9.00021 5.66731 9.33983 5.55192 9.75021C5.42212 10.1464 5.36442 10.5285 5.40769 10.5993C5.45096 10.67 5.40769 10.7549 5.33558 10.7832C5.03269 10.8823 4.975 12.8493 5.26346 13.1606C5.86923 13.8257 8.43654 14.1229 9.56154 13.6559C10.1817 13.4012 10.701 12.8917 10.6144 12.637C10.5712 12.5379 10.6 12.453 10.6721 12.453C10.7587 12.453 10.8163 12.3115 10.8163 12.1276C10.8163 11.8729 10.7875 11.8587 10.6721 12.0285C10.5567 12.1842 10.5423 12.1559 10.6 11.8729C10.6577 11.6747 10.5567 11.0238 10.3981 10.4295C10.0087 9.01436 9.96538 9.09927 10.9317 8.98606C13.6721 8.67474 14.5952 7.07568 13.3837 4.74078C12.9942 3.97663 12.8067 3.76436 12.6048 3.79266C12.3885 3.82096 12.374 3.80681 12.5327 3.69361C12.8067 3.52379 11.6962 2.12285 10.8163 1.54266C9.54711 0.707757 7.70096 0.481342 6.27308 0.962474ZM8.94135 1.69832C9.05673 1.76908 9.05673 1.91059 8.94135 2.17946C8.59519 3.08512 10.1096 4.21719 11.1625 3.82096C11.4221 3.73606 11.5231 3.62285 11.451 3.50964C11.3788 3.38229 11.4221 3.39644 11.5952 3.52379C12.201 4.00493 12.9654 5.71719 13.0087 6.6653C13.0375 7.54266 12.8788 7.62757 11.5808 7.4153C9.33077 7.07568 6.475 7.03323 4.45577 7.3021C2.29231 7.58512 2.23462 7.57096 2.39327 6.50964C2.5375 5.47663 2.82596 4.91059 3.12885 5.06625C3.27308 5.137 3.51827 5.17946 3.67692 5.1653C3.83558 5.15115 4.10962 5.137 4.28269 5.12285C4.45577 5.1087 4.85962 4.85398 5.19135 4.55681C5.69615 4.07568 5.76827 3.93417 5.76827 3.35398C5.76827 3.00021 5.71058 2.66059 5.62404 2.61813C5.37885 2.47663 5.46538 2.33512 5.95577 2.0521C6.64808 1.64172 8.49423 1.42946 8.94135 1.69832ZM10.1385 2.137C10.5135 2.33512 11.249 2.98606 11.249 3.12757C11.249 3.39644 10.6288 3.39644 10.1817 3.12757C9.92211 2.97191 9.67692 2.8587 9.64808 2.887C9.61923 2.9153 9.57596 2.73134 9.56154 2.46247C9.51827 1.95304 9.63365 1.88229 10.1385 2.137ZM5.07596 3.25493C5.14808 3.76436 4.51346 4.50021 3.93654 4.55681C3.17212 4.61342 3.12885 4.57096 3.44615 4.06153C3.60481 3.79266 3.69135 3.52379 3.63365 3.46719C3.57596 3.39644 3.60481 3.38229 3.67692 3.43889C3.76346 3.48134 4.05192 3.33983 4.32596 3.11342C4.90288 2.64644 4.98942 2.67474 5.07596 3.25493ZM7.6 8.19361C7.6 8.33512 7.51346 8.43417 7.4125 8.39172C7.32596 8.36342 7.21058 8.44832 7.18173 8.60398C7.06635 9.00021 7.49904 8.94361 8.04712 8.46247C8.92692 7.71247 9.07115 7.86813 9.53269 10.1181C10.0952 12.8351 9.97981 13.0332 7.975 13.0332C5.66731 13.0332 5.56635 12.8776 6.27308 9.93417C6.56154 8.74549 7.67212 7.28795 7.6 8.19361Z" fill="currentColor"/>
<path d="M7.10975 3.97594C6.38859 4.24481 6.11456 5.22123 6.63379 5.77311C7.54244 6.72123 9.04244 5.90047 8.66744 4.66934C8.56648 4.32972 8.40783 4.1033 8.27802 4.1033C8.16263 4.1033 8.09052 4.0467 8.14821 3.97594C8.23475 3.82028 7.54244 3.82028 7.10975 3.97594ZM8.22033 5.03727C8.22033 5.61745 7.41263 5.85802 7.09533 5.37689C6.86456 5.00896 7.0809 4.57028 7.52802 4.49953C7.96071 4.42877 8.22033 4.62689 8.22033 5.03727Z" fill="currentColor"/>
<path d="M10.6585 5.32153C10.4278 5.60455 10.6441 6.00078 11.0624 6.05738C11.4662 6.11398 11.6104 5.68946 11.3076 5.36398C11.0047 5.03851 10.9037 5.02436 10.6585 5.32153Z" fill="currentColor"/>
<path d="M3.9078 6.19766C3.82126 6.36747 3.74914 6.63634 3.76357 6.8203C3.76357 7.06087 3.82126 7.01841 3.97991 6.59388C4.19626 5.98539 4.15299 5.74483 3.9078 6.19766Z" fill="currentColor"/>
<path d="M8.65234 9.24116C8.65234 9.60908 8.71004 9.90625 8.76773 9.90625C8.89754 9.90625 8.88311 8.80248 8.73888 8.67512C8.69561 8.61851 8.65234 8.88738 8.65234 9.24116Z" fill="currentColor"/>
</svg>
