<svg width="15" height="15" viewBox="0 0 15 15" fill="none" xmlns="http://www.w3.org/2000/svg">
<path d="M7.19489 1.05411C6.37544 1.39195 5.41711 2.7433 5.41711 3.56762C5.41711 4.13519 5.66711 4.40546 6.38933 4.60816C7.01433 4.79735 7.01433 4.78384 6.73656 5.56762C6.11156 7.36492 6.08378 7.70276 6.45878 8.40546C6.70878 8.86492 6.77822 9.13519 6.681 9.28384C6.50044 9.62167 6.16711 9.60816 6.16711 9.27032C6.181 9.08113 6.11156 9.00005 5.94489 9.02708C5.81989 9.04059 5.681 9.00005 5.62544 8.91897C5.58378 8.83789 5.62544 8.82438 5.75044 8.86492C6.00044 8.95951 6.056 8.71627 5.83378 8.58113C5.65322 8.47303 5.20878 7.60816 5.08378 7.13519C5.00044 6.79735 5.02822 6.75681 5.306 6.81086C5.77822 6.87843 5.97267 6.66222 5.97267 6.05411C5.97267 4.39195 3.95878 3.29735 2.59767 4.21627C1.91711 4.68924 1.02822 6.89194 1.51433 6.89194C1.61156 6.89194 1.65322 6.946 1.61156 7.01357C1.50044 7.17573 1.86156 7.29735 2.44489 7.29735C2.98656 7.29735 2.95878 7.27032 3.16711 8.56762C3.27822 9.27032 3.41711 9.62167 3.73656 10.0136C4.09767 10.446 4.16711 10.6352 4.15322 11.2433C4.15322 11.7838 4.12544 11.8919 4.02822 11.6757C3.86156 11.2568 3.02822 10.6757 2.61156 10.6757C2.056 10.6757 2.01433 11.0406 2.54211 11.2974C2.98656 11.5271 3.06989 11.6217 3.50044 12.3379C3.69489 12.6757 3.81989 12.7298 4.431 12.7703C4.81989 12.7974 5.13933 12.7703 5.13933 12.7163C5.13933 12.5946 5.56989 12.6082 5.79211 12.7433C5.94489 12.8379 6.15322 12.6487 6.29211 12.2703C6.34767 12.1352 6.48656 12.0271 6.61156 12.0271C6.77822 12.0271 6.806 12.0676 6.69489 12.2028C6.59767 12.3109 6.58378 12.446 6.681 12.5676C6.79211 12.7433 6.83378 12.7433 7.00044 12.5271C7.19489 12.2838 7.44489 12.2028 7.29211 12.4325C7.12544 12.7028 7.47267 12.5541 7.69489 12.2703C7.86156 12.0541 7.90322 12.0406 7.86156 12.1892C7.81989 12.3244 7.86156 12.4595 7.94489 12.5136C8.02822 12.5676 8.056 12.5541 8.01433 12.4865C7.97267 12.4055 8.056 12.2703 8.20878 12.1892C8.431 12.0541 8.48656 12.0541 8.45878 12.1892C8.37544 12.7974 8.681 12.8649 9.26433 12.3784C9.58378 12.1082 9.61156 12.0271 9.45878 11.8379C9.19489 11.5271 9.47267 10.9325 10.2921 10.0541C10.6532 9.67573 11.0143 9.13519 11.1116 8.86492C11.1949 8.59465 11.3338 8.37843 11.4032 8.37843C11.7504 8.37843 11.3477 9.58113 10.7366 10.3514C10.4588 10.7298 10.2227 11.2028 10.181 11.5001C10.1393 11.7838 9.98656 12.1352 9.83378 12.2974C9.556 12.5946 9.59767 12.8379 9.94489 12.8379C10.2366 12.8379 10.9727 12.0271 10.9727 11.7163C10.9727 11.5676 11.1949 11.1082 11.4588 10.6757C11.7227 10.2433 12.0282 9.66222 12.1393 9.37843C12.2366 9.08113 12.3477 8.78384 12.3754 8.71627C12.4032 8.63519 12.5004 8.59465 12.5977 8.62167C12.6949 8.6487 12.7782 8.60816 12.7782 8.54059C12.7782 8.3514 13.306 8.2433 13.3754 8.43249C13.4727 8.71627 13.7782 7.946 13.7782 7.39194C13.7643 6.22978 13.0143 5.27032 12.0977 5.27032C11.4866 5.27032 10.2366 5.83789 9.88933 6.28384C9.25045 7.08113 9.34767 7.48654 10.3616 8.05411C10.7088 8.25681 10.4449 8.83789 9.65322 9.59465L9.04211 10.1757L9.08378 9.58113C9.11156 9.25681 9.04211 8.59465 8.931 8.10816C8.56989 6.48654 8.88933 4.59465 9.45878 4.93249C9.52822 4.97303 9.72267 4.946 9.88933 4.8514C11.1116 4.22978 10.8616 2.3514 9.41711 1.31086C9.01433 1.01357 7.65322 0.864918 7.19489 1.05411ZM9.02822 1.91897C9.79211 2.43249 10.3199 3.8514 9.84767 4.13519C9.33378 4.43249 6.20878 3.98654 6.13933 3.59465C6.056 3.20276 6.38933 2.59465 6.95878 2.09465C7.62544 1.51357 8.31989 1.45951 9.02822 1.91897ZM4.681 4.89195C5.16711 5.32438 5.47267 5.946 5.306 6.10816C5.22267 6.18924 4.73656 6.29735 4.20878 6.3514C3.69489 6.40546 3.00044 6.50005 2.681 6.55411C2.00044 6.67573 1.931 6.55411 2.29211 5.72978C2.806 4.52708 3.87544 4.1487 4.681 4.89195ZM8.11156 5.946C7.97267 7.22978 7.97267 7.446 8.19489 8.45951C8.38933 9.3514 8.20878 10.7838 7.84767 11.1217C7.76433 11.2163 7.70878 11.3784 7.73656 11.4865C7.77822 11.6217 7.73656 11.6082 7.63933 11.446C7.556 11.3244 7.52822 11.1487 7.56989 11.0811C7.61156 11.0001 7.59767 10.946 7.52822 10.946C7.47267 10.946 7.33378 11.1622 7.22267 11.419C7.02822 11.919 6.88933 12.0001 6.72267 11.7298C6.66711 11.6352 6.681 11.6217 6.77822 11.6757C6.87544 11.7298 6.95878 11.5811 7.01433 11.2568C7.06989 10.973 7.19489 10.446 7.306 10.0811C7.56989 9.16222 7.556 8.66222 7.22267 8.13519C6.86156 7.56762 6.87544 7.37843 7.29211 6.2433C7.48656 5.72978 7.63933 5.21627 7.63933 5.09465C7.63933 4.95951 7.75044 4.89195 7.931 4.90546C8.19489 4.91897 8.20878 4.97303 8.11156 5.946ZM13.056 7.25681C13.056 8.00005 12.9449 8.04059 11.9032 7.72978C11.431 7.58113 10.8754 7.41897 10.6671 7.37843C9.83378 7.20276 10.4588 6.31086 11.6254 6.00005C12.2921 5.82438 12.2921 5.83789 12.681 6.25681C12.9588 6.56762 13.056 6.82438 13.056 7.25681ZM4.48656 7.82438C4.61156 8.25681 4.86156 8.79735 5.04211 9.00005C6.13933 10.2703 6.306 12.1082 5.33378 11.919C5.02822 11.8649 5.00044 11.7974 5.00044 11.0811C5.00044 10.473 4.931 10.2163 4.65322 9.8514C3.66711 8.51357 3.41711 7.05411 4.181 7.02708C4.22267 7.02708 4.36156 7.39194 4.48656 7.82438Z" fill="black"/>
<path d="M11.3751 11.7426C10.7084 12.3642 10.5695 12.6885 10.9306 12.7966C11.1251 12.8642 12.9306 11.3507 12.8334 11.202C12.639 10.8912 12.0556 11.1074 11.3751 11.7426Z" fill="black"/>
</svg>
