<svg width="15" height="15" viewBox="0 0 15 15" fill="none" xmlns="http://www.w3.org/2000/svg">
<path d="M5.86626 1.08191C4.36626 1.31387 3.07418 2.30356 1.88606 4.1283C1.292 5.05614 0.831606 6.37057 0.935566 6.81902C0.98012 6.97366 0.950417 7.08191 0.87616 7.02005C0.697942 6.91181 0.697942 6.92727 0.965269 7.83964C1.20289 8.67469 1.64844 9.2314 1.94547 9.03036C2.04943 8.96851 2.09398 8.98397 2.03458 9.07676C1.93062 9.26232 2.62864 9.63346 2.83656 9.50975C2.91081 9.44789 2.97022 9.49428 2.97022 9.5716C2.97022 9.66438 3.07418 9.7417 3.19299 9.7417C3.46032 9.7417 3.46032 9.71078 3.20784 10.484C2.85141 11.5355 2.95537 11.8912 3.71279 12.3087C5.7326 13.4067 9.7722 13.0819 10.3217 11.7829C10.396 11.5974 10.5148 11.4427 10.5742 11.4427C10.7375 11.4427 10.7227 10.7005 10.5593 10.0974C10.4257 9.63346 10.4405 9.58707 10.9009 9.43243C11.391 9.26232 12.0742 8.59737 12.5197 7.85511C13.0247 7.02005 12.7276 5.52005 11.7771 3.98913C10.2474 1.54583 8.49497 0.679848 5.86626 1.08191ZM8.99992 2.16438C10.6336 2.99944 12.2524 5.98397 11.8217 7.39119C11.4207 8.67469 9.66824 9.185 6.08903 9.07676C3.54943 9.0149 2.89596 8.86026 2.18309 8.19531C0.742497 6.84995 3.04448 2.6283 5.61378 1.91696C6.59398 1.65408 8.19794 1.76232 8.99992 2.16438ZM4.69299 10.1438C4.61873 10.3448 4.64844 10.3603 4.7821 10.2365C4.88606 10.1592 5.61378 10.0819 6.38606 10.0819C7.15834 10.0974 8.18309 10.051 8.64349 9.98913C9.38606 9.89634 9.50487 9.91181 9.63854 10.1902C10.3069 11.4737 8.88111 12.3551 6.38606 12.1695C4.11378 12.0149 3.34151 11.2262 4.38111 10.1592C4.69299 9.83449 4.8118 9.81902 4.69299 10.1438Z" fill="black"/>
<path d="M4.95938 3.27811C4.54354 3.63378 4.46928 3.95852 4.87027 3.72656C5.47918 3.35543 5.83562 2.9843 5.56829 2.9843C5.43463 2.9843 5.1673 3.12347 4.95938 3.27811Z" fill="black"/>
<path d="M8.68799 7.26818C8.45036 7.5156 8.287 7.74756 8.33155 7.79395C8.40581 7.87127 9.35631 7.00529 9.35631 6.86612C9.35631 6.69601 9.10383 6.85065 8.68799 7.26818Z" fill="black"/>
<path d="M10.708 11.7364C10.2773 12.1539 10.0843 12.4941 10.3813 12.3086C10.4556 12.2467 10.5447 12.2931 10.5744 12.3859C10.6486 12.6024 11.1684 12.3086 11.4061 11.891C11.7328 11.3498 11.2278 11.2261 10.708 11.7364Z" fill="black"/>
<path d="M1.85694 11.7682C1.69357 12.2785 2.31733 12.8198 2.59951 12.4332C2.71832 12.2631 2.85198 12.2167 2.98565 12.294C3.10446 12.3713 3.0302 12.2321 2.83713 12.0156C2.62921 11.7837 2.43614 11.629 2.40644 11.6754C2.36189 11.7218 2.24307 11.6754 2.13911 11.5826C2.00545 11.4744 1.93119 11.5208 1.85694 11.7682Z" fill="black"/>
<path d="M11.7629 11.845C11.4064 12.1079 11.3173 12.5254 11.6441 12.5254C12.0153 12.5254 12.6688 11.8759 12.446 11.7367C12.1787 11.5512 12.149 11.5666 11.7629 11.845Z" fill="black"/>
</svg>
