<svg width="15" height="15" viewBox="0 0 15 15" fill="none" xmlns="http://www.w3.org/2000/svg">
<path d="M6.71272 1.15046C6.26272 1.35594 6.05022 2.65046 6.37522 3.32854C6.48772 3.59566 6.35022 3.70868 6.17522 3.48265C6.12522 3.41073 5.67522 3.20525 5.17522 3.02032C3.08772 2.21895 1.93772 2.93813 3.52522 4.05799C3.81272 4.2532 4.02522 4.42785 3.98772 4.4484C3.96272 4.45868 3.61272 4.56142 3.21272 4.67443C0.875223 5.30114 -0.0247771 7.60251 1.27522 9.68813C1.77522 10.51 2.47522 11.26 3.68772 12.2566C6.78772 14.8251 9.21272 14.558 12.0377 11.332C13.0377 10.2018 13.8252 8.16758 13.7252 6.99635C13.6127 5.7121 12.5627 4.61279 11.1877 4.36621C10.3127 4.20183 10.3252 4.22237 10.8502 3.84224C11.7002 3.24635 11.8502 2.52717 11.1877 2.28059C10.3252 1.95183 9.05022 2.49635 8.47522 3.43128L8.28772 3.72922L8.02522 2.85594C7.58772 1.35594 7.23772 0.903882 6.71272 1.15046ZM7.41272 3.13333C7.62522 4.00662 7.61272 4.06827 7.32522 3.9758C7.07522 3.89361 6.87522 3.25662 6.87522 2.5169C6.87522 1.6847 7.13772 1.98265 7.41272 3.13333ZM10.8752 2.85594C10.8752 3.06142 9.45022 4.10936 9.16272 4.10936C8.78772 4.10936 8.80022 4.02717 9.27522 3.55457C9.85022 2.97922 10.8752 2.53744 10.8752 2.85594ZM4.10022 3.27717C6.35022 4.19155 6.60022 4.35594 5.48772 4.22237C4.83772 4.14018 3.62522 3.55457 3.62522 3.32854C3.62522 3.16416 3.78772 3.14361 4.10022 3.27717ZM9.56272 4.77717C11.4627 4.99292 11.9877 5.2395 12.5002 6.13333C13.5627 7.9621 11.5877 11.6607 8.86272 12.9758C7.40022 13.6744 6.21272 13.3559 4.26272 11.7326C2.35022 10.1505 1.50022 8.87648 1.50022 7.60251C1.50022 6.10251 2.65022 5.27032 5.25022 4.90046C7.28772 4.60251 7.95022 4.58196 9.56272 4.77717Z" fill="black"/>
<path d="M6.62552 6.06191C6.45052 6.31876 6.56302 6.64752 6.87552 6.78109C7.18802 6.91465 7.40052 6.67835 7.35052 6.24684C7.30052 5.82561 6.85052 5.71259 6.62552 6.06191Z" fill="black"/>
<path d="M9.48733 6.1017C9.18733 6.62568 9.71233 7.25239 10.0873 6.82088C10.3623 6.51266 10.2498 5.91677 9.91233 5.87568C9.71233 5.85513 9.58733 5.91677 9.48733 6.1017Z" fill="black"/>
<path d="M3.52457 6.31791C3.21207 6.88298 3.44957 7.48915 3.91207 7.33504C4.36207 7.20148 4.28707 6.06106 3.83707 6.06106C3.73707 6.06106 3.59957 6.17408 3.52457 6.31791Z" fill="black"/>
<path d="M8.21188 7.99324C7.96188 8.23982 7.86188 8.63023 8.01188 8.85625C8.28688 9.28776 8.74938 8.93845 8.74938 8.29119C8.74938 7.88023 8.48688 7.73639 8.21188 7.99324Z" fill="black"/>
<path d="M5.27476 8.03421C5.07476 8.1986 5.08726 8.75339 5.28726 8.97942C5.69976 9.44175 6.29976 8.80476 5.97476 8.24996C5.78726 7.93147 5.51226 7.83901 5.27476 8.03421Z" fill="black"/>
<path d="M10.9882 8.15668C10.8132 8.45462 10.9382 8.9375 11.1757 8.9375C11.6007 8.9375 11.8507 8.1875 11.4882 8.00257C11.2132 7.85873 11.1257 7.88955 10.9882 8.15668Z" fill="black"/>
<path d="M3.52567 8.85609C3.08817 9.29787 3.61317 10.5513 4.06317 10.1506C4.35067 9.90403 4.37567 9.41088 4.12567 9.06157C3.86317 8.70198 3.72567 8.66088 3.52567 8.85609Z" fill="black"/>
<path d="M9 10.1603C8.8125 10.4685 8.85 10.8384 9.1125 11.1055L9.3375 11.3418L9.525 11.0849C9.8375 10.6843 9.9 10.3041 9.675 10.1295C9.4125 9.91371 9.1625 9.92399 9 10.1603Z" fill="black"/>
<path d="M6.45091 10.4996C6.22591 10.7667 6.18841 11.229 6.37591 11.5167C6.68841 11.979 7.32591 11.527 7.21341 10.9311C7.08841 10.2941 6.77591 10.1194 6.45091 10.4996Z" fill="black"/>
<path d="M7.56198 12.143C7.39948 12.5539 7.43698 12.6875 7.73698 12.6875C8.08698 12.6875 8.32448 12.4307 8.21198 12.1841C8.12448 11.9889 7.63698 11.958 7.56198 12.143Z" fill="black"/>
</svg>
