<svg width="15" height="15" viewBox="0 0 15 15" fill="none" xmlns="http://www.w3.org/2000/svg">
<path d="M6.05754 1.28298C5.80369 1.39153 5.43446 1.63824 5.23831 1.82574C4.96138 2.08232 4.70754 2.21061 4.19984 2.32903C3.20754 2.54614 2.5383 3.2468 2.5383 4.06588C2.5383 4.32245 2.446 4.47048 2.19215 4.66785C1.25754 5.38824 1.08446 7.01653 1.90369 7.59877C2.05369 7.70732 2.07677 7.83561 2.01907 8.19088C1.89215 8.95074 2.46907 9.82903 3.346 10.2139C3.77292 10.4014 5.06523 10.431 5.19215 10.2632C5.23831 10.1942 5.34215 10.2336 5.46907 10.3521C5.58446 10.4507 5.91907 10.6382 6.23061 10.7468C6.86523 10.9836 6.84215 10.8455 6.46138 12.4836C6.196 13.6777 6.14984 13.6284 7.546 13.5988L8.71138 13.5692L8.69984 13.2238C8.69984 13.0363 8.63061 12.5922 8.56138 12.2369C8.26138 10.7567 8.2383 10.885 8.73446 10.7073C8.97677 10.6185 9.31138 10.431 9.496 10.283C9.78446 10.0461 9.84215 10.0363 10.1883 10.1448C10.4075 10.2139 10.7422 10.2632 10.9498 10.2632C11.7922 10.2632 13.0729 9.36522 12.8768 8.92114C12.8422 8.83232 12.8652 8.80272 12.9229 8.83232C12.9922 8.86193 13.0383 8.83232 13.0383 8.75338C13.0383 8.67443 13.0729 8.46719 13.1191 8.28956C13.1652 8.06259 13.1537 7.98364 13.0614 8.03298C12.9922 8.06259 12.8998 8.04285 12.8537 7.98364C12.8075 7.90469 12.8191 7.89482 12.8998 7.9343C12.9806 7.97377 13.1422 7.81588 13.3037 7.52969C14.0422 6.28627 13.7883 5.1218 12.6575 4.53956C12.3691 4.38167 12.3114 4.29285 12.2768 3.8389C12.1729 2.79285 11.1691 1.97377 9.98061 1.97377C9.55369 1.97377 9.41523 1.92443 9.16138 1.68759C8.5383 1.08561 7.00369 0.888244 6.05754 1.28298ZM7.97292 1.69745C8.39984 1.82574 8.63061 1.98364 8.90754 2.37838C9.08061 2.60535 9.1383 2.62509 9.84215 2.58561C10.5922 2.54614 10.5922 2.54614 11.0652 2.95074C11.5268 3.34548 11.6191 3.59219 11.5383 4.19417C11.5268 4.30272 11.5037 4.46061 11.4922 4.53956C11.4922 4.61851 11.7345 4.79614 12.0575 4.9343C13.0729 5.36851 13.3268 6.32574 12.6575 7.19417C12.3806 7.53956 12.3575 7.65798 12.4152 8.16127C12.5537 9.42443 11.1922 10.135 10.0845 9.38495C9.7383 9.15798 9.41523 9.23693 9.2883 9.57245C9.196 9.81917 8.63061 10.1646 8.33061 10.1646C8.03061 10.1646 7.96138 9.98693 7.96138 9.2764C7.96138 8.78298 7.92677 8.67443 7.71907 8.58561C7.3383 8.40798 7.15369 8.62509 7.15369 9.26653C7.15369 10.3718 6.83061 10.5593 6.08061 9.89811L5.66523 9.54285L5.05369 9.69088C3.51907 10.056 2.296 9.09877 2.79215 7.92443C2.91907 7.62838 2.90754 7.57903 2.63061 7.33232C1.71907 6.51324 1.89215 5.32903 2.9883 4.94417C3.32292 4.82574 3.32292 4.80601 3.26523 4.28298C3.16138 3.41456 3.91138 2.76324 4.996 2.76324C5.45754 2.76324 5.52677 2.73364 5.65369 2.47706C5.99984 1.7468 7.00369 1.41127 7.97292 1.69745Z" fill="currentColor"/>
<path d="M6.86433 3.45496C6.70279 3.67206 6.52972 3.83982 6.48356 3.83982C5.96433 3.77075 5.30664 4.14575 5.30664 4.52075C5.30664 4.61943 5.46818 4.83654 5.66433 5.01417C5.96433 5.27075 6.01049 5.36943 5.94126 5.62601C5.77972 6.25759 6.67972 6.71154 7.19895 6.25759C7.36049 6.11943 7.41818 6.11943 7.72972 6.27733C8.30664 6.57338 8.69895 6.38588 8.7451 5.7839C8.76818 5.48785 8.87203 5.20167 9.01049 5.05364C9.46049 4.56022 9.16049 4.01746 8.37587 3.88917C8.07587 3.84969 7.96049 3.78061 7.96049 3.64246C7.96049 3.41548 7.56818 3.06022 7.32587 3.06022C7.23356 3.06022 7.02587 3.23785 6.86433 3.45496ZM7.55664 4.20496C7.64895 4.43193 7.72972 4.48127 7.93741 4.46154C8.49126 4.39246 8.62972 4.53061 8.26049 4.78719C7.94895 4.99443 7.93741 5.0339 8.06433 5.32996C8.22587 5.73456 8.22587 5.72469 8.05279 5.72469C7.97203 5.72469 7.77587 5.60627 7.60279 5.46811L7.30279 5.2214L7.00279 5.51746C6.65664 5.88259 6.62203 5.88259 6.54126 5.62601C6.50664 5.51746 6.52972 5.42864 6.57587 5.42864C6.81818 5.42864 6.71433 5.06351 6.40279 4.82667C5.99895 4.51088 6.06818 4.40233 6.63356 4.42206C7.00279 4.43193 7.04895 4.40233 7.11818 4.13588C7.19895 3.78061 7.3951 3.81022 7.55664 4.20496Z" fill="currentColor"/>
<path d="M9.78528 6.16799C9.24297 6.55285 9.1622 6.65154 9.13913 6.99693C9.10451 7.37193 9.45066 7.77654 9.70451 7.64825C9.75066 7.61864 9.7622 7.68772 9.72759 7.78641C9.69297 7.9147 9.75066 8.01338 9.9122 8.09233C10.2468 8.24035 10.8468 8.29956 10.8468 8.18114C10.8468 8.12193 10.9045 8.11206 10.9622 8.14167C11.0314 8.18114 11.1468 8.06272 11.2391 7.89496C11.3199 7.7272 11.516 7.52983 11.666 7.46075C12.1853 7.24364 12.1045 6.76009 11.4699 6.20746C10.7776 5.60549 10.5814 5.60549 9.78528 6.16799ZM10.7776 6.45417C10.8122 6.58246 10.9507 6.71075 11.0776 6.74035C11.366 6.79956 11.3776 7.10549 11.1007 7.17456C10.9853 7.1943 10.8468 7.31272 10.7891 7.42128C10.6276 7.71733 10.4199 7.74693 10.3276 7.50022C10.2814 7.3818 10.1199 7.25351 9.95836 7.1943C9.6122 7.08575 9.64682 6.76996 10.016 6.73049C10.1545 6.71075 10.2699 6.64167 10.2699 6.57259C10.2699 6.4443 10.5007 6.21733 10.6276 6.21733C10.6737 6.21733 10.743 6.32588 10.7776 6.45417Z" fill="currentColor"/>
<path d="M4.18855 6.58329C4.01547 6.63263 3.57701 7.43198 3.50778 7.81684C3.46163 8.04382 3.53086 8.12276 4.10778 8.43855C5.05394 8.96158 5.68855 8.79382 6.21932 7.87605C6.41547 7.5504 6.18471 7.16553 5.67701 6.97803C5.50394 6.91882 5.3424 6.83 5.30778 6.79053C5.14624 6.60303 4.47701 6.47474 4.18855 6.58329ZM4.99624 7.31355C5.03086 7.42211 5.15778 7.50105 5.29624 7.50105C5.58471 7.50105 5.63086 7.84645 5.36547 7.93526C5.27317 7.96487 5.1924 8.05369 5.1924 8.1425C5.1924 8.22145 5.08855 8.29053 4.96163 8.29053C4.83471 8.29053 4.73086 8.25105 4.73086 8.21158C4.73086 8.16224 4.60394 8.07342 4.4424 8.01421C4.11932 7.88592 4.06163 7.62934 4.32701 7.54053C4.41932 7.50105 4.50009 7.38263 4.50009 7.25434C4.50009 6.96816 4.90394 7.0175 4.99624 7.31355Z" fill="currentColor"/>
</svg>
