<svg width="15" height="15" viewBox="0 0 15 15" fill="none" xmlns="http://www.w3.org/2000/svg">
<path d="M5.92234 1.14749C4.55055 1.65619 3.49927 3.1301 3.64029 4.34315C3.73003 5.03445 4.10183 6.0388 4.34542 6.18228C4.57619 6.3388 4.49927 6.59967 4.17875 6.75619C4.01209 6.83445 3.66593 7.08228 3.40952 7.30402L2.94798 7.72141L2.51209 7.39532C2.28132 7.19967 2.03773 6.88662 1.98644 6.69097C1.79414 5.90836 1.37106 5.75184 1.43516 6.48228C1.47362 6.91271 1.43516 6.97793 1.19157 7.01706C0.832599 7.06923 0.589009 7.36923 0.691573 7.64315C0.768496 7.85184 1.06337 7.85184 1.55055 7.64315C1.67875 7.57793 1.90952 7.66923 2.15311 7.89097L2.55055 8.2301L2.29414 8.81706C1.78132 10.0562 2.11465 11.8823 3.05055 12.9388C4.65311 14.7388 8.58901 14.8953 10.73 13.2258C11.1275 12.9127 11.807 11.8953 11.8967 11.4779C12.0121 10.8649 11.9223 9.31271 11.7172 8.71271L11.4993 8.03445L11.8454 7.73445C12.089 7.52575 12.3582 7.43445 12.7429 7.43445C13.307 7.43445 13.6916 7.18662 13.5249 6.91271C13.4864 6.84749 13.2429 6.78228 12.9864 6.78228C12.6018 6.78228 12.5505 6.74315 12.6275 6.54749C12.9864 5.72575 12.5634 5.33445 12.2044 6.15619C11.8839 6.86054 11.3198 7.47358 11.1147 7.34315C11.0249 7.27793 10.7044 7.06923 10.4095 6.86054L9.85824 6.48228L10.1147 6.20836C10.4736 5.81706 10.7685 4.90401 10.7685 4.18662C10.7557 1.98228 8.14029 0.351841 5.92234 1.14749ZM8.2685 1.74749C9.74286 2.37358 10.4095 3.65184 9.99927 5.07358C9.40952 7.18662 5.73003 7.26488 4.49927 5.20402C3.35824 3.29967 6.07619 0.821406 8.2685 1.74749ZM7.10183 7.39532C7.74286 7.44749 8.07619 7.40836 8.65311 7.19967C9.48645 6.88662 9.65311 6.92575 10.3582 7.60402C11.1788 8.39967 11.5634 10.6823 11.0377 11.7127C10.1403 13.5127 7.01209 14.3084 4.78132 13.304C2.3967 12.2345 1.99927 9.19532 4.01209 7.51271C4.81978 6.84749 5.07619 6.76923 5.73003 7.06923C6.03773 7.21271 6.65311 7.35619 7.10183 7.39532Z" fill="black"/>
<path d="M5.69253 3.46869C5.52586 3.71652 5.51304 3.83391 5.62843 3.9513C5.82074 4.14696 6.34638 3.62522 6.24381 3.33826C6.12843 3.03826 5.93612 3.07739 5.69253 3.46869Z" fill="black"/>
<path d="M8.11527 3.48166C7.91015 3.55992 7.89733 4.12079 8.07681 4.23818C8.28194 4.36861 8.58963 4.04253 8.58963 3.7034C8.58963 3.4034 8.44861 3.33818 8.11527 3.48166Z" fill="black"/>
<path d="M5.84471 4.60432C5.63958 4.76084 5.63958 4.78693 5.81907 4.94345C6.16522 5.24345 7.39599 4.8391 7.0883 4.52606C6.94728 4.36954 6.07548 4.43476 5.84471 4.60432Z" fill="black"/>
<path d="M6.94878 5.64693C6.38468 5.82954 6.50006 6.05128 7.19237 6.10345C7.84622 6.14258 8.15391 5.98606 8.03852 5.68606C7.94878 5.45128 7.57699 5.43823 6.94878 5.64693Z" fill="black"/>
<path d="M6.43448 8.55542C6.04986 8.82933 6.06268 9.25977 6.4473 9.25977C6.81909 9.25977 7.24217 8.81629 7.1396 8.54237C7.03704 8.29455 6.79345 8.29455 6.43448 8.55542Z" fill="black"/>
<path d="M6.17812 10.8512C5.80633 11.2295 6.30633 11.7382 6.79351 11.4773C7.20377 11.2556 7.02428 10.6947 6.5371 10.6947C6.42171 10.6947 6.26787 10.7599 6.17812 10.8512Z" fill="black"/>
</svg>
