<svg width="15" height="15" viewBox="0 0 15 15" fill="none" xmlns="http://www.w3.org/2000/svg">
<path d="M7.02077 0.512931C6.86477 0.705238 6.78077 1.05139 6.74477 1.79498C6.72077 2.35908 6.66077 2.82062 6.61277 2.82062C6.57677 2.82062 6.36077 2.52575 6.13277 2.1796C5.56877 1.29498 4.89677 1.14114 4.72877 1.85908C4.63277 2.25652 5.20877 3.56421 5.76077 4.20524C6.19277 4.70524 6.18077 4.6796 5.88077 4.70524C5.48477 4.7437 4.82477 5.37191 4.53677 6.00011C4.21277 6.70524 4.17677 9.20524 4.46477 10.2437L4.63277 10.8206L4.11677 11.1155L3.60077 11.3975L3.16877 11.1283L2.73677 10.8591L2.22077 11.1283C1.62077 11.436 1.28477 11.8975 1.34477 12.3334C1.39277 12.7437 1.77677 12.795 1.90877 12.3975C2.19677 11.6027 2.66477 11.4745 3.21677 12.0514C3.62477 12.4616 3.87677 12.4488 4.09277 12.0258C4.38077 11.4488 5.26877 11.5129 5.80877 12.1668C6.12077 12.5386 6.19277 12.5129 6.79277 11.9232C7.54877 11.1796 8.62877 11.2052 8.80877 11.9873C8.90477 12.4104 9.07277 12.3975 9.48077 11.9232C9.93677 11.3975 10.4528 11.3975 10.8248 11.9232C11.1248 12.3719 11.4248 12.4104 11.8448 12.0514C12.2408 11.7181 12.4088 11.7309 12.8888 12.1155C13.3088 12.4616 13.4408 12.4232 13.4408 11.9745C13.4408 11.3334 12.5288 10.9616 11.8448 11.3463C11.5448 11.5129 11.4848 11.5001 11.0648 11.2052C10.7288 10.9488 10.5008 10.8847 10.1168 10.9232C9.70877 10.9488 9.61277 10.9232 9.66077 10.7693C9.68477 10.6668 9.74477 10.3975 9.78077 10.1924C9.82877 9.97447 10.0208 9.07703 10.2248 8.1796C10.5968 6.56421 10.5968 6.55139 10.3808 6.03857C10.2608 5.75652 10.0688 5.42319 9.94877 5.3078C9.73277 5.10267 9.74477 5.06421 10.2368 4.43601C10.8848 3.60267 11.0648 3.20524 11.0168 2.7437C10.9808 2.41037 10.9448 2.37191 10.5368 2.38473C10.1168 2.39755 10.1048 2.38473 10.2128 2.08985C10.8128 0.410366 9.15677 0.141136 8.46077 1.8078L8.23277 2.34626L8.07677 1.47447C7.87277 0.25652 7.51277 -0.0639925 7.02077 0.512931ZM9.84077 1.47447C9.84077 1.93601 8.38877 4.48729 8.13677 4.48729C7.87277 4.48729 7.93277 4.29498 8.70077 2.7437C9.34877 1.41037 9.44477 1.26934 9.67277 1.37191C9.76877 1.41037 9.84077 1.44883 9.84077 1.47447ZM7.56077 1.88473C7.56077 2.82062 7.40477 4.08985 7.30877 4.02575C7.09277 3.88473 7.23677 1.41037 7.45277 1.41037C7.51277 1.41037 7.56077 1.62832 7.56077 1.88473ZM6.15677 3.21806C7.02077 4.52575 7.00877 4.48729 6.75677 4.48729C6.63677 4.48729 6.40877 4.26934 6.24077 4.01293C5.00477 2.06421 4.93277 1.39755 6.15677 3.21806ZM10.4408 3.06421C10.4408 3.23088 9.24077 4.7437 9.12077 4.7437C8.82077 4.7437 8.95277 4.44883 9.55277 3.73088C10.1888 2.98729 10.4408 2.79498 10.4408 3.06421ZM8.34077 5.32062C9.00077 5.46165 9.25277 5.58985 9.51677 5.89755C10.0088 6.48729 9.94877 6.64114 9.21677 6.69242C8.73677 6.71806 8.56877 6.78216 8.54477 6.94883C8.48477 7.26934 8.89277 7.44883 9.34877 7.3078C9.74477 7.19242 9.80477 7.29498 9.64877 7.91037C9.56477 8.25652 8.80877 8.47447 7.95677 8.38473C7.38077 8.33344 7.32077 8.34626 7.32077 8.57703C7.32077 9.07703 8.36477 9.25652 9.16877 8.91037C9.37277 8.82062 9.38477 8.84627 9.32477 9.1155C9.27677 9.28216 9.20477 9.7437 9.16877 10.1283L9.09677 10.8463L8.11277 10.8334C7.21277 10.8334 7.08077 10.8719 6.68477 11.1924C6.26477 11.5386 6.22877 11.5386 5.86877 11.3463C5.26877 11.0129 4.76477 9.62832 5.31677 9.79498C6.04877 10.0386 6.48077 10.0386 6.55277 9.8078C6.67277 9.47447 6.30077 9.2437 5.67677 9.25652C5.00477 9.26934 4.92077 9.14114 4.92077 8.08985C4.92077 7.37191 4.94477 7.29498 5.13677 7.37191C6.18077 7.83344 6.72077 7.83344 6.72077 7.37191C6.72077 7.19242 6.21677 6.92319 5.84477 6.92319C4.96877 6.91037 4.86077 6.66678 5.43677 5.97447C6.09677 5.16678 6.87677 4.98729 8.34077 5.32062Z" fill="currentColor"/>
<path d="M4.12964 12.9474C3.84164 13.0756 3.64964 13.4602 3.82964 13.5884C4.10564 13.7679 5.22164 13.5243 5.25764 13.2807C5.34164 12.8705 4.72964 12.6782 4.12964 12.9474Z" fill="currentColor"/>
<path d="M9.84148 13.3706C9.52948 13.5373 9.42148 14.0501 9.69748 14.0245C9.76948 14.0116 10.0575 13.9988 10.3215 13.986C10.8735 13.9732 10.9575 13.7168 10.5375 13.4091C10.2135 13.1655 10.2255 13.1655 9.84148 13.3706Z" fill="currentColor"/>
<path d="M7.09182 13.7045C6.67182 14.1532 7.05582 14.6404 7.54782 14.2686C7.85982 14.0506 7.84782 13.5506 7.53582 13.4865C7.42782 13.4609 7.22382 13.5634 7.09182 13.7045Z" fill="currentColor"/>
</svg>
