<svg width="15" height="15" viewBox="0 0 15 15" fill="none" xmlns="http://www.w3.org/2000/svg">
<path d="M6.06323 2.60576C3.77709 3.21214 2.47588 5.52065 2.38552 9.14831L2.34937 10.4781L1.97889 10.51C1.1566 10.5845 0.234916 11.51 0.126483 12.3611C0.0541933 12.9249 0.180699 13.0419 0.62347 12.8292C1.10239 12.6164 1.17468 12.6164 1.17468 12.8504C1.17468 12.9675 1.256 13.1377 1.3554 13.2441C1.52708 13.4249 1.54516 13.4249 2.03311 13.1377C2.52106 12.8611 2.77407 12.8398 2.54817 13.1058C2.40359 13.276 2.41263 13.4036 2.57528 13.4036C2.64757 13.4036 2.71082 13.4462 2.71082 13.51C2.71082 13.7228 3.51504 13.627 3.71383 13.393L3.91263 13.159L3.84937 13.5526C3.81323 13.7653 3.82227 13.9355 3.86745 13.9355C4.0301 13.9355 4.77106 13.51 4.87949 13.3504C5.05118 13.1058 5.15962 13.159 5.13251 13.4781C5.1054 13.8292 5.40359 13.8717 5.94576 13.6058C6.19877 13.4781 6.25299 13.4781 6.32528 13.6058C6.38853 13.7334 6.45178 13.7334 6.71383 13.5845C7.18371 13.3185 7.40058 13.3398 7.18371 13.6164C6.93974 13.9355 7.07528 13.9781 7.49998 13.7228C7.75299 13.5738 7.9066 13.5313 7.94275 13.6058C7.98793 13.6802 8.11443 13.6696 8.35841 13.5632C8.88251 13.3504 9.00901 13.3611 8.82829 13.5951C8.73793 13.7015 8.67468 13.8185 8.67468 13.8611C8.67468 13.9462 9.23492 13.7441 9.34335 13.6164C9.47889 13.4568 9.66865 13.4887 9.66865 13.6802C9.66865 13.8079 9.72287 13.8398 9.87648 13.776C10.4096 13.5845 10.509 13.5845 10.4548 13.7653C10.3735 13.9994 10.4458 13.9781 10.9066 13.6696C11.2861 13.4036 11.4578 13.4887 11.1867 13.8079C10.997 14.0313 11.2048 13.9462 11.512 13.6696C11.8735 13.3398 12.0542 13.3185 11.9729 13.6164C11.8554 14.0526 12.6958 13.8611 13.1205 13.3504C13.256 13.1909 13.3464 13.0207 13.3193 12.9675C13.2921 12.9143 13.3012 12.776 13.3283 12.659C13.3825 12.4568 13.3825 12.4568 13.7168 12.659C14.1325 12.9249 14.2771 12.9249 14.2771 12.659C14.2771 12.393 13.997 11.7015 13.8885 11.7015C13.8434 11.7015 13.6626 11.5207 13.4909 11.3079C13.2018 10.9249 13.1566 10.9036 12.6235 10.9036H12.0632L12.0813 10.5845C12.0813 10.4036 12.1355 9.9781 12.1807 9.62704C12.2349 9.27597 12.253 8.6164 12.2349 8.14831L12.1897 7.31853L12.5512 6.95682C12.9307 6.57384 13.3735 5.64831 13.3735 5.24406C13.3735 4.24406 12.2078 3.65895 11.5934 4.36108L11.3223 4.68023L11.006 4.26533C9.95781 2.89299 7.75299 2.14831 6.06323 2.60576ZM8.62046 3.58448C9.76805 3.91427 10.3283 4.40363 10.9427 5.60576C11.4759 6.64831 11.4759 6.78661 10.9337 7.42491C10.1024 8.40363 9.24395 8.53129 8.56624 7.78661C8.26805 7.46746 8.04215 7.53129 8.04215 7.94619C8.04215 8.39299 8.25901 8.68023 8.73793 8.87172C9.63251 9.23342 10.4638 8.98874 11.1867 8.15895L11.5662 7.72278V8.35044C11.5662 9.05257 11.2861 10.4462 11.1054 10.7121C10.9608 10.9036 10.1927 10.8398 9.95781 10.6164C9.59636 10.2547 8.38552 10.5313 7.70781 11.127C7.40962 11.393 7.14757 11.4462 7.00299 11.2866C6.94877 11.2334 6.67769 11.0419 6.37949 10.8611C5.63853 10.4036 4.92468 10.3292 4.17468 10.6377C3.65058 10.8504 3.58733 10.8611 3.38853 10.7015C2.81925 10.2547 3.14455 6.76533 3.90359 5.37172C4.80721 3.69087 6.62347 2.99938 8.62046 3.58448Z" fill="currentColor"/>
<path d="M6.61401 5.23272C6.29775 5.60506 6.66823 6.78591 7.02064 6.5306C7.2104 6.3923 7.29172 5.64762 7.13811 5.31783C7.02967 5.08379 6.77666 5.04123 6.61401 5.23272Z" fill="currentColor"/>
<path d="M9.0722 5.21294C8.82822 5.32996 8.42159 5.90443 8.3493 6.24486C8.2228 6.79805 8.69268 6.8406 8.9728 6.28741C9.12641 5.96826 9.90352 5.38316 10.03 5.4789C10.1204 5.54273 10.2198 5.2555 10.1475 5.17039C10.0662 5.07464 9.28906 5.10656 9.0722 5.21294Z" fill="currentColor"/>
<path d="M9.60526 6.48787C9.3161 6.68999 9.26188 6.79638 9.30707 7.12616C9.32514 7.2751 9.46972 7.44531 9.58719 7.44531C9.73176 7.44531 10.3914 6.65808 10.3914 6.47723C10.3914 6.20063 9.99381 6.21127 9.60526 6.48787Z" fill="currentColor"/>
</svg>
