<svg width="15" height="15" viewBox="0 0 15 15" fill="none" xmlns="http://www.w3.org/2000/svg">
<path d="M2.67895 1.80599C2.46466 2.00043 2.35752 2.27821 2.30395 2.77821C2.27716 3.15321 2.17002 3.47266 2.08966 3.47266C1.68788 3.48654 0.629841 4.50043 0.321805 5.18099C-0.160338 6.26432 -0.0264089 7.56988 0.57627 7.81988C0.683413 7.86154 0.803948 8.15321 0.844127 8.45877C1.0852 10.3199 2.71913 12.3477 3.99145 12.3615C4.16556 12.3615 4.48698 12.4727 4.70127 12.5977L5.10306 12.8477L5.7727 12.0838C7.04502 10.6115 7.36645 9.22266 6.8977 7.15321C6.77716 6.61154 6.68341 5.83377 6.69681 5.4171C6.72359 3.95877 5.66556 3.00043 4.05841 3.01432C3.1477 3.02821 3.1477 3.02821 3.36198 2.37543C3.61645 1.63932 3.22806 1.31988 2.67895 1.80599ZM6.10752 6.62543C7.13877 9.1671 5.92002 12.1532 4.04502 11.6671C2.70573 11.3199 1.80841 10.1115 1.40663 8.09766C1.2727 7.44488 2.11645 6.93099 4.28609 6.33377C5.55841 5.98654 5.87984 6.02821 6.10752 6.62543Z" fill="currentColor"/>
<path d="M11.8129 6.75029C11.6522 6.8614 11.4245 7.13917 11.3174 7.37529C11.1701 7.66695 11.0094 7.77806 10.7549 7.77806C9.75043 7.77806 8.62543 8.97251 8.75936 9.88917C8.81293 10.2503 8.78615 10.5142 8.679 10.6531C8.43793 10.9586 8.47811 12.4864 8.74597 13.0003C9.09418 13.6808 9.89775 14.4864 10.0853 14.3475C10.179 14.2781 10.5004 14.1392 10.8085 14.0558C11.5451 13.8336 12.4022 12.9586 12.6165 12.1947C12.6969 11.8614 12.9111 11.4586 13.0853 11.292C13.7683 10.6114 13.4603 9.15306 12.4558 8.31973L11.9201 7.87529L12.4022 7.44473C13.1522 6.76417 12.6299 6.15306 11.8129 6.75029ZM11.0629 10.917C12.0942 11.2225 12.2281 11.3614 12.0406 11.9447C11.7594 12.8197 10.9826 13.4725 10.2058 13.4725C9.4424 13.4725 8.85311 11.9447 9.22811 10.917C9.40222 10.4864 9.58972 10.4864 11.0629 10.917Z" fill="currentColor"/>
</svg>
