<svg width="15" height="15" viewBox="0 0 15 15" fill="none" xmlns="http://www.w3.org/2000/svg">
<path d="M5.22993 3.00024C5.17386 3.0993 5.08975 3.8493 5.04769 4.6559L4.9776 6.11345L4.34675 5.23609C3.68788 4.30213 3.30937 4.00496 3.15517 4.25968C3.04302 4.42949 3.58975 5.2927 4.44489 6.31156C4.79535 6.73609 5.04769 7.17477 5.04769 7.38704C5.04769 7.58515 5.08975 7.78326 5.14582 7.82572C5.31404 7.99553 5.60844 7.61345 5.60844 7.23138C5.60844 6.96251 5.8047 6.65119 6.23928 6.22666C7.09442 5.39175 7.61311 4.61345 7.529 4.28798C7.48694 4.08987 7.29068 4.23138 6.54769 4.99553L5.60844 5.95779V4.47194C5.60844 3.071 5.49629 2.60402 5.22993 3.00024Z" fill="currentColor"/>
<path d="M9.85689 7.52759C9.80081 7.62664 9.7167 8.37664 9.67464 9.18325L9.60455 10.6408L8.97371 9.76344C8.31483 8.82947 7.93632 8.5323 7.78212 8.78702C7.66997 8.95683 8.2167 9.82004 9.07184 10.8389C9.42231 11.2634 9.67464 11.7021 9.67464 11.9144C9.67464 12.1125 9.7167 12.3106 9.77277 12.3531C9.941 12.5229 10.2354 12.1408 10.2354 11.7587C10.2354 11.4899 10.4317 11.1785 10.8662 10.754C11.7214 9.9191 12.2401 9.14079 12.156 8.81532C12.1139 8.61721 11.9176 8.75872 11.1746 9.52287L10.2354 10.4851V8.99929C10.2354 7.59834 10.1232 7.13136 9.85689 7.52759Z" fill="currentColor"/>
</svg>
