<svg width="15" height="15" viewBox="0 0 15 15" fill="none" xmlns="http://www.w3.org/2000/svg">
<path d="M7.37828 1.85095C6.68884 2.16577 5.57083 3.25836 5.664 3.53614C5.67331 3.58243 5.64536 3.61021 5.59878 3.61021C5.32859 3.61021 5.14226 5.00836 5.35654 5.50836C5.39381 5.61021 5.40313 5.66577 5.36586 5.62873C5.26337 5.53614 4.50872 5.88799 4.09878 6.2028C3.35344 6.78614 3.0553 7.80466 3.3907 8.61021C3.43729 8.72132 3.36275 8.78614 3.1112 8.87873C2.92486 8.94354 2.69195 9.08243 2.59878 9.17503C2.50561 9.26762 2.39381 9.36021 2.35654 9.36947C2.17952 9.42503 1.76959 10.0361 1.80685 10.1935C1.80685 10.2213 1.76959 10.3047 1.70437 10.3787C1.63915 10.4528 1.56462 10.7584 1.53667 11.0639C1.48077 11.5824 1.4994 11.675 1.79754 12.3047C1.96524 12.638 2.72921 13.1195 3.42797 13.3232C4.00561 13.4898 4.36896 13.5454 5.52424 13.6565C5.7758 13.6843 6.01803 13.7306 6.06462 13.7584C6.12052 13.7861 6.223 13.7584 6.30685 13.6843C6.41865 13.601 6.4466 13.601 6.3907 13.6843C6.31617 13.8047 6.56772 13.8047 6.77269 13.675C6.82859 13.638 6.90313 13.6472 6.94039 13.6935C6.96834 13.7491 7.51803 13.7769 8.31927 13.7584C10.2572 13.7028 10.8628 13.638 11.1516 13.4528C11.31 13.351 11.3752 13.3324 11.3286 13.4158C11.2354 13.5639 11.7199 13.4898 12.1485 13.2769C12.2975 13.2028 12.4559 13.1472 12.4932 13.1472C12.6236 13.1472 13.3596 12.6195 13.5739 12.3695C13.6951 12.2398 13.7696 12.1287 13.7416 12.1287C13.7137 12.1287 13.7603 12.0176 13.8441 11.888C14.0677 11.5547 14.0677 10.6102 13.8441 10.1472C13.6392 9.7028 13.4435 9.51762 12.782 9.09169C12.2696 8.75836 12.251 8.73984 12.3721 8.51762C12.5584 8.14725 12.428 6.94354 12.1857 6.94354C12.1392 6.94354 12.1298 6.89725 12.1671 6.83243C12.2137 6.75836 12.1857 6.7491 12.0553 6.7954C11.9621 6.83243 11.9155 6.83243 11.9528 6.7954C12.0553 6.69354 11.5988 6.33243 11.1609 6.16577L10.7603 6.00836V5.37873C10.7603 4.52688 10.1826 3.7028 9.75406 3.94354C9.68884 3.98058 9.67021 3.97132 9.70747 3.93429C9.75406 3.88799 9.55841 3.7491 9.28822 3.61947C8.81306 3.37873 8.80375 3.36947 8.7758 2.91577C8.74785 2.26762 8.68263 2.05466 8.47766 1.85095C8.28201 1.65651 7.95592 1.59169 8.06772 1.76762C8.10499 1.84169 8.07704 1.84169 7.9466 1.77688C7.81617 1.7028 7.6671 1.72132 7.37828 1.85095ZM6.35344 9.64725C6.38139 9.7954 6.37207 9.88799 6.34412 9.86021C6.32549 9.83243 6.20437 9.89725 6.09257 10.0084C5.90623 10.1843 5.85965 10.1935 5.61741 10.0732C5.24474 9.89725 5.23542 9.61021 5.58946 9.31391C5.86896 9.08243 5.8876 9.08243 6.10188 9.23984C6.223 9.32317 6.3348 9.50836 6.35344 9.64725ZM10.0429 9.41577C10.3503 9.85095 9.86586 10.425 9.46524 10.101C9.40002 10.0454 9.31617 10.0269 9.28822 10.0639C9.1671 10.175 9.223 9.57317 9.34412 9.42503C9.4466 9.2954 9.63294 9.19354 9.80064 9.17503C9.83791 9.16577 9.94039 9.27688 10.0429 9.41577ZM6.76337 11.1658C6.89381 11.2954 7.03356 11.3695 7.09878 11.3324C7.15468 11.2954 7.17331 11.3047 7.13605 11.3695C7.09878 11.4343 7.21058 11.5084 7.42486 11.5639C7.87207 11.6935 8.01182 11.6935 8.01182 11.5732C8.01182 11.5176 8.03977 11.4898 8.08636 11.4991C8.18884 11.5269 8.60809 11.2861 8.69195 11.1472C8.7758 10.9991 9.09257 10.9713 9.17642 11.1102C9.26027 11.2398 9.0553 11.5824 8.72921 11.851C8.44039 12.0917 8.43108 12.101 8.04909 12.1195C7.8907 12.1287 7.8348 12.1658 7.88139 12.2398C7.93729 12.3324 7.91865 12.3324 7.81617 12.2398C7.75095 12.1843 7.53667 12.1287 7.34101 12.1287C6.78201 12.1287 6.00872 11.2861 6.30685 10.9898C6.41865 10.8787 6.53977 10.925 6.76337 11.1658Z" fill="currentColor"/>
</svg>
