<svg width="15" height="15" viewBox="0 0 15 15" fill="none" xmlns="http://www.w3.org/2000/svg">
<path d="M6.01387 1.11061C5.38025 1.26927 3.7768 1.94715 3.33715 2.26446C3.0656 2.45196 2.79405 2.59619 2.72939 2.59619C2.56129 2.59619 1.60439 3.79331 1.37163 4.29811C1.26818 4.52888 1.13887 5.00485 1.08715 5.351C1.03543 5.69715 0.931977 6.31735 0.84146 6.73561C0.738012 7.13946 0.686287 7.62985 0.699218 7.81735C0.84146 9.101 0.957839 9.43273 1.53974 10.1827C1.86301 10.601 2.3156 11.2212 2.52249 11.5673C3.05267 12.4039 3.71215 12.7789 4.96646 12.9808C5.54836 13.0673 6.20784 13.2116 6.45353 13.2981C7.11301 13.5289 8.63887 13.4856 9.36301 13.2116C10.2423 12.8798 10.5268 12.6347 12.5182 10.6587C13.5009 9.6635 13.6432 9.21638 13.6432 7.13946C13.6432 5.04811 13.5527 4.73081 12.6992 3.75004C12.4277 3.44715 12.0009 2.95677 11.7423 2.63946C11.057 1.84619 10.2811 1.45677 9.0268 1.28369C7.72077 1.11061 6.36301 1.02408 6.01387 1.11061ZM8.79405 2.06254C9.03974 2.1635 9.36301 2.32215 9.50525 2.42311C9.73801 2.58177 9.72508 2.59619 9.37594 2.50965C9.16905 2.45196 8.89749 2.351 8.78112 2.29331C8.66474 2.22119 8.38025 2.14908 8.16043 2.13465C7.9406 2.12023 7.75956 2.04811 7.75956 1.99042C7.75956 1.81735 8.2768 1.86061 8.79405 2.06254ZM10.6561 2.36542C11.3803 2.88465 11.807 3.36061 11.238 3.01446C11.0699 2.9135 10.9147 2.84138 10.9018 2.85581C10.7725 2.94235 10.5785 2.84138 10.3199 2.55292C10.1518 2.36542 9.89318 2.13465 9.76387 2.04811C9.53112 1.90388 9.53112 1.88946 9.73801 1.87504C9.86732 1.87504 10.2811 2.09138 10.6561 2.36542ZM5.75525 2.39427C4.91474 2.726 3.58284 3.49042 3.27249 3.79331C3.10439 3.95196 2.97508 4.02408 2.97508 3.93754C2.97508 3.34619 4.87594 2.17792 5.81991 2.17792H6.27249L5.75525 2.39427ZM8.58715 2.89908C8.67767 3.01446 8.67767 3.04331 8.58715 2.98561C8.50956 2.92792 7.96646 2.88465 7.39749 2.85581C6.82853 2.84138 6.37594 2.76927 6.41474 2.71158C6.51818 2.52408 8.40612 2.68273 8.58715 2.89908ZM10.1259 3.30292C10.488 3.56254 10.9535 4.18273 10.7984 4.18273C10.7466 4.18273 10.488 3.99523 10.2294 3.77888C9.97077 3.54811 9.64749 3.2885 9.50525 3.20196L9.24663 3.04331L9.50525 3.02888C9.64749 3.02888 9.93198 3.14427 10.1259 3.30292ZM2.67767 3.57696C2.54836 3.72119 2.45784 3.90869 2.45784 3.99523C2.45784 4.08177 2.41905 4.18273 2.36732 4.21158C2.30267 4.226 2.17336 4.44235 2.06991 4.67311C1.79836 5.26446 1.51387 5.351 1.69491 4.7885C1.83715 4.31254 2.70353 3.11542 2.81991 3.23081C2.8587 3.27408 2.79405 3.43273 2.67767 3.57696ZM4.99232 3.49042C4.57853 3.75004 3.75094 4.64427 3.76387 4.81735C3.80267 5.14908 3.75094 5.33658 3.6087 5.33658C3.53112 5.33658 3.51818 5.26446 3.58284 5.14908C3.63456 5.06254 3.68629 4.90388 3.69922 4.83177C3.69922 4.74523 3.72508 4.601 3.72508 4.51446C3.75094 4.28369 5.05698 3.12985 5.16043 3.24523C5.19922 3.30292 5.12163 3.40388 4.99232 3.49042ZM12.1949 4.601C12.3242 4.84619 12.4147 5.29331 12.4018 5.65388L12.3889 6.27408L12.2208 5.58177C12.1303 5.20677 12.0009 4.81735 11.9363 4.71638C11.8587 4.61542 11.7682 4.42792 11.7294 4.29811C11.6001 3.90869 11.9492 4.13946 12.1949 4.601ZM9.22077 4.52888C9.95784 5.14908 9.46646 7.25485 8.6906 6.79331C8.54836 6.70677 8.21215 6.62023 7.9406 6.59138C7.44922 6.54811 7.43629 6.54811 7.44922 5.97119C7.46215 4.80292 8.52249 3.93754 9.22077 4.52888ZM3.11732 4.81735C3.0268 4.93273 2.84577 5.33658 2.70353 5.726L2.44491 6.41831L2.50956 5.79811C2.54836 5.40869 2.67767 5.03369 2.8587 4.81735C3.16905 4.45677 3.38887 4.45677 3.11732 4.81735ZM6.53111 5.65388C6.99663 6.25965 6.93198 6.62023 6.2337 7.50004L5.61301 8.26446L5.21215 8.00484C4.48801 7.52888 4.29405 6.41831 4.79836 5.71158C5.32853 4.96158 6.00094 4.94715 6.53111 5.65388ZM2.00525 6.96638C2.00525 7.4135 1.97939 7.74523 1.92767 7.68754C1.77249 7.50004 1.5656 6.476 1.64318 6.25965C1.79836 5.81254 1.97939 6.18754 2.00525 6.96638ZM13.1001 6.59138C13.1389 6.80773 13.0484 7.32696 12.9061 7.74523C12.5311 8.87023 12.5182 8.82696 12.7509 6.87985C12.8415 6.12985 12.9966 6.00004 13.1001 6.59138ZM8.66474 7.35581C9.54405 7.87504 8.75525 9.43273 7.51387 9.62023C6.69922 9.75004 6.28543 9.37504 6.37594 8.62504C6.51818 7.42792 7.68198 6.76446 8.66474 7.35581ZM11.7423 8.27888C11.5742 8.56734 11.3932 8.79811 11.3415 8.79811C11.2768 8.79811 11.3285 8.65388 11.4449 8.46638C11.5484 8.29331 11.7165 7.88946 11.794 7.57215C11.9363 7.0385 11.9492 7.02408 12.0009 7.38465C12.0268 7.61542 11.9234 7.976 11.7423 8.27888ZM3.01387 8.36542C3.0656 8.68273 3.05267 8.79811 2.98801 8.65388C2.92336 8.5385 2.83284 8.17792 2.79405 7.86061C2.6906 7.15388 2.89749 7.601 3.01387 8.36542ZM1.68198 8.69715C1.99232 9.72119 1.97939 10.0529 1.65612 9.49042C1.39749 9.02888 1.16474 8.25004 1.16474 7.81735C1.16474 7.25485 1.3587 7.58658 1.68198 8.69715ZM12.932 9.12984C12.6863 9.73561 12.4147 10.125 12.4147 9.86542C12.4147 9.6635 13.1259 8.20677 13.1647 8.33658C13.1777 8.39427 13.0742 8.75484 12.932 9.12984ZM10.3328 8.89908C10.0613 9.30292 9.72508 9.6635 9.62163 9.6635C9.56991 9.6635 9.64749 9.51927 9.80267 9.33177C9.95784 9.14427 10.0484 8.94234 9.99663 8.87023C9.93198 8.81254 9.97077 8.79811 10.0613 8.85581C10.1389 8.9135 10.2165 8.88465 10.2165 8.81254C10.2165 8.726 10.2811 8.65388 10.3587 8.65388C10.4621 8.65388 10.4492 8.74042 10.3328 8.89908ZM4.46215 9.37504C4.42336 9.44715 4.5268 9.46158 4.68198 9.40388C4.86301 9.36061 4.92767 9.37504 4.86301 9.49042C4.81129 9.59138 4.85008 9.6635 4.95353 9.6635C5.05698 9.6635 5.21215 9.76446 5.30267 9.87985C5.43198 10.0529 5.34146 10.0385 4.91474 9.82215C4.39749 9.56254 4.13887 9.31734 4.13887 9.02888C4.13887 8.95677 4.22939 8.98561 4.33284 9.08658C4.43629 9.18754 4.50094 9.31734 4.46215 9.37504ZM11.8975 9.23081C11.8975 9.44715 10.682 10.8173 10.488 10.8173C10.3199 10.8173 10.5656 10.4568 11.3156 9.57696C11.7294 9.101 11.8975 9.00004 11.8975 9.23081ZM3.99663 11.0193C4.30698 11.3943 4.30698 11.3943 3.58284 10.9472C2.91043 10.5433 2.45784 10.0673 2.45784 9.77888C2.45784 9.62023 3.6087 10.5577 3.99663 11.0193ZM6.01387 10.875L6.66043 11.1058L5.81991 11.0337C5.14749 10.976 4.91474 10.8895 4.65611 10.5866L4.33284 10.226L4.85008 10.4423C5.13456 10.5577 5.66474 10.7597 6.01387 10.875ZM9.82853 10.3125C9.82853 10.5577 8.63887 11.1058 8.13456 11.0914L7.5656 11.077L8.14749 10.8895C8.60008 10.7452 9.58284 10.3702 9.80267 10.2548C9.8156 10.2548 9.82853 10.2693 9.82853 10.3125ZM10.9147 11.4087C10.5785 11.827 9.89318 12.1731 9.01387 12.3895C8.2768 12.577 7.83715 12.5193 8.43198 12.3318C8.8587 12.202 10.0742 11.6539 10.6044 11.3654C11.1863 11.0481 11.2121 11.0481 10.9147 11.4087ZM4.12594 11.7693C5.19922 12.202 5.58715 12.577 4.83715 12.4472C4.21646 12.3462 3.31129 11.8702 3.00094 11.4808C2.79405 11.2068 2.79405 11.2068 3.03974 11.3222C3.18198 11.3798 3.67336 11.5818 4.12594 11.7693ZM7.24232 11.827C8.03112 11.8414 8.14749 11.8702 7.88887 11.9856C7.41043 12.202 6.58284 12.1731 6.0656 11.9135C5.74232 11.7404 5.71646 11.6972 5.94922 11.7548C6.13025 11.7837 6.71215 11.827 7.24232 11.827Z" fill="currentColor"/>
</svg>
