<svg width="15" height="15" viewBox="0 0 15 15" fill="none" xmlns="http://www.w3.org/2000/svg">
<path d="M7.30675 1.61667C6.98001 1.87754 6.59388 2.08624 6.43051 2.08624C6.10378 2.08624 5.34635 2.6732 5.34635 2.92102C5.34635 2.99928 5.15328 3.14276 4.91566 3.22102C4.42556 3.37754 3.96516 4.0558 3.98001 4.59059C3.98001 4.81233 3.90576 4.9558 3.78694 4.9558C3.16318 4.9558 2.76219 6.1558 3.11863 6.97754C3.19289 7.16015 3.20774 7.29059 3.13348 7.25146C3.07407 7.21233 2.86615 7.30363 2.70279 7.44711C2.25724 7.79928 2.28694 8.51667 2.74734 9.23406C2.94041 9.53406 3.07407 9.8732 3.02952 9.97754C2.62853 10.8906 4.49982 12.2862 6.40081 12.4819C7.03942 12.5471 7.12853 12.5993 7.12853 12.8602C7.12853 13.5384 8.18298 13.5775 8.45031 12.9123C8.55427 12.6254 8.68793 12.521 8.94041 12.521C10.6929 12.521 12.9503 11.0862 12.7424 10.108C12.6978 9.92537 12.7572 9.71667 12.8612 9.63841C13.4553 9.20798 13.5592 7.66885 13.0246 7.48624C12.8612 7.43406 12.8315 7.19928 12.8909 6.46885C12.9503 5.51667 12.9503 5.50363 12.4899 5.20363C12.2077 5.02102 12.0295 4.78624 12.0295 4.60363C12.0295 4.06885 11.6285 3.40363 11.2572 3.32537C11.0642 3.2732 10.7374 2.98624 10.5147 2.66015C10.2176 2.22972 10.0246 2.08624 9.74239 2.08624C9.51962 2.08624 9.23744 1.92972 9.01467 1.69493C8.42061 1.09493 8.00477 1.06885 7.30675 1.61667ZM8.53942 2.08624C8.79189 2.33406 8.79189 2.34711 8.45031 2.59493C8.00477 2.92102 7.97506 2.92102 7.64833 2.60798C7.39586 2.36015 7.39586 2.33406 7.64833 2.08624C7.98991 1.76015 8.19784 1.76015 8.53942 2.08624ZM10.1731 3.14276C10.2325 3.28624 10.1434 3.49493 9.96516 3.67754L9.65328 3.9645L9.3117 3.67754C9.11863 3.52102 8.881 3.39059 8.79189 3.39059C8.50972 3.39059 8.58397 3.20798 8.95526 2.99928C9.68298 2.56885 9.98001 2.60798 10.1731 3.14276ZM6.99487 2.98624L7.3513 3.23406L6.98001 3.49493C6.77209 3.63841 6.57902 3.76885 6.53447 3.79493C6.48991 3.82102 6.29685 3.74276 6.10378 3.62537C5.76219 3.41667 5.76219 3.39059 5.99982 3.07754C6.29685 2.6732 6.53447 2.66015 6.99487 2.98624ZM5.77704 4.27754C5.95526 4.57754 5.01962 5.52972 4.76714 5.30798C4.52952 5.09928 4.57407 4.40798 4.8414 4.06885C5.09388 3.7558 5.50972 3.84711 5.77704 4.27754ZM8.77704 4.14711L9.23744 4.49928L8.59883 4.8645L7.97506 5.22972L7.64833 4.9558C7.47011 4.81233 7.24734 4.69493 7.14338 4.69493C6.99487 4.69493 7.02457 4.19928 7.18793 4.09493C7.73744 3.70363 8.22754 3.71667 8.77704 4.14711ZM11.3761 4.51233C11.4949 5.26885 11.3018 5.45146 10.8414 5.02102C10.6483 4.83841 10.4107 4.69493 10.2919 4.69493C9.98001 4.69493 10.0691 4.34276 10.4256 4.12102C11.0196 3.7558 11.2572 3.84711 11.3761 4.51233ZM7.21764 5.49059C7.63348 5.88189 7.63348 5.89493 7.36615 6.07754C7.20279 6.18189 6.99487 6.26015 6.8909 6.26015C6.78694 6.26015 6.59388 6.39059 6.47506 6.54711C6.3414 6.70363 6.22259 6.80798 6.20774 6.76885C6.17803 6.74276 6.01467 6.53407 5.83645 6.31233C5.48001 5.8558 5.64338 5.45146 6.29685 5.21667C6.74239 5.04711 6.74239 5.04711 7.21764 5.49059ZM10.4553 5.59493C10.7226 5.8558 10.7226 5.86885 10.2176 6.3645L9.71269 6.86015L9.44536 6.54711C9.29685 6.37754 9.01467 6.19493 8.8216 6.12972C8.37605 5.9732 8.3612 5.72537 8.80675 5.47754C9.53447 5.04711 9.92061 5.0732 10.4553 5.59493ZM4.75229 6.20798C5.62853 6.92537 5.62853 6.9645 5.04932 7.1732C4.79685 7.2645 4.52952 7.43406 4.45526 7.55146C4.14338 7.99493 3.44536 6.58624 3.62358 5.92102C3.75724 5.47754 3.92061 5.52972 4.75229 6.20798ZM12.2968 6.23407C12.3265 6.4558 12.2077 6.92537 12.0295 7.25146L11.7325 7.8645L11.3166 7.53841C11.0939 7.3558 10.7968 7.1732 10.6483 7.14711C10.4256 7.12102 10.5147 6.97754 11.1533 6.41667C11.9998 5.66015 12.2226 5.62102 12.2968 6.23407ZM8.79189 6.89928L9.26714 7.2645L8.61368 7.81233L7.96021 8.34711L7.44041 7.92972C7.14338 7.69493 6.84635 7.46015 6.77209 7.40798C6.57902 7.27754 6.95031 6.92537 7.48496 6.71667C8.15328 6.46885 8.25724 6.48189 8.79189 6.89928ZM6.35625 7.91667C7.21764 8.41233 7.39586 8.62102 7.05427 8.79059C6.90576 8.86885 6.59388 9.09059 6.3711 9.2732L5.97011 9.59928L5.43546 8.9732C4.82655 8.2558 4.8117 8.17754 5.13843 7.90363C5.43546 7.62972 5.8513 7.64276 6.35625 7.91667ZM10.8265 7.98189C11.1533 8.28189 11.1384 8.32102 10.485 9.01233L10.0394 9.49493L9.43051 9.07754C9.10378 8.8558 8.80675 8.66015 8.77704 8.64711C8.62853 8.56885 9.19288 8.15146 9.72754 7.94276C10.4701 7.64276 10.4701 7.64276 10.8265 7.98189ZM4.20279 8.63406L4.96021 9.31233L4.381 9.41667C3.72754 9.54711 3.48992 9.41667 3.17803 8.7645C2.68793 7.73406 3.14833 7.68189 4.20279 8.63406ZM12.7127 8.50363C12.5939 9.07754 12.1335 9.59928 11.7919 9.54711C11.6285 9.53406 11.3909 9.50798 11.2572 9.49493C10.8711 9.4558 10.9157 9.37754 11.6879 8.69928C12.5345 7.9558 12.8464 7.90363 12.7127 8.50363ZM8.67308 9.44276C9.41566 9.71667 9.41566 9.84711 8.68793 10.4602L8.00477 11.021L7.29189 10.4341C6.59388 9.86015 6.59388 9.84711 6.8909 9.63841C7.49982 9.22102 7.94536 9.16885 8.67308 9.44276ZM5.80675 10.2515C6.43051 10.5254 7.52952 11.5036 7.3216 11.5688C6.69784 11.7645 4.24734 10.4471 4.49982 10.0819C4.63348 9.89928 5.22754 9.97754 5.80675 10.2515ZM11.4355 10.1732C11.8662 10.4341 10.7226 11.1384 9.23744 11.5297C8.3018 11.7645 8.27209 11.6602 9.07407 10.9819C10.0097 10.1602 10.9008 9.86015 11.4355 10.1732Z" fill="currentColor"/>
</svg>
