<svg width="15" height="15" viewBox="0 0 15 15" fill="none" xmlns="http://www.w3.org/2000/svg">
<path d="M6.38889 1.61157C6.22222 1.95868 6.27778 2.81405 6.5 3.33471C6.54167 3.44628 6.34722 3.34711 6.05556 3.12397C5.52778 2.71487 5.27778 2.70248 5.27778 3.07438C5.29167 3.34711 5.65278 3.7562 6.15278 4.02892C6.38889 4.16529 6.52778 4.35124 6.52778 4.54959V4.84711L6.01389 4.52479C5.44444 4.19008 5 4.1157 5 4.37603C5 4.67355 5.38889 5.03306 5.95833 5.26859C6.43056 5.45454 6.52778 5.55372 6.52778 5.85124V6.21074L6.01389 5.88843C5.38889 5.51653 5 5.49173 5 5.80165C5 6.09917 5.48611 6.49587 6.15278 6.7438C6.55556 6.89256 6.66667 6.99173 6.66667 7.23967C6.66667 7.63636 6.65278 7.63636 6.02778 7.25206C5.48611 6.92975 5.20833 6.86777 5.08333 7.05372C4.94444 7.23967 5.68056 7.90909 6.18056 8.08264C6.61111 8.21901 6.66667 8.28099 6.66667 8.67768C6.66667 8.92562 6.61111 9.04959 6.55556 8.96281C6.5 8.87603 6.20833 8.72727 5.93056 8.6157C5.45833 8.44215 5.40278 8.44215 5.31944 8.6281C5.22222 8.87603 5.56944 9.19835 6.15278 9.3719C6.48611 9.47107 6.61111 9.59504 6.68056 9.89256L6.76389 10.2645L6.22222 9.95454C5.80556 9.70661 5.63889 9.66942 5.51389 9.78099C5.29167 9.97934 5.51389 10.2521 6.18056 10.5868L6.73611 10.8719L6.80556 12.062C6.875 13.2769 6.94444 13.4752 7.22222 13.3264C7.33333 13.2645 7.34722 12.8678 7.29167 11.9504C7.19444 10.7851 7.20833 10.6612 7.43056 10.6612C7.66667 10.6612 8.47222 9.97934 8.47222 9.78099C8.47222 9.58264 7.95833 9.66942 7.58333 9.92975L7.22222 10.1777V9.80578C7.22222 9.58264 7.29167 9.42149 7.40278 9.42149C7.66667 9.42149 8.61111 8.69008 8.61111 8.47934C8.61111 8.20661 8.16667 8.26859 7.63889 8.6157C7.05556 9 7.08333 9 7.08333 8.57851C7.08333 8.31818 7.19444 8.18182 7.55556 8.00826C8.26389 7.67355 8.70833 7.22727 8.5 7.04132C8.30556 6.86777 7.55556 7.1157 7.36111 7.42562C7.25 7.58678 7.20833 7.59917 7.09722 7.45041C6.91667 7.20248 7.06944 6.84297 7.41667 6.76859C8.06944 6.61983 8.93056 5.66529 8.54167 5.52892C8.27778 5.44215 7.84722 5.6157 7.36111 6.02479L7.01389 6.30992L6.98611 5.93802C6.95833 5.6281 7.04167 5.51653 7.61111 5.20661C8.29167 4.83471 8.68056 4.41322 8.52778 4.20248C8.41667 4.04132 7.94444 4.17768 7.40278 4.54959L6.94444 4.84711V4.52479C6.94444 4.31405 7.15278 4.04132 7.56944 3.68182C8.5 2.87603 8.40278 2.35537 7.45833 3.09917C6.86111 3.55785 6.80556 3.55785 6.90278 3.12397C7.20833 1.58677 6.86111 0.582643 6.38889 1.61157Z" fill="currentColor"/>
<path d="M12.1119 2.87594C11.8757 3.13627 11.6535 4.06602 11.7507 4.40074C11.8757 4.84702 11.6257 4.78503 11.4313 4.32636C11.223 3.84288 10.8896 3.90487 10.9452 4.41313C10.973 4.61148 11.1119 4.88421 11.2646 5.03297C11.5285 5.2809 11.6257 5.99991 11.4174 6.12388C11.348 6.16107 11.1952 6.0247 11.0563 5.82636C10.7369 5.34288 10.3063 5.11974 10.1952 5.39247C10.0841 5.62801 10.4452 6.12388 10.9035 6.3966C11.1396 6.53297 11.2507 6.70652 11.2507 6.95445C11.2507 7.42553 11.0563 7.49991 10.8202 7.11561C10.5841 6.71892 9.88963 6.37181 9.6813 6.55776C9.48686 6.73131 9.88963 7.23958 10.4869 7.59908C10.8619 7.80983 10.973 7.95859 10.973 8.25611C10.973 8.81396 10.8619 8.83875 10.4035 8.36768C9.91741 7.87181 9.44519 7.72305 9.44519 8.07016C9.44519 8.30569 10.3202 9.17346 10.5563 9.17346C10.7091 9.17346 10.7507 9.70652 10.6119 9.83049C10.5563 9.86768 10.3341 9.74371 10.1119 9.54536C9.66741 9.14867 9.16741 9.0495 9.16741 9.37181C9.16741 9.57016 9.75075 10.128 10.1952 10.3635C10.4035 10.4627 10.4452 10.5619 10.3619 10.8346L10.2646 11.1817L9.98686 10.8594C9.69519 10.5247 9.25075 10.3511 9.02852 10.4751C8.8063 10.5991 9.26463 11.2561 9.72297 11.4669C10.2091 11.69 10.2091 11.7272 9.90352 12.6073C9.73686 13.0908 9.70908 13.3016 9.82019 13.4007C10.0146 13.5743 10.3757 12.9916 10.5007 12.285C10.5563 11.9379 10.6674 11.7768 10.8202 11.7644C11.723 11.7272 12.9174 11.0826 12.1952 11.0206C12.098 11.0082 11.9174 10.9958 11.8063 10.9834C11.6952 10.971 11.4035 11.033 11.1674 11.1073C10.7369 11.2561 10.723 11.2561 10.8202 10.9338C10.9035 10.6611 11.0424 10.5743 11.5424 10.4751C12.3757 10.3016 12.7091 10.1156 12.598 9.86768C12.4869 9.61974 12.0563 9.60735 11.5285 9.85528C11.1257 10.0412 11.1119 10.0412 11.1119 9.74371C11.1119 9.38421 11.3202 9.23545 11.9313 9.12388C12.3896 9.0495 12.9174 8.73958 12.9174 8.55363C12.9174 8.34288 12.3341 8.34288 11.848 8.56602C11.2507 8.83875 11.2646 8.85115 11.4174 8.34288C11.5146 8.02057 11.6119 7.93379 11.8757 7.93379C12.5285 7.93379 13.348 7.37594 13.1396 7.07842C13.0424 6.94206 12.3619 7.06602 11.973 7.28916C11.8063 7.38834 11.6396 7.45032 11.6119 7.42553C11.5146 7.31396 11.8341 6.57016 11.9591 6.63214C12.1674 6.75611 13.0424 6.44619 13.1952 6.21065C13.4313 5.78916 12.9869 5.70239 12.3063 6.01231C11.8202 6.23545 11.8063 6.23545 11.9035 5.80156C11.9591 5.55363 12.098 5.42966 12.4452 5.33049C12.973 5.16933 13.3063 4.76024 13.0702 4.5495C12.973 4.46272 12.8202 4.48751 12.5841 4.63627C12.0841 4.9214 12.0702 4.8966 12.3619 4.30156C12.8202 3.409 12.6396 2.31809 12.1119 2.87594Z" fill="currentColor"/>
<path d="M2.04193 4.30163C1.80582 4.67353 1.84748 5.09502 2.15304 5.69006C2.34748 6.04956 2.50026 6.37188 2.50026 6.39667C2.50026 6.42146 2.27804 6.32229 2.01415 6.18593C1.75026 6.04956 1.47248 5.96279 1.40304 5.99998C1.04193 6.19832 1.76415 6.96692 2.43082 7.07849C2.59748 7.11568 2.73637 7.26444 2.79193 7.53717C2.87526 7.92146 2.86137 7.93386 2.65304 7.76031C2.3197 7.48758 1.58359 7.37601 1.45859 7.57436C1.3197 7.7727 1.98637 8.26857 2.54193 8.38014C2.77804 8.41733 2.98637 8.56609 3.0697 8.76444C3.26415 9.24791 3.22248 9.34708 2.87526 9.13634C2.4447 8.88841 1.70859 8.75204 1.61137 8.9132C1.47248 9.09915 1.95859 9.42146 2.72248 9.657C3.23637 9.81816 3.40304 9.94212 3.48637 10.2025C3.58359 10.5124 3.4447 10.6735 3.27804 10.4256C3.09748 10.1777 2.08359 10.1653 2.08359 10.4256C2.08359 10.6239 2.79193 10.9463 3.20859 10.9339C3.61137 10.9215 3.88915 11.1818 3.88915 11.5785C3.88915 11.7149 3.77804 11.7396 3.41693 11.6901C3.15304 11.6529 2.91693 11.6777 2.86137 11.752C2.73637 11.938 3.38915 12.2975 3.76415 12.2479C4.01415 12.2231 4.09748 12.2975 4.26415 12.8058C4.43082 13.3264 4.75026 13.6487 4.93082 13.4876C4.95859 13.4628 4.88915 13.1529 4.76415 12.7934L4.52804 12.1611L4.90304 11.8264C5.27804 11.5041 5.40304 10.9958 5.15304 10.8471C5.08359 10.8099 4.86137 10.9587 4.68082 11.1694C4.34748 11.5537 4.33359 11.5661 4.23637 11.281C4.16693 11.0702 4.22248 10.9339 4.48637 10.7355C4.83359 10.4752 5.13915 10.0413 5.13915 9.80576C5.13915 9.55783 4.70859 9.6694 4.30582 10.0165L3.91693 10.376L3.84748 10.0537C3.79193 9.80576 3.87526 9.6446 4.25026 9.34708C4.55582 9.08675 4.72248 8.83882 4.72248 8.62808C4.72248 8.10741 4.29193 8.29336 3.75026 9.03717L3.52804 9.32229L3.50026 8.9256C3.47248 8.64047 3.58359 8.41733 3.88915 8.10741C4.36137 7.62394 4.45859 7.0165 4.0697 7.09088C3.93082 7.11568 3.6947 7.31403 3.52804 7.52477L3.22248 7.93386L3.13915 7.51237C3.05582 7.15287 3.11137 7.0289 3.47248 6.68179C3.72248 6.42146 3.88915 6.13634 3.88915 5.9256C3.88915 5.45452 3.66693 5.49171 3.3197 6.01237C2.9447 6.58262 2.77804 6.45865 2.77804 5.62807C2.77804 4.74791 2.30582 3.89254 2.04193 4.30163Z" fill="currentColor"/>
</svg>
