<svg width="15" height="15" viewBox="0 0 15 15" fill="none" xmlns="http://www.w3.org/2000/svg">
<path d="M5.00427 2.21578C4.64586 2.44654 4.75206 2.93116 5.16356 2.97731C5.33613 3.00039 5.52197 2.95424 5.58834 2.87347C5.73436 2.66578 6.3848 3.08116 6.55737 3.48501C6.66356 3.73885 6.57064 3.85424 5.85383 4.51193C3.92905 6.2427 3.61046 6.5427 3.29188 6.92347C2.41577 7.97347 2.19011 9.86578 2.82728 10.9735C3.34498 11.8735 4.55294 12.8773 5.22993 12.9696C5.30958 12.9812 5.4556 13.0273 5.53524 13.0735C5.62816 13.1312 5.814 13.1889 5.93347 13.2119C6.06622 13.235 6.4379 13.3042 6.76976 13.3619C7.3671 13.4889 9.15914 13.4658 9.88922 13.3273C12.2255 12.9119 13.8583 11.4696 14.0574 9.63501C14.2299 8.11193 13.8184 7.07347 12.637 6.05808C12.2521 5.72347 11.8273 5.28501 11.7078 5.06578C11.5883 4.84655 11.1768 4.47731 10.7919 4.22347C10.1016 3.78501 10.1016 3.77347 10.2875 3.45039C10.5529 3.02347 10.7122 2.9427 11.4158 2.9427C11.9733 2.9427 12.0131 2.91962 12.0529 2.63116C12.1857 1.63885 10.2609 2.26193 9.57064 3.42731C9.45117 3.63501 9.35825 3.65808 9.06622 3.58885C8.72108 3.50808 8.01754 3.50808 7.56622 3.60039C7.46002 3.62347 7.27418 3.43885 7.14144 3.20808C6.70338 2.42347 5.52197 1.88116 5.00427 2.21578ZM11.4025 6.05808C13.6724 7.05039 14.1636 9.72731 12.4113 11.5042C11.9335 11.9889 10.5662 12.6465 9.82285 12.7504C9.57064 12.785 9.15914 12.8427 8.93347 12.8773C8.61489 12.935 8.49542 12.9004 8.49542 12.7965C8.46887 12.1965 8.52197 8.73501 8.56179 8.36578C8.58834 8.11193 8.61489 7.39655 8.64144 6.77347C8.66799 5.9427 8.73436 5.61962 8.8671 5.55039C9.13259 5.41193 10.6326 5.71193 11.4025 6.05808ZM8.13701 5.82731C8.12374 5.95424 8.07064 7.53501 8.03082 9.34655C7.97772 11.1581 7.92462 12.6927 7.89807 12.7619C7.8317 12.9581 6.76976 12.8542 5.9202 12.5773C2.8671 11.585 2.15029 8.55039 4.52639 6.64655C5.42905 5.91962 6.47772 5.53885 7.49984 5.57347C8.07064 5.59655 8.16356 5.63116 8.13701 5.82731Z" fill="currentColor"/>
<path d="M10.2733 6.75031C9.87505 7.09646 9.87505 7.32723 10.2733 7.67338C10.6715 8.01954 11.1494 7.92723 11.3352 7.46569C11.6273 6.76184 10.8574 6.25415 10.2733 6.75031Z" fill="currentColor"/>
<path d="M11.5754 8.88538C11.2037 9.18538 11.2037 9.50846 11.5621 9.82C12.186 10.3623 13.2479 9.57769 12.717 8.96615C12.4249 8.65461 11.9205 8.60846 11.5754 8.88538Z" fill="currentColor"/>
<path d="M9.50514 10.4428C8.97416 10.9158 9.23965 11.6543 9.94319 11.6543C10.368 11.6543 10.5405 11.5043 10.66 11.0658C10.8326 10.4543 10.0096 10.0158 9.50514 10.4428Z" fill="currentColor"/>
<path d="M5.44196 6.69182C5.14993 6.94567 5.08355 7.48798 5.33577 7.70721C5.57471 7.9149 6.17205 7.86875 6.41099 7.63798C7.08798 6.99182 6.1455 6.08029 5.44196 6.69182Z" fill="currentColor"/>
<path d="M4.06117 9.01146C3.68948 9.2653 3.62311 9.5653 3.84878 9.93453C4.03462 10.223 4.65851 10.223 4.95055 9.94607C5.58771 9.33453 4.79125 8.5153 4.06117 9.01146Z" fill="currentColor"/>
<path d="M5.89318 10.5581C5.3622 11.0197 5.62769 11.6543 6.3445 11.6543C7.00822 11.6543 7.35335 10.7312 6.79583 10.4428C6.41088 10.2581 6.21176 10.2812 5.89318 10.5581Z" fill="currentColor"/>
</svg>
