<svg width="15" height="15" viewBox="0 0 15 15" fill="none" xmlns="http://www.w3.org/2000/svg">
<path d="M6.95952 0.722545C6.92352 0.756379 6.74352 0.801492 6.57552 0.835327C6.04752 0.925552 5.55552 1.25262 5.15952 1.77142C4.95552 2.04209 4.82352 2.25638 4.88352 2.25638C4.93152 2.25638 4.90752 2.30149 4.81152 2.35788C4.72752 2.41427 4.49952 2.41427 4.30752 2.36916C3.81552 2.23382 3.13152 2.43683 2.66352 2.85412C2.05152 3.39548 1.88352 3.77894 1.88352 4.64736C1.88352 5.21127 1.84752 5.41427 1.72752 5.41427C1.48752 5.41427 0.995523 6.09097 0.839523 6.6436C0.635523 7.3654 0.827523 8.39172 1.25952 8.80901C1.66752 9.21503 2.01552 9.46315 2.07552 9.40676C2.27952 9.21503 2.78352 9.54209 2.99952 10.0158C3.53952 11.1662 4.46352 11.5158 5.93952 11.1436C6.22752 11.0647 6.51552 11.0421 6.56352 11.0872C6.67152 11.1887 6.40752 12.9256 6.15552 13.794C5.87952 14.7188 5.96352 14.7752 7.60752 14.7977C9.27552 14.809 9.33552 14.7526 9.14352 13.6812C9.07152 13.2639 8.97552 12.5308 8.92752 12.0684L8.85552 11.2225L9.63552 11.2113C10.9075 11.2 11.8795 10.3541 11.8795 9.27142C11.8795 8.97818 11.9395 8.87668 12.2155 8.78645C13.0555 8.48194 13.4995 7.64736 13.4155 6.49698C13.3675 5.71878 12.9835 5.10976 12.6235 5.2451C12.5395 5.26766 12.5035 5.2451 12.5395 5.18871C12.5755 5.12104 12.5275 5.07593 12.4315 5.07593C12.2875 5.07593 12.2635 5.01954 12.3595 4.78269C12.9115 3.41803 11.4475 1.89548 9.93552 2.29021C9.67152 2.35788 9.59952 2.32405 9.53952 2.12104C9.38352 1.64736 8.43552 0.902996 8.23152 1.09473C8.19552 1.13984 8.15952 1.08345 8.15952 0.981943C8.15952 0.846605 8.05152 0.790214 7.83552 0.790214C7.64352 0.790214 7.39152 0.756379 7.25952 0.722545C7.12752 0.68871 6.98352 0.68871 6.95952 0.722545ZM8.06352 1.65864C8.50752 1.83909 8.99952 2.51578 8.99952 2.95563C8.99952 3.24886 9.34752 3.2827 9.83952 3.04585C10.4395 2.75262 10.6915 2.7639 11.0995 3.06841C11.5915 3.42931 11.7715 3.92555 11.6155 4.46691C11.3635 5.3466 11.4115 5.56089 11.8675 5.65112C12.4195 5.7639 12.6115 5.97818 12.6835 6.56465C12.7915 7.43307 12.2635 8.15488 11.4115 8.29021L10.9195 8.36916L10.9915 9.06841C11.0635 9.7451 11.0515 9.80149 10.7155 10.1511C10.2955 10.591 9.38352 10.6812 8.86752 10.3316C8.30352 9.97067 8.05152 10.2413 8.11152 11.1323C8.20752 12.4406 8.26752 13.1511 8.35152 13.6925C8.42352 14.1887 8.42352 14.2338 8.20752 14.1662C8.08752 14.1323 7.71552 14.0872 7.40352 14.0872C6.99552 14.0647 6.85152 14.0195 6.88752 13.918C7.07952 13.4331 7.30752 11.9669 7.33152 10.997C7.37952 9.2827 7.39152 9.26014 8.96352 7.57969C9.44352 7.07217 9.49152 6.65488 9.08352 6.65488C8.89152 6.65488 8.62752 6.83533 8.29152 7.21879C7.67952 7.90676 7.58352 7.91803 7.59552 7.29773C7.60752 6.21503 7.58352 6.09097 7.27152 6.09097C6.94752 6.09097 6.83952 6.45187 6.83952 7.63608C6.83952 8.01954 6.79152 8.35788 6.74352 8.39172C6.69552 8.41427 6.29952 8.12104 5.87952 7.71503C5.45952 7.30901 5.02752 7.0045 4.91952 7.01578C4.60752 7.07217 4.65552 7.43307 5.01552 7.78269C5.21952 7.97442 5.36352 8.12104 5.33952 8.12104C5.26752 8.12104 6.14352 8.91051 6.38352 9.06841C6.69552 9.2827 6.74352 10.5346 6.44352 10.4218C6.34752 10.388 6.11952 10.4218 5.92752 10.5007C4.70352 10.9631 3.59952 10.3992 3.68352 9.36164L3.73152 8.79773H3.07152C2.11152 8.79773 1.55952 8.30149 1.55952 7.45563C1.55952 6.66615 2.03952 5.8654 2.51952 5.8654C2.90352 5.8654 2.97552 5.65112 2.80752 5.10976C2.56752 4.3654 2.60352 4.07217 2.95152 3.59848C3.41952 2.95563 4.18752 2.7639 4.67952 3.15864C5.08752 3.49698 5.27952 3.41803 5.37552 2.87668C5.43552 2.48194 5.95152 1.87292 6.43152 1.61352C6.94752 1.35412 7.31952 1.35412 8.06352 1.65864Z" fill="black"/>
</svg>
