<svg width="15" height="15" viewBox="0 0 15 15" fill="none" xmlns="http://www.w3.org/2000/svg">
<path d="M6.57667 0.798542C5.75744 0.941399 5.19206 1.22711 4.76513 1.71521C4.32667 2.21521 4.3036 2.22711 3.35744 2.29854C2.82667 2.34616 2.28436 2.4533 2.1459 2.54854C1.68436 2.85807 1.28052 3.35807 1.21129 3.7033C1.16513 3.89378 1.03821 4.11997 0.922826 4.20331C0.51898 4.48902 0.207441 5.20331 0.288211 5.61997C0.495903 6.57235 1.04975 6.91759 2.37667 6.91759C2.86129 6.91759 3.24206 6.98902 3.39206 7.09616C3.51898 7.1914 3.88821 7.26283 4.22283 7.26283C5.11129 7.26283 5.90744 8.02473 5.99975 8.95331C6.1036 10.0009 5.82667 11.6914 5.37667 12.7747C5.00744 13.6438 5.08821 13.6914 6.99206 13.6914C8.94206 13.6914 8.91898 13.7033 8.56129 12.5843C8.27283 11.6557 8.18052 11.12 8.18052 10.2509C8.16898 9.38188 8.36513 8.98902 9.06898 8.38188C10.1536 7.47711 10.269 7.41759 11.0305 7.47711C11.7228 7.52473 11.8959 7.47711 12.9228 6.91759C13.1421 6.78664 13.3613 6.71521 13.4074 6.73902C13.5805 6.85807 14.3882 5.85807 14.469 5.4414C14.5844 4.79854 14.2728 4.10807 13.6613 3.6795C13.3844 3.48902 13.1536 3.25092 13.1536 3.15569C13.1536 2.54854 11.7574 1.78664 10.6613 1.78664C10.3613 1.78664 10.119 1.71521 10.0267 1.59616C9.56513 1.01283 7.71898 0.584256 6.57667 0.798542ZM8.84975 1.58426C9.02283 1.6795 9.29975 1.90569 9.44975 2.07235C9.69206 2.33426 9.83052 2.38188 10.3844 2.38188C11.5613 2.38188 12.4844 2.88188 12.6344 3.58426C12.6805 3.76283 12.8074 3.9533 12.9228 3.98902C13.3959 4.14378 13.8459 4.71521 13.8459 5.16759C13.8459 5.66759 13.4074 6.1914 12.9805 6.1914C12.8421 6.1914 12.5305 6.34616 12.2882 6.54854C11.7113 7.01283 10.869 7.08426 11.0997 6.63188C11.3651 6.16759 11.6882 5.83426 11.8959 5.83426C12.1151 5.83426 12.3921 5.4414 12.2651 5.31045C12.2305 5.27473 12.0113 5.23902 11.8036 5.23902C11.5844 5.23902 11.169 5.10807 10.8805 4.9414C10.3959 4.6795 10.3151 4.66759 10.1536 4.82235C9.93436 5.02473 8.82667 5.07235 8.71129 4.86997C8.57283 4.65569 8.13436 4.54854 7.71898 4.63188C7.51129 4.6795 7.07283 4.6795 6.74975 4.63188C6.35744 4.58426 6.09206 4.60807 5.94206 4.71521C5.61898 4.9295 4.73052 5.03664 4.3959 4.90569C4.16513 4.82235 4.02667 4.85807 3.7036 5.08426C3.35744 5.32235 3.1959 5.35807 2.8036 5.29854C2.3536 5.22711 2.30744 5.25092 2.30744 5.47711C2.30744 5.79854 2.76898 5.97711 3.35744 5.88188C3.65744 5.83426 3.80744 5.84616 3.80744 5.9414C3.80744 6.01283 3.91129 6.1795 4.04975 6.32235C4.3959 6.6795 4.19975 6.76283 3.69206 6.46521C3.32283 6.23902 3.14975 6.20331 2.5036 6.27473C1.98436 6.32235 1.64975 6.28664 1.3959 6.1795C0.738211 5.88188 0.772826 5.07235 1.4536 4.64378C1.71898 4.46521 1.83436 4.32235 1.78821 4.1914C1.71898 3.98902 1.9959 3.50092 2.3536 3.1914C2.71129 2.89378 3.46129 2.73902 4.13052 2.82235C4.77667 2.89378 5.07667 2.75092 5.07667 2.38188C5.07667 2.09616 5.93052 1.51283 6.4959 1.41759C7.21129 1.29854 8.46898 1.38188 8.84975 1.58426ZM6.4036 5.9295C6.32283 6.48902 6.32283 6.48902 5.8959 6.13188C5.49206 5.77473 5.43436 5.47711 5.75744 5.47711C5.88436 5.47711 6.02283 5.41759 6.05744 5.35807C6.21898 5.08426 6.47283 5.50092 6.4036 5.9295ZM8.12283 5.33426C8.18052 5.4295 8.04206 6.13188 7.88052 6.54854C7.48821 7.56045 7.6036 8.28664 8.15744 8.1795L8.43436 8.13188L8.1459 8.4414C7.9959 8.60807 7.79975 8.90569 7.73052 9.09616C7.52283 9.6795 7.58052 11.3938 7.8459 12.2628C7.97283 12.6914 8.07667 13.0485 8.07667 13.0604C8.07667 13.1438 5.99975 13.0843 5.9536 13.0009C5.91898 12.9414 5.97667 12.7509 6.06898 12.5604C6.16129 12.3819 6.2536 12.0962 6.28821 11.9176C6.32283 11.7509 6.36898 11.4771 6.4036 11.3104C6.43821 11.1438 6.4959 10.9057 6.51898 10.7747C6.5536 10.6438 6.58821 10.0247 6.59975 9.38188L6.62283 8.22711L5.5036 7.03664C4.88052 6.36997 4.40744 5.77473 4.44206 5.71521C4.58052 5.48902 4.82283 5.59616 5.1459 6.03664C5.54975 6.59616 5.72283 6.73902 6.21898 6.96521C6.74975 7.21521 6.88821 7.06045 6.98052 6.08426L7.06129 5.28664L7.55744 5.25092C7.83436 5.23902 8.08821 5.27473 8.12283 5.33426ZM10.7074 5.72711C10.7882 6.1795 8.57283 7.9414 8.28436 7.64378C8.08821 7.4295 8.34206 6.9414 8.76898 6.75092C9.01129 6.64378 9.35744 6.34616 9.54206 6.08426C9.71513 5.82235 9.9459 5.58426 10.0382 5.54854C10.3613 5.45331 10.6728 5.53664 10.7074 5.72711ZM9.09206 5.66759C9.35744 5.73902 9.3459 5.75092 8.99975 5.96521C8.56129 6.25092 8.56129 6.25092 8.63052 5.89378C8.68821 5.57235 8.69975 5.56045 9.09206 5.66759Z" fill="black"/>
</svg>
