<svg width="15" height="15" viewBox="0 0 15 15" fill="none" xmlns="http://www.w3.org/2000/svg">
<path d="M8.92053 1.92733C8.47372 2.30233 8.07478 2.79371 7.96308 3.10405L7.77159 3.63422L7.29287 3.15577C6.47904 2.36698 4.45244 1.86267 4.21308 2.39284C4.10138 2.6256 4.54818 3.5825 4.89925 3.90577C5.13861 4.1256 5.12265 4.13853 4.70776 4.13853C3.78223 4.13853 2.71308 5.03077 2.71308 5.7937C2.71308 5.89715 2.53755 6.14284 2.31414 6.36267C1.86733 6.78939 1.77159 7.57819 2.10669 8.05664C2.2184 8.21181 2.29818 8.61267 2.31414 8.94888C2.31414 9.42733 2.40989 9.63422 2.74499 9.9187C3.04818 10.1644 3.17584 10.4101 3.15989 10.7075C3.14393 11.1342 3.62265 11.7032 4.13329 11.8325C4.27691 11.8713 4.48435 12.0653 4.5801 12.2722C4.97904 13.1385 6.63861 13.4618 7.6918 12.8799C7.99499 12.7118 8.56946 12.5437 8.9684 12.492C9.7184 12.4015 10.245 12.0653 10.4524 11.548C10.5003 11.3799 10.7237 11.2118 10.9471 11.173C11.4897 11.0566 12.128 10.3454 12.128 9.85405C12.128 9.5825 12.2397 9.40146 12.4471 9.31095C12.9578 9.09112 13.2929 8.44457 13.1652 7.90146C13.1014 7.64284 13.0695 7.1256 13.0695 6.7506C13.1014 5.96181 12.9258 5.6256 12.2397 5.16008L11.761 4.82388L12.1918 4.35836C13.0216 3.47905 11.9844 3.05233 10.2131 3.55664C9.23967 3.82819 9.25563 3.73767 10.2769 2.87129C11.4737 1.86267 11.4578 1.29371 10.229 1.29371C9.78223 1.29371 9.54287 1.41008 8.92053 1.92733ZM10.3727 1.91439C10.3727 1.96612 10.0216 2.30233 9.57478 2.65146C9.14393 3.0006 8.69712 3.49198 8.60138 3.7506C8.37797 4.30664 8.13861 4.53939 8.13861 4.19026C8.15457 3.76353 8.77691 2.79371 9.38329 2.28939C9.90989 1.84974 10.3727 1.66871 10.3727 1.91439ZM6.0801 3.01353C6.65457 3.32388 7.38861 4.09974 7.26095 4.26784C6.9418 4.68164 4.94712 3.40146 4.94712 2.78077C4.94712 2.61267 5.58542 2.74198 6.0801 3.01353ZM11.6173 4.03508C11.4737 4.41008 10.1333 4.83681 9.55882 4.69457L9.01627 4.56526L9.89393 4.22905C10.8354 3.85405 11.7131 3.76353 11.6173 4.03508ZM5.72904 4.64284C5.88861 4.73336 5.88861 4.77215 5.74499 4.84974C5.63329 4.90146 5.40989 5.19888 5.23435 5.50922C4.8035 6.32388 3.70244 6.44026 3.46308 5.69026C3.23967 5.00491 4.91521 4.22905 5.72904 4.64284ZM7.96308 5.30233C8.15457 5.59974 8.15457 5.69026 7.91521 6.10405C7.29287 7.15146 5.36201 6.62129 5.90457 5.54802C6.28755 4.82388 7.51627 4.68164 7.96308 5.30233ZM9.7184 5.36698C10.8992 5.85836 10.4205 7.35836 9.20776 6.99629C8.64925 6.81526 8.58542 6.68595 8.69712 5.88422C8.82478 5.10836 8.95244 5.0437 9.7184 5.36698ZM11.8567 5.56095C12.4471 5.93595 12.5907 6.5825 12.1439 6.86698C11.6652 7.19026 10.979 6.9575 11.1067 6.53077C11.1546 6.3756 11.0907 6.02646 10.9471 5.76784C10.7078 5.31526 10.7078 5.30233 11.0748 5.30233C11.2822 5.30233 11.6333 5.4187 11.8567 5.56095ZM3.68648 7.26784C3.62265 7.65577 3.51095 7.83681 3.3035 7.86267C2.61733 7.96612 2.29818 7.20319 2.79286 6.62129C3.03223 6.36267 3.0801 6.34974 3.41521 6.53077C3.7184 6.69888 3.76627 6.80233 3.68648 7.26784ZM5.79287 6.9187C6.17584 7.20319 6.20776 7.28077 6.04818 7.52646C5.68116 8.09543 4.96308 8.19888 4.56414 7.73336C3.8301 6.87991 4.81946 6.23336 5.79287 6.9187ZM8.45776 7.26784C9.01627 7.60405 9.06414 7.97905 8.61733 8.37991C7.8035 9.09112 6.20776 8.19888 6.84606 7.39715C6.9418 7.25491 7.14925 7.19026 7.94712 6.99629C7.97904 6.98336 8.20244 7.11267 8.45776 7.26784ZM11.0907 7.55233C11.6014 8.18595 10.5003 9.15577 9.73435 8.75491C9.1918 8.48336 9.44712 7.68164 10.1333 7.43595C10.7875 7.20319 10.8035 7.20319 11.0907 7.55233ZM12.5429 7.81095C12.6705 8.2506 12.2875 8.84543 11.8248 8.89715C11.5056 8.93595 11.4737 8.91008 11.5695 8.70319C11.6333 8.57388 11.729 8.28939 11.7769 8.0825C11.9046 7.46181 12.3833 7.2937 12.5429 7.81095ZM4.29287 8.32819C4.42052 8.44457 4.42052 8.59974 4.30882 8.84543C4.22904 9.02646 4.19712 9.25922 4.24499 9.36267C4.38861 9.67302 3.78223 9.85405 3.38329 9.62129C2.84074 9.32388 2.90457 8.59974 3.47904 8.36698C4.03755 8.12129 4.08542 8.12129 4.29287 8.32819ZM6.55882 8.75491C7.11733 9.18164 7.13329 9.38853 6.67052 9.78939C6.06414 10.3066 5.09074 10.048 4.88329 9.31095C4.75563 8.84543 5.09074 8.59974 6.03223 8.4187C6.06414 8.40577 6.3035 8.56095 6.55882 8.75491ZM9.57478 9.46612C9.57478 9.64715 9.23967 10.1385 9.03223 10.242C8.39393 10.5911 7.38861 10.0997 7.56414 9.53077C7.73967 8.96181 9.57478 8.89715 9.57478 9.46612ZM11.3939 9.60836C11.6652 10.2161 10.5322 11.0437 10.0216 10.6299C9.73435 10.3972 10.1812 9.33681 10.5961 9.27215C11.1227 9.19457 11.2344 9.24629 11.3939 9.60836ZM4.99499 10.3325C5.68116 10.617 5.50563 11.3799 4.72372 11.3799C3.98967 11.3799 3.51095 10.5135 4.11733 10.229C4.26095 10.1515 4.42052 10.1127 4.4684 10.1256C4.51627 10.1515 4.73967 10.242 4.99499 10.3325ZM7.53223 10.6428C8.12265 11.0308 7.85138 11.548 7.0535 11.6127C6.04818 11.6903 5.60138 10.7592 6.51095 10.5006C7.08542 10.3196 7.03755 10.3196 7.53223 10.6428ZM9.55882 11.0437L9.92584 11.367L9.52691 11.6903C9.09606 12.0394 8.69712 12.104 8.29818 11.8972C8.1067 11.8066 8.1067 11.742 8.26627 11.6127C8.36201 11.5351 8.45776 11.3282 8.45776 11.173C8.45776 10.9144 8.58542 10.8368 9.11201 10.7463C9.15989 10.7463 9.36733 10.8756 9.55882 11.0437ZM5.9684 11.9618C6.14393 12.0653 6.6067 12.1558 7.00563 12.1558L7.73967 12.1687L7.3567 12.4144C6.8301 12.7765 5.98435 12.7506 5.48967 12.3497C4.88329 11.8584 5.29818 11.548 5.9684 11.9618Z" fill="currentColor"/>
</svg>
