<svg width="15" height="15" viewBox="0 0 15 15" fill="none" xmlns="http://www.w3.org/2000/svg">
<path d="M7.66539 2.67772C7.38573 2.79826 6.96624 3.11969 6.72472 3.37415C6.11455 4.0304 4.9959 4.04379 4.36031 3.38754C3.02556 2.04826 2.28827 2.35629 2.28827 4.28487C2.28827 5.1554 2.23743 5.36969 1.95777 5.81165C1.23319 6.92326 1.29675 7.48576 2.26285 8.38308L2.8476 8.94558L2.45353 9.29379C1.67811 9.97683 1.58912 11.0081 2.27556 11.2893C2.46624 11.3563 2.72048 11.5974 2.83489 11.8117C2.94929 12.0259 3.15268 12.1867 3.29251 12.1867C3.50861 12.1867 3.54675 12.2536 3.48319 12.5617C3.3815 13.084 3.66116 13.3117 4.14421 13.1108C4.70353 12.8965 5.83489 12.95 6.75014 13.2581C10.2078 14.4099 13.4112 12.7759 13.9705 9.58844C14.479 6.69558 12.7374 4.29826 9.8137 3.85629C9.05099 3.74915 8.75861 3.6554 8.72048 3.49469C8.69506 3.37415 8.6315 3.11969 8.59336 2.93219C8.49167 2.45004 8.27556 2.38308 7.66539 2.67772ZM8.19929 3.61522C8.25014 3.90987 8.25014 4.44558 8.19929 4.79379C8.13573 5.3429 8.17387 5.54379 8.50438 6.21344C8.72048 6.64201 8.89845 7.05719 8.89845 7.15094C8.89845 7.36522 8.212 8.03487 7.43658 8.57058C7.09336 8.81165 6.62302 9.21344 6.40692 9.48129C6.0637 9.89647 6.00014 9.92326 5.75861 9.76254C5.5298 9.62862 5.41539 9.61522 5.13573 9.76254C4.80522 9.92326 4.75438 9.89647 4.32217 9.41433C4.06794 9.11969 3.54675 8.63754 3.13997 8.32951C1.94505 7.39201 1.85607 7.08397 2.47895 6.02594C2.70777 5.65094 2.75861 5.3429 2.75861 4.44558C2.77133 3.82951 2.80946 3.29379 2.8476 3.25362C2.98743 3.10629 3.66116 3.50808 4.11878 4.00362C4.57641 4.49915 4.61455 4.51254 5.18658 4.39201C5.54251 4.32504 5.92387 4.32504 6.12726 4.4054C6.41963 4.51254 6.50861 4.48576 6.67387 4.24469C6.88997 3.92326 7.85607 3.07951 8.02133 3.07951C8.07217 3.07951 8.14845 3.32058 8.19929 3.61522ZM11.0213 4.7804C14.5679 6.25362 14.2756 11.6777 10.6018 12.8027C9.96624 12.9902 9.36878 13.0572 8.58065 13.0036C8.212 12.9768 8.212 12.9768 8.45353 12.7759C8.69506 12.5884 8.69506 12.5617 8.49167 12.4411C8.17387 12.2536 8.212 11.9858 8.58065 11.8117C8.94929 11.6242 8.97472 11.4902 8.68234 11.0349C8.37726 10.5259 8.8476 10.1242 9.5976 10.2581C11.1103 10.5125 12.3306 10.0438 12.3306 9.22683V8.93219L12.051 9.20004C11.4027 9.81612 10.6527 9.97683 9.67387 9.70897C8.18658 9.32058 9.12726 6.81612 10.7925 6.74915C11.1103 6.73576 11.4027 6.70897 11.4281 6.70897C11.4535 6.69558 11.4027 6.60183 11.3137 6.49469C11.0849 6.20004 10.0298 6.22683 9.63573 6.54826L9.33065 6.80272L8.98743 6.10629C8.78404 5.69112 8.65692 5.27594 8.69506 5.07504C8.72048 4.90094 8.75861 4.64647 8.75861 4.51254C8.77133 4.19112 9.92811 4.32504 11.0213 4.7804ZM8.44082 8.91879C8.61878 9.40094 8.5298 9.48129 7.81794 9.53487C7.43658 9.54826 7.11878 9.56165 7.11878 9.54826C7.11878 9.48129 8.17387 8.70451 8.26285 8.70451C8.32641 8.70451 8.40268 8.79826 8.44082 8.91879ZM3.66116 9.54826C3.85183 9.78933 2.78404 10.9277 2.49166 10.8072C2.08488 10.6331 2.32641 9.90987 2.89844 9.58844C3.33065 9.33397 3.4959 9.33397 3.66116 9.54826ZM8.38997 10.1242C8.38997 10.1643 8.27556 10.2983 8.12302 10.4322L7.86878 10.6465L8.12302 11.0081C8.46624 11.45 8.46624 11.45 8.00861 11.6509C7.57641 11.8384 7.55099 11.9322 7.83065 12.3875C8.13573 12.8831 7.84336 12.9367 6.53404 12.5884C5.72048 12.3742 5.22472 12.3072 4.74166 12.3742C3.95353 12.4679 3.92811 12.4009 4.48743 11.6911C4.98319 11.0349 5.56794 10.6197 6.41963 10.2983C7.01709 10.0706 8.38997 9.95004 8.38997 10.1242ZM4.51285 10.4456C4.65268 10.6867 3.8137 11.6643 3.50861 11.6242C3.10183 11.5572 3.12726 11.1956 3.55946 10.7268C3.96624 10.3117 4.36031 10.1911 4.51285 10.4456Z" fill="currentColor"/>
<path d="M7.38552 4.27079C7.10586 4.56543 7.05501 4.71275 7.20756 4.86008C7.24569 4.91365 7.39823 4.76633 7.52535 4.53865C7.81773 4.02972 7.74145 3.89579 7.38552 4.27079Z" fill="currentColor"/>
<path d="M3.30469 4.45865C3.30469 4.75329 3.67333 5.20865 3.68604 4.9274C3.68604 4.61936 3.54621 4.28454 3.41909 4.28454C3.35553 4.28454 3.30469 4.3649 3.30469 4.45865Z" fill="currentColor"/>
<path d="M3.43164 7.20396C3.43164 7.512 3.813 7.90039 4.11808 7.90039C4.44859 7.90039 4.82995 7.64593 4.82995 7.43164C4.82995 7.19057 4.81723 7.19057 4.39774 7.35128C4.15622 7.45843 4.01639 7.43164 3.76215 7.21735C3.44435 6.9495 3.43164 6.9495 3.43164 7.20396Z" fill="currentColor"/>
<path d="M6.10263 7.23059C5.93738 7.33774 5.95009 7.4047 6.19162 7.65916C6.50941 7.99399 7.0306 7.90024 7.29755 7.47166C7.4628 7.19041 7.29755 6.98952 7.09416 7.20381C6.91619 7.39131 6.39501 7.41809 6.33145 7.23059C6.30602 7.15024 6.21704 7.15024 6.10263 7.23059Z" fill="currentColor"/>
</svg>
