<svg width="15" height="15" viewBox="0 0 15 15" fill="none" xmlns="http://www.w3.org/2000/svg">
<path d="M6.9221 1.59216C6.2971 1.91074 5.95335 2.46826 5.82835 3.31782L5.7346 3.96826L5.40648 3.55676C4.8596 2.86649 2.9221 2.20277 2.34398 2.52136C2.15648 2.61428 2.14085 2.77357 2.31273 3.60985C2.65648 5.30897 3.70335 6.14525 5.53148 6.19835C6.37523 6.21162 6.46898 6.25145 6.82835 6.67623C7.26585 7.2072 7.46898 8.601 7.26585 9.88861C7.14085 10.8178 6.93773 10.7116 6.62523 9.51693C6.21898 7.99038 4.9221 7.06118 3.03148 6.92844C1.1096 6.80897 0.906477 7.04791 1.75023 8.37534C2.6721 9.86207 3.5471 10.3665 5.20335 10.393C6.26585 10.4196 6.2971 10.4196 6.50023 10.8311C6.68773 11.2028 6.65648 11.3753 6.32835 12.2913C5.8596 13.5523 5.8596 13.5391 6.2346 13.5391C6.40648 13.5391 6.59398 13.3798 6.71898 13.1408C7.09398 12.3709 7.5471 12.1983 8.90648 12.2913C10.5002 12.4107 11.7346 11.8532 12.4534 10.7116C12.7659 10.1806 12.6409 9.99481 11.7659 9.84879C10.0471 9.54348 8.15648 10.2736 7.7346 11.4019C7.68773 11.5612 7.57835 11.6806 7.51585 11.6806C7.45335 11.6806 7.5471 11.2426 7.71898 10.7116C8.12523 9.51693 9.09398 8.37534 9.70335 8.36207C12.1252 8.33552 13.7502 6.70277 13.9377 4.11428L13.9846 3.51693L13.4065 3.54348C12.6096 3.58331 10.9534 4.24702 10.1877 4.83109C9.31273 5.50808 8.90648 6.26472 8.90648 7.22047C8.90648 7.83109 8.82835 8.04348 8.5471 8.30897L8.18773 8.62755L7.9221 7.68507C7.78148 7.16738 7.4221 6.30454 7.12523 5.77357C6.00023 3.70277 6.39085 1.85764 7.96898 1.85764C8.93773 1.85764 9.59398 2.83994 8.96898 3.37092C8.53148 3.75587 8.01585 3.59658 8.2971 3.15853C8.53148 2.78685 8.31273 2.58773 7.95335 2.86649C7.15648 3.47711 8.07835 4.37977 9.14085 4.03463C9.4846 3.91516 9.84398 3.278 9.84398 2.7603C9.84398 1.60543 8.1721 0.941713 6.9221 1.59216ZM4.18773 3.37092C4.65648 3.57003 5.45335 4.41959 5.68773 4.96384C5.81273 5.25587 5.89085 5.29569 4.64085 4.40631C3.56273 3.62313 3.45335 3.92844 4.50023 4.79127C5.6096 5.7072 5.62523 5.83994 4.6096 5.52136C3.76585 5.2426 3.3596 4.83109 3.0471 3.94171C2.65648 2.83994 2.81273 2.7603 4.18773 3.37092ZM13.219 4.80454C13.0002 6.21162 12.094 7.23375 10.719 7.6187C10.2971 7.73817 9.9221 7.80454 9.87523 7.778C9.84398 7.73817 10.344 7.19392 11.0159 6.57003C12.1877 5.48154 12.4377 5.04348 11.6721 5.48154C11.469 5.58773 10.9221 6.07888 10.469 6.55676C9.4846 7.59215 9.39085 7.6187 9.53148 6.86207C9.70335 5.86649 10.4065 5.1895 11.9534 4.52578C13.2659 3.95499 13.344 3.96826 13.219 4.80454ZM3.95335 7.64525C4.76585 7.88419 5.93773 8.87977 5.93773 9.33109V9.59658L5.59398 9.33109C5.06273 8.93286 3.7971 8.22932 3.6096 8.22932C3.25023 8.22932 3.4846 8.46826 4.43773 9.09215C5.00023 9.45056 5.40648 9.79569 5.3596 9.86207C5.25023 10.0081 4.2971 9.86207 3.7346 9.60985C3.2971 9.42401 2.03148 7.93729 2.03148 7.6187C2.03148 7.36649 3.03148 7.37977 3.95335 7.64525ZM11.344 10.3532C11.8596 10.3532 11.8127 10.6187 11.219 11.1099C10.594 11.6276 10.0315 11.8134 9.1721 11.8134L8.51585 11.8001L9.6096 11.3222C10.8909 10.7647 10.7815 10.5922 9.46898 11.0833C8.39085 11.4815 8.28148 11.455 8.89085 10.9638C9.37523 10.5656 10.4221 10.1939 10.7502 10.2868C10.8752 10.3267 11.1409 10.3532 11.344 10.3532Z" fill="currentColor"/>
</svg>
