<svg width="15" height="15" viewBox="0 0 15 15" fill="none" xmlns="http://www.w3.org/2000/svg">
<path d="M6.07855 1.74213C4.52592 1.88499 3.23645 2.37071 2.6575 3.04213C2.36803 3.37071 2.34171 3.54213 2.30224 5.37071C2.23645 8.44213 2.10487 8.94213 1.09171 10.2278C0.0785533 11.5278 0.618027 12.2421 2.14434 11.6564C2.69697 11.4421 2.73645 11.485 2.36803 11.9993C1.42066 13.3136 2.88119 13.6707 5.26276 12.7136C6.85487 12.0564 8.1575 12.0564 9.27592 12.6707C11.2101 13.7421 12.2364 13.4993 11.5786 12.1136C11.2496 11.4421 11.2496 11.385 11.5522 11.5564C11.9864 11.8136 13.0654 11.885 13.4207 11.685C13.9338 11.385 13.8943 11.0564 13.2496 10.285C12.4075 9.25642 12.2233 8.44213 12.2496 5.62785C12.2628 3.64213 12.2364 3.34213 12.0128 3.01356C11.3154 1.97071 8.97329 1.47071 6.07855 1.74213ZM10.1575 2.57071C11.8549 3.12785 12.1443 3.89928 10.8943 4.54213C8.89434 5.59928 4.71013 5.48499 3.3154 4.34213C2.8154 3.92785 2.78908 3.71356 3.19697 3.34213C4.3154 2.27071 7.99961 1.87071 10.1575 2.57071ZM3.3154 5.08499C5.07855 6.07071 9.13118 6.11356 11.1443 5.14213L11.697 4.87071V6.54213C11.697 7.67071 11.7759 8.47071 11.9207 8.98499C12.1443 9.82785 12.6838 10.8564 12.8943 10.8564C12.9733 10.8564 13.0259 10.9278 13.0259 11.0136C13.0259 11.2278 11.8943 11.1136 11.3812 10.8421C11.0917 10.685 10.947 10.485 10.8154 9.95642C10.5917 9.09928 10.3286 9.05642 10.4338 9.88499C10.5786 11.0564 10.6838 11.4993 10.9338 12.0564C11.2496 12.7707 11.2628 12.7564 10.7628 12.6421C9.80224 12.4136 9.13118 11.9136 8.97329 11.2993C8.74961 10.5278 8.48645 10.3421 8.59171 11.0421C8.63118 11.3421 8.63118 11.5707 8.57855 11.5707C6.36803 11.6564 6.03908 11.6993 5.19697 12.0278C3.44697 12.7136 2.76276 12.8707 2.76276 12.6278C2.76276 12.5707 2.94697 12.1278 3.17066 11.6278C3.60487 10.6707 3.82855 9.42785 3.5654 9.42785C3.48645 9.42785 3.3154 9.68499 3.19697 10.0136C2.97329 10.6421 2.19697 11.1421 1.47329 11.1421H1.13118L1.60487 10.6136C2.47329 9.59928 3.02592 7.39928 2.86803 5.55642C2.78908 4.75642 2.77592 4.78499 3.3154 5.08499Z" fill="currentColor"/>
<path d="M6.1178 2.71296C3.69675 3.18439 4.4599 4.31296 7.22306 4.34153C9.14412 4.35582 10.2625 3.78439 9.64412 3.12725C9.23622 2.68439 7.35464 2.47011 6.1178 2.71296ZM9.24938 3.25582L9.52569 3.55582L8.93359 3.84153C7.72306 4.44153 4.18359 3.91296 5.24938 3.29868C6.13096 2.78439 8.78885 2.75582 9.24938 3.25582Z" fill="currentColor"/>
<path d="M6.28928 3.44227C6.07875 3.58513 6.59191 3.65656 7.47349 3.59941C7.92086 3.57084 8.28928 3.48513 8.28928 3.39941C8.28928 3.25656 6.52612 3.28513 6.28928 3.44227Z" fill="currentColor"/>
<path d="M10.4727 3.49834C10.3674 3.92691 9.90692 4.28405 9.10429 4.51262C8.65692 4.64119 8.59113 4.69834 8.82797 4.69834C9.70955 4.72691 10.7885 4.05548 10.7885 3.46977C10.7885 3.02691 10.578 3.04119 10.4727 3.49834Z" fill="currentColor"/>
<path d="M3.92159 3.37165C3.56633 3.74308 4.04001 4.38594 4.75054 4.50022L5.19791 4.58594L4.80317 4.38594C4.3558 4.15737 4.13212 3.90022 4.06633 3.52879C4.04001 3.37165 3.97422 3.31451 3.92159 3.37165Z" fill="currentColor"/>
<path d="M10.4345 6.7993C10.474 7.3993 10.5793 7.95644 10.6582 8.05644C10.7898 8.17072 10.8029 7.97072 10.7372 7.14215C10.6977 6.55644 10.6582 5.98501 10.6582 5.88501C10.6582 5.7993 10.5924 5.71358 10.5135 5.71358C10.4082 5.71358 10.3819 6.04215 10.4345 6.7993Z" fill="currentColor"/>
<path d="M3.81485 5.95648C3.80169 6.02791 3.77537 6.45648 3.7359 6.92791C3.67011 7.58505 3.68327 7.7422 3.81485 7.62791C4.02537 7.39934 4.15695 5.85648 3.95958 5.85648C3.88064 5.85648 3.81485 5.89934 3.81485 5.95648Z" fill="currentColor"/>
<path d="M4.89369 6.95721C4.8279 7.10007 4.73579 7.55721 4.68316 7.98578C4.63053 8.41435 4.55158 8.94293 4.51211 9.15721C4.39369 9.81435 4.68316 9.64293 4.84105 8.95721C5.02527 8.15721 5.18316 6.71435 5.09105 6.71435C5.03842 6.71435 4.95948 6.82864 4.89369 6.95721Z" fill="currentColor"/>
<path d="M6.78852 7.14291C6.67009 7.82862 6.69641 9.02863 6.82799 8.94291C7.0122 8.81434 7.14378 7.20005 6.99904 6.92862C6.90694 6.72862 6.86746 6.7572 6.78852 7.14291Z" fill="currentColor"/>
<path d="M8.94727 7.80025C8.94727 8.71453 9.15779 9.75739 9.32884 9.65739C9.44727 9.57168 9.18411 7.20025 9.03937 7.05739C8.98674 7.00025 8.94727 7.32882 8.94727 7.80025Z" fill="currentColor"/>
<path d="M6.45976 10.6284C6.38082 10.857 6.32819 11.157 6.3545 11.2713C6.42029 11.6284 6.73608 10.8999 6.67029 10.5284C6.63082 10.2427 6.61766 10.2427 6.45976 10.6284Z" fill="currentColor"/>
<path d="M5.02563 10.9556C4.78879 11.4128 4.81511 11.6842 5.07826 11.3985C5.19669 11.2842 5.26247 11.0556 5.23616 10.9128C5.18353 10.6556 5.17037 10.6699 5.02563 10.9556Z" fill="currentColor"/>
</svg>
