<svg width="15" height="15" viewBox="0 0 15 15" fill="none" xmlns="http://www.w3.org/2000/svg">
<path d="M7.02104 1.09945C3.92529 1.51374 0.941248 5.98517 1.45189 9.39945C2.1221 13.8137 8.56891 15.5709 12.1753 12.3423C14.2817 10.4423 14.3136 7.07088 12.2391 3.92802C10.9944 2.01374 8.84018 0.856595 7.02104 1.09945ZM8.48912 1.94231C10.037 2.37088 11.4732 3.88517 12.4625 6.14231C13.037 7.41374 13.0051 9.84231 12.4147 10.7423C11.4412 12.1995 10.3083 12.928 8.66465 13.1137C4.45189 13.5995 1.61146 10.9423 2.45721 7.28517C3.27104 3.78517 6.11146 1.27088 8.48912 1.94231Z" fill="currentColor"/>
<path d="M8.76078 3.58506C8.18631 4.09934 8.79269 5.0422 9.63844 4.97077C10.3246 4.91363 10.3884 4.35649 9.81397 3.72791C9.31929 3.19934 9.20759 3.18506 8.76078 3.58506Z" fill="currentColor"/>
<path d="M5.17063 3.98516C3.95787 4.65658 3.89404 6.28516 5.1068 6.28516C6.46319 6.28516 7.21319 4.45658 6.08021 3.92801C5.68127 3.75658 5.58553 3.75658 5.17063 3.98516Z" fill="currentColor"/>
<path d="M9.54225 6.89903C8.66459 7.55617 8.52097 8.4276 9.19119 9.1276C10.0848 10.0847 11.9199 9.29903 11.7444 8.0276C11.5529 6.7276 10.4997 6.17046 9.54225 6.89903Z" fill="currentColor"/>
<path d="M3.39828 7.59991C3.06318 7.98563 3.06318 8.28563 3.35041 8.59991C3.82914 9.12848 4.38765 8.37134 3.98871 7.69991C3.79722 7.38563 3.60573 7.35706 3.39828 7.59991Z" fill="currentColor"/>
<path d="M5.31412 9.0567C4.02157 10.1138 4.85136 12.0424 6.47902 11.771C7.22902 11.6424 7.85136 10.8424 7.80349 10.0567C7.69178 8.58527 6.47902 8.09956 5.31412 9.0567Z" fill="currentColor"/>
<path d="M9.97296 11.2857C9.81338 11.4428 9.7336 11.6571 9.79743 11.7857C9.97296 12.2142 11.0102 11.6999 11.0102 11.1857C11.0102 10.8999 10.2921 10.9714 9.97296 11.2857Z" fill="currentColor"/>
</svg>
