<svg width="15" height="15" viewBox="0 0 15 15" fill="none" xmlns="http://www.w3.org/2000/svg">
<path d="M5.18126 1.89334C5.05755 2.12635 4.9493 2.65062 4.9493 3.07295C4.9493 3.78654 4.93384 3.81567 4.68642 3.61178C3.94415 3.0147 2.8926 3.04382 2.64518 3.67004C2.506 4.01955 2.66064 4.70402 2.93899 5.0244C3.07817 5.1846 2.98539 5.27198 2.5524 5.47586C1.51631 5.92732 1.14518 6.93217 1.67095 7.77683C1.9493 8.21373 1.96477 8.3011 1.76374 8.4613C1.33075 8.79625 1.48539 9.74285 2.08848 10.2526C2.47508 10.5875 2.59879 10.7914 2.53693 11.0244C2.41322 11.4613 2.87714 12.2186 3.32559 12.3205C3.54209 12.3642 3.71219 12.4953 3.71219 12.5972C3.71219 12.9322 4.29982 13.4128 4.84106 13.5001C5.27405 13.5584 5.45961 13.5001 5.90807 13.1215C6.21735 12.8739 6.57302 12.67 6.71219 12.67C7.34621 12.67 7.87198 12.2477 7.9957 11.6215C8.10394 11.1409 8.21219 10.9807 8.45961 10.9516C8.92353 10.8933 9.58848 10.1215 9.58848 9.64091C9.58848 9.43703 9.75858 9.08751 9.97508 8.88363C10.8411 8.02441 10.4854 6.71373 9.2792 6.33508L8.76889 6.17489L9.68126 5.83994C10.8874 5.40305 11.6452 4.76227 12.2947 3.58266C13.1761 1.99528 13.0524 1.71858 11.5215 1.66033C9.78951 1.58751 8.19673 2.19916 7.50085 3.20402C7.12972 3.72829 6.95961 3.75741 6.95961 3.2914C6.95961 1.84965 5.73796 0.888482 5.18126 1.89334ZM11.9081 2.47586C11.9081 3.67004 9.80497 5.38848 8.35137 5.38848L7.65549 5.37392L8.27405 4.87877C8.59879 4.61664 9.2792 4.17974 9.77405 3.90305C10.6091 3.45159 10.872 3.20402 10.5163 3.20402C10.1606 3.20402 8.69157 4.00499 7.91838 4.61664C6.91322 5.43217 6.80497 5.37392 7.50085 4.38363C8.49054 2.97101 9.41838 2.4613 11.1349 2.35936C11.6143 2.33023 11.9081 2.37392 11.9081 2.47586ZM6.15549 2.94188C6.34106 3.61178 6.38745 5.43217 6.21735 5.33023C5.78436 5.08266 5.47508 2.47586 5.87714 2.47586C5.95446 2.47586 6.07817 2.69431 6.15549 2.94188ZM4.14518 4.13606C4.67095 4.39819 5.35137 5.06809 5.21219 5.19916C5.01116 5.37392 3.88229 4.93703 3.57302 4.57295C3.07817 3.97586 3.37198 3.75741 4.14518 4.13606ZM3.8359 6.58266C3.91322 7.48557 2.92353 8.08266 2.42869 7.41275C1.96477 6.8011 2.64518 5.91275 3.48023 6.00013C3.71219 6.02926 3.80497 6.17489 3.8359 6.58266ZM5.95446 6.26227C6.54209 6.87392 6.06271 7.96615 5.25858 7.7914C4.42353 7.60207 4.2225 6.77198 4.88745 6.27683C5.39776 5.89819 5.59879 5.89819 5.95446 6.26227ZM8.10394 6.77198C8.42869 7.238 8.30497 7.67489 7.79467 7.89334C7.06786 8.21373 6.57302 7.29625 7.06786 6.50984C7.2225 6.26227 7.87198 6.42246 8.10394 6.77198ZM9.55755 7.31081C10.0369 7.76227 9.54209 8.59237 8.98539 8.3011C8.7225 8.17004 8.67611 8.08266 8.79982 7.96615C8.8926 7.87877 8.96992 7.66033 8.96992 7.47101C8.96992 7.10693 9.26374 7.03411 9.55755 7.31081ZM4.28436 8.17004C4.45446 8.33023 4.23796 9.11664 3.89776 9.50984C3.41838 10.0487 2.32044 9.84479 2.32044 9.20402C2.32044 8.89819 2.78436 8.44674 3.09363 8.44674C3.23281 8.44674 3.48023 8.34479 3.65033 8.22829C4.00601 7.98072 4.06786 7.96615 4.28436 8.17004ZM6.61941 8.47586C7.16064 8.98557 6.57302 10.0487 5.75343 10.0487C5.21219 10.0487 4.9493 9.81567 4.9493 9.33508C4.9493 8.82538 5.08848 8.67974 5.7225 8.49042C6.4493 8.27198 6.40291 8.27198 6.61941 8.47586ZM8.81528 9.48072C8.81528 9.87392 8.36683 10.2089 7.90291 10.1652C7.34621 10.1069 7.23796 8.94188 7.7792 8.738C8.18126 8.60693 8.81528 9.05839 8.81528 9.48072ZM4.74827 10.5147C5.18126 10.8933 5.19673 11.1263 4.79466 11.505C4.40807 11.8691 3.8359 11.8836 3.48023 11.505C3.00085 11.0098 3.38745 10.4273 4.31528 10.2089C4.36168 10.1943 4.54724 10.3399 4.74827 10.5147ZM7.08332 10.7623C7.45446 10.9807 7.23796 11.6943 6.75858 11.8545C5.87714 12.1458 5.3359 11.272 6.14003 10.8642C6.63487 10.6021 6.80497 10.5875 7.08332 10.7623ZM5.56786 12.5244C5.56786 12.6992 4.88745 12.8157 4.73281 12.67C4.50085 12.4516 5.11941 12.0729 5.36683 12.2623C5.47508 12.3496 5.56786 12.4662 5.56786 12.5244Z" fill="currentColor"/>
</svg>
