<svg width="15" height="15" viewBox="0 0 15 15" fill="none" xmlns="http://www.w3.org/2000/svg">
<path d="M7.85954 1.62308C7.6802 1.78291 7.43563 2.0657 7.35411 2.26242C7.20737 2.53291 7.10954 2.5821 6.88128 2.50832C6.73454 2.45914 6.27802 2.40996 5.87041 2.40996C3.81607 2.38537 4.82694 4.58619 7.27259 5.45914L8.20194 5.79111L8.08781 6.35669C8.03889 6.66406 7.98998 7.20505 7.98998 7.54931V8.17636L7.6965 7.85669C6.91389 6.98373 5.75628 6.49193 4.50085 6.50423C3.53889 6.51652 3.26172 6.66406 3.26172 7.18046C3.26172 8.23783 5.41389 9.46734 7.28889 9.46734H8.00628L7.98998 10.119C7.90846 12.1108 7.97368 12.6641 8.29976 12.6641C8.8215 12.6641 8.88672 12.4428 8.88672 10.6968V9.03701L9.75085 8.95095C11.9845 8.70505 13.6965 7.59849 13.6965 6.39357C13.6965 6.00013 13.4682 5.90177 12.5389 5.90177C11.3813 5.90177 9.65302 6.73783 9.27802 7.46324C9.00085 8.02882 8.8052 7.74603 8.8052 6.77472V5.8157L9.76715 5.36078C11.8052 4.41406 12.8487 2.91406 12.0172 2.11488C11.8052 1.90587 11.0063 1.93046 10.4356 2.15177C9.96281 2.33619 9.9465 2.3239 9.84868 2.02882C9.63672 1.36488 8.47911 1.13128 7.85954 1.62308ZM9.03346 2.23783C9.1802 2.38537 9.29433 2.71734 9.29433 2.96324C9.29433 3.60259 9.40846 3.61488 10.24 3.0739C11.2835 2.37308 11.7889 2.43455 11.365 3.22144C11.1204 3.66406 9.40846 4.91816 9.04976 4.91816C8.91933 4.91816 8.75628 4.99193 8.69107 5.09029C8.52802 5.3116 6.73454 4.54931 6.1965 4.03291C5.8052 3.65177 5.51172 2.98783 5.69107 2.90177C5.8052 2.84029 6.89759 3.20914 7.38672 3.46734C7.74541 3.66406 7.98998 3.44275 7.98998 2.88947C7.98998 2.50832 8.38128 1.96734 8.64215 1.96734C8.72368 1.96734 8.90302 2.09029 9.03346 2.23783ZM12.7182 6.75013C12.7182 7.25423 11.1204 8.13947 9.97911 8.27472C9.34324 8.34849 9.34324 8.36078 9.89759 7.73373C10.6476 6.88537 12.7182 6.15996 12.7182 6.75013ZM6.06607 7.47554C6.63672 7.75832 7.63128 8.71734 7.38672 8.74193C6.21281 8.86488 4.07694 7.88128 4.07694 7.22964C4.07694 6.92226 5.23454 7.05751 6.06607 7.47554Z" fill="currentColor"/>
</svg>
