<svg width="15" height="15" viewBox="0 0 15 15" fill="none" xmlns="http://www.w3.org/2000/svg">
<path d="M11.0997 1.6566C10.8134 1.85225 9.95429 2.37399 9.20429 2.83051L7.84066 3.65225L7.52702 3.32616C7.1452 2.92182 7.33611 2.90877 5.9452 3.52182C4.84066 4.00443 4.70429 4.12182 4.77247 4.55225C4.78611 4.64356 4.66338 4.86529 4.49975 5.02182C4.13157 5.40008 4.33611 5.96095 4.94975 6.23486C5.44066 6.4566 5.42702 6.46964 4.43157 6.56095C3.43611 6.65225 2.42702 6.97834 2.12702 7.29138C1.97702 7.4479 1.8952 7.85225 1.85429 8.63486C1.79975 9.86095 1.54066 10.5653 0.831566 11.4001C0.013384 12.3653 0.667929 12.8088 2.1952 12.3392C3.04066 12.0653 3.04066 12.0653 2.9452 12.4827C2.75429 13.3566 3.53157 13.4479 5.01793 12.7305C6.21793 12.1566 6.3952 12.1566 7.88157 12.6914C9.44975 13.2783 9.8452 13.3436 10.227 13.0827C10.4725 12.9131 10.5134 12.7957 10.4588 12.4436C10.4179 12.1957 10.3907 12.0001 10.4179 12.0001C10.4316 12.0001 10.7588 12.0783 11.127 12.1827C13.2407 12.7696 14.0861 12.4044 13.0907 11.3349C12.4634 10.6566 12.1361 9.67834 12.1361 8.49138C12.1361 7.23921 11.8634 6.92616 10.5134 6.65225C9.6952 6.48269 8.63157 5.68703 8.75429 5.33486C8.78157 5.26964 9.68157 4.70877 10.7725 4.08269C12.4907 3.09138 12.7634 2.88269 12.8316 2.54356C12.9679 1.85225 12.5043 1.31747 11.7816 1.30442C11.6997 1.30442 11.3861 1.46095 11.0997 1.6566ZM12.1634 2.0479C12.2997 2.16529 12.4088 2.30877 12.4088 2.37399C12.4088 2.47834 10.1997 3.91312 10.0361 3.91312C9.9952 3.91312 9.66793 4.08269 9.31338 4.30443C8.60429 4.7479 8.24975 4.80008 8.12702 4.48703C7.97702 4.12182 8.03157 4.06964 8.83611 3.63921C9.25884 3.40442 10.077 2.89573 10.6361 2.51747C11.7952 1.7479 11.8225 1.7479 12.1634 2.0479ZM7.22702 3.79573C7.22702 4.10877 8.07247 5.60877 8.52247 6.07834C8.78157 6.36529 8.98611 6.67834 8.95884 6.78269C8.90429 7.13486 7.67702 7.73486 6.89975 7.80008L6.17702 7.85225L6.08157 7.22616C5.98611 6.56095 5.68611 5.58269 5.37247 4.85225L5.18157 4.42182L6.02702 4.04356C6.95429 3.62616 7.22702 3.57399 7.22702 3.79573ZM5.59066 7.38269C5.59066 7.57834 5.48157 7.81312 5.35884 7.89138C5.14066 8.0479 5.18157 8.07399 5.63157 8.15225C6.29975 8.26964 9.04066 8.13921 9.72247 7.9566C10.4316 7.76095 10.3634 7.59138 9.61338 7.69573C8.91793 7.80008 8.86338 7.73486 9.31338 7.33051C9.85884 6.83486 11.7407 7.31747 11.5088 7.89138C11.1407 8.79138 4.48611 9.01312 2.76793 8.19138C1.88157 7.77399 3.16338 7.08269 4.88157 7.0566C5.56338 7.04356 5.59066 7.0566 5.59066 7.38269ZM3.47702 9.70443C3.46338 10.6044 3.64066 10.6566 3.76338 9.79573L3.8452 9.1566L6.05429 9.16964C7.25429 9.18269 8.71338 9.16964 9.27247 9.13051L10.2952 9.06529L10.3361 9.67834C10.3634 10.0044 10.4588 10.3436 10.5407 10.4218C10.677 10.5262 10.7043 10.3696 10.6634 9.73051C10.6088 8.96095 10.6225 8.90877 10.977 8.76529C11.5225 8.53051 11.5497 8.5566 11.6316 9.35225C11.7134 10.2131 12.1088 11.1914 12.5452 11.6088C12.9952 12.0392 12.8043 12.0523 11.3997 11.674C9.88611 11.2696 9.77702 11.2957 9.8452 12.1175C9.89975 12.8479 9.80429 12.8479 8.1952 12.2218C6.65429 11.6349 6.13611 11.6218 4.90884 12.1827C3.59975 12.7827 3.49066 12.7827 3.59975 12.1827C3.76338 11.387 3.55884 11.3218 2.27702 11.7392C1.66338 11.9479 1.1452 12.0914 1.11793 12.0783C1.09066 12.0523 1.32247 11.6609 1.62247 11.2175C1.97702 10.6957 2.1952 10.2001 2.24975 9.80877C2.41338 8.5566 2.38611 8.59573 2.97248 8.79138C3.47702 8.96095 3.47702 8.96095 3.47702 9.70443Z" fill="currentColor"/>
<path d="M6.96817 6.26101C6.6409 6.40449 6.40908 6.56101 6.44999 6.61319C6.57272 6.71753 7.77272 6.27406 7.77272 6.11753C7.77272 5.94797 7.64999 5.97406 6.96817 6.26101Z" fill="currentColor"/>
<path d="M4.02179 7.39517C3.27179 7.57778 3.3127 7.87778 4.08997 8.00822C4.52633 8.08648 4.53997 8.07343 4.22633 7.943L3.88542 7.79952L4.32179 7.643C5.12633 7.36908 4.90815 7.18648 4.02179 7.39517Z" fill="currentColor"/>
<path d="M7.02273 9.95185C6.87273 10.304 7.07727 11.204 7.25454 10.9171C7.33636 10.7605 7.33636 10.5127 7.25454 10.1997C7.15909 9.82141 7.10454 9.76924 7.02273 9.95185Z" fill="currentColor"/>
<path d="M4.58229 10.4997C4.36411 11.3736 4.35047 11.504 4.48684 11.4127C4.65047 11.3214 4.82775 10.5127 4.73229 10.2779C4.70502 10.1866 4.6232 10.2779 4.58229 10.4997Z" fill="currentColor"/>
<path d="M8.72656 10.643C8.72656 10.8516 8.82202 11.1516 8.93111 11.2951C9.13565 11.5299 9.14929 11.5169 9.05384 11.0864C8.91747 10.4082 8.7402 10.1473 8.72656 10.643Z" fill="currentColor"/>
</svg>
