<svg width="15" height="15" viewBox="0 0 15 15" fill="none" xmlns="http://www.w3.org/2000/svg">
<path d="M7.96707 0.90115C7.83148 0.960139 7.4586 1.35621 7.4586 1.4489C7.4586 1.48261 7.40775 1.55845 7.35691 1.61744C7.29758 1.68486 7.21284 1.79441 7.16199 1.87025C6.98402 2.15677 5.91623 3.63149 5.81453 3.73261C5.46707 4.08654 4.61114 5.48542 4.53487 5.8225C4.47555 6.08374 4.47555 6.08374 4.29758 5.92362C3.41623 5.14834 2.27216 4.86183 1.79758 5.30003C0.907752 6.10902 1.45013 7.91239 2.94165 9.10902C3.27216 9.37025 3.39928 9.53879 3.24674 9.50508C2.84843 9.42924 2.12809 10.3562 2.11114 10.9714C2.08572 11.6624 2.26368 11.8899 2.88233 11.9489C3.28911 11.9826 3.89928 11.7298 3.89928 11.5191C3.89928 11.4854 3.93318 11.4601 3.98402 11.4601C4.03487 11.4601 4.03487 11.536 3.98402 11.6792C3.75521 12.2691 3.95013 12.5809 4.64504 12.6905C4.9925 12.741 5.00097 12.7495 5.00097 13.095C5.00097 13.5332 5.06029 13.6174 5.43318 13.7186C5.82301 13.8197 6.11962 13.6764 6.3908 13.2382C6.55182 12.9854 6.67046 12.9096 6.9247 12.8674C7.46707 12.7747 7.5264 12.7916 7.58572 13.0528C7.81453 14.0894 9.27216 13.9461 9.25521 12.8843C9.24674 12.6821 9.28911 12.6568 9.59419 12.6146C10.1366 12.5388 10.3993 12.2354 10.2722 11.8141C10.1196 11.3085 10.1366 11.2663 10.4078 11.4012C11.2637 11.8478 11.7552 11.9068 12.34 11.6287C13.3654 11.1315 13.0942 9.80003 11.8145 9.05003C11.6705 8.95733 11.6789 8.94048 11.9501 8.83093C12.5772 8.56969 13.3739 7.64272 13.645 6.86744C13.8569 6.25227 13.8569 5.97418 13.645 5.56126C13.1705 4.64272 11.9247 4.77756 10.5349 5.90677C10.1959 6.18486 9.90775 6.40396 9.89928 6.40396C9.88233 6.40396 9.87385 6.20171 9.86538 5.95733C9.85691 5.72138 9.77216 5.09778 9.67894 4.59216C9.57724 4.07812 9.48402 3.5725 9.4586 3.45452C9.40775 3.17643 9.22979 2.43486 9.17046 2.27475C9.14504 2.20733 9.11962 2.10621 9.11114 2.06407C9.00097 1.23823 8.46707 0.698903 7.96707 0.90115ZM8.4586 2.02194C8.4925 2.04722 8.5264 2.12306 8.53487 2.19048C8.54335 2.25789 8.61114 2.57812 8.67894 2.90677C8.75521 3.22699 8.87385 3.80003 8.94165 4.17081C9.01792 4.5416 9.09419 4.92924 9.11114 5.03036L9.15352 5.20733L8.83148 5.05564C8.00945 4.65115 7.79758 4.60059 6.83148 4.60059L5.88233 4.59216L6.09419 4.28879C6.39928 3.87587 6.81453 3.31969 7.16199 2.86463C7.32301 2.65396 7.63657 2.24104 7.84843 1.93767L8.25521 1.38991L8.33148 1.68486C8.37385 1.84497 8.43318 1.99666 8.4586 2.02194ZM7.74674 5.27475C9.22979 5.64553 9.69589 6.50508 8.94165 7.48261C8.19589 8.46014 6.65352 8.78036 5.79758 8.13149C5.05182 7.56688 4.79758 6.19329 5.32301 5.57812C5.67894 5.1652 6.76368 5.03036 7.74674 5.27475ZM13.0772 5.75508C13.5179 6.33654 12.6196 7.95452 11.6111 8.39272C11.4501 8.46014 11.2976 8.54441 11.2722 8.57812C11.1789 8.70452 10.6789 8.83935 10.6789 8.73823C10.6789 8.67924 10.4671 8.41801 10.2128 8.14834L9.75521 7.65958L10.0603 7.22138C10.662 6.3534 11.5942 5.69609 12.4162 5.55284C12.8569 5.48542 12.8823 5.49385 13.0772 5.75508ZM3.00945 5.80565C3.14504 5.86463 3.39928 6.00789 3.56029 6.1343C3.72131 6.2607 3.93318 6.40396 4.0264 6.44609C4.20436 6.53879 4.48402 7.04441 4.5264 7.34778C4.53487 7.37306 4.56029 7.43205 4.60267 7.46576C4.72979 7.60059 4.65352 7.82812 4.36538 8.13992C4.20436 8.31688 4.06877 8.50227 4.06877 8.55284C4.06877 8.6034 3.9925 8.7298 3.89928 8.83093L3.72979 9.00789L3.4925 8.80565C3.36538 8.68767 3.12809 8.48542 2.9586 8.34216C2.30606 7.80284 1.76368 6.53036 1.96707 5.99104C2.08572 5.67081 2.48402 5.6034 3.00945 5.80565ZM9.75521 8.48542C10.4078 9.17643 10.9162 10.095 10.7976 10.3983C10.7467 10.5332 10.3993 10.7017 10.1705 10.7017C9.98402 10.7017 9.73826 10.2888 9.58572 9.71576C9.4586 9.25227 9.23826 8.99104 9.03487 9.06688C8.83996 9.14272 8.86538 9.28598 9.31453 10.5332C9.67046 11.5191 9.74674 12.0163 9.56029 12.0247C9.50097 12.0332 9.14504 12.0837 8.77216 12.1343C7.91623 12.2691 5.33148 12.2691 4.84843 12.1427L4.48402 12.0416L4.53487 11.6877C4.56877 11.4938 4.62809 11.2663 4.67894 11.1821C4.72131 11.0894 4.77216 10.904 4.78911 10.7523C4.80606 10.609 4.86538 10.2719 4.91623 10.0107C5.12809 9.02475 4.8569 9.01632 4.47555 10.0023C4.17046 10.7776 4.08572 10.8703 3.86538 10.6596C3.67046 10.4658 3.75521 10.2045 4.28911 9.31126C4.90775 8.27475 4.9925 8.18205 5.08572 8.35059C5.18741 8.52756 5.83996 8.97418 5.89928 8.90677C5.93318 8.88149 6.08572 8.90677 6.24674 8.97418C6.93318 9.2607 8.51792 8.88149 9.06877 8.2916C9.32301 8.03036 9.30606 8.02194 9.75521 8.48542ZM11.4925 9.4798C12.8061 10.3646 12.5688 11.5276 11.145 11.1736C11.0518 11.1568 10.9417 11.1315 10.8908 11.1231C10.8484 11.1231 10.9078 11.0641 11.0349 10.9967C11.1705 10.9208 11.2806 10.7691 11.3145 10.6259C11.3739 10.3309 11.2891 9.62306 11.1789 9.55565C11.1027 9.51351 11.0688 9.26913 11.145 9.26913C11.162 9.26913 11.323 9.36183 11.4925 9.4798ZM3.23826 10.2467C3.12809 10.4405 3.25521 10.9377 3.45013 11.0809C3.65352 11.2326 3.56029 11.3 3.10267 11.3506C2.78911 11.3927 2.70436 11.3674 2.66199 11.2579C2.57724 11.0388 2.76368 10.5079 3.01792 10.2382C3.23826 9.99385 3.38233 9.99385 3.23826 10.2467ZM8.72979 12.8253C8.72979 13.036 8.4586 13.2298 8.29758 13.1371C8.09419 13.036 8.08572 12.8337 8.28911 12.7832C8.56877 12.7073 8.72979 12.7242 8.72979 12.8253ZM5.96707 12.8843C6.03487 12.9938 5.79758 13.1624 5.62809 13.1287C5.48402 13.1034 5.48402 13.095 5.62809 12.9517C5.78911 12.7916 5.89928 12.7663 5.96707 12.8843Z" fill="currentColor"/>
<path d="M5.90679 5.94798C5.80509 6.04911 5.83899 6.29349 5.97458 6.40304C6.14407 6.5463 6.37289 6.3609 6.33899 6.11652C6.31357 5.93956 6.02543 5.83001 5.90679 5.94798Z" fill="currentColor"/>
<path d="M7.73775 6.15092C7.60216 6.35316 7.67843 6.57227 7.89029 6.57227C8.10216 6.57227 8.26317 6.26047 8.12758 6.10036C7.99199 5.94024 7.85639 5.94867 7.73775 6.15092Z" fill="currentColor"/>
<path d="M6.62056 6.72512C6.56124 6.83467 6.56971 6.91894 6.62903 6.97793C6.86632 7.21389 7.16293 6.95265 6.95107 6.69984C6.81547 6.5313 6.72225 6.53973 6.62056 6.72512Z" fill="currentColor"/>
<path d="M7.08581 7.44019C6.76377 7.60031 6.73835 7.60031 6.50106 7.4739C6.11971 7.24637 5.91632 7.50761 6.2892 7.74356C6.84005 8.08907 7.81462 7.80255 7.6536 7.3475C7.60276 7.21266 7.48411 7.22952 7.08581 7.44019Z" fill="currentColor"/>
</svg>
