<svg width="15" height="15" viewBox="0 0 15 15" fill="none" xmlns="http://www.w3.org/2000/svg">
<path d="M7.31979 0.943359C6.99449 1.00623 6.56979 1.123 6.38003 1.21282C5.75653 1.48228 4.77159 2.28168 4.84388 2.46132C4.88906 2.56911 4.52762 2.96432 4.4734 2.8745C4.41918 2.79366 3.61497 3.44935 3.36196 3.7727C2.9734 4.27569 2.88304 4.50923 2.90111 4.93138C2.92822 5.2727 2.89208 5.35354 2.6481 5.57809C2.06979 6.09006 1.86196 6.53018 1.83485 7.3206C1.81677 7.9224 1.84388 8.09306 2.02461 8.40743C2.19629 8.71282 2.21437 8.79366 2.11497 8.94635C1.97039 9.15294 1.93424 9.78168 2.03364 10.3296C2.08786 10.6529 2.19629 10.8236 2.63003 11.2458C3.02762 11.632 3.16316 11.8296 3.16316 12.0092C3.1722 12.62 3.9222 13.5721 4.50051 13.6889C5.49449 13.9044 9.65111 14.0122 10.4192 13.8416C10.6541 13.7877 10.9975 13.7158 11.1873 13.6889C11.5758 13.635 12.0909 13.3206 12.1632 13.0871C12.1903 13.0062 12.2445 12.9344 12.2897 12.9344C12.4252 12.9344 12.5336 12.5571 12.5517 12.0362C12.5608 11.7667 12.615 11.6949 12.9222 11.5152C13.121 11.4074 13.374 11.147 13.5005 10.9314C13.7626 10.4823 14.0246 9.62899 13.9252 9.56611C13.88 9.54815 13.8258 9.36851 13.7987 9.1709C13.7716 8.9733 13.6903 8.74875 13.6089 8.66791C13.4553 8.51521 13.5005 8.30863 13.6903 8.22779C13.7897 8.19186 13.9794 7.46432 13.9433 7.27569C13.9342 7.24875 13.9071 7.07809 13.88 6.89845C13.7716 6.21581 13.1933 5.29965 12.868 5.29965C12.7595 5.29965 12.7324 5.20983 12.7505 4.86851C12.7595 4.63497 12.7415 4.39246 12.7053 4.32959C12.6692 4.26671 12.6692 4.2218 12.6963 4.2218C12.7234 4.2218 12.6692 4.06911 12.5608 3.88048C12.371 3.54815 11.4855 2.8745 11.2324 2.8745C11.1601 2.8745 11.115 2.74875 11.115 2.56013C11.115 2.32659 11.0336 2.16492 10.8258 1.94036C10.5367 1.63498 9.84991 1.13198 9.84991 1.2218C9.84991 1.23977 9.69629 1.18587 9.51557 1.09605C9.0728 0.871502 8.07882 0.808628 7.31979 0.943359ZM9.47943 1.70683C9.90412 1.91342 10.3921 2.36252 10.3921 2.55114C10.3921 2.82959 9.47943 3.00024 7.95232 3.00923C5.8469 3.00923 5.43123 2.92839 5.56678 2.56911C5.63003 2.40743 6.38906 1.79665 6.52461 1.79665C6.57882 1.79665 6.74147 1.73378 6.89509 1.6709C7.48244 1.40144 8.874 1.42839 9.47943 1.70683ZM11.7656 3.92539C11.9553 4.10504 12.0095 4.24875 12.0367 4.62599L12.0638 5.10204L11.5939 5.29965C11.3409 5.40743 11.0246 5.59605 10.8981 5.7218C10.7626 5.84755 10.6541 5.93737 10.6361 5.91941C10.627 5.90144 10.5276 5.69486 10.4101 5.45234C9.69629 3.93438 7.78967 4.80563 8.34087 6.39545C8.40412 6.58408 8.48545 6.76372 8.52159 6.79066C8.65714 6.92539 8.56678 6.97929 8.08786 7.08707C7.374 7.24875 6.60593 8.10204 6.5969 8.74875C6.5969 8.92839 6.94931 9.61102 7.0487 9.61102C7.07581 9.61102 7.18425 9.68288 7.28364 9.7727C7.9975 10.4194 9.66919 10.8685 10.627 10.6529C11.0065 10.5721 11.5577 10.2398 11.7385 9.97929C11.9282 9.71881 11.9373 9.71881 12.1903 9.86252C12.4342 9.99725 12.4614 9.99725 12.615 9.84456C12.7686 9.68288 12.7686 9.6739 12.5156 9.46731C12.118 9.14396 11.9373 8.96432 11.9463 8.90144C11.9734 8.76671 11.8108 8.35354 11.6933 8.25474C11.5577 8.13797 11.5126 7.85953 11.6481 7.94935C11.8288 8.05713 12.6782 7.21282 12.8499 6.75474C12.9132 6.60204 12.9945 6.46731 13.0306 6.46731C13.1391 6.46731 13.2927 6.90743 13.3288 7.3206C13.365 7.8236 12.8409 8.34456 12.362 8.2727C12.3258 8.2727 12.2716 8.35354 12.2445 8.45234C12.1722 8.67689 12.3168 8.80264 12.6601 8.80264C13.365 8.80264 13.4644 10.0691 12.8138 10.7517C12.371 11.2098 11.5216 11.4434 9.96738 11.5511C9.47943 11.5871 8.99147 11.6499 8.88304 11.6859C8.60292 11.7937 8.62099 12.0182 8.91918 12.135C9.2987 12.2787 11.1873 12.117 11.7746 11.9014C12.1812 11.7398 11.7385 12.8266 11.3047 13.0242C11.1782 13.0871 10.9523 13.1499 10.7987 13.1679C10.6541 13.1769 10.3469 13.2218 10.121 13.2487C9.67822 13.3026 9.41617 13.3116 8.71135 13.3026L8.25051 13.2937L8.19629 12.5302C8.08786 10.9943 7.30171 10.2577 6.27159 10.7428C5.77461 10.9763 5.25955 12.2068 5.34991 12.9254C5.36798 13.0871 5.33184 13.141 5.16015 13.1679C4.56376 13.2667 3.88605 12.7278 3.88605 12.1529C3.88605 11.8386 3.89509 11.8296 4.19328 11.8835C4.64509 11.9553 4.88003 11.8745 4.85292 11.6589C4.81678 11.4254 4.66316 11.3446 4.11196 11.2727C3.36196 11.1649 2.8469 10.7877 2.7475 10.2667C2.72039 10.105 2.65714 9.94336 2.61196 9.91641C2.56677 9.88947 2.5487 9.82659 2.58485 9.78168C2.61196 9.73677 2.6481 9.56611 2.67521 9.41342C2.72943 8.99126 2.81075 8.94635 3.45232 9.06312C4.6722 9.26971 6.18123 9.18887 6.08184 8.91941C6.00051 8.70384 5.61196 8.60503 4.74449 8.56911C3.78665 8.5242 3.40714 8.48827 3.28967 8.42539C3.24449 8.39845 3.0728 8.34456 2.91015 8.30863C2.37702 8.20084 2.19629 7.28468 2.58485 6.66492C2.65714 6.55713 2.69328 6.46731 2.65714 6.46731C2.63003 6.46731 2.77461 6.3236 2.98244 6.15294L3.35292 5.83857L3.68726 5.98228C4.54569 6.35054 7.38304 6.56611 7.71738 6.28767C8.13304 5.95533 7.78967 5.77569 6.67822 5.76671C3.95834 5.75773 3.09087 5.31761 3.70533 4.29366C4.13906 3.56611 4.87099 3.24276 5.62099 3.44935C6.21738 3.61102 6.23545 3.61102 7.9975 3.62001C9.33485 3.62899 10.4373 3.49426 10.6361 3.28767C10.7083 3.21581 11.4493 3.63797 11.7656 3.92539ZM9.624 5.33557C9.83184 5.47929 9.98545 6.00024 10.0126 6.60204C10.0487 7.32959 9.88605 7.40144 9.27159 6.91641C8.88304 6.60204 8.68425 5.65893 8.94629 5.34456C9.09087 5.1739 9.3981 5.1739 9.624 5.33557ZM12.362 6.03617C12.4614 6.41342 12.3168 6.70983 11.865 7.08707C11.5126 7.3745 10.9162 7.59006 10.7083 7.50923C10.5728 7.46432 10.6632 6.90743 10.8439 6.69186C10.9071 6.62 10.9342 6.55713 10.9071 6.55713C10.8439 6.55713 11.4764 5.93737 11.6481 5.83857C11.9734 5.64994 12.2806 5.73078 12.362 6.03617ZM8.6481 7.86851C8.874 8.20983 8.52159 9.61102 8.21437 9.61102C8.01557 9.61102 7.40111 9.13498 7.26557 8.88348C6.91316 8.20983 8.23244 7.23977 8.6481 7.86851ZM10.0035 8.03018C10.1933 8.32659 10.0487 9.21581 9.73244 9.6739C9.48846 10.0332 9.37099 10.0781 9.0728 9.96132C8.85593 9.88048 8.8469 9.86252 8.9734 9.71881C9.23545 9.43138 9.41617 8.81162 9.50653 7.94036C9.52461 7.8236 9.9222 7.88647 10.0035 8.03018ZM11.1511 8.77569C11.4855 9.27869 11.3861 9.60204 10.7897 9.88947C10.2927 10.123 10.2385 10.0871 10.4734 9.69186C10.5818 9.5212 10.6632 9.27869 10.6632 9.14396C10.6632 8.89246 10.8077 8.44336 10.8891 8.44336C10.9071 8.44336 11.0336 8.59605 11.1511 8.77569Z" fill="currentColor"/>
<path d="M7.81606 8.26379C7.68955 8.47038 7.69859 8.71289 7.83413 8.71289C7.98774 8.71289 8.21365 8.46139 8.22268 8.28175C8.22268 8.156 7.89738 8.13804 7.81606 8.26379Z" fill="currentColor"/>
</svg>
