<svg width="15" height="15" viewBox="0 0 15 15" fill="none" xmlns="http://www.w3.org/2000/svg">
<path d="M5.93316 0.567606C5.12184 1.04488 4.76335 1.86306 4.82939 3.06761C4.85769 3.49942 4.87656 3.86306 4.86712 3.86306C4.86712 3.86306 4.68788 3.78351 4.48033 3.69261C3.88599 3.44261 2.81052 3.4767 2.38599 3.76079C1.72561 4.20397 1.40486 4.99942 1.46146 5.98806C1.53693 7.24942 2.04637 8.11306 3.04637 8.68124C3.5558 8.9767 3.65958 9.07897 3.5558 9.18124C3.22561 9.51079 2.83882 10.829 2.88599 11.4653C3.10297 14.5222 6.32939 14.8517 7.81052 11.954C7.9709 11.6472 8.07467 11.3517 8.04637 11.3176C8.00863 11.2835 8.01807 11.2494 8.0558 11.2494C8.09354 11.2494 8.38599 11.5335 8.70675 11.8744C9.38599 12.6244 10.1124 12.9426 10.9426 12.8744C12.6501 12.7267 13.6501 11.5449 13.5558 9.77215C13.5369 9.29488 13.4709 8.90851 13.4049 8.88579C13.3483 8.86306 13.3011 8.78351 13.3011 8.70397C13.3011 8.52215 12.5464 7.61306 12.3954 7.61306C12.1313 7.61306 12.1973 7.38579 12.6218 6.82897C12.9143 6.45397 13.1218 6.04488 13.2067 5.70397C13.3577 5.07897 13.4143 3.9767 13.3105 3.80624C13.2633 3.74942 13.1973 3.52215 13.1596 3.31761C13.0747 2.81761 12.6124 2.20397 12.2162 2.04488C11.7728 1.86306 10.8577 1.94261 10.4898 2.18124C10.32 2.29488 10.1218 2.38579 10.0464 2.38579C9.9709 2.38579 9.75392 2.56761 9.5558 2.78351C9.15958 3.2267 9.17844 3.2267 9.11241 2.80624C8.9992 2.04488 8.94259 1.93124 8.31052 1.18124C7.64071 0.385788 6.65958 0.135788 5.93316 0.567606ZM7.53693 1.26079C8.21618 1.68124 8.77278 3.02215 8.77278 4.2267C8.77278 4.84033 8.98976 4.78351 9.37656 4.05624C9.80108 3.26079 9.98033 3.09033 10.6784 2.78351C11.9049 2.24942 12.735 2.88579 12.8105 4.41988C12.886 5.80624 12.1973 6.78351 10.7539 7.3517C10.603 7.41988 10.8388 7.55624 11.6407 7.90851C13.1784 8.55624 13.4898 10.6699 12.1973 11.6585C11.9615 11.829 11.7256 11.9881 11.669 11.9994C11.603 12.0222 11.4237 12.079 11.2539 12.1358C11.0935 12.204 10.9426 12.2381 10.9237 12.2153C10.9049 12.1926 10.7256 12.1472 10.5181 12.1131C9.63127 11.9881 8.76335 11.2381 8.25391 10.1358C8.01807 9.62442 7.90486 9.64715 7.77278 10.2608C7.36712 12.1244 6.39542 13.1926 5.07467 13.2153C4.69731 13.2153 4.48033 13.1585 4.35769 13.0335C4.26335 12.9199 4.14071 12.8403 4.0841 12.8403C4.0275 12.8403 3.87656 12.5903 3.74448 12.2722C3.48033 11.6358 3.45203 10.7153 3.68788 10.2267C3.85769 9.86306 4.44259 9.09033 4.5558 9.09033C4.75391 9.09033 5.28222 8.71533 5.28222 8.56761C5.28222 8.45397 5.14071 8.40851 4.71618 8.40851C3.84825 8.40851 3.29165 8.21533 2.86712 7.78351C2.66901 7.56761 2.4709 7.38579 2.43316 7.38579C2.38599 7.38579 2.35769 7.31761 2.35769 7.2267C2.35769 7.13579 2.29165 6.9767 2.20675 6.87442C1.93316 6.54488 1.94259 5.51079 2.22561 4.9767C2.76335 3.95397 4.25391 3.95397 5.44259 4.96533C5.96146 5.41988 6.22561 5.2267 5.87656 4.64715C5.4709 3.9767 5.38599 3.69261 5.41429 2.94261C5.4709 1.38579 6.4709 0.590333 7.53693 1.26079Z" fill="currentColor"/>
<path d="M6.7918 3.6924C6.7918 3.78331 6.8767 4.07877 6.97104 4.3515C7.20689 4.95377 7.3201 5.54468 7.405 6.4765C7.43331 6.88559 7.48991 7.34013 7.50878 7.49922L7.56538 7.78331L7.35784 7.49922C7.17859 7.23786 6.99934 6.84013 7.00878 6.70377C7.01821 6.55604 6.77293 6.12422 6.61255 6.03331C6.38614 5.88559 6.01821 6.27195 6.10312 6.5674C6.18802 6.82877 6.3767 7.04468 6.52765 7.04468C6.63142 7.04468 7.12199 8.0674 7.01821 8.0674C6.93331 8.0674 6.46161 7.66968 6.18802 7.3515C6.02765 7.18104 5.85784 7.04468 5.80123 7.04468C5.75406 7.03331 5.55595 6.88559 5.3767 6.70377C5.01821 6.32877 4.80123 6.28331 4.63142 6.52195C4.42387 6.8174 4.74463 7.27195 5.15029 7.27195C5.22576 7.27195 5.33897 7.3174 5.405 7.38559C5.69746 7.68104 6.41444 8.28331 6.59368 8.39695C6.78236 8.52195 6.78236 8.53331 6.45217 8.88559C6.07482 9.28331 5.81067 9.82877 5.88614 10.0674C5.98048 10.3515 6.21633 10.2379 6.36727 9.82877C6.82953 8.66968 7.68802 8.6015 9.32953 9.59013C10.1126 10.056 10.188 10.0788 10.188 9.78331C10.188 9.54468 9.75406 9.16968 9.03708 8.79468C8.48048 8.51059 8.53708 8.40831 9.2635 8.40831C9.67859 8.40831 9.82953 8.36286 9.8767 8.2265C9.96161 7.95377 9.75406 7.79468 9.33897 7.8174C9.13142 7.84013 8.96161 7.80604 8.96161 7.76059C8.96161 7.51059 10.2258 5.90831 10.4239 5.90831C10.6692 5.90831 10.8201 5.36286 10.6314 5.14695C10.4805 4.95377 9.905 5.11286 9.905 5.3515C9.905 5.40831 9.68802 5.77195 9.42387 6.15831C9.15972 6.55604 8.92387 6.95377 8.88614 7.04468C8.80123 7.3174 8.47104 7.86286 8.42387 7.79468C8.32953 7.6924 8.72576 6.45377 8.88614 6.3515C9.09368 6.21513 9.11255 5.76059 8.91444 5.5674C8.58425 5.23786 8.04651 5.8174 8.3201 6.21513C8.38614 6.3174 8.3767 6.4424 8.2635 6.64695C8.17859 6.79468 8.11255 7.05604 8.11255 7.21513C8.11255 7.37422 8.07482 7.49922 8.02765 7.49922C7.94274 7.49922 7.88614 7.1924 7.77293 6.13559C7.74463 5.8515 7.70689 5.54468 7.69746 5.45377C7.65972 5.12422 7.43331 4.26059 7.2918 3.88559C7.14085 3.51059 6.7918 3.37422 6.7918 3.6924Z" fill="currentColor"/>
</svg>
