<svg width="15" height="15" viewBox="0 0 15 15" fill="none" xmlns="http://www.w3.org/2000/svg">
<path d="M8.2402 0.872725C7.44391 1.10057 6.8328 1.83159 6.59205 2.8569C6.41613 3.58791 6.41613 3.58791 5.8328 3.3126C4.48094 2.68602 3.01798 3.28412 2.33279 4.74614C2.20317 5.03095 2.07354 5.35374 2.04576 5.45817C1.94391 5.83791 1.99946 7.65121 2.11057 8.1164C2.18465 8.37272 2.29576 8.84741 2.36983 9.1607C2.87909 11.2113 3.65687 12.9961 4.05502 13.0056C4.11057 13.0056 4.16613 13.0436 4.16613 13.1006C4.16613 13.2904 5.05502 13.4708 5.5365 13.3664C5.77724 13.3189 5.96242 13.3664 6.32354 13.5563C6.96242 13.8885 7.69391 13.8791 8.33279 13.5468C8.71242 13.3474 8.86983 13.3189 9.33279 13.3569C9.64761 13.3854 10.018 13.3569 10.2217 13.2904C10.7217 13.1196 11.4995 12.2651 11.6291 11.724C11.6846 11.5151 11.9717 10.6702 12.0458 10.5183C12.1939 10.2145 12.7124 8.19234 12.8328 7.45184C12.8606 7.29045 12.8976 7.11007 12.9161 7.04361C12.9346 6.98665 12.9161 6.92969 12.8606 6.92969C12.805 6.92969 12.7958 6.87272 12.8421 6.80627C12.9439 6.63538 12.9439 5.60057 12.8328 5.22083C12.4439 3.86323 11.2402 3.07526 9.7402 3.18918C9.23094 3.22715 8.76798 3.38855 8.83279 3.50247C8.85131 3.53095 8.77724 3.56893 8.65687 3.56893C8.17539 3.59741 8.43465 2.80943 9.12909 2.1069C9.50872 1.73665 9.54576 1.33791 9.2402 1.04361C9.12909 0.93918 8.9902 0.853737 8.94391 0.844244C8.88835 0.844244 8.77724 0.825256 8.70317 0.815763C8.62909 0.796775 8.41613 0.825256 8.2402 0.872725ZM8.79576 1.46133C8.79576 1.48032 8.61057 1.74614 8.37909 2.04994C8.14761 2.34424 7.96242 2.66703 7.96242 2.76196C7.96242 2.8569 7.91613 2.96133 7.86057 2.99931C7.80502 3.02779 7.77724 3.14171 7.80502 3.23665C7.83279 3.33159 7.81428 3.43602 7.77724 3.4645C7.7402 3.49298 7.72168 3.59741 7.74946 3.70184C7.80502 3.90121 7.59205 3.95817 7.27724 3.83475C6.97168 3.71133 7.23094 2.5531 7.67539 2.04994C8.05502 1.62272 8.79576 1.23348 8.79576 1.46133ZM5.52724 3.92969C5.54576 3.94867 5.41613 4.0531 5.2402 4.16703C4.8328 4.42336 4.48094 5.03095 4.36983 5.67652C4.16613 6.85374 4.55502 9.76829 5.20317 11.8189C5.5365 12.8727 5.54576 12.8063 5.02724 12.7018C4.35131 12.5594 3.98094 12.1227 3.65687 11.1069C3.56428 10.8221 3.46242 10.5373 3.42539 10.4898C3.38835 10.4329 3.33279 10.262 3.30502 10.1101C3.27724 9.94867 3.18465 9.58791 3.10131 9.3031C3.01798 9.01829 2.90687 8.61007 2.86057 8.40121C2.82354 8.19234 2.75872 7.91703 2.73094 7.78412C2.2865 5.80943 2.9902 4.10057 4.37909 3.80627C4.63835 3.74931 5.43465 3.83475 5.52724 3.92969ZM11.2217 4.09108C12.2309 4.61323 12.518 6.17019 11.9717 8.2588C11.8976 8.54361 11.8235 8.8664 11.805 8.97083C11.7772 9.07526 11.6569 9.52146 11.518 9.96766C10.9161 12.0278 10.6661 12.4265 9.88835 12.6734C9.35131 12.8347 9.17539 12.7398 9.33279 12.3791C9.45317 12.1132 10.1569 9.12272 10.2402 8.54361C10.4069 7.3569 10.4254 6.96766 10.3513 6.92019C10.2865 6.88222 10.2865 6.83475 10.3513 6.79677C10.4624 6.73032 10.4069 5.87589 10.2587 5.4107C10.1291 5.00247 9.81428 4.48032 9.54576 4.23348C9.27724 3.98665 9.29576 3.9107 9.65687 3.86323C10.1569 3.80627 10.8606 3.90121 11.2217 4.09108ZM7.22168 4.46133C7.39761 4.51829 7.86057 4.56576 8.24946 4.56576C8.89761 4.55627 8.96242 4.57526 9.18465 4.82209C9.97168 5.67652 9.93465 7.24298 9.0365 11.1069C8.71242 12.4835 8.35131 13.0151 7.62909 13.1575C6.54576 13.3664 5.97168 12.6639 5.52724 10.5847C5.50872 10.5278 5.48094 10.4423 5.45317 10.3949C5.42539 10.3379 5.39761 10.148 5.37909 9.96766C5.36983 9.78728 5.31428 9.4645 5.25872 9.25564C4.85131 7.64171 4.8328 6.0088 5.22168 5.19234C5.36057 4.88855 5.50872 4.6607 5.5365 4.68918C5.56428 4.71766 5.63835 4.69867 5.70317 4.65121C5.80502 4.55627 6.41613 4.40437 6.75872 4.37589C6.83279 4.3664 7.04576 4.41386 7.22168 4.46133Z" fill="currentColor"/>
</svg>
