<svg width="15" height="15" viewBox="0 0 15 15" fill="none" xmlns="http://www.w3.org/2000/svg">
<path d="M8.7258 1.08151C8.13146 1.33784 7.61259 2.03088 7.35788 2.91379L7.23523 3.31252L6.94278 3.10366C5.45222 2.03088 3.32957 2.17328 2.21637 3.42645C1.20693 4.5467 0.923913 5.35366 0.914479 7.11949C0.895611 9.03721 1.51825 10.8505 2.61259 12.0562C3.76354 13.3094 5.36731 13.6796 6.53712 12.9391C6.7258 12.8157 6.88618 12.7587 6.88618 12.8062C6.88618 13.167 7.43335 13.2144 7.6692 12.8727C7.71637 12.7967 7.7541 12.8062 7.81071 12.8916C7.95222 13.11 8.98052 13.4043 9.62203 13.4043C10.1126 13.4043 10.339 13.3568 10.7824 13.129C11.405 12.8062 12.3484 12.0657 12.3579 11.8853C12.3579 11.8283 12.4333 11.6954 12.5277 11.6005C12.7824 11.3252 13.0183 10.9075 13.49 9.85366C14.2069 8.23025 14.3484 5.98974 13.7918 4.84101C13.1032 3.38847 11.7258 2.58151 10.2635 2.77138C9.70693 2.83784 8.90505 3.18911 8.68806 3.45493C8.61259 3.54037 8.48995 3.60683 8.41448 3.60683C8.31071 3.60683 8.35788 3.51189 8.56542 3.29354C8.73523 3.12265 8.83901 2.95176 8.81071 2.91379C8.77297 2.87582 8.79184 2.84733 8.85788 2.84733C8.91448 2.84733 9.1975 2.67645 9.47108 2.47708C9.98995 2.08784 10.1975 1.61316 9.95222 1.34733C9.90505 1.29037 9.80127 1.17645 9.73523 1.09101C9.58429 0.920119 9.11259 0.910625 8.7258 1.08151ZM9.15033 1.87898C8.97108 2.02138 8.64089 2.3062 8.42391 2.52455C7.83901 3.09417 7.88618 2.72392 8.47108 2.09733C8.82014 1.72708 8.98995 1.61316 9.20693 1.61316L9.48052 1.62265L9.15033 1.87898ZM5.68806 3.24607C6.38618 3.47392 7.12203 4.12898 7.31071 4.67961C7.42391 5.01189 7.73523 5.24923 7.80127 5.04987C7.82957 4.9929 7.88618 4.95493 7.93335 4.9929C7.98052 5.02139 8.01825 5.0024 8.01825 4.94544C8.01825 4.72708 9.2824 3.60683 9.61259 3.53088C11.0277 3.22708 12.056 3.56885 12.773 4.58468C13.2447 5.24923 13.5371 6.35999 13.4428 7.11949C13.3673 7.76506 13.1032 8.83784 12.9428 9.16063C12.8673 9.31252 12.8013 9.46442 12.8107 9.4929C12.8296 9.63531 12.1315 10.917 11.8767 11.2018C11.7164 11.3821 11.5371 11.6005 11.4711 11.6764C11.2069 12.0277 10.1598 12.6733 9.99939 12.5783C9.95222 12.5499 9.89561 12.5689 9.85788 12.6258C9.65976 12.9391 8.17863 12.398 7.84844 11.8853C7.57486 11.4676 7.35788 11.4676 6.79184 11.9138C6.17863 12.3885 5.44278 12.6448 4.87674 12.5689C4.44278 12.5119 3.20693 11.7334 3.20693 11.5245C3.20693 11.4486 3.15033 11.4201 3.04655 11.4581C2.95222 11.4961 2.91448 11.4771 2.95222 11.4201C2.98995 11.3632 2.87674 11.1353 2.6975 10.9075C2.27297 10.3283 1.58429 8.48658 1.67863 8.13531C1.68806 8.09733 1.6692 8.06885 1.63146 8.06885C1.50882 8.06885 1.57486 5.95176 1.70693 5.64797C1.76354 5.48657 1.82957 5.3062 1.84844 5.23974C1.89561 5.01189 2.27297 4.30936 2.48052 4.08151C3.31071 3.13214 4.44278 2.83784 5.68806 3.24607Z" fill="currentColor"/>
<path d="M6.27327 6.36092C5.34874 6.56978 4.76383 7.66155 5.05628 8.64889C5.19779 9.13307 5.62232 9.72168 5.76383 9.62674C5.811 9.59826 5.84874 9.61725 5.84874 9.67421C5.84874 9.73117 5.96194 9.80712 6.09402 9.8356C6.51855 9.94003 6.53742 9.69319 6.13176 9.2375C5.46194 8.46851 5.58459 7.55712 6.41477 7.06345C6.95251 6.74066 6.84874 6.228 6.27327 6.36092Z" fill="currentColor"/>
<path d="M8.51772 6.52091C8.48942 6.61585 8.44225 6.72028 8.42338 6.75826C8.40452 6.79623 8.56489 6.97661 8.77244 7.17598C9.46112 7.82155 9.44225 8.65699 8.72527 9.3975C8.10263 10.0336 8.53659 10.3184 9.22527 9.72028C9.95169 9.10319 10.2441 7.84053 9.80074 7.27091C9.7064 7.1475 9.6215 7.00509 9.6215 6.95762C9.6215 6.55889 8.64037 6.17914 8.51772 6.52091Z" fill="currentColor"/>
<path d="M7.87656 7.51873C7.75392 7.86051 7.80109 8.64848 7.95204 8.86684C8.25392 9.28456 8.79166 8.80038 8.70675 8.19278C8.62185 7.67063 7.99921 7.16747 7.87656 7.51873Z" fill="currentColor"/>
<path d="M6.56581 7.7563C6.26392 8.0601 6.17902 8.3544 6.29223 8.70567C6.47147 9.23731 6.99034 9.01896 7.17902 8.32592C7.38657 7.55693 7.05638 7.25314 6.56581 7.7563Z" fill="currentColor"/>
</svg>
