<svg width="15" height="15" viewBox="0 0 15 15" fill="none" xmlns="http://www.w3.org/2000/svg">
<path d="M7.48764 0.955358C7.09478 1.09822 6.52335 1.70536 6.49954 2.00893C6.48764 2.16964 6.44002 2.21429 6.30907 2.17857C5.07097 1.78571 4.19002 1.90179 3.69002 2.52679C3.21383 3.10714 3.57097 4 4.36859 4.25L4.79716 4.38393L4.35668 4.72321C3.85669 5.10714 3.61859 5.61607 3.79716 5.88393C3.86859 5.97321 3.8924 6.07143 3.85669 6.08929C3.83288 6.11607 3.99954 6.26786 4.23764 6.42857C4.6543 6.69643 4.71383 6.71429 5.34478 6.65179C5.71383 6.61607 6.07097 6.55357 6.1543 6.5C6.33288 6.39286 6.6543 6.59821 6.57097 6.76786C6.45192 7.03571 7.35668 7.50893 7.8924 7.46429C8.19002 7.4375 8.21383 7.46429 8.22573 7.75893C8.26145 8.50893 8.20192 9.53571 8.11859 9.77679L8.02335 10.0446L7.73764 9.61607C7.36859 9.07143 6.52335 8.41071 5.77335 8.07143C4.95192 7.71429 3.33288 7.6875 2.96383 8.02679C2.51145 8.44643 2.76145 9.00893 3.73764 9.76786C4.33288 10.2321 5.72573 10.8929 6.10668 10.8929C6.22573 10.8929 6.30907 10.9286 6.30907 10.9821C6.30907 11.0268 6.63049 11.0893 7.02335 11.125C7.41621 11.1607 7.73764 11.2143 7.73764 11.25C7.73764 11.2857 7.54716 11.7143 7.30907 12.1964C6.67811 13.5357 6.66621 13.7411 7.27335 13.75C7.57097 13.75 8.23764 12.4643 8.63049 11.1518L8.82097 10.4732L9.46383 10.4196C11.7853 10.2411 14.4876 8.16964 13.6186 7.24107C13.4281 7.04464 13.3567 7.03571 12.6543 7.08036C11.2614 7.17857 9.72573 7.9375 9.24954 8.75C9.1424 8.9375 9.10668 8.83036 9.03526 8.08036C8.94002 7.08036 9.16621 6.28571 9.51145 6.38393C11.2138 6.875 12.5353 5.49107 11.2257 4.58929L10.821 4.3125L11.321 4.05357C12.9995 3.1875 11.821 1.5 9.95192 2.08929L9.54716 2.21429L9.46383 1.8125C9.30907 1.03572 8.35668 0.625001 7.48764 0.955358ZM8.51145 1.58036C8.95192 1.91071 8.49954 3.25893 7.91621 3.38393C7.47573 3.47321 7.49954 3.49107 7.33288 2.92857C7.03526 1.95536 7.82097 1.05357 8.51145 1.58036ZM5.91621 2.72321C6.47573 2.97321 6.95192 3.55357 6.79716 3.80357C6.67811 4 6.53526 4.0625 6.28526 4.02679C6.22573 4.02679 6.19002 4.05357 6.19002 4.09821C6.19002 4.36607 4.58288 3.74107 4.33288 3.38393C3.88049 2.72321 4.94002 2.28571 5.91621 2.72321ZM11.1662 2.70536C11.4638 2.88393 11.3329 3.26786 10.8329 3.60714C10.2972 3.97321 10.0114 4.04464 9.27335 4C8.54716 3.96429 8.52335 3.74107 9.17811 3.22321C9.95192 2.61607 10.69 2.42857 11.1662 2.70536ZM8.07097 4.08036C8.36859 4.54464 7.70192 4.75893 7.32097 4.32143C7.21383 4.19643 7.16621 4.10714 7.23764 4.14286C7.29716 4.16964 7.38049 4.13393 7.42811 4.0625C7.52335 3.875 7.94002 3.89286 8.07097 4.08036ZM6.84478 5.08036C6.6424 5.55357 5.78526 6.07143 5.19002 6.07143C4.86859 6.07143 4.52335 5.78571 4.52335 5.51786C4.52335 5.30357 5.23764 4.89286 5.91621 4.72321C6.59478 4.54464 7.01145 4.70536 6.84478 5.08036ZM10.2495 4.8125C11.0591 5.09821 11.1543 5.61607 10.4757 5.89286C10.2376 5.99107 9.59478 5.875 9.36859 5.69643C8.55907 5.03571 8.51145 4.5 9.27335 4.58036C9.51145 4.59821 9.95192 4.70536 10.2495 4.8125ZM8.23764 5.53571C8.48764 5.92857 8.51145 6.63393 8.27335 6.78571C8.07097 6.91071 7.3924 6.82143 7.30907 6.66964C7.28526 6.60714 7.24954 6.47321 7.22573 6.36607C7.20192 6.25893 7.1543 6.14286 7.11859 6.11607C7.08288 6.08929 7.1543 5.90179 7.27335 5.71429C7.4043 5.52679 7.49954 5.32143 7.49954 5.26786C7.49954 5.03571 8.04716 5.23214 8.23764 5.53571ZM12.9757 7.77679C12.9757 7.91964 12.0234 8.91071 11.7138 9.07143C11.0353 9.4375 9.44002 9.9375 9.55907 9.75C10.1662 8.76786 10.7138 8.25893 11.4281 7.98214C12.0591 7.75 12.9757 7.61607 12.9757 7.77679ZM4.78526 8.49107C5.28526 8.57143 5.53526 8.67857 5.97573 9C6.60668 9.45536 7.45192 10.3304 7.34478 10.4196C7.10668 10.5893 5.32097 10.0268 4.60668 9.54464C4.30907 9.35714 4.05907 9.21429 4.03526 9.23214C4.01145 9.25893 3.97573 9.16071 3.96383 9.03571C3.96383 8.91071 3.84478 8.73214 3.70192 8.65179C3.26145 8.38393 3.67811 8.32143 4.78526 8.49107Z" fill="currentColor"/>
</svg>
