<svg width="15" height="15" viewBox="0 0 15 15" fill="none" xmlns="http://www.w3.org/2000/svg">
<path d="M6.72111 1.78223C5.63095 1.97091 4.95882 2.24449 3.93423 2.95204C3.53259 3.22562 2.78669 4.06525 2.84406 4.17845C2.86865 4.23506 2.85226 4.24449 2.80308 4.20676C2.68832 4.12185 2.20472 5.15959 2.008 5.89544C1.93423 6.20676 1.84406 6.52751 1.81128 6.60298C1.7457 6.76336 1.7621 8.52751 1.82767 8.65015C1.85226 8.68789 1.89324 8.89543 1.93423 9.10298C1.96701 9.31053 2.04078 9.56525 2.09816 9.66902C2.16373 9.77279 2.21291 9.90487 2.21291 9.97091C2.21291 10.3483 3.58996 12.169 3.87685 12.169C3.91783 12.169 3.9998 12.2256 4.04898 12.3011C4.18832 12.5086 5.36865 13.1973 5.67193 13.2539C5.81947 13.2728 6.2539 13.3671 6.63914 13.452C7.87685 13.7162 9.7621 13.4898 10.7375 12.952C12.0736 12.2068 13.4588 10.3294 13.549 9.15015C13.5654 8.96147 13.6064 8.75393 13.6473 8.68789C13.7293 8.51808 13.7129 7.11242 13.6228 6.74449C13.4998 6.26336 13.1801 5.47091 13.1064 5.47091C13.0736 5.47091 13.0244 5.39544 12.9998 5.3011C12.926 5.05581 12.1391 4.62185 11.6801 4.58411C11.1309 4.54638 10.4834 4.67845 9.95062 4.95204C9.43423 5.21619 9.41783 5.20676 9.78669 4.76336C10.2375 4.23506 10.4916 3.53694 10.385 3.13128C10.1965 2.45204 9.4916 1.8577 8.77029 1.8011C7.95882 1.73506 7.08177 1.72562 6.72111 1.78223ZM9.18832 2.71619C9.93423 3.12185 10.0162 3.67845 9.43423 4.28223C9.34406 4.37657 9.28669 4.50864 9.31947 4.56525C9.34406 4.62185 9.34406 4.64072 9.30308 4.60298C9.27029 4.56525 9.13095 4.68789 9.008 4.886C8.87685 5.07468 8.68013 5.34827 8.56537 5.49921C8.45062 5.64072 8.2621 5.92374 8.13914 6.14072C7.89324 6.56525 7.83587 6.52751 7.7457 5.84827C7.60636 4.81996 7.44242 4.24449 7.28669 4.24449C6.9998 4.24449 7.01619 5.01808 7.31128 6.11242C7.42603 6.53694 7.36046 6.57468 6.9916 6.31053C6.81947 6.18789 6.65554 6.09355 6.62275 6.11242C6.58177 6.12185 6.55718 6.09355 6.55718 6.04638C6.55718 5.99921 6.38505 5.86713 6.18013 5.74449C5.80308 5.53694 5.79488 5.53694 5.68013 5.71619C5.58177 5.87657 5.58996 5.9143 5.7539 6.05581C5.86046 6.15015 5.98341 6.26336 6.03259 6.31053C6.08177 6.3577 6.37685 6.55581 6.68832 6.74449C6.9998 6.93317 7.2621 7.10298 7.27849 7.12185C7.28669 7.13128 7.008 7.27279 6.66373 7.43317C5.21291 8.09355 5.11455 8.15959 5.20472 8.49921C5.2621 8.69732 5.35226 8.68789 5.86046 8.4426C6.08996 8.3294 6.22931 8.27279 6.43423 8.20676C6.48341 8.18789 6.68013 8.07468 6.87685 7.96147C7.43423 7.61242 7.44242 7.70676 6.9998 8.81996C6.72931 9.48977 6.64734 9.9143 6.72111 10.1407C6.87685 10.6124 7.01619 10.4237 7.34406 9.26336C7.81128 7.62185 7.86046 7.52751 8.02439 7.98977C8.07357 8.14072 8.20472 8.42374 8.31947 8.63128C8.43423 8.83883 8.62275 9.20676 8.73751 9.45204C8.95062 9.886 9.17193 10.0747 9.33587 9.96147C9.44242 9.886 9.30308 9.3577 9.09816 9.03694C9.008 8.89543 8.93423 8.75393 8.93423 8.71619C8.93423 8.67845 8.84406 8.50864 8.73751 8.34827C8.45882 7.92374 8.36046 7.48977 8.57357 7.62185C8.66373 7.67845 9.04078 7.81996 9.42603 7.95204C9.81128 8.08411 10.1801 8.21619 10.2457 8.24449C10.3195 8.28223 10.4424 8.24449 10.5326 8.17845C10.6801 8.04638 10.6801 8.03694 10.467 7.79166C10.3523 7.65959 10.1801 7.54638 10.09 7.54638C9.9998 7.54638 9.82767 7.49921 9.69652 7.43317C9.57357 7.37657 9.43423 7.31996 9.38505 7.31053C9.34406 7.29166 9.08996 7.23506 8.83587 7.17845C8.23751 7.02751 8.21292 6.97091 8.58996 6.64072C8.7539 6.48977 8.95882 6.31053 9.03259 6.22562C9.16373 6.08411 9.72931 5.74449 10.3359 5.43317C11.3195 4.93317 12.4178 5.31053 12.8277 6.29166C13.2457 7.31053 13.0818 9.3011 12.4998 10.2256C12.4342 10.3294 12.3113 10.5275 12.2375 10.6596C11.7375 11.4992 10.7457 12.2728 9.69652 12.6407C8.35226 13.1124 5.82767 12.8011 4.90144 12.0652C4.78669 11.9615 4.64734 11.886 4.59816 11.886C4.54898 11.886 4.508 11.8388 4.508 11.7917C4.508 11.7351 4.45882 11.6973 4.40144 11.6973C4.35226 11.6973 4.10636 11.4803 3.86865 11.2256C3.63095 10.9615 3.40144 10.7539 3.35226 10.7539C3.31128 10.7539 3.27849 10.7162 3.27849 10.6596C3.27849 10.6124 3.14734 10.3577 2.98341 10.0935C2.44242 9.22562 2.27029 8.08411 2.46701 6.65015C2.51619 6.33883 2.55718 5.98977 2.56537 5.87657C2.57357 5.76336 2.59816 5.68789 2.61455 5.71619C2.63095 5.73506 2.72931 5.54638 2.82767 5.29166C2.93423 5.03694 3.2457 4.55581 3.52439 4.21619C3.96701 3.66902 4.18832 3.48034 4.81128 3.13128C4.89324 3.08411 5.04078 2.99921 5.13914 2.9426C5.2457 2.87657 5.36865 2.8294 5.42603 2.8294C5.48341 2.8294 5.63914 2.76336 5.77849 2.67845C5.90964 2.60298 6.20472 2.50864 6.43423 2.48034C6.65554 2.45204 6.86046 2.4143 6.87685 2.39544C6.89324 2.37657 7.30308 2.37657 7.77849 2.39544C8.55718 2.4143 8.70472 2.45204 9.18832 2.71619Z" fill="currentColor"/>
</svg>
