<svg width="15" height="15" viewBox="0 0 15 15" fill="none" xmlns="http://www.w3.org/2000/svg">
<path d="M8.59038 0.755602C8.43129 0.884741 8.35174 1.16289 8.39719 1.41123C8.39719 1.45097 8.32901 1.64964 8.24947 1.86818C8.15856 2.08673 8.04492 2.52381 7.99947 2.84169C7.95401 3.16951 7.89719 3.45759 7.88583 3.49732C7.87447 3.54699 7.8631 3.65626 7.85174 3.74567C7.82901 3.94434 7.54492 3.30858 7.44265 2.83176C7.39719 2.66289 7.31765 2.33507 7.26083 2.08673C7.19265 1.83838 7.1131 1.44103 7.06765 1.19269C6.99947 0.805271 6.95401 0.745668 6.70401 0.745668C6.22674 0.745668 6.28356 1.60991 6.87447 3.09997C7.02219 3.47746 7.10174 3.77547 7.03356 3.77547C6.97674 3.77547 6.93129 3.73573 6.93129 3.696C6.93129 3.65626 6.76083 3.45759 6.55629 3.25891C6.35174 3.06024 5.9881 2.51388 5.74947 2.04699C5.3631 1.29203 5.29492 1.21256 5.10174 1.30196C4.38583 1.62977 5.74947 3.7854 7.24947 4.68938L7.51083 4.84832L7.09038 5.52381C6.8631 5.9013 6.57901 6.35825 6.45401 6.53706C6.18129 6.92447 5.53356 7.97746 4.8631 9.12977C4.59038 9.57679 4.24947 10.0635 4.09038 10.1927C3.05629 11.047 2.85174 11.2457 2.62447 11.6232C2.30629 12.1695 2.04492 12.8053 2.04492 13.0834C2.04492 13.4112 2.29492 13.8185 2.45401 13.7688C2.53356 13.739 2.6131 13.7688 2.64719 13.8384C2.71538 14.0172 3.3631 13.7291 3.76083 13.3318C4.18129 12.9145 4.68129 11.9907 4.59038 11.7821C4.55629 11.7026 4.57901 11.6132 4.64719 11.5735C4.71538 11.5437 4.77219 11.3152 4.77219 11.0669C4.77219 10.7291 4.89719 10.4212 5.30629 9.7556C6.62447 7.61984 6.82901 7.27216 7.07901 6.85494C7.21538 6.60659 7.43129 6.26885 7.55629 6.10991C7.94265 5.60328 8.06765 5.42448 8.18129 5.18606C8.2381 5.06686 8.31765 4.96752 8.35174 4.96752C8.39719 4.96752 8.39719 5.00726 8.35174 5.05693C8.21538 5.2556 9.93129 5.39467 10.3972 5.2258C10.5222 5.17613 10.7836 5.12646 10.9654 5.10659C11.4086 5.06686 12.9767 4.50063 13.0904 4.34169C13.3972 3.92448 12.9767 3.7258 12.4426 4.03375C12.2949 4.12315 12.1017 4.20262 12.0222 4.21255C11.9426 4.23242 11.5222 4.33176 11.079 4.45097C10.2836 4.66951 9.31765 4.79865 9.32901 4.67944C9.32901 4.64964 9.62447 4.4907 9.99947 4.33176C10.3745 4.17282 11.0449 3.73573 11.5449 3.31852C12.3745 2.63309 12.4199 2.58342 12.2949 2.34501C12.1131 1.99732 12.0676 2.00726 11.454 2.57348C10.7267 3.23905 8.65856 4.60991 9.05629 4.16289C9.13583 4.07348 9.15856 3.97414 9.1131 3.93441C9.06765 3.89467 9.10174 3.87481 9.19265 3.89467C9.55629 3.97414 11.1586 1.79865 10.9426 1.51057C10.704 1.16289 10.4086 1.26222 10.1699 1.75891C10.0449 2.01719 9.77219 2.41454 9.57901 2.65295C9.37447 2.89136 9.20401 3.09997 9.20401 3.12977C9.20401 3.15958 9.02219 3.37812 8.80629 3.6364C8.59038 3.88474 8.40856 4.04368 8.40856 3.98408C8.40856 3.845 8.71538 2.59335 8.9881 1.61984C9.19265 0.914542 9.20401 0.755602 9.07901 0.686065C8.8631 0.56686 8.79492 0.576794 8.59038 0.755602ZM3.49947 12.2788C3.06765 13.0536 2.74947 13.2722 3.04492 12.5967C3.29492 12.0205 3.77219 11.345 3.82901 11.494C3.85174 11.5536 3.70401 11.9112 3.49947 12.2788Z" fill="currentColor"/>
</svg>
