<svg width="15" height="15" viewBox="0 0 15 15" fill="none" xmlns="http://www.w3.org/2000/svg">
<path d="M6.9122 1.72667C5.64027 2.00321 4.72799 3.04232 4.53501 4.43338L4.44729 5.09539L4.27185 4.89427C4.10518 4.68477 3.60518 4.39148 3.49115 4.425C3.44729 4.43338 3.42097 4.40824 3.42097 4.35796C3.42097 4.2155 2.71045 3.9222 2.24553 3.8803C1.6315 3.82165 1.30694 3.98924 1.05255 4.48366C0.578868 5.4222 1.39466 6.9222 2.88589 7.86075C3.30694 8.11215 3.34203 8.16243 3.1929 8.22109C2.67536 8.41382 2.20168 9.08421 2.36834 9.37751C2.64027 9.86354 3.40343 9.95572 4.23676 9.61215C4.72799 9.39427 4.93852 9.46131 4.60518 9.72109C4.53501 9.77975 4.4736 9.86354 4.4736 9.90544C4.4736 9.95572 4.34203 10.1987 4.17536 10.4585C3.77185 11.0954 3.71045 11.4054 3.94729 11.6066C4.04378 11.6904 4.12273 11.7323 4.12273 11.6904C4.12273 11.6568 4.18413 11.682 4.26308 11.7406C4.34203 11.8077 4.5701 11.9166 4.77185 11.9837L5.1315 12.1177L5.10518 12.6289C5.05255 13.4501 5.45606 13.9781 6.00869 13.8021C6.14904 13.7518 6.30694 13.6764 6.35957 13.6261C6.50869 13.4753 6.84203 12.7462 6.84203 12.5702C6.84203 12.411 6.92975 12.3775 7.49992 12.3775C7.76308 12.3775 7.78939 12.411 7.84203 12.7462C7.99992 13.668 8.80694 14.1373 9.35957 13.6094C9.5701 13.4082 9.57887 13.358 9.54378 12.7797L9.49992 12.168L10.1052 11.8999L10.7192 11.6317L10.6666 11.3216C10.6315 11.0451 10.228 10.2742 9.86834 9.78813C9.71045 9.56187 9.6929 9.41941 9.8508 9.52835C9.99992 9.64567 10.3157 9.72109 10.8859 9.77137C12.0789 9.88868 12.5438 9.0507 11.5876 8.506C11.1315 8.24623 11.035 8.12891 11.2806 8.12891C11.4648 8.12891 12.3947 7.44176 12.5876 7.14846C12.6754 7.02276 12.8157 6.84678 12.9034 6.75461C13.1754 6.47807 13.5262 5.52276 13.5526 5.00321C13.5701 4.5507 13.5526 4.49204 13.2806 4.22388C13.0087 3.94734 12.9736 3.93058 12.4561 3.94734C11.8596 3.97248 11.535 4.09818 10.8157 4.61773C10.2455 5.01997 10.2719 5.02835 10.2719 4.54232C10.2806 2.79092 8.57887 1.36634 6.9122 1.72667ZM8.28939 2.41382C8.6929 2.60656 9.05255 2.91662 9.31571 3.30209C9.66659 3.80489 9.64027 3.8803 9.14904 3.81327C8.60518 3.73785 8.17536 3.46131 8.08764 3.14287C8.00869 2.86634 7.71045 2.76578 7.50869 2.95014C7.03501 3.38589 6.22799 3.77137 5.49115 3.89706L5.16659 3.95572L5.29817 3.65405C5.81571 2.4641 7.21045 1.88589 8.28939 2.41382ZM8.6929 4.27416C8.89466 4.33282 9.1929 4.35796 9.35957 4.3412C9.71045 4.2993 9.75431 4.39986 9.64904 4.94455C9.3508 6.44455 7.93852 7.2993 6.56132 6.79651C6.43852 6.75461 6.31571 6.72947 6.29817 6.75461C6.21045 6.83002 5.27185 5.84958 5.18413 5.59818C4.86834 4.65963 4.97361 4.50042 6.00869 4.30768C6.42975 4.23226 7.40343 3.80489 7.55255 3.63729C7.62273 3.55349 7.71922 3.59539 7.98238 3.85516C8.18413 4.05628 8.45606 4.2155 8.6929 4.27416ZM2.92097 4.70153C3.87711 5.15405 4.46483 5.70712 4.20168 5.89986C3.5701 6.35237 3.66659 7.10656 4.37711 7.35796C4.57887 7.425 4.57887 7.43338 4.26308 7.60935C3.92097 7.80209 3.65782 7.76857 3.42975 7.5088C3.36834 7.43338 3.25431 7.37472 3.1929 7.37472C2.85957 7.37472 1.65782 5.99204 1.59641 5.53114C1.53501 5.08701 1.53501 4.54232 1.59641 4.57584C1.62273 4.59259 1.67536 4.57584 1.71045 4.52556C1.81571 4.36634 2.38589 4.44176 2.92097 4.70153ZM12.6666 4.49204C12.8596 4.55908 12.9999 5.10377 12.9034 5.41382C12.6578 6.23505 11.7631 7.31606 11.0526 7.65125C10.6841 7.83561 10.5438 7.82723 10.228 7.63449L9.98238 7.47528L10.1841 7.37472C10.535 7.19874 10.7192 6.95572 10.7631 6.61215C10.8069 6.31047 10.7806 6.25181 10.4824 5.98366C10.2982 5.83282 10.2017 5.69874 10.2543 5.69874C10.3157 5.69874 10.5438 5.5479 10.7719 5.37192C11.1929 5.03673 12.2368 4.45014 12.4297 4.44176C12.4824 4.44176 12.5876 4.4669 12.6666 4.49204ZM5.04378 6.54511C5.16659 6.68757 5.25431 6.82164 5.23676 6.84678C5.12273 6.94734 4.6929 6.94734 4.51746 6.8384C4.20168 6.64567 4.32448 6.36913 4.75431 6.29371C4.78062 6.29371 4.9122 6.40265 5.04378 6.54511ZM10.1578 6.38589C10.3947 6.61215 10.114 6.87192 9.64027 6.87192C9.22799 6.87192 9.21045 6.78813 9.5701 6.50321C9.86834 6.26019 9.99992 6.23505 10.1578 6.38589ZM6.31571 7.2993C6.99115 7.50042 7.78062 7.51718 8.36834 7.3412C8.6929 7.24902 8.84203 7.24064 8.98238 7.30768C9.1929 7.41662 10.114 8.13729 10.1578 8.22947C10.1754 8.27137 10.2455 8.29651 10.3069 8.29651C10.3771 8.29651 10.4648 8.34678 10.4999 8.40544C10.535 8.47248 10.7806 8.62332 11.035 8.7574C11.614 9.05908 11.6315 9.21829 11.0876 9.21829C10.2894 9.21829 9.52624 8.7993 9.15782 8.17919C9.09641 8.06187 9.01746 8.03673 8.9122 8.07025C8.60518 8.18757 8.77185 8.70712 9.6315 10.3915C9.85957 10.8272 10.0526 11.2043 10.0701 11.2378C10.0964 11.2965 9.52624 11.506 8.96483 11.6485C7.65782 11.9669 5.78062 11.8244 4.75431 11.33C4.39466 11.154 4.4122 11.0619 4.97361 10.1652C5.38589 9.49483 5.9122 8.24623 5.82448 8.12053C5.71922 7.96131 5.47361 8.06187 5.04378 8.45572C4.28939 9.14287 3.18413 9.53673 3.03501 9.16801C2.9736 9.0088 3.08764 8.86634 3.42097 8.69874C4.1929 8.29651 4.67536 7.99483 5.17536 7.59259C5.49115 7.33282 5.74553 7.12332 5.74553 7.12332C5.74553 7.12332 5.99992 7.19874 6.31571 7.2993ZM6.26308 12.3105C6.34203 12.4194 6.05255 13.1401 5.92097 13.1904C5.77185 13.2406 5.72799 13.182 5.70168 12.9054C5.64904 12.3356 5.6929 12.2351 5.95606 12.2351C6.10518 12.2351 6.23676 12.2686 6.26308 12.3105ZM8.96483 12.52C8.96483 12.6121 8.98238 12.7965 8.99115 12.9306C9.03501 13.4753 8.64904 13.3412 8.37711 12.7127C8.24553 12.411 8.24553 12.3943 8.43852 12.3272C8.71922 12.2267 8.94729 12.3105 8.96483 12.52Z" fill="currentColor"/>
<path d="M6.22775 4.65132C6.06109 4.84406 6.15758 5.07031 6.40319 5.07031C6.54354 5.07031 6.63126 5.02003 6.64881 4.91947C6.68389 4.76864 6.526 4.52562 6.40319 4.52562C6.3681 4.52562 6.28916 4.58428 6.22775 4.65132Z" fill="currentColor"/>
<path d="M8.04449 4.66761C7.96554 4.74302 7.96554 5.09498 8.05326 5.13688C8.18484 5.2123 8.5094 5.02794 8.5094 4.86872C8.5094 4.66761 8.18484 4.52515 8.04449 4.66761Z" fill="currentColor"/>
<path d="M7.13997 5.32212C7.07857 5.46458 7.24524 5.69922 7.4119 5.69922C7.60489 5.69922 7.65752 5.42268 7.49085 5.30536C7.2891 5.16291 7.20138 5.17129 7.13997 5.32212Z" fill="currentColor"/>
<path d="M6.7278 5.84109C6.33306 6.21819 7.3506 6.65394 7.80674 6.30199C8.0699 6.10087 8.11376 5.86623 7.88569 5.86623C7.79797 5.86623 7.71903 5.89975 7.71903 5.93327C7.71903 6.05897 7.18394 6.03383 6.97341 5.89975C6.86815 5.83271 6.75411 5.80757 6.7278 5.84109Z" fill="currentColor"/>
</svg>
