<svg width="15" height="15" viewBox="0 0 15 15" fill="none" xmlns="http://www.w3.org/2000/svg">
<path d="M7.22771 0.34312C7.18226 0.352674 7.02771 0.390891 6.89135 0.419553C6.47317 0.515094 6.00953 1.14567 6.06408 1.52783C6.07317 1.5565 6.10044 1.74758 6.1368 1.95777C6.17317 2.16796 6.18226 2.31127 6.14589 2.27306C6.04589 2.18707 5.45498 2.37815 5.17317 2.5979C4.79135 2.89408 4.68226 3.56287 4.92771 4.02146C5.12771 4.40363 5.35498 4.56605 5.82771 4.67115C6.10044 4.72847 6.14589 4.77624 6.19135 5.11064C6.24589 5.55013 6.36408 5.80809 6.62771 6.0565C6.8368 6.25713 7.57317 6.19981 7.82771 5.96095C7.95498 5.83675 7.97317 5.88452 8.00044 6.37178C8.0368 6.95459 8.05498 8.5979 8.02771 8.5979C8.02771 8.5979 7.90953 8.41637 7.76408 8.18707C7.30044 7.41318 6.52771 7.07879 6.42771 7.60427C6.28226 8.41637 6.82771 9.59153 7.70953 10.3368C7.86408 10.4705 7.89135 10.5756 7.86408 10.9578C7.80044 11.7985 7.71862 12.5629 7.66408 12.945L7.60953 13.3272L7.52771 13.0406C7.48226 12.8782 7.35498 12.3909 7.2368 11.9418C6.95498 10.9196 6.58226 9.96414 6.31862 9.6393C5.96408 9.19025 5.88226 8.85586 6.02771 8.48325C6.11862 8.25395 6.1368 8.10108 6.07317 7.98643C6.02771 7.89089 6.00953 7.79535 6.0368 7.76669C6.06408 7.73803 6.02771 7.65204 5.95498 7.5756C5.78226 7.39408 5.78226 7.12656 5.95498 6.97369C6.14589 6.80172 6.21862 6.24758 6.09135 5.91318C5.90044 5.44503 5.44589 5.27306 4.94589 5.4928C4.66408 5.61701 4.64589 5.60745 4.58226 5.41637C4.47317 5.0342 4.10044 4.60427 3.78226 4.48962C3.4368 4.37497 2.72771 4.59471 2.72771 4.82401C2.72771 4.89089 2.67317 4.99599 2.60044 5.05331C2.50953 5.1393 2.49135 5.25395 2.55498 5.52146C2.62771 5.87497 2.55498 6.00873 2.30044 6.01828C2.10953 6.01828 1.71862 6.46732 1.6368 6.79217C1.47317 7.37497 1.87317 8.09153 2.37317 8.1393C2.57317 8.15841 2.59135 8.19662 2.56408 8.52146C2.50953 9.09471 2.60044 9.32401 2.95498 9.49599C3.4368 9.74439 4.09135 9.59153 4.26408 9.19981C4.34589 9.02783 4.40953 8.98006 4.52771 9.03739C4.60953 9.0756 4.8368 9.12338 5.02771 9.15204C5.34589 9.19025 5.41862 9.25713 5.7368 9.77306C5.9368 10.0979 6.11862 10.4514 6.14589 10.5756C6.18226 10.6998 6.24589 10.7667 6.30953 10.7285C6.36408 10.6998 6.38226 10.6998 6.34589 10.738C6.31862 10.7762 6.34589 10.9864 6.41862 11.2062L6.55498 11.5979L6.30044 11.359C6.16408 11.2348 6.02771 11.1011 6.00044 11.0629C5.90044 10.9291 4.88226 10.6998 4.64589 10.7571C3.99135 10.91 3.81862 11.0055 3.81862 11.2062C3.82771 11.4355 4.01862 11.7508 4.15498 11.7508C4.20044 11.7508 4.3368 11.8654 4.46408 11.9992C4.81862 12.41 5.41862 12.6393 6.11862 12.6393C6.77317 12.6297 6.81862 12.6584 6.94589 13.2125C7.00044 13.461 6.99135 13.4705 6.68226 13.4514C6.50953 13.4323 6.36408 13.3941 6.36408 13.3463C6.36408 13.2603 5.90044 13.3654 5.78226 13.4801C5.7368 13.5183 5.65498 13.5278 5.58226 13.4992C5.46408 13.4514 5.29135 13.9004 5.39135 14.0055C5.42771 14.0533 5.75498 14.0629 6.22771 14.0342C6.32771 14.0342 6.56408 14.0724 6.74589 14.1202C6.92771 14.168 7.10044 14.1871 7.12771 14.1584C7.18226 14.1106 7.68226 14.0342 7.90953 14.0438C8.37317 14.0724 8.48226 14.0438 8.6368 13.9004C8.80044 13.7476 8.81862 13.7476 8.87317 13.8909C8.94589 14.082 9.32771 14.0915 9.67317 13.9004C9.90953 13.7667 9.95498 13.7667 10.1004 13.91C10.3186 14.1202 10.7459 14.0533 10.7823 13.8049C10.8004 13.6711 10.6913 13.5374 10.4095 13.3463C9.97317 13.0597 9.70953 13.0215 9.54589 13.2317C9.44589 13.3559 9.40953 13.3463 9.20953 13.1839C8.90953 12.945 8.80953 12.945 8.50044 13.203L8.24589 13.4132L8.30953 12.8113C8.38226 12.152 8.50044 11.7412 8.60953 11.7699C8.86408 11.8463 9.79135 11.617 10.2004 11.3782C11.0732 10.8718 11.4913 10.375 11.755 9.5342C11.8459 9.24758 11.5823 9.0756 11.1095 9.11382C10.6004 9.14248 9.81862 9.37178 9.81862 9.47688C9.81862 9.5151 9.77317 9.55331 9.71862 9.55331C9.59135 9.55331 8.80044 10.3081 8.70953 10.5087C8.66408 10.6138 8.64589 10.6234 8.64589 10.5183C8.6368 10.2985 9.00044 9.0756 9.08226 9.0756C9.11862 9.0756 9.22771 8.90363 9.31862 8.69344C9.40953 8.48325 9.61862 8.14885 9.79135 7.95777C9.96407 7.75713 10.1641 7.49917 10.2459 7.37497C10.4004 7.14567 10.6277 7.08834 10.6459 7.27943C10.7186 8.1393 11.2913 8.48325 12.0459 8.12974C12.2732 8.02465 12.4823 7.87178 12.5095 7.79535C12.5459 7.69025 12.6186 7.67115 12.7823 7.73803C13.3004 7.94822 13.9823 7.5756 14.0095 7.05968C14.0186 6.96414 14.0277 6.82083 14.0368 6.75395C14.0459 6.69662 13.9823 6.48643 13.9004 6.29535L13.7459 5.96095L14.0368 5.62656C14.3186 5.30172 14.4277 4.92911 14.2641 4.82401C14.2186 4.7858 14.1823 4.69025 14.1823 4.60427C14.1732 4.21255 13.455 3.96414 12.8459 4.13611C12.6913 4.17433 12.6368 4.15522 12.6368 4.04057C12.6368 3.73484 12.1823 3.0565 11.9732 3.04694C11.3095 2.99917 10.8641 3.16159 10.8459 3.45777C10.8368 3.57242 10.7913 3.68707 10.7459 3.71573C10.6004 3.82083 10.5641 4.06923 10.6368 4.47051C10.7004 4.84312 10.6823 4.88134 10.5004 4.92911C9.92771 5.08197 9.59135 5.97051 9.88226 6.56287C9.99135 6.79217 9.97317 6.83994 9.50953 7.39408C9.24589 7.70936 8.95498 8.12019 8.87317 8.29217C8.78226 8.47369 8.69135 8.58834 8.66408 8.55968C8.6368 8.53102 8.59135 7.79535 8.57317 6.92592L8.5368 5.34949L8.78226 5.45459C9.04589 5.55968 9.81862 5.33994 9.81862 5.15841C9.81862 5.11064 9.87317 5.01509 9.9368 4.94822C10.2186 4.64248 10.2641 4.15522 10.0368 3.66796C9.8368 3.22847 9.8368 3.20936 10.0004 3.08516C10.3913 2.79853 10.4732 1.43229 10.1095 1.29853C10.0277 1.26032 9.85498 1.17433 9.7368 1.0979C9.58226 1.01191 9.46408 0.992801 9.34589 1.05968C9.24589 1.11701 9.18226 1.11701 9.18226 1.05968C9.18226 1.01191 9.02771 1.05013 8.84589 1.14567C8.47317 1.33675 8.27317 1.26987 8.27317 0.954585C8.27317 0.648852 7.59135 0.247578 7.22771 0.34312ZM7.67317 1.07879C7.80044 1.17433 7.85498 1.37497 7.89135 1.89089L7.92771 2.57879L7.64589 2.5979C6.98226 2.63611 6.99135 2.63611 6.86408 2.2635C6.61862 1.51828 6.60953 1.26987 6.8368 1.10745C7.08226 0.916368 7.45498 0.906814 7.67317 1.07879ZM9.74589 1.92911C9.87317 2.12974 9.86408 2.17751 9.66408 2.50236C9.54589 2.70299 9.40953 2.86541 9.35498 2.86541C9.30953 2.86541 9.10044 2.9514 8.90953 3.04694C8.70953 3.15204 8.54589 3.19981 8.54589 3.16159C8.54589 3.11382 8.44589 2.97051 8.31862 2.8272L8.09135 2.56923L8.4368 2.18707C9.01862 1.51828 9.44589 1.44185 9.74589 1.92911ZM6.64589 2.9514C6.91862 3.0565 6.97317 3.91637 6.70953 3.91637C6.62771 3.91637 6.5368 3.95459 6.50044 4.00236C6.36408 4.24121 5.72771 4.08834 5.49135 3.7635C5.26408 3.44822 5.26408 3.44822 5.42771 3.20936C5.70044 2.81764 6.09135 2.73166 6.64589 2.9514ZM7.90044 3.1807C8.0368 3.35267 7.81862 3.65841 7.59135 3.62019C7.36408 3.57242 7.32771 3.40045 7.50044 3.20936C7.68226 3.02783 7.76408 3.01828 7.90044 3.1807ZM8.72771 3.43866C8.72771 3.48643 8.86408 3.55331 9.0368 3.58197C9.36408 3.64885 9.54589 3.92592 9.54589 4.33675C9.54589 4.82401 8.90953 5.01509 8.52771 4.64248C8.16408 4.27943 7.90953 4.30809 7.90953 4.70936C7.90953 5.17752 7.37317 5.71255 7.05498 5.55968C6.75498 5.41637 6.67317 4.98643 6.87317 4.52783C6.95498 4.31764 7.02771 4.08834 7.01862 4.01191C7.00953 3.92592 7.02771 3.91637 7.05498 3.98325C7.12771 4.14567 7.6368 4.23166 7.91862 4.12656C8.04589 4.06923 8.24589 3.87815 8.37317 3.68707C8.58226 3.35267 8.72771 3.24758 8.72771 3.43866ZM11.8732 3.70618C12.0004 3.79216 12.1732 4.42274 12.1368 4.65204C12.1186 4.74758 12.1004 4.85267 12.1004 4.89089C12.0913 4.91955 11.9641 4.99599 11.8004 5.05331C11.4277 5.18707 11.2368 4.98643 11.1913 4.42274C11.155 3.78261 11.4823 3.42911 11.8732 3.70618ZM13.6368 4.72847C13.9277 4.91955 13.4732 5.58834 13.0004 5.65522C12.7732 5.69344 12.7095 5.65522 12.6004 5.40681C12.4732 5.12974 12.4823 5.12019 12.7913 4.85267C13.1004 4.60427 13.3732 4.5565 13.6368 4.72847ZM3.91862 5.28261C4.00953 5.39726 4.08226 5.54057 4.09135 5.5979C4.09135 5.65522 4.11862 5.84631 4.14589 6.00873C4.20044 6.25713 4.17317 6.3049 4.02771 6.3049C3.9368 6.3049 3.77317 6.36223 3.68226 6.43866C3.48226 6.59153 3.26408 6.5342 3.32771 6.35267C3.35498 6.27624 3.31862 6.0756 3.2368 5.90363C3.0368 5.44503 3.02771 5.32083 3.18226 5.12974C3.35498 4.92911 3.69135 4.99599 3.91862 5.28261ZM11.0823 5.50236C11.2913 5.55013 11.3641 5.61701 11.3641 5.76987C11.3641 6.43866 12.155 6.64885 12.5913 6.08516C12.7277 5.92274 12.8095 5.8272 12.7823 5.88452C12.755 5.94185 12.8732 6.0756 13.0459 6.17115C13.4641 6.41 13.6095 6.82083 13.3641 7.08834C13.1368 7.34631 12.8004 7.21255 12.5641 6.78261C12.4186 6.52465 12.1913 6.39089 12.1732 6.56287C12.1732 6.61064 12.155 6.80172 12.1277 7.00236C12.0913 7.43229 11.9186 7.64248 11.6004 7.64248C11.2368 7.64248 11.1095 7.29853 11.3277 6.8686C11.5004 6.50554 11.3095 6.27624 10.9277 6.39089C10.4277 6.54376 10.1459 6.04694 10.5095 5.62656C10.6823 5.42592 10.6913 5.42592 11.0823 5.50236ZM12.1459 5.88452C12.1004 6.00873 12.055 6.01828 11.9823 5.94185C11.9277 5.88452 11.9095 5.76987 11.9459 5.67433C11.9913 5.55013 12.0368 5.54057 12.1095 5.61701C12.1641 5.67433 12.1823 5.78898 12.1459 5.88452ZM5.49135 6.12338C5.70953 6.45777 5.41862 6.87815 4.79135 7.0979C4.68226 7.13611 4.81862 7.4514 4.94589 7.4514C5.04589 7.4514 5.54589 7.89089 5.54589 7.98643C5.54589 8.0151 5.49135 8.14885 5.41862 8.30172C5.2368 8.66478 4.7368 8.61701 4.50953 8.20618C4.27317 7.7858 4.00044 7.88134 4.00044 8.39726C4.00044 8.61701 3.60044 9.0756 3.40953 9.0756C3.10044 9.0756 3.00044 8.52146 3.21862 8.02465C3.40953 7.5756 3.40953 7.56605 3.65498 7.69981C4.00044 7.89089 4.11862 7.87178 4.40953 7.59471C4.65498 7.34631 4.70044 6.92592 4.50953 6.49599C4.46408 6.38134 4.55498 6.2858 4.8368 6.13293C5.31862 5.87497 5.31862 5.87497 5.49135 6.12338ZM3.10044 6.6393C3.29135 6.68707 3.32771 6.75395 3.31862 7.01191C3.30044 7.46096 3.24589 7.50873 2.74589 7.53739C2.36408 7.5565 2.29135 7.52783 2.21862 7.33675C2.0368 6.88771 2.32771 6.43866 2.72771 6.54376C2.80044 6.56287 2.96408 6.61064 3.10044 6.6393ZM4.09135 7.06924C4.09135 7.17433 4.02771 7.26032 3.95498 7.26032C3.81862 7.26032 3.76408 7.05968 3.88226 6.94503C3.99135 6.82083 4.09135 6.87815 4.09135 7.06924ZM7.48226 8.73166C7.74589 9.22847 7.86408 9.7635 7.70044 9.68707C7.55498 9.62019 7.05498 8.76987 7.07317 8.62656C7.09135 8.56924 7.05498 8.4928 7.00953 8.45459C6.95498 8.42592 6.9368 8.33994 6.97317 8.25395C7.0368 8.06287 7.20953 8.21573 7.48226 8.73166ZM10.9641 9.78261C10.9368 9.9928 10.4368 10.5374 10.0459 10.7954C9.60044 11.0915 8.90953 11.2922 8.90953 11.1393C8.90953 10.8431 9.91862 9.95459 10.4459 9.78261C10.9004 9.62975 10.9913 9.62975 10.9641 9.78261ZM5.54589 11.445C5.85498 11.5692 6.20953 11.9132 6.14589 12.0183C6.08226 12.1329 5.54589 12.0756 5.27317 11.9227C4.95498 11.7412 4.6368 11.445 4.69135 11.359C4.7368 11.2731 5.25498 11.3208 5.54589 11.445Z" fill="currentColor"/>
</svg>
