<svg width="15" height="15" viewBox="0 0 15 15" fill="none" xmlns="http://www.w3.org/2000/svg">
<path d="M6.7019 0.452144C6.36013 0.551541 5.77152 1.08467 5.82849 1.23829C5.88545 1.37383 5.73355 1.48226 5.64811 1.36479C5.47722 1.09371 4.37595 1.14793 4.0057 1.44612C3.56899 1.78949 3.7114 2.81058 4.23355 3.08166L4.44241 3.18106L4.11962 3.58769C3.31266 4.59973 4.16709 5.58467 5.47722 5.13287C5.88545 4.98829 5.90444 5.02443 5.87595 5.80154C5.83798 7.22022 5.85697 8.94612 5.92342 9.89491L5.98988 10.8889L5.79051 10.6178C5.68608 10.4642 5.53418 10.2202 5.46773 10.0666C5.39178 9.91299 5.2019 9.6419 5.04051 9.47022C4.74621 9.14491 4.74621 9.14491 4.89811 8.82865C5.05 8.53949 5.05 8.47624 4.9076 8.07865C4.78418 7.70817 4.77469 7.62684 4.89811 7.45516C5.3633 6.77744 4.96456 6.00937 4.1576 6.03648C3.91076 6.04552 3.76836 5.96419 3.45507 5.65696C3.07532 5.27744 3.04684 5.26841 2.66709 5.33166C2.14494 5.42202 2.01203 5.54853 1.93608 6.01841C1.89811 6.29853 1.83165 6.416 1.71773 6.416C0.787346 6.416 0.455067 8.0425 1.37595 8.08769C1.43292 8.08769 1.4519 8.16901 1.43292 8.26841C1.3095 8.94612 1.48988 9.3166 2.05 9.48829C2.38228 9.59672 3.03735 9.47022 3.03735 9.30757C3.03735 9.16299 3.34114 9.12684 3.54051 9.26238C3.65443 9.33467 3.83481 9.39793 3.95823 9.39793C4.07216 9.39793 4.28102 9.50636 4.42342 9.6419C4.67026 9.87684 5.25887 10.8347 5.19241 10.8979C5.17342 10.916 4.95507 10.8256 4.69874 10.7082C4.20507 10.4642 3.53102 10.41 3.34114 10.5907C3.07532 10.8437 3.21773 11.178 3.8633 11.8106C4.05317 11.9913 4.14811 12.154 4.11962 12.2443C4.04368 12.416 4.05317 12.416 3.68292 12.1991C3.26519 11.9552 3.07532 11.9732 2.88545 12.2533C2.73355 12.4612 2.67659 12.4793 2.30633 12.425C1.94557 12.3799 1.86962 12.3979 1.70823 12.5787C1.37595 12.9582 1.51836 13.3738 1.92659 13.175C2.02152 13.1299 2.16393 13.1299 2.28735 13.1931C2.5057 13.3106 3.01836 13.166 3.16076 12.9582C3.20823 12.8768 3.29368 12.904 3.46456 13.0666C3.74937 13.3377 3.97722 13.3377 4.3095 13.0937C4.53735 12.922 4.58481 12.922 4.67975 13.0395C4.85064 13.2383 5.18292 13.2835 5.41076 13.1299C5.56266 13.0305 5.64811 13.0214 5.72406 13.0937C5.88545 13.2473 6.27469 13.2112 6.68292 13.0214C7.03418 12.8497 7.04368 12.8497 7.22406 13.0214C7.41393 13.2021 7.74621 13.2473 7.96456 13.1118C8.03102 13.0666 8.2019 13.0756 8.34431 13.1299C8.54368 13.2021 8.67659 13.1841 8.90444 13.0847C9.17026 12.9491 9.20823 12.9582 9.34114 13.0937C9.55 13.3106 10.0342 13.3196 10.3949 13.1027C10.7272 12.913 10.8696 12.8678 10.7842 13.0033C10.6703 13.175 11.2399 13.2654 11.6766 13.1299C11.9139 13.0576 12.2557 13.0033 12.4456 13.0033C12.7399 13.0033 12.8063 12.9672 12.8443 12.7774C12.9203 12.3979 12.0753 12.0726 11.7525 12.3527C11.5911 12.4973 11.5627 12.4883 11.4203 12.2985C11.2873 12.1088 11.2209 12.0907 10.8317 12.1449C9.79684 12.2714 9.76836 12.2805 9.8633 12.163C10.1576 11.8196 9.08481 11.6479 8.57216 11.9552C8.41076 12.0546 8.41076 11.919 8.57216 11.7112C8.64811 11.6118 8.9519 11.5033 9.35064 11.4311C10.3095 11.2594 10.4234 11.1961 11.088 10.5455C12.1323 9.50636 11.7525 9.0907 10.0532 9.42504C9.83481 9.46118 9.13228 9.93106 9.00887 10.1118C8.82849 10.3738 9.01836 9.75034 9.27469 9.2172C9.57849 8.59371 9.93925 8.13287 10.1196 8.13287C10.1861 8.13287 10.2525 8.08769 10.2525 8.0425C10.2525 7.98829 10.376 7.95214 10.5184 7.95214C10.6703 7.95214 10.8696 7.87082 10.9835 7.78046C11.1734 7.60877 11.1829 7.60877 11.4108 7.8166C11.9519 8.29552 12.7684 8.28648 13.281 7.78949C13.4804 7.60877 13.5089 6.6419 13.3285 6.49732C13.1576 6.36178 13.1576 6.18106 13.3285 6.11781C13.7462 5.96419 13.9646 5.11479 13.6703 4.78949C13.4614 4.55455 12.9487 4.40997 12.607 4.48226C12.3696 4.52744 12.3411 4.50937 12.3411 4.2925C12.3411 3.88588 11.857 3.50636 11.3918 3.55154C10.9835 3.58769 10.3475 4.05756 10.3475 4.31961C10.3475 4.40997 10.2715 4.42805 10.0722 4.38287C9.57849 4.28347 8.86646 4.7172 8.81899 5.15094C8.77152 5.61178 8.83798 5.7925 9.1133 6.02744L9.39811 6.26238L9.19874 6.47022C8.87595 6.80455 8.85697 7.33769 9.15127 7.70817C9.32216 7.916 9.36963 8.05154 9.30317 8.08769C9.24621 8.12383 9.15127 8.2413 9.1038 8.3407C9.05633 8.44913 8.90444 8.72022 8.77152 8.93708C8.62912 9.15395 8.51519 9.37985 8.49621 9.43407C8.48671 9.48829 8.44874 9.59672 8.42026 9.66901C8.19241 10.2383 7.97406 10.9702 7.97406 11.169C7.97406 11.5305 7.80317 11.7473 7.52785 11.7473C7.38545 11.7473 7.17659 11.8377 7.05317 11.9461C6.75887 12.2082 6.7019 12.1178 6.64494 11.2684C6.57849 10.3377 6.59747 10.2564 6.95823 10.0847C8.01203 9.60576 8.8 7.92504 8.3538 7.12985C8.09747 6.67805 6.97722 7.33769 6.58798 8.17805C6.47406 8.41299 6.46456 8.25034 6.47406 6.88588C6.49304 6.03648 6.53102 5.33166 6.56899 5.33166C6.60697 5.33166 6.78735 5.41299 6.96773 5.52142C7.73671 5.94612 8.54368 5.36781 8.52469 4.38287C8.52469 4.22925 8.47722 4.05757 8.42975 3.99431C8.3538 3.91299 8.38228 3.88588 8.52469 3.88588C8.62912 3.88588 8.76203 3.82263 8.82849 3.75034C8.89494 3.67805 8.99937 3.61479 9.06583 3.61479C9.28418 3.61479 9.58798 3.15395 9.58798 2.83769C9.58798 2.37684 9.28418 1.8166 8.97089 1.72624C8.92342 1.70817 8.81899 1.67202 8.75254 1.65395C8.68608 1.62684 8.5057 1.62684 8.3538 1.64491C8.10697 1.68106 8.06899 1.65395 8.06899 1.47323C8.06899 1.25636 7.89811 0.903951 7.73671 0.795517C7.67026 0.750336 7.67026 0.723228 7.73671 0.723228C7.79368 0.714192 7.67975 0.641903 7.49937 0.542505C7.12912 0.352746 7.09114 0.34371 6.7019 0.452144ZM7.22406 1.11178C7.47089 1.29251 7.51836 1.5907 7.35697 1.94311C7.11013 2.51238 7.3 2.81961 7.67975 2.49431C8.12595 2.10576 8.92342 2.20516 8.92342 2.64793C8.92342 3.01841 8.66709 3.24431 8.16393 3.30757C7.4519 3.39793 7.38545 3.53347 7.76519 4.10275C7.98355 4.43708 7.98355 4.47323 7.85064 4.75335C7.71773 5.00636 7.66076 5.0425 7.43292 4.99732C7.29051 4.97022 7.11013 4.94311 7.05317 4.94311C6.98671 4.94311 6.92975 4.90696 6.92975 4.87082C6.92975 4.77142 6.36013 3.97624 6.29368 3.97624C6.26519 3.97624 5.98988 4.13889 5.67659 4.33769C4.9076 4.82564 4.6133 4.80756 4.51836 4.2925C4.4614 3.99431 4.84114 3.52443 5.13545 3.52443C5.32532 3.52443 5.52469 3.3166 5.48671 3.15395C5.44874 2.98226 5.30633 2.8919 5.08798 2.8919C4.80317 2.8919 4.34747 2.37684 4.38545 2.09672C4.41393 1.89793 4.47089 1.84371 4.77469 1.79853C5.10697 1.75335 5.17342 1.78046 5.60064 2.1419C6.15127 2.61178 6.26519 2.58467 6.26519 1.97925C6.26519 1.30154 6.80633 0.813589 7.22406 1.11178ZM11.4867 4.15696C11.7051 4.2654 11.876 4.7172 11.762 4.88889C11.6291 5.08769 11.6671 5.33166 11.8285 5.39491C11.9139 5.42202 12.0089 5.40395 12.0468 5.35877C12.2177 5.10576 13.0152 4.95214 13.1386 5.1419C13.1766 5.18708 13.1481 5.3407 13.0817 5.48528C13.0247 5.62082 12.9867 5.77443 12.9962 5.81058C13.0057 5.85576 12.9677 5.86479 12.9203 5.83769C12.8063 5.7654 12.1513 6.02744 12.1513 6.14491C12.1513 6.1901 12.2177 6.28046 12.2937 6.34371C12.7873 6.73226 12.8823 6.90395 12.8158 7.31961C12.7494 7.73528 12.1418 7.68106 11.762 7.22925C11.4677 6.88588 11.012 6.72323 11.012 6.9672C11.012 7.01238 10.7842 7.15696 10.5089 7.27443C9.51203 7.7172 9.28418 7.22022 10.1291 6.44311C10.357 6.23528 10.4234 5.96419 10.2525 5.96419C10.1956 5.96419 10.1006 5.92805 10.0342 5.87383C9.96773 5.82865 9.79684 5.69311 9.64494 5.57564C9.32216 5.32263 9.35064 5.10576 9.73038 5.0425C9.88228 5.00636 10.0532 5.05154 10.1956 5.15997C10.6133 5.47624 10.9171 5.29552 10.9171 4.72624C10.9171 4.4913 11.1354 4.0666 11.2589 4.0666C11.2873 4.0666 11.3918 4.10275 11.4867 4.15696ZM3.03735 6.04552C3.08481 6.14491 3.13228 6.36178 3.13228 6.53347C3.13228 6.93106 3.30317 6.99431 3.73988 6.77744C4.09114 6.61479 4.4614 6.62383 4.4614 6.81359C4.4614 7.00335 4.08165 7.50034 3.93924 7.50034C3.69241 7.50034 3.77785 7.84371 4.08165 8.06058C4.4614 8.32263 4.4614 8.62082 4.06266 8.77443C3.78735 8.88287 3.74937 8.87383 3.61646 8.69311C3.13228 8.04251 3.18924 8.06058 2.94241 8.48528C2.70507 8.88287 2.3538 9.05455 2.15443 8.86479C2.01203 8.72925 2.01203 8.47624 2.16393 8.33166C2.38228 8.10576 2.30633 7.78949 2.02152 7.72624C1.57532 7.63588 1.39494 7.45516 1.4614 7.17504C1.51836 6.95817 1.55633 6.9401 1.87912 6.99431C2.60064 7.11178 2.61013 7.11178 2.63861 6.8407C2.6576 6.70516 2.62912 6.59672 2.57216 6.59672C2.45823 6.59672 2.42975 6.03648 2.53418 5.93708C2.6576 5.81058 2.94241 5.87383 3.03735 6.04552ZM7.88861 8.00636C7.85064 8.34973 7.66076 8.68407 7.3 9.08166C6.89178 9.52443 6.7019 9.5154 6.88228 9.04552C7.27152 7.97925 7.99304 7.24732 7.88861 8.00636ZM10.7652 9.98528C10.7272 10.0576 10.6703 10.1208 10.6228 10.1208C10.5753 10.1208 10.5373 10.175 10.5373 10.2383C10.5373 10.3738 9.60697 10.8437 9.32216 10.8437C9.03735 10.8437 9.14178 10.672 9.63545 10.3196C10.1956 9.91299 10.8696 9.71419 10.7652 9.98528ZM4.93608 11.5485C5.11646 11.7021 5.23988 11.8467 5.2019 11.8829C5.11646 11.9642 4.08165 11.2413 4.08165 11.1058C4.08165 10.9883 4.52785 11.2232 4.93608 11.5485Z" fill="currentColor"/>
<path d="M6.40777 2.58398C5.81917 2.77374 5.69575 3.24362 6.12296 3.65928C6.40777 3.92133 6.69258 3.94844 7.02486 3.73157C7.34765 3.52374 7.38562 3.46049 7.34765 3.15326C7.2717 2.54784 7.00587 2.38519 6.40777 2.58398Z" fill="currentColor"/>
<path d="M10.7934 5.55787C10.1479 6.17233 10.9453 7.03077 11.7143 6.55185C11.9706 6.3892 12.0371 5.82896 11.8377 5.56691C11.6194 5.28679 11.0877 5.28679 10.7934 5.55787Z" fill="currentColor"/>
<path d="M2.67702 7.33676C2.45867 7.74339 2.65804 8.07773 3.09475 8.02351C3.33209 7.9964 3.37006 7.95122 3.39854 7.69821C3.45551 7.16508 2.91437 6.90303 2.67702 7.33676Z" fill="currentColor"/>
</svg>
