<svg width="15" height="15" viewBox="0 0 15 15" fill="none" xmlns="http://www.w3.org/2000/svg">
<path d="M6.6252 2.47012C6.34913 2.55089 5.99944 2.70089 5.843 2.80474C5.69576 2.90858 5.52091 3.00089 5.46569 3.00089C5.41048 3.00089 5.23563 3.18551 5.08839 3.40474C4.85833 3.73935 4.7479 3.80858 4.45342 3.80858C4.25097 3.80858 3.9749 3.91243 3.82766 4.02781C3.68042 4.15474 3.49637 4.22397 3.42275 4.17781C3.33073 4.1432 3.30312 4.16628 3.34913 4.24704C3.38594 4.32781 3.30312 4.51243 3.13747 4.68551C2.98103 4.84704 2.8522 5.05474 2.8522 5.13551C2.8522 5.21628 2.81539 5.30858 2.76938 5.33166C2.71416 5.3432 2.64974 5.62012 2.62214 5.9432C2.56692 6.43935 2.4933 6.61243 2.06079 7.15474C1.78471 7.51243 1.56385 7.88166 1.56385 7.98551C1.56385 8.08935 1.52704 8.20474 1.48103 8.23935C1.24177 8.43551 1.07612 10.3394 1.29698 10.5009C1.343 10.547 1.39821 10.697 1.40741 10.824C1.41662 10.9624 1.46263 11.0778 1.50864 11.0778C1.55465 11.0778 1.57306 11.1124 1.53625 11.147C1.50864 11.1817 1.55465 11.297 1.63747 11.4009C2.05158 11.9086 2.66815 12.2201 3.37674 12.2894C3.616 12.3124 4.21416 12.497 4.69269 12.6932C5.55772 13.0624 7.21416 13.2817 7.48103 13.074C7.57306 13.0047 7.85833 12.924 8.17122 12.9009C8.22643 12.8894 8.28165 12.8547 8.28165 12.8086C8.28165 12.7624 8.53931 12.6932 8.8614 12.647C9.18349 12.6124 9.67122 12.497 9.94729 12.3932C10.2234 12.2894 10.9043 12.1624 11.4657 12.1163C12.6528 12.0009 13.7663 11.4701 13.5731 11.0894C13.5454 11.0201 13.5731 10.9624 13.6375 10.9624C13.8215 10.9624 13.9596 10.6047 14.0332 9.97012C14.07 9.65858 14.116 9.32397 14.1252 9.23166C14.1988 8.67781 13.8859 6.80858 13.7203 6.80858C13.6835 6.80858 13.5823 6.62397 13.4902 6.40474C13.389 6.18551 13.2786 6.00089 13.2418 6.00089C13.205 6.00089 13.1129 5.93166 13.0485 5.85089C12.9749 5.78166 12.8461 5.65474 12.7448 5.58551C12.5424 5.44704 12.4504 5.25089 12.3859 4.83551C12.2847 4.23551 11.7326 3.62397 11.1804 3.48551C10.8859 3.40474 10.527 3.20858 10.3338 3.03551C10.1497 2.85089 9.9749 2.72397 9.94729 2.72397C9.87367 2.74704 9.77244 2.71243 9.35833 2.55089C8.84299 2.3432 7.22336 2.29704 6.6252 2.47012ZM8.72336 3.17397C9.19269 3.23166 9.68962 3.47397 9.93809 3.75089C10.2786 4.1432 10.5086 4.24704 10.8215 4.18935C11.0424 4.1432 11.162 4.20089 11.3185 4.40858C11.8338 5.08935 11.8798 5.52781 11.4197 5.56243C11.2908 5.56243 11.116 5.58551 11.0424 5.58551C10.9504 5.59704 10.9135 5.70089 10.932 5.92012C10.978 6.41628 10.5639 6.80858 10.3154 6.49704C10.1405 6.27781 10.0025 6.35858 9.85526 6.78551C9.78164 6.98166 9.65281 7.17781 9.56079 7.21243C9.39514 7.28166 8.92582 7.06243 8.92582 6.90089C8.92582 6.73935 8.59453 6.79704 8.41048 7.00474C7.81232 7.67397 7.23257 7.62781 7.40741 6.93551C7.47183 6.68166 7.34299 6.46243 7.08533 6.40474C6.96569 6.38166 6.83686 6.28935 6.79085 6.20858C6.75404 6.12781 6.71723 6.11628 6.71723 6.17397C6.71723 6.3932 6.19269 6.60089 5.99023 6.46243C5.84299 6.37012 5.70496 6.3932 5.38287 6.57781C4.95036 6.82012 4.60066 6.79704 4.60066 6.52012C4.60066 6.33551 4.24177 5.78166 4.23257 5.95474C4.23257 6.16243 3.73563 6.37012 3.46876 6.27781C2.8614 6.0932 3.63441 4.62781 4.343 4.61628C4.52704 4.61628 4.70189 4.57012 4.7387 4.50089C4.76631 4.4432 4.85833 4.43166 4.93195 4.46628C5.07919 4.53551 5.61293 3.87781 5.61293 3.64704C5.61293 3.58935 5.64054 3.56628 5.66815 3.61243C5.70496 3.64704 5.84299 3.61243 5.98103 3.52012C6.38594 3.25474 7.77551 2.97781 8.18962 3.08166C8.31845 3.11628 8.55772 3.16243 8.72336 3.17397ZM12.5792 6.34704C12.7816 6.53166 13.0025 6.8432 13.0669 7.03935C13.1313 7.22397 13.2142 7.38551 13.251 7.38551C13.3522 7.38551 13.435 8.0432 13.435 8.88551C13.4442 9.79705 13.4258 9.92397 13.2418 10.2817C13.1589 10.4317 13.0761 10.6394 13.0393 10.7547C13.0117 10.8586 12.8645 10.974 12.708 11.0201C12.5516 11.0663 12.4227 11.1355 12.4227 11.1701C12.4227 11.2163 12.2663 11.2624 12.0823 11.274C10.5547 11.3778 9.9749 11.4817 9.77244 11.6894C9.70803 11.7586 9.45956 11.8278 9.2203 11.8394C8.73257 11.8855 8.52091 11.9317 8.18042 12.0932C7.25097 12.5432 5.05158 12.3586 4.46263 11.7817C4.3706 11.6778 3.51477 11.4817 3.37674 11.5163C3.18349 11.574 2.5025 11.2394 2.27244 10.974C1.87674 10.524 1.76631 10.097 1.86754 9.40474C1.91355 9.0932 1.95956 8.70089 1.96876 8.56243C1.98717 8.41243 2.20803 8.03166 2.46569 7.70858C2.93502 7.13166 2.95342 7.13166 3.58839 7.09704C4.14974 7.06243 4.26017 7.09704 4.48103 7.33935C4.79392 7.67397 4.98717 7.68551 5.4933 7.38551C5.71416 7.27012 5.90741 7.21243 5.93502 7.27012C5.99944 7.39704 6.52398 7.38551 6.58839 7.24704C6.67122 7.07397 6.77244 7.15474 6.78165 7.40858C6.79085 7.55858 6.86447 7.73166 6.94729 7.80089C7.02091 7.87012 7.08533 7.99704 7.08533 8.06628C7.08533 8.14704 7.12214 8.18166 7.16815 8.13551C7.21416 8.10089 7.27858 8.12397 7.30619 8.18166C7.39821 8.35474 7.97796 8.23935 8.31845 7.96243C8.57612 7.77781 8.67735 7.7432 8.82459 7.83551C9.15588 8.06628 9.75404 7.98551 10.0853 7.67397C10.251 7.51243 10.435 7.38551 10.4994 7.38551C10.9412 7.38551 11.3185 7.09704 11.4933 6.62397C11.6221 6.30089 11.751 6.11628 11.889 6.08166C12.0086 6.05858 12.1191 6.02397 12.1559 6.01243C12.1835 6.01243 12.3675 6.15089 12.5792 6.34704Z" fill="currentColor"/>
<path d="M6.11961 4.54634C5.78832 4.88096 5.85274 5.22711 6.22084 5.14634C6.49691 5.07711 6.8282 4.7425 6.75458 4.60403C6.61654 4.31557 6.37728 4.2925 6.11961 4.54634Z" fill="currentColor"/>
<path d="M9.06303 4.46629C8.96181 4.5009 8.85138 4.58167 8.82377 4.63936C8.78696 4.70859 8.71334 4.72013 8.64892 4.67398C8.45567 4.52398 7.90353 4.54706 7.8023 4.69706C7.67346 4.90475 8.06917 5.29706 8.40046 5.30859C8.59371 5.30859 8.67653 5.23936 8.71334 5.07782C8.76856 4.82398 8.84218 4.78936 8.98021 4.96244C9.03543 5.03167 9.21027 5.1009 9.36672 5.13552C9.63359 5.17013 9.66119 5.14706 9.66119 4.84706C9.66119 4.66244 9.59678 4.5009 9.51396 4.45475C9.35751 4.38552 9.34831 4.38552 9.06303 4.46629Z" fill="currentColor"/>
<path d="M2.57698 8.50478C2.57698 8.6894 2.54937 8.94324 2.52177 9.0817C2.45735 9.3817 2.54937 9.41632 2.80704 9.16247C3.00029 8.97786 3.06471 8.41247 2.90827 8.28555C2.70582 8.11247 2.57698 8.20478 2.57698 8.50478Z" fill="currentColor"/>
<path d="M11.8697 8.27463C11.4464 8.47078 11.2715 8.92078 11.658 8.84001C11.9801 8.75924 12.4678 8.19386 12.1918 8.2054C12.0905 8.2054 11.9433 8.24001 11.8697 8.27463Z" fill="currentColor"/>
<path d="M4.44444 9.06942C4.16836 9.36942 4.17757 9.42712 4.50885 9.46173C5.02419 9.51942 5.28186 9.38096 5.19904 9.0925C5.09781 8.78096 4.72051 8.76942 4.44444 9.06942Z" fill="currentColor"/>
<path d="M12.837 8.91919C12.5793 9.12688 12.4689 9.26534 12.3401 9.5538C12.1652 9.95765 12.4505 10.0153 12.8002 9.64611C12.9566 9.48457 13.0486 9.34611 13.0118 9.34611C12.975 9.34611 13.0394 9.21919 13.1591 9.05765C13.3615 8.79226 13.3615 8.76919 13.1959 8.78072C13.1039 8.78072 12.9382 8.84995 12.837 8.91919Z" fill="currentColor"/>
<path d="M5.5675 9.55445C5.53989 9.58906 5.52148 9.70445 5.52148 9.81983C5.52148 10.0506 6.18406 10.3621 6.23928 10.1544C6.25768 10.0852 6.3313 10.0391 6.40492 10.0391C6.56136 10.0391 6.57977 9.57753 6.42332 9.56599C5.89878 9.5083 5.60431 9.5083 5.5675 9.55445Z" fill="currentColor"/>
<path d="M10.3236 9.92375C9.75309 10.3622 9.88193 10.6045 10.5261 10.3045C10.7562 10.1891 10.9494 10.0391 10.9494 9.9699C10.9494 9.73914 10.6089 9.71606 10.3236 9.92375Z" fill="currentColor"/>
<path d="M7.02093 10.0397C6.85529 10.132 6.5332 10.6858 6.5332 10.905C6.5332 11.0781 6.93811 10.9166 7.19578 10.6397C7.60989 10.1666 7.49946 9.79735 7.02093 10.0397Z" fill="currentColor"/>
<path d="M3.16461 10.1546C2.89774 10.2931 2.79651 10.5008 2.95295 10.6277C3.23823 10.8585 3.72596 10.6508 3.79038 10.2816C3.82719 10.0854 3.44068 10.0162 3.16461 10.1546Z" fill="currentColor"/>
</svg>
