<svg width="15" height="15" viewBox="0 0 15 15" fill="none" xmlns="http://www.w3.org/2000/svg">
<path d="M6.37239 0.925377C6.00904 1.06427 5.58978 1.57352 5.53388 1.95315C5.45935 2.41612 5.39413 2.45315 5.08668 2.21241C4.80717 1.99945 4.29475 1.95315 3.90345 2.11056C3.67053 2.20315 3.16742 2.77723 3.31649 2.77723C3.34444 2.77723 3.32581 2.84204 3.25127 2.92538C3.12084 3.08278 3.06494 3.61056 3.18605 3.61056C3.22332 3.61056 3.25127 3.63834 3.25127 3.67538C3.24196 3.72167 3.24196 3.79575 3.25127 3.8513C3.26059 3.98093 3.75438 4.49945 3.91276 4.55501C3.9873 4.57352 3.92208 4.70315 3.74506 4.87908C3.19537 5.47167 3.32581 6.48093 3.9873 6.86982C4.3786 7.1013 5.14258 7.03649 5.45935 6.75871C5.5991 6.62908 5.68295 6.58278 5.64568 6.63834C5.52456 6.8513 5.98109 7.46241 6.16742 7.3513C6.21401 7.32352 6.24196 7.34204 6.24196 7.3976C6.24196 7.45315 6.34444 7.45315 6.54009 7.3976C6.69848 7.3513 6.84755 7.33278 6.86618 7.34204C6.9314 7.40686 6.95003 9.73093 6.88481 9.76797C6.84755 9.79575 6.74506 9.69389 6.66121 9.55501C6.39102 9.1476 5.7109 8.52723 5.45003 8.46241C5.3196 8.43464 5.21711 8.37908 5.21711 8.34204C5.21711 8.30501 5.03078 8.23093 4.79786 8.16612C3.72643 7.87908 2.41276 8.19389 2.58046 8.69389C2.7109 9.05501 3.64258 9.80501 3.97798 9.82352C4.10842 9.82352 4.11773 9.84204 4.00593 9.87908C3.9314 9.90686 3.76369 10.0272 3.63326 10.1476C3.50283 10.2587 3.22332 10.3976 3.01835 10.4439C2.66432 10.518 1.95624 10.9532 1.88171 11.1383C1.86307 11.1754 1.80717 11.1846 1.76059 11.1569C1.72332 11.1291 1.64879 11.2217 1.62084 11.3606C1.58357 11.4995 1.49972 11.6754 1.42519 11.7402C1.20158 11.9624 1.4345 12.6846 1.72332 12.6846C1.79786 12.6846 1.86307 12.7124 1.86307 12.7495C1.86307 12.9439 2.78543 13.1846 3.58668 13.2124C4.0432 13.2217 4.64879 13.268 4.92829 13.3143C5.41276 13.3976 5.67363 13.3606 6.19537 13.1476C6.60531 12.9809 6.71711 12.9717 7.02456 13.1013C7.39724 13.2587 8.31028 13.2865 8.57115 13.1476C8.69227 13.0828 8.83202 13.092 9.00904 13.1569C9.35376 13.2957 9.8755 13.2772 10.36 13.1013C10.5836 13.018 11.0587 12.9439 11.4314 12.9254C11.9066 12.9069 12.1581 12.8606 12.2792 12.7495C12.3724 12.6661 12.4935 12.592 12.5494 12.592C12.7171 12.592 12.9407 12.268 12.9221 12.055C12.9128 11.9439 12.8848 11.8513 12.8475 11.8513C12.8103 11.8513 12.7357 11.7217 12.6705 11.5735C12.6053 11.4161 12.5215 11.2957 12.4842 11.2957C12.4469 11.2957 12.391 11.2124 12.3631 11.1198C12.3351 11.0087 12.0743 10.8235 11.7109 10.6476C11.3755 10.4902 11.0308 10.2587 10.9562 10.1383C10.7047 9.75871 10.4345 9.55501 10.0805 9.49019C9.57736 9.3976 8.655 9.42538 8.50593 9.54575C8.41276 9.62908 8.38481 9.61982 8.38481 9.49945C8.38481 9.41612 8.4314 9.3513 8.47798 9.3513C8.53388 9.3513 8.57115 9.29575 8.57115 9.23093C8.57115 9.1013 9.36307 8.27723 9.62394 8.12908C9.72643 8.08278 9.88481 8.11982 10.1084 8.24019C10.3972 8.40686 10.4904 8.41612 10.8538 8.32352C11.1892 8.24019 11.301 8.24945 11.478 8.36982C11.7761 8.58278 12.0463 8.55501 12.2979 8.28649C12.419 8.15686 12.4935 8.05501 12.4562 8.05501C12.4283 8.05501 12.4376 7.93464 12.4842 7.79575C12.5215 7.6476 12.5215 7.46241 12.4749 7.37908C12.4097 7.26797 12.4562 7.19389 12.6519 7.08278C13.3972 6.63834 13.0339 5.47167 12.1861 5.58278C12.0184 5.6013 11.9252 5.57352 11.9252 5.49945C11.9252 5.32352 11.5059 4.90686 11.3475 4.90686C11.1798 4.90686 10.5277 5.17538 10.6674 5.18464C10.7233 5.18464 10.6861 5.23093 10.6022 5.28649C10.509 5.33278 10.4345 5.45315 10.4345 5.54575C10.4345 5.66612 10.3413 5.73093 10.155 5.76797C9.61463 5.87908 9.34444 6.62908 9.68916 7.06426L9.8755 7.29575L9.61463 7.3976C9.26991 7.53649 8.3196 8.51797 7.89102 9.15686L7.56494 9.6476L7.50904 9.06426C7.46245 8.6476 7.3786 6.73093 7.40655 6.75871C7.48109 6.86982 8.19848 6.99945 8.38481 6.92538C8.51525 6.87908 8.63637 6.8513 8.66432 6.86982C8.77612 6.95315 9.19537 6.1476 9.17674 5.88834C9.15811 5.73093 9.14879 5.52723 9.13947 5.44389C9.13947 5.36056 9.06494 5.23093 8.9904 5.15686C8.86929 5.03649 8.88792 4.99945 9.11152 4.86056C9.7637 4.44389 10.0805 3.78649 9.86618 3.27723C9.74506 2.99019 9.71711 2.91612 9.69848 2.78649C9.66121 2.53649 8.44071 2.29575 8.23574 2.49945C8.14258 2.59204 8.09599 2.38834 8.09599 1.8513C8.08668 1.66612 7.63015 1.12908 7.45314 1.09204C7.3786 1.07352 7.28543 1.02723 7.25748 0.980932C7.17363 0.869821 6.61463 0.832784 6.37239 0.925377ZM7.3227 1.72167C7.44382 1.8513 7.5463 2.04575 7.55562 2.15686C7.57425 2.49945 7.52767 2.81427 7.45314 2.91612C7.41587 2.96241 7.35997 3.1013 7.33202 3.21241C7.2668 3.49945 7.49972 3.49019 8.14258 3.17538C8.5991 2.95315 8.67363 2.9439 8.9345 3.05501C9.66121 3.3513 9.20469 4.45315 8.34755 4.49019C7.68606 4.50871 7.64879 4.65686 8.17984 5.16612C8.7109 5.68464 8.72953 5.72167 8.52456 6.11056C8.29165 6.55501 7.81649 6.46241 7.42519 5.91612C7.12705 5.50871 6.89413 5.54575 6.89413 5.99019C6.89413 6.30501 6.64258 6.8513 6.50283 6.8513C6.30717 6.8513 6.14879 6.51797 6.16742 6.12908C6.16742 5.93464 6.14879 5.72167 6.11152 5.66612C6.00904 5.49945 5.70158 5.53649 5.64568 5.72167C5.35686 6.62908 3.88481 6.58278 4.03388 5.68464C4.08978 5.34204 4.49972 4.81426 4.70469 4.81426C4.88171 4.81426 5.23574 4.46241 5.17053 4.36056C5.14258 4.30501 4.94692 4.23093 4.73264 4.20315C4.25748 4.11982 3.76369 3.70315 3.70779 3.33278C3.67053 3.1013 3.71711 3.00871 3.9873 2.81427C4.38792 2.50871 4.82581 2.6013 5.33823 3.11056C5.74817 3.52723 5.96245 3.48093 5.97177 2.99019C5.97177 2.79575 5.99972 2.50871 6.01835 2.36056C6.0463 2.20315 6.07425 2.03649 6.07425 1.97167C6.08357 1.91612 6.18606 1.81427 6.30717 1.74945C6.42829 1.68464 6.52146 1.6013 6.52146 1.55501C6.52146 1.36982 7.11773 1.49019 7.3227 1.72167ZM11.3569 5.78649C11.3103 6.23093 11.4687 6.36056 11.86 6.22167C12.2885 6.06426 12.4842 6.08278 12.4842 6.26797C12.4842 6.52723 12.3724 6.63834 12.037 6.71241C11.6364 6.79575 11.5711 6.99019 11.832 7.26797C11.9904 7.43464 12.0277 7.55501 11.9811 7.73093C11.8972 8.05501 11.6364 7.99945 11.4593 7.61982C11.3382 7.3513 10.9935 7.18464 10.9935 7.38834C10.9935 7.52723 10.6208 7.86982 10.4718 7.86982C10.2761 7.86982 10.3879 7.49945 10.6488 7.30501C10.9003 7.1013 10.7979 6.88834 10.4159 6.80501C9.99661 6.71241 9.95003 6.67538 10.0525 6.49945C10.1084 6.3976 10.2575 6.34204 10.4997 6.34204C10.8351 6.34204 10.8538 6.32352 10.8817 6.01797C10.919 5.65686 11.0401 5.46241 11.2451 5.46241C11.3382 5.46241 11.3755 5.55501 11.3569 5.78649ZM5.04009 8.90686C5.53388 9.15686 5.94382 9.49019 5.85997 9.57352C5.67363 9.74945 4.03388 9.24019 3.56804 8.86982C3.11152 8.49945 4.31338 8.53649 5.04009 8.90686ZM10.0059 10.092C10.1364 10.1383 10.332 10.342 10.4531 10.5457C10.5743 10.7587 10.714 10.9254 10.7606 10.9346C11.2171 10.9717 11.7482 11.2957 11.9625 11.6661L12.1488 11.9717L11.9345 12.1383C11.7016 12.3235 11.1798 12.3698 11.0308 12.2217C10.9656 12.1569 10.7885 12.2032 10.4718 12.3698C9.95935 12.6291 9.23264 12.7032 8.99972 12.5087C8.8786 12.4069 8.79475 12.4069 8.56183 12.4995C8.41276 12.5643 8.17053 12.6291 8.03078 12.6476C7.72332 12.6846 6.78233 12.4161 6.85686 12.305C6.95935 12.1291 6.54009 12.2309 6.25127 12.4439C5.85065 12.7402 5.14258 12.842 4.77922 12.6569C4.58357 12.555 4.40655 12.5365 4.10842 12.592C3.29786 12.7402 2.14258 12.4069 2.06804 12.0087C2.00282 11.6939 2.81338 11.0643 3.33512 11.0272C3.43761 11.0272 3.66121 10.8698 3.84755 10.6939C4.20158 10.3513 4.51835 10.2865 4.98419 10.4624C5.14258 10.518 5.28233 10.518 5.40345 10.4624C5.50593 10.4069 5.67363 10.3328 5.7668 10.2772C6.1581 10.092 6.81028 10.6106 7.10842 11.342C7.155 11.4532 7.5463 11.1291 7.5463 10.9717C7.5463 10.4439 9.27922 9.81426 10.0059 10.092Z" fill="currentColor"/>
<path d="M6.38249 3.50937C5.52535 3.71307 5.25516 4.47233 5.81417 5.06492C6.29864 5.57418 7.53777 5.19455 7.56572 4.53715C7.59367 3.76863 7.1092 3.3427 6.38249 3.50937ZM6.84833 4.10196C7.24895 4.39826 6.80174 4.91678 6.29864 4.73159C6.00982 4.62048 5.99119 4.41678 6.24274 4.16678C6.45702 3.95381 6.60609 3.9353 6.84833 4.10196Z" fill="currentColor"/>
<path d="M8.55207 11.0268C8.30052 11.1657 8.33778 11.4805 8.60797 11.4805C8.91542 11.4805 9.10176 11.249 8.94337 11.0638C8.80362 10.9064 8.76635 10.8971 8.55207 11.0268Z" fill="currentColor"/>
<path d="M5.42136 11.3142C5.24434 11.4901 5.29092 11.666 5.50521 11.666C5.7754 11.666 6.0549 11.4993 6.0549 11.3419C6.0549 11.1753 5.57974 11.1568 5.42136 11.3142Z" fill="currentColor"/>
<path d="M3.14854 11.676C2.89699 11.8149 2.94357 12.0371 3.20444 12.0371C3.49326 12.0371 3.60506 11.8704 3.43736 11.713C3.34419 11.6204 3.26034 11.6112 3.14854 11.676Z" fill="currentColor"/>
<path d="M9.46512 11.7211C9.26947 11.9062 9.36264 12.0451 9.64214 11.9988C10.0055 11.934 10.0893 11.8507 9.95891 11.7025C9.81916 11.5359 9.64214 11.5359 9.46512 11.7211Z" fill="currentColor"/>
<path d="M3.89358 11.7678C3.66998 11.8882 3.6793 12.1289 3.9029 12.1289C4.16377 12.1289 4.43396 11.8511 4.26626 11.7493C4.11719 11.6474 4.08924 11.6474 3.89358 11.7678Z" fill="currentColor"/>
</svg>
