<svg width="15" height="15" viewBox="0 0 15 15" fill="none" xmlns="http://www.w3.org/2000/svg">
<path d="M5.51068 0.983561C4.71656 1.21204 4.15774 2.26502 4.25578 3.3478C4.28519 3.69548 4.29499 3.97363 4.27539 3.97363C4.25578 3.97363 4.10872 3.90409 3.96166 3.82462C3.62833 3.64581 2.8146 3.63588 2.19695 3.78489C1.40284 3.9935 0.942053 4.79813 1.16754 5.62264C1.24597 5.92065 1.24597 6.02992 1.12833 6.15906C0.0891115 7.32131 0.922445 9.00012 2.63813 9.20873L3.14794 9.26833L2.90284 9.52661C2.18715 10.2816 1.98127 11.7617 2.50088 12.318C2.89303 12.7352 3.24597 12.914 3.68715 12.914C3.99107 12.914 4.10872 12.9836 4.38323 13.3114C4.94205 13.967 5.90284 13.9869 6.64794 13.3412C6.87343 13.1524 7.0597 12.9438 7.0597 12.8942C7.0597 12.8445 7.14794 12.7154 7.25578 12.5961C7.36362 12.4769 7.45186 12.2981 7.45186 12.2087C7.45186 12.1094 7.49107 12.0001 7.5499 11.9703C7.59892 11.9405 7.64794 11.9803 7.64794 12.0597C7.64794 12.1491 7.78519 12.4372 7.94205 12.7054C8.79499 14.0961 10.3832 14.1955 11.0989 12.8942C11.2852 12.5365 11.3832 12.4571 11.697 12.4074C13.1185 12.1789 13.4126 10.3908 12.2264 9.15906C12.0009 8.92065 11.8832 8.73191 11.9617 8.75177C12.3146 8.81138 13.4813 8.34449 13.697 8.05641C14.246 7.37098 14.3538 6.53654 13.9813 5.93058C13.844 5.71204 13.7852 5.43389 13.7852 5.01667C13.7656 3.73522 13.0499 3.10939 11.697 3.20873C11.2166 3.23853 10.8832 3.32793 10.6577 3.46701C10.2068 3.74515 10.2068 3.74515 10.2166 3.19879C10.2264 2.54316 10.1087 1.91734 9.94205 1.77826C9.86362 1.71866 9.8048 1.60939 9.8048 1.53985C9.8048 1.36104 8.99107 0.894157 8.67735 0.894157C8.54009 0.894157 8.16754 0.983561 7.85382 1.09283C7.3048 1.27164 7.24597 1.28157 6.89303 1.13257C6.47146 0.95376 5.84401 0.884223 5.51068 0.983561ZM6.82441 1.7882C7.20676 2.03654 7.36362 2.03654 7.8146 1.7882C9.0499 1.12263 9.96166 2.21535 9.5499 3.85442C9.41264 4.36105 9.32441 4.55972 8.71656 5.65244C8.07931 6.80475 8.86362 6.36767 9.75578 5.07628C10.1577 4.50012 10.3538 4.31138 10.8244 4.07297C12.1381 3.39747 13.3636 3.92396 13.1872 5.06634C13.0891 5.68224 13.0989 6.00012 13.2264 6.03985C13.393 6.09946 13.6185 6.59615 13.5793 6.81469C13.5597 6.91403 13.5401 7.0829 13.5401 7.1723C13.5303 7.45045 12.9617 7.92727 12.4421 8.09615C11.6283 8.37429 9.77539 8.31469 8.70676 7.98687C8.57931 7.94714 8.53029 7.98687 8.53029 8.12595C8.53029 8.37429 9.26558 8.74184 9.77539 8.74184C11.2656 8.74184 12.5891 9.91403 12.344 11.0167C12.2362 11.5233 11.8538 11.8213 11.3342 11.8213C10.8636 11.8213 10.7166 11.9405 10.6283 12.4074C10.5597 12.7452 10.2166 13.0829 9.83421 13.1723C8.96166 13.4008 7.84401 11.8511 7.84401 10.4306C7.84401 9.77495 7.74597 9.33787 7.58911 9.33787C7.40284 9.33787 7.35382 9.46701 7.3048 10.1028C7.19695 11.6028 6.82441 12.467 6.08911 12.9736C5.47146 13.3908 5.12833 13.2716 4.43225 12.3875C4.34401 12.2683 4.20676 12.2385 3.92245 12.2783C3.18715 12.3875 2.62833 11.8312 2.78519 11.1458C2.8146 10.9968 2.87343 10.7683 2.90284 10.6293C3.03029 10.0233 4.75578 8.57297 5.37343 8.54317C5.53029 8.54317 6.07931 8.13588 6.07931 8.02661C6.07931 7.85773 5.51068 7.96701 4.85382 8.25509C3.13813 9.01999 1.50088 8.63257 1.3048 7.42065C1.25578 7.06303 1.5597 6.35773 1.77539 6.35773C1.90284 6.35773 1.88323 5.62264 1.75578 5.4935C1.59892 5.33456 1.78519 4.7584 2.0695 4.53985C2.22637 4.43058 2.5499 4.34118 2.92244 4.31138C3.8146 4.23191 4.28519 4.48025 5.24597 5.51336C5.67735 5.98025 6.10872 6.35773 6.20676 6.35773C6.42244 6.35773 6.42244 6.01005 6.20676 5.78158C5.37343 4.9372 4.91264 4.10277 4.85382 3.33787C4.73617 1.8776 5.72637 1.1127 6.82441 1.7882Z" fill="black"/>
<path d="M7.16681 3.51718C7.07857 3.61651 7.03936 3.98406 7.04916 4.59002L7.05897 5.51387L6.8825 5.23572C6.69622 4.95757 6.3825 4.67943 6.25504 4.66949C6.10799 4.66949 6.17661 5.14632 6.33348 5.27546C6.41191 5.34499 6.56877 5.56353 6.66681 5.75228C6.8825 6.15956 7.30406 6.65625 7.43151 6.65625C7.6374 6.65625 8.43151 4.88804 8.43151 4.42115C8.43151 4.19267 8.03936 4.44102 7.8825 4.76883C7.657 5.24565 7.54916 5.27546 7.52955 4.83837C7.48053 3.73572 7.46093 3.54698 7.3825 3.46751C7.32367 3.40791 7.24524 3.42777 7.16681 3.51718Z" fill="black"/>
<path d="M9.73713 6.09967C8.88419 6.51689 8.53125 6.77516 8.53125 6.96391C8.53125 7.10298 8.94301 7.06324 9.28615 6.8745C9.45282 6.7851 9.88419 6.55662 10.2371 6.38775C10.8646 6.06987 11.0411 5.84139 10.7469 5.73212C10.6685 5.70232 10.2077 5.87119 9.73713 6.09967Z" fill="black"/>
<path d="M3.73571 6.3087C3.77492 6.4875 3.91218 6.54711 5.14747 6.91466C5.471 7.00406 5.83374 7.14313 5.9612 7.2226C6.15727 7.34181 6.18669 7.34181 6.24551 7.1928C6.35335 6.91466 6.13767 6.71598 5.471 6.4875C4.52982 6.15969 3.69649 6.07029 3.73571 6.3087Z" fill="black"/>
<path d="M7.23708 7.12324C6.85472 7.22257 6.93316 7.89807 7.33512 8.05701C7.77629 8.22589 8.12923 7.56032 7.7861 7.21264C7.63904 7.0537 7.541 7.04377 7.23708 7.12324Z" fill="black"/>
<path d="M9.32485 7.16256C8.81505 7.2619 8.57976 7.42084 8.72681 7.59965C8.88368 7.78839 10.1974 7.63938 10.3837 7.4109C10.6288 7.11289 10.1778 7.01355 9.32485 7.16256Z" fill="black"/>
<path d="M4.73568 7.40156C4.65725 7.63004 4.7945 7.72938 5.24548 7.76911C5.57882 7.78898 5.63764 7.76911 5.66705 7.60024C5.68666 7.45123 5.63764 7.39163 5.47097 7.38169C5.34352 7.37176 5.14744 7.33202 5.01999 7.30222C4.87293 7.26249 4.7847 7.30222 4.73568 7.40156Z" fill="black"/>
<path d="M6.11791 8.61198C5.97086 8.77092 5.71595 9.04906 5.53948 9.2378C5.14733 9.66496 4.88262 10.1716 4.96105 10.3703C5.02968 10.5491 5.26497 10.4696 5.3434 10.251C5.37282 10.1517 5.69635 9.75436 6.06889 9.34707C6.70615 8.66164 6.8434 8.34376 6.50027 8.34376C6.43164 8.34376 6.25517 8.46297 6.11791 8.61198Z" fill="black"/>
<path d="M8.13824 8.79168C7.91275 9.04002 7.91275 9.04002 8.07941 9.4175C8.17745 9.61618 8.25589 9.80492 8.26569 9.83472C8.26569 9.90426 8.55981 10.1228 8.65785 10.1327C8.84412 10.1427 8.69706 9.54664 8.41275 9.19896C7.95196 8.63274 8.35392 8.90095 9.18726 9.71552C9.73628 10.2519 9.92255 10.3811 10.001 10.2817C10.2167 10.0235 9.70687 9.34797 8.85392 8.76188C8.47157 8.48373 8.42255 8.49366 8.13824 8.79168Z" fill="black"/>
<path d="M6.88365 8.81175C6.7562 8.86142 6.32483 9.63625 6.42287 9.63625C6.46209 9.63625 6.41307 9.73559 6.33464 9.85479C6.07973 10.2124 6.15816 10.7389 6.43267 10.5502C6.4915 10.5104 6.63856 10.2223 6.7562 9.90446C6.88365 9.59652 7.02091 9.30844 7.06993 9.27864C7.17777 9.21903 7.18758 8.74221 7.08954 8.75215C7.04052 8.75215 6.95228 8.78195 6.88365 8.81175Z" fill="black"/>
</svg>
