<svg width="15" height="15" viewBox="0 0 15 15" fill="none" xmlns="http://www.w3.org/2000/svg">
<path d="M5.94242 1.63776C5.92343 1.66717 5.76204 1.70638 5.59115 1.7358C4.38546 1.93187 3.08482 3.72599 3.4171 4.73579C3.55001 5.16717 3.88229 5.32403 4.65128 5.30442L5.26837 5.28481L5.24938 5.95148C5.19242 7.70638 5.2209 8.58874 5.34432 8.78481C5.38229 8.85344 5.34432 9.05932 5.26837 9.2456C5.03102 9.84364 5.42976 10.4907 6.04685 10.4907C6.39811 10.4907 6.48356 10.6378 6.36014 11.0201C6.30318 11.2162 6.18925 11.373 6.1228 11.373C5.93292 11.373 5.48672 11.1574 5.28735 10.9711C5.20191 10.8829 4.99305 10.824 4.84115 10.8338C4.67976 10.8436 4.55634 10.8044 4.55634 10.7554C4.55634 10.6966 4.45191 10.4319 4.32849 10.1574C4.03419 9.52011 3.60697 8.45148 3.60697 8.37305C3.60697 8.34364 3.66394 8.33383 3.73039 8.36325C3.8633 8.41227 4.4709 8.11815 4.63229 7.91227C5.2114 7.19658 4.1671 5.69658 2.98039 5.53972C1.43292 5.32403 -0.190495 7.61815 0.834822 8.55932C0.977227 8.68678 1.36647 8.78481 1.51837 8.72599C1.74621 8.64756 1.96457 8.65736 1.97406 8.7554C1.97406 8.82403 2.02153 9.13776 2.08799 9.46128C2.14495 9.78481 2.2114 10.1868 2.23039 10.3534C2.25887 10.5201 2.34432 10.8436 2.42027 11.0789C2.57216 11.5397 2.60064 11.775 2.49621 11.7456C2.13545 11.6378 1.20508 12.5691 1.30001 12.9417C1.37596 13.2358 1.86014 13.6476 2.17343 13.677C2.33482 13.6868 2.49621 13.726 2.5247 13.7554C2.55318 13.7848 2.73356 13.7848 2.91394 13.7652C3.14178 13.7358 3.39811 13.7946 3.68292 13.9319C4.07216 14.128 4.1671 14.1378 4.7652 14.0397C5.26837 13.9613 5.49621 13.9711 5.70508 14.0593C5.87596 14.1378 6.16077 14.1574 6.45508 14.1181C6.7114 14.0789 6.97723 14.0887 7.04368 14.1378C7.23356 14.2554 7.69875 14.226 8.25887 14.0593C8.819 13.8927 8.86647 13.8927 9.75887 13.9221C10.2525 13.9417 10.4139 13.9025 10.7082 13.6966C10.9646 13.5299 11.2399 13.4417 11.6576 13.4123C12.3222 13.3632 12.7399 13.0593 12.8633 12.5299C12.9487 12.177 12.626 11.8338 12.2937 11.9221C12.1133 11.9711 12.0089 11.9123 11.7715 11.6378C11.6101 11.4417 11.3538 11.2554 11.2019 11.226C10.8696 11.1476 10.8601 11.128 11.107 10.1868C11.2779 9.5103 11.4203 8.43187 11.4108 7.86325C11.4108 7.64756 11.4393 7.63776 11.9329 7.68678C12.2177 7.71619 12.5595 7.69658 12.6829 7.64756C12.9772 7.52991 13.1956 7.02011 13.1006 6.67697C13.0627 6.53972 13.0247 6.37305 13.0057 6.32403C12.8443 5.73579 12.2557 4.96128 11.819 4.76521C11.1449 4.46128 11.0215 4.43187 10.5658 4.47109C10.1101 4.5005 9.40761 4.84364 9.39811 5.03972C9.39811 5.07893 9.30318 5.19658 9.17976 5.29462C8.91394 5.5103 8.5247 6.31423 8.5247 6.62795C8.5247 7.02991 8.80001 7.34364 9.19875 7.41227C9.74938 7.5005 9.78735 7.54952 9.67343 7.9907C9.53103 8.54952 9.43609 8.60834 9.17976 8.31423C8.80001 7.89266 8.23039 7.55932 7.80318 7.52011C7.29052 7.47109 7.33799 7.55932 7.26204 6.41227L7.19558 5.42207L7.79368 5.45148C8.86647 5.52011 9.37913 4.92207 9.06584 3.97109C8.87596 3.40246 8.46773 2.67697 8.24938 2.52011C8.15444 2.44168 8.08799 2.36325 8.11647 2.34364C8.20191 2.2456 6.98672 1.7456 6.50254 1.67697C6.21773 1.63776 5.9614 1.61815 5.94242 1.63776ZM6.55001 2.28481C6.55001 2.2456 6.59748 2.26521 6.66394 2.33383C6.73039 2.40246 6.8728 2.45148 6.99621 2.45148C7.13862 2.45148 7.41394 2.64756 7.72723 2.96129C8.55318 3.79462 8.77153 4.92207 8.07849 4.76521C7.4709 4.61815 6.96773 4.57893 5.55318 4.56913L4.03419 4.55932L4.06267 4.21619C4.13862 3.41227 5.2209 2.35344 5.9614 2.35344C6.08482 2.35344 6.15128 2.31423 6.1228 2.2554C6.08482 2.18678 6.15128 2.18678 6.30318 2.2554C6.43609 2.30442 6.55001 2.31423 6.55001 2.28481ZM11.3348 5.23579C11.6766 5.38285 12.1513 5.85344 12.1513 6.04952C12.1513 6.11815 12.1893 6.17697 12.2462 6.17697C12.3791 6.17697 12.55 6.88285 12.4361 7.0005C12.3791 7.05932 12.1323 7.05932 11.7525 6.98089C11.4203 6.92207 10.7462 6.84364 10.2525 6.81423C9.10381 6.73579 9.04685 6.68678 9.40761 6.06913C9.90128 5.2554 10.6323 4.93187 11.3348 5.23579ZM6.52153 5.41227C6.569 5.48089 6.62596 5.78481 6.63546 6.07893C6.64495 6.37305 6.67343 6.84364 6.70191 7.12795C6.75887 7.61815 6.74938 7.63776 6.46457 7.78481C6.30318 7.87305 6.13229 8.02991 6.07533 8.13776C6.01837 8.2456 5.93292 8.33383 5.89495 8.33383C5.80951 8.33383 5.82849 6.67697 5.92343 5.98089C5.94242 5.79462 5.9709 5.55932 5.9709 5.46128C5.98039 5.26521 6.37913 5.22599 6.52153 5.41227ZM3.7114 6.62795C4.45191 7.37305 4.319 7.57893 2.98989 7.80442C1.0247 8.13776 1.05318 8.14756 1.32849 7.35344C1.75571 6.14756 2.89495 5.80442 3.7114 6.62795ZM10.8317 7.81423C10.8412 7.97109 10.8506 8.15736 10.8601 8.23579C10.8791 8.44168 10.5563 9.95148 10.376 10.5299C10.1861 11.1378 9.74938 11.6476 9.55001 11.4809C9.37913 11.3338 8.82849 11.3142 8.57216 11.4613C8.38229 11.5593 8.35381 11.5397 8.29685 11.226C8.23039 10.8338 8.26837 10.7554 8.57216 10.7162C9.28419 10.6181 9.80634 10.3632 9.76837 10.1378C9.75887 10.0887 9.76837 10.0005 9.77786 9.95148C9.78735 9.89266 9.78735 9.69658 9.77786 9.5005C9.76837 9.28481 9.84432 9.0103 9.95824 8.81423C10.0722 8.62795 10.1576 8.43187 10.1576 8.37305C10.1576 7.76521 10.8127 7.23579 10.8317 7.81423ZM8.09748 8.27501C8.72406 8.54952 9.36963 9.63776 9.06584 9.90246C8.89495 10.0495 6.8728 10.0201 6.28419 9.86325C5.79052 9.72599 5.75254 9.58874 6.07533 9.11815C6.66394 8.27501 7.40444 7.97109 8.09748 8.27501ZM3.17026 8.94168C3.30318 9.22599 3.42659 9.5005 3.43609 9.55932C3.44558 9.60834 3.55001 9.89266 3.67343 10.177C3.89178 10.7064 3.94875 10.9809 3.82533 10.9809C3.77786 10.9809 3.67343 11.1181 3.57849 11.2946L3.40761 11.6083L3.21773 11.3142C3.00887 11.0005 2.78102 10.2554 2.70508 9.65736C2.67659 9.44168 2.62913 9.12795 2.60064 8.95148C2.56267 8.68678 2.68609 8.47109 2.91394 8.43187C2.92343 8.43187 3.03735 8.66717 3.17026 8.94168ZM7.67027 10.8044C7.84115 10.9809 7.81267 12.1083 7.63229 12.2946C7.43292 12.5103 7.05318 12.4907 6.92976 12.2652C6.569 11.5593 7.19558 10.3142 7.67027 10.8044ZM5.01204 11.5789C5.16394 11.628 5.31583 11.7652 5.34432 11.873C5.3728 12.0005 5.48672 12.0691 5.6671 12.0789C5.80951 12.0789 5.98989 12.0985 6.05634 12.0985C6.1228 12.1083 6.2652 12.2652 6.36963 12.4515C6.60697 12.8534 6.68292 12.9123 7.11014 13.0299C7.57533 13.177 8.12596 12.9221 8.30634 12.4907C8.48672 12.0397 9.30318 11.7358 9.30318 12.1083C9.30318 12.1868 9.33166 12.2554 9.37913 12.2554C9.4171 12.2554 9.53103 12.2848 9.64495 12.3142C9.77786 12.3534 9.94875 12.275 10.1481 12.0985C10.5658 11.7358 10.9551 11.6966 11.088 12.0005C11.1924 12.2456 11.7146 12.677 11.7905 12.5887C11.819 12.5593 11.8665 12.5985 11.8949 12.677C11.9519 12.824 11.088 12.8632 10.9551 12.7162C10.9171 12.677 10.7557 12.7652 10.6133 12.9123C10.3095 13.2162 9.569 13.3142 9.14178 13.1083C8.98039 13.0397 8.88546 13.0299 8.84748 13.0985C8.77153 13.2162 8.49621 13.3436 8.16394 13.4123C7.73672 13.5005 5.9709 13.4319 5.77153 13.324C5.59115 13.226 5.33482 13.2358 4.43292 13.3927C4.25254 13.4221 4.06267 13.3632 3.8728 13.226C3.70191 13.0887 3.47406 13.0201 3.28419 13.0299C2.76204 13.0691 2.12596 13.0103 2.03102 12.9123C1.90761 12.7848 2.34432 12.3632 2.70508 12.2652C3.1228 12.1574 3.4171 12.1574 3.4171 12.2554C3.4171 12.4123 3.89178 12.226 3.93925 12.0495C4.00571 11.8436 4.43292 11.4711 4.60381 11.4711C4.67027 11.4711 4.85064 11.5201 5.01204 11.5789Z" fill="currentColor"/>
<path d="M4.42346 12.5978C4.34751 12.8037 4.61333 12.9017 4.8032 12.7449C4.91713 12.637 4.91713 12.5978 4.82219 12.539C4.63232 12.4116 4.48991 12.4312 4.42346 12.5978Z" fill="currentColor"/>
</svg>
