<svg width="15" height="15" viewBox="0 0 15 15" fill="none" xmlns="http://www.w3.org/2000/svg">
<path d="M6.63569 0.698177C4.45388 1.20761 2.95388 2.89629 2.89706 4.89629C2.87433 5.86799 3.39706 7.26422 3.77206 7.26422C3.81751 7.26422 3.86297 7.31139 3.86297 7.36799C3.86297 7.5378 4.90842 8.28308 5.39706 8.4529C5.64706 8.54723 5.87433 8.64157 5.90842 8.66044C5.99933 8.71705 5.9766 10.4718 5.88569 10.4718C5.84024 10.4718 5.84024 10.5472 5.87433 10.6416C5.94251 10.7831 5.93115 10.7831 5.76069 10.6699C5.65842 10.6038 5.56751 10.4812 5.56751 10.4057C5.56751 10.3397 5.48797 10.2548 5.39706 10.2265C5.30615 10.1887 5.2266 10.1133 5.2266 10.0472C5.2266 9.86799 3.99933 8.99063 3.41979 8.75478C2.12433 8.22648 0.987967 8.27365 1.1016 8.83969C1.21524 9.44346 1.38569 10.0661 1.51069 10.2831C1.73797 10.717 2.43115 11.5284 2.4766 11.4152C2.51069 11.3491 2.57888 11.4057 2.65842 11.5189C2.98797 12.085 4.28342 12.5567 5.79479 12.6699C6.07888 12.6887 6.20388 12.7548 6.23797 12.8869C6.26069 12.9812 6.32888 13.1699 6.39706 13.302C6.46524 13.434 6.51069 13.5661 6.49933 13.5944C6.49933 13.6227 6.6016 13.7548 6.73797 13.8963C6.96524 14.1227 7.01069 14.1321 7.20388 14.0095C7.40842 13.8869 7.40842 13.8586 7.2266 13.4906C7.12433 13.2831 7.04479 13.085 7.04479 13.0661C7.04479 13.0378 7.34024 13.0189 7.70388 13.0189C9.59024 13.0189 12.1471 11.6604 12.2607 10.5944C12.2948 10.2265 12.1811 10.0189 12.0334 10.1982C11.9539 10.302 11.9311 10.302 11.9311 10.1793C11.9311 10.0001 11.6357 9.86799 11.5334 10.0001C11.4993 10.0472 11.3516 10.0472 11.1925 9.9812C10.8402 9.84912 9.86297 10.0001 9.01069 10.3303C8.45388 10.5378 7.51069 11.1982 7.49933 11.3869C7.48797 11.5472 6.81751 12.1133 6.80615 11.9812C6.79479 11.9057 6.77206 11.6887 6.74933 11.5095C6.65842 10.9246 6.61297 9.49063 6.66979 9.17931C6.7266 8.89629 6.74933 8.88686 7.02206 8.97176C7.48797 9.12271 9.23797 9.16988 9.96524 9.0661C10.6016 8.96233 11.5107 8.64157 12.4425 8.17931C12.9993 7.90573 13.1243 7.39629 12.6584 7.30195C12.488 7.26422 12.3743 7.15101 12.3175 6.9529C12.2039 6.55667 12.2152 6.5944 12.0675 6.30195C11.8743 5.91516 11.4539 5.86799 10.9652 6.16988C10.6016 6.40573 10.5561 6.41516 10.488 6.25478C10.2607 5.71705 9.61297 5.5944 9.14706 5.99063C8.98797 6.11327 8.86297 6.26422 8.86297 6.32082C8.86297 6.4812 8.64706 6.42459 8.03342 6.10384C7.70388 5.93403 7.3516 5.76422 7.24933 5.72648C6.96524 5.64157 6.99933 5.5378 7.31751 5.41516C7.55615 5.32082 7.65842 5.33969 7.98797 5.5378C8.56751 5.88686 9.12433 5.64157 9.23797 4.9812C9.26069 4.85856 9.30615 4.77365 9.32888 4.79252C9.3516 4.80195 9.48797 4.83969 9.63569 4.86799C9.77206 4.90573 9.88569 4.96233 9.88569 5.00006C9.88569 5.04723 9.9766 5.10384 10.1016 5.14157C10.3402 5.19818 10.9084 5.04723 10.9084 4.91516C10.9084 4.86799 10.9539 4.71705 11.0221 4.58497C11.1243 4.35856 11.1357 4.35856 11.4766 4.49063C11.7948 4.62271 11.8402 4.62271 12.1584 4.43403C12.5448 4.20761 12.7266 3.97176 12.7266 3.68874C12.7266 3.57554 12.7721 3.49063 12.8289 3.49063C12.8857 3.49063 12.9766 3.40572 13.0107 3.30195C13.0561 3.18874 13.1811 3.02837 13.3061 2.93403C13.5221 2.76422 13.5221 2.75478 13.0675 2.28308C12.8061 2.01893 12.4652 1.74535 12.2948 1.66988C10.7039 0.981196 10.3743 0.849121 10.1698 0.849121C10.0334 0.849121 9.88569 0.811385 9.81751 0.764215C9.71524 0.669876 9.24933 0.603838 8.18115 0.528366C7.73797 0.500064 7.28342 0.547234 6.63569 0.698177ZM9.39706 1.28308C10.5221 1.5095 12.7948 2.52837 12.3857 2.61327C12.1811 2.66044 11.9539 2.73591 11.2266 3.0095C10.9311 3.12271 10.6016 3.20761 10.4993 3.20761C10.3971 3.20761 10.1811 3.29252 10.0107 3.38686C9.84024 3.49063 9.48797 3.64157 9.2266 3.72648C8.96524 3.82082 8.74933 3.92459 8.74933 3.97176C8.74933 4.01893 8.71524 4.04723 8.66979 4.0378C8.46524 3.99063 6.05615 5.16988 5.96524 5.34912C5.86297 5.57554 6.04479 5.76422 6.74933 6.16988C7.91979 6.84912 9.18115 7.28308 11.238 7.73591C11.5448 7.80195 11.6925 7.87742 11.6243 7.93403C11.4084 8.11327 10.2607 8.40573 9.54479 8.46233C9.13569 8.49063 8.78342 8.55667 8.76069 8.60384C8.73797 8.66044 8.69251 8.66044 8.64706 8.5944C8.6016 8.54723 8.26069 8.47176 7.89706 8.43403C7.12433 8.36799 6.27206 8.16044 6.01069 7.96233C5.90842 7.88686 5.80615 7.84912 5.78342 7.87742C5.66979 7.96233 4.41979 7.05667 4.12433 6.67931C3.29479 5.57554 3.52206 3.55667 4.6016 2.52837C5.8516 1.34912 7.55615 0.905725 9.39706 1.28308ZM12.0789 3.60384C11.8402 4.0095 11.8516 4.0095 11.6471 3.86799C11.4084 3.69818 11.4311 3.61327 11.7948 3.45289C12.238 3.24535 12.2721 3.26422 12.0789 3.60384ZM10.5902 4.02837C10.488 4.5095 10.0789 4.71705 9.96524 4.34912C9.90842 4.16044 10.1243 3.94346 10.4539 3.83969C10.5448 3.81139 10.6357 3.78308 10.6357 3.78308C10.6471 3.77365 10.6243 3.88686 10.5902 4.02837ZM11.5902 7.04723C11.5902 7.18874 11.2721 7.20761 11.0221 7.07554C10.8857 7.0095 10.8971 6.96233 11.0789 6.79252C11.2834 6.60384 11.3061 6.60384 11.4425 6.75478C11.5221 6.84912 11.5902 6.9812 11.5902 7.04723ZM2.99933 9.31139C3.90842 9.69818 4.41979 10.1133 5.04479 10.9718C5.39706 11.4529 5.68115 11.8774 5.68115 11.9057C5.68115 11.9812 4.99933 11.9246 4.41979 11.7925C3.28342 11.5378 1.94251 10.0944 1.93115 9.12271C1.93115 9.01893 2.57888 9.13214 2.99933 9.31139ZM11.363 10.7265C11.363 11.0001 10.0221 11.934 9.39706 12.0944C7.80615 12.5001 7.53342 12.4812 7.84024 11.9812C8.31751 11.217 9.66979 10.5472 10.7152 10.5755C11.1698 10.5944 11.363 10.6321 11.363 10.7265Z" fill="currentColor"/>
<path d="M7.0564 2.76361C6.7723 2.99946 6.9314 3.38625 7.37458 3.57493C7.82912 3.78248 8.0564 3.49946 7.78367 3.07493C7.5564 2.72587 7.26094 2.5938 7.0564 2.76361Z" fill="currentColor"/>
</svg>
