<svg width="15" height="15" viewBox="0 0 15 15" fill="none" xmlns="http://www.w3.org/2000/svg">
<path d="M7.77754 0.623592C7.68865 0.642226 7.53309 0.688809 7.44421 0.71676C7.35532 0.754027 7.24421 0.781977 7.19976 0.781977C7.05532 0.800611 6.44421 1.43415 6.43309 1.5739C6.42198 1.65775 6.39976 1.82546 6.36643 1.95589C6.34421 2.08632 6.31087 2.29129 6.28865 2.42173C6.26643 2.56148 6.17754 2.66396 6.05532 2.6826C5.95532 2.70123 5.88865 2.6826 5.93309 2.6267C6.02198 2.50558 5.18865 1.88136 4.86643 1.82546C4.72198 1.7975 4.47754 1.76024 4.31087 1.72297C3.94421 1.66707 3.32198 1.91862 2.99976 2.26334C2.59976 2.6826 2.65532 3.54906 3.11087 4.10806L3.43309 4.518L2.78865 4.62049C1.71087 4.77887 0.955316 5.36583 1.0442 5.97142C1.07754 6.14844 1.09976 6.34409 1.09976 6.40931C1.11087 6.59564 1.98865 7.26645 2.22198 7.26645C2.33309 7.26645 2.46643 7.31303 2.49976 7.35962C2.54421 7.41552 2.65532 7.45278 2.75532 7.44347C3.46643 7.38757 3.52198 7.43415 3.08865 7.76024C2.07754 8.50558 2.09976 9.84719 3.12198 10.1919C3.89976 10.4528 4.86643 10.164 5.77754 9.39067L6.33309 8.92483L6.34421 9.32545C6.35532 9.54906 6.35532 9.77266 6.34421 9.80993C6.29976 10.0056 6.96643 10.9466 7.23309 11.077C7.51087 11.2074 7.53309 11.254 7.54421 11.9901C7.55532 12.4186 7.53309 12.7633 7.49976 12.7633C7.46643 12.7633 7.17754 12.5397 6.85532 12.2602C6.54421 11.9901 6.08865 11.7105 5.86643 11.636C5.63309 11.5708 5.44421 11.4869 5.44421 11.4497C5.44421 11.3565 4.63309 11.254 3.89976 11.254C2.33309 11.254 2.01087 11.813 3.09976 12.6515C3.32198 12.8192 3.59976 13.0428 3.72198 13.1453C3.85532 13.2385 4.03309 13.3223 4.14421 13.3223C4.24421 13.3223 4.33309 13.3596 4.33309 13.3969C4.33309 13.5832 5.63309 13.7789 6.57754 13.7323C7.53309 13.695 7.55532 13.695 7.62198 13.9186C7.71087 14.2354 7.95532 14.282 8.22198 14.0491C8.34421 13.9373 8.44421 13.8255 8.44421 13.7975C8.44421 13.7696 8.85532 13.7509 9.35532 13.7509C10.3998 13.7696 10.7775 13.695 11.7664 13.3037C12.9109 12.8472 13.9998 11.8596 13.9998 11.2727C13.9998 10.9279 12.0998 10.7137 11.1553 10.9559C10.0442 11.2354 9.66643 11.4404 8.85532 12.195C8.62198 12.4186 8.41087 12.577 8.38865 12.5584C8.32198 12.5025 8.31087 12.2696 8.32198 11.7199C8.33309 11.2354 8.35532 11.1888 8.65532 11.077C9.06643 10.9279 9.54421 10.1546 9.63309 9.50247L9.69976 9.05527L10.1331 9.39999C11.7886 10.7416 14.122 9.58632 13.1109 7.92794C12.9886 7.71365 12.8331 7.54595 12.7775 7.54595C12.7109 7.54595 12.6664 7.49005 12.6664 7.41552C12.6664 7.34098 12.5998 7.26645 12.5331 7.2385C12.3109 7.17328 12.4998 7.0708 12.9109 7.02421C15.4442 6.70744 15.3331 4.28508 12.7775 4.28508C12.2886 4.28508 12.2886 4.28508 12.5442 4.13601C12.9331 3.90309 13.222 3.28819 13.222 2.67328C13.222 2.38446 13.1775 2.14223 13.1109 2.14223C13.0553 2.14223 12.9998 2.08632 12.9998 2.02111C12.9998 1.78819 12.4109 1.56459 11.7553 1.5739C11.3442 1.5739 10.522 1.93726 10.622 2.06769C10.6664 2.12359 10.6553 2.14223 10.5886 2.11428C10.522 2.07701 10.3331 2.14223 10.1664 2.25403C9.84421 2.46831 9.66643 2.38446 9.66643 2.01179C9.66643 1.70434 9.08865 0.819244 8.93309 0.875145C8.84421 0.903095 8.78865 0.875145 8.81087 0.819244C8.82198 0.77266 8.73309 0.707443 8.62198 0.688809C8.49976 0.679493 8.29976 0.642226 8.17754 0.623592C8.04421 0.595642 7.86643 0.595642 7.77754 0.623592ZM8.67754 1.56459C8.97754 1.92794 9.04421 3.2416 8.76643 3.44657C8.73309 3.47452 8.63309 3.66086 8.54421 3.85651C8.37754 4.24782 8.42198 4.22918 7.41087 4.20123C7.26643 4.19191 7.14421 4.13601 7.13309 4.0708C7.13309 4.0149 7.07754 3.69813 7.01087 3.37204C6.76643 2.03042 7.21087 1.2385 8.23309 1.24782C8.33309 1.24782 8.53309 1.38757 8.67754 1.56459ZM12.4442 2.5708C12.5553 2.83167 12.5331 2.94347 12.3775 3.1857C12.2775 3.35341 12.1331 3.58632 12.0664 3.69813C11.9998 3.80993 11.8331 3.959 11.6998 4.0149C11.5664 4.08011 11.4775 4.16396 11.5109 4.21055C11.5442 4.24782 11.5109 4.28508 11.4442 4.28508C11.3775 4.28508 11.0664 4.43415 10.7442 4.61117C10.2109 4.91862 9.77754 5.03042 9.77754 4.86272C9.77754 4.82546 9.63309 4.71365 9.45532 4.62049L9.13309 4.43415L9.38865 4.06148C10.4109 2.53353 12.1109 1.70434 12.4442 2.5708ZM4.66643 2.459C4.66643 2.24471 6.07754 3.60496 6.43309 4.1826C6.63309 4.49005 5.75532 5.21676 5.45532 5.00247C5.35532 4.92794 5.11087 4.7975 4.91087 4.70434C4.23309 4.42483 3.45532 3.52111 3.44421 3.018C3.44421 2.65465 4.21087 2.24471 4.53309 2.44968C4.59976 2.49626 4.66643 2.50558 4.66643 2.459ZM8.99976 5.11427C10.1553 5.88757 9.36643 7.37825 7.79976 7.37825C6.65532 7.37825 6.03309 6.84719 6.13309 5.95278C6.25532 4.88136 7.92198 4.38757 8.99976 5.11427ZM13.2442 4.92794C13.8775 4.95589 14.2664 5.74782 13.7998 6.06459C13.6664 6.14844 13.5998 6.25092 13.6442 6.27887C13.6775 6.31614 13.6331 6.31614 13.5331 6.28819C13.4331 6.25092 13.2442 6.27887 13.1109 6.33477C12.8331 6.45589 11.122 6.46521 10.6109 6.35341C10.3775 6.2975 10.2775 6.21365 10.2664 6.06459C10.2553 5.95278 10.222 5.84098 10.1886 5.81303C10.0998 5.72918 10.4664 5.40309 10.6553 5.40309C10.7442 5.40309 10.8998 5.33788 11.0109 5.25403C11.122 5.17018 11.3886 5.08632 11.5998 5.05837C11.8109 5.03974 12.1331 4.98384 12.2998 4.94657C12.4664 4.90931 12.7109 4.89067 12.8331 4.89999C12.9553 4.90931 13.1442 4.92794 13.2442 4.92794ZM4.16643 5.30993C5.18865 5.53353 5.44421 5.6826 5.44421 6.04595C5.44421 6.49316 5.35532 6.57701 4.83309 6.69813C3.21087 7.05216 1.47754 6.53974 1.86643 5.82235C2.15532 5.29129 3.11087 5.08632 4.16643 5.30993ZM11.1553 7.21055C12.4998 7.71365 13.0664 8.94347 12.0998 9.30682C11.7109 9.44657 10.7553 9.12049 10.4442 8.74781C10.3553 8.63601 10.1442 8.41241 9.98865 8.25403C9.54421 7.80682 9.41087 7.55527 9.54421 7.41552C9.61087 7.3503 9.62198 7.25713 9.57754 7.21986C9.53309 7.17328 9.55532 7.17328 9.62198 7.20123C9.68865 7.22918 9.81087 7.17328 9.89976 7.0708C10.0775 6.85651 10.2553 6.87514 11.1553 7.21055ZM6.05532 7.45278C6.35532 7.71365 6.36643 7.7416 6.21087 7.98384C5.94421 8.42173 4.62198 9.46521 4.26643 9.53042C4.08865 9.55837 3.85532 9.61427 3.75532 9.64223C3.46643 9.73539 2.96643 9.25092 3.05532 8.9621C3.21087 8.42173 3.88865 7.85341 4.82198 7.45278C5.63309 7.10806 5.66643 7.10806 6.05532 7.45278ZM8.76643 8.17949C9.12198 8.91552 8.84421 10.2478 8.28865 10.4714C7.46643 10.8068 6.99976 10.0615 7.15532 8.61738C7.22198 8.01179 7.27754 7.96521 7.98865 7.94657C8.61087 7.92794 8.65532 7.94657 8.76643 8.17949ZM12.8664 11.4497C13.222 11.459 13.1775 11.5708 12.5998 12.046C11.7553 12.7447 10.0664 13.2664 9.11087 13.1267C8.89976 13.0894 8.77754 13.0615 8.83309 13.0522C8.89976 13.0522 9.08865 12.8658 9.26643 12.6422C9.82198 11.9714 11.5664 11.2913 12.4442 11.4217C12.5331 11.431 12.722 11.4497 12.8664 11.4497ZM5.25532 12.0087C5.52198 12.1019 6.01087 12.4 6.34421 12.6609L6.94421 13.136L6.22198 13.0894C5.82198 13.0615 5.31087 12.9963 5.07754 12.959C4.66643 12.8751 3.44421 12.1764 3.44421 12.0273C3.44421 11.7851 4.59976 11.7758 5.25532 12.0087Z" fill="currentColor"/>
</svg>
