<svg width="15" height="15" viewBox="0 0 15 15" fill="none" xmlns="http://www.w3.org/2000/svg">
<path d="M6.71073 1.79084C6.06161 2.06437 5.8774 2.16143 5.8774 2.22319C5.8774 2.25849 5.76336 2.39966 5.61424 2.53202C5.47389 2.65555 5.35108 2.83202 5.35108 2.91143C5.35108 2.99084 5.31599 3.0879 5.26336 3.14084C5.2195 3.18496 5.16687 3.32613 5.14056 3.44084C5.12301 3.56437 5.0967 3.67025 5.07915 3.67908C5.06161 3.70555 5.02652 3.8379 5.00898 3.95261C4.99143 4.05849 4.4388 4.24378 4.00898 4.2879C3.41249 4.34966 3.02652 4.40261 3.00898 4.42025C2.99143 4.42908 2.95635 4.4379 2.92126 4.44672C2.76336 4.48202 2.40371 4.71143 2.30722 4.84378C1.9388 5.32025 1.75459 5.6379 1.69319 5.91143C1.58792 6.37908 1.62301 8.28496 1.74582 8.40849C1.79845 8.46143 1.84231 8.58496 1.84231 8.67319C1.84231 8.77025 1.92126 9.11437 2.01775 9.43202C2.10547 9.74966 2.20196 10.1203 2.22828 10.2526C2.24582 10.385 2.29845 10.5438 2.33354 10.6055C2.3774 10.6673 2.39494 10.7997 2.38617 10.9055C2.36863 11.0026 2.42126 11.1438 2.49143 11.2055C2.57038 11.2673 2.63178 11.382 2.63178 11.4614C2.64056 11.8673 3.36863 12.2644 4.02652 12.2026C4.41249 12.1673 4.58792 12.1938 4.76336 12.2997C5.07915 12.5114 5.79845 12.5026 6.1581 12.282C6.35985 12.1673 6.54407 12.1232 6.76336 12.1497C7.29845 12.2203 7.76336 12.035 8.14056 11.6026C8.32477 11.3908 8.48266 11.1614 8.49143 11.0997C8.50021 11.0379 8.68442 10.2085 8.89494 9.26437C9.36863 7.19084 9.38617 7.12025 9.39494 6.37025C9.40371 5.70849 9.316 5.26731 9.20196 5.34672C9.1581 5.37319 9.12301 5.31143 9.12301 5.21437C9.12301 5.10849 9.07915 5.02908 9.02652 5.02908C8.98266 5.02908 8.95635 4.99378 8.99143 4.94966C9.05284 4.84378 8.64933 4.52613 8.24582 4.34966C7.82477 4.17319 7.40371 4.12908 7.06161 4.22613C6.84231 4.2879 6.73705 4.27025 6.57915 4.14672L6.3774 3.99672L6.57038 3.60849C6.68442 3.39672 6.95635 3.07025 7.18442 2.89378C7.52652 2.61143 7.74582 2.20555 7.54407 2.20555C7.51775 2.20555 7.49143 2.11731 7.48266 2.02025C7.46512 1.79084 7.46512 1.79084 7.19319 1.72908C7.07038 1.7026 6.85985 1.72908 6.71073 1.79084ZM6.83354 2.44378C6.76336 2.53202 6.57915 2.73496 6.42126 2.90261C6.26336 3.07908 6.1581 3.27319 6.18442 3.33496C6.20196 3.39672 6.19319 3.42319 6.14056 3.39672C6.0967 3.37025 6.01775 3.51143 5.95635 3.70555C5.816 4.16437 5.50021 4.22613 5.61424 3.76731C5.74582 3.2379 5.91249 2.92025 6.11424 2.81437C6.22828 2.75261 6.316 2.67319 6.316 2.6379C6.316 2.55849 6.74582 2.30261 6.8774 2.29378C6.92126 2.29378 6.89494 2.36437 6.83354 2.44378ZM6.44757 4.71143C6.57038 4.79084 6.66687 4.89672 6.66687 4.94966C6.66687 5.00261 6.71073 5.01143 6.77214 4.97613C6.82477 4.94084 6.84231 4.94966 6.816 5.00261C6.78091 5.05555 6.816 5.20555 6.8774 5.34672C7.01775 5.6379 7.12301 6.96143 7.02652 7.30555C6.89494 7.79084 7.18442 8.05555 7.46512 7.71143C7.67564 7.45555 7.63178 5.59378 7.39494 5.13496L7.21073 4.76437H7.53529C8.20196 4.76437 8.96512 5.65555 8.84231 6.30849C8.816 6.43202 8.82477 6.52908 8.85986 6.52908C8.92126 6.52908 8.75459 7.38496 8.58793 7.91437C8.54407 8.06437 8.48266 8.34672 8.46512 8.53202C8.42126 8.85849 8.3774 9.0879 8.28091 9.52908C8.25459 9.65261 8.20196 9.89084 8.16687 10.0585C7.97389 10.9408 7.88617 11.1173 7.56161 11.3379C7.00898 11.7173 6.64056 11.6026 6.88617 11.1173C7.16687 10.5614 7.08792 9.62613 6.77214 9.82908C6.69319 9.88202 6.46512 10.685 6.46512 10.9144C6.46512 10.9761 6.43003 11.0291 6.38617 11.0291C6.35108 11.0291 6.316 11.0908 6.316 11.1703C6.316 11.2497 6.18442 11.4438 6.01775 11.6114C5.5967 12.035 5.28091 12.0173 4.91249 11.5585C4.76336 11.3644 4.6581 11.2055 4.68442 11.2055C4.7195 11.2055 4.68442 11.1173 4.61424 11.0026C4.54407 10.8967 4.46512 10.5791 4.43003 10.2967C4.36863 9.75849 4.22828 9.59966 3.99143 9.79378C3.84231 9.91731 3.86863 10.3585 4.07915 11.0644C4.22828 11.5497 4.17564 11.6467 3.78968 11.6467C3.55284 11.6467 3.07038 11.1791 3.07038 10.9497C3.07038 10.8703 3.02652 10.7555 2.96512 10.6938C2.90371 10.632 2.89494 10.5879 2.93003 10.5879C2.97389 10.5879 2.96512 10.535 2.91249 10.4732C2.82477 10.3673 2.78968 10.2526 2.67564 9.63496C2.64933 9.50261 2.57038 9.25555 2.50898 9.0879C2.41249 8.83202 2.27213 8.13496 2.16687 7.36731C2.1581 7.27025 2.11424 7.14672 2.07915 7.08496C2.04406 7.03202 2.06161 6.95261 2.11424 6.92613C2.1581 6.89084 2.18442 6.81143 2.1581 6.74966C2.01775 6.37908 2.62301 5.15261 3.00021 5.04672C3.08792 5.02908 3.1581 4.97613 3.1581 4.93202C3.1581 4.8879 3.35985 4.85261 3.61424 4.85261H4.06161L3.88617 5.04672C3.5967 5.35555 3.41249 6.12319 3.45635 6.8379C3.49143 7.46437 3.62301 7.94084 3.74582 7.94084C4.00021 7.93202 4.04406 7.76437 4.00898 6.91731C3.97389 5.97319 4.04406 5.69084 4.46512 5.09966C4.58792 4.92319 4.77214 4.74672 4.86863 4.71143C5.32477 4.55261 5.42126 4.53496 5.816 4.55261C6.04407 4.56143 6.33354 4.64084 6.44757 4.71143Z" fill="currentColor"/>
<path d="M11.9298 2.11688C11.8596 2.16099 11.6842 3.16688 11.6666 3.59041C11.6666 3.64335 11.4912 3.79335 11.2807 3.91688C10.4824 4.38452 10.4298 4.56982 10.3947 7.10217C10.3859 8.07276 10.3596 8.92864 10.3333 8.99923C10.307 9.06982 10.2631 9.29041 10.228 9.48452C10.193 9.67864 10.1315 9.91688 10.0877 10.0139C10.0438 10.111 9.96488 10.3404 9.91225 10.5169C9.85962 10.7022 9.78067 10.8698 9.73681 10.8963C9.70172 10.9228 9.57892 11.1169 9.47365 11.3375C9.36839 11.5581 9.24558 11.7345 9.20172 11.7345C9.15786 11.7345 9.12278 11.7875 9.12278 11.8581C9.12278 11.9198 8.8333 12.2551 8.47365 12.5992C7.58769 13.4463 7.50874 13.5963 7.80699 13.9139C8.2719 14.4257 9.85085 13.7904 11.1666 12.5551C11.6666 12.0875 12.193 11.4522 12.193 11.311C12.193 11.2581 12.228 11.2051 12.2719 11.1875C12.5175 11.0904 13.4386 8.98158 13.5614 8.21394C13.5877 8.04629 13.6491 7.80805 13.7017 7.68452C13.7982 7.42864 13.8596 6.72276 13.8859 5.48747L13.9035 4.6757L13.4912 4.28746C13.0965 3.91688 13.0789 3.89041 13.0877 3.43158C13.0965 3.16688 13.0701 2.85805 13.0351 2.74335C12.9824 2.60217 12.9912 2.55805 13.0614 2.59335C13.2719 2.7257 13.1403 2.46982 12.8859 2.25805C12.6228 2.03746 12.1666 1.96688 11.9298 2.11688ZM12.5263 3.30805C12.5087 3.55511 12.4561 3.66099 12.3684 3.66099C12.2719 3.66099 12.2456 3.58158 12.2719 3.30805C12.2894 3.11394 12.307 2.88452 12.3158 2.79629C12.3158 2.63746 12.3245 2.63746 12.4386 2.79629C12.5 2.88452 12.5438 3.11394 12.5263 3.30805ZM12.807 4.45511C13.0965 4.66688 13.3859 5.09041 13.307 5.16982C13.2894 5.18747 13.1754 5.1257 13.0438 5.02864C12.7631 4.80805 12.4912 4.79923 12.3508 5.02864C12.2105 5.25805 12.0877 5.24923 11.9473 5.01982C11.8333 4.83452 11.6666 4.8257 11.2982 4.98452C11.0701 5.08158 11.1052 4.92276 11.3859 4.61394C11.7894 4.16394 12.3245 4.10217 12.807 4.45511ZM11.8421 5.78747C11.8421 5.74335 11.8947 5.75217 11.9561 5.80511C12.0351 5.8757 12.1315 5.86688 12.2807 5.77864C12.693 5.54041 12.7368 5.53158 12.9737 5.61099C13.3596 5.75217 13.3772 6.45805 13.0351 8.05511C12.7017 9.60805 11.1403 12.0875 10.0965 12.7228C9.92102 12.8286 9.76313 12.9433 9.73681 12.9698C9.66664 13.0492 8.63155 13.4992 8.50874 13.4992C8.44734 13.4992 8.66664 13.2257 8.99997 12.8904C9.3333 12.5551 9.70172 12.0875 9.82453 11.8581C9.94734 11.6198 10.0877 11.3992 10.1315 11.3639C10.193 11.3198 10.193 11.2933 10.1315 11.2933C10.0789 11.2933 10.0877 11.2581 10.1403 11.2228C10.3158 11.1169 10.7105 9.98747 10.8508 9.23747C10.9298 8.77864 10.9737 8.00217 10.9737 7.12864L10.9649 5.75217L11.2017 5.5757L11.4473 5.39041L11.6403 5.62864C11.7456 5.76099 11.8333 5.83158 11.8421 5.78747Z" fill="currentColor"/>
</svg>
