<svg width="15" height="15" viewBox="0 0 15 15" fill="none" xmlns="http://www.w3.org/2000/svg">
<path d="M6.8228 1.20422C6.05829 1.46546 5.78732 1.84467 5.76796 2.66209C5.75829 3.36153 5.76796 3.3531 5.46796 3.09186C4.73248 2.46827 3.98732 2.2913 3.29054 2.59467C2.86474 2.77164 2.50667 3.0413 2.57442 3.134C2.60345 3.16771 2.57442 3.20142 2.51635 3.20142C2.44861 3.20142 2.41958 3.2604 2.45829 3.32782C2.48732 3.39524 2.46796 3.45422 2.41958 3.45422C2.26474 3.45422 2.30345 4.16209 2.47764 4.51602C2.65183 4.88681 2.97119 5.22389 3.15506 5.22389C3.21313 5.22389 3.3099 5.27445 3.36796 5.32501C3.44538 5.40928 3.37764 5.43456 3.097 5.43456C2.25506 5.44299 1.56796 5.94861 1.44216 6.65647C1.297 7.43175 1.77119 8.12276 2.497 8.17333C3.14538 8.21546 3.53248 8.20703 3.71635 8.13119C3.89054 8.06377 3.89054 8.0722 3.71635 8.29973C2.96151 9.30254 3.68732 10.5497 4.93571 10.4065C5.4099 10.3475 6.02925 10.0357 6.32925 9.70703L6.5228 9.49636L6.6099 9.69861C6.66796 9.80816 6.697 9.93456 6.68732 9.96827C6.65829 10.0947 7.07442 10.5329 7.21958 10.5329C7.36474 10.5329 7.33571 10.9458 7.16151 11.502C7.11312 11.6368 7.05506 11.9233 7.01635 12.134C6.97764 12.3447 6.88087 12.6986 6.80345 12.9346C6.71635 13.1621 6.66796 13.3643 6.68732 13.3812C6.70667 13.3896 6.65829 13.4402 6.58087 13.4823C6.49377 13.5329 6.48409 13.5666 6.55183 13.5666C6.61958 13.5666 6.64861 13.6256 6.6099 13.7014C6.50345 13.9542 6.9099 13.7941 7.06474 13.5244C7.21958 13.2464 7.2099 13.2464 7.83893 13.3559C8.4099 13.4486 8.61312 13.457 8.88409 13.3812C9.02925 13.3391 9.08732 13.3475 9.04861 13.398C8.9228 13.575 9.41635 13.4823 10.626 13.0947C10.868 13.0188 11.0034 12.9261 10.9744 12.8756C10.9357 12.8166 10.9551 12.8082 11.0131 12.8419C11.1099 12.8924 11.6712 12.5301 12.0293 12.1761C12.5131 11.6874 12.5712 11.6115 12.5131 11.4851C12.4744 11.4009 12.4938 11.3671 12.5518 11.4009C12.726 11.4935 12.7938 11.1902 12.6293 11.0469C12.4067 10.8447 10.6841 10.87 9.96796 11.0722C9.26151 11.2829 8.57442 11.6874 7.95506 12.2604C7.39377 12.7829 7.39377 12.7829 7.60667 11.7969C7.69377 11.4009 7.77119 10.9964 7.79054 10.8868C7.8099 10.7773 7.897 10.6003 7.98409 10.4823C8.07119 10.3728 8.1099 10.2379 8.08087 10.1958C8.05183 10.1452 8.07119 10.1115 8.13893 10.1115C8.21635 10.1115 8.23571 10.002 8.197 9.77445C8.14861 9.43737 8.24538 9.31097 8.36151 9.5722C8.39054 9.64804 8.46796 9.67333 8.53571 9.63962C8.60345 9.60591 8.63248 9.60591 8.59377 9.63962C8.51635 9.72389 8.72925 9.94299 8.83571 9.884C8.87442 9.86715 8.90345 9.89243 8.90345 9.94299C8.90345 9.99355 9.06796 10.0947 9.27119 10.1705C9.68732 10.3222 10.3551 10.3896 10.3551 10.2716C10.3551 10.2295 10.3938 10.2042 10.4325 10.2211C10.5583 10.2464 11.226 9.75759 11.226 9.63119C11.226 9.5722 11.2647 9.52164 11.3034 9.52164C11.3422 9.52164 11.3905 9.40366 11.4002 9.26883C11.4099 9.10872 11.3809 9.01602 11.3034 9.01602C11.2067 9.01602 11.2067 8.99917 11.3131 8.94018C11.4002 8.88962 11.4099 8.85591 11.3325 8.80535C11.2454 8.76321 11.2454 8.71265 11.3228 8.64524C11.3905 8.56097 11.3422 8.43456 11.1389 8.1649C10.9744 7.96265 10.8583 7.78568 10.8776 7.77726C10.8873 7.7604 11.2744 7.74355 11.7293 7.7267C12.6583 7.70142 13.0067 7.5413 13.3164 6.99355C13.9067 5.96546 13.0454 4.88681 11.6325 4.88681C11.197 4.88681 11.1873 4.88681 11.4002 4.75198C11.5164 4.68456 11.5841 4.58344 11.5551 4.53288C11.5164 4.48231 11.5357 4.46546 11.5841 4.49074C11.7099 4.55816 11.9325 4.34748 11.826 4.25479C11.7873 4.21265 11.8164 4.21265 11.8744 4.24636C11.9518 4.28007 12.0389 4.22951 12.1164 4.09467C12.1744 3.9767 12.2518 3.87557 12.2905 3.87557C12.4454 3.87557 12.397 2.78007 12.2518 2.72951C12.1647 2.70422 12.1164 2.64524 12.1454 2.61153C12.1744 2.56939 12.097 2.43456 11.9712 2.30816C11.7293 2.06377 10.8583 1.92052 10.4809 2.06377C10.3841 2.10591 10.2873 2.13962 10.2583 2.14804C10.0164 2.19861 9.55183 2.49355 9.26151 2.77164L8.91312 3.10872V2.56939C8.9228 2.02164 8.6228 1.44861 8.39054 1.57501C8.33248 1.60029 8.3228 1.58344 8.36151 1.53288C8.39054 1.48231 8.30345 1.36434 8.16796 1.27164C7.87764 1.06939 7.297 1.04411 6.8228 1.20422ZM7.11312 1.34748C7.07442 1.39804 7.16151 1.43175 7.30667 1.43175C7.47119 1.43175 7.53893 1.39804 7.49054 1.33063C7.45183 1.27164 7.46151 1.26321 7.53893 1.29692C7.597 1.33063 7.62603 1.39804 7.597 1.44018C7.55829 1.48231 7.60667 1.51602 7.68409 1.51602C7.85829 1.51602 8.3228 2.02164 8.3228 2.22389C8.3228 2.29973 8.36151 2.35029 8.40022 2.32501C8.50667 2.27445 8.27442 3.7913 8.11958 4.17052C8.00345 4.44018 7.95506 4.47389 7.69377 4.44861C7.43248 4.42333 7.40345 4.39804 7.43248 4.17052C7.47119 3.85872 7.297 3.42052 7.17119 3.49636C7.1228 3.52164 7.09377 3.74917 7.10345 4.00198C7.13248 4.58344 6.96796 4.7604 6.71635 4.4149C6.61958 4.28849 6.53248 4.12838 6.5228 4.06097C6.50345 3.99355 6.45506 3.90928 6.40667 3.884C6.26151 3.80816 6.07764 2.6958 6.20345 2.6958C6.24216 2.6958 6.27119 2.62838 6.27119 2.54411C6.24216 2.26602 6.397 1.7604 6.49377 1.81097C6.54216 1.84467 6.58087 1.82782 6.58087 1.77726C6.58087 1.7267 6.697 1.634 6.85183 1.56658C6.997 1.49917 7.07442 1.44018 7.03571 1.43175C6.94861 1.43175 7.04538 1.26321 7.1228 1.26321C7.15183 1.26321 7.14216 1.29692 7.11312 1.34748ZM11.4873 2.50198C11.4486 2.52726 11.5067 2.6031 11.6131 2.67052C12.0486 2.93175 11.9809 3.62276 11.468 4.11995C11.2841 4.29692 11.168 4.47389 11.2067 4.50759C11.2454 4.54973 11.226 4.54973 11.168 4.52445C11.1002 4.49074 10.9551 4.53288 10.8293 4.61715C10.7034 4.70142 10.4325 4.83625 10.2389 4.92894C10.0454 5.01321 9.90022 5.11434 9.91958 5.13962C9.93893 5.1649 9.88087 5.19018 9.79377 5.19861C9.70667 5.19861 9.53248 5.22389 9.41635 5.24917C9.01958 5.33344 9.05829 5.11434 9.48409 4.78568C9.71635 4.60029 9.91958 4.40647 9.92925 4.34748C9.96796 4.13681 9.58087 4.25479 9.20345 4.57501C8.86474 4.86153 8.797 4.88681 8.61312 4.80254C8.45829 4.7267 8.42925 4.67613 8.50667 4.60872C8.56474 4.55816 8.61312 4.46546 8.61312 4.4149C8.61312 4.35591 8.73893 4.18737 8.89377 4.03568C9.05829 3.87557 9.15506 3.71546 9.11635 3.63962C9.08732 3.55535 9.10667 3.53007 9.17442 3.5722C9.24216 3.60591 9.29054 3.59748 9.29054 3.54692C9.29054 3.50479 9.46474 3.28568 9.67764 3.07501C9.89054 2.86434 10.0647 2.70422 10.0647 2.73793C10.0647 2.76321 10.1615 2.73793 10.2873 2.67894C10.4034 2.61995 10.7228 2.55254 10.9841 2.51883C11.2551 2.49355 11.4873 2.45984 11.5067 2.45142C11.526 2.45142 11.5164 2.46827 11.4873 2.50198ZM4.41312 3.08344C4.62603 3.15928 4.86796 3.27726 4.95506 3.34467C5.04216 3.41209 5.15829 3.4458 5.21635 3.41209C5.28409 3.38681 5.29377 3.41209 5.26474 3.48793C5.23571 3.56377 5.24538 3.62276 5.30345 3.62276C5.47764 3.62276 6.41635 4.88681 6.27119 4.92894C6.06796 4.99636 5.78732 4.93737 5.42925 4.73512C5.1099 4.56658 4.93571 4.55816 4.93571 4.70984C4.93571 4.75198 5.12925 4.88681 5.37119 5.02164C5.87442 5.2913 5.96151 5.51883 5.54538 5.45984C4.83893 5.35029 4.00667 5.18175 3.96796 5.13119C3.93893 5.09748 3.85183 5.05535 3.77442 5.03849C3.58087 5.00479 3.0099 4.47389 2.89377 4.22951C2.50667 3.38681 3.40667 2.72108 4.41312 3.08344ZM8.20667 5.06377C8.22603 5.10591 8.27442 5.12276 8.31312 5.09748C8.46796 5.02164 8.81635 5.84748 8.77764 6.18456C8.68087 7.02726 6.84216 7.39804 6.38732 6.6649C6.32925 6.56377 6.23248 6.51321 6.17442 6.53849C6.10667 6.58063 6.097 6.55535 6.14538 6.47951C6.19377 6.42052 6.2228 6.2267 6.20345 6.04973C6.16474 5.56097 6.54216 5.19861 7.35506 4.93737C7.54861 4.87838 8.16796 4.96265 8.20667 5.06377ZM11.9228 5.40085C12.5034 5.49355 13.0647 5.97389 12.9776 6.31097C12.968 6.36995 12.997 6.39524 13.0454 6.36995C13.1034 6.34467 13.0647 6.46265 12.968 6.63962C12.6196 7.26321 11.9422 7.44018 10.7131 7.21265C9.8228 7.05254 9.0099 6.62276 9.23248 6.42894C9.28087 6.37838 9.83248 6.38681 10.1131 6.42894C10.3647 6.47951 10.6938 6.32782 10.5776 6.2267C10.5293 6.18456 10.2196 6.12557 9.89054 6.10029C8.95183 6.00759 9.07764 5.76321 10.2099 5.49355C10.9357 5.31658 11.3034 5.2913 11.9228 5.40085ZM3.3099 5.85591C3.38732 5.78849 4.43248 5.76321 4.38409 5.83063C4.36474 5.87276 4.62603 5.89804 4.97442 5.89804C5.53571 5.89804 5.61312 5.9149 5.61312 6.05816C5.61312 6.21827 5.42925 6.28568 4.79054 6.37838C4.44216 6.42894 4.27764 6.53849 4.41312 6.64804C4.46151 6.69861 4.69377 6.69018 5.00345 6.63962C5.98087 6.47108 6.10667 6.77445 5.20667 7.11995C4.86796 7.24636 4.48087 7.42333 4.34538 7.50759C3.56151 7.98793 2.20667 7.84467 1.97442 7.25479C1.92603 7.11153 1.83893 7.01883 1.80022 7.05254C1.63571 7.1958 2.07119 6.3531 2.25506 6.17613C2.36151 6.06658 2.59377 5.95703 2.77764 5.93175C2.98087 5.89804 3.06796 5.84748 3.02925 5.78007C2.99054 5.72108 3.01958 5.72951 3.11635 5.78849C3.19377 5.84748 3.28087 5.88119 3.3099 5.85591ZM9.87119 7.57501C10.6938 8.13962 10.8486 8.37557 10.868 9.01602C10.8776 9.28568 10.868 9.49636 10.8486 9.47108C10.8293 9.45422 10.6841 9.53849 10.5293 9.64804C10.1518 9.92613 9.79377 9.91771 9.32925 9.61434C8.9228 9.3531 8.43893 8.93175 8.55506 8.93175C8.59377 8.93175 8.55506 8.83063 8.47764 8.6958C7.83893 7.70984 7.86796 7.13681 8.53571 7.62557C8.69054 7.74355 8.797 7.83625 8.76796 7.83625C8.73893 7.83625 8.78732 7.90366 8.88409 7.98793C9.04861 8.13962 9.29054 8.14804 9.29054 7.98793C9.29054 7.9458 9.18409 7.81939 9.04861 7.70984C8.9228 7.59186 8.84538 7.49917 8.87442 7.49917C8.90345 7.49917 8.87442 7.44861 8.81635 7.38119C8.71958 7.28849 8.73893 7.24636 8.87442 7.17894C9.07764 7.07782 9.26151 7.14524 9.87119 7.57501ZM6.18409 7.36434C5.99054 7.49917 5.51635 8.14804 5.52603 8.27445C5.52603 8.35872 5.54538 8.35872 5.58409 8.27445C5.60345 8.22389 5.66151 8.19018 5.7099 8.21546C5.75829 8.24074 5.93248 8.0722 6.10667 7.83625C6.56151 7.2295 6.85183 7.33906 6.65829 8.04692C6.33893 9.20142 5.86474 9.74917 5.08087 9.87557C4.97442 9.884 4.86796 9.92613 4.83893 9.95984C4.8099 9.98512 4.65506 9.95984 4.48087 9.90085C3.74538 9.63119 3.697 8.94861 4.36474 8.32501C4.56796 8.13119 4.74216 7.91209 4.75183 7.83625C4.75183 7.74355 4.77119 7.73512 4.8099 7.82782C4.83893 7.88681 4.88732 7.90366 4.92603 7.86995C5.09054 7.66771 6.03893 7.17894 6.16474 7.22108C6.29054 7.26321 6.30022 7.28849 6.18409 7.36434ZM7.63571 8.19018C7.84861 9.39524 7.67442 10.398 7.31635 9.98512C7.1228 9.77445 7.09377 9.31939 7.18087 8.32501C7.26796 7.37276 7.47119 7.31377 7.63571 8.19018ZM11.8841 11.3587C12.1164 11.3924 11.9905 11.5778 11.3905 12.0834C11.0131 12.4037 10.6357 12.648 10.3744 12.7155C10.1518 12.7829 9.98732 12.8587 10.0067 12.884C10.026 12.9093 9.94861 12.9346 9.84216 12.943C9.72603 12.943 9.43571 12.9598 9.19377 12.9683C8.54538 13.002 8.3228 12.9851 8.3228 12.9009C8.3228 12.825 9.18409 12.5301 10.026 12.3025C10.5776 12.1593 10.7131 12.075 10.597 11.9739C10.4905 11.8812 9.04861 12.1846 8.63248 12.3784C8.50667 12.4374 8.4099 12.4374 8.37119 12.3952C8.34216 12.3531 8.4099 12.2941 8.51635 12.2604C8.6228 12.2267 8.69054 12.1677 8.65183 12.1256C8.6228 12.0834 8.63248 12.0497 8.68087 12.0582C8.86474 12.1003 9.30022 11.8559 9.17442 11.7801C9.08732 11.7295 9.12603 11.7211 9.27119 11.7548C9.38732 11.7801 9.48409 11.7716 9.48409 11.7295C9.48409 11.6789 9.697 11.6031 9.96796 11.5441C10.2293 11.4851 10.4325 11.4177 10.4131 11.3924C10.3841 11.3419 11.526 11.3166 11.8841 11.3587Z" fill="black"/>
</svg>
