<svg width="15" height="15" viewBox="0 0 15 15" fill="none" xmlns="http://www.w3.org/2000/svg">
<path d="M10.7802 0.80048C10.5494 1.03974 10.2994 1.38023 10.2321 1.53668C10.0398 1.95999 10.011 1.91398 10.1167 1.37103C10.1937 0.947719 10.136 0.616431 10.0302 0.892505C10.0014 0.956922 9.92443 1.01214 9.85713 1.01214C9.70328 1.01214 9.64559 1.2422 9.55905 2.16244C9.51097 2.80662 9.34751 3.34956 9.35713 2.88023C9.35713 2.05201 9.31867 1.74833 9.19367 1.74833C8.95328 1.74833 8.79943 2.3925 8.94367 2.85263C8.95328 2.88023 8.95328 3.16551 8.94367 3.4876C8.93405 3.80968 8.97251 4.10416 9.02059 4.13177C9.06867 4.15938 9.0302 4.2606 8.94367 4.35263C8.7802 4.51827 8.77059 4.49987 8.70328 4.03054C8.62636 3.506 8.52059 3.31275 8.30905 3.31275C8.14559 3.31275 8.12636 4.09496 8.2802 4.48146C8.48213 4.97839 8.60713 5.98146 8.4629 5.98146C8.42443 5.98146 8.31867 5.733 8.22251 5.43852C8.12636 5.13484 7.99174 4.86797 7.9052 4.83116C7.80905 4.80355 7.78982 4.83116 7.81867 4.92318C7.85713 4.9968 7.8379 5.07962 7.7802 5.10723C7.6552 5.19005 7.73213 5.53054 8.00136 6.04588C8.12636 6.28514 8.22251 6.52441 8.22251 6.57962C8.20328 6.78208 8.05905 7.44465 7.88597 8.14404C7.70328 8.88024 7.45328 10.2054 7.35713 10.9048C7.32828 11.1072 7.22251 11.7054 7.11674 12.2391C7.02059 12.7729 6.93405 13.3986 6.93405 13.6379C6.92443 14.0612 7.06866 14.3005 7.20328 14.0888C7.25136 14.0152 7.32828 14.0244 7.4629 14.1256C7.55905 14.1993 7.67443 14.2637 7.7129 14.2637C7.80905 14.2637 8.09751 13.2606 8.12636 12.8097C8.14559 12.598 8.19367 12.368 8.24174 12.3035C8.32828 12.2115 8.60713 11.3189 8.70328 10.8772C8.79943 10.417 9.09751 9.76367 9.5302 9.09189C9.93405 8.45692 10.3571 7.89557 10.1744 8.23606C9.04943 10.3066 8.17443 13.4539 8.56867 13.9876C8.6552 14.098 8.66482 14.098 8.61674 13.9508C8.55905 13.8035 8.57828 13.7943 8.7129 13.9048C9.01097 14.1348 9.12636 14.0704 9.3379 13.5459C9.45328 13.2514 9.53982 12.9477 9.53982 12.8649C9.53982 12.7729 9.56866 12.6808 9.62636 12.6532C9.67443 12.6164 9.7129 12.5244 9.7129 12.4416C9.7129 12.2299 10.3379 11.0152 10.5206 10.868C10.6456 10.7667 10.636 10.822 10.4917 11.144C10.1552 11.8618 9.82828 13.6195 10.0302 13.6195C10.0783 13.6195 10.0687 13.6747 10.011 13.7483C9.91482 13.8588 9.93405 13.9048 10.0783 13.9784C10.3379 14.1072 10.636 14.006 10.761 13.7391C10.9244 13.4078 11.8571 12.0459 11.8956 12.0919C11.9148 12.1103 11.8475 12.3312 11.7417 12.5888C11.4725 13.2238 11.4148 13.9692 11.6264 14.0704C11.9437 14.2177 12.4629 14.1808 12.6937 14.006C12.8379 13.8864 12.8764 13.8312 12.7802 13.822C12.7033 13.8128 12.5206 13.7943 12.3571 13.7851C12.0879 13.7575 12.0687 13.7391 12.0783 13.3894C12.0975 12.9845 12.136 12.8005 12.2417 12.6256C12.2898 12.5704 12.2994 12.4784 12.261 12.4324C12.2321 12.3864 12.261 12.3128 12.3187 12.2851C12.3667 12.2483 12.3956 12.1563 12.3667 12.0827C12.3379 12.0091 12.3475 11.9723 12.3956 11.9999C12.4437 12.0275 12.5687 11.9078 12.684 11.7238C12.8956 11.3741 12.9437 11.1808 12.7898 11.2729C12.7417 11.3005 12.6937 11.2821 12.6937 11.2361C12.6937 11.0152 12.4052 11.1532 12.059 11.5305C11.8667 11.7422 11.7417 11.8526 11.7802 11.779C11.9148 11.5213 11.059 12.4692 10.7994 12.8557C10.6552 13.0766 10.5302 13.233 10.511 13.2238C10.3475 13.0582 11.0398 10.7391 11.4533 10.095C11.6071 9.8557 11.7129 9.61643 11.684 9.57042C11.6552 9.52441 11.6744 9.46919 11.7321 9.43238C11.8667 9.34956 11.8475 9.22993 11.6937 9.17471C11.4437 9.08269 10.059 10.5827 9.70328 11.3189C9.43405 11.8802 9.3379 12.0919 9.23213 12.368C9.17443 12.5152 9.10713 12.6072 9.07828 12.5796C9.04943 12.552 9.16482 12.1011 9.32828 11.5766C9.49174 11.0612 9.64559 10.5827 9.6552 10.5367C9.99174 9.35876 11.3187 7.20539 12.1648 6.45999C12.4437 6.21152 12.6552 5.98146 12.6264 5.95385C12.4437 5.76981 10.9917 6.45079 11.1264 6.64404C11.1552 6.70846 11.136 6.71766 11.0783 6.68085C10.7514 6.4876 9.05905 8.76981 8.5879 10.0305C8.4629 10.3618 8.31867 10.7023 8.26097 10.8035C8.20328 10.8956 8.14559 11.0428 8.12636 11.1256C8.10713 11.2085 8.00136 11.6226 7.88597 12.0551C7.77059 12.4876 7.6552 12.9385 7.62636 13.0674C7.60713 13.1962 7.55905 13.3618 7.5302 13.4355C7.49174 13.5091 7.48213 13.6103 7.49174 13.6471C7.50136 13.6931 7.4629 13.7023 7.4052 13.6655C7.34751 13.6379 7.3379 13.5551 7.37636 13.4999C7.41482 13.4355 7.45328 13.2606 7.4629 13.1134C7.4629 12.9569 7.49174 12.7729 7.52059 12.6993C7.5879 12.5336 7.87636 10.8128 7.94367 10.1686C7.97251 9.91091 8.04943 9.4968 8.12636 9.24833C8.19367 8.99067 8.2802 8.62257 8.32828 8.42011C8.4052 8.02441 8.4052 8.02441 8.48213 7.82195C8.52059 7.74833 8.59751 7.41705 8.6552 7.08576C8.79943 6.34036 9.10713 5.89864 9.87636 5.30968C10.4533 4.86797 10.6648 4.55508 10.4437 4.48146C10.309 4.42625 9.7129 4.75754 9.50136 5.006L9.32828 5.19925V4.95999C9.32828 4.68392 9.6552 4.33422 10.3475 3.8649C10.9244 3.47839 11.0014 3.40477 11.0398 3.20232C11.0687 3.05508 11.0302 3.05508 10.6071 3.22993C10.3571 3.33116 10.0975 3.45999 10.0302 3.5152C9.94366 3.57962 9.9052 3.57962 9.9052 3.506C9.9052 3.34036 10.559 2.69619 11.0206 2.40171C11.261 2.25447 11.4052 2.10723 11.3475 2.07042C11.2898 2.04281 11.2706 1.96919 11.2994 1.92318C11.386 1.80355 11.1167 1.82195 10.9821 1.95079C10.9148 2.0152 10.8667 2.02441 10.8667 1.97839C10.8667 1.94158 10.7802 1.97839 10.6744 2.07042C10.434 2.27287 10.4244 2.14404 10.6456 1.84036C10.7417 1.71152 10.8187 1.56428 10.8283 1.49987C10.8379 1.44465 10.9533 1.27901 11.0879 1.14097C11.2225 1.00293 11.3187 0.846492 11.2898 0.809682C11.261 0.76367 11.2898 0.662443 11.3667 0.579621C11.434 0.487596 11.4437 0.450787 11.3764 0.487596C11.3187 0.524406 11.2514 0.506001 11.2321 0.450787C11.2129 0.404774 11.011 0.552014 10.7802 0.80048Z" fill="black"/>
<path d="M4.4813 1.5829C4.34668 1.82217 4.31783 2.05223 4.34668 2.64119C4.3563 3.04609 4.34668 3.36818 4.30822 3.34057C4.26014 3.32217 4.2313 3.18413 4.2313 3.04609C4.2313 2.79763 3.95245 2.3191 3.94283 2.55836C3.94283 2.62278 3.90437 2.65959 3.8563 2.62278C3.58706 2.47554 3.71206 3.25775 4.05822 3.93873C4.31783 4.46327 4.44283 4.98781 4.2986 4.9418C4.2313 4.9234 4.1736 4.85898 4.1736 4.80376C4.16399 4.73935 4.15437 4.64732 4.14476 4.59211C4.14476 4.54609 4.08706 4.52769 4.01976 4.5645C3.96206 4.60131 3.94283 4.59211 3.97168 4.53689C4.03899 4.43567 3.38514 3.8191 3.30822 3.89272C3.27937 3.92033 3.32745 4.06757 3.40437 4.22401C3.49091 4.37125 3.55822 4.5645 3.55822 4.63812C3.55822 4.71174 3.58706 4.78536 3.63514 4.80376C3.6736 4.81297 3.78899 4.98781 3.88514 5.17186C3.9813 5.36511 4.1063 5.49395 4.16399 5.45714C4.22168 5.42033 4.2313 5.44794 4.18322 5.51235C4.14476 5.58597 4.19283 5.74241 4.31783 5.89886C4.69283 6.38659 4.55822 6.49702 4.08706 6.0829C3.83706 5.87125 3.59668 5.7056 3.53899 5.72401C3.33706 5.78843 3.34668 5.96327 3.5486 6.15652C3.66399 6.26695 3.75053 6.37738 3.75053 6.41419C3.75053 6.46021 3.94283 6.68106 4.1736 6.91113C4.65437 7.39886 4.68322 7.46327 4.76014 8.28229C4.78899 8.61358 4.8563 9.0829 4.90437 9.34057C4.95245 9.58904 5.01014 10.0308 5.03899 10.3068C5.06783 10.5829 5.11591 11.043 5.13514 11.3191C5.19283 11.816 5.18322 11.816 5.0486 11.5492C4.97168 11.3927 4.91399 11.2179 4.90437 11.1535C4.90437 10.9786 4.28899 9.8191 3.95245 9.35898C3.45245 8.65959 2.4236 7.87738 1.88514 7.78536C1.59668 7.73935 1.61591 7.79456 2.09668 8.25468C2.37553 8.52155 3.36591 10.4633 3.36591 10.7393C3.36591 10.859 3.40437 10.951 3.44283 10.951C3.49091 10.951 3.56783 11.1719 3.62553 11.4295C3.7986 12.2301 3.8563 12.4602 3.90437 12.6258C3.99091 12.9203 3.8563 12.8007 3.58706 12.359C3.14476 11.632 2.15437 10.859 1.66399 10.859C1.30822 10.859 1.26014 10.9878 1.51976 11.2179C1.95245 11.6136 2.13514 11.8897 2.40437 12.5982C2.76014 13.5645 2.77937 13.8498 2.4813 13.7578C2.09668 13.6473 1.78899 13.6289 1.64476 13.7025C1.53899 13.767 1.55822 13.7946 1.7313 13.8498C1.89476 13.8958 1.91399 13.9326 1.81783 13.9878C1.7313 14.043 1.77937 14.0706 1.97168 14.0798C2.13514 14.089 2.45245 14.0982 2.69283 14.1074L3.12553 14.1258L3.15437 13.767C3.18322 13.4173 2.8563 12.2025 2.6736 11.9909C2.61591 11.9265 2.52937 11.8989 2.47168 11.9357C2.41399 11.9633 2.40437 11.9449 2.44283 11.8805C2.4813 11.8252 2.5486 11.7976 2.59668 11.8252C2.7313 11.9081 3.2986 12.7547 3.66399 13.4265C4.01014 14.0614 4.14476 14.1627 4.39476 13.9786C4.52937 13.8682 4.5486 13.8682 4.47168 13.9786C4.4236 14.0614 4.43322 14.089 4.50053 14.043C4.62553 13.9694 4.57745 13.2332 4.4236 12.8375C4.36591 12.6995 4.34668 12.5614 4.36591 12.543C4.39476 12.5154 4.37553 12.405 4.32745 12.2854C4.27937 12.1657 4.21206 11.8897 4.18322 11.678C4.08706 11.043 3.76976 10.1872 3.45245 9.70867C3.11591 9.20254 3.14476 9.0553 3.49091 9.49702C3.89476 10.0124 4.72168 11.7792 4.8563 12.4418C4.9813 13.0124 5.32745 14.043 5.4236 14.0982C5.7986 14.3375 5.89476 14.1903 5.82745 13.5001C5.71206 12.3406 5.68322 12.0277 5.62553 11.3191C5.59668 10.9418 5.5486 10.5001 5.51976 10.3528C5.50053 10.1964 5.45245 9.84671 5.43322 9.57063C5.41399 9.29456 5.39476 9.0645 5.38514 9.0645C5.37553 9.0645 5.3563 8.93567 5.34668 8.78843C5.32745 8.63198 5.27937 8.24548 5.24091 7.91419C5.15437 7.25162 5.16399 6.99395 5.2986 6.86511C5.34668 6.8099 5.38514 6.71787 5.38514 6.65346C5.38514 6.57984 5.45245 6.37738 5.5486 6.18413C5.63514 6.00008 5.69283 5.78843 5.68322 5.72401C5.6736 5.66879 5.70245 5.61358 5.75053 5.61358C5.80822 5.61358 5.86591 5.52155 5.90437 5.40192C5.96206 5.16266 5.88514 4.78536 5.76014 4.78536C5.69283 4.78536 5.31783 5.48475 5.03899 6.11971C4.97168 6.28536 4.96206 6.28536 4.93322 6.0553C4.89476 5.80683 5.41399 4.51849 5.59668 4.40806C5.7313 4.32524 5.97168 3.31297 5.84668 3.31297C5.70245 3.31297 5.55822 3.49701 5.25053 4.04916C4.87553 4.73935 4.80822 4.78536 4.80822 4.39886C4.80822 4.21481 4.83706 4.04916 4.88514 4.03076C5.02937 3.96634 5.51014 2.98168 5.5486 2.65039C5.6063 2.17186 5.33706 2.23628 5.02937 2.77002L4.7986 3.17493L4.83706 2.55836C4.8563 2.21787 4.89476 1.90499 4.93322 1.86818C5.05822 1.75775 5.00053 1.47248 4.84668 1.47248C4.76976 1.47248 4.7313 1.42646 4.76014 1.38045C4.78899 1.32524 4.77937 1.28843 4.7313 1.28843C4.68322 1.28843 4.56783 1.42646 4.4813 1.5829Z" fill="black"/>
<path d="M6.42326 8.10729C6.33672 8.26373 6.27902 8.47539 6.28864 8.58582C6.29826 8.69625 6.26941 8.80668 6.23095 8.83428C5.99056 9.00913 5.92326 13.9416 6.15402 14.0797C6.24056 14.1349 6.30787 14.1349 6.3271 14.0797C6.34633 14.0245 6.40402 14.0061 6.44249 14.0337C6.49056 14.0613 6.52902 13.5643 6.51941 12.9386C6.50979 12.138 6.47133 11.8067 6.40402 11.8435C6.33672 11.8895 6.33672 11.8619 6.40402 11.7699C6.46172 11.6962 6.53864 11.1073 6.56749 10.4447C6.59633 9.78214 6.67326 9.02754 6.73095 8.76066C6.8271 8.36496 6.81749 8.24533 6.71172 8.12569C6.62518 8.01527 6.62518 7.98766 6.7021 8.04287C6.78864 8.08888 6.80787 8.06128 6.76941 7.96925C6.68287 7.74839 6.5771 7.79441 6.42326 8.10729Z" fill="black"/>
</svg>
