<svg width="15" height="15" viewBox="0 0 15 15" fill="none" xmlns="http://www.w3.org/2000/svg">
<path d="M9.11804 0.898294C9.03573 0.916813 8.98085 0.981627 9.00829 1.02792C9.04487 1.07422 8.99914 1.11126 8.90768 1.11126C8.77963 1.11126 8.77963 1.13903 8.87109 1.25015C8.9717 1.37052 8.96256 1.37978 8.8528 1.34274C8.77048 1.3057 8.7156 1.34274 8.7156 1.42607C8.7156 1.50015 8.75219 1.54644 8.78878 1.52792C8.82536 1.50015 8.87109 1.54644 8.90768 1.62052C8.93512 1.70385 8.90768 1.75941 8.81621 1.75941C8.74304 1.75941 8.69731 1.79644 8.72475 1.84274C8.75219 1.88903 8.66987 2.00015 8.54182 2.09274C8.29487 2.27792 8.03878 2.70385 7.99304 3.0094C7.95646 3.25015 7.88329 3.58348 7.82841 3.77792C7.80097 3.86126 7.75524 4.13903 7.7278 4.38903C7.69121 4.64829 7.65463 4.87978 7.63634 4.91681C7.6089 4.94459 7.5906 5.34274 7.57231 5.79644C7.56317 6.62977 7.67292 7.0557 7.89243 7.0094C7.95646 7.00015 7.99304 7.02792 7.99304 7.08348C7.9839 7.12977 7.92902 7.46311 7.86499 7.82422C7.80097 8.17607 7.73695 8.5557 7.71865 8.65755C7.59975 9.37052 7.34365 10.8242 7.27048 11.2038C7.24304 11.3335 7.19731 11.6205 7.17902 11.852C7.15158 12.0835 7.0967 12.565 7.06012 12.9168C6.98695 13.602 7.04182 14.1205 7.16987 13.9076C7.2156 13.8242 7.27963 13.8242 7.41682 13.8983C7.51743 13.9538 7.65463 13.9724 7.71865 13.9538C7.82841 13.9076 7.99304 13.2964 7.9839 12.9353C7.9839 12.852 8.01134 12.7779 8.04792 12.7779C8.08451 12.7779 8.11195 12.7224 8.12109 12.6576C8.13024 12.5279 8.21256 12.1761 8.23085 12.1761C8.23999 12.1761 8.25829 12.1113 8.27658 12.0372C8.33146 11.7779 8.98085 9.95385 9.09975 9.72237C9.16378 9.59274 9.20951 9.46311 9.20036 9.43533C9.20036 9.40755 9.26439 9.31496 9.35585 9.22237C9.4839 9.09274 9.49304 9.02792 9.41073 8.92607C9.31926 8.81496 9.32841 8.8057 9.44731 8.852C9.54792 8.88903 9.63939 8.81496 9.73085 8.62052C9.89548 8.29644 10.0327 8.19459 10.0327 8.37977C10.0327 8.45385 9.98695 8.52792 9.92292 8.5557C9.86804 8.57422 9.76743 8.76866 9.69426 8.99089C9.62109 9.21311 9.52048 9.48163 9.45646 9.58348C9.31926 9.81496 8.81621 11.4076 8.7339 11.8983C8.68817 12.102 8.65158 12.3335 8.63329 12.4076C8.62414 12.4816 8.58756 12.7316 8.56012 12.9631C8.53268 13.1946 8.48695 13.4724 8.46865 13.5835C8.44121 13.7316 8.48695 13.8427 8.62414 13.9353C8.84365 14.0927 9.0906 14.1205 9.00829 13.9816C8.98085 13.9261 8.98999 13.889 9.03573 13.889C9.11804 13.889 9.52048 12.8613 9.53878 12.6113C9.53878 12.5557 9.57536 12.5001 9.62109 12.5001C9.65768 12.5001 9.68512 12.4724 9.67597 12.4261C9.66682 12.389 9.7217 12.2316 9.78573 12.0835C9.84975 11.9261 9.91378 11.7779 9.91378 11.7501C9.92292 11.7131 10.0327 11.5094 10.179 11.2964C10.3162 11.0835 10.426 10.8705 10.426 10.8242C10.426 10.7779 10.4626 10.7409 10.5174 10.7409C10.5723 10.7409 10.554 10.8705 10.4808 11.0464C10.2796 11.5372 10.1333 11.9816 10.1333 12.1298C10.1241 12.2038 10.0967 12.315 10.051 12.3613C9.95951 12.4816 9.81317 13.4168 9.82231 13.7779C9.83146 14.0372 10.1241 14.1483 10.2613 13.9353C10.3071 13.8798 10.3345 13.8798 10.3345 13.9538C10.3345 14.0187 10.3985 14.0742 10.4717 14.0742C10.5449 14.0742 10.6089 14.0279 10.6089 13.9816C10.6089 13.9261 10.7552 13.6483 10.929 13.3705C11.1028 13.0927 11.2491 12.8335 11.2491 12.7872C11.2491 12.7409 11.2857 12.6853 11.3223 12.6668C11.368 12.6576 11.5327 12.4538 11.6882 12.2316C12.0357 11.7501 12.0449 11.7687 11.7888 12.315C11.679 12.5372 11.5876 12.7687 11.5784 12.815C11.5693 12.8705 11.5327 12.9631 11.5052 13.0187C11.2034 13.4909 11.4412 14.0742 11.9351 14.0742C12.3193 14.0742 12.74 13.9168 12.676 13.8057C12.6394 13.7594 12.676 13.6946 12.7308 13.6761C12.8498 13.6298 12.4748 13.5742 12.301 13.6113C12.2552 13.6205 12.1638 13.639 12.0998 13.6483C12.0357 13.6576 11.9534 13.6946 11.926 13.7316C11.7979 13.8613 11.6882 13.7964 11.7979 13.6576C11.8528 13.5835 11.8802 13.4816 11.8437 13.4168C11.8071 13.3613 11.8254 13.2779 11.8894 13.2409C11.9534 13.2038 12.0083 13.0464 12.0174 12.889C12.0174 12.7316 12.0449 12.6298 12.0632 12.6483C12.0906 12.6668 12.1638 12.5094 12.2369 12.2964C12.3101 12.0742 12.4473 11.7872 12.5388 11.6483C12.7491 11.352 12.7583 11.2594 12.5662 11.3335C12.4382 11.3798 12.429 11.3705 12.5205 11.2594C12.676 11.0742 12.4839 10.9816 12.3193 11.1576C12.2369 11.2316 12.1455 11.2964 12.0998 11.2964C11.8985 11.3057 10.5449 12.9538 10.4626 13.3057C10.426 13.4168 10.3711 13.4909 10.3254 13.4724C10.2888 13.4446 10.2888 13.3242 10.3254 13.2131C10.3711 13.102 10.4077 12.9816 10.4168 12.9353C10.4168 12.8983 10.426 12.8613 10.4351 12.8427C10.4351 12.8335 10.4534 12.7594 10.4717 12.6853C10.5906 12.1298 10.7461 11.5742 10.8558 11.315C10.929 11.1483 10.9656 10.9446 10.9382 10.8705C10.9107 10.7964 10.929 10.7594 10.9748 10.7872C11.0205 10.815 11.1211 10.7038 11.2034 10.5372C11.2766 10.3705 11.4869 10.0279 11.6607 9.77792C11.926 9.39829 11.9626 9.3057 11.8528 9.24089C11.6882 9.14829 11.4138 9.25015 11.4961 9.37977C11.5327 9.43533 11.5052 9.44459 11.4321 9.39829C11.3223 9.32422 10.5449 10.065 10.5906 10.2038C10.5998 10.2501 10.5723 10.2687 10.5357 10.2501C10.4443 10.2224 9.96865 10.7779 9.96865 10.9076C9.96865 10.9631 9.93207 11.0187 9.88634 11.0372C9.80402 11.065 9.23695 12.2687 9.23695 12.4076C9.23695 12.5742 9.07231 12.5835 9.01743 12.4353C8.98085 12.3427 8.98085 12.3057 9.01743 12.3427C9.08146 12.4076 9.42902 11.2409 9.44731 10.8983C9.45646 10.815 9.49304 10.7409 9.52963 10.7409C9.56621 10.7409 9.6028 10.6761 9.6028 10.602C9.6028 10.3335 10.1058 9.01866 10.4351 8.42607C10.7735 7.83348 10.865 7.602 10.8101 7.54644C10.7735 7.50015 10.801 7.50015 10.8558 7.53718C10.929 7.57422 11.0113 7.51866 11.0845 7.37052C11.1394 7.24089 11.2217 7.12977 11.2583 7.12977C11.2949 7.12977 11.3498 7.04644 11.3863 6.94459C11.4138 6.84274 11.6333 6.57422 11.8619 6.34274C12.6119 5.57422 11.9443 5.5557 11.0937 6.31496C10.426 6.90755 10.1516 7.23163 10.2065 7.33348C10.243 7.39829 10.2339 7.40755 10.1699 7.37052C10.0601 7.3057 9.59365 7.98163 9.30097 8.62977C9.20951 8.81496 9.09975 9.00015 9.05402 9.02792C8.92597 9.11126 8.50524 10.102 8.56012 10.1946C8.58756 10.2409 8.56012 10.2779 8.50524 10.2779C8.45036 10.2779 8.42292 10.315 8.45036 10.3613C8.48695 10.4076 8.46865 10.4631 8.41378 10.4816C8.3589 10.5001 8.30402 10.5927 8.27658 10.6946C8.25829 10.7964 8.15768 11.102 8.05707 11.3613C7.9656 11.6298 7.90158 11.852 7.92902 11.852C7.95646 11.852 7.93817 11.9076 7.88329 11.9631C7.83756 12.0279 7.76439 12.2224 7.7278 12.389C7.70036 12.5464 7.62719 12.6853 7.57231 12.6853C7.51743 12.6853 7.49914 12.6298 7.52658 12.5557C7.55402 12.4816 7.62719 12.0835 7.68207 11.6761C7.81926 10.6576 7.8467 10.4446 7.89243 10.2316C7.95646 9.93533 8.07536 9.23163 8.09365 8.98163C8.20341 7.88903 8.44121 7.07422 8.74304 6.79644C9.06317 6.48163 9.31012 5.98163 9.36499 5.50015C9.37414 5.34274 9.41987 5.17607 9.44731 5.12978C9.52048 5.00015 9.6028 4.37052 9.64853 3.602C9.68512 2.99089 9.66682 2.84274 9.4656 2.45385C9.28268 2.08348 9.25524 1.90755 9.28268 1.41681C9.30097 1.09274 9.31012 0.842739 9.30097 0.842739C9.29182 0.851998 9.20951 0.870516 9.11804 0.898294ZM8.78878 2.62978C8.84365 2.602 8.93512 2.62978 9.00829 2.68533C9.41073 3.02792 8.77963 6.40755 8.28573 6.602C8.06621 6.69459 7.93817 5.95385 8.09365 5.47237C8.13939 5.33348 8.11195 5.27792 8.01134 5.27792C7.92902 5.27792 7.86499 5.24089 7.86499 5.18533C7.86499 5.13903 7.92902 5.12052 8.00219 5.14829C8.13939 5.20385 8.14853 5.13903 8.16682 4.37978C8.17597 4.26866 8.20341 4.19459 8.23085 4.21311C8.26743 4.23163 8.34975 3.95385 8.42292 3.58348C8.56926 2.81496 8.56926 2.79644 8.5967 2.54644C8.61499 2.38903 8.62414 2.37978 8.66073 2.52792C8.67902 2.61126 8.74304 2.66681 8.78878 2.62978Z" fill="black"/>
<path d="M4.16079 1.75864C4.18823 1.80494 4.16079 1.85124 4.09676 1.85124C4.02359 1.85124 4.01445 1.87901 4.06932 1.92531C4.18823 2.00864 4.25225 2.86975 4.1425 2.86975C3.83152 2.86975 3.78579 5.17531 4.07847 5.65679C4.11506 5.72161 4.16079 5.93457 4.17908 6.13827C4.21567 6.62901 4.50835 7.27716 4.74615 7.39753C4.85591 7.46235 4.93823 7.48087 4.93823 7.44383C4.93823 7.40679 5.02054 7.47161 5.12115 7.59198C5.22176 7.71235 5.30408 7.87901 5.30408 7.96235C5.30408 8.04568 5.33152 8.13827 5.35896 8.17531C5.39554 8.20309 5.43213 8.42531 5.45042 8.65679C5.45957 8.88827 5.54189 9.39753 5.6242 9.78642C5.69737 10.1846 5.80713 10.7031 5.85286 10.9438C5.9992 11.7031 6.08152 13.1846 5.96262 13.1105C5.90774 13.0735 5.8803 12.9901 5.90774 12.9253C5.98091 12.7309 5.5053 11.3327 5.0114 10.2957C4.59981 9.44383 3.57542 8.08272 3.56628 8.37901C3.56628 8.43457 3.52054 8.39753 3.46567 8.30494C3.41079 8.22161 3.32847 8.17531 3.27359 8.20309C3.20957 8.24012 3.20042 8.22161 3.23701 8.16605C3.31932 8.02716 2.56932 7.48087 2.36811 7.52716C2.28579 7.55494 2.15774 7.52716 2.09372 7.48087C1.99311 7.40679 2.00225 7.40679 2.1303 7.44383C2.23091 7.47161 2.27664 7.46235 2.24006 7.40679C2.14859 7.2679 1.85591 7.29568 1.79189 7.45309C1.7553 7.55494 1.91993 7.7679 2.2675 8.10124C2.56018 8.37901 2.85286 8.70309 2.91689 8.83272C2.99006 8.96235 3.09067 9.04568 3.1364 9.00864C3.19128 8.97161 3.20042 8.99938 3.15469 9.07346C3.11811 9.13827 3.12725 9.21235 3.17298 9.24938C3.26445 9.3142 3.7492 10.3327 3.7492 10.4623C3.7492 10.5179 3.83152 10.7309 3.92298 10.9531C4.13335 11.4068 4.28884 11.9253 4.3803 12.4716C4.46262 12.9438 4.43518 12.9716 4.2614 12.5735C4.04189 12.0457 2.81628 10.7309 2.67908 10.8698C2.65164 10.8975 2.56932 10.8512 2.49615 10.7586C2.37725 10.6105 2.36811 10.6198 2.41384 10.8327C2.45957 11.0549 2.45042 11.0549 2.33152 10.8883C2.18518 10.6846 1.86506 10.6012 1.78274 10.7309C1.71872 10.842 2.00225 11.129 2.11201 11.0549C2.15774 11.0272 2.19432 11.0364 2.18518 11.0827C2.15774 11.2123 2.30408 11.4809 2.37725 11.4346C2.41384 11.4068 2.46872 11.4623 2.49615 11.5549C2.87115 12.7679 3.28274 13.7401 3.45652 13.8049C3.61201 13.8605 3.65774 13.8512 3.65774 13.7401C3.65774 13.4994 3.3742 12.4809 3.23701 12.1938C2.98091 11.7031 3.15469 11.7401 3.46567 12.2401C3.6303 12.5086 3.84981 12.842 3.94128 12.9809C4.04189 13.1198 4.11506 13.2586 4.11506 13.2957C4.11506 13.3327 4.20652 13.4716 4.32542 13.592C4.43518 13.7216 4.46262 13.7957 4.38945 13.7586C4.31628 13.7216 4.32542 13.7494 4.41689 13.8327C4.66384 14.0272 4.97481 13.8883 5.0114 13.5642C5.02969 13.4068 5.0114 13.3327 4.94737 13.3698C4.88335 13.4068 4.8742 13.379 4.90164 13.2957C5.09372 12.7864 4.1425 9.78642 3.58457 9.13827C3.5114 9.05494 3.46567 8.96235 3.49311 8.93457C3.53884 8.88827 3.7492 9.11975 4.22481 9.71235C4.31628 9.8142 4.37115 9.90679 4.34372 9.90679C4.32542 9.90679 4.44433 10.1661 4.60896 10.4901C4.77359 10.8049 5.02054 11.4161 5.15774 11.842C5.29493 12.2772 5.47786 12.6846 5.56018 12.7586C5.6425 12.8235 5.66079 12.8512 5.58762 12.8142C5.48701 12.7586 5.46872 12.7957 5.52359 12.9716C5.56018 13.092 5.60591 13.2957 5.63335 13.4161C5.69737 13.7123 5.94433 13.9716 5.94433 13.7309C5.94433 13.592 5.96262 13.5827 6.03579 13.7031C6.08152 13.7772 6.12725 13.8142 6.12725 13.7772C6.12725 13.7401 6.22786 13.7494 6.35591 13.7957C6.56628 13.879 6.58457 13.8605 6.58457 13.6012C6.58457 13.4161 6.54798 13.342 6.47481 13.3883C6.41079 13.4346 6.40164 13.4161 6.45652 13.3235C6.52969 13.1938 6.52054 12.7401 6.42908 12.3698C6.40164 12.2586 6.3925 12.0549 6.3925 11.9161C6.41079 11.4068 6.20957 10.0457 6.09981 9.98087C6.0175 9.92531 6.0175 9.90679 6.10896 9.90679C6.17298 9.90679 6.20957 9.87901 6.19128 9.83272C6.0175 9.54568 5.63335 7.18457 5.77054 7.27716C6.0175 7.42531 6.12725 5.84198 5.89859 5.46235C5.85286 5.39753 5.80713 5.14753 5.78884 4.91605C5.74311 4.32346 5.71567 4.18457 5.6425 4.1105C5.60591 4.07346 5.57847 3.94383 5.57847 3.83272C5.57847 3.37901 5.30408 2.87901 4.99311 2.7679C4.73701 2.67531 4.67298 2.58272 4.58152 2.21235C4.5175 1.97161 4.40774 1.74938 4.32542 1.72161C4.13335 1.64753 4.09676 1.65679 4.16079 1.75864ZM4.88335 3.28642C4.84676 3.3605 4.86506 3.42531 4.91079 3.42531C4.95652 3.42531 5.00225 3.48087 5.00225 3.53642C5.0114 3.60124 5.07542 3.90679 5.14859 4.21235C5.23091 4.5179 5.32237 4.99938 5.34981 5.27716C5.3864 5.55494 5.43213 5.8142 5.45042 5.84198C5.48701 5.90679 5.49615 6.57346 5.46872 6.86975C5.45957 6.95309 5.42298 7.00864 5.37725 6.98087C5.34067 6.95309 5.30408 6.98087 5.30408 7.04568C5.30408 7.1105 5.20347 7.0642 5.07542 6.94383C4.85591 6.73087 4.60896 6.11975 4.6364 5.84198C4.64554 5.7679 4.60896 5.60124 4.55408 5.47161C4.50835 5.34198 4.44433 5.0179 4.42603 4.7679C4.40774 4.50864 4.37115 4.13827 4.34372 3.93457C4.29798 3.52716 4.42603 3.28642 4.70957 3.21235C4.81018 3.19383 4.90164 3.16605 4.91079 3.15679C4.91993 3.15679 4.91079 3.21235 4.88335 3.28642Z" fill="black"/>
<path d="M1.9201 13.0091C1.81035 13.1387 1.82864 13.185 2.06645 13.3795C2.21279 13.4998 2.35913 13.5739 2.39571 13.5461C2.44145 13.5276 2.46888 13.5647 2.46888 13.6295C2.46888 13.7869 2.77986 13.9813 2.90791 13.898C3.05425 13.8147 2.84388 13.4073 2.57864 13.2776C2.46888 13.2221 2.40486 13.148 2.45059 13.1017C2.48718 13.0554 2.45974 13.0554 2.39571 13.0924C2.32254 13.1387 2.23108 13.1017 2.15791 13.0091C2.0573 12.861 2.03901 12.861 1.9201 13.0091Z" fill="black"/>
</svg>
