<svg width="15" height="15" viewBox="0 0 15 15" fill="none" xmlns="http://www.w3.org/2000/svg">
<path d="M7.21584 1.20281C7.09084 1.24911 6.77266 1.28615 6.5113 1.28615C6.11357 1.29541 5.98857 1.3417 5.77266 1.57318C5.62493 1.73985 5.35221 1.888 5.10221 1.94355C4.67039 2.03615 4.46584 2.27689 4.52266 2.60096C4.54539 2.68429 4.42039 2.82318 4.27266 2.90652C3.8863 3.11022 3.60221 3.56392 3.70448 3.82318C3.82948 4.138 3.85221 4.45281 3.74993 4.39726C3.69312 4.36948 3.62493 4.388 3.57948 4.44355C3.54539 4.48985 3.57948 4.53615 3.65902 4.53615C3.78402 4.53615 3.78402 4.55466 3.65902 4.61948C3.44312 4.72133 3.56812 5.138 3.92039 5.51763C4.07948 5.69355 4.19312 5.86948 4.14766 5.91578C4.11357 5.96207 4.15902 6.05467 4.23857 6.12874C4.31812 6.19355 4.42039 6.32318 4.46584 6.41578C4.49993 6.49911 4.67039 6.61948 4.81812 6.66578C4.97721 6.71207 5.15902 6.8417 5.23857 6.96207C5.40902 7.23059 5.57948 7.32318 5.77266 7.26763C5.86357 7.23985 5.8863 7.26763 5.84084 7.33244C5.78402 7.40652 5.8863 7.41578 6.19312 7.37874C6.5113 7.33244 6.69312 7.36022 6.81812 7.45281C6.92039 7.52689 7.18175 7.60096 7.39766 7.61948C7.82948 7.64726 7.79539 7.51763 7.71584 8.85096C7.70448 9.11022 7.73857 9.37874 7.78402 9.44355C7.84084 9.52689 7.82948 9.54541 7.74993 9.49911C7.64766 9.45281 7.61357 9.69355 7.61357 10.388V11.3417L7.32948 10.7861C7.17039 10.4806 6.97721 10.1843 6.87493 10.1287C6.78402 10.0732 6.73857 10.0084 6.77266 9.98059C6.87493 9.888 5.94312 9.21207 5.35221 8.96207C4.71584 8.67504 3.74993 8.46207 3.18175 8.47133C2.78402 8.47133 2.78402 8.48059 2.80675 8.86022C2.81812 9.07318 2.90902 9.37874 3.02266 9.55467C3.12493 9.72133 3.21584 9.87874 3.21584 9.90652C3.22721 10.0454 3.77266 10.8324 3.87493 10.8324C3.93175 10.8324 3.96584 10.8695 3.94312 10.925C3.93175 10.9713 4.14766 11.2028 4.42039 11.4343C4.87493 11.8047 5.07948 11.8973 5.37493 11.8602C5.43175 11.851 5.44312 11.888 5.39766 11.9436C5.32948 12.0269 5.47721 12.0732 5.71584 12.0454C5.7613 12.0454 5.79539 12.0824 5.79539 12.138C5.79539 12.1936 5.86357 12.2213 5.93175 12.2028C6.0113 12.175 6.14766 12.2213 6.23857 12.2861C6.32948 12.3602 6.55675 12.4065 6.77266 12.388C7.32948 12.351 7.3863 12.4528 7.22721 13.2213C7.07948 13.8973 7.17039 14.2491 7.45448 14.0917C7.61357 14.0084 8.09084 12.3232 7.98857 12.1936C7.94312 12.138 7.97721 12.1287 8.05675 12.175C8.24993 12.2676 9.90902 12.138 9.82948 12.0269C9.78402 11.9806 9.84084 11.9713 9.94312 11.9991C10.034 12.0361 10.1931 12.0084 10.284 11.9436C10.3749 11.8787 10.4545 11.8602 10.4545 11.888C10.4545 11.925 10.659 11.8602 10.909 11.7491C11.159 11.6287 11.3636 11.5084 11.3636 11.4621C11.3636 11.425 11.4318 11.388 11.5113 11.388C11.6704 11.3787 12.4999 10.7954 12.4999 10.675C12.4999 10.6287 12.6022 10.5361 12.7272 10.4621C12.9999 10.2954 13.409 9.76763 13.409 9.57318C13.409 9.49911 13.4886 9.33244 13.5908 9.21207C13.6931 9.08244 13.7386 8.98059 13.6931 8.98059C13.6477 8.98059 13.659 8.92504 13.7272 8.86022C13.9204 8.66578 14.0227 8.11022 13.8522 8.20281C13.7386 8.25837 13.7386 8.23059 13.8636 8.10096C13.9545 8.00837 13.9772 7.95281 13.8977 7.98985C13.8295 8.02689 13.7386 8.01763 13.6931 7.96207C13.659 7.91578 13.5227 7.86948 13.3977 7.86948C13.2727 7.86948 13.1931 7.90652 13.2272 7.95281C13.2613 7.98985 13.159 8.00837 12.9999 7.98059C12.4772 7.89726 10.4999 8.42504 10.0454 8.76763C9.89766 8.87874 9.77266 8.95281 9.77266 8.92504C9.77266 8.89726 9.56812 9.03615 9.31812 9.22133C9.06812 9.41578 8.86357 9.60096 8.86357 9.638C8.86357 9.67504 8.71584 9.8417 8.52266 10.0084L8.19312 10.3139L8.2613 9.11022C8.29539 8.45281 8.32948 7.83244 8.32948 7.73059C8.34084 7.58244 8.43175 7.54541 8.79539 7.52689C9.05675 7.51763 9.30675 7.45281 9.3863 7.36948C9.45448 7.28615 9.59084 7.22133 9.68175 7.22133C10.1022 7.22133 10.5908 6.99911 10.7613 6.73059C10.9772 6.388 11.1818 6.20281 11.3636 6.20281C11.4318 6.20281 11.4658 6.16578 11.4318 6.11948C11.3863 6.07318 11.409 6.01763 11.4658 5.99911C11.5227 5.98985 11.5908 5.90652 11.6136 5.83244C11.6363 5.75837 11.6931 5.66578 11.7613 5.62874C11.8295 5.5917 11.8295 5.4343 11.7499 5.19355C11.6477 4.90652 11.659 4.79541 11.7613 4.72133C11.9431 4.60096 11.909 3.92504 11.7272 3.77689C11.6477 3.71207 11.5908 3.48059 11.5908 3.25837C11.5908 2.90652 11.534 2.79541 11.1931 2.53615C10.9772 2.36948 10.7954 2.19355 10.7954 2.14726C10.7954 2.01763 10.3522 1.73059 10.1363 1.71207C10.0227 1.71207 9.80675 1.61022 9.65902 1.49911C9.49993 1.388 9.31812 1.31392 9.22721 1.3417C9.14766 1.36948 9.11357 1.3417 9.14766 1.28615C9.19312 1.23059 9.04539 1.20281 8.72721 1.21207C8.46584 1.22133 8.05675 1.20281 7.84084 1.16578C7.62493 1.138 7.34084 1.15652 7.21584 1.20281ZM7.89766 1.55466C7.80675 1.62874 8.06812 1.92504 8.20448 1.90652C8.28402 1.89726 8.46584 1.83244 8.61357 1.76763C8.95448 1.61948 9.18175 1.69355 9.31812 1.99911C9.40902 2.18429 9.48857 2.23059 9.69312 2.18429C10.0113 2.11948 10.1363 2.19355 10.3181 2.52689C10.3977 2.67504 10.5568 2.81392 10.6818 2.8417C10.8068 2.86948 10.909 2.93429 10.909 2.98059C10.909 3.02689 10.9545 3.04541 11.0113 3.00837C11.0795 2.98059 11.0795 3.07318 11.0113 3.25837C10.9545 3.42504 10.909 3.56392 10.909 3.56392C10.909 3.67504 10.4999 3.51763 10.4772 3.40652C10.4658 3.31392 10.4545 3.16578 10.4431 3.07318C10.409 2.80466 9.98857 2.50837 9.55675 2.44355C9.32948 2.41578 9.07948 2.32318 9.0113 2.23985C8.93175 2.15652 8.7613 2.08244 8.6363 2.06392C8.52266 2.05466 8.37493 2.02689 8.32948 2.02689C8.28402 2.01763 8.14766 2.03615 8.02266 2.08244C7.89766 2.12874 7.72721 2.11948 7.60221 2.05466C7.43175 1.97133 7.37493 1.98059 7.28402 2.11022C7.17039 2.25837 7.17039 2.25837 7.15902 2.10096C7.15902 1.99911 7.10221 1.96207 7.03402 1.99911C6.96584 2.02689 6.98857 1.95281 7.09084 1.83244C7.19312 1.70281 7.24993 1.5917 7.22721 1.56392C7.20448 1.54541 7.35221 1.52689 7.56812 1.51763C7.78402 1.51763 7.93175 1.53615 7.89766 1.55466ZM6.6363 1.90652C6.8863 1.98059 6.86357 2.10096 6.57948 2.15652C6.45448 2.18429 6.29539 2.33244 6.22721 2.48059C6.12493 2.68429 5.99993 2.77689 5.73857 2.81392C5.31812 2.87874 4.99993 3.26763 4.99993 3.73059C4.99993 3.91578 4.92039 4.17504 4.80675 4.32318C4.56812 4.67504 4.68175 5.04541 5.12493 5.36022C5.30675 5.48985 5.45448 5.66578 5.45448 5.75837C5.45448 5.85096 5.5113 5.92504 5.59084 5.92504C5.65902 5.92504 5.69312 5.95281 5.64766 5.98059C5.47721 6.12874 5.93175 6.31392 6.3863 6.27689C6.7613 6.24911 6.90902 6.28615 7.11357 6.45281C7.46584 6.73985 7.93175 6.81392 8.28402 6.64726C8.44312 6.57318 8.56812 6.47133 8.55675 6.41578C8.54539 6.36948 8.77266 6.32318 9.06812 6.30467C9.60221 6.28615 9.93175 6.15652 9.81812 6.00837C9.78402 5.96207 9.85221 5.95281 9.95448 5.98985C10.0681 6.02689 10.1249 6.00837 10.0795 5.95281C10.0454 5.90652 10.0795 5.86022 10.1704 5.86022C10.409 5.86022 10.4318 6.17504 10.2158 6.53615C10.1249 6.6843 10.0113 6.72133 9.7613 6.70281C9.55675 6.6843 9.36357 6.73059 9.23857 6.8417C8.93175 7.10096 8.64766 7.138 8.35221 6.98059C8.06812 6.83244 7.84084 6.86948 7.84084 7.07318C7.84084 7.24911 7.27266 7.14726 6.96584 6.91578C6.7613 6.76763 6.64766 6.74911 6.45448 6.81392C6.09084 6.94355 5.82948 6.87874 5.74993 6.638C5.71584 6.52689 5.47721 6.32318 5.22721 6.1843C4.87493 5.98059 4.77266 5.86948 4.77266 5.66578C4.77266 5.50837 4.65902 5.31392 4.48857 5.1843C4.14766 4.92504 4.1363 4.79541 4.40902 4.42504C4.55675 4.21207 4.56812 4.12874 4.46584 4.10096C4.19312 4.02689 4.34084 3.30466 4.62493 3.27689C4.97721 3.24911 5.11357 3.10096 5.11357 2.76763C5.11357 2.39726 5.15902 2.36948 5.65902 2.40652C5.80675 2.41578 5.94312 2.35096 5.98857 2.24911C6.14766 1.87874 6.29539 1.80466 6.6363 1.90652ZM7.47721 2.57318C7.49993 2.638 7.55675 2.66578 7.60221 2.64726C7.78402 2.55466 7.68175 2.92504 7.49993 3.02689C7.23857 3.17504 7.10221 3.61022 7.27266 3.73985C7.39766 3.8417 7.48857 3.78615 7.79539 3.36948C7.90902 3.21207 7.93175 3.20281 8.21584 3.36022C8.61357 3.57318 8.87493 3.56392 8.78402 3.35096C8.68175 3.14726 8.53402 3.01763 8.21584 2.87874C7.93175 2.75837 7.97721 2.49911 8.28402 2.49911C8.49993 2.50837 8.8863 2.73059 8.80675 2.79541C8.77266 2.82318 8.82948 2.89726 8.93175 2.96207C9.04539 3.04541 9.1363 3.05466 9.18175 2.98985C9.27266 2.87874 9.79539 2.75837 9.71584 2.86948C9.68175 2.91578 9.70448 2.97133 9.77266 3.00837C9.82948 3.03615 9.8863 3.19355 9.8863 3.35096C9.8863 3.52689 9.98857 3.73059 10.1363 3.86022C10.4204 4.11022 10.4772 4.43429 10.2613 4.61948C10.1704 4.68429 10.1136 4.85096 10.1363 4.98985C10.1704 5.29541 10.0454 5.46207 9.78402 5.46207C9.67039 5.46207 9.54539 5.54541 9.5113 5.64726C9.43175 5.888 9.07948 5.888 8.82948 5.638C8.57948 5.40652 8.29539 5.53615 8.29539 5.888C8.29539 6.04541 8.21584 6.11948 8.0113 6.16578C7.68175 6.23059 7.3863 6.07318 7.3863 5.82318C7.3863 5.61022 7.3863 5.61022 6.81812 5.79541C6.27266 5.97133 6.05675 5.87874 5.99993 5.4343C5.97721 5.21207 5.90902 5.12874 5.70448 5.11022C5.19312 5.04541 5.14766 4.58244 5.61357 4.26763C5.73857 4.17504 5.7613 4.10096 5.68175 3.98059C5.40902 3.56392 5.62493 3.20281 6.15902 3.19355C6.36357 3.19355 6.53402 3.14726 6.53402 3.08244C6.53402 2.70281 7.35221 2.26763 7.47721 2.57318ZM11.2158 3.99911C11.3749 4.21207 11.3636 4.45281 11.1931 4.5917C11.0113 4.73985 10.9658 4.90652 11.1136 4.90652C11.2386 4.90652 11.2613 5.46207 11.1363 5.64726C10.9772 5.87874 10.4658 5.95281 10.4886 5.73059C10.4999 5.638 10.534 5.58244 10.5795 5.61022C10.6249 5.62874 10.6818 5.50837 10.7272 5.35096C10.7727 5.15652 10.7499 5.03615 10.659 4.98059C10.5454 4.92504 10.5454 4.90652 10.659 4.90652C10.7386 4.90652 10.7727 4.86022 10.7386 4.81392C10.7045 4.75837 10.7272 4.72133 10.8068 4.72133C10.8863 4.72133 10.9204 4.69355 10.8749 4.66578C10.8408 4.638 10.8522 4.50837 10.909 4.388C10.9772 4.25837 10.9772 4.14726 10.8977 4.11948C10.784 4.05466 10.8636 3.888 11.0227 3.888C11.0795 3.888 11.159 3.94355 11.2158 3.99911ZM13.2613 8.37874C13.3636 8.40652 13.3636 8.49911 13.2272 8.74911C13.1363 8.9343 13.0908 9.12874 13.1363 9.1843C13.1818 9.23985 13.1704 9.25837 13.1022 9.23059C13.034 9.19355 12.9204 9.29541 12.8408 9.45281C12.7499 9.61022 12.5227 9.90652 12.3068 10.1102C12.1022 10.3139 11.9658 10.5269 12.0113 10.5732C12.0454 10.6287 12.034 10.6473 11.9658 10.6195C11.909 10.5917 11.6818 10.6843 11.4658 10.8232C10.9658 11.1565 10.3295 11.425 9.55675 11.6102C8.64766 11.8232 8.64766 11.8139 9.3863 11.2213C10.2045 10.5732 10.6818 10.2584 10.6818 10.351C10.6818 10.388 10.7272 10.3695 10.7727 10.3232C10.8181 10.2676 11.0908 10.0732 11.3749 9.888C12.034 9.46207 12.1022 9.08244 11.4658 9.36022C11.3408 9.40652 11.2727 9.48985 11.3068 9.54541C11.3522 9.5917 11.2727 9.62874 11.1477 9.62874C11.0227 9.62874 10.8295 9.73059 10.7045 9.86022C10.5795 9.98059 10.4545 10.0639 10.4318 10.0361C10.3636 9.98985 9.5113 10.5547 8.81812 11.1195C8.35221 11.4991 8.23857 11.5361 8.12493 11.388C8.09084 11.3417 8.12493 11.3232 8.22721 11.351C8.34084 11.388 8.40902 11.3139 8.46584 11.0917C8.5113 10.925 8.67039 10.638 8.81812 10.4528C8.95448 10.2676 9.04539 10.0824 9.0113 10.0547C8.96584 10.0269 9.02266 9.99911 9.11357 9.99911C9.28402 9.99911 9.48857 9.75837 9.44312 9.60096C9.43175 9.55467 9.47721 9.54541 9.53402 9.57318C9.67039 9.64726 9.90902 9.40652 9.79539 9.30467C9.74993 9.25837 9.77266 9.25837 9.85221 9.28615C9.92039 9.32318 10.0454 9.29541 10.1363 9.23059C10.4318 8.99911 12.1818 8.45281 12.4886 8.50837C12.5681 8.51763 12.6136 8.49911 12.5795 8.45281C12.5227 8.36948 13.034 8.31392 13.2613 8.37874ZM3.85221 9.04541C4.6363 9.0917 6.24993 10.0176 6.65902 10.6658C6.98857 11.1843 7.04539 11.388 6.87493 11.3232C6.78402 11.2954 6.70448 11.2399 6.70448 11.1936C6.70448 11.1473 6.62493 11.1102 6.52266 11.1102C6.43175 11.1102 6.37493 11.0824 6.39766 11.0361C6.49993 10.9065 5.09084 10.0732 4.95448 10.1843C4.86357 10.2584 4.92039 10.351 5.17039 10.5269C5.36357 10.6565 5.79539 10.9806 6.1363 11.2399C6.48857 11.5084 6.86357 11.7491 6.97721 11.7861C7.23857 11.8695 7.20448 11.8973 6.78402 11.9806C6.56812 12.0176 6.48857 12.0084 6.53402 11.9436C6.56812 11.8973 6.5113 11.851 6.3863 11.851C5.86357 11.851 4.34084 10.8787 4.22721 10.4713C4.21584 10.4065 4.12493 10.2954 4.03402 10.2213C3.95448 10.1473 3.84084 10.0084 3.80675 9.90652C3.7613 9.80467 3.69312 9.73985 3.6363 9.76763C3.59084 9.79541 3.56812 9.73059 3.60221 9.62874C3.6363 9.52689 3.61357 9.44355 3.56812 9.44355C3.5113 9.44355 3.45448 9.30467 3.44312 9.138C3.43175 8.98059 3.45448 8.888 3.49993 8.9343C3.54539 8.98985 3.70448 9.04541 3.85221 9.04541Z" fill="black"/>
<path d="M8.51173 4.28658C8.35264 4.39769 8.22764 4.54584 8.239 4.6014C8.26173 4.66621 8.27309 4.74955 8.28445 4.77732C8.28445 4.81436 8.42082 4.76806 8.57991 4.68473C8.96627 4.47177 9.19354 4.49955 9.31854 4.76806C9.52309 5.21251 9.989 4.98103 9.84127 4.5088C9.71627 4.08288 8.97764 3.95325 8.51173 4.28658Z" fill="black"/>
<path d="M6.30669 4.27621C6.18169 4.33176 6.06805 4.37806 6.05669 4.38732C6.05669 4.39658 6.01123 4.55398 5.96578 4.73917C5.86351 5.15584 6.20441 5.24843 6.51123 4.87806C6.67032 4.71139 6.71578 4.69287 6.80669 4.81324C6.86351 4.88732 6.8976 4.97065 6.86351 5.01695C6.79532 5.10028 7.21578 5.28547 7.31805 5.21139C7.44305 5.10954 7.3976 4.5725 7.24987 4.4151C7.05669 4.21139 6.59078 4.14658 6.30669 4.27621Z" fill="black"/>
</svg>
