<svg width="15" height="15" viewBox="0 0 15 15" fill="none" xmlns="http://www.w3.org/2000/svg">
<path d="M5.65501 1.18461C5.11225 1.22164 4.58922 1.68461 4.49054 2.22164C4.43133 2.56424 4.39185 2.60127 4.20435 2.54572C3.78001 2.42535 3.22738 2.37905 3.28659 2.47164C3.3162 2.51794 3.22738 2.55498 3.08922 2.55498C2.74383 2.54572 2.25041 3.11979 2.24054 3.53646C2.23067 4.04572 2.49712 4.49016 2.93133 4.68461L3.3162 4.86053L3.14843 5.13831C2.66488 5.91609 3.02014 6.67535 3.96751 6.88831C4.24383 6.94387 4.78659 6.72164 5.18133 6.38831C5.36883 6.22164 5.38856 6.2309 5.71422 6.4809C5.90172 6.62905 6.08922 6.7309 6.11883 6.71238C6.43462 6.5272 6.6912 7.91609 6.74054 10.1105C6.76028 10.8698 6.71093 11.305 6.66159 10.7494C6.62212 10.2402 5.45764 8.80498 5.21093 8.94387C5.14185 8.9809 5.13199 8.96238 5.17146 8.89757C5.36883 8.59201 3.6912 8.29572 2.73396 8.46238C1.75699 8.63831 1.51027 8.91609 2.06291 9.22164C2.2208 9.31424 2.4083 9.4809 2.47738 9.60127C2.54646 9.72164 2.63528 9.81424 2.68462 9.81424C2.72409 9.81424 2.76356 9.86979 2.76356 9.92535C2.76356 10.055 3.1287 10.4439 3.57277 10.8142C3.79975 11.0087 3.97738 11.0735 4.27343 11.1013C4.32278 11.1105 4.32278 11.1568 4.29317 11.2031C4.26356 11.2587 4.33264 11.305 4.46093 11.305C4.58922 11.3142 4.77672 11.3328 4.88528 11.3605C4.99383 11.3791 5.39843 11.4253 5.77343 11.4624L6.46422 11.5272L6.55304 11.8605C6.62212 12.1198 6.58264 12.3235 6.39514 12.8328C6.13856 13.5457 6.13856 13.7031 6.41488 13.7031C6.58264 13.7031 6.78001 13.342 7.05633 12.5087C7.12541 12.2957 7.15501 12.2957 7.73725 12.3513C8.06291 12.3883 8.5662 12.4439 8.84251 12.4716C9.49383 12.5365 10.3425 12.305 10.7471 11.9531C10.9149 11.805 11.053 11.7124 11.053 11.7402C11.053 11.7679 11.1715 11.6846 11.3294 11.555C11.4774 11.4253 11.7142 11.2494 11.8622 11.1568C12.0103 11.0735 12.109 10.9624 12.0794 10.9161C12.0497 10.8698 12.0892 10.8605 12.1682 10.8883C12.3754 10.9624 12.4642 10.7772 12.3359 10.5457C12.1287 10.1939 11.2504 9.89757 10.4708 9.91609C9.44449 9.94387 8.02343 10.6568 7.6287 11.342C7.55962 11.4624 7.43133 11.5828 7.34251 11.6105C7.20435 11.6568 7.19449 11.6476 7.29317 11.5365C7.35238 11.4624 7.43133 11.3235 7.45106 11.2124C7.51028 10.9161 8.09251 9.80498 8.35896 9.46238C8.48725 9.29572 8.60567 9.08275 8.61554 8.99016C8.62541 8.88831 8.65501 8.8235 8.70435 8.85127C8.74383 8.86979 8.82278 8.81424 8.87212 8.72164C8.95107 8.5735 9.07935 8.54572 9.5037 8.54572C10.0366 8.55498 10.757 8.25868 10.757 8.03646C10.757 7.9809 10.9149 8.04572 11.1024 8.18461C11.6254 8.55498 11.9708 8.58275 12.4346 8.29572C12.6616 8.15683 12.8096 8.00868 12.78 7.96238C12.7405 7.90683 12.7603 7.86979 12.8096 7.86979C12.8688 7.86979 12.9379 7.80498 12.9675 7.72164C13.007 7.62905 12.9872 7.60127 12.8984 7.64757C12.8096 7.70312 12.8096 7.68461 12.9083 7.5735C13.0267 7.43461 13.0169 7.24942 12.8787 6.79572C12.8294 6.65683 12.8787 6.58275 13.0761 6.49942C13.5695 6.28646 13.6879 5.36979 13.2833 4.95312C13.1353 4.80498 12.9872 4.7309 12.9182 4.7772C12.8491 4.81424 12.8294 4.80498 12.859 4.74942C12.9478 4.61053 12.7405 4.55498 12.3063 4.59201C11.9609 4.61979 11.9412 4.61053 11.9412 4.34201C11.9412 3.0272 9.9083 2.92535 9.68133 4.2309C9.62212 4.5735 9.61225 4.5735 9.1583 4.59201C8.60567 4.61053 8.24054 4.84201 8.08264 5.25868C7.87541 5.8235 8.21093 6.66609 8.65501 6.66609C8.77343 6.66609 8.7833 6.71238 8.72409 6.86979C8.68462 6.99016 8.64514 7.33275 8.64514 7.63831C8.63528 8.11979 8.58593 8.26794 8.26028 8.72164C7.90501 9.2309 7.53001 9.88831 7.33264 10.3698C7.2537 10.5457 7.23396 10.4161 7.21422 9.76794C7.19449 8.63831 7.11554 7.87905 7.00699 7.68461C6.95764 7.60127 6.93791 7.50868 6.95764 7.49016C6.97738 7.46238 6.95764 7.29572 6.9083 7.10127C6.83922 6.7772 6.84909 6.74016 7.15501 6.49942C7.34251 6.36053 7.53001 6.13831 7.58922 6.00868C7.70764 5.69387 7.6583 4.97164 7.51028 4.92535C7.35238 4.87905 7.48067 4.72164 7.68791 4.72164C7.77672 4.72164 8.02343 4.5735 8.2208 4.39757C8.63528 4.0272 8.73396 3.39757 8.42804 3.11053C8.34909 3.0272 8.30962 2.96238 8.35896 2.96238C8.64514 2.95312 7.71751 2.5735 7.38199 2.55498C6.96751 2.53646 6.95764 2.5272 6.88856 2.14757C6.79975 1.61979 6.5333 1.25868 6.35567 1.39757C6.23725 1.4809 6.22738 1.4809 6.26685 1.36979C6.3458 1.19387 6.18791 1.14757 5.65501 1.18461ZM6.06949 1.68461C6.20764 1.74016 6.3458 1.88831 6.37541 2.00868C6.43462 2.20312 6.41488 2.34201 6.24712 3.0735C6.18791 3.36979 6.21751 3.37905 6.59251 3.20312C7.38199 2.83275 8.09251 3.00868 8.09251 3.56424C8.09251 4.01794 7.80633 4.2309 7.07606 4.3235C6.39514 4.40683 6.21751 4.61053 6.66159 4.79572C7.19449 5.0272 7.29317 5.74942 6.83922 6.12905C6.45435 6.45312 5.67475 6.04572 5.57606 5.47164C5.54646 5.28646 5.18133 5.2772 5.18133 5.46238C5.18133 5.53646 5.16159 5.61979 5.13199 5.64757C5.10238 5.67535 5.0333 5.7772 4.97409 5.87905C4.8458 6.11053 4.2833 6.47164 4.11554 6.44387C3.30633 6.29572 3.20764 5.64757 3.89843 5.03646C4.41159 4.59201 4.40172 4.44387 3.86883 4.44387C3.44449 4.44387 2.86225 4.13831 2.79317 3.88831C2.76356 3.78646 2.70435 3.7309 2.65501 3.75868C2.54646 3.81424 2.65501 3.54572 2.84251 3.26794C3.16817 2.78646 3.80962 2.74942 4.43133 3.16609C4.55962 3.24942 4.70764 3.30498 4.74712 3.28646C4.91488 3.18461 4.91488 3.54572 4.74712 3.81424C4.33264 4.44387 5.13199 5.24942 5.83264 4.89757C5.9412 4.85127 5.99054 4.75868 5.96093 4.70312C5.92146 4.64757 5.93133 4.62905 6.00041 4.66609C6.05962 4.69387 6.13856 4.67535 6.17804 4.61053C6.29646 4.42535 6.32606 3.99942 6.21751 3.93461C6.1583 3.89757 6.13856 3.84201 6.16817 3.79572C6.26685 3.63831 5.68462 3.36053 5.30962 3.38831L4.93462 3.41609L4.91488 3.0272C4.88528 2.26794 5.04317 1.92535 5.53659 1.69387C5.82278 1.55498 5.76356 1.55498 6.06949 1.68461ZM5.80304 4.12905C5.83264 4.36979 5.79317 4.42535 5.60567 4.47164C5.28988 4.55498 5.09251 4.34201 5.17146 4.0272C5.27014 3.64757 5.76356 3.7309 5.80304 4.12905ZM11.359 4.03646C11.6254 4.2772 11.6353 4.29572 11.4971 4.61053C11.2603 5.11979 11.2997 5.22164 11.6747 5.13831C12.0004 5.06424 12.8491 5.01794 12.78 5.0735C12.7603 5.09201 12.8294 5.18461 12.9379 5.28646C13.0366 5.37905 13.1254 5.5272 13.1254 5.60127C13.1254 5.8235 12.6715 6.20312 12.405 6.20312C12.03 6.20312 11.8721 6.44387 12.109 6.64757C12.7011 7.12905 12.6616 7.8235 12.03 8.03646C11.7241 8.14757 11.28 7.86979 11.0925 7.44387C10.9149 7.04572 10.8063 7.04572 10.609 7.44387C10.2438 8.16609 9.64185 8.35127 9.24712 7.85127C9.02014 7.56424 9.10896 7.21238 9.52343 6.74016C9.82935 6.39757 9.78001 6.30498 9.25699 6.31424C8.54646 6.3235 8.24054 5.69387 8.72409 5.2309C8.98067 4.99016 9.48396 4.99016 9.77014 5.2309C10.0169 5.43461 10.1451 5.26794 10.1353 4.76794C10.1057 3.86979 10.7471 3.49016 11.359 4.03646ZM4.94449 9.25868C5.39843 9.53646 6.07935 10.2494 5.98067 10.342C5.96093 10.3698 5.67475 10.2124 5.35896 10.0087C4.69778 9.58275 3.94778 9.24942 3.82935 9.31424C3.6912 9.39757 3.79975 9.4809 4.6583 9.97164C5.11225 10.2309 5.5958 10.5457 5.7537 10.6753C6.02014 10.9161 6.10896 11.2031 5.91159 11.2031C5.86225 11.2031 5.84251 11.1568 5.87212 11.1105C5.90172 11.055 5.82278 11.0179 5.68462 11.0179C4.77672 11.0179 3.73067 10.4531 3.20764 9.68461C3.09909 9.5272 2.93133 9.31424 2.84251 9.21238C2.33922 8.70312 4.08593 8.74942 4.94449 9.25868ZM11.3787 10.5272C11.6353 10.6476 11.7044 10.8791 11.4872 10.8791C11.28 10.8883 10.8458 11.2402 10.8951 11.3605C10.9247 11.4346 10.9149 11.4624 10.8655 11.4346C10.8162 11.4068 10.609 11.4902 10.4116 11.6198C9.78001 12.0179 8.47738 12.1846 7.98396 11.9346C7.73725 11.8142 7.82606 11.6661 8.11225 11.7402C8.27014 11.7772 8.29975 11.7587 8.24054 11.6661C8.1912 11.5828 8.20107 11.5642 8.28001 11.6105C8.33922 11.6476 8.44778 11.6476 8.51685 11.592C8.58593 11.5457 8.88199 11.4346 9.17804 11.342C10.1353 11.055 10.2636 10.9994 10.2044 10.9161C10.1353 10.805 9.43462 10.9161 8.85238 11.1291C8.26028 11.342 8.32935 11.2124 9.03001 10.7957C9.84909 10.2957 10.6978 10.2031 11.3787 10.5272Z" fill="black"/>
<path d="M10.3131 5.62008C10.0664 5.87934 9.9578 6.37008 10.1848 6.24045C10.2637 6.19416 10.2736 6.22193 10.2341 6.32378C10.165 6.49971 10.5894 6.85156 10.8756 6.85156C11.2999 6.85156 11.6453 6.41638 11.6453 5.85156C11.6453 5.37008 10.7275 5.21267 10.3131 5.62008ZM11.1914 5.97193C11.2802 6.19416 10.8361 6.4349 10.6881 6.24045C10.5993 6.12008 10.5894 6.04601 10.6683 5.95341C10.8164 5.79601 11.1124 5.79601 11.1914 5.97193Z" fill="black"/>
</svg>
