<svg width="15" height="15" viewBox="0 0 15 15" fill="none" xmlns="http://www.w3.org/2000/svg">
<path d="M12.1001 1.13838C12.1001 1.18585 12.0401 1.20483 11.9601 1.17635C11.8701 1.14787 11.7101 1.30926 11.5001 1.65104C11.3301 1.94534 11.1301 2.23964 11.0701 2.3061C11.0001 2.37256 10.9001 2.50547 10.8401 2.6099C10.7901 2.70483 10.6301 2.84724 10.4901 2.93268C10.2601 3.07509 10.2501 3.07509 10.4201 2.89471C10.7201 2.56243 11.0001 1.51813 10.7901 1.51813C10.6701 1.51813 10.2901 2.06876 10.2701 2.27762C10.2601 2.38205 10.2301 2.46749 10.1901 2.46749C10.1501 2.46749 10.0201 2.72382 9.90008 3.03711C9.77008 3.3599 9.62008 3.60673 9.53008 3.60673C9.43008 3.60673 9.42008 3.55926 9.49008 3.43585C9.55008 3.33142 9.60008 3.0561 9.62008 2.81876C9.64008 2.57192 9.68008 2.37256 9.72008 2.37256C9.76008 2.37256 9.75008 2.26813 9.70008 2.14471C9.65008 2.02129 9.64008 1.88838 9.67008 1.8599C9.71008 1.83142 9.71008 1.80294 9.68008 1.80294C9.61008 1.80294 9.29008 2.26813 9.26008 2.41053C9.25008 2.46749 9.17008 2.7523 9.08008 3.03711C8.99008 3.32192 8.89008 3.71116 8.86008 3.90104C8.82008 4.09091 8.71008 4.31876 8.61008 4.41369C8.42008 4.56559 8.42008 4.56559 8.46008 4.29977C8.55008 3.73964 8.56008 3.03711 8.48008 2.92319C8.42008 2.81876 8.40008 2.81876 8.40008 2.92319C8.40008 2.98964 8.36008 3.01813 8.30008 2.98964C8.24008 2.95167 8.22008 3.04661 8.24008 3.21749C8.26008 3.41686 8.23008 3.48332 8.14008 3.44534C8.06008 3.41686 8.01008 3.47382 8.02008 3.57825C8.02008 3.91053 7.81008 5.61939 7.76008 5.67635C7.73008 5.70483 7.70008 5.67635 7.70008 5.6099C7.70008 5.53395 7.64008 5.50547 7.54008 5.54344C7.41008 5.59091 7.40008 5.57192 7.48008 5.47699C7.54008 5.41053 7.58008 5.23015 7.56008 5.07825C7.54008 4.91686 7.52008 4.61306 7.51008 4.38521C7.50008 4.05294 7.47008 3.98648 7.30008 3.98648C7.19008 3.98648 7.10008 4.01496 7.09008 4.05294C7.04008 4.49914 7.05008 4.82192 7.12008 5.49597C7.17008 5.93268 7.19008 6.39787 7.15008 6.52129C7.09008 6.77762 6.88008 6.77762 6.84008 6.52129C6.83008 6.43585 6.86008 6.37888 6.91008 6.41686C6.96008 6.44534 7.00008 6.41686 7.00008 6.36939C7.00008 6.31243 6.96008 6.26496 6.91008 6.26496C6.86008 6.26496 6.84008 6.18901 6.86008 6.09407C6.89008 6.00863 6.80008 5.82825 6.68008 5.69534C6.55008 5.56243 6.46008 5.46749 6.47008 5.48648C6.48008 5.51496 6.45008 5.6004 6.40008 5.68585C6.35008 5.79028 6.35008 6.01813 6.41008 6.27445C6.47008 6.5023 6.53008 6.76813 6.55008 6.87256C6.58008 6.96749 6.64008 7.1004 6.71008 7.17635C6.79008 7.27129 6.79008 7.38521 6.70008 7.61306C6.41008 8.35357 6.00008 9.98648 6.07008 10.0909C6.10008 10.1479 6.08008 10.1574 6.02008 10.1194C5.94008 10.0719 5.90008 10.1669 5.89008 10.4137C5.88008 10.6131 5.86008 10.689 5.84008 10.5846C5.81008 10.4802 5.74008 10.1384 5.68008 9.82509C5.61008 9.5118 5.55008 9.22699 5.54008 9.17952C5.53008 9.14154 5.51008 9.09407 5.50008 9.06559C5.49008 9.03711 5.47008 8.98964 5.46008 8.94218C5.39008 8.6004 5.16008 7.97382 5.11008 7.97382C5.07008 7.97382 5.04008 7.89787 5.03008 7.79344C5.00008 7.49914 4.34008 6.60673 3.68008 5.98015C2.81008 5.14471 2.60008 4.97382 2.60008 5.06876C2.60008 5.11623 2.53008 5.09724 2.45008 5.03078C2.24008 4.86939 1.83008 4.84091 1.83008 5.0023C1.83008 5.06876 1.85008 5.10673 1.88008 5.08775C1.90008 5.05926 2.07008 5.23964 2.24008 5.48648C2.42008 5.73332 2.63008 5.92319 2.71008 5.9042C2.82008 5.87572 2.82008 5.89471 2.73008 5.98964C2.64008 6.07509 2.68008 6.22699 2.89008 6.63521C3.05008 6.92952 3.23008 7.36623 3.30008 7.61306C3.37008 7.86939 3.46008 8.06876 3.51008 8.06876C3.56008 8.06876 3.57008 8.12572 3.54008 8.19218C3.51008 8.26813 3.58008 8.55294 3.68008 8.83775C3.79008 9.12256 3.96008 9.69218 4.05008 10.1099C4.15008 10.5276 4.25008 10.9074 4.28008 10.9548C4.31008 11.0023 4.35008 11.2112 4.37008 11.4295C4.39008 11.6479 4.47008 12.0751 4.56008 12.3884C4.64008 12.7017 4.73008 13.1289 4.76008 13.3377C4.83008 13.8884 4.87008 13.9548 5.09008 13.9548C5.31008 13.9548 5.31008 13.8124 5.15008 12.9105C5.10008 12.6732 5.06008 12.4169 5.05008 12.3409C5.04008 12.265 5.00008 12.0656 4.96008 11.9137C4.76008 11.1162 4.50008 10.0339 4.35008 9.39787C4.20008 8.74281 4.04008 8.23964 3.78008 7.57509C3.72008 7.42319 3.63008 7.33775 3.56008 7.37572C3.48008 7.41369 3.48008 7.4042 3.56008 7.31876C3.71008 7.16686 3.17008 6.06559 2.98008 6.11306C2.91008 6.12256 2.88008 6.12256 2.93008 6.10357C2.97008 6.07509 2.98008 6.01813 2.95008 5.97066C2.91008 5.92319 2.96008 5.91369 3.05008 5.95167C3.25008 6.01813 3.70008 6.43585 3.70008 6.54028C3.70008 6.58775 3.77008 6.68268 3.86008 6.74914C3.99008 6.85357 5.07008 8.78078 4.99008 8.78078C4.98008 8.78078 5.04008 9.07509 5.13008 9.44534C5.26008 9.99597 5.42008 11.0688 5.44008 11.5624C5.45008 11.6289 5.52008 11.7238 5.60008 11.7808C5.72008 11.8662 5.72008 11.8757 5.57008 11.8283C5.42008 11.7808 5.40008 11.8093 5.46008 11.9896C5.50008 12.1036 5.53008 12.2365 5.52008 12.2934C5.48008 12.7017 5.48008 13.7839 5.53008 13.8219C5.56008 13.8504 5.57008 13.9264 5.54008 13.9928C5.51008 14.0593 5.60008 14.1067 5.74008 14.1257C6.00008 14.1447 6.06008 13.9548 6.16008 12.8156C6.18008 12.4738 6.23008 11.9422 6.27008 11.6289C6.30008 11.3156 6.34008 10.9264 6.35008 10.7745C6.37008 10.6131 6.40008 10.4232 6.43008 10.3472C6.46008 10.2713 6.60008 9.73015 6.76008 9.16053C7.08008 7.96433 7.26008 7.49914 7.41008 7.49914C7.46008 7.49914 7.49008 7.47066 7.47008 7.42319C7.44008 7.38521 7.55008 7.34724 7.71008 7.33775C7.87008 7.32825 8.10008 7.2618 8.22008 7.20483C8.35008 7.13838 8.54008 7.07192 8.65008 7.06243C8.97008 7.02445 9.60008 6.74914 9.60008 6.63521C9.60008 6.58775 9.56008 6.56876 9.50008 6.59724C9.45008 6.62572 9.40008 6.61623 9.40008 6.55926C9.40008 6.43585 8.99008 6.5118 8.89008 6.6542C8.85008 6.72066 8.81008 6.72066 8.79008 6.66369C8.76008 6.60673 8.55008 6.62572 8.22008 6.70167C7.55008 6.86306 7.39008 6.78711 7.80008 6.5023C8.06008 6.32192 9.20008 5.98015 10.1001 5.81876C10.2401 5.79977 10.3901 5.74281 10.4401 5.69534C10.5501 5.59091 10.2401 5.27762 10.1001 5.36306C10.0501 5.39154 9.78008 5.43901 9.50008 5.46749C9.23008 5.48648 8.88008 5.55294 8.74008 5.6004C8.35008 5.74281 8.25008 5.71433 8.45008 5.50547C8.55008 5.40104 8.71008 5.31559 8.80008 5.31559C8.89008 5.31559 9.01008 5.26813 9.07008 5.21116C9.12008 5.16369 9.30008 5.09724 9.46008 5.07825C9.62008 5.05926 9.75008 5.04028 9.75008 5.03078C9.75008 5.0118 10.4301 4.91686 10.6001 4.91686C10.6801 4.90737 10.8101 4.8599 10.8901 4.80294C11.0101 4.71749 11.0201 4.72699 10.9601 4.84091C10.9201 4.91686 10.9501 4.90737 11.0301 4.81243C11.1401 4.68901 11.1901 4.67002 11.2201 4.76496C11.2501 4.84091 11.3101 4.80294 11.3901 4.66053L11.5201 4.43268L10.6001 4.49914C10.0901 4.53711 9.64008 4.58458 9.59008 4.60357C9.55008 4.63205 9.44008 4.62256 9.35008 4.59407C9.17008 4.52762 9.59008 4.27129 9.89008 4.27129C9.99008 4.27129 10.1001 4.24281 10.1401 4.20483C10.2101 4.13838 10.2601 4.12889 11.5501 4.03395C12.4101 3.97699 12.7001 3.88205 12.7001 3.68268C12.7001 3.62572 12.6301 3.63521 12.5501 3.70167C12.4201 3.8061 12.4101 3.79661 12.4601 3.6542C12.5301 3.49281 12.4701 3.48332 11.4901 3.54028C10.6001 3.57825 10.4901 3.56876 10.7001 3.46433C11.0101 3.31243 11.5801 3.21749 12.3401 3.17952C12.7501 3.16053 12.9601 3.10357 13.0201 2.99914C13.0701 2.9137 13.1601 2.84724 13.2301 2.84724C13.3001 2.84724 13.2901 2.88521 13.2001 2.94218C13.0701 3.01813 13.0701 3.03711 13.2201 3.03711C13.4501 3.03711 13.5301 2.89471 13.3601 2.7618C13.2301 2.65737 12.4001 2.68585 12.0801 2.79977C11.9801 2.83775 11.9001 2.84724 11.9001 2.80926C11.9001 2.73332 12.4801 2.44851 13.1001 2.23015C13.5201 2.08775 13.6601 1.99281 13.6801 1.83142C13.7101 1.63205 13.6801 1.62256 13.3801 1.67952C13.2001 1.708 12.9401 1.78395 12.8001 1.83142C12.6601 1.88838 12.5301 1.93585 12.5001 1.94534C12.1901 2.04028 11.9201 2.19218 11.8101 2.31559C11.7401 2.40104 11.6301 2.46749 11.5701 2.46749C11.5201 2.46749 11.5501 2.38205 11.6601 2.26813C11.7601 2.1542 11.8301 2.05926 11.8001 2.04977C11.7701 2.04977 11.8801 1.88838 12.0301 1.69851C12.3001 1.35673 12.3801 1.04344 12.2001 1.04344C12.1501 1.04344 12.1001 1.08142 12.1001 1.13838Z" fill="black"/>
<path d="M12.2599 7.17645C10.7999 7.67012 8.8499 8.94227 8.9299 9.33151C8.9399 9.39797 8.8799 9.43594 8.7999 9.42645C8.7199 9.41695 8.4299 9.69227 8.1499 10.072C7.8799 10.4328 7.5899 10.7935 7.5199 10.8695C7.4499 10.9454 7.4199 11.0594 7.4599 11.1163C7.4999 11.1828 7.4899 11.2018 7.4399 11.1733C7.2599 11.0689 6.1099 13.4518 6.2699 13.6037C6.2899 13.6321 6.2699 13.7366 6.2099 13.841C6.1299 13.9929 6.1399 14.0404 6.2599 14.0878C6.4999 14.1733 6.5699 14.1543 6.3999 14.0499C6.2899 13.9834 6.2899 13.9549 6.3799 13.9549C6.4499 13.9549 6.4799 13.9075 6.4499 13.86C6.4199 13.803 6.4399 13.7651 6.4899 13.7651C6.5499 13.7651 6.5899 13.7366 6.5799 13.6891C6.5799 13.6511 6.6399 13.4708 6.7299 13.2809C6.8199 13.1005 6.9199 12.8347 6.9499 12.6923C6.9899 12.5499 7.0599 12.4359 7.1099 12.4359C7.1599 12.4359 7.1999 12.3885 7.1999 12.3315C7.1999 12.2745 7.3799 11.9328 7.6099 11.572C7.8299 11.2113 7.9799 10.8695 7.9399 10.803C7.8999 10.7461 7.9099 10.7271 7.9699 10.7556C8.0299 10.7935 8.2499 10.6132 8.4599 10.3663C9.3499 9.32202 11.1599 7.87898 11.5899 7.87898C11.6399 7.87898 11.7499 7.82202 11.8299 7.74607C11.9499 7.62265 11.9699 7.65113 11.9699 7.90746C11.9699 8.07835 11.9499 8.13531 11.9299 8.04037C11.8499 7.74607 11.7299 7.84101 9.9399 9.6448C9.7399 9.84417 8.6699 11.2302 8.4499 11.5625C7.9099 12.398 7.7899 12.6448 7.8399 12.7777C7.8699 12.8537 7.8599 12.8916 7.7999 12.8632C7.7399 12.8347 7.6499 12.9201 7.5999 13.072C7.5399 13.2144 7.4699 13.4043 7.4199 13.4802C7.3799 13.5562 7.3599 13.7461 7.3799 13.8885L7.4099 14.1543L7.5999 13.9549C7.6999 13.8505 7.8399 13.6227 7.9099 13.4518C7.9799 13.2904 8.2799 12.7682 8.5699 12.3125C8.8599 11.8568 9.0999 11.4581 9.0999 11.4296C9.0999 11.3632 9.5899 10.7366 9.7999 10.5277C9.8799 10.4423 10.0399 10.2714 10.1399 10.148C11.0499 9.07518 12.1199 8.1543 12.6999 7.91695C12.9799 7.80303 13.0199 7.75556 12.8999 7.67961C12.7799 7.60366 12.7999 7.59417 12.9799 7.64164C13.1099 7.67961 13.2599 7.65113 13.3499 7.57518C13.6899 7.28088 13.7799 7.23341 13.8399 7.28088C13.8699 7.31885 13.8999 7.29987 13.8999 7.2429C13.8999 7.10999 13.4099 6.92961 13.1099 6.9486C12.9799 6.96759 12.5899 7.06252 12.2599 7.17645Z" fill="black"/>
<path d="M10.3999 11.999C9.61985 12.2363 8.28985 13.3281 8.45985 13.5844C8.49985 13.6509 8.48985 13.6698 8.42985 13.6414C8.27985 13.5559 8.16985 13.8692 8.29985 13.9926C8.37985 14.0686 8.56985 13.9262 8.97985 13.5179C9.61985 12.8724 10.1299 12.4926 10.4999 12.3882C10.6999 12.3312 10.6299 12.4357 10.1599 12.8914C9.40985 13.6129 9.09985 14.1445 9.40985 14.1445C9.55985 14.1445 10.1099 13.5749 10.0499 13.48C10.0199 13.4325 10.0499 13.3661 10.1099 13.3281C10.1899 13.2806 10.1999 13.2996 10.1499 13.3945C10.0999 13.4705 10.2499 13.3661 10.4699 13.1572C10.6899 12.9578 11.0499 12.6825 11.2599 12.5401C11.6399 12.2933 11.7999 12.0559 11.5899 12.0559C11.5399 12.0559 11.5199 12.0085 11.5499 11.961C11.6299 11.8281 10.8399 11.8566 10.3999 11.999Z" fill="black"/>
</svg>
