<svg width="15" height="15" viewBox="0 0 15 15" fill="none" xmlns="http://www.w3.org/2000/svg">
<path d="M4.80917 0.858417C4.49042 1.01359 4.19042 1.90325 4.16229 2.7929C4.12479 3.786 4.38729 4.78945 4.83729 5.35842C4.91229 5.45152 5.08104 5.68945 5.21229 5.86531L5.45604 6.20669H5.10917C3.81542 6.20669 2.19354 7.44807 1.71542 8.7929C1.50917 9.37221 1.64042 9.65152 2.26854 9.97221C3.30917 10.4895 4.21854 10.5929 5.11854 10.2929C5.37167 10.2101 5.58729 10.1377 5.58729 10.1377C5.62479 10.1377 5.49354 10.7274 5.43729 10.8101C5.29667 11.0067 5.26854 11.9895 5.39042 12.5895C5.58729 13.6446 6.15917 14.6895 6.52479 14.6895C7.10604 14.6895 8.43729 13.5308 8.83104 12.6929C8.92479 12.4757 9.05604 11.9377 9.11229 11.4929L9.22479 10.686L9.62792 11.1412C10.3029 11.8963 10.9217 12.155 12.0842 12.1446C13.3029 12.1446 13.4623 12.0101 13.3779 11.0584C13.2373 9.65152 12.506 8.37911 11.4467 7.73773L10.8467 7.36531L11.2873 7.14807C12.4779 6.56876 13.2092 5.43083 13.4154 3.84807C13.5842 2.50325 13.5279 2.37911 12.6654 2.37911C11.306 2.37911 10.1623 2.85497 9.28104 3.786C8.97167 4.10669 8.69979 4.45842 8.67167 4.56187C8.58729 4.85152 8.43729 4.7998 8.43729 4.48945C8.43729 2.67911 6.01854 0.258417 4.80917 0.858417ZM6.53417 1.986C7.51854 2.78256 7.88417 3.57911 7.93104 5.03773C7.97792 6.51704 7.79979 6.81704 7.49979 5.77221C7.42479 5.52394 7.30292 5.21359 7.22792 5.08945C7.15292 4.95497 7.02167 4.69635 6.93729 4.52049C6.74979 4.13773 6.46854 4.02393 6.46854 4.32393C6.46854 4.43773 6.53417 4.58256 6.60917 4.65497C6.68417 4.72738 6.74979 4.83083 6.74979 4.8929C6.74979 4.95497 6.83417 5.1929 6.92792 5.42049C7.49979 6.75497 7.48104 6.85842 6.73104 6.43428C5.21229 5.59635 4.34979 3.67221 4.74354 2.02738C4.80917 1.73773 4.94042 1.44807 5.01542 1.37566C5.23104 1.21014 5.91542 1.47911 6.53417 1.986ZM12.9092 3.75497C12.6654 5.586 11.6435 6.6929 9.93729 6.97221C8.63417 7.18945 8.62479 7.10669 9.79667 6.12394C10.6029 5.45152 10.8748 5.06876 10.556 5.06876C10.3967 5.06876 9.69354 5.586 8.98104 6.23773C8.40917 6.74462 8.33417 6.5998 8.68104 5.64807C9.08417 4.52049 10.2185 3.40325 11.2029 3.14462C11.681 3.02049 12.8904 2.94807 12.9467 3.03083C12.9748 3.07221 12.956 3.40325 12.9092 3.75497ZM6.59979 7.02394C7.13417 7.31359 7.16229 7.51014 6.64667 7.53083C6.44042 7.54118 6.19667 7.5929 6.10292 7.65497C6.00917 7.70669 5.90604 7.72738 5.88729 7.69635C5.82167 7.63428 4.78104 8.07911 4.78104 8.18256C4.78104 8.37911 5.02479 8.36876 5.99042 8.15152C6.56229 8.02738 7.05917 7.96531 7.09667 8.00669C7.21854 8.14118 6.05604 9.26876 5.49354 9.55842C4.77167 9.94118 4.20917 9.9929 3.33729 9.786C2.48417 9.56876 2.09979 9.26876 2.18417 8.886C2.34354 8.22394 3.30917 7.36531 4.49979 6.84807C4.91229 6.66187 6.11229 6.76531 6.59979 7.02394ZM8.27792 6.96187C8.52167 7.14807 8.39042 7.74807 8.08104 7.87221C7.56542 8.08945 7.28417 7.24118 7.78104 6.96187C8.07167 6.79635 8.08104 6.79635 8.27792 6.96187ZM10.9123 8.01704C11.8967 8.56531 12.4873 9.36187 12.8154 10.5929C13.0685 11.5239 12.8904 11.7101 11.7467 11.6377C10.5748 11.5757 9.75917 10.8308 8.93417 9.07221C8.49354 8.15152 8.52167 8.05842 9.13104 8.48256C9.37479 8.65842 9.59979 8.7929 9.63729 8.7929C9.67479 8.7929 9.85292 8.92738 10.031 9.10325C10.3685 9.41359 10.631 9.49635 10.7342 9.2998C10.7717 9.23773 10.7248 9.12394 10.631 9.04118C10.2373 8.6998 9.07479 7.86187 8.99042 7.86187C8.93417 7.86187 8.92479 7.81014 8.96229 7.74807C9.09354 7.52049 10.3123 7.686 10.9123 8.01704ZM7.42479 9.5998C7.11542 11.0584 7.09667 11.1929 7.29354 11.1515C7.41542 11.1308 7.51854 10.8515 7.70604 10.0032C8.03417 8.50325 8.03417 8.51359 8.21229 8.6998C8.28729 8.78256 8.36229 8.94807 8.38104 9.06187C8.40917 9.16531 8.48417 9.45497 8.55917 9.68256C8.95292 10.8826 8.49354 12.5998 7.54667 13.4998C6.76854 14.2239 6.61854 14.255 6.28104 13.7377C6.12167 13.5101 5.99042 13.2515 5.99042 13.1688C5.97167 12.9412 5.95292 12.8895 5.88729 12.7653C5.84979 12.7032 5.83104 12.2481 5.84979 11.7619C5.88729 10.5412 6.17792 9.88945 7.17167 8.75152C7.64042 8.21359 7.68729 8.35842 7.42479 9.5998Z" fill="currentColor"/>
</svg>
