<svg width="15" height="15" viewBox="0 0 15 15" fill="none" xmlns="http://www.w3.org/2000/svg">
<path d="M6.12479 1.21488C5.57216 1.30417 4.33155 1.78631 4.64734 1.78631C4.69246 1.78631 4.5684 1.90238 4.38794 2.04524C4.20749 2.1881 4.06088 2.3756 4.06088 2.44703C4.06088 2.54524 3.95937 2.58988 3.74509 2.58988C3.24885 2.58988 2.1887 3.1881 1.95185 3.60774C1.73757 3.99167 1.70373 4.66131 1.89546 4.84881C1.97441 4.92024 2.00825 4.99167 1.97441 5.01845C1.94058 5.04524 2.08719 5.19703 2.2902 5.35774C2.61727 5.60774 2.66238 5.6881 2.60599 5.92917C2.22253 7.29524 3.73381 8.39346 6.01201 8.42024C6.57591 8.42024 7.12855 8.41131 7.21877 8.38453C7.4105 8.34881 7.4105 8.34881 7.32028 10.0095C7.27516 10.9917 7.17366 11.1256 6.8917 10.6077C6.2714 9.5006 4.65862 8.89346 2.78644 9.05417C1.83907 9.13453 1.7714 9.23274 2.19997 9.90238C3.03456 11.1881 5.15486 12.1702 6.45185 11.8667C7.10599 11.7238 7.1511 12.197 6.60975 13.5542C6.55336 13.6881 6.59847 13.7685 6.74509 13.831C6.93682 13.9113 6.99321 13.8845 7.1511 13.6256C7.25261 13.456 7.33155 13.2685 7.33155 13.197C7.33155 13.1256 7.4105 12.8577 7.51201 12.5988C7.65862 12.1792 7.70373 12.1435 7.9293 12.197C8.45937 12.3399 10.0947 12.206 9.97065 12.0363C9.92554 11.9738 9.9481 11.9649 10.0158 12.0006C10.3316 12.1524 12.5308 10.7685 12.3391 10.5274C12.3052 10.4827 12.3278 10.447 12.3842 10.447C12.497 10.447 12.8917 9.83988 12.9255 9.61667C12.9368 9.51846 12.8353 9.44703 12.6436 9.41131C12.4857 9.38453 12.2488 9.33096 12.1135 9.28631C11.7526 9.17917 10.8052 9.25953 10.0722 9.47381C9.31652 9.69703 8.34659 10.4113 7.91802 11.072L7.65862 11.4738L7.71501 11.1613C7.74885 10.9917 7.80524 10.447 7.83907 9.95596C7.94058 8.64346 7.98569 8.3131 8.08719 8.1881C8.14358 8.11667 8.49321 8.08096 9.13607 8.08096C10.2639 8.08096 10.794 8.00953 11.3691 7.77738C11.8992 7.5631 12.7 6.88453 12.9143 6.47381C13.0947 6.13453 13.1398 5.1256 12.9819 5.05417C12.7789 4.94703 12.7338 4.38453 12.9143 4.10774C13.0947 3.82203 13.1285 2.85774 12.9594 2.85774C12.903 2.85774 12.8917 2.80417 12.9255 2.73274C12.9932 2.58988 11.9894 1.72381 11.8767 1.82203C11.8428 1.84881 11.7075 1.82203 11.5834 1.77738C11.324 1.66131 10.106 1.66131 9.84659 1.76845C9.72253 1.83095 9.57592 1.76845 9.29396 1.55417C9.09095 1.38453 8.87667 1.2506 8.83155 1.24167C8.78644 1.24167 8.63983 1.21488 8.51576 1.19703C7.98569 1.09881 6.76764 1.10774 6.12479 1.21488ZM8.66238 1.74167C8.9105 1.82203 9.20373 1.98274 9.29396 2.08988C9.45186 2.28631 9.44058 2.30417 9.07967 2.38453C8.77516 2.46488 8.6511 2.45595 8.43682 2.33095C8.24509 2.23274 7.95185 2.1881 7.36539 2.19703C6.37291 2.20595 5.6511 2.5006 5.31276 3.02738C5.15486 3.25953 4.98569 3.38453 4.70373 3.45595L4.32028 3.54524L4.42178 3.13453C4.6699 2.13453 5.21125 1.76845 6.69998 1.61667C7.48945 1.52738 8.10975 1.57203 8.66238 1.74167ZM11.7301 2.27738C12.0346 2.35774 12.4067 2.91131 12.4744 3.35774C12.5759 4.0631 11.9782 4.69703 10.8842 5.04524C10.4443 5.17917 10.4443 5.17917 10.6699 5.02738C11.5947 4.42024 11.4594 2.9381 10.4443 2.55417C10.2413 2.47381 10.0045 2.41131 9.93682 2.41131C9.66614 2.41131 9.83531 2.2506 10.1849 2.17024C10.5007 2.09881 11.2113 2.14345 11.7301 2.27738ZM8.36915 2.8756C8.52704 3.08095 8.16614 3.19703 7.68118 3.09881C7.11727 2.98274 6.59847 3.13453 6.45185 3.46488C6.35035 3.71488 6.48569 4.10774 6.67742 4.10774C6.72253 4.10774 6.76764 4.1881 6.76764 4.28631V4.47381L6.51952 4.29524C6.38419 4.1881 6.18118 4.08988 6.07967 4.0631C5.87667 4.00953 5.70749 3.74167 5.69622 3.48274C5.69622 3.28631 6.09095 2.94703 6.48569 2.79524C6.8917 2.65238 8.22253 2.70595 8.36915 2.8756ZM10.5571 3.27738C10.8504 3.79524 10.6925 4.3131 10.0947 4.77738C9.62103 5.15238 9.59847 5.16131 9.20373 5.07203C8.71877 4.94703 8.69622 4.86667 9.11351 4.69703C9.86915 4.39345 9.90298 3.76845 9.21501 3.29524C8.83155 3.02738 8.86539 2.90238 9.36163 2.83988C9.71125 2.79524 10.4331 3.0631 10.5571 3.27738ZM3.85787 3.14345C3.90298 3.40238 3.91426 3.64345 3.93682 4.16131C3.9481 4.57203 4.01576 4.78631 4.20749 5.00953C4.68118 5.55417 4.68118 5.65238 4.25261 5.59881C4.0496 5.57203 3.67742 5.48274 3.4293 5.39345C3.19246 5.3131 2.94434 5.2506 2.89922 5.25953C2.84283 5.26845 2.83155 5.23274 2.87667 5.17917C2.9105 5.13453 2.9105 5.08988 2.85411 5.08988C2.53832 5.08988 2.27892 4.30417 2.47065 3.91131C2.70749 3.42917 3.80148 2.82203 3.85787 3.14345ZM7.6699 3.65238C7.6699 3.75953 7.11727 3.83095 7.03832 3.74167C7.00449 3.69703 7.09471 3.6256 7.24133 3.58095C7.51201 3.5006 7.6699 3.52738 7.6699 3.65238ZM8.93306 3.72381C9.23757 3.94703 9.18118 4.09881 8.71877 4.25953C8.0308 4.48274 6.99321 4.49167 6.99321 4.26845C6.99321 4.22381 7.03832 4.20595 7.09471 4.23274C7.37667 4.3756 8.40298 3.90238 8.30148 3.6881C8.21125 3.51845 8.68494 3.54524 8.93306 3.72381ZM5.31276 4.16131C5.53832 4.50953 6.73381 4.92024 7.57967 4.92917C7.97441 4.9381 8.2902 4.99167 8.36915 5.0631C8.43682 5.1256 8.57216 5.17917 8.66238 5.17917C8.97817 5.17917 8.6511 5.33095 8.06464 5.47381C6.67742 5.79524 4.88419 5.35774 4.63607 4.64345C4.53456 4.35774 4.53456 4.01845 4.63607 4.07203C4.69246 4.09881 4.73757 4.07203 4.73757 4.02738C4.73757 3.83095 5.15486 3.9381 5.31276 4.16131ZM12.4631 6.0006C12.418 6.24167 12.3391 6.42917 12.2827 6.42917C12.2263 6.42917 12.1812 6.48274 12.1812 6.55417C12.1812 6.8756 10.8955 7.50953 9.98193 7.63453L9.5308 7.69703L9.8917 7.45596C10.2413 7.22381 10.8278 6.53631 10.918 6.2506C10.9406 6.17917 10.9857 5.96488 11.0195 5.77738C11.0534 5.59881 11.1098 5.44703 11.1661 5.44703C11.2113 5.44703 11.4707 5.33095 11.7413 5.17917L12.2376 4.92024L12.3842 5.2506C12.4744 5.45595 12.5082 5.74167 12.4631 6.0006ZM10.4331 5.82203C10.2188 6.59881 9.11351 7.51846 8.24509 7.63453C7.36539 7.7506 6.41802 7.38453 5.82028 6.70595C5.56088 6.42024 5.24509 5.80417 5.34659 5.80417C5.36915 5.80417 5.57216 5.86667 5.78644 5.9381C6.54208 6.1881 7.65862 6.09881 9.75637 5.6256C10.4331 5.48274 10.512 5.50953 10.4331 5.82203ZM3.26013 5.89345C3.37291 5.9381 3.63231 5.99167 3.84659 6.00953C4.59095 6.08095 4.78268 6.1881 5.13231 6.73274C5.34659 7.04524 6.37291 7.85774 6.56464 7.85774C6.62103 7.85774 6.65486 7.90238 6.65486 7.95596C6.65486 8.09881 5.23381 8.0006 4.71501 7.83096C3.83531 7.53631 3.18118 6.89346 3.04584 6.17917C2.96689 5.76845 2.96689 5.76845 3.26013 5.89345ZM5.0308 9.77738C5.67366 10.0363 6.03456 10.3131 6.41802 10.822C6.73381 11.2417 6.64358 11.2506 6.14734 10.8667C5.73005 10.5452 4.10599 9.84881 3.98193 9.9381C3.85787 10.0363 4.16238 10.2417 4.81652 10.5095C5.16614 10.6435 5.68494 10.9292 5.96689 11.1345L6.48569 11.5095L5.97817 11.4649C4.53456 11.3399 3.85787 11.0006 2.92178 9.9381C2.52704 9.49167 2.58343 9.45596 3.66614 9.5006C4.25261 9.52738 4.60223 9.58988 5.0308 9.77738ZM12.1473 9.76846C12.2037 9.8131 11.8992 10.197 11.3917 10.7327C10.8616 11.2863 9.6887 11.7863 8.89922 11.7863C8.59471 11.7863 8.34659 11.7417 8.34659 11.697C8.34659 11.6435 8.41426 11.6077 8.49321 11.6077C8.56088 11.6077 8.75261 11.5274 8.9105 11.4202C9.0684 11.322 9.51952 11.081 9.91426 10.8845C10.4105 10.6345 10.6022 10.5006 10.512 10.4292C10.3879 10.331 9.66614 10.6167 8.74133 11.1435C8.43682 11.322 8.24509 11.4024 8.33531 11.3131C8.41426 11.2327 8.45937 11.1613 8.41426 11.1613C8.17742 11.1613 9.3278 10.2952 9.86915 10.072C10.6699 9.73274 11.9105 9.57203 12.1473 9.76846Z" fill="black"/>
</svg>
