<svg width="15" height="15" viewBox="0 0 15 15" fill="none" xmlns="http://www.w3.org/2000/svg">
<path d="M6.55717 1.49107C6.2786 1.65275 5.96789 2.12879 6.0536 2.24556C6.08574 2.29945 6.06432 2.33538 6.01074 2.33538C5.94646 2.33538 5.89289 2.524 5.89289 2.7755C5.89289 3.027 5.83932 3.25155 5.76432 3.28748C5.68932 3.33239 5.6786 3.31442 5.73217 3.24257C5.81789 3.11682 5.3786 2.6767 5.2286 2.74856C5.17503 2.7755 5.1536 2.74856 5.16431 2.69466C5.20717 2.55993 4.6286 2.29047 4.33931 2.29945C4.22146 2.30844 3.97503 2.31742 3.79289 2.3264C3.32146 2.33538 2.89289 2.69466 2.89289 3.08089C2.89289 3.59287 3.77146 4.28448 4.00717 3.96113C4.03931 3.9252 3.92146 3.75454 3.75003 3.59287C3.26789 3.13478 3.34289 2.8743 3.99646 2.73957C4.18931 2.69466 4.37146 2.72161 4.5536 2.82041C4.7036 2.90125 4.82146 2.93718 4.82146 2.90125C4.82146 2.85634 4.88574 2.9282 4.96074 3.05394C5.04646 3.17969 5.16431 3.26951 5.2286 3.26053C5.3036 3.24257 5.34646 3.28748 5.32503 3.35035C5.31432 3.40424 5.36789 3.44915 5.44289 3.43119C5.5286 3.42221 5.56074 3.44915 5.5286 3.49406C5.43217 3.61981 5.58217 3.87131 5.72146 3.79945C5.78574 3.77251 5.61432 3.9252 5.33574 4.14077C4.80003 4.57191 4.65003 4.85933 4.74646 5.36233C4.8536 5.90125 5.31432 6.33239 5.9036 6.42221C6.16074 6.46712 6.32146 6.61083 6.32146 6.8264C6.32146 6.90724 6.39646 7.05095 6.48217 7.15873C6.64289 7.34736 6.62146 7.36532 6.24646 7.58089C5.73217 7.8773 5.7536 7.8773 5.32503 7.49107C5.0036 7.19466 4.90717 7.15873 4.39289 7.14975C4.01789 7.14077 3.8036 7.1767 3.77146 7.25754C3.75003 7.31143 3.68574 7.34736 3.63217 7.31143C3.5786 7.28448 3.53574 7.31143 3.53574 7.36532C3.53574 7.41921 3.49289 7.44616 3.43931 7.41921C3.38574 7.39227 3.26789 7.50903 3.16074 7.68867C2.9786 8.01203 3.01074 8.64975 3.22503 8.76652C3.40717 8.85634 3.32146 9.03598 3.01074 9.18867C2.6786 9.35035 2.44289 9.79945 2.51789 10.1048C2.53931 10.2036 2.56074 10.3384 2.56074 10.4012C2.57146 10.4641 2.61431 10.4911 2.6786 10.4641C2.73217 10.4372 2.76431 10.4641 2.73217 10.527C2.62503 10.7605 3.90003 11.048 4.13574 10.8414C4.27503 10.7246 4.48931 10.7785 4.43574 10.9042C4.35003 11.0839 4.58574 11.4252 4.73574 11.3533C4.80003 11.3174 4.82146 11.3264 4.7786 11.3893C4.61789 11.6138 5.16431 11.8743 5.6786 11.8114C6.36432 11.7306 6.60003 11.5689 6.73932 11.1018C6.85717 10.6977 6.85717 10.6977 7.18932 10.7965C7.54289 10.9042 8.35717 12.1168 8.35717 12.548C8.35717 12.6647 8.38932 12.7545 8.44289 12.7545C8.48574 12.7545 8.51789 12.8713 8.51789 13.006V13.2665L8.10003 13.006C7.86432 12.8623 7.59646 12.7725 7.51074 12.7995C7.41432 12.8264 7.38217 12.8264 7.42503 12.7905C7.46789 12.7545 7.29646 12.6468 7.03932 12.5569C6.53574 12.3593 4.60717 12.2336 4.60717 12.3953C4.60717 12.4492 4.51074 12.4851 4.39289 12.4851C4.0286 12.4851 3.90003 12.8264 4.23217 12.9342C4.39289 12.9881 4.5536 13.024 4.60717 13.024C4.66074 13.024 4.71431 13.0599 4.73574 13.1048C4.75717 13.1498 5.17503 13.3204 5.6786 13.5001C7.65003 14.1737 9.47146 14.2635 9.61074 13.6887C9.66432 13.4731 9.71789 13.3474 9.83574 13.0869C9.91074 12.9432 9.96432 12.8084 9.96432 12.7815C9.96432 12.5929 10.8215 11.3444 11.2072 10.9761C11.625 10.5719 13.05 9.61083 13.2215 9.61083C13.2536 9.61083 13.0715 9.86233 12.8036 10.1677C12.5465 10.4641 12.3643 10.7605 12.3965 10.8144C12.4286 10.8683 12.4286 10.8863 12.375 10.8504C12.3322 10.8144 12.1929 10.9132 12.0536 11.0749C11.925 11.2366 11.4643 11.7845 11.0357 12.3054C10.3607 13.1228 9.96432 13.6977 9.96432 13.8773C9.96432 14.0569 10.5536 13.8234 10.7036 13.5809C10.8 13.4282 11.0893 13.0509 11.3465 12.7366C11.6036 12.4312 11.8179 12.1258 11.8179 12.0629C11.8179 12.0001 11.85 11.9731 11.8929 11.9911C11.9572 12.027 12.3215 11.7216 12.3215 11.6228C12.3215 11.5959 12.4715 11.3983 12.6536 11.1827C12.8572 10.9492 12.9536 10.7515 12.9107 10.6797C12.8572 10.6168 12.8679 10.5899 12.9429 10.6348C13.0286 10.6797 13.5536 10.1228 13.5536 9.97011C13.5536 9.94317 13.7357 9.73658 13.9607 9.51203C14.175 9.28748 14.3572 9.05394 14.3572 8.99107C14.3572 8.86532 13.9715 8.85634 13.875 8.98209C13.8322 9.03598 13.7572 9.04496 13.6929 9.01802C13.5107 8.91921 13.0822 9.17071 13.1465 9.33239C13.1893 9.44017 13.1786 9.44915 13.0929 9.35933C12.975 9.20664 12.5572 9.36832 12.0857 9.73658C11.9143 9.86233 11.7857 9.94317 11.7857 9.91622C11.7857 9.89826 11.5179 10.1048 11.1965 10.3743C10.8536 10.6617 10.6286 10.9132 10.6715 10.9761C10.7143 11.03 10.7036 11.048 10.6393 11.021C10.5107 10.9492 9.9536 11.6138 9.93217 11.8653C9.92146 11.9551 9.88932 12.036 9.84646 12.036C9.81432 12.036 9.64289 12.3234 9.48217 12.6737L9.17146 13.3114L8.92503 12.539C8.68932 11.7665 8.34646 11.1108 8.14289 11.003C7.96074 10.9042 8.02503 10.7965 8.38932 10.6078C9.10717 10.2396 9.16074 9.53897 8.50717 9.08987C8.06789 8.78448 8.14289 8.66772 8.83932 8.59586C9.38574 8.53299 9.75003 8.29945 9.75003 8.02101C9.75003 7.91323 9.81432 7.89526 10.1036 7.95814C11.5715 8.27251 12.5679 7.67969 12.5143 6.52101C12.5036 6.23358 12.4393 6.13478 12.075 5.91921C11.8393 5.7755 11.5822 5.65873 11.4965 5.65873C11.4215 5.65873 11.3572 5.63179 11.3572 5.60484C11.3572 5.53299 11.5929 5.1737 11.6679 5.11981C12.1072 4.82341 12.3 3.44915 11.9572 3.01802C11.5715 2.524 10.4679 2.33538 9.73932 2.64975C9.28932 2.84736 8.03574 3.84436 8.03574 4.01502C8.03574 4.0779 7.99289 4.13179 7.93932 4.13179C7.88574 4.13179 7.81074 4.24856 7.76789 4.39227C7.69289 4.67071 7.44646 4.81442 7.3286 4.65275C7.28574 4.58987 7.29646 4.58089 7.37146 4.61682C7.44646 4.65275 7.50003 4.6258 7.50003 4.55394C7.50003 4.4282 7.21074 4.14975 6.70717 3.79945C6.45003 3.61981 6.4286 3.54796 6.4286 2.93718C6.4286 2.19167 6.70717 1.7785 7.20003 1.81442C7.42503 1.83239 7.44646 1.86832 7.43574 2.3264C7.41432 2.83838 7.54289 3.027 7.78932 2.85634C7.97146 2.73059 7.97146 2.15574 7.80003 2.15574C7.69289 2.15574 7.69289 2.13778 7.80003 2.0749C7.91789 2.02101 7.90717 1.9761 7.76789 1.85035C7.67146 1.76951 7.6286 1.70664 7.67146 1.70664C7.71432 1.70664 7.66074 1.6258 7.5536 1.527C7.31789 1.31143 6.88932 1.29347 6.55717 1.49107ZM11.3572 3.18868C11.7 3.44915 11.7107 3.73658 11.4536 4.57191C11.3786 4.81442 10.6715 5.43418 10.1357 5.73957C9.01074 6.36832 8.40003 6.40424 8.0786 5.85634C8.01432 5.74856 7.87503 5.5779 7.75717 5.47011C7.56432 5.29047 7.56432 5.28149 7.74646 5.30844C7.89646 5.33538 7.98217 5.24556 8.11074 4.94915C8.29289 4.48209 8.66789 3.97909 8.9786 3.73658C9.10717 3.64676 9.18217 3.52101 9.13932 3.46712C9.10717 3.41323 9.11789 3.39526 9.16074 3.44017C9.21432 3.4761 9.36432 3.42221 9.49289 3.31442C10.0286 2.89227 10.8857 2.82939 11.3572 3.18868ZM6.73932 4.46412C6.86789 4.55394 6.99646 4.78748 7.0286 4.98508C7.06074 5.18269 7.1036 5.39826 7.11432 5.46113C7.16789 5.71263 7.96074 6.61083 8.26074 6.75454C8.44289 6.84436 8.56074 6.95215 8.51789 6.99706C8.48574 7.05095 8.51789 7.11382 8.59289 7.15873C8.66789 7.19466 8.79646 7.32939 8.88217 7.45514C8.96789 7.58089 9.08574 7.75155 9.15003 7.84137C9.30003 8.04796 9.06432 8.19167 8.6786 8.11083C7.65003 7.91323 6.53574 6.75454 6.86789 6.23358C7.06074 5.9282 6.88932 5.81143 6.45003 5.93718C6.18217 6.00903 6.02146 6.00903 5.79646 5.9282C5.49646 5.82939 5.10003 5.33538 5.20717 5.19167C5.23931 5.15574 5.28217 5.02999 5.3036 4.92221C5.43217 4.39227 6.24646 4.13179 6.73932 4.46412ZM11.4643 6.15275C12.1393 6.44017 12.2143 6.88927 11.6786 7.32041C11.1429 7.75155 10.0607 7.70664 9.43932 7.22161C9.30003 7.10484 9.13932 7.03299 9.09646 7.05993C9.0536 7.0779 8.9786 7.05095 8.93574 6.99706C8.88217 6.9252 8.9036 6.91622 9.00003 6.96113C9.09646 7.00604 9.10717 6.97909 9.0536 6.83538C9.00003 6.69167 9.03217 6.64676 9.18217 6.64676C9.28932 6.64676 9.66432 6.50305 10.0179 6.34137C10.7357 5.99107 11.0143 5.95514 11.4643 6.15275ZM4.75717 7.64376C4.89646 7.69766 5.10003 7.8773 5.20717 8.04796C5.40003 8.34436 5.40003 8.35335 5.19646 8.47909C4.68217 8.80245 4.5536 8.82041 4.11431 8.65873C3.88931 8.5779 3.67503 8.50604 3.64289 8.51502C3.53574 8.524 3.55717 8.13778 3.66431 7.88628C3.8036 7.56293 4.26431 7.45514 4.75717 7.64376ZM7.4786 8.11083C7.8536 8.38029 7.88574 8.4252 7.75717 8.5779C7.67146 8.66772 7.57503 8.72161 7.54289 8.68568C7.44646 8.61382 6.85717 8.8743 6.85717 8.99107C6.85717 9.09885 7.37146 9.26951 7.50003 9.20664C7.76789 9.06293 8.47503 9.51203 8.41074 9.78149C8.38932 9.86233 8.36789 9.97011 8.36789 10.033C8.33574 10.3923 7.3286 10.4462 6.84646 10.1138C6.55717 9.90724 6.5036 9.89826 6.36432 10.015C6.25717 10.1048 6.23574 10.1947 6.30003 10.2935C6.41789 10.4731 6.2786 11.1647 6.11789 11.2096C6.0536 11.2276 6.02146 11.2725 6.0536 11.3084C6.15003 11.4432 5.3036 11.3084 5.11074 11.1557C4.9286 11.021 4.91789 10.9222 4.97146 10.4372C5.03574 9.9252 5.02503 9.88029 4.83217 9.88029C4.71431 9.88029 4.59646 9.96113 4.5536 10.051C4.52146 10.1498 4.28574 10.2935 4.00717 10.3833C3.53574 10.536 3.52503 10.536 3.26789 10.3294C2.70003 9.88029 3.17146 9.35933 4.26431 9.20664C4.66074 9.15275 4.71431 9.16173 4.71431 9.32341C4.71431 9.56592 5.03574 9.77251 5.51789 9.83538C6.41789 9.96113 6.8786 9.14376 6.21432 8.62281L5.88217 8.36233L6.1286 8.1737C6.37503 7.9761 6.70717 7.83239 6.93217 7.82341C6.99646 7.81442 7.24289 7.94915 7.4786 8.11083ZM5.98932 9.01802C6.08574 9.10784 6.06432 9.17969 5.92503 9.33239C5.74289 9.51203 5.72146 9.52101 5.49646 9.38628C5.35717 9.30544 5.25003 9.18867 5.25003 9.11682C5.25003 8.89227 5.79646 8.82041 5.98932 9.01802ZM6.37503 12.7995C6.66432 12.8713 6.92146 12.9072 6.96432 12.8893C7.00717 12.8713 7.11432 12.9342 7.22146 13.033C7.33932 13.1498 7.4786 13.1947 7.58574 13.1587C7.68217 13.1318 7.72503 13.1318 7.69289 13.1677C7.65003 13.2036 7.73574 13.3114 7.88574 13.4012C8.03574 13.5001 8.13217 13.5989 8.11074 13.6168C7.95003 13.7605 5.03574 12.9342 5.03574 12.7456C5.03574 12.6198 5.79646 12.6468 6.37503 12.7995Z" fill="black"/>
<path d="M5.8931 4.98448C5.72168 5.16412 5.82882 5.38867 6.10739 5.38867C6.35382 5.38867 6.40739 5.11023 6.17168 4.94855C6.06453 4.86771 6.00025 4.8767 5.8931 4.98448Z" fill="black"/>
</svg>
