<svg width="15" height="15" viewBox="0 0 15 15" fill="none" xmlns="http://www.w3.org/2000/svg">
<path d="M2.0136 1.65218C2.06497 1.75039 2.03414 1.76825 1.89031 1.72361C1.77729 1.68789 1.7362 1.69682 1.77729 1.75932C1.81839 1.81289 1.96223 1.88432 2.11634 1.91111C2.35264 1.96468 2.92798 2.34861 3.22592 2.66111C3.28757 2.72361 3.4314 2.85753 3.53414 2.94682C3.64716 3.04503 3.69853 3.12539 3.64716 3.12539C3.60606 3.12539 3.63688 3.19682 3.71908 3.27718C3.89373 3.45575 3.96565 3.63432 4.04784 4.11646C4.09921 4.42003 4.06839 4.47361 3.65743 4.76825C2.91771 5.29504 2.60949 6.08075 2.80469 7.00932C2.84579 7.19682 2.93825 7.39325 3.01017 7.42896C3.07181 7.46468 3.13346 7.52718 3.13346 7.56289C3.13346 7.59861 3.17455 7.62539 3.21565 7.60754C3.26702 7.59861 3.27729 7.62539 3.24647 7.66111C3.10264 7.86646 3.78072 8.27718 4.14031 8.22361C4.19168 8.21468 4.20195 8.24146 4.17113 8.28611C4.10949 8.36646 4.78757 8.60754 4.90058 8.54504C4.95195 8.51825 5.06497 8.52718 5.15743 8.56289C5.32181 8.60754 5.28072 8.71468 4.82866 9.37539C4.54099 9.79504 4.31497 10.17 4.31497 10.2236C4.30469 10.4558 4.13003 10.5718 3.96565 10.4558C3.87318 10.3843 3.80127 10.3665 3.80127 10.4111C3.80127 10.4468 3.73962 10.42 3.67798 10.3397C3.44168 10.0718 2.27044 9.59861 2.13688 9.71468C2.04442 9.79504 2.12661 9.91111 2.45538 10.179C2.69168 10.3754 2.85606 10.5361 2.82524 10.5361C2.79442 10.5361 2.84579 10.6165 2.94853 10.7058C3.2362 10.9736 4.08894 12.4915 4.2225 12.9647C4.28414 13.1968 4.37661 13.3754 4.41771 13.3486C4.46908 13.3218 4.47935 13.3843 4.44853 13.4825C4.41771 13.5897 4.44853 13.6611 4.51017 13.6611C4.58209 13.6611 4.61291 13.6968 4.57181 13.7415C4.54099 13.795 4.60264 13.8754 4.71565 13.929C4.98277 14.045 5.06497 13.929 4.9725 13.5272C4.94168 13.3486 4.86976 13.2415 4.79784 13.2772C4.7362 13.304 4.72592 13.2861 4.76702 13.2325C4.83894 13.1254 4.28414 11.8665 4.06839 11.67C4.00675 11.6075 3.9451 11.5004 3.92455 11.429C3.90401 11.3665 3.80127 11.1968 3.68825 11.054C3.50332 10.8397 3.50332 10.804 3.64716 10.804C3.73962 10.804 3.78072 10.8486 3.7499 10.8933C3.71908 10.9468 3.72935 10.9825 3.79099 10.9825C4.02729 10.9825 5.37318 12.7683 5.39373 13.1254C5.40401 13.1522 5.46565 13.2683 5.54784 13.3933C5.61976 13.5183 5.6814 13.6254 5.67113 13.6343C5.58894 13.7415 5.6814 13.9379 5.84579 14.0183C6.21565 14.1879 6.33894 14.045 6.46223 13.3218C6.52387 12.9558 6.59579 12.6254 6.62661 12.6075C6.64716 12.5808 6.62661 12.4915 6.56497 12.4022C6.50332 12.2861 6.50332 12.2325 6.57524 12.2325C6.62661 12.2325 6.66771 12.2058 6.65743 12.1611C6.64716 12.1254 6.67798 11.8754 6.72935 11.6075C6.84236 10.9558 6.85264 10.9111 6.92455 10.4558C7.00675 9.95575 7.02729 9.94682 7.34579 10.1254C7.54099 10.2325 7.60264 10.3575 7.61291 10.6075C7.64373 11.2236 7.6951 11.92 7.75675 12.4558C7.78757 12.7504 7.82866 13.1522 7.84921 13.3575C7.90058 13.9022 8.00332 14.1254 8.19853 14.0897C8.39373 14.054 8.41428 13.7683 8.28072 13.0004C8.23962 12.7593 8.18825 12.0897 8.15743 11.5093C8.11634 10.5004 8.12661 10.4468 8.31154 10.4468C8.90743 10.4468 9.16428 10.7593 9.15401 11.4736C9.15401 11.5183 9.2362 11.6433 9.32866 11.7325C9.46223 11.8665 9.46223 11.8843 9.34921 11.8308C9.22592 11.7683 9.21565 11.7772 9.30812 11.8843C9.38003 11.9558 9.48277 12.2325 9.54442 12.5004C9.61634 12.7683 9.71908 13.0183 9.79099 13.054C9.88346 13.1075 9.88346 13.1254 9.78072 13.1254C9.7088 13.1254 9.67798 13.17 9.7088 13.2147C9.7499 13.2683 9.82182 13.2861 9.87319 13.2593C9.92455 13.2325 9.93483 13.2683 9.90401 13.3486C9.81154 13.554 10.0684 14.0361 10.243 13.9825C10.3252 13.9468 10.428 13.929 10.4793 13.929C10.5204 13.929 10.5102 13.7683 10.4588 13.5718C10.3972 13.3665 10.3047 13.2415 10.243 13.2772C10.1814 13.3129 10.1609 13.2772 10.202 13.1879C10.2328 13.1075 10.1506 12.7504 10.0067 12.3933C9.86291 12.0361 9.7088 11.5629 9.65743 11.3397C9.61634 11.1165 9.54442 10.8575 9.50332 10.7593C9.42113 10.5808 9.42113 10.5808 9.64716 10.7593C9.78072 10.8575 10.0273 10.929 10.2739 10.9379C10.4896 10.9379 10.6437 10.9647 10.6129 11.0004C10.5924 11.045 10.6848 11.0718 10.8287 11.0718C11.0033 11.0718 11.0958 11.1254 11.0958 11.2147C11.0958 11.295 11.1472 11.3218 11.2191 11.2861C11.291 11.2504 11.3013 11.2593 11.2602 11.3218C11.178 11.4468 11.404 12.2415 11.5067 12.1879C11.5581 12.1611 11.5684 12.2236 11.5376 12.3218C11.5067 12.42 11.5273 12.5004 11.5787 12.5004C11.63 12.5004 11.6814 12.5718 11.6917 12.6522C11.702 12.7415 11.7225 12.9111 11.7533 13.0361C11.7739 13.1611 11.8047 13.295 11.8047 13.3308C11.815 13.3754 11.8663 13.3754 11.9383 13.3397C12.0102 13.304 12.0204 13.3129 11.9793 13.3754C11.9383 13.4379 11.9793 13.6254 12.0821 13.795C12.38 14.3486 12.791 14.1165 12.5033 13.554C12.2978 13.1611 11.9691 12.295 11.9999 12.2058C12.0102 12.17 11.9793 12.1433 11.9383 12.1433C11.8869 12.1433 11.8458 12.0897 11.8458 12.0272C11.8458 11.9736 11.8047 11.7772 11.7739 11.6075L11.702 11.2861L12.5341 11.1254C13.3252 10.9647 13.6746 10.7683 13.4793 10.5808C13.4383 10.5361 13.4691 10.545 13.5513 10.5808C13.6643 10.6343 13.6848 10.6165 13.6335 10.5093C13.6026 10.42 13.6129 10.3575 13.6643 10.3575C13.9725 10.3575 13.3972 9.49146 12.6883 8.89325C12.4314 8.67896 12.3287 8.52718 12.4109 8.50932C12.4725 8.48254 12.5341 8.42896 12.5341 8.38432C12.5341 8.33075 12.6266 8.21468 12.7396 8.10754C12.9657 7.89325 13.017 7.72361 12.8218 7.82182C12.7499 7.86646 12.8321 7.76825 13.0067 7.61646C13.2739 7.38432 13.88 6.28611 14.2293 5.40218C14.3732 5.05396 14.3629 4.72361 14.2088 4.67003C14.0033 4.59861 13.2739 4.80396 13.0581 4.99146C12.9657 5.07182 12.8218 5.12539 12.7602 5.10754C12.6883 5.08968 12.6369 5.10754 12.6369 5.15218C12.6369 5.19682 12.4725 5.30396 12.2773 5.39325C12.0821 5.49146 11.9177 5.58968 11.9177 5.63432C11.9177 5.67004 11.7328 5.77718 11.5067 5.88432C11.0752 6.08075 11.0444 6.07182 11.1883 5.82182C11.2807 5.67004 11.5067 5.01825 11.5787 4.68789C11.815 3.58968 11.8047 3.08968 11.5684 3.00932C11.404 2.95575 10.7876 3.17896 10.7876 3.30396C10.7876 3.34861 10.7259 3.39325 10.6437 3.39325C10.4383 3.39325 9.76017 3.93789 9.83209 4.04503C9.86291 4.09861 9.84236 4.10753 9.79099 4.08075C9.62661 3.99146 8.71223 4.91111 8.35264 5.51825C8.09579 5.95575 8.0136 6.03611 7.86976 5.96468C7.77729 5.92004 7.70538 5.91111 7.70538 5.93789C7.70538 6.04504 7.44853 5.76825 7.10949 5.30396C6.88346 5.00039 6.62661 4.77718 6.31839 4.63432C5.82524 4.40218 5.82524 4.40218 6.14373 3.75932C6.2362 3.58075 6.29784 3.40218 6.28757 3.36646C6.26702 3.32182 6.30812 3.31289 6.35949 3.34861C6.45195 3.39325 6.7088 3.10753 6.64716 3.02718C6.63688 3.00932 6.64716 3.00039 6.66771 3.00932C6.68825 3.01825 6.93483 2.84861 7.2225 2.63432C7.51017 2.42003 7.86976 2.21468 8.03414 2.18789C8.34236 2.12539 8.59921 1.83968 8.43483 1.74146C8.18825 1.61646 7.08894 1.95575 7.08894 2.16111C7.08894 2.21468 7.05812 2.24146 7.02729 2.21468C6.85264 2.05396 5.80469 3.32182 5.45538 4.11646C5.30127 4.48253 4.52044 4.46468 4.52044 4.09861C4.52044 3.78611 4.13003 2.85753 3.99647 2.85753C3.9451 2.85753 3.90401 2.79503 3.90401 2.72361C3.90401 2.50039 3.29784 1.98253 2.75332 1.75039C2.14716 1.48253 1.9314 1.45575 2.0136 1.65218ZM11.1472 4.02718C11.0547 4.67003 10.993 4.92896 10.8698 5.12539C10.8081 5.22361 10.767 5.33075 10.7773 5.35754C10.8389 5.50039 10.2533 6.62539 9.90401 7.04504C9.88346 7.06289 9.66771 6.92896 9.42113 6.75039C9.17455 6.57182 8.91771 6.42896 8.84579 6.42896C8.65058 6.42896 8.53757 6.05396 8.69168 5.91111C8.82524 5.80396 8.88688 5.60754 8.84579 5.42004C8.83551 5.37539 8.87661 5.36646 8.92798 5.39325C8.97935 5.42004 9.1951 5.25932 9.41086 5.03611C9.95538 4.46468 10.6335 3.89325 10.7978 3.85753C10.88 3.83968 10.9828 3.78611 11.0444 3.74146C11.1985 3.61646 11.2088 3.64325 11.1472 4.02718ZM6.25675 5.16111C7.4999 6.02718 7.13003 7.55396 5.56839 8.01825C4.59236 8.31289 3.24647 7.52718 3.25675 6.67896C3.25675 6.54504 3.22592 6.45575 3.17455 6.48254C3.12318 6.50932 3.12318 6.43789 3.17455 6.32182C3.22592 6.20575 3.29784 6.00932 3.32866 5.87539C3.56497 4.91111 5.30127 4.49146 6.25675 5.16111ZM13.6026 5.43789C13.5204 5.58968 13.428 5.79504 13.4074 5.90218C13.2841 6.43789 12.4622 7.71468 11.7122 8.51825C11.0855 9.18789 9.93483 9.96468 9.53414 9.98254C9.28757 10.0004 9.2362 9.95575 9.14373 9.64325C8.9999 9.18789 9.04099 8.67896 9.22592 8.61646C9.29784 8.58968 9.32866 8.53611 9.29784 8.48254C9.26702 8.43789 9.29784 8.39325 9.38003 8.39325C9.45195 8.39325 9.56497 8.30396 9.62661 8.18789C9.77045 7.91111 10.9725 6.80396 11.404 6.54504C11.5992 6.42896 12.2054 6.08075 12.7396 5.75932C13.2739 5.44682 13.7259 5.18789 13.7362 5.17896C13.7465 5.17896 13.6848 5.29504 13.6026 5.43789ZM8.85606 6.92896C9.5136 7.27718 9.53414 7.37539 9.03072 8.03611C8.57866 8.62539 8.54784 8.75932 8.6814 9.64325C8.74305 10.0361 8.74305 10.045 8.4451 10.045C8.18825 10.045 8.15743 10.0183 8.17798 9.82182C8.2499 9.36646 8.2499 8.92896 8.18825 8.87539C8.02387 8.73254 7.81839 8.95575 7.75675 9.32182L7.68483 9.72361L7.38688 9.58968C7.04784 9.43789 7.03757 9.42896 7.2225 8.96468C7.48962 8.26825 7.21223 8.04504 6.89373 8.69682L6.68825 9.09861L6.32866 8.82182C5.93825 8.51825 5.86634 8.39325 6.10264 8.39325C6.33894 8.39325 6.80127 8.02718 6.73962 7.88432C6.7088 7.81289 6.71908 7.77718 6.76017 7.80396C7.01702 7.93789 7.46908 7.24146 7.51017 6.63432L7.54099 6.27718L7.95195 6.47361C8.18825 6.58075 8.58894 6.78611 8.85606 6.92896ZM5.80469 9.01825C5.84579 9.07182 5.90743 9.08968 5.9588 9.06289C6.04099 9.01825 5.59921 10.0183 5.23962 10.679C5.12661 10.8843 5.03414 11.1343 5.03414 11.2415C5.03414 11.4915 4.85949 11.4468 4.65401 11.1433C4.4588 10.8754 4.53072 10.679 5.09579 9.85754C5.29099 9.58075 5.41428 9.31289 5.37318 9.25932C5.34236 9.20575 5.36291 9.19682 5.42455 9.23254C5.53757 9.28611 5.58894 9.17896 5.55812 8.99146C5.53757 8.89325 5.73277 8.91111 5.80469 9.01825ZM12.2259 9.11646C12.2259 9.17004 12.2978 9.18789 12.3903 9.16111C12.4725 9.13432 12.5136 9.14325 12.4828 9.19682C12.452 9.25039 12.4725 9.28611 12.5239 9.28611C12.5855 9.28611 12.6369 9.32182 12.6369 9.36646C12.6369 9.42004 12.7807 9.64325 12.9554 9.86646C13.243 10.2415 13.2636 10.295 13.1198 10.42C12.7191 10.7683 11.1369 10.8218 10.2533 10.5093L9.93483 10.3933L10.5513 10.0629C10.88 9.88432 11.3424 9.57182 11.5581 9.37539C11.9485 9.02718 12.2259 8.92004 12.2259 9.11646ZM6.53414 9.75039C6.62661 9.89325 6.64716 9.99146 6.59579 9.96468C6.4725 9.90218 6.40058 10.17 6.30812 10.8933C6.24647 11.4647 6.20538 11.7236 6.10264 12.4558C6.06154 12.7504 6.03072 13.045 6.03072 13.0986C6.02045 13.3397 5.87661 13.1968 5.70195 12.7861C5.59921 12.554 5.45538 12.2772 5.37318 12.1611C5.17798 11.8933 5.23962 11.6611 5.7636 10.4915C6.01017 9.94682 6.1951 9.47361 6.18483 9.43789C6.13346 9.26825 6.38003 9.50039 6.53414 9.75039Z" fill="black"/>
<path d="M3.833 5.7774C3.65834 5.83097 3.66862 6.20597 3.84327 6.33097C4.17204 6.57204 4.50081 6.0899 4.19259 5.82204C4.05903 5.70597 4.02821 5.70597 3.833 5.7774Z" fill="black"/>
<path d="M5.48627 6.01897C5.40408 6.30469 5.50682 6.42969 5.80476 6.42969C6.09243 6.42969 6.24654 6.12612 6.06161 5.93862C5.86641 5.73326 5.55819 5.7779 5.48627 6.01897Z" fill="black"/>
<path d="M4.14993 6.97377C4.03691 7.14342 4.58143 7.52734 4.93075 7.52734C5.28006 7.52734 5.75267 7.17913 5.67047 6.9827C5.62938 6.8577 5.23897 6.83092 5.23897 6.95592C5.23897 7.12556 4.81773 7.16127 4.6328 7.01842C4.41705 6.84877 4.25267 6.83984 4.14993 6.97377Z" fill="black"/>
</svg>
