<svg width="15" height="15" viewBox="0 0 15 15" fill="none" xmlns="http://www.w3.org/2000/svg">
<path d="M6.76367 1.37386C6.69788 1.42471 6.63209 1.81877 6.61893 2.26369C6.60578 2.88657 6.50051 3.25521 6.14525 3.97979C5.42157 5.41623 4.76367 6.96708 4.53999 7.72979C4.46104 7.98403 4.39525 8.00945 3.96104 7.94589C1.85578 7.64081 0.500513 10.4628 1.94788 12.1281C3.43472 13.8315 6.25051 13.6917 7.21104 11.8611L7.44788 11.4289L7.84262 11.9883C9.13209 13.7552 12.2768 13.4501 13.1847 11.4671C14.1058 9.47132 12.4742 7.32301 10.461 7.86962C9.75051 8.0603 9.75051 8.0603 8.73736 5.91199C8.59262 5.60691 7.89525 3.70013 7.89525 3.59843C7.89525 3.58572 8.18472 3.76369 8.52683 3.9925C9.76367 4.79335 11.1979 4.86962 12.3558 4.18318C12.8689 3.89081 12.7374 3.43318 11.961 2.73403C10.8689 1.76793 9.80315 1.5264 7.93472 1.8442C7.46104 1.92047 7.36893 1.90776 7.36893 1.7425C7.36893 1.50098 6.94788 1.24674 6.76367 1.37386ZM10.5268 2.47979C11.1321 2.78488 11.9742 3.4586 11.9742 3.63657C11.9742 3.96708 10.6189 4.25945 9.90841 4.08149C9.40841 3.95437 8.09262 3.19166 8.19788 3.10267C8.2242 3.07725 8.57946 3.11538 9.00051 3.19166C9.76367 3.31877 10.7637 3.29335 10.3953 3.15352C10.29 3.10267 9.68472 2.93742 9.05315 2.77216C8.40841 2.60691 7.89525 2.44166 7.89525 2.39081C7.89525 2.12386 9.94788 2.18742 10.5268 2.47979ZM7.61893 4.66623C7.85578 5.42894 8.30315 6.52216 8.61893 7.10691L9.18472 8.17471L8.64525 8.44165C8.34262 8.5942 7.96104 8.89928 7.8163 9.11538C7.52683 9.53488 7.52683 9.53488 7.44788 9.22979C7.40841 9.06454 7.15841 8.74674 6.90841 8.53064C6.4742 8.16199 6.14525 8.07301 5.42157 8.13657C5.15841 8.14928 5.13209 8.11115 5.21104 7.79335C5.36893 7.15776 6.40841 4.65352 6.75051 4.08149C6.93472 3.76369 7.0663 3.47132 7.02683 3.40776C6.98736 3.35691 7.01367 3.30606 7.0663 3.30606C7.13209 3.30606 7.38209 3.91623 7.61893 4.66623ZM4.0663 8.50521C4.21104 8.5942 4.19788 8.67047 4.01367 8.95013C3.75051 9.3442 3.89525 9.44589 4.63209 9.38233C4.98736 9.35691 5.0663 9.29335 5.0663 9.03911C5.0663 8.78488 5.14525 8.72132 5.4742 8.68318C6.15841 8.60691 6.5663 8.83572 6.85578 9.48403C7.30315 10.4501 7.07946 11.2764 6.14525 12.1027C5.52683 12.6493 5.10578 12.7637 4.21104 12.6493C1.65841 12.3061 1.11893 9.2425 3.48736 8.50521C3.85578 8.3781 3.85578 8.3781 4.0663 8.50521ZM11.711 8.58149C13.8426 9.64928 12.4347 12.8781 10.0005 12.5095C7.9742 12.1917 7.30315 9.75098 9.02683 8.96284C9.53999 8.73403 9.73736 8.78488 9.4742 9.08996C9.17157 9.44589 9.40841 9.67471 9.89525 9.49674C10.8558 9.15352 10.9742 8.95013 10.3426 8.73403C10.2768 8.7086 10.2637 8.61962 10.3163 8.54335C10.4479 8.32725 11.2505 8.35267 11.711 8.58149Z" fill="black"/>
</svg>
