<svg width="15" height="15" viewBox="0 0 15 15" fill="none" xmlns="http://www.w3.org/2000/svg">
<path d="M5.20882 1.25714C4.91211 1.45411 4.99453 1.96926 5.34069 1.96926C5.83519 1.98441 6.74179 2.98441 6.9231 3.68138L7.03849 4.19653L6.01651 4.12078C4.69783 4.02987 4.00552 4.25714 2.98354 5.09047C0.80772 6.87835 0.80772 10.1662 2.96706 12.0905C4.64838 13.6056 7.74728 13.9844 10.1704 12.9541C14.9671 10.939 13.9451 3.69653 8.88464 3.96926L7.91212 4.01472L7.66486 3.25714C7.15387 1.65108 6.01651 0.711685 5.20882 1.25714ZM9.85717 4.72684C12.8242 5.40866 13.566 9.43896 11.1099 11.5147C9.70882 12.6965 7.28574 13.1359 5.2253 12.5905C1.38464 11.5753 1.00552 5.96926 4.69783 4.84805C5.67036 4.56017 7.05497 4.78744 6.6264 5.18138C6.51102 5.28744 6.4286 5.42381 6.4286 5.48441C6.4286 5.68138 7.05497 5.62078 7.20332 5.40866C7.7308 4.63593 8.55497 4.42381 9.85717 4.72684Z" fill="black"/>
<path d="M10.6643 7.37802C10.5159 7.63559 10.7467 8.78711 10.961 8.78711C11.2577 8.78711 11.3566 8.45378 11.2247 7.87802C11.1258 7.39317 10.8291 7.12044 10.6643 7.37802Z" fill="black"/>
<path d="M10.0547 9.92387C9.93936 10.0451 9.9064 10.2572 9.95585 10.4087C10.0547 10.636 10.1042 10.636 10.4174 10.3481C10.5987 10.1663 10.6976 9.95417 10.6482 9.86326C10.4833 9.63599 10.302 9.65114 10.0547 9.92387Z" fill="black"/>
</svg>
