<svg width="15" height="15" viewBox="0 0 15 15" fill="none" xmlns="http://www.w3.org/2000/svg">
<path d="M7.38935 2.43692C5.5699 2.85879 3.97268 4.23379 3.16712 6.06192C2.66712 7.18692 2.68101 7.09317 2.77823 11.3275C2.80601 12.9682 3.02823 13.2807 4.18101 13.2807C4.62546 13.2807 5.15323 13.3588 5.36157 13.4369C6.51435 13.9369 8.58379 13.765 9.79212 13.0775C12.1532 11.7494 13.6532 8.34317 12.9727 5.81192C12.8616 5.34317 12.8477 4.98379 12.931 4.60879C13.2227 3.43692 12.556 2.65567 11.4588 2.87442C11.1255 2.95254 10.7088 2.89004 10.1671 2.67129C9.11157 2.24942 8.4449 2.20254 7.38935 2.43692ZM9.36157 3.03067C9.66712 3.09317 10.1255 3.28067 10.3755 3.45254C10.7782 3.73379 10.9171 3.76504 11.1949 3.60879C12.0838 3.15567 12.5699 3.51504 12.3477 4.45254C12.2366 4.90567 12.2366 5.21817 12.3616 5.68692C12.5977 6.56192 12.6116 6.85879 12.5005 7.82754C12.056 11.4057 8.6949 13.89 5.68101 12.8588C5.26435 12.7182 4.58379 12.5932 4.16712 12.5932L3.40323 12.5775L3.34768 11.3275C3.18101 7.01504 3.37546 6.17129 5.00046 4.48379C5.95879 3.46817 7.98657 2.62442 8.75046 2.90567C8.79212 2.92129 9.0699 2.98379 9.36157 3.03067Z" fill="black"/>
<path d="M5.22214 6.25C4.8888 6.70312 4.84714 7.03125 5.12492 7.03125C5.18047 7.03125 5.37492 6.8125 5.54158 6.54688C5.98603 5.85938 5.70825 5.60938 5.22214 6.25Z" fill="black"/>
<path d="M4.4025 8.23438C4.24972 8.39062 4.29138 9.21875 4.44416 9.21875C4.5275 9.21875 4.63861 9.0625 4.70805 8.85938C4.87472 8.34375 4.68027 7.92188 4.4025 8.23438Z" fill="black"/>
</svg>
