<svg width="15" height="15" viewBox="0 0 15 15" fill="none" xmlns="http://www.w3.org/2000/svg">
<path d="M11.2157 1.33671C10.7772 1.42421 9.76184 2.61171 9.72723 3.06171C9.71569 3.19921 9.658 3.47421 9.58877 3.67421C9.43877 4.08671 9.04646 4.08671 7.708 3.63671C5.56184 2.92421 5.03107 2.76171 4.93877 2.82421C4.89261 2.86171 4.84646 2.83671 4.84646 2.78671C4.84646 2.66171 4.58107 2.57421 2.76953 2.03671C1.28107 1.59921 0.231073 1.66171 1.0503 2.12421C1.33877 2.29921 4.48877 3.46171 5.13492 3.63671C5.81569 3.82421 5.88492 3.93671 5.8503 4.76171C5.81569 5.47421 5.79261 5.51171 5.16953 6.14921C3.54261 7.82421 3.38107 9.78671 4.71953 11.9117C6.18492 14.2367 7.24646 14.2992 8.20415 12.1242C8.52723 11.3867 8.81569 9.93671 8.72338 9.47421C8.68877 9.31171 8.64261 8.94921 8.608 8.67421C8.50415 7.77421 7.6503 6.32421 6.92338 5.84921C6.70415 5.69921 6.48492 5.51171 6.43877 5.44921C6.31184 5.26171 6.32338 4.12421 6.4503 4.12421C6.49646 4.12421 7.21184 4.36171 8.04261 4.66171C9.31184 5.12421 9.71569 5.33671 10.7426 6.11171C11.5618 6.71171 12.0234 6.98671 12.1503 6.92421C12.5426 6.76171 12.2772 6.31171 11.4465 5.69921C11.1811 5.49921 10.9618 5.32421 10.9618 5.31171C10.9618 5.29921 11.5272 5.32421 12.208 5.34921C13.3388 5.39921 13.4772 5.38671 13.5465 5.18671C13.6734 4.81171 13.4311 4.69921 12.4849 4.67421C11.3195 4.64921 10.1542 4.49921 10.1542 4.36171C10.1542 4.29921 10.2695 4.24921 10.3965 4.24921C11.5388 4.24921 12.9234 2.86171 12.9234 1.69921C12.9234 1.29921 12.1734 1.13671 11.2157 1.33671ZM12.1849 2.27421C12.1042 2.72421 11.4811 3.49921 11.1926 3.49921C11.0888 3.49921 10.9503 3.56171 10.8695 3.64921C10.5811 3.96171 10.7426 3.56171 11.0426 3.22421C11.7003 2.47421 11.3888 2.23671 10.708 2.96171C10.1657 3.53671 10.0388 3.44921 10.5234 2.82421C10.9734 2.22421 11.4926 1.87421 11.9311 1.87421C12.2426 1.87421 12.2542 1.89921 12.1849 2.27421ZM7.14261 6.93671C8.34261 8.34921 8.23877 9.04921 6.42723 11.7242C5.91953 12.4617 5.89646 12.4742 5.57338 12.0867C5.008 11.4117 5.01953 11.2867 5.7003 11.1992C6.10415 11.1367 6.34646 11.0367 6.39261 10.9117C6.4503 10.7617 6.34646 10.7367 5.71184 10.7617C4.858 10.8117 4.74261 10.7367 4.53492 9.96171C4.26953 9.02421 4.30415 8.92421 4.93877 8.93671C5.74646 8.96171 7.29261 8.31171 7.44261 7.89921C7.51184 7.68671 7.31569 7.72421 6.28877 8.12421C5.74646 8.33671 4.5003 8.53671 4.5003 8.41171C4.5003 8.07421 4.82338 7.76171 5.26184 7.68671C6.06953 7.56171 6.93492 6.99921 6.32338 6.99921C6.17338 6.99921 5.8503 7.08671 5.59646 7.17421C4.99646 7.39921 4.93877 7.22421 5.42338 6.68671C6.058 5.97421 6.36953 6.02421 7.14261 6.93671ZM7.90415 11.2117C7.52338 12.5117 6.79646 13.3492 6.38107 12.9742C6.26569 12.8742 6.358 12.6742 6.7503 12.0617C7.03877 11.6367 7.26953 11.2117 7.26953 11.1367C7.26953 11.0617 7.30415 10.9992 7.36184 10.9992C7.408 10.9992 7.56953 10.7742 7.73107 10.4992C8.1003 9.83671 8.19261 10.2117 7.90415 11.2117Z" fill="black"/>
</svg>
