<svg width="15" height="15" viewBox="0 0 15 15" fill="none" xmlns="http://www.w3.org/2000/svg">
<path d="M8.40814 1.62244C8.24147 1.69062 7.9839 1.8679 7.83238 2.0179C7.60511 2.23608 7.46875 2.26335 7.0445 2.18153C6.75662 2.12699 6.21117 2.12699 5.81723 2.19517C5.16572 2.30426 5.07481 2.29062 4.75662 1.97699C3.89299 1.13153 2.5445 2.19517 3.24147 3.17699C3.43844 3.43608 3.43844 3.58608 3.22632 4.29517C3.0445 4.93608 3.02935 5.26335 3.15056 5.79517C3.30208 6.44972 3.28693 6.49062 2.86269 6.89972C1.89299 7.79972 1.21117 10.3497 1.43844 12.1224C1.60511 13.4179 1.4839 13.377 4.74147 13.3906C6.30208 13.3906 7.63541 13.3634 7.68087 13.3088C7.74147 13.2679 7.80208 12.8861 7.84753 12.477C7.90814 11.727 7.90814 11.727 7.4839 11.727C7.24147 11.7134 6.87784 11.6315 6.68087 11.5361C6.36269 11.3724 6.45359 11.3588 7.46875 11.427C8.12026 11.4543 8.81723 11.427 9.08996 11.3315L9.58996 11.1815L9.4839 12.2724C9.39299 13.2134 9.40814 13.3634 9.60511 13.3634C9.74147 13.3634 9.87784 13.227 9.92329 13.0497C10.09 12.4361 10.2718 11.2497 10.2112 11.1543C10.1657 11.0997 10.2566 10.8952 10.3778 10.7179C10.59 10.4315 10.6051 10.2952 10.4687 9.91335C10.3475 9.58608 10.3324 9.34062 10.4384 9.12244C10.7718 8.41335 11.1051 6.49062 11.3778 3.70881C11.5142 2.29062 11.5142 1.8679 11.3627 1.70426C11.0748 1.39062 10.9081 1.59517 10.9081 2.24972C10.9081 2.57699 10.8324 3.29972 10.7566 3.84517C10.59 4.89517 10.499 5.63153 10.4687 6.02699C10.4384 6.55881 9.89299 5.78153 9.80208 5.07244C9.75662 4.69062 9.60511 4.18608 9.46875 3.95426C9.24147 3.55881 9.24147 3.50426 9.45359 3.28608C10.2869 2.4679 9.49905 1.22699 8.40814 1.62244ZM9.15056 2.35881C9.40814 2.72699 8.92329 3.09517 8.49905 2.83608C8.21117 2.65881 8.21117 2.6179 8.42329 2.33153C8.68087 2.00426 8.90814 2.00426 9.15056 2.35881ZM4.40814 2.39972C4.62026 2.63153 4.21117 3.05426 3.86269 2.95881C3.62026 2.87699 3.58996 2.42699 3.81723 2.30426C4.08996 2.14062 4.18087 2.15426 4.40814 2.39972ZM5.27178 4.40426C5.30208 4.54062 5.21117 4.67699 5.07481 4.7179C4.75662 4.84062 4.65056 4.7179 4.77178 4.36335C4.89299 4.03608 5.19602 4.06335 5.27178 4.40426ZM7.66572 4.58153C7.57481 4.81335 7.5445 4.81335 7.30208 4.58153C7.07481 4.37699 7.07481 4.33608 7.27178 4.22699C7.55966 4.06335 7.80208 4.2679 7.66572 4.58153ZM7.08996 5.12699C7.78693 5.83608 7.34753 6.95426 6.34753 6.95426C5.15056 6.95426 4.5445 6.16335 5.10511 5.3179C5.58996 4.5679 6.45359 4.48608 7.08996 5.12699ZM10.1203 8.14062C9.90814 8.86335 9.72632 9.13608 9.46875 9.13608C8.78693 9.13608 9.5142 7.75881 10.2566 7.63608C10.2718 7.63608 10.2112 7.8679 10.1203 8.14062ZM6.58996 8.3179C6.80208 8.3179 7.25662 8.19517 7.57481 8.04517C8.60511 7.5679 8.16572 8.44062 7.07481 9.04062C6.55966 9.34062 5.80208 9.08153 5.30208 8.45426C4.84753 7.88153 4.93844 7.77244 5.60511 8.05881C5.92329 8.19517 6.37784 8.3179 6.58996 8.3179Z" fill="black"/>
<path d="M5.80279 5.39997C5.75734 5.5227 5.78764 5.74088 5.87855 5.86361C6.01491 6.06816 5.98461 6.1227 5.71188 6.20452C5.42401 6.28634 5.46946 6.31361 5.98461 6.40906C6.62098 6.51816 6.81794 6.49088 6.81794 6.25906C6.81794 6.17725 6.75734 6.16361 6.66643 6.20452C6.3937 6.35452 6.21188 6.13634 6.3937 5.87725C6.60582 5.57725 6.45431 5.18179 6.13613 5.18179C5.99976 5.18179 5.8634 5.27725 5.80279 5.39997Z" fill="black"/>
<path d="M12.1652 1.90938C12.2106 2.05938 12.1803 2.14119 12.1046 2.10028C12.0136 2.05938 11.9682 2.34574 11.9833 2.79574C12.0288 3.85938 12.3167 3.6821 12.3924 2.55028C12.4379 1.89574 12.3924 1.63665 12.2712 1.63665C12.1652 1.63665 12.1197 1.74574 12.1652 1.90938Z" fill="black"/>
<path d="M13.0146 2.00426C12.9995 2.75426 12.8631 4.44517 12.7873 5.11335C12.7419 5.48153 12.6661 7.49972 12.6207 9.58608L12.5449 13.3906L12.8631 13.3361C13.1964 13.2952 13.1964 13.2679 13.2722 9.47699C13.3025 7.37699 13.3631 5.41335 13.3934 5.11335C13.4389 4.55426 13.5298 2.11335 13.4995 1.79972C13.4692 1.44517 13.0298 1.63608 13.0146 2.00426Z" fill="black"/>
<path d="M11.9391 4.71729C11.7724 4.94911 11.6815 6.4082 11.833 6.4082C11.9088 6.4082 12.0148 6.32638 12.0603 6.21729C12.1815 5.94457 12.0603 4.54002 11.9391 4.71729Z" fill="black"/>
<path d="M11.4987 7.7994C11.4987 7.89485 11.4684 8.0994 11.4229 8.2494C11.2108 9.1494 11.1957 9.51758 11.3926 9.62667C11.4987 9.68121 11.5442 9.68121 11.4835 9.61303C11.4229 9.55849 11.4229 9.43576 11.4987 9.35394C11.726 9.10849 11.8775 7.63576 11.6805 7.63576C11.5896 7.63576 11.5138 7.71758 11.4987 7.7994Z" fill="black"/>
<path d="M11.1044 10.7997C10.8771 11.0315 10.7862 12.8588 10.9832 12.9542C11.0741 12.9951 11.1801 12.586 11.2407 11.9315C11.3771 10.7042 11.3468 10.5269 11.1044 10.7997Z" fill="black"/>
</svg>
