<svg width="15" height="15" viewBox="0 0 15 15" fill="none" xmlns="http://www.w3.org/2000/svg">
<path d="M3.68198 1.58064C3.57289 1.62118 3.21834 1.89145 2.90471 2.17524C2.57743 2.47253 2.27743 2.70226 2.20925 2.70226C1.95016 2.70226 1.59562 3.60767 1.6638 4.06713C1.70471 4.3374 1.6638 4.68875 1.54107 4.90497C1.26834 5.44551 1.43198 6.14821 1.93653 6.52659C2.15471 6.68875 2.50925 6.98605 2.70016 7.17524C3.15016 7.62118 3.57289 7.8374 3.96834 7.8374C4.26834 7.8374 4.26834 7.8374 4.18653 9.93199C4.09107 12.2293 3.98198 12.6617 3.53198 12.4185C3.15016 12.2293 2.87743 12.459 3.13653 12.7698C3.35471 13.0266 4.00925 13.0401 4.2138 12.7833C4.3638 12.6077 4.41834 12.6212 4.65016 12.8509C5.07289 13.2698 5.85016 13.0266 5.8638 12.4725C5.8638 12.3374 5.78198 12.3374 5.52289 12.459C5.33198 12.5401 5.14107 12.5671 5.08653 12.5131C4.9638 12.3915 4.8138 8.91848 4.92289 8.99956C4.97743 9.02659 5.25016 9.35091 5.53653 9.72929C6.96834 11.5942 9.19107 11.3915 10.7183 9.25632L11.0183 8.85091L10.9774 9.99956C10.9502 10.6347 10.9229 11.3915 10.9229 11.6887C10.8956 12.432 10.732 12.6888 10.3774 12.4725C9.99562 12.2293 9.84562 12.5266 10.1865 12.8509C10.4047 13.0671 10.5138 13.0942 10.8138 12.986C11.0183 12.905 11.3047 12.8915 11.4683 12.959C11.8502 13.0942 12.3547 12.9996 12.5593 12.7563C12.7911 12.486 12.5865 12.2698 12.2593 12.4455C12.0956 12.5266 11.932 12.5536 11.8911 12.4996C11.8502 12.459 11.782 11.2563 11.7547 9.8374L11.7002 7.25632L12.0138 7.3374C12.8183 7.5401 13.7183 6.66172 13.5956 5.79686C13.5547 5.49956 13.582 5.2428 13.6365 5.20226C13.7047 5.16172 13.7865 4.89145 13.8411 4.60767C13.9502 3.98605 13.6774 3.36443 13.1593 3.02659C12.9683 2.90497 12.8183 2.7428 12.8183 2.66172C12.8183 2.58064 12.6547 2.3374 12.4502 2.1347C11.7411 1.40497 10.0502 1.75632 9.75016 2.70226C9.69562 2.85091 9.54562 2.97253 9.39562 2.97253C8.78198 2.97253 8.34562 4.48605 8.79562 5.08064C8.91834 5.25632 8.95925 5.49956 8.90471 5.85091C8.75471 6.82388 9.42289 7.40497 10.5002 7.25632C11.032 7.18875 11.0456 7.18875 11.0456 7.60767C11.032 9.26983 7.40471 9.91848 5.44107 8.60767C4.82743 8.20226 4.73198 7.70226 5.27743 7.70226C5.78198 7.70226 6.51834 7.2428 6.66834 6.85091C6.73653 6.67524 6.94107 6.43199 7.13198 6.32388C7.65016 5.97253 7.84107 5.36443 7.6638 4.60767C7.58198 4.26983 7.5138 3.75632 7.5138 3.48605C7.50016 2.6347 6.92743 2.02659 6.10925 2.02659C5.95925 2.02659 5.68653 1.90497 5.49562 1.75632C5.15471 1.48605 4.17289 1.40497 3.68198 1.58064ZM5.14107 2.21578C5.40016 2.43199 5.70016 2.5401 5.98653 2.5401C6.64107 2.51307 7.02289 2.95902 7.02289 3.75632C7.02289 4.10767 7.09107 4.51307 7.17289 4.66172C7.40471 5.06713 7.17289 5.70226 6.68198 5.98605C6.4638 6.12118 6.27289 6.31037 6.27289 6.40497C6.27289 6.66172 5.7138 7.1347 5.29107 7.22929C4.71834 7.37794 4.78653 6.82388 5.4138 6.18875C5.83653 5.75632 5.87743 5.67524 5.67289 5.59416C5.53653 5.5401 5.34562 5.60767 5.19562 5.72929C4.89562 5.99956 4.75925 5.86443 4.84107 5.36443C4.88198 5.17524 4.85471 4.98605 4.78653 4.93199C4.60925 4.8374 4.3638 5.29686 4.3638 5.70226C4.3638 5.99956 4.35016 5.99956 4.02289 5.60767C3.45016 4.91848 3.35471 5.41848 3.88653 6.2428C4.32289 6.89145 4.39107 7.43199 4.03653 7.43199C3.7638 7.43199 3.25925 7.01307 3.13653 6.67524C3.05471 6.48605 2.89107 6.35091 2.74107 6.35091C2.44107 6.35091 1.90925 5.75632 1.90925 5.41848C1.90925 5.29686 2.00471 5.05361 2.12743 4.89145C2.30471 4.62118 2.31834 4.51307 2.16834 4.17524C1.97743 3.70226 2.31834 3.06713 2.82289 2.99956C2.97289 2.97253 3.1638 2.81037 3.25925 2.62118C3.57289 1.93199 4.55471 1.72929 5.14107 2.21578ZM11.9593 2.41848C12.1365 2.49956 12.3138 2.72929 12.3547 2.90497C12.3956 3.08064 12.6411 3.35091 12.9002 3.49956C13.432 3.81037 13.5274 4.43199 13.1456 4.97253C12.982 5.21578 12.9683 5.36443 13.0774 5.67524C13.2683 6.22929 12.7229 6.90497 12.1229 6.86443C11.7411 6.8374 11.7274 6.82388 11.7274 6.05361C11.7274 5.44551 11.6865 5.26983 11.5229 5.26983C11.3865 5.26983 11.3183 5.40497 11.3183 5.70226C11.3183 6.09416 11.3047 6.10767 11.0729 5.90497C10.7183 5.58064 10.4456 5.60767 10.5547 5.94551C10.5956 6.09416 10.6774 6.3374 10.7183 6.48605C10.8002 6.72929 10.7456 6.75632 10.2411 6.75632C9.47743 6.75632 9.13653 6.29686 9.45016 5.68875C9.64107 5.32388 9.62743 5.26983 9.39562 5.05361C8.8638 4.58064 9.19107 3.37794 9.84562 3.37794C10.0093 3.37794 10.1593 3.22929 10.2547 2.97253C10.4865 2.28334 11.2502 2.0401 11.9593 2.41848ZM7.2138 9.72929C7.65016 9.81037 8.22289 9.8374 8.48198 9.79686C8.72743 9.75632 9.15016 9.68875 9.40925 9.6347C10.0365 9.52659 9.79107 9.85091 8.94562 10.2563C8.23653 10.6077 7.73198 10.6077 7.02289 10.2833C6.4638 10.0266 5.70016 9.32388 6.1638 9.49956C6.28653 9.5401 6.7638 9.64821 7.2138 9.72929Z" fill="black"/>
</svg>
