<svg width="15" height="15" viewBox="0 0 15 15" fill="none" xmlns="http://www.w3.org/2000/svg">
<path d="M4.3931 1.47905C4.28595 1.63108 4.18855 1.78311 4.18855 1.83378C4.18855 1.88446 3.79894 2.46216 3.31193 3.13108C2.83466 3.8 2.43531 4.38784 2.43531 4.44865C2.43531 4.60067 2.76647 4.76284 3.06842 4.76284C3.38985 4.76284 3.31193 4.93513 2.48401 5.98919C1.64634 7.03311 1.5879 7.14459 1.73401 7.32703C1.80219 7.40811 2.00673 7.48919 2.1918 7.48919C2.80543 7.51959 2.81518 7.51959 2.72751 7.69189C2.68855 7.78311 2.37686 8.16824 2.04569 8.56351C1.29569 9.44527 1.24699 9.53648 1.42232 9.76959C1.56842 9.98243 1.81193 10.0128 3.14634 10.023L4.00349 10.0331L3.98401 10.7122C3.96453 11.2797 3.85738 11.898 3.75024 12.0399C3.73076 12.0601 3.5944 12.0905 3.44829 12.1108C3.29245 12.1412 3.09764 12.1716 3.01972 12.1919C2.9418 12.2122 2.61063 12.2831 2.2892 12.3541C1.5879 12.5162 1.36388 12.6277 1.36388 12.8203C1.36388 13.1446 1.67556 13.1345 3.24375 12.7899C4.70479 12.4655 4.96777 12.4453 6.86712 12.4149C8.73725 12.3845 10.3639 12.5061 10.997 12.7189C11.1041 12.7493 11.3184 12.8 11.4645 12.8304C11.6204 12.8608 11.9223 12.952 12.1366 13.0331C12.6139 13.2257 12.9937 13.1851 13.0327 12.9622C13.0814 12.6885 12.8184 12.5061 12.1853 12.3642C11.4743 12.2122 11.5327 12.2831 11.445 11.3709L11.3769 10.6412L12.01 10.6513C13.0132 10.6716 13.1204 10.4385 12.4191 9.70878C12.1756 9.4554 11.9808 9.2223 11.9808 9.19189C11.9808 9.16148 12.234 9.14121 12.5457 9.15135C13.4808 9.17162 13.5684 8.96892 12.9256 8.22905C12.5262 7.77297 12.0782 7.14459 12.0782 7.06351C12.0782 7.03311 12.1366 7.01284 12.2048 7.02297C12.9937 7.05338 13.1983 6.74932 12.721 6.2223C12.2827 5.73581 11.7567 4.96554 11.8541 4.9554C12.7697 4.87432 12.8379 4.55 12.1269 3.74932C11.9515 3.55676 11.5912 3.07027 11.3087 2.68513C11.036 2.28986 10.7632 1.91486 10.7048 1.84392C10.5392 1.63108 10.2567 1.71216 10.0424 2.04662C9.73076 2.55338 9.5457 2.82703 8.92232 3.68851C8.2892 4.55 8.26972 4.76284 8.82492 4.83378C9.28271 4.90473 9.27297 4.98581 8.61063 5.71554C7.83141 6.58716 7.82167 6.72905 8.51323 6.95203L8.78596 7.05338L8.36712 7.59054C7.50998 8.675 7.52946 8.91824 8.44505 8.91824C8.97102 8.91824 8.97102 8.91824 8.31842 9.69865C7.5392 10.6209 7.59764 10.6818 9.18531 10.6412L9.7405 10.6311V11.2291V11.8372L7.72427 11.7865C6.60414 11.7561 5.68855 11.7257 5.68855 11.7155C5.67881 11.7155 5.63985 11.3608 5.60089 10.9453C5.56193 10.5297 5.51323 10.1547 5.49375 10.1243C5.47427 10.0939 5.73725 10.0534 6.06842 10.0432C7.5392 9.99257 7.96777 9.87094 7.98725 9.50608C7.98725 9.46554 7.61712 9.00946 7.16907 8.49257L6.35089 7.55L6.94505 7.44865C7.82167 7.29662 7.82167 7.08378 6.96453 6.12094C6.47751 5.57365 5.98076 4.88446 6.05868 4.85405C6.07816 4.85405 6.25349 4.83378 6.46777 4.80338C7.11063 4.73243 7.28596 4.43851 6.90608 4.02297C6.56518 3.64797 5.31842 1.89459 5.16258 1.57027C4.96777 1.16486 4.65608 1.12432 4.3931 1.47905ZM4.87037 2.28986C4.87037 2.37094 4.91907 2.43176 4.96777 2.43176C5.02621 2.43176 5.06518 2.49257 5.06518 2.55338C5.06518 2.62432 5.17232 2.81689 5.30868 2.98919C6.24375 4.16486 6.26323 4.25608 5.58141 4.25608C5.22102 4.25608 5.16258 4.28648 5.16258 4.46892C5.16258 4.71216 5.81518 5.74594 6.37037 6.38446L6.76972 6.84054L6.0879 6.89121C5.59115 6.93175 5.39634 6.98243 5.37686 7.09392C5.35738 7.24594 6.53596 8.88784 6.7892 9.05C6.85738 9.09054 6.91583 9.17162 6.91583 9.21216C6.91583 9.30338 5.69829 9.37432 4.82167 9.33378C4.66582 9.33378 4.33466 9.32365 4.09115 9.33378C3.84764 9.33378 3.36063 9.33378 2.9905 9.33378L2.3379 9.32365L3.16582 8.25946C4.15933 6.98243 4.16907 6.86081 3.21453 6.91148C2.78595 6.93175 2.57167 6.90135 2.61063 6.84054C2.63985 6.77973 2.93206 6.39459 3.25349 5.97905C4.48076 4.39797 4.57816 4.06351 3.77946 4.22567C3.52621 4.27635 3.30219 4.08378 3.47751 3.96216C3.66258 3.8304 4.45154 2.675 4.56842 2.36081C4.69505 2.03649 4.87037 1.99594 4.87037 2.28986ZM10.695 2.90811C10.7632 3.07027 11.0067 3.41486 11.2502 3.69865C11.7762 4.31689 11.786 4.33716 11.3282 4.3777C11.0652 4.39797 10.9483 4.45878 10.9288 4.59054C10.8996 4.76284 11.484 5.79662 11.6886 5.92838C11.747 5.95878 11.8249 6.07027 11.8834 6.17162C11.9613 6.34392 11.9321 6.35405 11.5619 6.34392C11.1918 6.33378 11.1528 6.35405 11.1236 6.58716C11.1041 6.73919 11.1821 6.95203 11.2989 7.08378C11.4061 7.21554 11.4937 7.35743 11.4937 7.38784C11.4937 7.42838 11.6593 7.65135 11.8736 7.87432C12.0782 8.10743 12.2243 8.3304 12.195 8.36081C12.1658 8.39121 12.195 8.41148 12.2535 8.41148C12.3217 8.41148 12.3704 8.46216 12.3704 8.52297C12.3704 8.57365 12.2924 8.61419 12.2048 8.60405C12.1074 8.59392 11.7957 8.59392 11.523 8.60405C10.8509 8.61419 10.8411 8.82703 11.4743 9.51621L11.9418 10.023H10.4028C9.55544 10.023 8.86388 10.0027 8.86388 9.98243C8.86388 9.95203 9.06842 9.65811 9.31193 9.32365C9.90609 8.5027 9.86712 8.36081 9.06842 8.37094C8.61063 8.37094 8.48401 8.35067 8.59115 8.26959C8.80544 8.0973 9.40933 7.27635 9.57492 6.93175C9.76972 6.54662 9.68206 6.40473 9.23401 6.36419L8.88336 6.33378L9.39959 5.74594C9.94505 5.13784 10.2665 4.56013 10.1496 4.43851C10.1009 4.38784 9.8866 4.3473 9.66258 4.33716C9.43855 4.32703 9.25349 4.30676 9.25349 4.28648C9.25349 4.2054 10.4515 2.63446 10.51 2.63446C10.5392 2.63446 10.6269 2.75608 10.695 2.90811ZM4.94829 10.9757L4.98725 11.8574H4.72427C4.47102 11.8574 4.46128 11.8473 4.51972 11.3709C4.55868 11.1074 4.5879 10.702 4.59764 10.4588C4.60738 10.1243 4.64634 10.0331 4.76323 10.0534C4.88011 10.0736 4.91907 10.2763 4.94829 10.9757ZM10.773 10.8946C10.9386 12.0399 10.9386 12.0804 10.7048 12.0399C10.4418 11.9993 10.3347 11.6243 10.4028 11.0162C10.4515 10.6007 10.7145 10.5095 10.773 10.8946Z" fill="black"/>
</svg>
