<svg width="15" height="15" viewBox="0 0 15 15" fill="none" xmlns="http://www.w3.org/2000/svg">
<path d="M5.95201 0.478328C5.41007 0.640748 4.83911 1.16623 4.83911 1.51017C4.83911 1.57705 4.69395 1.62482 4.5004 1.62482C3.73588 1.62482 3.19395 2.1503 3.19395 2.87642C3.19395 3.28725 3.16491 3.34457 2.99072 3.34457C2.50685 3.34457 1.93588 3.92737 1.93588 4.41463C1.94556 4.52928 2.02298 4.78725 2.11975 4.96877C2.29395 5.28406 2.29395 5.30317 2.11007 5.65667C1.9262 6.00062 1.9262 6.21081 2.09072 6.79361C2.15846 7.02291 2.8262 7.45285 3.1262 7.45285C3.31007 7.45285 3.4262 7.52928 3.52298 7.71081C3.91007 8.44648 4.85846 8.76177 5.47782 8.36049C5.68104 8.22674 5.71007 8.23629 5.80685 8.39871C5.90362 8.58979 6.03911 8.65667 6.50362 8.73311C6.91007 8.79998 6.98749 8.87642 6.91975 9.16304C6.85201 9.41145 6.79395 10.1662 6.76491 11.2267L6.74556 11.7904L6.6004 11.4656C6.52298 11.2841 6.39717 10.9974 6.31975 10.8255C6.25201 10.663 6.19395 10.4815 6.19395 10.4242C6.19395 10.2044 5.14878 9.2968 4.6262 9.04839C3.76491 8.65667 2.25524 8.51336 1.3262 8.74266C1.04556 8.81909 0.968139 9.18215 1.16169 9.53565C1.21007 9.62164 1.3262 9.87005 1.4133 10.0802C1.86814 11.1025 2.89395 12.0293 3.85201 12.2681C4.3262 12.3923 4.99395 12.3923 5.9133 12.2777C6.5133 12.2013 6.58104 12.2681 6.7262 13.1089C6.82298 13.7108 7.06491 13.6248 7.46169 12.8509C7.73266 12.3255 7.84878 12.1917 7.99395 12.2204C8.1004 12.2395 8.69072 12.2586 9.31007 12.2586C10.3939 12.2586 10.4617 12.249 11.081 11.9337C12.2423 11.3605 13.0746 10.4242 13.5585 9.14393C13.8681 8.34139 13.8004 8.30317 12.1552 8.35094C10.452 8.39871 9.64878 8.68533 8.73911 9.55476C8.3133 9.95604 7.64556 11.179 7.64556 11.5707C7.63588 11.7713 7.35524 12.2299 7.22943 12.2299C7.21007 12.2299 7.2004 12.1344 7.21007 12.0197C7.22943 11.8955 7.26814 11.3223 7.30685 10.749C7.39395 9.24903 7.58749 8.50381 7.86814 8.50381C7.93588 8.50381 8.1004 8.33183 8.2262 8.12164C8.39072 7.87323 8.51653 7.75858 8.6133 7.7968C9.22298 8.0261 9.88104 7.94011 10.2101 7.58661C10.3939 7.39553 10.4714 7.36686 10.6746 7.4433C11.0327 7.57705 11.5552 7.40508 11.952 7.01336C12.3681 6.61209 12.4552 6.2968 12.3101 5.76177C12.2036 5.39871 12.2133 5.29361 12.3875 4.97833C12.6198 4.51018 12.5133 3.96559 12.1359 3.80317C11.9327 3.70763 11.8939 3.64075 11.9327 3.40189C12.0391 2.69489 11.7391 2.23629 11.052 2.06431C10.7133 1.97833 10.5875 1.89234 10.5681 1.74903C10.5101 1.34775 9.76491 0.936926 9.23266 1.01336C9.10685 1.03247 8.94233 0.94648 8.80685 0.812722C8.53588 0.526098 7.81975 0.478328 7.47136 0.717181C7.28749 0.850939 7.23911 0.850939 7.01653 0.707627C6.71653 0.516544 6.20362 0.401894 5.95201 0.478328ZM6.62943 1.08979C6.74556 1.11846 6.91007 1.27132 6.99717 1.43374C7.21007 1.77769 7.33588 1.7968 7.4133 1.49107C7.54878 0.936926 8.48749 0.956035 8.65201 1.51017C8.74878 1.84457 8.84556 1.88279 9.05846 1.6726C9.47459 1.26177 10.2294 1.74903 10.1327 2.36049C10.0649 2.7331 10.181 2.82865 10.452 2.64712C10.7327 2.44648 11.2359 2.57068 11.4101 2.88597C11.5746 3.1726 11.4101 3.72674 11.1585 3.72674C10.9068 3.72674 11.0714 4.06113 11.323 4.07068C11.981 4.08024 12.2133 4.59616 11.7585 5.00699C11.4681 5.27451 11.4681 5.29361 11.7198 5.62801C12.2423 6.33502 11.4294 7.14712 10.5585 6.78406C10.2488 6.65986 10.2198 6.66941 10.123 6.83183C9.69717 7.55795 8.9133 7.63438 8.53588 6.97514C8.20685 6.41145 8.0133 6.47833 7.99395 7.16623C7.95524 8.24584 6.56169 8.68533 6.11653 7.75858C5.92298 7.34776 5.7004 7.27132 5.56491 7.5675C5.43911 7.85412 4.88749 8.03565 4.51975 7.9019C4.2004 7.7968 3.85201 7.29043 3.91975 7.06113C3.98749 6.8796 3.7262 6.63119 3.62943 6.78406C3.6004 6.83183 3.4262 6.8796 3.24233 6.8796C2.54556 6.8796 2.28427 5.93374 2.87459 5.50381L3.1262 5.31272L2.86491 5.11209C2.23588 4.61527 2.44878 3.95603 3.29072 3.85094C3.73588 3.79361 3.85201 3.63119 3.70685 3.31591C3.55201 2.97196 3.76491 2.49425 4.17136 2.26495C4.49072 2.08342 4.55846 2.07387 4.9262 2.19807C5.39072 2.34139 5.64233 2.22674 5.42943 1.96877C5.25524 1.76814 5.55524 1.18533 5.88427 1.06113C6.13588 0.975143 6.23266 0.975143 6.62943 1.08979ZM13.0649 8.89553C13.0649 9.10572 12.3778 10.2618 12.0681 10.5866C11.623 11.0452 10.8681 11.5038 10.2488 11.6949C9.66814 11.8669 8.50685 11.8764 8.45846 11.7044C8.42943 11.5993 9.15524 11.0261 9.62943 10.7872C9.78427 10.7108 10.0068 10.5962 10.1133 10.5293C10.3552 10.3955 10.8778 10.1758 11.3617 10.0134C11.5649 9.94648 11.7585 9.83183 11.7778 9.76495C12.0294 9.12483 9.50362 10.1471 8.42943 11.1216L8.11007 11.4178L8.30362 11.0357C8.81653 10.0325 9.73588 9.26814 10.7907 8.97196C11.5068 8.78088 13.0649 8.72355 13.0649 8.89553ZM4.37459 9.53565C5.11007 9.88916 5.53588 10.2713 5.79717 10.8064C6.02943 11.2745 6.01975 11.2745 5.18749 10.7586C4.10362 10.0993 3.24233 9.70763 3.03911 9.78406C2.80685 9.8796 3.03911 10.0802 3.95846 10.5771C4.83911 11.0548 5.80685 11.6853 5.80685 11.7713C5.80685 11.886 4.59717 11.8573 4.08427 11.7331C3.13588 11.5038 2.59395 11.007 1.84878 9.71718C1.55846 9.1917 1.6262 9.15349 2.74878 9.1917C3.61975 9.22037 3.79395 9.25858 4.37459 9.53565Z" fill="black"/>
<path d="M8.12928 2.55171C7.80993 2.77146 7.74219 2.867 7.74219 3.17273C7.74219 3.51668 7.9938 3.52624 8.14864 3.2014C8.39057 2.66636 9.04864 2.85745 8.9809 3.44025C8.95186 3.65999 8.9809 3.6791 9.31961 3.65044C9.94864 3.59312 10.2486 4.03261 9.91961 4.52942C9.77445 4.74917 9.81316 5.06445 9.98735 5.06445C10.2099 5.06445 10.5486 4.54853 10.5486 4.19503C10.5486 3.74598 10.0744 3.15362 9.71638 3.15362C9.55186 3.15362 9.45509 3.07719 9.38735 2.92433C9.20348 2.42751 8.58412 2.24598 8.12928 2.55171Z" fill="black"/>
<path d="M6.35866 2.65722C6.1264 2.90562 6.15543 3.14448 6.41672 3.24957C6.58124 3.3069 6.66834 3.28779 6.80382 3.13492C7.17156 2.70499 6.73608 2.24639 6.35866 2.65722Z" fill="black"/>
<path d="M4.63599 3.2196C4.2876 3.42979 4.06502 3.83107 4.11341 4.1368C4.15212 4.31833 4.11341 4.39476 3.96825 4.44253C3.73599 4.51896 3.48438 4.95845 3.48438 5.28329C3.48438 5.62724 3.83276 5.99985 4.2005 6.07629C4.39405 6.10495 4.60696 6.23871 4.73276 6.40113C5.25534 7.10814 6.37792 6.71642 6.3876 5.82788C6.3876 5.69412 6.4747 5.48393 6.58115 5.35017C6.95857 4.87247 6.6876 4.08903 6.09728 3.96482C5.93276 3.92661 5.80696 3.84062 5.80696 3.75463C5.80696 3.55399 5.2747 3.05718 5.06179 3.05718C4.96502 3.05718 4.77147 3.13361 4.63599 3.2196ZM5.20696 3.64954C5.2747 3.71642 5.32308 3.9075 5.32308 4.07947C5.32308 4.38521 5.39083 4.44253 5.7005 4.39476C5.94244 4.3661 6.29083 4.6145 6.29083 4.81514C6.29083 4.92024 6.1747 5.10177 6.02954 5.21642C5.82631 5.36928 5.7876 5.45527 5.86502 5.55081C6.0005 5.72278 5.90373 6.1145 5.7005 6.23871C5.47792 6.37247 5.24567 6.25782 5.05212 5.92342C4.92631 5.70368 4.81986 5.6368 4.5876 5.6368C3.91986 5.6368 3.75534 5.03489 4.35534 4.72915C4.60696 4.60495 4.62631 4.54763 4.57792 4.25145C4.49083 3.74508 4.90696 3.35336 5.20696 3.64954Z" fill="black"/>
<path d="M7.27716 3.84189C7.19006 3.95654 7.12232 4.34826 7.15135 4.68266C7.17071 4.95017 7.59651 5.33234 7.95458 5.39922C8.46748 5.49476 8.99006 5.16992 8.99974 4.74954C8.99974 4.53935 8.96103 4.5489 8.44813 4.78775L8.02232 4.98839L7.79006 4.7782C7.5578 4.55845 7.54813 4.48202 7.71264 3.88966C7.76103 3.69858 7.432 3.66037 7.27716 3.84189Z" fill="black"/>
<path d="M10.5879 5.30335C10.5589 5.37978 10.5492 5.49443 10.5783 5.56131C10.5976 5.62819 10.5783 5.76195 10.5299 5.86704C10.4718 5.98169 10.4718 6.07723 10.5299 6.13456C10.6654 6.26832 11.0331 5.88615 11.0331 5.60908C11.0331 5.24602 10.6944 5.01673 10.5879 5.30335Z" fill="black"/>
<path d="M9.41653 5.80041C9.20363 5.87684 9.28105 6.21124 9.53266 6.32588C9.91976 6.49786 10.1714 6.22079 9.88105 5.93417C9.66814 5.72397 9.61976 5.71442 9.41653 5.80041Z" fill="black"/>
<path d="M6.92891 6.33593C6.67729 6.51746 6.75471 6.91874 7.04503 6.95695C7.4902 7.02383 7.74181 6.50791 7.36439 6.30727C7.12245 6.18307 7.13213 6.18307 6.92891 6.33593Z" fill="black"/>
</svg>
