<svg width="15" height="15" viewBox="0 0 15 15" fill="none" xmlns="http://www.w3.org/2000/svg">
<path d="M6.96442 0.63414C6.50289 0.72921 5.45393 1.23625 5.45393 1.36301C5.45393 1.40527 5.37002 1.53203 5.26512 1.64822C5.14974 1.76442 5.02386 1.99682 4.96093 2.16583C4.86652 2.45104 4.82456 2.47217 4.42596 2.45104C3.68121 2.38766 2.95743 2.8102 2.45393 3.59189C2.18121 4.01442 2.14974 4.16231 2.14974 4.95456C2.14974 5.5778 2.10778 5.86301 2.01337 5.8947C1.93995 5.91583 1.76163 6.16935 1.62526 6.45456C0.786102 8.10245 1.90848 9.63414 3.85953 9.51794C4.27911 9.49682 4.27911 9.49682 3.83855 10.5215C3.63925 10.9757 3.39799 11.7046 3.30358 12.1165C3.10428 12.9616 3.17771 12.8877 2.0868 13.1412C1.78261 13.2046 1.61477 13.5003 1.77212 13.6588C1.83505 13.7222 2.17072 13.7222 2.69519 13.6482C3.72317 13.5215 5.77911 13.5109 6.84904 13.6482C7.80358 13.7644 8.11827 13.6482 7.80358 13.2996C7.64624 13.1306 7.17421 13.0355 6.04135 12.9616L5.73715 12.9405L5.75813 12.1694C5.76862 11.7363 5.84205 11.2186 5.91547 11.0074C5.99939 10.7961 6.06233 10.5637 6.07282 10.5109C6.12526 10.0989 6.19869 10.0567 6.53435 10.1623C7.14275 10.3419 7.4889 10.363 7.97142 10.2151C8.42247 10.0884 8.47491 10.0884 9.00988 10.3736C10.6043 11.2186 12.8281 10.0567 12.8281 8.38766C12.8281 7.98625 12.891 7.85949 13.2791 7.44752C14.5274 6.14822 14.0763 3.90879 12.5448 3.78203C12.2931 3.7609 12.2721 3.71865 12.2721 3.25386C12.2721 2.29259 11.3281 1.6271 10.0483 1.67991C9.76512 1.67991 9.64974 1.64822 9.64974 1.54259C9.64974 1.29963 9.05184 0.866534 8.47491 0.686957C7.8875 0.517942 7.62526 0.507379 6.96442 0.63414ZM8.0868 1.28907C8.61128 1.3947 8.93645 1.66935 9.11477 2.13414C9.21967 2.40879 9.23016 2.40879 10.0064 2.35597C11.2756 2.2609 11.6742 2.63062 11.6113 3.88766L11.5903 4.35245L12.1462 4.36301C12.7441 4.3947 13.3001 4.8278 13.3316 5.29259C13.342 5.40879 13.3525 5.55667 13.363 5.62006C13.4365 6.14822 12.9749 6.9616 12.3875 7.34189C12.0309 7.56372 11.842 7.92287 12.0833 7.92287C12.1253 7.92287 12.1672 8.10245 12.1672 8.31372C12.1672 8.91583 11.4959 9.7609 10.9085 9.90879C10.0693 10.1095 9.64974 10.0461 8.97841 9.60245L8.49589 9.27498L8.06582 9.50738C7.62526 9.72921 7.35254 9.72921 6.73365 9.49682L6.4924 9.40174L6.70219 9.0109C7.20568 8.00738 8.14974 7.53203 8.89449 7.90175C9.80708 8.36653 10.6987 8.39822 10.6987 7.97569C10.6987 7.77498 10.5204 7.67991 9.92247 7.55315C9.21967 7.40527 9.23016 7.28907 9.97491 6.92991C10.6882 6.58132 10.9085 6.29611 10.6672 6.04259C10.5204 5.8947 10.426 5.91583 9.7861 6.25386C9.39799 6.46513 8.89449 6.66583 8.6847 6.69752C8.21268 6.78203 7.39449 7.14118 6.99589 7.43696C6.10428 8.10245 5.20219 10.3313 5.10778 12.106L5.06582 12.8348L4.41547 12.8665C3.77561 12.8982 3.75463 12.8982 3.83855 12.6553C3.88051 12.5179 3.92247 12.3384 3.93296 12.2539C3.93296 12.1588 3.97491 12.032 4.02736 11.9581C4.06932 11.8947 4.12177 11.7257 4.14275 11.5989C4.50988 9.69752 6.68121 6.52851 8.45393 5.33484C9.20918 4.81724 9.26163 4.75386 9.06233 4.53203C8.84205 4.27851 8.35953 4.3947 7.95044 4.78555C7.87701 4.85949 7.66722 5.02851 7.47841 5.15527L7.14275 5.39822L7.20568 4.99682C7.24764 4.77498 7.26862 4.54259 7.26862 4.48977C7.26862 4.10949 7.21617 4.01442 7.02736 4.01442C6.7861 4.01442 6.63925 4.29963 6.56582 4.93344C6.51337 5.40879 6.20918 6.17991 5.94694 6.54963C5.76862 6.80315 5.74764 6.80315 5.64275 6.61301C5.35953 6.10597 4.98191 5.82076 4.75114 5.91583C4.42596 6.04259 4.44694 6.24329 4.82456 6.66583C5.391 7.33132 5.40149 7.3947 5.01337 8.03907C4.55184 8.8102 4.52037 8.83132 4.02736 8.85245C2.391 8.94752 1.54135 7.93344 2.24414 6.71865C2.391 6.46513 2.61128 6.22217 2.71617 6.17991C3.09379 6.06372 3.19869 5.83132 2.97841 5.58836C2.64275 5.20808 2.70568 4.34189 3.10428 3.83484C3.56582 3.24329 4.02736 3.04259 4.67771 3.10597C5.1917 3.16935 5.55883 3.00034 5.4854 2.75738C5.45393 2.60949 5.75813 2.03907 5.9889 1.83836C6.62876 1.26794 7.23715 1.09893 8.0868 1.28907Z" fill="black"/>
</svg>
