<svg width="15" height="15" viewBox="0 0 15 15" fill="none" xmlns="http://www.w3.org/2000/svg">
<path d="M6.42067 1.49102C6.20093 1.61677 6.0194 1.76048 6.0194 1.81437C6.0194 1.85928 5.94297 2.01198 5.84743 2.13772C5.60857 2.46108 5.42704 3.12575 5.36017 3.9521L5.30284 4.62575L4.96845 4.67964C3.43023 4.94012 2.22641 6.74551 3.00985 7.62575C3.33469 7.98503 3.87927 8.31736 4.30921 8.42515C4.56717 8.47904 4.6436 8.55988 4.71048 8.81138C4.80603 9.14371 4.95889 9.55689 5.18819 10.0599C5.32195 10.3563 5.32195 10.4102 5.09265 10.9132C4.60539 12.018 4.75825 12.2605 5.91431 12.2246C6.22959 12.2156 6.97481 11.6407 7.08946 11.3174C7.11813 11.2365 7.22322 11.2186 7.47163 11.2635C7.81558 11.3263 7.81558 11.3263 7.69138 11.5689C7.30921 12.2605 8.5608 12.494 10.9876 12.1886C11.1213 12.1707 11.3602 12.1437 11.5321 12.1437C12.0385 12.1168 12.4302 11.6497 12.4111 11.0838C12.4016 10.8054 12.4493 10.5539 12.5449 10.4102C12.6213 10.2934 12.7169 10.0689 12.736 9.90718C12.7933 9.56587 12.8793 9.41317 12.9844 9.47605C13.1181 9.5479 13.7009 9.12575 13.8442 8.8473C14.4079 7.7515 13.5481 6.66467 12.5258 7.16766C12.1914 7.33832 12.1341 7.33832 12.029 7.22156C11.8379 6.99701 11.1691 6.6018 10.7296 6.4491C10.3188 6.30539 8.7901 6.28742 8.35061 6.42216C8.17864 6.47605 8.13087 6.43114 8.02577 6.05389C7.90157 5.64072 7.90157 5.62275 8.15953 5.44311C9.51622 4.47305 10.3283 3.34132 10.3283 2.4521C10.3283 1.41916 9.52577 1.28443 8.31239 2.11976C8.13087 2.24551 7.96845 2.38024 7.94934 2.43413C7.8729 2.63174 7.7487 2.48802 7.75825 2.21856C7.76781 1.94012 7.5194 1.35629 7.37609 1.33832C6.9366 1.27545 6.76462 1.30239 6.42067 1.49102ZM7.12768 1.99401C7.2901 2.49701 7.17545 3.2515 6.85061 3.71856C6.67864 3.97006 6.48755 4.28443 6.43023 4.41916C6.2487 4.81437 5.92386 4.66168 5.92386 4.18563C5.92386 3.2515 6.18182 2.47006 6.64042 2.03892C6.95571 1.74251 7.04169 1.73353 7.12768 1.99401ZM9.74552 2.29042C10.0512 2.63174 9.20093 3.91617 8.07354 4.80539C7.25188 5.4521 7.18501 5.55988 7.36653 5.99102C7.42386 6.12575 7.48118 6.39521 7.50985 6.58383C7.56717 7.1497 7.6245 7.16766 8.59902 6.96108C10.6818 6.51198 12.4302 7.66168 12.1914 9.29641C12.0863 9.9521 12.0194 10.2126 11.8761 10.4102C11.7997 10.5269 11.7328 10.7964 11.7328 11.012C11.7423 11.4521 11.6563 11.5419 11.1309 11.6317C10.4334 11.7395 8.21685 11.7934 8.21685 11.6946C8.21685 11.488 9.34424 11.1916 9.6022 11.3353C9.65953 11.3623 9.79329 11.3533 9.91749 11.3084C10.185 11.2096 10.1659 10.9581 9.88883 10.8234C9.16271 10.4641 8.97163 10.1138 9.21048 9.56587C9.3538 9.26048 9.77418 8.98204 10.2232 8.89221C10.529 8.82934 10.5576 8.4521 10.271 8.35329C9.80284 8.19162 8.87609 8.77545 8.60857 9.40419C8.48437 9.7006 8.50348 10.3204 8.64679 10.6347C8.72322 10.7874 8.68501 10.7964 8.2073 10.7515C7.30921 10.6617 7.26144 10.6257 7.26144 10.1856C7.26144 9.76347 7.1659 9.65569 6.87927 9.74551C6.71685 9.79042 6.68819 9.88024 6.68819 10.2934C6.68819 11.1018 6.33469 11.6228 5.76144 11.6677C5.38883 11.6946 5.36972 11.5868 5.62768 11.1377C5.84743 10.7425 5.96208 10.2754 5.86653 10.1317C5.81876 10.0689 5.78055 9.97006 5.76144 9.92515C5.75188 9.87126 5.62768 9.57485 5.49392 9.26048C5.24552 8.69461 5.23596 8.68563 5.40794 8.38922C5.62768 8.01198 5.57036 7.95808 4.90157 7.93114C4.04169 7.89521 3.32513 7.41916 3.65953 7.10479C3.75507 7.01497 3.73596 6.97006 3.56399 6.84431C3.36335 6.7006 3.36335 6.68263 3.51622 6.41317C3.72641 6.05389 4.1659 5.56886 4.28055 5.56886C4.32832 5.56886 4.42386 5.51497 4.48118 5.4521C4.68182 5.21856 5.57991 5.08383 6.05762 5.20958C6.59265 5.35329 6.57354 5.37126 7.07991 4.43713C7.83469 3.02695 9.33469 1.82335 9.74552 2.29042ZM13.2614 7.74251C13.4621 7.93114 13.4048 8.65868 13.1755 8.85629C12.9175 9.07186 12.7646 8.9012 12.6691 8.29042C12.5926 7.72455 12.9175 7.41916 13.2614 7.74251Z" fill="black"/>
<path d="M4.77723 6.27889C4.64347 6.53038 4.66258 6.71003 4.83456 6.7729C5.26449 6.92559 5.58933 6.58428 5.29316 6.27889C5.08296 6.06332 4.90144 6.06332 4.77723 6.27889Z" fill="black"/>
<path d="M2.10279 8.59659C1.87349 8.68641 1.73018 8.91994 1.72063 9.20736C1.72063 9.43191 1.68241 9.47682 1.47222 9.49479C0.822536 9.52174 0.564574 10.3301 1.05184 10.7792C1.3098 11.0128 1.33846 11.0846 1.28113 11.39C1.18559 11.9918 1.67285 12.2253 2.41808 11.9559C2.74292 11.8391 2.80024 11.8301 2.73336 11.9379C2.64738 12.0637 2.96266 13.411 3.10598 13.5547C3.31617 13.7523 3.54547 13.5187 3.4977 13.1684C3.42126 12.5936 3.23973 11.6415 3.19196 11.5696C3.1633 11.5337 3.2875 11.4978 3.45948 11.4978C3.76521 11.4978 4.38623 11.2193 4.40534 11.0756C4.40534 11.0307 4.434 10.9229 4.45311 10.8241C4.56776 10.4199 4.49133 10.2313 4.17604 10.1235C4.12827 10.1145 4.13782 9.99778 4.18559 9.87203C4.38623 9.37802 3.76521 8.65946 3.25884 8.80317C3.04865 8.85706 2.97222 8.8391 2.88623 8.70437C2.77158 8.53371 2.40852 8.4888 2.10279 8.59659ZM2.56139 9.18042C2.72381 9.33311 2.7047 9.67443 2.52317 9.7373C2.30343 9.81814 2.19833 9.71934 2.19833 9.4409C2.19833 9.08162 2.34164 8.97383 2.56139 9.18042ZM3.61235 9.57563C3.63145 9.71934 3.57413 9.7912 3.35438 9.86305C3.07731 9.95287 3.0582 9.94389 3.0582 9.75527C3.0582 9.35108 3.55502 9.1894 3.61235 9.57563ZM1.75884 10.0247C1.94037 10.0876 1.95948 10.3391 1.79706 10.4918C1.73018 10.5547 1.63464 10.5637 1.51043 10.5008C1.3098 10.402 1.28113 10.0966 1.46266 10.0337C1.51999 10.0068 1.58687 9.97982 1.59642 9.97982C1.60598 9.97084 1.67285 9.99778 1.75884 10.0247ZM2.71426 10.6086C2.63782 10.7343 2.48496 10.7074 2.42763 10.5547C2.38942 10.4828 2.42763 10.3571 2.49451 10.2762C2.60916 10.1505 2.62827 10.1595 2.69515 10.3301C2.73336 10.4379 2.75247 10.5637 2.71426 10.6086ZM3.76521 10.5547C3.99451 10.7253 3.89897 10.9589 3.58368 10.9589C3.38305 10.9589 3.34483 10.914 3.34483 10.6894C3.34483 10.393 3.47859 10.3481 3.76521 10.5547ZM2.29387 11.3361C2.09324 11.4888 1.81617 11.5517 1.81617 11.4529C1.81617 11.4169 1.88305 11.2732 1.96903 11.1295C2.11234 10.8601 2.1219 10.8601 2.31298 11.0128C2.50406 11.1834 2.50406 11.1834 2.29387 11.3361Z" fill="black"/>
<path d="M13.0901 11.0394C12.7461 11.3717 11.9245 12.8268 11.8003 13.3118C11.6378 13.9046 12.3162 13.6531 12.5264 13.0334C12.7366 12.4316 13.0805 11.8837 13.5678 11.3807C13.8353 11.1022 14.0359 10.8328 13.9977 10.7789C13.864 10.5723 13.4436 10.6891 13.0901 11.0394Z" fill="black"/>
<path d="M13.5384 12.0718C13.2804 12.2964 12.8027 13.1317 12.8027 13.3562C12.8027 13.7335 13.2422 13.5359 13.5193 13.0329C13.6435 12.8083 13.8824 12.5029 14.0448 12.3592C14.2072 12.2155 14.3218 12.0538 14.3027 11.9999C14.2359 11.8023 13.7964 11.8473 13.5384 12.0718Z" fill="black"/>
<path d="M1.41513 12.4587C1.12851 12.5216 1.22405 12.791 1.70176 13.2761C2.17946 13.7611 2.28456 13.806 2.45653 13.6443C2.75271 13.3659 1.86418 12.3689 1.41513 12.4587Z" fill="black"/>
<path d="M4.04189 12.4683C3.89858 12.5581 3.79348 13.3126 3.90813 13.4743C4.07055 13.6898 4.32852 13.4653 4.45272 12.9982C4.58648 12.4952 4.40495 12.2527 4.04189 12.4683Z" fill="black"/>
<path d="M6.45082 12.7381C6.04955 13.1154 5.90623 13.6543 6.20241 13.6543C6.33617 13.6543 6.76611 13.2142 6.93808 12.9178C7.15783 12.5315 6.81388 12.3968 6.45082 12.7381Z" fill="black"/>
<path d="M10.5303 12.8094C10.2819 12.971 10.0431 13.3842 10.1004 13.5369C10.1768 13.7435 10.4921 13.6627 10.7501 13.3752C11.1418 12.9261 10.9794 12.513 10.5303 12.8094Z" fill="black"/>
<path d="M7.31025 13.0615C7.03318 13.4028 7.04273 13.6543 7.33891 13.6543C7.59688 13.6543 7.95038 13.2591 7.91216 13.0166C7.86439 12.6842 7.59688 12.7112 7.31025 13.0615Z" fill="black"/>
</svg>
