<svg width="15" height="15" viewBox="0 0 15 15" fill="none" xmlns="http://www.w3.org/2000/svg">
<path d="M10.5074 2.13083C10.328 2.40464 10.271 2.59512 10.271 2.95226C10.271 3.23797 10.222 3.48797 10.1405 3.58321C10.0753 3.66655 9.92856 3.98797 9.81443 4.2975C9.46389 5.33321 9.21933 5.41655 8.09433 4.92845C6.309 4.16655 5.98291 4.09512 5.15954 4.38083C4.30356 4.66655 3.4965 5.72607 3.21933 6.91655C3.08889 7.46416 2.66498 8.2975 2.52639 8.26178C2.40411 8.22607 1.84161 8.88083 1.6215 9.32131C1.27911 9.99988 1.20574 10.3094 1.18128 11.0713C1.15683 11.8927 1.25465 12.2023 1.60519 12.357C1.95574 12.5118 2.2003 12.3332 2.64867 11.5475L2.96661 10.9761L3.10519 11.4165C3.57802 12.9761 5.78726 13.6427 5.78726 12.2261C5.78726 11.9523 5.48563 11.4285 5.33074 11.4285C5.28183 11.4285 5.17585 11.357 5.09433 11.2618C4.94759 11.107 4.97204 11.0832 5.3552 10.8332C5.58346 10.6904 5.83617 10.4761 5.90954 10.357C6.03183 10.1546 6.1378 10.1427 6.83889 10.1904C7.27096 10.2261 7.77639 10.2499 7.96389 10.2499C8.28998 10.2499 8.31443 10.2737 8.559 10.8808C8.80356 11.5237 9.2927 12.3808 9.40683 12.3808C9.43943 12.3808 9.56987 12.4999 9.7003 12.6308C10.1487 13.1189 11.0128 12.7975 11.0454 12.1189C11.0536 11.8927 11.1188 11.8332 11.4449 11.7618C11.9014 11.6665 12.1133 11.4285 12.1867 10.9404C12.2519 10.4999 12.0481 9.99988 11.8036 9.99988C11.665 9.99988 11.021 9.63083 10.8579 9.46417C10.8498 9.45226 10.9802 9.11893 11.1595 8.73797C11.3307 8.35702 11.559 7.74988 11.665 7.40464C11.8117 6.91655 11.8932 6.78559 12.0318 6.78559C12.7655 6.78559 14.0943 5.46416 14.1025 4.73797C14.1025 4.44036 13.8824 4.13083 13.6786 4.10702C13.6378 4.10702 13.5155 3.96416 13.3932 3.7975C12.9693 3.22607 11.9829 2.52369 11.8117 2.69036C11.771 2.71416 11.6894 2.59512 11.6242 2.40464C11.3878 1.73797 10.8661 1.60702 10.5074 2.13083ZM11.1595 2.73797C11.1922 2.73797 11.2166 2.85702 11.2248 2.98797C11.2492 3.34512 11.3226 3.41655 11.6976 3.48797C11.8769 3.51178 12.1215 3.60702 12.2519 3.67845C12.578 3.86893 13.3688 4.74988 13.3688 4.92845C13.3688 5.28559 12.8063 5.74988 12.1867 5.90464C11.559 6.0594 11.4041 6.2975 10.7845 8.09512C10.703 8.32131 10.4585 8.77369 10.2383 9.10702C9.52096 10.1665 9.52096 10.7856 10.2465 11.6427L10.5563 12.0118L10.2465 12.0237C9.61063 12.0237 8.9177 10.7261 8.89324 9.48797C8.88509 9.13083 8.67313 9.0475 8.48563 9.3094C8.37965 9.47607 6.90411 9.51178 6.52096 9.36893C6.33346 9.2975 6.31715 9.23797 6.3253 8.60702C6.3253 8.03559 6.2927 7.88083 6.14596 7.70226C5.77096 7.27369 5.48563 7.5475 5.68943 8.13083C6.03183 9.11893 5.66498 9.91655 4.64596 10.3927C4.09161 10.6546 4.05085 10.8808 4.44215 11.3808C4.93128 12.0118 4.96389 12.0475 5.05356 11.9642C5.10248 11.9285 5.11063 11.9761 5.07802 12.0832C4.97204 12.5118 3.99378 11.9761 3.684 11.3094C3.48019 10.8689 3.4965 10.4285 3.72476 9.89274C3.83889 9.64274 3.83889 9.53559 3.70846 8.91655C3.57802 8.2975 3.57802 7.8094 3.7003 7.20226C3.83889 6.51178 4.36878 5.70226 4.91498 5.34512C5.52639 4.94036 6.48835 4.96416 7.37693 5.40464C8.45302 5.92845 8.52639 5.95226 8.88509 6.01178C9.47204 6.09512 9.89596 5.71416 10.2057 4.82131C10.3036 4.5594 10.5074 4.16655 10.6623 3.95226C10.8905 3.65464 10.9313 3.53559 10.8579 3.42845C10.6623 3.14274 10.7601 2.5475 10.9883 2.67845C11.0454 2.71416 11.1269 2.73797 11.1595 2.73797ZM3.05628 9.40464C2.99106 9.57131 2.81987 9.89274 2.67313 10.1308C2.51824 10.3689 2.33074 10.7618 2.24106 10.9999C1.87422 11.988 1.50737 11.4046 1.8253 10.3213C1.92313 9.96417 2.49378 9.17845 2.89324 8.85702C3.11335 8.67845 3.20302 8.98797 3.05628 9.40464ZM10.6786 10.3213C10.7193 10.3094 11.0128 10.4523 11.4856 10.7261C11.7139 10.8689 11.6242 11.0713 11.3307 11.0713C10.8498 11.0951 10.4014 10.8332 10.3117 10.4999C10.2465 10.2499 10.3443 10.107 10.4992 10.2261C10.5726 10.2856 10.6541 10.3213 10.6786 10.3213Z" fill="black"/>
<path d="M11.9104 4.33324C11.7799 4.57134 11.8859 4.88086 12.106 4.88086C12.212 4.88086 12.318 4.79753 12.3424 4.69038C12.3995 4.46419 12.2609 4.16657 12.106 4.16657C12.049 4.16657 11.9593 4.238 11.9104 4.33324Z" fill="black"/>
</svg>
