<svg width="15" height="15" viewBox="0 0 15 15" fill="none" xmlns="http://www.w3.org/2000/svg">
<path d="M7.73284 2.18992C7.6589 2.25596 7.60608 2.34087 7.60608 2.38804C7.60608 2.43521 7.41594 2.65219 7.18355 2.86917C5.35608 4.53898 4.96524 4.92577 5.02862 5.02011C5.07087 5.07672 5.06031 5.10502 5.00749 5.06728C4.87017 4.99181 3.56031 6.10502 3.64481 6.22766C3.6765 6.28426 3.66594 6.31257 3.61312 6.30313C3.42298 6.24653 2.11312 7.53898 2.11312 7.78426C2.11312 7.91634 2.16594 8.02011 2.23988 8.02011C2.30326 8.02011 2.45115 8.09559 2.55679 8.18049C2.75749 8.34087 3.12721 8.30313 3.80326 8.06728C3.95115 8.02011 3.96172 8.10502 3.93002 8.62389C3.89833 9.04841 3.93002 9.322 4.04622 9.52011C4.18355 9.7654 4.18355 9.822 4.05679 9.91634C3.85608 10.0673 3.75045 10.6522 3.88777 10.9635C3.97228 11.1616 3.96172 11.2465 3.84552 11.3314C3.76101 11.388 3.69763 11.4729 3.69763 11.5201C3.69763 11.5578 3.64481 11.7088 3.58143 11.8597L3.46524 12.1239L3.26453 11.605C3.14833 11.322 3.0427 11.039 3.03214 10.9918C2.94763 10.7182 2.71524 10.4729 2.5251 10.4729C2.19763 10.4729 2.1765 10.6994 2.46171 11.1899C2.6096 11.4446 2.77862 11.822 2.842 12.0201L2.94763 12.388L2.5251 12.0012C2.27157 11.756 2.00749 11.605 1.8596 11.605C1.43707 11.605 1.45819 11.8503 1.91242 12.1805L2.33495 12.4918L2.10256 12.6522C1.66946 12.9446 1.90186 13.1239 2.50397 12.9541C2.86312 12.8597 3.19059 12.8409 3.64481 12.888C4.26805 12.9541 6.19059 13.0012 7.92298 13.0107C8.41946 13.0107 8.96876 13.0107 9.13777 13.0201C9.77158 13.0484 10.004 13.039 10.9335 12.9729C11.8948 12.9069 12.3385 12.8975 13.2047 12.9446C13.6483 12.9729 13.68 12.9541 13.68 12.7371C13.68 12.5578 13.6166 12.4918 13.3843 12.4541L13.0885 12.4069L13.5638 11.9918C14.0286 11.5767 14.1026 11.322 13.7328 11.322C13.6272 11.322 13.3631 11.4729 13.1519 11.6616C12.9406 11.8409 12.7399 11.9824 12.7188 11.9541C12.6765 11.9163 12.93 11.388 13.2786 10.8126C13.4265 10.5767 13.4265 10.5295 13.2786 10.4069C13.0568 10.2088 12.6448 10.5956 12.4547 11.1805C12.2857 11.6805 12.2434 11.6899 12.0321 11.3409C11.8948 11.1333 11.8948 11.0295 11.9899 10.7654C12.085 10.539 12.085 10.3314 12.011 10.0578C11.9582 9.84087 11.9159 9.38804 11.9265 9.04841C11.9476 8.65219 11.8843 8.28426 11.7892 8.06728C11.5779 7.61445 11.5779 7.57672 11.8209 7.77483C12.3174 8.18049 13.3526 8.11445 13.6166 7.66162C13.7645 7.40691 13.6483 7.2654 12.5603 6.30313C11.599 5.45408 11.5251 5.36917 11.5674 5.07672C11.599 4.90691 11.673 4.40691 11.7258 3.96351C11.7892 3.52011 11.9159 3.09558 12.0004 3.01068C12.4758 2.53898 11.9054 2.21823 10.9335 2.41634C10.4793 2.51068 10.3526 2.62389 10.3526 2.96351C10.3526 3.12389 10.3209 3.41634 10.2786 3.61445L10.2152 3.97294L9.53918 3.35974C9.16946 3.02011 8.82087 2.73709 8.76805 2.73709C8.70467 2.73709 8.66242 2.65219 8.66242 2.55785C8.66242 2.20879 8.00749 1.94464 7.73284 2.18992ZM11.3666 3.15219C11.3244 3.25596 11.2504 3.66162 11.1871 4.02955C11.0603 4.77483 11.0181 4.822 10.7223 4.52955C10.5638 4.36917 10.5533 4.30313 10.6589 4.08615C10.7328 3.95408 10.8068 3.66162 10.8385 3.45408C10.923 2.88804 10.9441 2.84087 11.1976 2.89747C11.3666 2.93521 11.4089 3.00124 11.3666 3.15219ZM9.28566 3.7654C9.7927 4.28426 9.85608 4.43521 9.56031 4.43521C9.44411 4.43521 9.32791 4.30313 8.7258 3.46351C8.38777 3.01068 8.7258 3.18992 9.28566 3.7654ZM7.60608 3.3503C7.60608 3.64275 6.57087 5.17106 6.24341 5.35974C6.03214 5.49181 6.06383 5.38804 6.50749 4.61445C6.99341 3.78426 7.342 3.33143 7.53214 3.31257C7.57439 3.30313 7.60608 3.322 7.60608 3.3503ZM8.74693 4.67106C8.7258 4.68992 8.57791 4.71823 8.39834 4.74653C8.22932 4.77483 7.93355 4.83143 7.74341 4.85974L7.40538 4.92577L7.61665 4.52011C8.03918 3.73709 8.12369 3.70879 8.47228 4.20879C8.64129 4.44464 8.76805 4.65219 8.74693 4.67106ZM6.01101 4.64275C5.68355 5.18992 5.00749 5.94464 4.84904 5.94464C4.74341 5.94464 4.57439 5.97294 4.46876 6.00125C4.29974 6.04842 4.29974 6.03898 4.48988 5.89747C4.60608 5.81257 4.69059 5.69936 4.66946 5.65219C4.6589 5.59558 4.68002 5.57672 4.73284 5.60502C4.78566 5.63332 5.10256 5.3786 5.45115 5.04842C6.12721 4.3786 6.20115 4.33143 6.01101 4.64275ZM10.6483 5.03898C10.8913 5.2937 10.9547 5.60502 10.7857 5.70879C10.7223 5.73709 10.4688 5.56728 10.2047 5.33143C9.78214 4.95408 9.75045 4.89747 9.88777 4.7654C10.0779 4.59558 10.2892 4.67106 10.6483 5.03898ZM9.50749 5.64275C10.099 6.15219 10.1519 6.2937 9.78214 6.3786C9.63425 6.40691 9.44411 6.51068 9.34904 6.60502C9.05327 6.89747 8.45115 6.66162 8.45115 6.23709C8.45115 6.10502 8.4089 5.93521 8.35608 5.85974C8.22932 5.68049 7.92298 5.80313 7.94411 6.01068C7.9758 6.43521 7.92298 6.60502 7.72228 6.60502C7.60608 6.60502 7.47932 6.65219 7.44763 6.69936C7.40538 6.75596 7.24693 6.78426 7.07791 6.77483C6.9089 6.7654 6.7927 6.73709 6.81383 6.71823C6.88777 6.65219 6.54974 6.13332 6.44411 6.13332C6.2751 6.13332 6.32791 5.88804 6.52862 5.73709C6.71876 5.57672 7.74341 5.31257 8.34552 5.25596C8.54622 5.23709 8.77862 5.20879 8.85256 5.20879C8.91594 5.19936 9.22228 5.39747 9.50749 5.64275ZM11.5779 5.96351C11.7258 6.08615 12.1061 6.43521 12.4124 6.75596L12.9723 7.322L12.6554 7.28426C12.18 7.21823 11.0497 6.21823 11.1448 5.95408C11.2293 5.70879 11.2399 5.70879 11.5779 5.96351ZM4.96524 6.30313C4.96524 6.39747 4.40538 6.86917 3.85608 7.21823C3.62369 7.36917 3.31735 7.58615 3.18002 7.70879C3.03214 7.822 2.87369 7.89747 2.83143 7.86917C2.64129 7.7654 3.83495 6.51068 4.1096 6.51068C4.20467 6.50125 4.39481 6.44464 4.5427 6.36917C4.84904 6.21823 4.96524 6.19936 4.96524 6.30313ZM11.0497 6.90691C11.2716 7.22766 11.2082 7.62389 10.9124 7.75596C10.4582 7.95408 10.1624 7.86917 9.98284 7.48238C9.77158 7.03898 9.78214 7.01068 10.099 6.74653C10.3526 6.52955 10.3948 6.52955 10.6695 6.65219C10.8385 6.72766 11.0075 6.84087 11.0497 6.90691ZM6.31735 6.88804C6.75045 7.12389 6.73988 7.31257 6.2751 7.69936C5.86312 8.05785 5.2927 8.13332 5.04974 7.8786C4.9758 7.7937 4.8596 7.68049 4.79622 7.62389C4.72228 7.54842 4.73284 7.46351 4.84904 7.3503C4.94411 7.2654 5.13425 7.07672 5.27157 6.94464C5.56735 6.65219 5.85256 6.63332 6.31735 6.88804ZM9.12721 7.19936C9.38073 7.22766 9.46524 7.30313 9.60256 7.65219C9.70819 7.89747 9.87721 8.10502 10.0145 8.16162C10.2575 8.25596 10.2997 8.36917 10.1624 8.56728C10.1096 8.63332 10.1307 8.95408 10.2152 9.2937C10.3103 9.71823 10.3209 9.97294 10.2469 10.1428C10.0885 10.5201 10.1202 11.0484 10.3103 11.2371C10.4688 11.3975 10.4688 11.4163 10.2997 11.5673C10.173 11.6899 10.1307 11.8503 10.1624 12.1899C10.1835 12.5578 10.1624 12.6428 10.0357 12.6145C9.95115 12.5956 9.88777 12.5201 9.9089 12.4446C10.0673 11.8503 9.9089 9.11445 9.70819 9.00125C9.65538 8.97294 9.63425 8.91634 9.65538 8.8786C9.81383 8.65219 8.46172 7.75596 8.18707 7.90691C8.13425 7.94464 7.99693 7.95408 7.90186 7.94464C7.45819 7.8786 6.56031 8.7937 6.51805 9.3503C6.50749 9.50125 6.4758 9.62389 6.44411 9.62389C6.37017 9.62389 6.28566 10.8975 6.30679 11.8126C6.31735 12.5201 6.30679 12.5484 6.07439 12.5484C5.88425 12.5484 5.842 12.5107 5.88425 12.3597C5.91594 12.256 5.88425 11.9824 5.81031 11.7465C5.69411 11.388 5.70467 11.3126 5.85256 11.1805C5.94763 11.0956 6.02157 10.9352 6.03214 10.822C6.03214 10.7088 6.05326 10.5295 6.07439 10.4352C6.09552 10.3314 6.03214 10.1333 5.94763 9.99181C5.79974 9.77483 5.78918 9.68049 5.89481 9.48238C5.96876 9.3503 6.02157 9.04841 6.02157 8.822C6.02157 8.45408 6.06383 8.38804 6.38073 8.21823C6.592 8.09558 6.83495 7.84087 6.95115 7.60502C7.15186 7.22766 7.21524 7.18992 7.64834 7.13332C7.91242 7.09558 8.15538 7.02955 8.18707 6.98238C8.21876 6.93521 8.37721 6.96351 8.53566 7.02955C8.69411 7.10502 8.95819 7.18049 9.12721 7.19936ZM5.28214 8.39747C5.89481 8.39747 5.7258 9.31257 5.08143 9.45408C4.50045 9.59558 4.43707 9.52011 4.43707 8.72766V8.01068L4.71172 8.19936C4.87017 8.31257 5.12369 8.39747 5.28214 8.39747ZM11.3033 8.30313C11.4828 8.59558 11.3878 9.3503 11.1765 9.47294C10.7223 9.72766 10.4265 8.85974 10.7962 8.36917C11.0392 8.06728 11.1554 8.04841 11.3033 8.30313ZM7.26805 10.2088C7.14129 10.4163 7.13073 10.4069 7.07791 10.0484C7.04622 9.83143 7.08848 9.49181 7.18355 9.24653L7.342 8.822L7.37369 9.40691C7.39481 9.7654 7.35256 10.0862 7.26805 10.2088ZM8.19763 9.78426C8.18707 10.039 7.95467 10.2088 7.95467 9.96351C7.95467 9.88804 7.99693 9.84087 8.04974 9.86917C8.10256 9.89747 8.11312 9.78426 8.08143 9.60502C8.04974 9.41634 8.06031 9.34087 8.11312 9.41634C8.16594 9.48238 8.20819 9.65219 8.19763 9.78426ZM5.44059 9.99181C5.4089 10.039 5.43002 10.105 5.49341 10.1428C5.66242 10.2371 5.62017 10.822 5.43002 10.9824C5.22932 11.1711 4.60608 11.1805 4.44763 11.0012C4.03566 10.5578 4.44763 9.90691 5.14481 9.90691C5.34552 9.90691 5.48284 9.94464 5.44059 9.99181ZM11.4934 10.3031C11.5357 10.756 11.3666 11.039 11.0392 11.039C10.68 11.039 10.5427 10.7654 10.7012 10.3692C10.9441 9.7654 11.4406 9.72766 11.4934 10.3031ZM4.98636 11.5295C5.4089 11.7088 5.57791 12.5295 5.20819 12.5673C4.39481 12.6239 3.96172 12.388 4.05679 11.9352C4.16242 11.4635 4.48988 11.322 4.98636 11.5295ZM7.1096 12.0012C7.12017 12.2748 7.07791 12.5012 7.0251 12.5012C6.91946 12.5012 6.84552 11.756 6.93003 11.5201C7.01453 11.2748 7.09904 11.5012 7.1096 12.0012ZM11.6096 11.9163C11.599 12.3786 11.4934 12.5201 11.1659 12.5012C10.754 12.4729 10.6378 12.3409 10.7223 11.9918C10.8807 11.3597 11.6307 11.2937 11.6096 11.9163Z" fill="black"/>
<path d="M6.46536 13.7082C5.7893 13.8969 6.2224 14.0478 7.21536 13.9723C7.26818 13.9629 7.2893 13.9157 7.26818 13.8497C7.2048 13.6799 6.83508 13.6138 6.46536 13.7082Z" fill="black"/>
</svg>
