<svg width="15" height="15" viewBox="0 0 15 15" fill="none" xmlns="http://www.w3.org/2000/svg">
<path d="M5.16906 1.61386C4.64203 1.84075 3.3346 2.68529 2.99001 3.01302C1.92582 4.02142 1.11501 5.49621 1.20622 6.2147C1.21636 6.26512 1.23663 6.51722 1.26703 6.76932C1.30757 7.2231 2.02717 8.31974 2.27041 8.31974C2.32109 8.31974 2.57447 8.48361 2.82784 8.68529C3.18257 8.9626 3.58798 9.12646 4.49001 9.32814C5.13866 9.4668 5.85825 9.66848 6.07109 9.76932C6.29406 9.85756 6.59812 9.93319 6.76028 9.93319C6.9123 9.93319 7.14541 9.93319 7.26703 9.94579L7.47987 9.9584L7.23663 10.5886L6.99339 11.2189L6.45622 11.2315C5.63528 11.2567 5.45284 11.2945 5.37176 11.4836C5.1792 11.8744 5.37176 11.8996 6.41568 11.6475C6.61839 11.5971 6.68933 11.6223 6.68933 11.7735C6.68933 11.887 6.64879 11.9752 6.58798 11.9752C6.5373 11.9752 6.51703 12.0634 6.54744 12.1643C6.64879 12.4794 7.03393 12.3786 7.35825 11.9626L7.65217 11.5718L8.76703 11.6475C10.5204 11.7609 11.0373 11.8492 11.6454 12.1265L12.2028 12.3912L11.8887 12.7189C11.7164 12.8954 11.463 13.1349 11.3312 13.2483C10.9765 13.5634 11.1589 13.6517 11.7164 13.4122C12.5778 13.0592 12.8008 12.5424 12.3447 12.013C12.1623 11.8113 11.5947 11.5844 11.2501 11.5718C11.2197 11.5718 11.1083 11.5088 11.0069 11.4458C10.8954 11.3702 10.2366 11.2819 9.5373 11.2567C8.83798 11.2189 8.15893 11.1811 8.02717 11.1811C7.85487 11.1685 7.81433 11.1181 7.86501 10.9038C7.97649 10.4248 8.40217 9.7189 8.5846 9.7189C8.68595 9.7189 8.83798 9.7063 8.91906 9.68109C9.00014 9.64327 9.23325 9.58025 9.42582 9.52983C11.4731 8.9752 12.6285 8.35756 13.2062 7.52562C14.4123 5.77352 13.8751 3.75672 11.8481 2.49621C10.4799 1.63907 9.44609 1.42478 8.34136 1.73991C8.02717 1.82815 7.8042 1.81554 7.53055 1.7021C7.15555 1.53823 5.47312 1.4752 5.16906 1.61386ZM7.47987 2.29453C7.54068 2.37016 7.60149 2.38277 7.60149 2.33235C7.60149 2.28193 7.6623 2.30714 7.74339 2.38277C7.85487 2.49621 7.91568 2.49621 8.01703 2.37016C8.15893 2.2063 9.72987 2.14327 10.0339 2.29453C10.115 2.33235 10.4191 2.4584 10.6927 2.58445C12.2738 3.25252 13.3785 4.43739 13.3785 5.471C13.3785 5.86176 12.9833 6.87016 12.6691 7.28613C12.0711 8.08025 9.21298 9.17688 7.49001 9.29033C6.69947 9.34075 6.51703 9.30293 5.71636 8.94999C5.21974 8.73571 4.59136 8.52142 4.30757 8.48361C2.3819 8.23151 1.16568 6.66848 1.92582 5.44579C2.0373 5.26932 2.12852 5.05504 2.12852 4.9668C2.12852 4.87857 2.25014 4.65167 2.4123 4.44999C2.56433 4.26092 2.67582 4.04663 2.65555 3.971C2.63528 3.90798 2.65555 3.88277 2.68595 3.93319C2.72649 3.98361 2.94947 3.83235 3.18257 3.60546C3.40555 3.37857 3.75014 3.10125 3.93257 2.9752C4.10487 2.86176 4.38866 2.68529 4.56095 2.57184C5.26028 2.11806 7.12514 1.94159 7.47987 2.29453Z" fill="black"/>
<path d="M5.51307 3.17714C5.47253 3.25277 5.6651 3.5805 5.93875 3.90823C6.53672 4.62672 7.20564 5.52168 6.9928 5.3326C6.81037 5.15613 5.06712 4.70235 4.22591 4.60151C3.90158 4.5637 3.58739 4.52588 3.52658 4.50067C3.45564 4.48807 3.38469 4.5763 3.36442 4.71496C3.33402 4.90403 3.37456 4.94185 3.58739 4.89143C3.72929 4.85361 3.86104 4.86622 3.87118 4.92924C3.90158 5.00487 4.37794 5.11832 5.16848 5.23176C5.24956 5.23176 5.67523 5.35781 6.12118 5.48386C6.97253 5.73596 6.95226 5.88722 6.02996 5.98807C5.80699 6.01328 5.61442 6.03849 5.60429 6.05109C5.58402 6.0763 5.48266 6.08891 5.38131 6.10151C5.26983 6.10151 5.14821 6.15193 5.10766 6.20235C5.06712 6.26538 4.9151 6.30319 4.77321 6.30319C4.44888 6.30319 3.4455 6.87042 3.4455 7.05949C3.4455 7.24857 3.64821 7.22336 4.31712 6.92084C5.52321 6.40403 5.73604 6.34101 6.4151 6.3158L7.10429 6.29059L6.54685 7.12252C6.23267 7.5763 5.97929 8.00487 5.97929 8.0679C5.97929 8.35781 6.26307 8.14353 6.63807 7.55109C6.86104 7.21075 7.17523 6.80739 7.32726 6.65613L7.61104 6.40403L7.92523 6.75697C8.08739 6.95865 8.36104 7.36201 8.52321 7.65193C8.80699 8.15613 9.12118 8.37042 9.12118 8.0679C9.12118 7.89143 8.64483 6.94605 8.37118 6.5679L8.15834 6.27798L8.81712 6.34101C9.56712 6.41664 10.1854 6.5805 10.834 6.87042C11.3813 7.10991 11.4523 7.10991 11.4523 6.85781C11.4523 6.47966 10.2766 6.02588 8.94888 5.89983C8.47253 5.84941 8.72591 5.66033 10.0637 5.11832C10.4996 4.92924 11.0266 4.75277 11.2293 4.71496C11.6043 4.63933 11.9489 4.36201 11.8374 4.22336C11.736 4.09731 9.06037 4.97966 8.63469 5.28218C8.50294 5.37042 8.37118 5.40823 8.34077 5.37042C8.22929 5.23176 9.42523 3.53008 9.62794 3.53008C9.67861 3.53008 9.72929 3.44185 9.72929 3.34101C9.72929 2.74857 8.84753 3.49227 8.2901 4.55109C7.87456 5.35781 7.83402 5.3326 7.9151 4.31159C8.03672 2.89983 7.77321 2.93765 7.56037 4.36201L7.43875 5.20655L7.14483 4.71496C6.46577 3.59311 5.67523 2.84941 5.51307 3.17714Z" fill="black"/>
<path d="M3.7509 10.2987C1.93671 10.4625 1.07523 10.7146 1.2982 10.992C1.36915 11.0802 1.65293 11.0802 2.20023 10.9794C2.63604 10.9037 3.28469 10.8155 3.63942 10.7777C4.00428 10.7399 4.32861 10.6516 4.36915 10.5634C4.45023 10.3995 4.38942 10.1978 4.27793 10.2357C4.23739 10.2483 4.00428 10.2735 3.7509 10.2987Z" fill="black"/>
<path d="M10.348 10.3873C10.1858 10.6394 10.277 10.6772 11.098 10.7024C12.1115 10.7402 12.7601 10.8159 13.2061 10.9545C13.6318 11.0806 13.8243 10.9041 13.5304 10.6394C13.0946 10.236 10.5811 10.0343 10.348 10.3873Z" fill="black"/>
<path d="M3.27406 11.7856C2.85852 12.0125 2.79771 12.6175 3.17271 12.9075C3.89231 13.4621 6.82136 13.7646 8.51393 13.4369C8.76731 13.3865 9.13217 13.3234 9.32474 13.2982C9.97339 13.1848 10.6828 12.9075 10.7234 12.731C10.7639 12.6049 10.6524 12.5797 10.1761 12.668C9.84163 12.7184 9.39569 12.7814 9.17271 12.8192C8.94974 12.857 8.58488 12.9075 8.3619 12.9453C7.2369 13.1218 4.63217 12.9831 3.98352 12.7184C3.24366 12.4159 3.18285 12.2646 3.75042 12.1512C4.05447 12.0881 4.15582 12.0125 4.13555 11.8612C4.09501 11.5965 3.67947 11.5587 3.27406 11.7856Z" fill="black"/>
</svg>
