<svg width="15" height="15" viewBox="0 0 15 15" fill="none" xmlns="http://www.w3.org/2000/svg">
<path d="M12.4114 1.76325C12.1725 2.05902 10.6056 3.6224 10.3763 3.79142C10.0706 4.02381 9.8413 4.34071 9.78398 4.61536C9.7171 4.90057 9.62156 4.9217 9.44958 4.68931C9.3827 4.59423 9.06742 4.38297 8.74258 4.20339C7.77761 3.68578 6.612 3.70691 5.41774 4.25621C5.0929 4.41466 5.04512 4.41466 4.99735 4.26677C4.90181 3.99212 2.31264 2.32311 1.96869 2.32311C1.84449 2.32311 1.71073 2.54494 1.67251 2.79846C1.64385 2.9886 1.91137 3.63297 2.12156 3.87592L2.32219 4.11888L2.12156 4.12945C1.73939 4.16114 1.70118 4.1717 1.56742 4.3724C1.35723 4.69987 1.405 4.91114 1.81582 5.39705C2.17888 5.81959 2.18844 5.86184 2.00691 5.93578C1.59608 6.1048 1.80627 6.70691 2.43684 7.18226C2.81901 7.46747 2.84767 7.53085 2.75213 7.71043C2.65659 7.87945 2.66614 7.96395 2.82856 8.20691C3.0292 8.53438 4.27124 9.26325 4.72028 9.32663C4.94003 9.35832 5.02602 9.44283 5.12156 9.7386C5.39863 10.6259 5.99098 11.3759 6.69799 11.714L7.14704 11.9358L7.09926 12.6013C7.06105 13.1189 7.08016 13.2879 7.19481 13.4041C7.43366 13.6154 7.56742 13.4358 7.51965 12.9816C7.50054 12.7597 7.51965 12.5696 7.55786 12.5696C7.60563 12.5696 7.64385 12.6647 7.64385 12.7703C7.64385 13.0872 7.99735 13.4992 8.112 13.3196C8.15977 13.2351 8.16933 13.0872 8.13111 13.0027C8.08334 12.9076 8.02602 12.6752 7.99735 12.4851C7.94003 12.1576 7.94003 12.1471 8.26487 12.1471C8.46551 12.1471 8.59926 12.1999 8.60882 12.2738C8.61837 12.4534 8.68525 12.8759 8.74258 13.1823C8.84767 13.6576 9.07697 13.4463 9.08653 12.8548L9.09608 12.3055L9.20118 12.7175C9.31583 13.1189 9.58334 13.4252 9.70755 13.2879C9.73621 13.2456 9.69799 13.0238 9.612 12.7809C9.52602 12.5485 9.45914 12.2421 9.45914 12.1048C9.45914 11.7245 9.74576 11.809 9.90818 12.2421C10.1279 12.8231 10.5005 13.2456 10.8158 13.2879C11.4177 13.3618 12.698 12.4111 12.7075 11.883C12.7075 11.6611 11.9719 11.059 11.112 10.5731C10.7967 10.4041 10.7012 10.2773 10.6534 10.0132C10.5674 9.50621 10.5961 9.45339 11.0069 9.43226C11.5133 9.41114 11.991 9.08367 11.991 8.76677C11.991 8.56607 12.0865 8.44987 12.4305 8.27029C13.0515 7.9217 13.2617 7.38297 12.9082 7.03438C12.7267 6.8548 12.7362 6.84423 13.0993 6.46395C13.7776 5.79846 13.9114 5.0379 13.3763 4.89001C13.1948 4.83719 13.1948 4.82663 13.4146 4.49916C13.9974 3.64353 13.9114 2.85128 13.2617 3.00973C13.0037 3.07311 12.9942 3.07311 13.0897 2.79846C13.3954 1.9217 12.8986 1.1717 12.4114 1.76325ZM12.612 2.70339C12.5451 2.92522 12.3636 3.34776 12.2203 3.65409C11.8477 4.40409 12.0196 4.57311 12.5929 4.01325C12.9082 3.70691 13.2521 3.52733 13.3381 3.6224C13.405 3.69635 12.7075 4.76325 12.4114 5.04846C11.905 5.51325 12.0961 5.73508 12.7362 5.43931C13.1757 5.2386 13.1853 5.2386 13.1853 5.49212C13.1853 5.6717 13.0037 5.92522 12.5833 6.3055C12.5069 6.36888 12.2681 6.52733 12.0483 6.65409C11.5706 6.91818 11.5802 7.11888 12.0579 7.16114C12.4305 7.19283 12.5929 7.42522 12.4114 7.66818C12.2681 7.85832 11.7235 8.04846 11.4082 8.00621C11.0547 7.96395 10.9878 8.28085 11.2935 8.54494C11.4177 8.66114 11.4846 8.77733 11.456 8.80902C11.37 8.90409 10.7012 8.91466 10.2999 8.81959C9.93684 8.73508 9.93684 8.73508 9.93684 9.09424C9.9464 10.2879 10.2426 10.7738 11.3891 11.471C12.0101 11.8513 12.2298 12.1471 11.8763 12.1471C11.7808 12.1471 11.4751 11.978 11.1884 11.7773C10.9018 11.5766 10.6343 11.4393 10.5865 11.471C10.4432 11.5661 10.7012 11.9358 11.1024 12.2104C11.4751 12.4745 11.4942 12.4956 11.3222 12.633C10.9018 12.971 10.5961 12.7492 10.147 11.7562C9.88907 11.2175 9.80309 11.1858 9.27761 11.4393C8.14067 11.9886 6.47825 11.3337 5.85723 10.0766C5.79035 9.93931 5.66614 9.69635 5.58971 9.52733C5.38907 9.11536 5.39863 8.72452 5.61837 8.81959C6.53557 9.24212 8.31264 9.00973 8.81901 8.40762C9.612 7.44635 9.612 5.83015 8.81901 5.06959C8.43684 4.69987 7.58653 4.721 7.12793 5.11184L6.79353 5.38649L6.3636 5.04846C5.80946 4.6048 5.84767 4.50973 6.62156 4.39353C7.50054 4.25621 8.5706 4.53085 8.98143 4.99564C9.27761 5.33367 9.69799 6.21043 9.612 6.31607C9.58334 6.34776 9.60245 6.43226 9.65977 6.50621C9.81264 6.70691 10.0324 6.55902 10.0324 6.24212C10.0324 6.09423 10.1088 5.65057 10.2044 5.25973C10.3668 4.55198 10.3763 4.54142 11.5133 3.40057C12.1439 2.76677 12.6789 2.25973 12.6884 2.28086C12.7075 2.29142 12.6693 2.49212 12.612 2.70339ZM3.20118 3.5379C4.20436 4.09776 4.87315 4.77381 4.66296 5.0379C4.42411 5.3548 4.2999 5.90409 4.2999 6.69635C4.2999 7.3724 4.32856 7.4886 4.57697 7.82663C4.73939 8.0379 4.89226 8.33367 4.93048 8.50269C4.99735 8.7879 4.9878 8.79846 4.67251 8.73508C4.20436 8.62945 3.29672 8.10128 3.29672 7.9217C3.29672 7.83719 3.43047 7.74212 3.612 7.69987C3.78398 7.65762 3.9464 7.61536 3.96551 7.58367C4.06105 7.47804 3.82219 7.26677 3.5929 7.25621C3.45914 7.24564 3.34449 7.20339 3.34449 7.15057C3.34449 7.10832 3.28716 7.07663 3.22028 7.07663C3.01965 7.07663 2.27442 6.4217 2.36041 6.32663C2.40818 6.27381 2.60882 6.19987 2.80946 6.15762C3.29672 6.04142 3.33493 5.8724 2.94321 5.69283C2.61837 5.54494 1.91137 4.90057 1.91137 4.75269C1.91137 4.56254 2.30309 4.54142 2.72347 4.68931C3.53557 4.99564 3.54512 4.87945 2.78079 4.01325C2.47506 3.67522 2.19799 3.29494 2.16933 3.17874C2.112 2.93578 2.10245 2.93578 3.20118 3.5379ZM6.01965 5.28085C6.11519 5.33367 6.29672 5.52381 6.43047 5.70339C6.73621 6.09423 6.7171 6.09423 7.0706 5.69283C7.22347 5.50269 7.35723 5.39705 7.35723 5.44987C7.35723 5.49212 7.405 5.48156 7.47188 5.40762C7.77761 5.06959 8.48462 5.34423 8.78079 5.91466C9.3636 7.06607 8.66614 8.27029 7.28079 8.51325C6.31583 8.68226 5.24576 8.18578 4.92092 7.41466C4.82538 7.20339 4.70118 6.99212 4.64385 6.94987C4.56742 6.89705 4.57697 6.86536 4.66296 6.86536C4.73939 6.86536 4.77761 6.69635 4.77761 6.39001C4.77761 6.11536 4.8636 5.72452 4.96869 5.49212C5.14067 5.11184 5.17888 5.09071 5.50372 5.13297C5.69481 5.15409 5.92411 5.22804 6.01965 5.28085Z" fill="black"/>
<path d="M6.49805 10.1198C6.49805 10.3734 6.83244 10.722 6.91843 10.5741C6.99486 10.4473 6.71779 9.9297 6.58403 9.9297C6.53626 9.9297 6.49805 10.0142 6.49805 10.1198Z" fill="black"/>
<path d="M7.50011 10.1396C7.41412 10.2875 7.70074 10.7734 7.87272 10.7734C8.10202 10.7734 8.12113 10.6361 7.92049 10.3403C7.7103 10.0129 7.59565 9.96006 7.50011 10.1396Z" fill="black"/>
<path d="M8.50391 10.2252C8.50391 10.5209 8.96251 10.9646 9.02938 10.7428C9.10582 10.5421 8.81919 10.035 8.63766 10.035C8.56123 10.035 8.50391 10.1195 8.50391 10.2252Z" fill="black"/>
<path d="M5.37938 6.04174C5.21696 6.26357 5.17874 6.4854 5.27428 6.67554C5.44626 7.04526 5.92396 6.83399 5.92396 6.39033C5.92396 5.98892 5.57046 5.76709 5.37938 6.04174Z" fill="black"/>
<path d="M7.68186 6.28392C7.50033 6.59026 7.61498 7.07617 7.8825 7.07617C8.13091 7.07617 8.35065 6.57969 8.236 6.28392C8.09269 5.94589 7.8825 5.94589 7.68186 6.28392Z" fill="black"/>
<path d="M6.3734 6.73878C6.11544 7.04511 6.2492 7.92188 6.54538 7.92188C6.90843 7.92188 7.1855 7.0768 6.92754 6.7599C6.71735 6.49582 6.57404 6.49582 6.3734 6.73878Z" fill="black"/>
</svg>
