<svg width="15" height="15" viewBox="0 0 15 15" fill="none" xmlns="http://www.w3.org/2000/svg">
<path d="M3.34606 1.05059C3.14414 1.15568 2.90376 1.36588 2.81722 1.50919C2.72106 1.6525 2.59606 1.80537 2.52876 1.84358C2.29799 1.98689 2.10568 2.59836 2.16337 2.99963C2.22106 3.36269 2.20183 3.40091 1.92299 3.55377C1.25953 3.92639 1.13453 5.18753 1.70183 5.77989C1.83645 5.9232 1.87491 6.07607 1.84606 6.3818C1.77876 7.07925 2.26914 7.50919 3.3076 7.63339L3.79799 7.69072L3.75953 8.54104C3.74029 9.13339 3.75953 9.41046 3.84606 9.45823C3.9326 9.51556 3.92299 9.60155 3.79799 9.8404C3.42299 10.557 4.17299 11.3595 5.34606 11.5028C5.84606 11.5697 5.83645 11.5984 5.26914 12.0379C4.63453 12.5347 4.5576 12.6589 4.71145 12.955C4.96145 13.4041 5.63453 13.3468 6.69222 12.7735C7.19222 12.506 7.3076 12.4773 7.45183 12.5729C7.59606 12.678 7.59606 12.7066 7.3653 12.85C6.83645 13.1939 7.21145 13.7003 8.01914 13.7289C8.60568 13.748 9.63453 13.5856 10.0576 13.4136C10.423 13.2608 10.9326 12.6111 11.0576 12.1334C11.1345 11.8468 11.2403 11.7512 11.6826 11.5219C11.9711 11.3786 12.2114 11.1971 12.2114 11.1207C12.2114 11.0442 12.2595 10.9869 12.3076 10.9869C12.4999 10.9869 12.7884 10.1843 12.7884 9.65887C12.7884 9.00919 12.5095 8.09199 12.2595 7.91046C12.2114 7.87225 12.1922 7.83403 12.2307 7.83403C12.2691 7.83403 12.2595 7.71938 12.2018 7.57607C11.9903 7.01237 12.0095 6.54422 12.2595 6.30537L12.4903 6.09518L12.8364 6.30537C13.2788 6.57288 13.6153 6.46779 13.6538 6.0474C13.7595 4.80537 13.5576 4.36588 12.673 3.90728C11.2018 3.16205 9.17299 4.12702 8.77876 5.77033C8.49991 6.93594 8.84606 8.52193 9.49991 8.99963C9.73068 9.17161 9.76914 9.41046 9.54799 9.30537C9.45183 9.2576 9.01914 9.21938 8.58645 9.21938C7.69222 9.21938 7.72106 9.22893 7.98068 8.83721C8.35568 8.27352 8.07683 7.60473 7.48068 7.66205C7.20183 7.69072 7.1153 7.6525 7.08645 7.5283C6.97106 7.09836 6.31722 7.31811 6.12491 7.84358C6.0576 7.99645 5.94222 8.12065 5.85568 8.12065C5.66337 8.12065 4.98068 8.4646 4.73068 8.68435C4.24029 9.12384 4.25953 9.13339 4.28837 8.34995C4.32683 7.50919 4.35568 7.45186 4.6826 7.45186C5.59606 7.45186 6.61529 6.29581 6.34606 5.57925C6.27876 5.40728 6.3076 5.25441 6.46145 4.94868C6.79799 4.30855 6.8076 3.6111 6.49029 3.1525C6.34606 2.94231 6.14414 2.75123 6.04799 2.72256C5.76914 2.63658 5.57683 2.39772 5.57683 2.14931C5.57683 1.22256 4.24029 0.563327 3.34606 1.05059ZM4.75953 1.62384C4.99991 1.81492 5.21145 2.40728 5.15376 2.6939C5.10568 2.95186 5.20183 3.07607 5.46145 3.11428C6.24991 3.23849 6.44222 4.3181 5.79799 4.98689C5.53837 5.26396 5.52876 5.26396 5.70183 5.55059C5.78837 5.71301 5.86529 5.90409 5.86529 5.97097C5.86529 6.19072 5.41337 6.64932 5.00953 6.82129C4.44222 7.07925 4.33645 7.00282 4.38453 6.33403C4.45183 5.51237 4.44222 5.52193 4.84606 4.96779C5.23068 4.44231 5.31722 4.20346 5.14414 4.14613C5.01914 4.09836 4.90376 4.18435 4.58645 4.56651L4.32683 4.89135L4.31722 4.56651C4.31722 4.39454 4.31722 3.94549 4.32683 3.56333C4.33645 2.86588 4.26914 2.72256 3.99029 2.82766C3.88453 2.87543 3.83645 2.99008 3.84606 3.23849C3.85568 3.42957 3.85568 3.90728 3.85568 4.299L3.83645 5.01556L3.47106 4.59517C3.21145 4.30855 3.04799 4.1939 2.94222 4.23212C2.70183 4.32766 2.74991 4.43275 3.28837 5.08244C3.75953 5.64613 3.78837 5.71301 3.8076 6.2576C3.83645 7.14613 3.8076 7.20346 3.3076 7.12702C2.52876 7.02193 2.20183 6.66842 2.41337 6.1525C2.59606 5.71301 2.58645 5.65568 2.34606 5.59836C2.06722 5.52193 1.89414 5.22575 1.85568 4.7576C1.82683 4.3181 2.0576 4.02193 2.49991 3.92639C2.88453 3.84995 2.92299 3.68753 2.72106 3.17161C2.51914 2.68435 2.83645 2.01556 3.47106 1.58562C3.8076 1.34677 4.45183 1.36588 4.75953 1.62384ZM12.3461 4.33721C12.8268 4.53785 13.1538 4.94868 13.2307 5.42639C13.298 5.89454 13.1826 6.11428 12.9807 5.87543C12.7595 5.60791 12.2307 5.6939 11.8653 6.05696C11.4326 6.48689 11.4518 7.24167 11.9134 8.24486C12.5576 9.65887 12.3461 10.6143 11.2788 11.1302C10.7018 11.4073 10.6826 11.4264 10.6826 11.8086C10.673 12.334 10.1826 12.9073 9.59606 13.0793C8.9903 13.2703 7.60568 13.3277 7.76914 13.1652C7.84606 13.0888 8.13453 13.041 8.50953 13.041C9.31722 13.0315 9.44222 12.9073 8.9903 12.5729C8.5576 12.2385 8.50953 11.7512 8.89414 11.5793C9.21145 11.4359 9.20183 11.2735 8.87491 11.2735C8.4326 11.2735 8.10568 11.713 8.19222 12.1716C8.22106 12.3054 8.20183 12.42 8.15376 12.42C7.95183 12.42 7.69222 12.2098 7.69222 12.0474C7.69222 11.8086 7.41337 11.713 7.22106 11.8754C7.13453 11.9519 7.02876 12.0283 6.97106 12.0474C6.92299 12.0665 6.58645 12.248 6.23068 12.4487C5.8076 12.6875 5.49029 12.8022 5.31722 12.7831C5.04799 12.7544 5.04799 12.7544 5.47106 12.4678C5.84606 12.2194 6.41337 11.5697 6.59606 11.1971C6.70183 10.9869 6.47106 10.8245 6.24991 10.9678C5.99991 11.1207 5.61529 11.1111 5.02876 10.9391C4.46145 10.7672 4.23068 10.5665 4.49029 10.4614C4.64414 10.4041 4.64414 10.385 4.4326 10.213C4.24029 10.0601 4.22106 10.0028 4.33645 9.85951C5.04799 8.9232 5.96145 8.41683 6.4326 8.71301C6.61529 8.81811 6.66337 8.799 6.91337 8.53148C7.28837 8.12065 7.69222 8.01556 7.69222 8.32129C7.69222 8.44549 7.58645 8.67479 7.45183 8.82766C7.16337 9.1525 7.17299 9.09518 7.35568 9.51556C7.47106 9.80218 7.53837 9.84995 7.72106 9.80218C8.8653 9.51556 9.73068 9.72575 10.2211 10.4041C10.3653 10.6143 10.4807 10.8436 10.4807 10.92C10.4807 11.1111 10.7788 11.2162 10.8845 11.0633C10.9903 10.8914 10.9807 10.4328 10.8749 10.3659C10.8268 10.3372 10.7499 10.1748 10.7114 10.0028C10.6441 9.67798 10.2307 9.01874 9.95183 8.78944C9.26914 8.22575 8.95183 6.56333 9.37491 5.68435C9.9326 4.50919 11.2788 3.89772 12.3461 4.33721Z" fill="black"/>
<path d="M10.192 5.72335C10.067 5.96221 10.067 6.01953 10.2208 6.01953C10.3554 6.01953 10.5958 5.68514 10.5093 5.59915C10.4035 5.49405 10.2978 5.54182 10.192 5.72335Z" fill="black"/>
<path d="M10 7.15583C10 7.41379 10.2308 7.72908 10.3462 7.61443C10.375 7.58577 10.3654 7.41379 10.3365 7.22271C10.25 6.80233 10 6.75456 10 7.15583Z" fill="black"/>
<path d="M10.7695 8.71283C10.7695 9.02811 10.9041 9.19053 11.0868 9.1141C11.2791 9.04722 11.2791 9.05678 11.1541 8.75104C11.0388 8.44531 10.7695 8.41665 10.7695 8.71283Z" fill="black"/>
<path d="M5.6444 9.43889C5.42325 9.6873 5.43286 10.0312 5.66363 10.0312C5.90402 10.0312 6.0771 9.80195 6.03863 9.54399C6.00017 9.25736 5.83671 9.21915 5.6444 9.43889Z" fill="black"/>
<path d="M1.92383 9.11508C1.92383 9.19151 2.03921 9.59278 2.17383 10.0036C2.30844 10.4144 2.43344 10.8062 2.44306 10.873C2.48152 11.1119 2.69306 11.2361 2.79883 11.0832C3.01037 10.7488 2.47191 9.0482 2.13537 9.00043C1.99114 8.98132 1.92383 9.01954 1.92383 9.11508Z" fill="black"/>
<path d="M1.28832 10.2613C1.22101 10.4428 1.8364 11.274 2.01909 11.2454C2.25948 11.2072 2.24025 10.9014 1.98063 10.5001C1.72101 10.118 1.38448 10.0033 1.28832 10.2613Z" fill="black"/>
<path d="M12.8369 11.8275C12.5677 12.1906 12.2888 12.8021 12.2408 13.1078C12.1927 13.4422 12.5485 13.4995 12.6446 13.1747C12.6831 13.0696 12.8754 12.6874 13.0773 12.3435C13.2792 11.9995 13.4235 11.6747 13.4042 11.6365C13.3081 11.4836 13.0196 11.5791 12.8369 11.8275Z" fill="black"/>
<path d="M2.43184 12.6302C2.49914 13.1079 2.60491 13.2894 2.77799 13.2608C2.99914 13.2226 3.02799 12.7353 2.82607 12.506C2.55684 12.2098 2.38376 12.2767 2.43184 12.6302Z" fill="black"/>
<path d="M3.3741 12.6683C3.29718 12.8403 3.29718 12.9645 3.3741 13.0982C3.50871 13.3658 3.68179 13.2798 3.75871 12.9072C3.84525 12.4963 3.54718 12.3052 3.3741 12.6683Z" fill="black"/>
<path d="M11.6819 12.6117C11.4127 13.0416 11.5281 13.6913 11.8069 13.3569C11.9992 13.1276 12.0569 12.5162 11.8935 12.5162C11.8069 12.5162 11.7108 12.5639 11.6819 12.6117Z" fill="black"/>
<path d="M13.231 12.7642C12.8368 13.1655 12.9522 13.5954 13.3656 13.2515C13.5772 13.0795 13.7695 12.7165 13.7022 12.6114C13.606 12.4585 13.5099 12.4967 13.231 12.7642Z" fill="black"/>
</svg>
