<svg width="15" height="15" viewBox="0 0 15 15" fill="none" xmlns="http://www.w3.org/2000/svg">
<path d="M8.50419 1.3275C8.38005 1.37852 8.1835 1.58261 8.06971 1.77648C7.93522 1.99077 7.74902 2.14383 7.57315 2.17444C6.99384 2.28669 6.75591 3.39893 7.25246 3.70505C7.39729 3.79689 7.42833 3.90914 7.38695 4.23567C7.33522 4.61322 7.35591 4.65403 7.65591 4.8275C7.86281 4.94995 8.06971 5.00097 8.23522 4.96016C8.4835 4.89893 8.4835 4.89893 8.34902 5.12342C8.0904 5.52138 7.83178 6.42954 7.68695 7.39893C7.60419 7.97036 7.43867 8.23567 6.80764 8.84791L6.25936 9.37853L6.28005 8.84791C6.30074 8.18465 6.35246 8.03159 6.81798 7.41934C7.02488 7.14383 7.1904 6.89893 7.20074 6.85812C7.20074 6.8173 7.26281 6.60301 7.33522 6.37852C7.56281 5.67444 7.09729 5.05199 6.6835 5.50097C6.48695 5.71526 6.09384 6.79689 6.1766 6.87852C6.21798 6.90914 6.18695 6.93975 6.12488 6.93975C6.06281 6.93975 5.9904 6.85812 5.96971 6.75608C5.62833 5.49077 5.62833 5.52138 6.03178 5.38873C6.07315 5.36832 6.13522 5.21526 6.16626 5.05199C6.19729 4.88873 6.23867 4.73567 6.25936 4.71526C6.28005 4.69485 6.22833 4.5622 6.14557 4.40914C6.05246 4.23567 6.04212 4.10301 6.10419 4.04179C6.28005 3.86832 6.21798 3.3071 6.01109 3.05199C5.85591 2.86832 5.72143 2.8173 5.3904 2.8173C5.03867 2.8275 4.96626 2.79689 4.96626 2.64383C4.96626 2.53159 4.83178 2.38873 4.64557 2.29689C4.24212 2.08261 3.6835 2.29689 3.58005 2.70505C3.53867 2.84791 3.43522 2.96016 3.34212 2.96016C2.7835 2.96016 2.26626 3.67444 2.50419 4.11322C2.5766 4.24587 2.55591 4.41934 2.45246 4.68465C2.21453 5.25608 2.53522 5.71526 3.15591 5.71526C3.40419 5.71526 3.51798 5.77648 3.60074 5.97036C3.71453 6.21526 4.08695 6.42954 4.38695 6.42954C4.45936 6.42954 4.66626 6.29689 4.84212 6.13363L5.15246 5.83771L5.28695 6.3071C5.35936 6.5724 5.42143 6.8071 5.43178 6.83771C5.43178 6.86832 5.47315 6.98057 5.51453 7.09281C5.65936 7.53159 5.84557 8.87852 5.76281 8.87852C5.72143 8.87852 5.61798 8.73567 5.53522 8.5724C5.01798 7.58261 3.69384 6.86832 3.19729 7.3071C2.66971 7.77648 4.03522 9.17444 5.02833 9.18465C5.14212 9.18465 5.31798 9.26628 5.41109 9.36832C5.59729 9.5622 5.82488 10.103 5.72143 10.103C5.46281 10.103 4.30419 9.58261 3.75591 9.21526C2.91798 8.66424 2.51453 8.64383 1.70764 9.09281C1.26281 9.33771 1.13867 9.46016 1.13867 9.65404C1.13867 9.96016 1.25246 9.96016 1.73867 9.64383C2.4835 9.15404 2.94902 9.21526 3.92143 9.93975C4.11798 10.0826 4.43867 10.2561 4.64557 10.3173C4.85246 10.3785 5.1835 10.501 5.38005 10.5826L5.75246 10.7357L5.72143 11.3581C5.70074 11.7663 5.74212 12.0112 5.82488 12.0622C5.91798 12.1234 5.91798 12.1438 5.81453 12.1438C5.74212 12.1438 5.71109 12.2051 5.74212 12.2765C5.7835 12.3377 5.62833 12.2051 5.41109 11.9806C4.44902 10.9602 3.79729 10.8785 3.07315 11.6744C2.90764 11.8479 2.47315 12.2969 2.11109 12.6744C1.46971 13.3377 1.31453 13.6846 1.57315 13.8377C1.63522 13.8785 1.78005 13.8071 1.89384 13.6642C1.99729 13.5316 2.33867 13.154 2.63867 12.8377C2.94902 12.5214 3.22833 12.1949 3.28005 12.1234C3.32143 12.052 3.46626 11.9295 3.5904 11.8581C4.06626 11.603 4.31453 11.7051 5.13178 12.4704C6.62143 13.8785 7.12833 14.2255 7.55246 14.1132C7.89384 14.0214 7.7904 13.7867 7.29384 13.5622C6.85936 13.3581 6.6835 13.1642 6.94212 13.1642C7.00419 13.1642 7.23178 13.0316 7.44902 12.8581C7.66626 12.6846 7.87315 12.552 7.90419 12.552C7.96626 12.552 8.12143 12.4295 9.0835 11.6132C10.1076 10.7357 10.449 10.7867 12.249 12.0418C13.0559 12.5928 13.749 12.8887 13.8318 12.6949C13.8938 12.5316 13.5007 12.0418 13.3042 12.0418C13.2421 12.0418 12.849 11.7969 12.4456 11.4908C10.9042 10.3683 9.95246 10.2153 9.12488 10.9704C8.96971 11.1132 8.79384 11.2255 8.72143 11.2255C8.64902 11.2255 8.54557 11.3173 8.4835 11.4193C8.43178 11.5316 8.24557 11.6846 8.06971 11.7663C7.75936 11.9193 7.75936 11.9193 7.75936 11.654C7.75936 11.3377 8.73178 10.2459 9.00074 10.2561C9.03178 10.2561 9.21798 10.1336 9.42488 9.97036C10.3042 9.3173 10.7076 7.65403 9.9835 7.65403C9.39384 7.65403 8.55591 8.5622 8.06971 9.71526L7.74902 10.4602L7.82143 9.54179C7.86281 8.99077 7.96626 8.48057 8.06971 8.26628C8.44212 7.54179 9.72488 6.58261 10.8111 6.22546C10.9249 6.18465 11.2352 6.05199 11.5145 5.92954C12.3007 5.58261 12.549 5.63363 13.2214 6.27648C13.718 6.74587 13.8318 6.8173 13.9456 6.69485C14.1525 6.50097 13.8835 6.03159 13.2938 5.5622C12.8594 5.20506 12.7869 5.18465 12.2801 5.22546C11.9801 5.24587 11.5766 5.34791 11.3801 5.44995C11.1835 5.55199 10.9042 5.65403 10.7594 5.67444C10.2938 5.75608 9.24902 6.3173 8.74212 6.75608C8.28695 7.15403 8.24557 7.16424 8.30764 6.93975C8.34902 6.79689 8.43178 6.46016 8.4835 6.18465C8.64902 5.38873 8.81453 5.19485 9.24902 5.3173C9.83867 5.48057 10.3249 5.19485 10.3663 4.65403C10.3869 4.46016 10.4594 4.36832 10.6352 4.3173C10.7904 4.28669 10.9456 4.12342 11.0283 3.91934C11.2249 3.47036 11.2145 3.42954 10.9249 3.08261C10.749 2.88873 10.6869 2.71526 10.7283 2.5724C10.8835 1.97036 10.1904 1.3173 9.71453 1.61322C9.52833 1.73567 9.46626 1.71526 9.25936 1.49077C8.9904 1.20505 8.8766 1.18465 8.50419 1.3275ZM9.00074 1.98057C9.06281 2.0622 9.10419 2.23567 9.0835 2.35812C9.04212 2.68465 9.26971 2.71526 9.54902 2.40914C9.69384 2.26628 9.86971 2.14383 9.96281 2.14383C10.149 2.14383 10.3249 2.5724 10.1697 2.62342C9.62143 2.8071 9.62143 3.20505 10.1594 3.34791C10.3973 3.40914 10.5111 3.50097 10.5318 3.65403C10.5628 3.87852 10.449 3.92954 10.0042 3.88873C9.80764 3.86832 9.64212 4.16424 9.78695 4.27648C9.97315 4.39893 9.90074 4.67444 9.66281 4.78669C9.3835 4.90914 9.10419 4.71526 9.10419 4.38873C9.10419 4.11322 8.92833 4.05199 8.66971 4.22546C8.17315 4.5724 7.78005 4.35812 8.12143 3.91934C8.35936 3.61322 8.30764 3.47036 7.91453 3.3071C7.50074 3.14383 7.42833 2.8275 7.75936 2.65403C7.91453 2.5724 8.02833 2.58261 8.22488 2.71526C8.36971 2.8071 8.49384 2.86832 8.49384 2.84791C8.50419 2.8275 8.52488 2.64383 8.53522 2.43975C8.5766 1.85812 8.74212 1.68465 9.00074 1.98057ZM4.45936 2.88873C4.55246 2.96016 4.61453 3.15403 4.60419 3.38873C4.5835 3.83771 4.6766 3.86832 5.08005 3.52138C5.66971 3.04179 5.91798 3.48057 5.35936 3.99077C5.02833 4.28669 5.02833 4.3071 5.21453 4.43975C5.31798 4.52138 5.45246 4.5622 5.49384 4.53159C5.5766 4.48057 5.59729 4.54179 5.62833 4.91934C5.63867 5.0724 5.17315 5.11322 4.99729 4.97036C4.74902 4.78669 4.55246 4.97036 4.62488 5.3173C4.68695 5.65403 4.56281 5.8173 4.22143 5.8173C4.08695 5.8173 4.01453 5.70506 3.97315 5.40914C3.90074 4.98057 3.78695 4.92954 3.36281 5.09281C3.24902 5.14383 3.09384 5.15403 3.03178 5.13363C2.80419 5.05199 2.88695 4.79689 3.15591 4.69485C3.4766 4.5724 3.48695 4.41934 3.19729 4.12342C2.84557 3.75608 3.00074 3.53159 3.55936 3.60301C4.06626 3.67444 4.16971 3.62342 4.04557 3.37852C3.95246 3.20505 4.0766 2.75608 4.21109 2.75608C4.25246 2.75608 4.36626 2.8173 4.45936 2.88873ZM4.43867 8.12342C4.95591 8.5622 4.93522 8.63363 4.38695 8.39893C4.16971 8.3071 3.94212 8.23567 3.90074 8.24587C3.84902 8.26628 3.83867 8.22546 3.86971 8.17444C3.91109 8.12342 3.8904 8.05199 3.82833 8.01118C3.7766 7.98057 3.72488 7.90914 3.72488 7.84791C3.72488 7.65403 4.01453 7.76628 4.43867 8.12342ZM9.78695 8.73567C9.69384 9.0724 8.4835 10.2255 8.4835 9.97036C8.4835 9.8071 8.88695 9.20506 9.2904 8.76628C9.76626 8.24587 9.91109 8.23567 9.78695 8.73567ZM7.27315 9.40914C7.26281 9.59281 7.24212 10.3479 7.24212 11.0724V12.3989L6.7766 12.6744L6.32143 12.95L6.16626 12.7357C6.07315 12.603 6.04212 12.4704 6.09384 12.4091C6.14557 12.3479 6.20764 11.8173 6.21798 11.2459C6.23867 10.6642 6.2904 10.1642 6.34212 10.1336C6.3835 10.1132 6.3835 10.0418 6.35246 9.98057C6.31109 9.90914 6.33178 9.89893 6.39384 9.93975C6.46626 9.98057 6.51798 9.97036 6.51798 9.92955C6.51798 9.83771 7.18005 9.08261 7.26281 9.08261C7.2835 9.08261 7.29384 9.23567 7.27315 9.40914Z" fill="black"/>
<path d="M9.00067 3.16432C9.00067 3.21534 8.90757 3.26636 8.79377 3.26636C8.58688 3.26636 8.53515 3.41942 8.64895 3.71534C8.7317 3.91942 9.13515 3.92963 9.30067 3.73575C9.38343 3.64391 9.38343 3.52146 9.31101 3.32759C9.21791 3.07248 9.00067 2.96024 9.00067 3.16432Z" fill="black"/>
<path d="M3.849 4.20504C3.7352 4.62341 3.85934 4.79688 4.25244 4.79688C4.6352 4.79688 4.81107 4.50096 4.6352 4.14381C4.449 3.72545 3.96279 3.77647 3.849 4.20504Z" fill="black"/>
<path d="M11.1732 7.19511C11.018 7.37879 11.1111 7.6543 11.318 7.6543C11.4421 7.6543 11.7939 7.24613 11.7939 7.09307C11.7939 6.97062 11.2973 7.05226 11.1732 7.19511Z" fill="black"/>
<path d="M11.8763 8.17488C11.6694 8.28712 11.628 8.62386 11.8038 8.7259C11.928 8.80753 12.4142 8.38916 12.4142 8.19529C12.4142 8.04222 12.1245 8.02182 11.8763 8.17488Z" fill="black"/>
<path d="M12.4972 9.28595C12.2075 9.57167 12.1351 9.94922 12.373 9.94922C12.5903 9.94922 13.242 9.29616 13.1799 9.13289C13.0868 8.8982 12.8489 8.94922 12.4972 9.28595Z" fill="black"/>
<path d="M2.34832 10.2866C2.26557 10.3784 2.14143 10.6335 2.06901 10.8478C1.86212 11.5009 2.13108 11.7968 2.43108 11.2254C2.52419 11.0519 2.56557 10.9193 2.52419 10.9193C2.49315 10.9193 2.53453 10.807 2.62763 10.6642C2.72074 10.5315 2.79315 10.3784 2.79315 10.3172C2.79315 10.1438 2.5035 10.1131 2.34832 10.2866Z" fill="black"/>
<path d="M9.47566 12.4901C9.11359 12.8268 8.97911 13.2656 9.23773 13.2656C9.42394 13.2656 10.1688 12.3677 10.086 12.2452C9.98256 12.082 9.85842 12.1228 9.47566 12.4901Z" fill="black"/>
<path d="M10.7288 12.8687C10.4806 13.185 10.4599 13.4707 10.6771 13.4707C10.8426 13.4707 11.2875 12.9299 11.2564 12.7666C11.2047 12.5013 10.9875 12.5421 10.7288 12.8687Z" fill="black"/>
<path d="M4.33477 13.3374C4.13822 13.3885 3.8796 13.817 3.9727 13.9599C4.07615 14.1334 4.35546 14.0313 4.53132 13.7456C4.71753 13.4497 4.62443 13.2762 4.33477 13.3374Z" fill="black"/>
</svg>
