<svg width="15" height="15" viewBox="0 0 15 15" fill="none" xmlns="http://www.w3.org/2000/svg">
<path d="M9.53994 1.88864C9.05014 2.01109 8.37667 2.32742 7.78484 2.71517C6.67259 3.46007 6.75423 3.44987 5.90729 2.94987C4.61137 2.19477 4.22361 2.0315 3.63178 1.94987C3.07055 1.86824 3.02974 1.88864 2.26443 2.32742C1.38688 2.83762 1.01953 3.13354 1.01953 3.33762C1.01953 3.60293 1.33586 3.60293 1.61137 3.33762C2.1828 2.80701 3.23382 2.31722 3.57055 2.43966C3.74402 2.49068 3.87667 2.5213 3.87667 2.49068C3.87667 2.41926 4.82565 2.92946 5.4481 3.33762C5.72361 3.5213 5.98892 3.64375 6.02974 3.62334C6.06035 3.59273 6.15218 3.64375 6.22361 3.72538C6.37667 3.91926 6.70321 3.91926 7.03994 3.73558C7.1828 3.66415 7.66239 3.39885 8.11137 3.16415C8.56035 2.92946 8.97872 2.69477 9.02974 2.65395C9.09096 2.61313 9.31545 2.5213 9.53994 2.44987C9.76443 2.37844 9.98892 2.2866 10.0399 2.23558C10.091 2.19477 10.2032 2.19477 10.295 2.23558C10.3869 2.2866 10.6012 2.34783 10.7848 2.37844C10.9583 2.41926 11.4277 2.64375 11.8155 2.89885C12.7236 3.48048 13.7644 4.00089 13.8869 3.91926C14.1216 3.7764 13.8869 3.2866 13.5195 3.15395C13.4583 3.13354 12.9787 2.87844 12.4481 2.58252C10.9685 1.7866 10.4481 1.65395 9.53994 1.88864Z" fill="black"/>
<path d="M11.7333 4.24521C11.3048 4.38807 10.7333 4.65338 10.5293 4.80644C10.3456 4.94929 10.2333 4.9595 9.96803 4.87786C9.78436 4.81664 9.54967 4.76562 9.42722 4.75542C9.31497 4.74521 9.17211 4.69419 9.11089 4.66358C9.03946 4.62276 8.58028 4.56154 8.07007 4.53093C6.81497 4.44929 5.77416 4.69419 4.42722 5.37786C4.16191 5.52072 4.05987 5.52072 3.71293 5.39827C3.49864 5.32684 3.27416 5.25542 3.21293 5.24521C3.16191 5.23501 3.07007 5.2146 3.00885 5.19419C2.95783 5.18399 2.72313 5.2146 2.49864 5.28603C2.27416 5.34725 1.86599 5.44929 1.60069 5.52072C1.19252 5.62276 1.12109 5.67378 1.1415 5.85746C1.16191 5.99011 1.23334 6.05133 1.32518 6.03093C1.40681 6.01052 1.70273 5.94929 1.98844 5.89827C2.26395 5.84725 2.57007 5.75542 2.65171 5.7146C2.75375 5.66358 2.93742 5.68399 3.1415 5.78603C3.46803 5.94929 3.47824 5.94929 3.27416 6.13297C3.16191 6.24521 3.04967 6.32684 3.01905 6.32684C2.91701 6.32684 1.8864 7.47991 1.81497 7.67378C1.77416 7.77582 1.69252 7.83705 1.6313 7.80644C1.45783 7.69419 1.12109 7.85746 1.12109 8.05133C1.12109 8.18399 1.25375 8.27582 1.59048 8.36766C2.16191 8.53093 2.95783 9.2248 3.54967 10.1024C3.78436 10.4391 3.97824 10.7554 3.97824 10.8064C3.97824 10.8575 4.12109 11.0411 4.30477 11.2146L4.6313 11.5309H4.00885C2.78436 11.5309 1.15171 12.0513 1.28436 12.3983C1.35579 12.5819 1.42722 12.5819 1.80477 12.4289C1.95783 12.3677 2.15171 12.3064 2.22313 12.286C2.81497 12.1738 3.84558 12.0309 4.48844 11.9901C4.90681 11.9595 5.36599 11.9187 5.50885 11.8983C5.65171 11.8677 5.94762 11.8166 6.17211 11.786C6.8762 11.6942 7.27416 11.2656 6.99865 10.9085C6.82518 10.6636 6.1313 10.2656 5.53946 10.0513L5.00885 9.85746L5.32518 9.26562C5.49865 8.92889 5.73334 8.61256 5.85579 8.55133C5.96803 8.49011 6.15171 8.35746 6.26395 8.25542C6.36599 8.15338 6.61089 8.02072 6.80477 7.94929C7.50885 7.7248 9.44762 8.25542 9.77416 8.77582C9.8966 8.9697 9.8762 8.97991 9.10069 8.97991C7.76395 8.97991 6.69252 9.39827 6.75375 9.88807C6.77416 10.1126 6.93742 10.2248 7.69252 10.6126C9.07007 11.3166 9.12109 11.7044 7.84558 12.0003C7.48844 12.0819 7.15171 12.1942 7.10069 12.2452C7.03946 12.3064 6.8762 12.3473 6.72313 12.3473C6.57007 12.3473 6.3966 12.4187 6.32518 12.5003C6.25375 12.5819 6.1415 12.6534 6.07007 12.6534C5.94762 12.6534 5.20273 13.3473 5.20273 13.4697C5.20273 13.786 5.50885 13.7452 5.90681 13.3677C6.23334 13.0615 6.52926 12.9085 7.07007 12.7452C7.47824 12.633 8.04967 12.4697 8.35579 12.3779C9.04967 12.1738 9.28436 11.9493 9.28436 11.4697C9.28436 11.0003 8.80477 10.5105 8.09048 10.2452C7.51905 10.0411 7.32518 9.90848 7.40681 9.78603C7.50885 9.62276 8.30477 9.4697 9.27416 9.43909C10.1721 9.41868 10.264 9.42889 10.4986 9.65338C10.7844 9.91868 10.764 10.0819 10.2435 11.1738C9.8966 11.8779 9.84558 11.9391 8.90681 12.5411C7.90681 13.184 7.78436 13.3064 7.95783 13.5207C8.12109 13.7146 8.18232 13.7146 8.42722 13.4901C8.52926 13.3881 8.8966 13.1432 9.23334 12.9391C10.1007 12.4085 10.5497 11.8983 10.8762 11.0717C11.3558 9.83705 12.1313 8.90848 13.3048 8.14317C13.6415 7.92889 13.866 7.75542 13.815 7.75542C13.764 7.75542 13.7844 7.7146 13.866 7.66358C14.0293 7.56154 12.9884 6.47991 12.6109 6.36766C12.4986 6.32684 12.3762 6.26562 12.3456 6.23501C12.2231 6.07174 11.2844 5.40848 11.1823 5.40848C11.1109 5.40848 11.0088 5.35746 10.9374 5.28603C10.6517 5.00031 11.917 4.55133 12.2231 4.82684C12.5293 5.09215 13.2742 5.41868 13.4884 5.38807C13.8048 5.34725 13.8354 5.12276 13.5395 5.01052C13.3966 4.94929 13.2537 4.86766 13.2231 4.80644C13.1619 4.7044 12.0701 4.17378 11.9476 4.19419C11.917 4.19419 11.815 4.2248 11.7333 4.24521ZM8.77416 5.13297C9.78436 5.31664 11.2333 5.93909 11.6415 6.37787C11.7742 6.51052 11.9374 6.63297 11.9986 6.63297C12.0599 6.63297 12.1823 6.7044 12.2537 6.79623C12.3354 6.88807 12.5701 7.08195 12.7844 7.2146C13.2027 7.47991 13.2333 7.63297 12.8864 7.76562C12.7435 7.81664 12.6007 7.76562 12.3864 7.58195C11.9272 7.18399 11.3252 6.79623 11.264 6.86766C11.2231 6.89827 11.0803 6.81664 10.9374 6.67378C10.7844 6.54113 10.6109 6.42889 10.5497 6.42889C10.4884 6.42889 10.2129 6.34725 9.93742 6.23501C8.94762 5.85746 7.05987 5.66358 6.27416 5.85746C6.16191 5.88807 5.75375 5.99011 5.35579 6.08195C4.96803 6.17378 4.35579 6.37787 4.00885 6.54113C3.65171 6.69419 3.36599 6.78603 3.36599 6.7248C3.36599 6.67378 3.3966 6.63297 3.44762 6.63297C3.48844 6.63297 3.65171 6.52072 3.81497 6.37787C4.21293 6.04113 5.44762 5.40848 6.10069 5.2146C6.62109 5.06154 8.10069 5.02072 8.77416 5.13297ZM8.49865 6.50031C8.48844 6.56154 8.45783 6.79623 8.44762 7.02072L8.41701 7.42889L7.80477 7.37787C7.08028 7.31664 7.08028 7.31664 7.00885 6.75542L6.95783 6.30644L7.73334 6.34725C8.23334 6.37787 8.50885 6.42889 8.49865 6.50031ZM6.52926 6.88807V7.34725H6.02926C5.75375 7.34725 5.45783 7.37787 5.3762 7.40848C5.12109 7.50031 5.02926 6.83705 5.26395 6.66358C5.36599 6.59215 5.50885 6.55133 5.58028 6.57174C5.65171 6.60235 5.73334 6.58195 5.76395 6.53093C5.80477 6.4697 5.98844 6.42889 6.18232 6.42889C6.52926 6.42889 6.52926 6.42889 6.52926 6.88807ZM10.1109 6.85746C10.3354 6.9697 10.5088 7.09215 10.4884 7.13297C10.2946 7.54113 9.90681 7.9595 9.72314 7.9595C9.59048 7.9595 9.48844 7.91868 9.48844 7.87787C9.48844 7.83705 9.32518 7.73501 9.12109 7.66358C8.84558 7.56154 8.77416 7.49011 8.82518 7.36766C8.86599 7.26562 8.91701 7.04113 8.94762 6.85746C9.00885 6.53093 9.01905 6.52072 9.35579 6.58195C9.54967 6.61256 9.8966 6.74521 10.1109 6.85746ZM4.67211 7.83705C4.02926 8.29623 3.57007 8.25542 3.57007 7.7248C3.57007 7.63297 3.51905 7.53093 3.45783 7.49011C3.33538 7.41868 3.75375 7.13297 4.23334 6.9697C4.52926 6.86766 4.54967 6.87787 4.72313 7.26562L4.91701 7.67378L4.67211 7.83705ZM11.5599 7.65338C12.2844 8.13297 12.2844 8.16358 11.7844 8.69419C11.5395 8.9595 11.3048 9.24521 11.2537 9.33705C11.1721 9.47991 11.1109 9.42889 10.866 9.06154C10.7129 8.81664 10.5191 8.58195 10.4374 8.54113C10.2333 8.41868 10.2742 8.29623 10.6823 7.79623C11.1313 7.26562 11.0191 7.28603 11.5599 7.65338ZM3.05987 7.78603C3.05987 7.85746 3.17211 8.08195 3.31497 8.29623C3.55987 8.64317 3.58028 8.87787 3.3762 8.87787C3.32518 8.87787 3.07007 8.67378 2.80477 8.42889L2.31497 7.97991L2.61089 7.82684C2.97824 7.62276 3.05987 7.61256 3.05987 7.78603ZM5.8864 10.735C6.24354 10.9085 6.52926 11.0922 6.52926 11.133C6.52926 11.2248 6.10069 11.3268 5.52926 11.3881C5.28436 11.4085 5.05987 11.4391 5.01905 11.4391C4.79456 11.4799 4.71293 11.4085 4.76395 11.2248C4.79456 11.1024 4.74354 10.9289 4.65171 10.8268C4.48844 10.6432 4.48844 10.6228 4.66191 10.5207C4.95783 10.3473 5.20273 10.3881 5.8864 10.735Z" fill="black"/>
<path d="M12.9787 9.65406C12.7338 9.82753 12.6726 10.2051 12.8869 10.2051C12.9685 10.2051 13.1012 10.1234 13.193 10.0214C13.5195 9.66426 13.346 9.38875 12.9787 9.65406Z" fill="black"/>
<path d="M1.42773 9.99106C1.42773 10.3278 1.70324 10.6849 1.85631 10.5319C2.05018 10.338 1.90733 9.74617 1.66243 9.71555C1.45835 9.68494 1.42773 9.72576 1.42773 9.99106Z" fill="black"/>
<path d="M2.38669 10.0411C2.29486 10.286 2.46832 10.7656 2.652 10.7656C2.88669 10.7656 2.88669 10.3677 2.6622 10.0922C2.47853 9.86767 2.45812 9.85746 2.38669 10.0411Z" fill="black"/>
<path d="M9.43793 10.0005C9.32569 10.1842 9.49916 10.3066 9.88691 10.3066C10.3155 10.3066 10.4175 10.2454 10.3359 10.0413C10.2747 9.87807 9.53997 9.83725 9.43793 10.0005Z" fill="black"/>
<path d="M13.1833 11.1027C12.969 11.2456 12.8976 11.9395 13.1017 11.9395C13.1935 11.9395 13.265 11.8986 13.265 11.8476C13.265 11.7966 13.3262 11.6844 13.4078 11.6027C13.7445 11.2762 13.5507 10.868 13.1833 11.1027Z" fill="black"/>
<path d="M12.1111 11.1835C11.9989 11.3059 12.0295 11.6835 12.1723 11.8773C12.2948 12.0406 12.3152 12.0406 12.4376 11.9079C12.7029 11.5814 12.3968 10.8977 12.1111 11.1835Z" fill="black"/>
<path d="M10.9989 12.1117C10.7234 12.4383 10.6112 12.9179 10.7642 13.1321C10.9377 13.3566 11.0295 13.2648 11.2642 12.6628C11.4173 12.2852 11.4173 12.1934 11.2948 12.0709C11.1826 11.9485 11.1316 11.9587 10.9989 12.1117Z" fill="black"/>
<path d="M3.49974 12.7451C2.91811 12.9389 2.69362 13.092 2.54056 13.3879C2.36709 13.7144 2.70382 13.7144 3.1528 13.3879C3.50994 13.1226 4.1528 12.9287 4.69362 12.9083C4.77525 12.9083 4.84668 12.8369 4.84668 12.7553C4.84668 12.5308 4.13239 12.5206 3.49974 12.7451Z" fill="black"/>
<path d="M11.622 12.8677C11.3975 13.0922 11.4077 13.2861 11.6526 13.3269C11.8873 13.3575 12.1934 12.7963 11.9893 12.7147C11.8975 12.6841 11.7342 12.7555 11.622 12.8677Z" fill="black"/>
</svg>
