<svg width="15" height="15" viewBox="0 0 15 15" fill="none" xmlns="http://www.w3.org/2000/svg">
<path d="M6.44222 1.48881C6.36529 1.54606 6.17299 1.60331 6.02876 1.60331C5.63452 1.60331 4.95183 2.06132 4.04799 2.943C3.1826 3.76743 2.52876 4.95827 2.15376 6.35522C2.07683 6.66438 1.96145 7.03079 1.90376 7.16819C1.85568 7.3056 1.79799 7.55751 1.77876 7.74071C1.75953 7.92392 1.72106 8.30178 1.6826 8.58804C1.65376 8.8743 1.62491 9.50407 1.61529 9.98499L1.60568 10.8667L1.34606 10.798C0.903756 10.6949 0.884525 10.9812 1.3076 11.4163C1.70183 11.8056 1.99029 11.8858 2.20183 11.6567C2.3076 11.5422 2.33645 11.5422 2.37491 11.6453C2.40376 11.7254 2.50953 11.7941 2.60568 11.7941C2.72106 11.7941 2.76914 11.7369 2.74029 11.6796C2.70183 11.5995 2.75953 11.5766 2.92299 11.6338C3.10568 11.6796 3.17299 11.6567 3.17299 11.5308C3.17299 11.4392 3.29799 11.1873 3.46145 10.9812C3.78837 10.5346 3.8076 10.4659 3.61529 10.3858C3.44222 10.3056 3.24991 10.4888 2.9326 11.0499L2.6826 11.4964L2.74029 10.9926C2.77876 10.7064 2.89414 10.1567 2.99991 9.75598C3.24029 8.83995 3.17299 8.49644 2.82683 8.9659C2.70183 9.13766 2.59606 9.38957 2.59606 9.50407C2.59606 9.61858 2.5576 9.75598 2.49991 9.79033C2.45183 9.82468 2.40376 10.0308 2.40376 10.2483C2.40376 10.6606 2.26914 10.8552 2.15376 10.6262C2.01914 10.3743 2.12491 8.46209 2.3076 7.72926C2.35568 7.53461 2.42299 7.2598 2.45183 7.09949C2.58645 6.28651 2.63453 6.12621 2.69222 6.06896C2.73068 6.03461 2.83645 5.8285 2.9326 5.61094C3.22106 4.92392 3.99029 3.56132 4.09606 3.56132C4.14414 3.54987 4.33645 3.36667 4.51914 3.14911C4.70183 2.93155 4.92299 2.74835 5.01914 2.74835C5.11529 2.74835 5.22106 2.66819 5.24991 2.57659C5.28837 2.48499 5.34606 2.42774 5.38452 2.46209C5.4326 2.49644 5.49029 2.47354 5.52876 2.40484C5.65376 2.16438 7.27876 1.84377 7.51914 2.01552C7.58645 2.06132 7.74029 2.11858 7.87491 2.13003C8.8076 2.25598 10.2403 3.67583 10.7884 5.03842C11.4038 6.57277 11.5191 6.91629 11.7307 7.95827C11.8461 8.51934 11.9614 9.09186 11.9903 9.21781C12.0768 9.65293 12.0288 10.4774 11.8845 10.9354C11.7595 11.3361 11.7403 11.3476 11.7403 11.0957C11.7307 10.6262 11.2499 9.28651 11.0095 9.04606C10.6826 8.72545 10.6249 9.11476 10.8845 9.75598C11.0191 10.088 11.1538 10.4774 11.1922 10.6148C11.2211 10.7636 11.2788 10.9926 11.3076 11.13C11.3653 11.3819 11.3653 11.3819 11.1922 11.2102C10.6249 10.6377 10.298 11.0155 10.8364 11.6109C11.2595 12.0804 11.5961 12.1377 11.7307 11.7598C11.7788 11.6224 11.8172 11.5766 11.8172 11.6453C11.8268 11.7254 11.9038 11.7941 11.9999 11.7941C12.1441 11.7941 12.2114 11.6453 12.3076 11.13C12.423 10.5232 12.9807 9.01171 13.1826 8.7598C13.3172 8.59949 13.2884 8.24453 13.1345 8.24453C13.0576 8.24453 12.8653 8.42774 12.7114 8.65674L12.423 9.06896L12.3749 8.7369C12.3461 8.56514 12.298 8.30178 12.2691 8.15293C12.2403 8.01552 12.1922 7.80942 12.1634 7.69491C11.3557 4.01934 10.0288 2.15293 7.75952 1.50026C7.20183 1.3514 6.63452 1.33995 6.44222 1.48881Z" fill="black"/>
<path d="M5.24937 3.90451C5.00899 4.13351 4.90322 4.58008 5.09552 4.58008C5.15322 4.58008 5.32629 4.44267 5.48014 4.27092C5.98014 3.7442 5.7686 3.41214 5.24937 3.90451Z" fill="black"/>
<path d="M8.49935 4.17942C8.39358 4.50003 8.96089 5.0611 9.16281 4.82064C9.23012 4.74049 9.21089 4.62598 9.07627 4.45423C8.78781 4.07637 8.56666 3.96186 8.49935 4.17942Z" fill="black"/>
<path d="M6.0869 5.16437C4.8369 5.93154 4.2119 7.5804 4.20229 10.1338C4.20229 10.6949 4.16383 11.2331 4.10613 11.3018C3.95229 11.5537 4.22152 11.8399 4.41383 11.6338C4.50037 11.5537 4.67344 11.4392 4.80806 11.3934C4.94267 11.3476 5.12537 11.2331 5.22152 11.13C5.30806 11.0384 5.38498 10.9926 5.38498 11.0384C5.38498 11.0728 5.50998 11.0384 5.67344 10.9354C5.82729 10.8438 6.09652 10.7636 6.2696 10.7636C6.44267 10.7751 6.67344 10.7751 6.77921 10.7751C7.30806 10.7636 7.41383 10.7751 7.62537 10.8667C7.77921 10.9354 7.8946 10.9354 7.97152 10.8438C8.04844 10.7522 8.07729 10.7522 8.07729 10.8438C8.07729 10.9125 8.25037 11.0041 8.45229 11.0499C8.66383 11.0957 9.02921 11.2789 9.2696 11.4506C9.7119 11.7941 10.0004 11.8056 9.9619 11.4964C9.95229 11.3934 9.87537 11.2789 9.80806 11.2216C9.72152 11.1529 9.68306 10.9583 9.69267 10.6606C9.72152 10.1109 9.54844 8.40482 9.45229 8.21017C9.41383 8.13002 9.37537 7.94681 9.36575 7.7865C9.34652 7.39719 8.9619 6.41246 8.82729 6.41246C8.7696 6.41246 8.75037 6.37811 8.77921 6.34376C8.8946 6.20635 8.52921 5.63383 8.20229 5.41627C8.02921 5.30177 7.88498 5.18727 7.88498 5.14147C7.88498 5.00406 7.13498 4.83231 7.03883 4.94681C6.98113 5.01551 6.92344 5.01551 6.88498 4.93536C6.78883 4.75215 6.72152 4.77505 6.0869 5.16437ZM8.07729 9.36666C8.07729 9.41246 8.00037 9.54986 7.91383 9.67582C7.7696 9.90482 7.7696 9.89337 7.81767 9.63002C7.85613 9.46971 7.82729 9.2636 7.75998 9.172C7.66383 9.0346 7.67344 9.02315 7.86575 9.1491C7.98114 9.2178 8.07729 9.32086 8.07729 9.36666Z" fill="black"/>
<path d="M3.84596 5.97669C3.52866 6.59502 3.65366 6.94998 3.98058 6.35456C4.06712 6.19425 4.11519 6.0683 4.07673 6.0683C4.03827 6.0683 4.06712 5.9996 4.12481 5.90799C4.20173 5.79349 4.21135 5.72479 4.14404 5.66753C4.08635 5.63318 3.95173 5.77059 3.84596 5.97669Z" fill="black"/>
<path d="M9.87577 5.69147C9.79885 5.85177 10.0969 6.52734 10.2315 6.52734C10.4527 6.52734 10.4815 6.37849 10.3181 5.97773C10.1835 5.63421 9.97193 5.49681 9.87577 5.69147Z" fill="black"/>
<path d="M12.9128 10.3857C12.5474 10.8094 12.2397 11.6452 12.384 11.817C12.5186 11.9773 12.7878 11.8513 12.7878 11.6109C12.7878 11.3933 13.1436 10.7636 13.384 10.5575C13.4801 10.4773 13.5571 10.3284 13.5571 10.2368C13.5571 9.97349 13.2109 10.0536 12.9128 10.3857Z" fill="black"/>
<path d="M7.64395 11.9094C7.53818 12.1041 7.70164 12.2644 7.96125 12.2415C8.10549 12.2186 8.27856 12.2415 8.34587 12.2987C8.57664 12.4705 8.73049 12.1499 8.51895 11.9552C8.29779 11.772 7.73049 11.7377 7.64395 11.9094Z" fill="black"/>
<path d="M5.3181 12.5148C5.25079 12.6407 5.34695 12.7438 5.55849 12.7781C5.64502 12.801 5.88541 12.8354 6.07772 12.8697C6.45272 12.9384 6.61618 12.8125 6.41425 12.6178C6.27002 12.469 5.38541 12.3888 5.3181 12.5148Z" fill="black"/>
<path d="M2.78835 12.9957C2.78835 13.0873 2.77873 13.2019 2.76912 13.2477C2.74989 13.282 2.91335 13.3278 3.12489 13.3393C3.33642 13.3622 3.56719 13.3851 3.64412 13.408C3.91335 13.4881 3.87489 13.0644 3.60566 12.9385C3.22104 12.7667 2.78835 12.7896 2.78835 12.9957Z" fill="black"/>
<path d="M9.17239 12.9851C9.05701 13.0996 9.01855 13.1912 9.08585 13.2599C9.23008 13.4202 10.2782 13.5118 10.3455 13.3744C10.4224 13.237 10.1147 12.9164 9.9897 12.9965C9.95124 13.0309 9.89355 13.008 9.85508 12.9393C9.76855 12.7675 9.39355 12.8019 9.17239 12.9851Z" fill="black"/>
</svg>
