<svg width="15" height="15" viewBox="0 0 15 15" fill="none" xmlns="http://www.w3.org/2000/svg">
<path d="M6.58244 1.11684C6.19702 1.29541 5.84285 1.61684 5.8116 1.8222C5.79077 1.95613 5.6866 2.01863 5.41577 2.06327C4.42619 2.1972 3.91577 2.92041 4.21785 3.74184C4.26994 3.8847 4.25952 3.92934 4.17619 3.89363C4.03035 3.81327 3.36369 4.15255 3.22827 4.37577C3.16577 4.46505 3.1241 4.67934 3.1241 4.84005C3.1241 5.10791 3.08244 5.14362 2.63452 5.26862C2.10327 5.42041 1.78035 5.71505 1.72827 6.12577C1.6866 6.41148 2.00952 7.03648 2.23869 7.10791C2.33244 7.14362 2.38452 7.28648 2.3741 7.53648C2.36369 7.96505 2.57202 8.23291 3.0616 8.45612C3.4366 8.62577 4.28035 8.53648 4.53035 8.30434C4.6866 8.15255 4.72827 8.15255 5.07202 8.27755C5.30119 8.35791 5.58244 8.3847 5.79077 8.34898C6.10327 8.30434 6.15535 8.33112 6.39494 8.64362C6.8116 9.20612 6.98869 9.65255 7.05119 10.2686L7.11369 10.849L6.65535 10.4293C5.76994 9.62577 4.4991 9.36684 3.1241 9.72398C2.70744 9.84005 2.25952 10.0186 2.11369 10.1436L1.86369 10.3579L2.10327 10.724C2.36369 11.1258 3.20744 11.8758 3.39494 11.8758C3.45744 11.8758 3.57202 11.9383 3.64494 12.0097C3.80119 12.1793 4.7491 12.4204 5.34285 12.4472C5.80119 12.474 6.48869 12.2954 6.79077 12.0811C7.04077 11.8936 7.15535 12.1168 7.23869 13.0186C7.32202 13.7508 7.32202 13.7597 7.59285 13.7329C7.84286 13.7061 7.86369 13.6704 7.89494 13.2061C7.93661 12.4561 8.10327 12.3668 9.36369 12.3668C10.9887 12.3668 11.947 11.8668 12.8533 10.5365C13.4991 9.59005 13.3741 9.41148 11.9783 9.3222C10.0616 9.1972 8.20744 10.2686 7.98869 11.6168C7.95744 11.7865 7.92619 11.9383 7.92619 11.9651C7.91577 11.9918 7.86369 11.9472 7.8116 11.8758C7.6866 11.6972 7.6866 10.4918 7.82202 10.0633C7.94702 9.67041 9.43661 8.28648 9.56161 8.4472C9.69702 8.62577 10.0824 8.75077 10.5095 8.75077C11.0512 8.75077 11.7387 8.22398 11.6866 7.84898C11.6762 7.81327 11.8637 7.73291 12.0929 7.65255C12.8845 7.3847 13.072 6.56327 12.4679 5.93827C12.2595 5.71505 12.1449 5.49184 12.1241 5.24184C12.0824 4.8222 11.6866 4.41148 11.197 4.30434C10.8845 4.23291 10.8116 4.12577 10.6762 3.55434C10.6449 3.42041 10.4991 3.25077 10.3324 3.17041C10.0929 3.04541 10.0512 2.96505 10.0512 2.6347C10.0512 2.02755 9.57202 1.64363 8.82202 1.67041C8.34286 1.67934 8.23869 1.65255 7.91577 1.3847C7.4991 1.05434 6.94702 0.938268 6.58244 1.11684ZM7.39494 1.65255C7.57202 1.73291 7.71785 1.84005 7.71785 1.90255C7.72827 1.95613 7.73869 2.06327 7.7491 2.1347C7.76994 2.36684 8.09286 2.46505 8.30119 2.30434C8.63452 2.04541 8.97827 2.02755 9.30119 2.25077C9.66577 2.5097 9.61369 2.8222 9.15536 3.1972C8.64494 3.60791 8.83244 3.81327 9.46786 3.53648C10.1345 3.23291 10.4679 3.89363 9.89494 4.37577C9.38452 4.80434 8.43661 4.65255 8.43661 4.15255C8.43661 3.99184 8.38452 3.99184 8.11369 4.10791C8.00952 4.16148 7.91577 4.27755 7.91577 4.36684C7.91577 4.45612 7.83244 4.62577 7.72827 4.73291C7.50952 4.95612 7.07202 4.86684 6.8741 4.55434C6.75952 4.36684 6.7491 4.37577 6.45744 4.64362C6.14494 4.92934 6.03035 4.96505 5.72827 4.8222C5.39494 4.67041 5.26994 4.3847 5.41577 4.14363C5.58244 3.8847 5.48869 3.66148 5.22827 3.72398C4.96785 3.77755 4.6866 3.52755 4.6866 3.25077C4.6866 2.80434 5.48869 2.42934 5.92619 2.67041C6.19702 2.8222 6.34285 2.68827 6.28035 2.35791C6.22827 2.09005 6.26994 2.0097 6.5616 1.78648C6.96785 1.47398 6.98869 1.47398 7.39494 1.65255ZM4.67619 4.60791C4.86369 4.74184 4.9991 4.92041 4.9991 5.04541C4.9991 5.34898 5.20744 5.4472 5.67619 5.35791C6.17619 5.2597 6.45744 5.37577 6.45744 5.67934C6.45744 5.9472 6.17619 6.34005 5.97827 6.34005C5.71785 6.34005 5.70744 6.52755 5.96785 6.73291C6.17619 6.90255 6.22827 7.0097 6.19702 7.23291C6.09285 7.90255 5.4991 8.04541 4.9366 7.53648C4.57202 7.21505 4.3741 7.1972 4.3741 7.5097C4.3741 7.7597 3.9991 8.03648 3.66577 8.03648C3.04077 8.03648 2.71785 7.58112 3.07202 7.17934C3.30119 6.92041 3.25952 6.78648 2.94702 6.78648C2.58244 6.78648 2.29077 6.54541 2.29077 6.24184C2.29077 5.84898 2.67619 5.61684 3.3741 5.59005C3.5616 5.58112 3.59285 5.51862 3.61369 5.18827C3.63452 4.67934 3.69702 4.56327 3.97827 4.46505C4.32202 4.34898 4.32202 4.34898 4.67619 4.60791ZM11.3324 4.90255C11.6033 5.09898 11.6449 5.54541 11.4054 5.71505C11.1762 5.8847 11.2595 6.09005 11.5616 6.1347C11.9887 6.17934 12.0824 6.23291 12.1762 6.46505C12.3845 6.91148 11.9574 7.29541 11.3949 7.17934C11.1658 7.12577 11.1449 7.14362 11.1449 7.47398C11.1449 8.30434 9.99911 8.49184 9.66577 7.70612C9.53036 7.3847 9.33244 7.34005 9.01994 7.54541C8.74911 7.72398 8.40536 7.71505 8.19702 7.51862C7.86369 7.1972 7.96786 6.76862 8.43661 6.60791C8.80119 6.47398 8.81161 6.45612 8.54077 6.16148C8.03036 5.59898 8.65536 4.90255 9.39494 5.22398C9.87411 5.42934 10.0616 5.39362 10.3012 5.04541C10.5512 4.67934 10.9366 4.62577 11.3324 4.90255ZM7.67619 5.35791C7.78035 5.35791 7.80119 5.41148 7.75952 5.53648C7.72827 5.62577 7.73869 5.84898 7.79077 6.01862C7.87411 6.27755 7.86369 6.35791 7.70744 6.47398C7.38452 6.72398 7.28035 7.31327 7.50952 7.55434C7.58244 7.6347 7.48869 8.01862 7.21785 8.75077C7.16577 8.86684 7.15535 8.86684 7.10327 8.75077C7.07202 8.67934 6.94702 8.47398 6.8116 8.29541C6.58244 7.98291 6.58244 7.96505 6.7491 7.56327C6.90535 7.1972 6.90535 7.12577 6.75952 6.86684C6.60327 6.59005 6.61369 6.55434 6.83244 6.27755C7.0616 5.98291 7.08244 5.75077 6.92619 5.41148C6.84285 5.2597 6.8741 5.24184 7.1866 5.29541C7.3741 5.33112 7.59285 5.35791 7.67619 5.35791ZM8.36369 8.61684C7.6866 9.25077 7.63452 9.23291 7.86369 8.43827C7.97827 8.06327 7.95744 8.0722 8.43661 8.10791L8.86369 8.14362L8.36369 8.61684ZM12.5199 9.99184C12.4783 10.1704 11.8741 10.9115 11.6241 11.099C11.072 11.5097 10.9679 11.5722 10.6658 11.6793C10.3116 11.8133 8.95744 11.8847 8.95744 11.7776C8.95744 11.6883 10.0408 11.1258 10.6554 10.9026C11.1866 10.7061 11.322 10.4472 10.8949 10.4472C10.6345 10.4472 9.76994 10.8133 8.98869 11.2597C8.46786 11.5543 8.45744 11.5454 8.80119 11.0276C9.13452 10.5454 9.65536 10.2329 10.5199 10.0097C11.5824 9.73291 12.5929 9.72398 12.5199 9.99184ZM5.4991 10.3311C5.65535 10.4293 5.85327 10.5276 5.9366 10.5543C6.11369 10.6079 6.51994 11.1615 6.38452 11.1615C6.33244 11.1615 6.05119 11.0811 5.7491 10.9918C5.45744 10.8936 5.00952 10.7954 4.76994 10.7597C4.51994 10.7329 4.23869 10.6793 4.14494 10.6615C4.03035 10.6347 3.95744 10.6615 3.95744 10.7329C3.95744 10.8758 4.47827 11.1615 4.7491 11.1615C4.98869 11.1615 6.45744 11.6347 6.45744 11.7061C6.45744 11.8311 5.46785 11.974 5.0616 11.9115C4.20744 11.7954 2.70744 10.8936 2.70744 10.5097C2.70744 10.1258 4.95744 9.98291 5.4991 10.3311Z" fill="black"/>
<path d="M6.7071 3.08185C6.5821 3.5015 7.0821 3.73364 7.43627 3.43007C7.72794 3.189 7.48835 2.85864 7.0196 2.85864C6.84252 2.85864 6.75919 2.92114 6.7071 3.08185Z" fill="black"/>
<path d="M4.10291 6.10819C3.94666 6.46534 4.32166 6.82248 4.66541 6.64391C5.05083 6.42962 4.88416 5.98319 4.40499 5.98319C4.26958 5.98319 4.13416 6.03677 4.10291 6.10819Z" fill="black"/>
<path d="M9.74924 6.24163C9.49924 6.47377 9.57215 6.72377 9.92632 6.82198C10.2805 6.92913 10.5617 6.81305 10.6034 6.52734C10.6763 6.09877 10.093 5.91127 9.74924 6.24163Z" fill="black"/>
</svg>
