<svg width="15" height="15" viewBox="0 0 15 15" fill="none" xmlns="http://www.w3.org/2000/svg">
<path d="M8.0328 1.4401C8.01267 1.45003 6.93549 1.48977 5.63683 1.50963C3.45227 1.5593 3.22072 1.57917 2.71737 1.79771C1.18717 2.43347 1.09656 2.73149 1.0865 7.05268C1.07643 11.4434 1.19723 12.2778 1.89186 12.7845C2.22408 13.0229 2.87844 13.2514 3.00931 13.1719C3.05965 13.1322 3.13012 13.152 3.16032 13.1918C3.23079 13.311 4.68046 13.3606 6.59321 13.311C6.70395 13.311 7.60999 13.301 8.60663 13.301C11.2945 13.301 11.7878 13.2414 12.3818 12.854C12.855 12.5461 13.1771 12.0692 13.2375 11.6023C13.459 9.94341 13.5093 9.30765 13.5093 7.4401C13.5093 6.25798 13.4791 4.97652 13.4489 4.60897C13.4086 4.23149 13.3684 3.74473 13.3482 3.52619C13.2576 2.51294 12.261 1.5891 11.2744 1.59904C10.9019 1.60897 8.54623 1.48977 8.28448 1.45003C8.15361 1.43016 8.04287 1.43016 8.0328 1.4401ZM8.37509 3.16857C8.30462 3.20831 8.20395 3.37718 8.16368 3.53612L8.08314 3.8242L7.96233 3.54606C7.90193 3.38712 7.76099 3.23811 7.65025 3.20831C7.41871 3.14871 7.37844 2.97983 7.59992 2.97983C7.68046 2.97983 7.80126 2.89043 7.87173 2.78116C7.99254 2.59241 8.0026 2.59241 8.25428 2.83082C8.44556 3.0295 8.47576 3.10897 8.37509 3.16857ZM11.8382 3.34738C11.8583 3.46659 11.8382 3.59573 11.7878 3.62553C11.6469 3.705 11.3751 3.38712 11.4456 3.21824C11.5261 2.9997 11.7979 3.0891 11.8382 3.34738ZM4.56972 3.63546C4.75093 3.705 4.78113 3.93347 4.63012 4.02288C4.47911 4.11228 4.22744 3.8838 4.2979 3.71493C4.35831 3.55599 4.35831 3.55599 4.56972 3.63546ZM2.81804 3.96327C2.98918 4.28116 2.83817 4.51957 2.60663 4.31096C2.32475 4.06261 2.35495 3.90367 2.68717 3.78447C2.69723 3.77453 2.75764 3.86394 2.81804 3.96327ZM8.35495 4.76791C8.17374 4.87718 8.0328 4.84738 7.98247 4.69837C7.93213 4.5593 8.27442 4.4699 8.40529 4.5891C8.46569 4.64871 8.45562 4.70831 8.35495 4.76791ZM7.92207 4.82751C7.96233 4.94672 7.46905 5.11559 7.36837 5.02619C7.34824 4.99639 7.37844 4.89705 7.44891 4.81758C7.58985 4.64871 7.86166 4.64871 7.92207 4.82751ZM12.0798 4.81758C12.0798 4.97652 11.8684 5.10566 11.4556 5.205C11.214 5.25467 11.1737 5.2348 11.1737 5.06592C11.1737 4.93678 11.2643 4.84738 11.4556 4.80765C11.6066 4.77784 11.7778 4.73811 11.8281 4.71824C12.0294 4.64871 12.0798 4.66857 12.0798 4.81758ZM6.95562 5.33414C6.83482 5.41361 6.66368 5.45334 6.57307 5.42354C6.49254 5.3838 6.36166 5.42354 6.30126 5.50301C6.13012 5.73149 5.6771 5.81096 5.60663 5.63215C5.54623 5.48314 6.06972 5.21493 6.23079 5.30433C6.27106 5.33414 6.412 5.2646 6.54287 5.16526C6.72408 5.02619 6.83482 5.00632 6.97576 5.08579C7.15697 5.1752 7.15697 5.18513 6.95562 5.33414ZM10.3684 5.16526C10.308 5.27453 10.2174 5.36394 10.157 5.36394C10.0966 5.36394 10.0764 5.40367 10.1066 5.44341C10.167 5.54275 9.84489 5.71162 9.412 5.81096C9.25093 5.85069 9.17039 5.91029 9.24086 5.93016C9.46233 6.00963 9.37173 6.12884 9.10999 6.09904C8.94891 6.0891 8.7375 6.17851 8.53616 6.33745C8.35495 6.48645 8.24421 6.55599 8.28448 6.48645C8.33482 6.40698 8.29455 6.40698 8.11334 6.48645C7.912 6.57586 7.89186 6.63546 7.98247 6.75467C8.07307 6.87387 8.07307 6.8838 7.95227 6.77453C7.81133 6.65533 7.45898 6.59573 7.58985 6.72486C7.62005 6.7646 7.34824 6.98314 6.97576 7.22155C6.412 7.5891 5.84824 8.10566 5.08314 8.95996C5.0026 9.0593 4.93213 9.17851 4.93213 9.23811C4.93213 9.28778 4.84153 9.37718 4.74086 9.43679C4.63012 9.48645 4.45898 9.66526 4.36837 9.8242C4.2677 9.98314 4.10663 10.1421 3.99589 10.1719C3.86502 10.2017 3.81468 10.2712 3.85495 10.3706C3.89522 10.4798 3.86502 10.5295 3.73415 10.5295C3.63348 10.5295 3.51267 10.45 3.48247 10.3606C3.4422 10.2613 3.4422 10.2216 3.48247 10.2514C3.61334 10.3904 3.80462 10.0825 3.71401 9.86394C3.66368 9.72486 3.66368 9.63546 3.72408 9.63546C3.78448 9.63546 3.82475 9.58579 3.82475 9.52619C3.82475 9.18844 4.43884 8.18513 4.56972 8.31427C4.59992 8.354 4.63012 8.30433 4.63012 8.205C4.63012 8.11559 4.67039 8.06592 4.73079 8.09573C4.78113 8.12553 4.83146 8.09573 4.83146 8.01626C4.83146 7.86725 5.27442 7.45003 5.7375 7.15202C5.86837 7.07255 6.18046 6.854 6.43213 6.66526C6.99589 6.24804 7.96233 5.75135 8.07307 5.82089C8.11334 5.85069 8.18381 5.80102 8.21401 5.72155C8.24421 5.63215 8.31468 5.58248 8.35495 5.61228C8.39522 5.64208 8.48582 5.59241 8.55629 5.51294C8.63683 5.41361 8.72744 5.39374 8.79791 5.45334C8.92878 5.56261 9.39186 5.2348 9.28113 5.10566C9.24086 5.05599 9.29119 5.08579 9.39186 5.16526C9.57307 5.30433 9.57307 5.30433 9.39186 5.37387C9.29119 5.41361 9.27106 5.45334 9.34153 5.45334C9.61334 5.47321 9.90529 5.25467 9.75428 5.15533C9.65361 5.08579 9.70395 5.07586 9.87509 5.12553C10.0261 5.15533 10.1771 5.13546 10.2073 5.07586C10.3382 4.87718 10.4791 4.95665 10.3684 5.16526ZM10.9724 5.22486C10.9724 5.30433 10.9523 5.36394 10.9321 5.36394C10.912 5.36394 10.8214 5.39374 10.7308 5.42354C10.5697 5.48314 10.4892 5.1752 10.6301 5.03612C10.7308 4.94672 10.9724 5.07586 10.9724 5.22486ZM3.72408 5.73149C3.72408 5.97983 3.62341 6.01957 3.4422 5.84076C3.26099 5.66195 3.30126 5.47321 3.52274 5.49308C3.66368 5.50301 3.72408 5.57255 3.72408 5.73149ZM5.48582 5.86063C5.54623 5.95003 5.18381 6.09904 4.93213 6.10897C4.8516 6.10897 4.78113 6.16857 4.78113 6.24804C4.78113 6.32751 4.71066 6.41692 4.63012 6.45665C4.54958 6.49639 4.37844 6.57586 4.2677 6.63546C4.1469 6.69506 4.01603 6.71493 3.98582 6.68513C3.89522 6.58579 4.33817 6.15864 4.53952 6.15864C4.63012 6.15864 4.78113 6.04937 4.87173 5.92023C5.02274 5.68182 5.35495 5.66195 5.48582 5.86063ZM10.8717 6.74473C10.8717 6.84407 10.8113 6.95334 10.7308 6.98314C10.6201 7.02288 10.5697 6.75467 10.6603 6.57586C10.7107 6.47652 10.8717 6.59573 10.8717 6.74473ZM9.86502 7.10235C9.86502 7.18182 9.91535 7.25135 9.97576 7.25135C10.0261 7.25135 10.0462 7.30102 10.006 7.36063C9.95562 7.4401 9.91535 7.4401 9.86502 7.35069C9.82475 7.28116 9.73415 7.26129 9.67374 7.29109C9.60327 7.34076 9.56301 7.28116 9.56301 7.16195C9.56301 7.04275 9.63348 6.95334 9.71401 6.95334C9.79455 6.95334 9.86502 7.02288 9.86502 7.10235ZM9.24086 7.28116C9.3214 7.37056 9.28113 7.4699 9.09992 7.63877C8.90864 7.82751 8.87844 7.89705 8.97911 7.95665C9.04958 8.00632 9.06972 8.04606 9.00931 8.04606C8.95898 8.04606 8.83817 7.99639 8.75764 7.94672C8.6469 7.87718 8.6469 7.84738 8.7375 7.84738C8.83817 7.84738 8.83817 7.79771 8.75764 7.63877C8.56636 7.29109 8.98918 6.97321 9.24086 7.28116ZM11.9187 7.50963C11.9489 7.5891 12.0395 7.64871 12.1301 7.64871C12.3415 7.64871 12.3214 7.77784 12.0798 7.94672C11.969 8.02619 11.8784 8.15533 11.8784 8.2348C11.8784 8.34407 11.8482 8.34407 11.6972 8.21493C11.5966 8.11559 11.4657 8.04606 11.4053 8.04606C11.1939 8.04606 11.1838 7.75798 11.3852 7.69837C11.4858 7.65864 11.5764 7.54937 11.5764 7.45003C11.5764 7.23149 11.8281 7.28116 11.9187 7.50963ZM4.40864 7.59904C4.27777 7.87718 4.04623 7.92685 3.95562 7.68844C3.89522 7.50963 4.07643 7.35069 4.34824 7.35069C4.49925 7.35069 4.50931 7.39043 4.40864 7.59904ZM8.22408 7.80765C8.25428 7.88712 8.22408 8.01626 8.16368 8.07586C8.0026 8.2348 7.55965 8.24473 7.62005 8.08579C7.64019 8.01626 7.60999 7.93679 7.55965 7.89705C7.36837 7.78778 7.53952 7.64871 7.86166 7.64871C8.04287 7.64871 8.18381 7.70831 8.22408 7.80765ZM2.32475 8.00632C2.37509 8.15533 2.39522 8.2944 2.36502 8.3242C2.33482 8.354 2.31468 8.3242 2.31468 8.2646C2.31468 8.19506 2.25428 8.14539 2.17374 8.14539C2.08314 8.14539 2.0328 8.05599 2.04287 7.94672C2.06301 7.66857 2.20394 7.69837 2.32475 8.00632ZM3.51267 8.40367C3.28113 8.65202 3.12005 8.71162 3.12005 8.54275C3.12005 8.39374 3.54287 8.04606 3.64354 8.10566C3.69388 8.14539 3.63348 8.27453 3.51267 8.40367ZM7.58985 8.50301C7.67039 8.70169 7.68046 8.68182 7.27777 8.82089C6.98582 8.92023 6.94556 8.9103 6.94556 8.75135C6.94556 8.38381 7.46905 8.18513 7.58985 8.50301ZM6.69388 8.83083C6.66368 8.88049 6.69388 8.95996 6.74421 8.98977C6.88515 9.06924 6.57307 9.43679 6.37173 9.43679C6.30126 9.43679 6.24086 9.41692 6.24086 9.39705C6.24086 9.37718 6.21066 9.28778 6.18046 9.20831C6.14019 9.10897 6.22072 8.9997 6.412 8.90036C6.75428 8.72155 6.77442 8.71162 6.69388 8.83083ZM2.97911 9.07917C2.96905 9.14871 2.88851 9.31758 2.7979 9.44672C2.6469 9.6752 2.62676 9.6752 2.55629 9.49639C2.50596 9.35732 2.54623 9.25798 2.7073 9.1189C2.98918 8.90036 3.00931 8.90036 2.97911 9.07917ZM10.6603 9.12884C10.7409 9.26791 10.7308 9.32751 10.6201 9.37718C10.469 9.42685 10.2274 9.1189 10.3382 8.9997C10.4489 8.89043 10.5597 8.93016 10.6603 9.12884ZM9.02945 10.2315C9.07978 10.4103 9.18046 10.4699 9.39186 10.4401C9.54287 10.4202 9.45227 10.6884 9.26099 10.8076C9.15025 10.8772 9.05965 11.0361 9.05965 11.1653C9.05965 11.5527 8.89858 11.5527 8.66703 11.1752C8.55629 10.9865 8.39522 10.8275 8.30462 10.8275C8.22408 10.8275 8.15361 10.7778 8.15361 10.7083C8.15361 10.6487 8.18381 10.6189 8.21401 10.6586C8.29455 10.7381 8.75764 10.3209 8.75764 10.162C8.75764 9.95334 8.96905 10.0129 9.02945 10.2315ZM12.0093 10.9467C12.0798 11.1553 11.969 11.3242 11.7778 11.3242C11.5261 11.3242 11.4254 11.1454 11.5764 10.9765C11.7274 10.7977 11.9489 10.7878 12.0093 10.9467ZM5.71737 11.652C5.7375 11.801 5.69723 11.9202 5.63683 11.9202C5.57643 11.9202 5.55629 11.8706 5.5865 11.8209C5.6167 11.7613 5.57643 11.7216 5.49589 11.7216C5.31468 11.7216 5.20395 11.5626 5.28448 11.4136C5.40529 11.2249 5.68717 11.3739 5.71737 11.652ZM3.25092 11.7613C3.32139 11.9302 3.02945 12.0692 2.88851 11.9302C2.83817 11.8805 2.82811 11.7911 2.85831 11.7315C2.95898 11.5725 3.19052 11.5924 3.25092 11.7613Z" fill="black"/>
</svg>
