<svg width="15" height="15" viewBox="0 0 15 15" fill="none" xmlns="http://www.w3.org/2000/svg">
<path d="M4.44843 1.99872C4.07857 2.24316 3.85254 2.64317 3.7498 3.25428C3.70871 3.4765 3.63679 3.66539 3.58542 3.66539C3.53405 3.66539 3.35939 3.93205 3.18473 4.24317C2.86624 4.84317 2.79432 5.40983 2.97925 5.78761C3.09227 5.99872 4.21213 7.05428 4.40734 7.12094C4.62309 7.19872 4.70528 9.94317 4.51008 10.3543C4.45871 10.4654 4.29432 10.5876 4.16076 10.6209C3.85254 10.6987 3.36966 11.2987 3.41076 11.5321C3.43131 11.6321 3.60597 11.8098 3.82172 11.9321C4.0272 12.0654 4.28405 12.2209 4.39706 12.2987C4.71556 12.5098 5.42446 12.0654 5.8046 11.4209C5.97925 11.1321 6.19501 10.8987 6.29775 10.8987C6.54432 10.8876 6.5135 11.0209 6.16419 11.4432C5.82514 11.8543 5.8046 11.9209 5.95871 12.2321C6.03062 12.3654 6.17446 12.4432 6.39021 12.4432C6.56487 12.4432 6.7909 12.5209 6.89364 12.6209C7.15049 12.8765 7.61282 12.7321 8.04432 12.2654C8.40391 11.8765 8.61966 11.8987 8.75323 12.3432C8.77377 12.4098 8.91761 12.4654 9.07172 12.4654C9.22583 12.4654 9.40049 12.5432 9.46213 12.6209C9.64706 12.8654 9.97583 12.7987 10.582 12.3987C10.9005 12.1876 11.2806 11.9765 11.4347 11.9432C11.5991 11.8987 11.8149 11.7209 11.9382 11.5543C12.1745 11.1987 12.5649 11.2432 13.2327 11.6876C13.6539 11.9654 13.9005 11.8209 13.6847 11.4321C13.5614 11.2321 13.5717 11.1654 13.7567 10.9543C14.1882 10.4543 13.8799 10.1987 13.3457 10.6209C12.8936 10.9765 12.8936 10.9765 13.2121 10.3321C13.3662 10.0209 13.5306 9.7765 13.582 9.7765C13.6231 9.7765 13.6642 9.64317 13.6642 9.48761C13.6642 9.02094 13.2635 9.1765 12.8936 9.78761C12.2669 10.8209 12.3286 10.7543 12.3799 10.4432C12.719 8.36539 12.3388 7.28761 10.6847 5.75428C10.582 5.64317 10.4484 5.42094 10.4176 5.25428C10.3765 5.0765 10.2224 4.76539 10.0683 4.55428C9.86281 4.26539 9.77035 3.98761 9.72925 3.52094C9.65734 2.6765 9.29775 2.18761 8.66076 2.04316C8.19843 1.94316 7.89021 2.05428 7.51008 2.43205C7.08884 2.86539 6.41076 2.80983 6.11282 2.33205C5.75323 1.74316 5.03405 1.60983 4.44843 1.99872ZM5.5272 2.43205C5.59912 2.4765 5.69158 2.66539 5.74295 2.84317C5.81487 3.13205 5.86624 3.16539 6.31829 3.19872C6.62651 3.22094 6.91419 3.32094 7.07857 3.45428C7.33542 3.6765 7.34569 3.6765 7.39706 3.4765C7.57172 2.75428 8.28062 2.38761 8.82514 2.73205C9.14364 2.93205 9.24638 3.25428 9.24638 3.99872C9.24638 4.32094 9.32857 4.50983 9.59569 4.82094C9.80117 5.06539 9.97583 5.42094 10.0272 5.69872C10.0991 6.06539 10.1916 6.19872 10.4279 6.32094C10.7464 6.4765 11.5067 7.40983 11.7635 7.96539C12.2258 8.9765 11.8868 11.1654 11.2293 11.3765C11.0443 11.4321 10.8902 11.5209 10.8902 11.5654C10.8902 11.6209 10.8388 11.6654 10.7772 11.6654C10.7258 11.6654 10.5101 11.7876 10.3046 11.9432C9.91418 12.2209 9.73953 12.2321 9.95528 11.9654C10.171 11.6654 9.83199 11.5098 9.45186 11.7209C9.20528 11.8654 9.13336 11.8654 9.16418 11.7543C9.22583 11.5543 9.68816 11.3209 10.1402 11.2654C10.3457 11.2321 10.5512 11.1876 10.5923 11.1543C10.7464 11.0543 10.695 10.7765 10.5306 10.7765C10.0991 10.7765 9.29775 9.93206 9.14364 9.33205C8.9998 8.75428 9.16418 8.32094 9.61624 8.05428L9.9861 7.84317L10.5101 8.14317C10.9005 8.36539 11.0546 8.40983 11.1162 8.30983C11.2395 8.0765 10.9416 7.73205 10.4484 7.53205C9.41076 7.10983 8.57857 7.89872 8.53747 9.33205C8.50665 10.4543 8.26008 11.1987 7.7361 11.7654C7.32514 12.2098 6.9861 12.3543 7.29432 11.9432C7.5409 11.6209 7.25323 11.4765 6.83199 11.6987C6.4724 11.8765 6.4724 11.8765 6.56487 11.6765C6.62651 11.5654 6.88336 11.3654 7.14021 11.2321C7.39706 11.0987 7.60254 10.9654 7.61282 10.9098C7.61282 10.8654 7.63336 10.7098 7.65391 10.5543C7.79775 9.39872 7.82857 8.46539 7.70528 8.38761C7.52035 8.26539 7.39706 8.45428 7.35597 8.95428C7.2224 10.3654 7.17103 10.5543 6.94501 10.5543C6.46213 10.5432 6.07172 10.1209 5.42446 8.89872C5.15734 8.39872 5.10597 8.18761 5.09569 7.54317V6.78761L4.70528 6.59872C4.48953 6.49872 4.10939 6.18761 3.85254 5.92094C3.22583 5.24317 3.22583 4.90983 3.85254 4.22094C4.20186 3.84317 4.29432 3.6765 4.25323 3.4765C4.18131 3.1765 4.5409 2.48761 4.80802 2.40983C5.10597 2.32094 5.38336 2.33205 5.5272 2.43205ZM5.47583 10.0432C5.78405 10.5432 5.73268 10.8321 5.20871 11.4098C4.84912 11.8321 4.5409 11.9209 4.74638 11.5543C4.92103 11.2543 4.80802 11.1876 4.37651 11.3098C3.86282 11.4654 3.91419 11.2876 4.46898 10.9987C4.72583 10.8654 4.94158 10.6987 4.95186 10.6321C4.95186 10.5543 4.9724 10.4432 4.98268 10.3876C5.00323 10.3209 5.0135 10.0765 5.02377 9.83206C5.03405 9.36539 5.06487 9.3765 5.47583 10.0432ZM9.26692 10.6654C9.4724 10.8765 9.4724 10.8876 9.28747 10.9432C9.18473 10.9876 9.02035 11.0543 8.92788 11.1098C8.79432 11.1876 8.78405 11.1543 8.87651 10.8209C9.01008 10.3765 8.98953 10.3876 9.26692 10.6654Z" fill="black"/>
<path d="M4.75626 3.02147C4.32476 3.59925 4.82818 4.22147 5.28024 3.67702C5.53709 3.36591 5.45489 2.9548 5.12613 2.91036C4.98229 2.88813 4.81791 2.94369 4.75626 3.02147Z" fill="black"/>
<path d="M8.03365 3.24269C7.72543 3.57602 7.96173 4.23158 8.36242 4.1538C8.81447 4.07602 8.87612 3.18714 8.42406 3.13158C8.28023 3.10936 8.10557 3.16491 8.03365 3.24269Z" fill="black"/>
<path d="M3.96616 4.98835C3.54493 5.72168 7.33603 6.27724 8.03466 5.58835C8.34288 5.28835 8.05521 5.05502 7.57233 5.19946C7.00726 5.36613 5.42507 5.33279 4.86 5.1439C4.59288 5.05502 4.29493 4.95502 4.20247 4.92168C4.11 4.88835 3.99699 4.92168 3.96616 4.98835Z" fill="black"/>
<path d="M6.07142 9.04369C5.91732 9.24369 6.318 9.92147 6.56458 9.86591C6.82142 9.81036 6.80088 9.61036 6.49266 9.23258C6.23581 8.92147 6.18444 8.88814 6.07142 9.04369Z" fill="black"/>
<path d="M2.17845 8.46549C2.02434 8.63216 2.02434 8.99882 2.1579 9.3766C2.20927 9.53216 2.28119 9.89882 2.32229 10.1877C2.35311 10.4877 2.40448 10.7544 2.4353 10.7988C2.45585 10.8544 2.44558 10.8877 2.39421 10.8877C2.35311 10.8877 2.199 10.6544 2.06544 10.3766C1.71612 9.68771 1.35653 9.3766 1.14078 9.60993C1.00722 9.75438 1.01749 9.80993 1.25379 10.0766C1.39763 10.2544 1.59284 10.5544 1.6853 10.7433C1.84969 11.0988 1.84969 11.1099 1.65448 11.1099C1.16133 11.1099 0.976397 11.3877 1.28462 11.6655C1.4079 11.7766 1.52092 11.7655 1.84969 11.621C2.07571 11.521 2.44558 11.4433 2.66133 11.4433C3.05174 11.4433 3.06201 11.4433 3.49352 10.4877C3.77092 9.89882 3.89421 9.49882 3.84284 9.44327C3.699 9.28771 3.31886 9.60993 3.09284 10.0766L2.9079 10.4766L2.83599 9.72104C2.73325 8.64327 2.4764 8.14327 2.17845 8.46549Z" fill="black"/>
<path d="M2.13765 12.4556C1.80888 12.589 1.70614 12.8223 1.90135 13.0001C2.00409 13.1001 2.09655 13.089 2.27121 13.0001C2.53833 12.8445 3.23696 12.9334 3.56573 13.1667C3.98696 13.4667 4.58285 13.5445 5.19929 13.3667C5.65135 13.2445 5.84655 13.2334 6.12395 13.3334C6.52463 13.4778 6.60682 13.4445 6.51436 13.189C6.44244 12.9667 5.80546 12.7334 5.56915 12.8334C5.04518 13.0556 4.41847 13.0001 3.78148 12.7001C3.08285 12.3556 2.56915 12.2778 2.13765 12.4556Z" fill="black"/>
<path d="M10.7566 13.1547C10.0374 13.5769 9.29771 13.688 8.80456 13.4658C8.44497 13.2991 8.16757 13.2991 7.91072 13.4436C7.6025 13.6213 7.76689 13.8658 8.1984 13.8547C8.40387 13.8547 8.82511 13.8991 9.13333 13.9658C9.78059 14.0991 10.3457 13.9769 10.8902 13.5769C11.1881 13.3547 11.3217 13.3213 11.6607 13.388C12.4107 13.5325 12.7806 13.5102 12.8217 13.3325C12.8422 13.2102 12.6778 13.1102 12.2463 12.9658C11.4758 12.7213 11.5272 12.7102 10.7566 13.1547Z" fill="black"/>
</svg>
