<svg width="15" height="15" viewBox="0 0 15 15" fill="none" xmlns="http://www.w3.org/2000/svg">
<path d="M7.26387 1.60695C7.22899 1.65998 7.1941 1.78876 7.18538 1.89482C7.17666 2.1827 6.97608 2.4024 6.49643 2.6827C5.84236 3.05392 5.07492 3.4024 5.02259 3.35695C4.99643 3.32664 4.97027 3.34937 4.97027 3.4024C4.97027 3.45543 4.93538 3.47816 4.89178 3.44786C4.84817 3.42513 4.78713 3.44028 4.75224 3.48573C4.71736 3.53119 4.66503 3.54634 4.62143 3.52361C4.57782 3.50089 4.5255 3.51604 4.49061 3.56149C4.46445 3.59937 4.3598 3.63725 4.26387 3.63725C4.17666 3.63725 4.09817 3.66755 4.09817 3.70543C4.09817 3.75089 4.02841 3.78119 3.94992 3.78119C3.86271 3.78119 3.54875 3.80392 3.25224 3.83422C2.72899 3.87967 2.70282 3.8721 2.43247 3.63725C2.08364 3.33422 1.77841 3.27361 1.71736 3.48573C1.67375 3.62967 2.17957 4.16755 2.35399 4.16755C2.52841 4.16755 2.46736 4.98573 2.25806 5.49331C1.93538 6.26604 1.70864 6.69028 1.38596 7.1221C1.10689 7.50089 1.04585 7.53876 0.740614 7.55392C0.339452 7.56907 0.22608 7.65998 0.304568 7.8721C0.348173 7.99331 0.391777 8.01604 0.505149 7.96301C0.583638 7.92513 0.670847 7.88725 0.69701 7.8721C0.88887 7.78876 1.74352 8.47816 1.74352 8.71301C1.74352 8.75846 1.78713 8.77361 1.83073 8.75088C1.87434 8.72816 1.91794 8.75846 1.91794 8.82664C1.91794 8.89482 1.97899 9.02361 2.04875 9.1221C2.12724 9.22058 2.20573 9.36452 2.22317 9.44028C2.24934 9.52361 2.33654 9.80392 2.42375 10.0766C2.6941 10.8948 2.63306 11.3266 2.19701 11.6827C1.67375 12.1069 1.59527 12.2585 1.88306 12.3191C2.0662 12.3569 2.17085 12.3115 2.4848 12.0463C2.90341 11.6903 3.10399 11.6524 3.79294 11.7736C3.9848 11.8115 4.21154 11.8418 4.29003 11.8418C4.36852 11.8494 4.42085 11.8721 4.39468 11.9024C4.3598 11.9479 4.71736 12.0691 4.92666 12.0842C4.97899 12.0842 5.17085 12.16 5.34527 12.2585C5.52841 12.3494 5.70282 12.4251 5.73771 12.4251C5.77259 12.4327 5.91213 12.5085 6.05166 12.6069C6.1912 12.713 6.35689 12.7736 6.42666 12.7509C6.49643 12.7282 6.54003 12.7433 6.52259 12.7963C6.50515 12.8418 6.6098 12.9554 6.74934 13.0539L6.99352 13.2282L6.81038 13.5463C6.58364 13.9403 6.57492 14.3645 6.80166 14.66C6.89759 14.7888 6.97608 14.8569 6.97608 14.8191C6.97608 14.7736 7.02841 14.8039 7.08945 14.8797C7.20282 15.016 7.22027 15.0085 7.5691 14.8569C7.99643 14.6676 8.1098 14.5085 8.1098 14.0994C8.1098 13.7282 8.03131 13.5463 7.9005 13.6145C7.84817 13.6372 7.83073 13.6372 7.86561 13.5994C7.9005 13.5691 7.89178 13.4857 7.84817 13.4176C7.80457 13.3418 7.80457 13.2509 7.83073 13.1979C8.00515 12.9554 9.47027 12.1979 9.88015 12.1448C10.0284 12.1221 10.2115 12.0691 10.2726 12.0312C10.3249 11.9857 10.3772 11.9782 10.3772 12.0009C10.3772 12.0312 10.447 12.0236 10.5342 11.9857C10.6127 11.9479 11.0226 11.8948 11.4412 11.8645L12.1999 11.8115L12.6098 12.16C12.8365 12.3494 13.0458 12.5009 13.072 12.5009C13.2115 12.4933 13.3598 12.3569 13.3075 12.2812C13.2726 12.2357 13.29 12.1979 13.3424 12.1979C13.3947 12.1979 13.3336 12.1145 13.2028 12.0085C13.072 11.9024 12.9325 11.8191 12.8976 11.8191C12.5662 11.8191 12.5488 10.5236 12.8627 9.58422C12.8714 9.53876 12.8802 9.49331 12.8889 9.47058C12.8889 9.44785 12.9848 9.27361 13.1069 9.08422C13.2377 8.88725 13.3162 8.71301 13.2988 8.6827C13.2726 8.65998 13.2813 8.6524 13.3075 8.67513C13.3424 8.69028 13.4383 8.62967 13.5168 8.53876C13.6127 8.44028 13.6389 8.35695 13.5865 8.32664C13.4819 8.26604 14.1272 7.91755 14.3017 7.94028C14.5284 7.97058 14.6767 7.83422 14.6069 7.65998C14.5633 7.53119 14.4935 7.50088 14.2406 7.51604C14.0226 7.53119 13.9005 7.49331 13.8133 7.38725C13.7522 7.30392 13.6563 7.19028 13.604 7.13725C13.5517 7.09179 13.5342 7.04634 13.5604 7.04634C13.5865 7.04634 13.5081 6.88725 13.3947 6.6827C13.1592 6.30392 12.7842 5.19028 12.8453 5.09937C12.8889 5.03119 12.7755 4.28119 12.6883 4.05392C12.6534 3.96301 12.6534 3.94028 12.7057 3.99331C12.8104 4.1221 13.7174 3.38725 13.6738 3.20543C13.6302 3.01604 13.4121 3.00089 13.1941 3.1827C13.0895 3.26604 12.9674 3.33422 12.9325 3.33422C12.8976 3.33422 12.7668 3.42513 12.6534 3.53119C12.5226 3.64482 12.3743 3.71301 12.2784 3.69028C12.1912 3.66755 12.104 3.6827 12.0778 3.71301C12.0255 3.78876 11.8685 3.77361 11.7028 3.6827C11.6418 3.6524 11.5633 3.63725 11.5371 3.65998C11.5197 3.6827 11.3365 3.6524 11.1447 3.59179C10.8743 3.50846 10.761 3.50846 10.665 3.56907C10.5691 3.63725 10.5604 3.62967 10.604 3.53119C10.6476 3.44028 10.604 3.40998 10.4383 3.40998C10.1679 3.40998 9.50515 3.16755 9.25224 2.97816C9.14759 2.9024 9.03422 2.84179 8.99934 2.84179C8.96445 2.84179 8.66794 2.67513 8.34527 2.47816C7.80457 2.14482 7.71736 2.04634 7.75224 1.86452C7.81329 1.59179 7.42957 1.38725 7.26387 1.60695ZM8.0662 2.73573C8.01387 2.79634 8.24934 2.96301 8.65922 3.13725C8.83364 3.22058 8.98189 3.31149 8.98189 3.34179C8.98189 3.3721 9.06038 3.38725 9.15631 3.3721C9.25224 3.35695 9.31329 3.3721 9.28713 3.40998C9.26096 3.44786 9.33073 3.49331 9.43538 3.52361C9.54875 3.55392 9.80166 3.63725 10.0022 3.72058C10.2115 3.79634 10.447 3.86452 10.5342 3.86452C10.6214 3.86452 10.7348 3.9024 10.7871 3.94786C10.9179 4.06149 11.197 4.08422 11.2668 3.98573C11.3104 3.92513 11.3365 3.9327 11.3365 3.99331C11.3365 4.04634 11.415 4.09179 11.5197 4.09179C11.79 4.09179 11.6854 4.24331 11.2232 4.52361C10.8307 4.76604 10.7871 4.77361 10.2639 4.72816C9.96736 4.69786 9.65341 4.67513 9.57492 4.66755C9.49643 4.66755 9.4441 4.64482 9.47027 4.61452C9.50515 4.55392 9.08654 4.44028 8.92085 4.46301C8.8598 4.47058 8.80748 4.44028 8.80748 4.39482C8.80748 4.35695 8.77259 4.31907 8.72899 4.31907C8.59817 4.31907 7.76968 3.80392 7.82201 3.75846C7.85689 3.73573 7.83945 3.71301 7.78713 3.71301C7.70864 3.71301 7.63887 2.84179 7.70864 2.73573C7.7348 2.70543 7.83073 2.6827 7.92666 2.6827C8.02259 2.6827 8.08364 2.70543 8.0662 2.73573ZM7.20282 3.59937C7.16794 3.74331 7.05457 3.87967 6.87143 3.97816C6.71445 4.06149 6.47027 4.19028 6.32201 4.27361C6.18248 4.34937 6.03422 4.44786 5.99934 4.50089C5.96445 4.54634 5.92957 4.56149 5.92957 4.53119C5.92957 4.50089 5.74643 4.54634 5.52841 4.62967C5.30166 4.71301 5.03131 4.78119 4.91794 4.78876C4.80457 4.79634 4.70864 4.82664 4.70864 4.84937C4.70864 5.04634 3.89759 4.77361 3.54875 4.45543C3.39178 4.31907 3.4005 4.31149 3.67957 4.21301C3.83654 4.1524 4.10689 4.08422 4.27259 4.05392C4.43829 4.02361 4.7348 3.94028 4.92666 3.86452C5.11852 3.78876 5.45864 3.65998 5.6941 3.57664C5.92085 3.48573 6.10399 3.37967 6.10399 3.33422C6.10399 3.28876 6.13887 3.26604 6.17375 3.28876C6.21736 3.31149 6.33073 3.25846 6.43538 3.1827C6.54003 3.09937 6.64468 3.03119 6.67957 3.03119C6.70573 3.03119 6.83654 2.96301 6.95864 2.8721L7.1941 2.71301L7.22027 3.03876C7.23771 3.22058 7.22899 3.47058 7.20282 3.59937ZM7.26387 4.6221C7.32492 5.14482 6.72317 5.75846 6.14759 5.75846C6.03422 5.75846 5.84236 5.78876 5.72027 5.82664C5.51968 5.89482 5.17957 5.75846 4.97027 5.52361C4.9441 5.50089 4.83073 5.4327 4.72608 5.38725C4.47317 5.27361 4.51678 5.22816 4.90922 5.1827C5.07492 5.16755 5.36271 5.09937 5.54585 5.02361C5.91213 4.88725 5.95573 4.8721 6.13015 4.85695C6.24352 4.84937 6.42666 4.74331 6.87143 4.41755C7.1505 4.22816 7.22899 4.26604 7.26387 4.6221ZM7.97899 4.39482C8.01387 4.44028 8.31038 4.59179 8.64178 4.73573C8.97317 4.87967 9.22608 4.96301 9.19992 4.9327C9.17375 4.89482 9.31329 4.92513 9.49643 5.00846C9.68829 5.08422 9.94992 5.1524 10.072 5.1524C10.1941 5.1524 10.29 5.1827 10.29 5.22816C10.29 5.26604 10.229 5.30392 10.1592 5.30392C10.0982 5.30392 10.0022 5.34937 9.96736 5.4024C9.85399 5.55392 9.4441 5.75846 9.24352 5.75846C9.12143 5.75846 9.07782 5.78876 9.12143 5.84937C9.15631 5.9024 9.11271 5.89482 9.01678 5.83422C8.92957 5.76604 8.70282 5.66755 8.51096 5.61452C8.14468 5.50846 7.74352 5.23573 7.81329 5.14482C7.83073 5.11452 7.82201 5.06907 7.77841 5.04634C7.63887 4.97058 7.65631 4.31907 7.79585 4.31907C7.86561 4.31907 7.95282 4.35695 7.97899 4.39482ZM12.2697 4.52361C12.2784 4.64482 12.4092 5.26604 12.5052 5.64482C12.6534 6.25089 13.1592 7.34937 13.2813 7.34937C13.3249 7.34937 13.3336 7.37967 13.3075 7.41755C13.2813 7.45543 12.9674 7.48573 12.6098 7.49331L11.9557 7.50088L11.729 7.16755C11.5633 6.92513 11.4586 6.84179 11.354 6.86452C11.2493 6.89482 11.2406 6.88725 11.3104 6.84179C11.4325 6.76604 11.4063 6.53876 11.2493 6.28876C11.197 6.19785 11.1272 5.91755 11.0924 5.65998L11.0313 5.19028L11.5197 4.8721C11.79 4.69786 12.0429 4.52361 12.0691 4.47816C12.165 4.35695 12.261 4.37967 12.2697 4.52361ZM3.01678 4.53876C2.99061 4.56907 3.18248 4.76604 3.4441 4.97058C3.89759 5.31907 3.92375 5.35695 3.91503 5.6827C3.88887 6.47816 3.26968 7.64482 2.92957 7.53119C2.85108 7.50088 2.79003 7.52361 2.79003 7.57664C2.79003 7.64482 2.76387 7.6524 2.67666 7.58422C2.60689 7.53876 2.52841 7.52361 2.50224 7.54634C2.47608 7.57664 2.26678 7.56907 2.04875 7.53876C1.67375 7.49331 1.65631 7.47816 1.76968 7.36452C1.96154 7.16755 2.17957 6.76604 2.11852 6.71301C2.08364 6.69028 2.14468 6.59179 2.24061 6.49331C2.42375 6.31149 2.56329 6.06149 2.53713 5.95543C2.52841 5.92513 2.56329 5.84937 2.62434 5.78876C2.67666 5.73573 2.6941 5.6524 2.65922 5.60695C2.63306 5.56907 2.64178 5.53119 2.6941 5.53119C2.73771 5.53119 2.80748 5.3721 2.83364 5.16755C2.89468 4.81907 2.94701 4.53119 2.95573 4.48573C2.96445 4.47816 2.99061 4.47058 3.01678 4.47058C3.04294 4.47058 3.04294 4.50089 3.01678 4.53876ZM10.7086 5.72058C10.761 5.81907 10.7784 5.92513 10.7348 5.94028C10.6563 5.98573 10.9528 6.78876 11.1883 7.17513C11.3627 7.46301 11.3278 7.49331 10.7697 7.46301C10.0458 7.4327 10.0197 7.42513 10.072 7.34937C10.0982 7.30392 10.0895 7.27361 10.0371 7.27361C9.95864 7.27361 9.76678 6.82664 9.72317 6.55392C9.69701 6.37967 9.94992 5.97816 10.2203 5.76604C10.5691 5.48573 10.5865 5.48573 10.7086 5.72058ZM4.66503 5.83422C4.76096 5.95543 4.89178 6.06149 4.95282 6.06149C5.04003 6.06149 5.05747 6.1827 5.02259 6.60695C4.96154 7.31907 4.75224 7.53119 4.09817 7.53876C3.67957 7.53876 3.55748 7.48573 3.74934 7.38725C3.80166 7.35695 3.8191 7.30392 3.79294 7.26604C3.75806 7.22816 3.78422 7.19785 3.82782 7.19785C3.88015 7.19785 3.92375 7.15998 3.92375 7.10695C3.92375 7.06149 3.99352 6.95543 4.08073 6.8721C4.18538 6.75846 4.1941 6.73573 4.09817 6.78119C3.9848 6.84179 3.9848 6.83422 4.08945 6.72058C4.1505 6.6524 4.17666 6.59179 4.14178 6.59179C4.10689 6.59179 4.11561 6.54634 4.16794 6.49331C4.22027 6.44785 4.28131 6.22816 4.29875 6.02361C4.3598 5.56907 4.34236 5.60695 4.42957 5.60695C4.46445 5.60695 4.5691 5.71301 4.66503 5.83422ZM8.10108 5.91755C8.31038 6.00089 8.54585 6.07664 8.64178 6.08422C8.72899 6.09179 8.80748 6.12967 8.80748 6.16755C8.80748 6.28876 7.78713 7.10695 7.69992 7.05392C7.62143 7.00089 7.60399 5.75846 7.68248 5.75846C7.70864 5.75846 7.9005 5.82664 8.10108 5.91755ZM7.21154 6.59937L7.22027 7.25088L7.02841 7.09179C6.92375 7.00846 6.65341 6.78876 6.42666 6.60695C5.99061 6.26604 5.92085 6.13725 6.17375 6.12967C6.25224 6.12967 6.46154 6.08422 6.62724 6.03119C7.16794 5.84937 7.1941 5.87967 7.21154 6.59937ZM6.38306 7.14482C6.72317 7.44028 6.63596 7.50088 5.87724 7.50088C5.28422 7.50088 5.23189 7.48573 5.31038 7.36452C5.35399 7.29634 5.38887 7.19785 5.39759 7.15998C5.40631 7.02361 5.51096 6.62967 5.55457 6.56907C5.59817 6.50846 5.8162 6.65998 6.38306 7.14482ZM9.29585 6.58422C9.26968 6.6221 9.31329 6.81149 9.38306 7.00089C9.46155 7.19785 9.51387 7.3721 9.49643 7.38725C9.45282 7.41755 9.01678 7.44028 8.50224 7.4327L8.0662 7.42513L8.60689 6.97058C9.06038 6.58422 9.45282 6.36452 9.29585 6.58422ZM6.73189 7.91755C6.63596 8.05392 6.26096 8.42513 5.99061 8.62967L5.75515 8.81149L5.57201 8.42513C5.46736 8.20543 5.32782 8.03119 5.26678 8.03119C5.19701 8.03119 5.14468 8.00088 5.14468 7.96301C5.14468 7.92513 5.26678 7.9024 5.40631 7.90998C5.55457 7.91755 5.84236 7.90998 6.04294 7.88725C6.69701 7.81149 6.80166 7.81149 6.73189 7.91755ZM9.66213 7.90998C9.68829 7.94028 9.65341 8.05392 9.57492 8.16755C9.49643 8.28876 9.40922 8.47816 9.39178 8.60695C9.35689 8.8721 9.30457 8.86452 8.8598 8.54634C8.23189 8.09937 8.08364 7.92513 8.26678 7.8721C8.4412 7.81149 9.58364 7.84937 9.66213 7.90998ZM4.75224 8.03119C4.97027 8.19028 5.25806 8.64482 5.28422 8.88725C5.3191 9.09179 5.25806 9.17513 4.88306 9.48573C4.47317 9.81907 4.11561 9.99331 4.34236 9.75088C4.51678 9.56149 4.27259 8.63725 3.91503 8.13725L3.74934 7.89482L4.18538 7.91755C4.42085 7.92513 4.68247 7.97816 4.75224 8.03119ZM11.511 7.97058C11.511 8.00088 11.3802 8.20543 11.2145 8.4327C10.9267 8.82664 10.822 9.1524 10.8133 9.72058C10.8133 10.0615 10.7174 10.0388 10.1418 9.55392C9.81038 9.27361 9.78422 9.22058 9.81038 8.92513C9.83655 8.58422 10.0633 8.03119 10.2028 7.95543C10.3336 7.88725 11.511 7.9024 11.511 7.97058ZM13.1854 8.20543C12.5488 9.00088 12.1999 9.92513 12.1738 10.8115C12.1738 10.9857 12.1476 11.1069 12.1214 11.0766C12.0081 10.9403 11.5807 10.7585 11.4935 10.8039C11.4325 10.8418 11.4238 10.8266 11.4586 10.766C11.5022 10.713 11.4674 10.6145 11.3889 10.5388C11.2145 10.3721 11.1796 9.29634 11.3365 9.1221C11.3976 9.06149 11.415 9.01604 11.3802 9.01604C11.3453 9.01604 11.3714 8.95543 11.4325 8.88725C11.5371 8.78119 11.5371 8.76604 11.4238 8.81907C11.3104 8.8721 11.3104 8.86452 11.4238 8.77361C11.4935 8.72058 11.6679 8.53119 11.8075 8.34937C12.1302 7.94028 12.1738 7.91755 12.8627 7.9024L13.4383 7.87967L13.1854 8.20543ZM3.33945 8.09179C3.6098 8.34937 3.9412 9.19028 3.9848 9.70543L4.02841 10.1979L3.55748 10.5918C3.04294 11.0312 2.97317 11.0009 2.92957 10.3266C2.92085 10.16 2.8598 9.96301 2.79875 9.89482C2.72027 9.81149 2.71154 9.77361 2.78131 9.77361C2.83364 9.77361 2.87724 9.73573 2.87724 9.69028C2.87724 9.6524 2.84236 9.62967 2.79875 9.6524C2.75515 9.67513 2.72027 9.60695 2.72899 9.49331C2.72899 9.37967 2.67666 9.27361 2.62434 9.25846C2.57201 9.24331 2.52841 9.1827 2.52841 9.12967C2.52841 8.98573 2.17085 8.42513 1.95282 8.21301C1.69992 7.97816 1.75224 7.95543 2.52841 7.95543C3.0691 7.95543 3.22608 7.98573 3.33945 8.09179ZM7.23771 8.94028C7.23771 9.35695 7.22027 9.69785 7.20282 9.69785C7.08073 9.69785 6.89759 9.59937 6.92375 9.55392C6.94992 9.52361 6.78422 9.41755 6.55748 9.31149C6.33073 9.21301 6.13015 9.1221 6.11271 9.11452C6.10399 9.10695 6.13887 9.03119 6.20864 8.94785C6.27841 8.85695 6.35689 8.80392 6.38306 8.82664C6.40922 8.84937 6.58364 8.71301 6.76678 8.53119C6.94992 8.34937 7.13306 8.19028 7.17666 8.19028C7.21154 8.1827 7.23771 8.52361 7.23771 8.94028ZM8.4412 8.79634L8.96445 9.22058L8.59817 9.32664C8.40631 9.37967 8.1098 9.48573 7.96154 9.56149C7.80457 9.63725 7.67375 9.69028 7.67375 9.67513C7.67375 9.66755 7.64759 9.31907 7.61271 8.90998C7.55166 8.03876 7.50806 8.04634 8.4412 8.79634ZM6.08654 9.59179C6.37434 9.63725 6.57492 9.75088 6.95864 10.0766C7.21154 10.2963 7.23771 10.3645 7.23771 10.766C7.23771 11.213 7.07201 11.3872 6.9412 11.0918C6.90631 11.0236 6.86271 10.9857 6.83654 11.0085C6.80166 11.0312 6.70573 10.9933 6.61852 10.9176C6.43538 10.7736 5.6941 10.4327 5.49352 10.4024C5.42375 10.3872 5.20573 10.3645 5.01387 10.3494C4.82201 10.3266 4.64759 10.3115 4.63015 10.3115C4.61271 10.3039 4.76968 10.1448 4.97899 9.95543C5.36271 9.61452 5.6505 9.45543 5.78131 9.52361C5.8162 9.53876 5.95573 9.57664 6.08654 9.59179ZM9.65341 9.74331C9.67957 9.79634 9.72317 9.84179 9.75806 9.82664C9.78422 9.81149 9.95864 9.9327 10.1418 10.0918C10.4645 10.3645 10.4732 10.3797 10.2726 10.3872C9.86271 10.3948 9.39178 10.463 9.2348 10.5312C9.14759 10.5766 8.99061 10.6069 8.87724 10.6069C8.63306 10.6145 7.99643 10.9403 8.08364 11.016C8.11852 11.0463 8.08364 11.0463 8.00515 11.0236C7.92666 10.9933 7.83945 11.016 7.80457 11.0539C7.68248 11.2282 7.61271 11.0539 7.63887 10.6448C7.64759 10.3721 7.70864 10.1676 7.80457 10.0766C7.97899 9.90998 8.67666 9.60695 8.98189 9.56907C9.09527 9.54634 9.20864 9.52361 9.2348 9.50846C9.29585 9.45543 9.60108 9.62967 9.65341 9.74331ZM5.62434 10.8494C6.71445 11.266 7.09817 11.5842 7.21154 12.1524C7.33364 12.7585 7.17666 12.9176 6.7755 12.5766C6.6098 12.4403 6.45282 12.3645 6.37434 12.3872C6.29585 12.41 6.26968 12.41 6.30457 12.3797C6.40922 12.2888 5.38887 11.7736 5.22317 11.8342C5.18829 11.8494 5.08364 11.7963 4.99643 11.7206C4.9005 11.6524 4.80457 11.6069 4.77841 11.6297C4.75224 11.6524 4.55166 11.5994 4.32492 11.5085C4.08945 11.4251 3.82782 11.3645 3.74061 11.3872C3.65341 11.41 3.57492 11.3948 3.57492 11.3494C3.57492 11.3039 3.50515 11.2963 3.42666 11.3191C3.33945 11.3494 3.46154 11.213 3.69701 11.0312C4.23771 10.5994 4.84817 10.5463 5.62434 10.8494ZM11.0139 10.8342C11.1447 10.8872 11.2493 10.963 11.2493 11.0009C11.2493 11.0312 11.3191 11.0615 11.3976 11.0615C11.4761 11.0615 11.511 11.0842 11.4848 11.1145C11.4499 11.1372 11.511 11.213 11.6156 11.2736L11.7988 11.3872L11.6156 11.4479C11.511 11.4857 11.3627 11.4933 11.2929 11.4706C11.2232 11.4403 11.1621 11.4554 11.1621 11.4857C11.1621 11.5236 11.0139 11.5539 10.8395 11.5463C10.4121 11.5388 10.1941 11.5918 10.2639 11.6903C10.29 11.7357 10.2726 11.7433 10.2115 11.713C10.0807 11.6372 9.05166 11.9403 8.77259 12.1297C8.65922 12.2054 8.53713 12.2736 8.50224 12.2736C8.46736 12.2736 8.32782 12.3569 8.17957 12.463C7.86561 12.6979 7.63887 12.713 7.69992 12.5009C7.72608 12.4176 7.70864 12.3494 7.65631 12.3494C7.61271 12.3494 7.60399 12.3115 7.63887 12.2585C7.68248 12.2054 7.69992 12.0691 7.6912 11.963C7.66503 11.6372 8.3191 11.1145 8.87724 11.016C8.94701 11.0085 9.06038 10.9706 9.13887 10.9403C9.30457 10.8797 9.39178 10.8645 9.9412 10.7963C10.1505 10.7736 10.3424 10.7357 10.3598 10.7206C10.4121 10.6751 10.7697 10.7357 11.0139 10.8342ZM7.63015 13.8721C7.74352 14.0312 7.58654 14.4706 7.42085 14.4706C7.12434 14.4706 6.97608 14.016 7.18538 13.7282C7.25515 13.6297 7.5255 13.7206 7.63015 13.8721Z" fill="black"/>
</svg>
