<svg width="15" height="15" viewBox="0 0 15 15" fill="none" xmlns="http://www.w3.org/2000/svg">
<path d="M8.75003 1.74953C7.12503 2.47175 4.68753 4.55508 4.68753 5.24953C4.68753 5.49953 4.03128 6.19397 3.25003 6.77731C2.46878 7.36064 1.59378 8.27731 1.31253 8.80508C0.812532 9.74953 0.812532 9.80508 1.46878 10.2773C1.84378 10.5551 2.81253 10.8606 3.59378 10.9718C4.71878 11.1106 5.00003 11.2495 4.87503 11.5829C4.78128 11.8051 4.68753 12.1106 4.68753 12.2773C4.68753 12.444 4.50003 12.444 4.21878 12.2218C3.71878 11.8606 3.59378 12.1384 4.00003 12.6384C4.56253 13.3884 10.1875 13.2773 11.0313 12.5273C11.3125 12.2773 11.2813 12.2218 10.8125 12.3884C10.4063 12.5273 10.2813 12.4995 10.4375 12.2773C10.7188 11.8329 10.2188 11.8606 9.75003 12.2773C9.46878 12.5273 9.37503 12.4995 9.37503 12.1662C9.37503 11.9162 9.28128 11.5273 9.18753 11.2773C9.03128 10.9162 9.25003 10.8329 10.4688 10.8329C12.25 10.8329 13.125 10.444 13.125 9.63842C13.125 8.97175 12.4063 7.86064 11.625 7.30508C10.875 6.74953 10.8438 3.58286 11.5938 3.4162C12.3125 3.24953 12.3438 2.55508 11.6875 1.72175C11.0938 0.943973 10.5313 0.943973 8.75003 1.74953ZM11.625 2.47175C11.9063 3.13842 11.875 3.13842 11.25 2.63842C10.625 2.13842 10.625 2.13842 10.5625 2.94397C10.5625 3.38842 10.5625 4.05508 10.5938 4.4162C10.6563 4.94397 10.5625 5.02731 10.0938 4.86064C8.34378 4.19397 7.03128 3.88842 6.65628 4.02731C5.56253 4.38842 6.59378 3.38842 8.15628 2.55508C10.0938 1.49953 11.2188 1.47175 11.625 2.47175ZM8.90628 4.83286C10.125 5.30508 10.2188 5.47175 9.53128 6.27731C9.12503 6.77731 9.03128 6.77731 8.15628 6.36064C7.56253 6.02731 7.15628 5.97175 6.93753 6.1662C6.34378 6.69397 5.84378 6.08286 6.43753 5.52731C6.93753 5.02731 6.93753 4.99953 6.28128 4.99953C5.90628 4.99953 5.65628 5.11064 5.78128 5.24953C5.87503 5.38842 5.81253 5.58286 5.62503 5.69397C5.28128 5.88842 5.18753 4.9162 5.53128 4.63842C5.87503 4.30508 7.78128 4.4162 8.90628 4.83286ZM10.9375 5.97175C10.9375 6.19397 10.8125 6.38842 10.625 6.38842C10.4688 6.38842 9.96878 6.97175 9.50003 7.6662C9.00003 8.4162 8.56253 8.80508 8.43753 8.63842C8.31253 8.4162 8.03128 8.49953 7.65628 8.88842C7.00003 9.52731 6.40628 9.63842 6.68753 9.02731C6.90628 8.49953 6.59378 8.49953 5.90628 9.05508C5.28128 9.55508 4.40628 9.30508 4.96878 8.80508C5.50003 8.33286 5.37503 7.94397 4.84378 8.33286C4.15628 8.83286 4.00003 8.55508 4.25003 7.36064C4.46878 6.24953 5.06253 5.86064 5.78128 6.38842C6.03128 6.58286 6.59378 6.6662 7.00003 6.55508C7.43753 6.47175 7.87503 6.49953 7.96878 6.6662C8.31253 7.1662 9.34378 6.94397 9.90628 6.24953C10.5625 5.47175 10.9375 5.36064 10.9375 5.97175ZM11.3125 7.69397C12.375 8.52731 11.8125 9.72175 10.5938 9.1662C9.90628 8.83286 9.90628 8.80508 10.4688 8.44397C10.9688 8.11064 11 8.05508 10.5313 8.05508C10.25 8.05508 9.87503 8.27731 9.71878 8.52731C9.53128 8.80508 9.37503 8.9162 9.37503 8.80508C9.37503 8.52731 10.3438 7.22175 10.5625 7.22175C10.6563 7.22175 11 7.4162 11.3125 7.69397ZM3.59378 8.6662C4.03128 8.83286 4.37503 9.13842 4.37503 9.33286C4.37503 9.74953 7.00003 9.80508 7.84378 9.4162C8.25003 9.22175 8.40628 9.33286 8.50003 9.86064C8.65628 10.5551 8.65628 10.5551 6.09378 10.5551C2.93753 10.5551 1.56253 10.194 1.56253 9.33286C1.56253 8.27731 2.15628 8.08286 3.59378 8.6662ZM12.5938 9.9162C12.5 10.1106 12.3125 10.2773 12.1875 10.2773C12.0313 10.2773 11.6563 10.3606 11.3438 10.4718C10.9063 10.6384 10.9375 10.4995 11.5625 9.83286C12.3125 9.02731 12.9375 9.08286 12.5938 9.9162ZM10.4688 9.55508C11.0313 9.9162 11.0313 9.94397 10.4375 10.194C10 10.3884 9.71878 10.3329 9.31253 9.97175C8.93753 9.63842 8.90628 9.44397 9.15628 9.33286C9.75003 9.13842 9.84378 9.13842 10.4688 9.55508ZM8.71878 11.7218C9.06253 12.5273 8.65628 12.7773 7.12503 12.7773C5.37503 12.7773 4.96878 12.5829 5.34378 11.8329C5.84378 10.8884 8.34378 10.8329 8.71878 11.7218Z" fill="black"/>
</svg>
