<svg width="15" height="15" viewBox="0 0 15 15" fill="none" xmlns="http://www.w3.org/2000/svg">
<path d="M10.7764 2.13733C10.7535 2.1646 10.5009 2.19187 9.26113 2.31915C8.41164 2.41005 7.6693 2.4646 6.88868 2.51005C5.96266 2.5646 5.75603 2.59187 5.5647 2.68278C5.49583 2.71915 5.1897 2.72824 4.89889 2.71005C4.60042 2.68278 4.36317 2.70096 4.36317 2.73733C4.36317 2.78278 4.3096 2.79187 4.24838 2.7646C4.16419 2.71915 4.14123 2.75551 4.1795 2.87369C4.21011 2.99187 4.20246 3.01005 4.15654 2.92824C3.94225 2.58278 3.04685 2.81005 2.18205 3.43733C2.0596 3.52824 1.95246 3.64642 1.95246 3.69187C1.95246 3.73733 1.83766 3.91915 1.70756 4.09187C1.56981 4.2646 1.45501 4.44642 1.45501 4.48278C1.45501 4.52824 1.39379 4.67369 1.3096 4.80096C1.1795 5.02824 1.03409 5.63733 1.0494 5.88278C1.0494 5.94642 1.01879 6.00096 0.98052 6.00096C0.934601 6.00096 0.919295 6.0646 0.949908 6.13733C0.972867 6.21005 0.957561 6.2646 0.911642 6.24642C0.865724 6.23733 0.819806 6.41005 0.804499 6.63733C0.789193 6.8646 0.743275 7.28278 0.70501 7.57369C0.666744 7.85551 0.643785 8.18278 0.659091 8.30096C0.666744 8.41005 0.697357 8.7646 0.720316 9.08278C0.750928 9.40096 0.796846 9.72824 0.835112 9.81005C0.873377 9.89187 0.926948 10.1191 0.957561 10.3191C0.988173 10.5191 1.07236 10.8555 1.15654 11.0646C1.23307 11.2737 1.30195 11.4828 1.30195 11.5282C1.30195 11.5737 1.47032 11.8101 1.6846 12.0555C2.10552 12.5464 2.07491 12.6555 1.54685 12.6555C1.2943 12.6555 1.27899 12.6646 1.40909 12.7737C1.48562 12.8464 1.52389 12.9373 1.49327 12.9919C1.46266 13.0555 1.52389 13.0919 1.64634 13.0919C1.78409 13.0919 1.83001 13.0555 1.79174 12.9737C1.74583 12.8919 1.76113 12.8919 1.84532 12.9828C1.96011 13.1101 2.22032 13.1282 2.22032 13.001C2.22032 12.9464 2.28919 12.9464 2.40399 13.001C2.52644 13.0555 2.61827 13.0464 2.6795 12.9737C2.74838 12.8919 2.76368 12.8919 2.73307 12.9646C2.70246 13.0282 2.73307 13.0919 2.7943 13.1282C2.85552 13.1555 2.90909 13.1373 2.90909 13.0828C2.90909 12.9646 3.38358 13.0737 3.45246 13.2101C3.48307 13.2555 3.59021 13.3101 3.69736 13.3191C3.8045 13.3373 3.94225 13.3828 3.99583 13.4191C4.22542 13.5919 5.03664 13.6373 4.95246 13.4737C4.89889 13.3828 6.39889 13.4282 6.5596 13.5282C6.63613 13.5737 6.75858 13.601 6.83511 13.5919C6.90399 13.5737 6.94991 13.5919 6.92695 13.6373C6.89634 13.701 7.27899 13.8282 7.92185 13.9737C8.05195 14.001 8.1897 14.0555 8.23562 14.101C8.33511 14.201 10.1412 14.1282 10.4474 14.0191C10.5851 13.9737 10.6693 13.8828 10.654 13.8101C10.631 13.7101 10.6463 13.7101 10.7152 13.7919C10.8147 13.901 11.4805 13.6919 11.4805 13.5373C11.4805 13.4464 11.9933 13.2737 12.1999 13.301C12.2994 13.3101 12.3683 13.2464 12.4065 13.0919L12.4601 12.8646L12.4678 13.0828C12.4754 13.2646 12.4907 13.2828 12.5979 13.1828C12.6591 13.1101 12.705 13.101 12.6897 13.1464C12.6744 13.1919 12.6897 13.2373 12.728 13.2555C12.8581 13.301 12.9193 13.2646 12.904 13.1101C12.8963 13.0101 12.9499 12.9555 13.0494 12.9555C13.1336 12.9555 13.2101 12.8919 13.2254 12.8101C13.2407 12.7282 13.3326 12.6101 13.4321 12.5464C13.6463 12.4101 13.6234 12.3464 13.3785 12.301C13.2866 12.2828 13.1336 12.3646 13.0264 12.4737C12.9193 12.5919 12.8581 12.6282 12.8887 12.5646C12.9576 12.4282 12.8122 12.4101 12.7433 12.5464C12.7127 12.601 12.7356 12.7191 12.7968 12.801C12.8887 12.9373 12.881 12.9464 12.7662 12.8282C12.6897 12.7646 12.6285 12.7373 12.6285 12.7828C12.6285 12.8191 12.5902 12.8101 12.5443 12.7555C12.4831 12.6828 12.5366 12.5646 12.7356 12.3101C13.0494 11.9101 13.0877 11.7646 12.8428 11.9101C12.6667 12.0101 12.6667 12.0101 12.8198 11.8464C12.9116 11.7555 13.0264 11.5737 13.0877 11.4282C13.1412 11.2919 13.2178 11.1828 13.256 11.1828C13.4856 11.1828 14.1514 9.8646 14.1821 9.35551C14.1897 9.21914 14.2203 9.12824 14.2586 9.15551C14.2892 9.17369 14.3122 9.13733 14.3198 9.07369C14.3198 9.01005 14.3428 8.87369 14.3657 8.77369C14.404 8.59187 14.4423 7.98278 14.4729 7.09187C14.4805 6.81914 14.4652 6.3646 14.4269 6.09187C14.3963 5.81914 14.381 5.59187 14.3887 5.59187C14.404 5.59187 14.3657 5.49187 14.3122 5.3646C14.2509 5.23733 14.1974 5.11914 14.1974 5.09187C14.1744 4.89187 13.9831 4.3646 13.9372 4.3646C13.9065 4.3646 13.8836 4.28278 13.8759 4.18278C13.8606 3.94642 13.5851 3.52824 13.5086 3.61915C13.4703 3.65551 13.4703 3.63733 13.4933 3.58278C13.6081 3.33733 12.6132 2.45551 12.2229 2.45551C12.1693 2.45551 12.0392 2.40096 11.9321 2.32824C11.8173 2.2646 11.6489 2.21005 11.5494 2.21915C11.4499 2.22824 11.2356 2.21005 11.0826 2.17369C10.9218 2.14642 10.7841 2.12824 10.7764 2.13733ZM10.83 2.63733C10.7688 2.75551 10.8377 2.75551 11.0366 2.62824C11.1514 2.55551 11.1821 2.55551 11.1438 2.62824C11.1055 2.69187 11.1591 2.72824 11.2662 2.73733C11.8019 2.77369 12.4984 3.14642 12.9729 3.67369C13.4397 4.19187 13.7076 4.83733 13.8683 5.85551C13.9218 6.18278 13.9831 6.45551 14.006 6.45551C14.0596 6.45551 14.029 7.74642 13.9678 7.93733C13.9372 8.01914 13.9295 8.21005 13.9448 8.3646C13.9678 8.51914 13.9448 8.60096 13.9065 8.57369C13.8606 8.53733 13.8453 8.61914 13.8683 8.75551C13.8912 8.91914 13.8606 9.04642 13.7688 9.14642C13.6846 9.23733 13.6234 9.35551 13.6234 9.42824C13.6234 9.49187 13.5928 9.61914 13.5545 9.71005C13.5162 9.79187 13.4474 9.9646 13.4091 10.0919C13.3249 10.3191 13.3249 10.3191 13.3249 10.0282C13.3173 9.87369 13.279 9.71005 13.2331 9.67369C13.1718 9.62824 13.1872 9.58278 13.2713 9.52824C13.3402 9.48278 13.3785 9.41005 13.3555 9.3646C13.3326 9.31914 13.3479 9.2646 13.3861 9.22824C13.4321 9.20096 13.4474 9.2646 13.4321 9.38278C13.4014 9.58278 13.4014 9.58278 13.5086 9.41914C13.6769 9.14642 13.5162 8.95551 13.279 9.14642C13.1106 9.27369 13.103 9.27369 13.1183 9.11914C13.1412 8.91914 12.8657 8.09187 12.7739 8.09187C12.7356 8.09187 12.705 8.01005 12.705 7.91005C12.705 7.81005 12.6667 7.72824 12.6132 7.72824C12.5673 7.72824 12.5519 7.70096 12.5749 7.6646C12.6055 7.63733 12.5749 7.51005 12.5137 7.39187C12.4448 7.27369 12.4218 7.18278 12.4525 7.18278C12.4907 7.18278 12.4525 7.13733 12.3836 7.08278C12.3071 7.03733 12.2458 6.93733 12.2458 6.87369C12.2458 6.61914 11.0519 5.32824 10.8912 5.41005C10.83 5.42824 10.7994 5.41914 10.83 5.37369C10.8836 5.2646 10.478 5.11914 9.88868 5.04642C9.62083 5.01005 9.36062 4.91915 9.29174 4.83733C9.01623 4.51005 8.07491 4.59187 7.57746 4.98278C7.47032 5.0646 7.35552 5.12824 7.3096 5.13733C7.27134 5.13733 7.11827 5.28278 6.98052 5.44642C6.6897 5.81005 6.5443 5.8646 6.46011 5.65551C6.4295 5.5646 6.39889 5.48278 6.39123 5.45551C6.37593 5.42824 6.34532 5.31914 6.3147 5.20096C6.28409 5.09187 6.23052 5.00096 6.19225 5.00096C6.15399 5.00096 6.12338 4.94642 6.12338 4.88278C6.12338 4.81914 6.06215 4.68278 5.99327 4.58278C5.91674 4.49187 5.75603 4.24642 5.62593 4.04642C5.38868 3.6646 5.10552 3.3646 4.90654 3.2646C4.83766 3.22824 4.96011 3.20096 5.16674 3.20096C5.67185 3.19187 6.42185 3.11005 6.51368 3.04642C6.55195 3.01005 6.58256 3.03733 6.58256 3.09187C6.58256 3.14642 6.62083 3.1646 6.65909 3.13733C6.70501 3.10096 6.71266 3.03733 6.6897 2.98278C6.65909 2.91915 6.6897 2.91915 6.78919 2.98278C6.90399 3.05551 7.23307 3.07369 7.23307 3.00096C7.23307 3.00096 7.57746 2.99187 7.99838 2.98278C8.4346 2.98278 8.87083 2.91915 9.01623 2.85551C9.1693 2.78278 9.24583 2.77369 9.21521 2.82824C9.17695 2.90096 9.29174 2.91005 9.57491 2.85551C9.8045 2.81915 10.0647 2.78278 10.1642 2.78278C10.256 2.77369 10.3326 2.73733 10.3326 2.70096C10.3326 2.65551 10.3632 2.64642 10.4014 2.67369C10.4397 2.71005 10.5545 2.69187 10.654 2.64642C10.8836 2.52824 10.8836 2.52824 10.83 2.63733ZM3.92695 3.37369C4.08001 3.32824 4.19481 3.32824 4.17185 3.3646C4.14889 3.40096 4.23307 3.45551 4.34787 3.48278C4.46266 3.51005 4.63868 3.61915 4.74583 3.72824C4.84532 3.82824 4.97542 3.89187 5.02899 3.8646C5.09021 3.83733 5.11317 3.8646 5.09021 3.91915C5.02134 4.03733 5.19736 4.29187 5.3045 4.21005C5.34276 4.18278 5.35807 4.20096 5.32746 4.25551C5.3045 4.30096 5.3045 4.3646 5.34276 4.38278C5.44225 4.43733 5.85552 5.12824 5.98562 5.47369C6.10042 5.77369 6.10042 5.80096 5.99327 5.75551C5.93205 5.72824 5.77134 5.70096 5.64123 5.69187C5.45756 5.68278 5.40399 5.63733 5.38103 5.45551C5.36572 5.33733 5.3045 5.20096 5.25093 5.1646C5.19736 5.12824 5.10552 4.97369 5.05195 4.81915C4.84532 4.22824 3.35297 3.69187 3.03919 4.09187C2.97032 4.18278 2.97032 4.19187 3.06215 4.13733C3.13103 4.09187 3.15399 4.10096 3.11572 4.14642C3.04685 4.22824 3.01623 4.23733 2.77899 4.2646C2.71011 4.2646 2.67185 4.30096 2.69481 4.32824C2.71776 4.35551 2.65654 4.48278 2.55705 4.61005C2.44991 4.74642 2.38868 4.91005 2.41164 4.97369C2.42695 5.04642 2.4193 5.07369 2.38103 5.04642C2.34276 5.01914 2.26623 5.14642 2.21266 5.31914C2.15909 5.49187 2.08256 5.63733 2.03664 5.63733C1.99838 5.63733 1.98307 5.6646 2.01368 5.69187C2.03664 5.72824 2.01368 5.85551 1.96011 5.99187C1.89889 6.11914 1.83001 6.41005 1.7994 6.63733C1.76879 6.8646 1.73052 7.11914 1.71521 7.20096C1.60807 7.89187 1.60807 9.10096 1.70756 9.55551C1.83001 10.0919 2.12083 10.9101 2.1897 10.9101C2.21266 10.9101 2.20501 10.8737 2.18205 10.8191C2.10552 10.6737 2.1897 10.7191 2.3045 10.8828C2.38103 10.9828 2.38103 11.0101 2.31981 10.9646C2.25858 10.9282 2.22032 10.9555 2.22032 11.0373C2.22032 11.201 2.48052 11.3919 2.5647 11.2919C2.60297 11.2555 2.60297 11.2737 2.58001 11.3373C2.5494 11.3919 2.5647 11.4919 2.61827 11.5646C2.67185 11.6282 2.71776 11.8101 2.71776 11.9737C2.71776 12.2282 2.70246 12.2464 2.59532 12.1282C2.53409 12.0555 2.44225 12.001 2.39634 12.001C2.26623 12.001 1.78409 11.4101 1.72287 11.1737C1.69225 11.0555 1.61572 10.9191 1.56215 10.8646C1.50858 10.8191 1.44736 10.6737 1.4244 10.5464C1.34021 10.0555 1.3096 9.90096 1.25603 9.80096C1.22542 9.74642 1.18715 9.59187 1.1795 9.4646C1.13358 8.84642 1.07236 8.43733 1.02644 8.34642C0.995826 8.29187 1.00348 8.27369 1.0494 8.30096C1.10297 8.33733 1.14889 8.13733 1.1795 7.74642C1.20246 7.41005 1.24072 6.97369 1.25603 6.77369C1.27134 6.57369 1.32491 6.28278 1.37848 6.13733C1.43205 5.98278 1.48562 5.73733 1.50858 5.59187C1.53154 5.43733 1.57746 5.30096 1.61572 5.27369C1.64634 5.24642 1.73052 5.08278 1.79174 4.91005C1.9295 4.51005 2.47287 3.8646 2.78664 3.72824C2.91674 3.67369 3.08511 3.58278 3.15399 3.53733C3.23052 3.49187 3.34532 3.45551 3.40654 3.45551C3.48307 3.45551 3.50603 3.41005 3.47542 3.33733C3.4295 3.25551 3.43715 3.25551 3.52899 3.33733C3.60552 3.41005 3.73562 3.41915 3.92695 3.37369ZM8.9244 5.1646C8.90909 5.20096 8.91674 5.29187 8.95501 5.35551C8.98562 5.42824 8.98562 5.59187 8.95501 5.71914C8.8096 6.2646 8.7943 6.47369 8.89379 6.40096C8.94736 6.35551 8.93205 6.43733 8.85552 6.57369C8.78664 6.71005 8.74072 6.81914 8.77134 6.81914C8.7943 6.81914 8.76368 6.91914 8.69481 7.03733C8.63358 7.1646 8.5647 7.38278 8.55705 7.52824C8.5494 7.71005 8.51113 7.78278 8.44225 7.75551C8.38868 7.72824 8.34276 7.74642 8.33511 7.78278C8.33511 7.82824 8.31981 7.93733 8.3045 8.01914C8.28919 8.10096 8.38103 8.30096 8.50348 8.44642C8.66419 8.65551 8.71776 8.79187 8.69481 9.00096C8.6795 9.14642 8.71011 9.3646 8.76368 9.49187C8.84787 9.67369 8.84021 9.72824 8.71011 9.85551C8.63358 9.93733 8.58766 10.0555 8.61828 10.1101C8.64889 10.1737 8.64123 10.1828 8.58001 10.1464C8.53409 10.1101 8.44991 10.1191 8.39634 10.1646C8.34276 10.2101 8.19736 10.2555 8.06725 10.2555C7.76879 10.2646 7.3096 10.5373 6.5443 11.1828C5.93205 11.701 5.24327 12.0646 4.92185 12.0373C4.45501 12.001 4.47797 12.0191 4.61572 11.8373C4.69225 11.7464 4.72287 11.6373 4.69225 11.5919C4.65399 11.5555 4.6693 11.5464 4.72287 11.5828C4.86062 11.6737 4.90654 11.501 4.79174 11.3191C4.72287 11.2101 4.58511 11.1555 4.35552 11.1464C4.0494 11.1373 4.01879 11.1555 4.03409 11.3373C4.0494 11.4555 4.01879 11.5464 3.98052 11.5464C3.9346 11.5464 3.90399 11.5101 3.90399 11.4555C3.90399 11.4101 3.86572 11.3737 3.81215 11.3919C3.75858 11.401 3.72032 11.3282 3.72032 11.2282C3.72032 11.1282 3.68205 11.0191 3.63613 10.9737C3.58256 10.9373 3.59021 10.8828 3.65909 10.8373C3.77389 10.7464 3.6744 10.3373 3.51368 10.2191C3.45246 10.1828 3.43715 10.1919 3.47542 10.2555C3.51368 10.3282 3.49072 10.3464 3.41419 10.3101C3.34532 10.2828 3.28409 10.1828 3.28409 10.101C3.27644 10.0191 3.25348 9.85551 3.23817 9.72824C3.16164 9.21914 3.25348 8.09187 3.37593 8.09187C3.41419 8.09187 3.44481 7.99187 3.44481 7.8646C3.44481 7.73733 3.48307 7.63733 3.52899 7.63733C3.56725 7.63733 3.64379 7.51005 3.68205 7.3646C3.72797 7.21005 3.81215 7.09187 3.87338 7.09187C3.9346 7.09187 3.98052 7.05551 3.98052 7.01005C3.98052 6.9646 4.1795 6.81914 4.4244 6.68278C4.66164 6.54642 4.9295 6.39187 5.01368 6.33733C5.16674 6.24642 6.13868 6.17369 6.09276 6.2646C6.07746 6.29187 6.17695 6.32824 6.32236 6.33733C6.46776 6.34642 6.56725 6.31914 6.5443 6.27369C6.52134 6.22824 6.5443 6.1646 6.59021 6.12824C6.65144 6.09187 6.65909 6.10096 6.62848 6.1646C6.60552 6.21914 6.65144 6.31005 6.75093 6.37369C6.89634 6.4646 6.9346 6.45551 7.03409 6.2646C7.22542 5.91914 7.50858 5.63733 7.66164 5.63733C7.74583 5.63733 7.80705 5.61005 7.80705 5.5646C7.80705 5.47369 8.19736 5.28278 8.58001 5.19187C8.76368 5.14642 8.9244 5.11005 8.9397 5.10096C8.95501 5.09187 8.94736 5.12824 8.9244 5.1646ZM2.76368 5.35551C2.81725 5.24642 2.83256 5.25551 2.83256 5.3646C2.82491 5.52824 2.54174 5.95551 2.48052 5.88278C2.45756 5.85551 2.46521 5.77369 2.49583 5.71005C2.5647 5.59187 2.5647 5.5646 2.60297 5.33733C2.61062 5.25551 2.62593 5.2646 2.65654 5.35551C2.69481 5.45551 2.71011 5.45551 2.76368 5.35551ZM11.2203 7.30096C11.3428 7.38278 11.5571 7.51005 11.6948 7.59187C12.0086 7.7646 12.4984 8.64642 12.6897 9.3646C12.7662 9.65551 12.7203 10.8828 12.6285 11.1373C12.5213 11.4191 12.4984 11.4919 12.4831 11.6191C12.4831 11.6646 12.4065 11.801 12.3147 11.9191C12.2229 12.0373 12.1157 12.201 12.0622 12.2737C11.9474 12.4646 11.5035 12.8282 11.1361 13.0464C10.9678 13.1464 10.8071 13.2646 10.7764 13.3191C10.7458 13.3646 10.7076 13.3919 10.6999 13.3828C10.654 13.3191 10.0647 13.4828 9.84276 13.6101C9.72797 13.6828 9.65144 13.701 9.6744 13.6464C9.70501 13.5919 9.69736 13.5464 9.65144 13.5464C9.61317 13.5464 9.55195 13.5919 9.52899 13.6373C9.49072 13.7101 9.44481 13.7101 9.38358 13.6464C9.33001 13.5919 9.26113 13.5737 9.23817 13.6101C9.17695 13.6828 8.15144 13.4737 7.88358 13.3373C7.66164 13.2282 7.61572 13.2101 7.33256 13.1373C7.21776 13.1101 7.02644 13.0464 6.91164 12.9919C6.78919 12.9373 6.52134 12.8919 6.2994 12.901C5.96266 12.9101 5.89379 12.8828 5.85552 12.7191C5.80195 12.5373 6.01623 12.1828 6.17695 12.1828C6.20756 12.1828 6.36062 12.0555 6.50603 11.901C6.65144 11.7555 6.87338 11.5282 6.99583 11.401C7.3096 11.0828 7.78409 10.8373 8.25093 10.7646C8.60297 10.7101 8.6795 10.7282 9.01623 10.9828C9.65909 11.4828 10.5928 11.7737 10.7229 11.5282C10.7688 11.4464 10.7917 11.4464 10.7917 11.5191C10.7917 11.6464 11.2662 11.5101 11.5341 11.301C11.7254 11.1464 11.7407 11.1101 11.6412 10.9191C11.58 10.8101 11.5341 10.8101 11.3275 10.9101C10.9448 11.101 10.1795 11.101 9.89634 10.901C9.75858 10.8101 9.59021 10.7282 9.51368 10.7101C9.3147 10.6737 9.12338 10.4373 9.24583 10.3828C9.29174 10.3646 9.33766 10.3101 9.33766 10.2646C9.33766 10.2101 9.30705 10.1919 9.26879 10.2282C9.23052 10.2555 9.1693 10.2282 9.13868 10.1737C9.10807 10.101 9.11572 10.0919 9.1693 10.1282C9.22287 10.1646 9.26113 10.1555 9.26113 10.101C9.26113 9.98278 9.94225 9.18278 10.0571 9.17369C10.103 9.1646 10.1795 9.15551 10.2178 9.13733C10.2637 9.12824 10.3708 9.11005 10.4703 9.11005C10.5622 9.10096 10.6387 9.05551 10.6387 9.00096C10.6387 8.95551 10.5775 8.93733 10.5086 8.9646C10.4014 9.01005 10.3938 9.00096 10.478 8.92824C10.5545 8.8646 10.631 8.8646 10.7229 8.93733C10.8224 9.01005 10.8836 9.00096 10.9754 8.91914C11.1285 8.7646 11.1361 8.60096 10.9754 8.67369C10.9142 8.70096 10.8759 8.69187 10.8989 8.64642C10.9754 8.51005 10.3861 8.48278 10.1795 8.61005C10.0724 8.67369 9.94225 8.72824 9.89634 8.72824C9.84276 8.72824 9.79685 8.7646 9.79685 8.81914C9.79685 8.8646 9.75093 8.88278 9.70501 8.8646C9.65144 8.83733 9.51368 8.91914 9.39889 9.04642L9.1846 9.27369L9.14634 9.02824C9.12338 8.88278 9.03919 8.62824 8.96266 8.45551L8.81725 8.13733L9.06215 7.85551C9.63613 7.17369 10.631 6.91914 11.2203 7.30096ZM3.36827 11.6828C3.36827 11.7555 3.39889 11.8191 3.43715 11.8191C3.47542 11.8191 3.53664 11.901 3.5596 12.001C3.59021 12.101 3.64379 12.1646 3.68205 12.1373C3.83511 12.0191 3.61317 12.4919 3.43715 12.6464C3.33766 12.7282 3.00093 12.1373 3.07746 12.0282C3.12338 11.9646 3.19225 11.9373 3.23817 11.9737C3.28409 12.0101 3.2994 11.9373 3.27644 11.7828C3.25348 11.6555 3.26879 11.5464 3.2994 11.5464C3.33766 11.5464 3.36827 11.6101 3.36827 11.6828ZM4.47032 12.4737C4.43205 12.5373 4.99072 12.5828 5.09021 12.5191C5.13613 12.501 5.28154 12.7282 5.28154 12.8282C5.28154 13.0191 4.82236 13.0828 4.32491 12.9646C4.24072 12.9373 4.12593 12.9191 4.08001 12.9191C3.94225 12.9101 3.95756 12.5737 4.09532 12.4828C4.24072 12.3828 4.51623 12.3828 4.47032 12.4737Z" fill="black"/>
<path d="M10.6696 3.29254C10.6467 3.32891 10.5931 3.338 10.5472 3.31073C10.5013 3.27436 10.44 3.31073 10.4018 3.37436C10.3482 3.47436 10.3329 3.47436 10.3329 3.38345C10.3329 3.31073 10.2946 3.29254 10.241 3.338C10.1875 3.37436 9.94258 3.41073 9.70533 3.41982C9.21554 3.438 8.64156 3.75618 8.92472 3.84709C9.24615 3.95618 9.66707 3.87436 9.69003 3.70163C9.69768 3.60163 9.73595 3.50163 9.76656 3.47436C9.79717 3.438 9.79717 3.48345 9.77421 3.56527C9.72064 3.74709 9.83544 3.87436 9.91197 3.72891C9.95023 3.65618 9.99615 3.65618 10.0574 3.71982C10.1109 3.77436 10.1798 3.79254 10.2104 3.75618C10.2334 3.71982 10.3176 3.68345 10.3941 3.67436C10.8992 3.58345 11.3278 3.41982 11.3278 3.31073C11.3278 3.28345 11.2819 3.27436 11.2206 3.30163C11.1594 3.32891 11.0905 3.32891 11.0676 3.29254C10.991 3.21073 10.7155 3.20163 10.6696 3.29254Z" fill="black"/>
<path d="M6.89705 3.70033C6.83582 3.81852 6.82052 3.82761 6.81286 3.7367C6.81286 3.6367 6.78225 3.64579 6.69041 3.78215C6.62919 3.87306 6.59093 3.90033 6.62154 3.84579C6.65215 3.77306 6.62919 3.74579 6.56031 3.78215C6.39195 3.85488 6.43786 4.04579 6.63684 4.05488C6.73633 4.06397 6.81286 4.0367 6.81286 4.00033C6.81286 3.96397 6.92001 3.9367 7.05011 3.94579C7.34858 3.97306 7.67766 3.70033 7.46337 3.60942C7.36388 3.56397 7.34093 3.58215 7.37919 3.68215C7.40215 3.75488 7.38684 3.81852 7.34858 3.81852C7.30266 3.81852 7.27205 3.75488 7.27205 3.66397C7.27205 3.5367 7.24909 3.5367 7.10368 3.69124C6.95827 3.84579 6.94297 3.84579 6.98888 3.70033C7.0195 3.61852 7.0195 3.54579 7.00419 3.54579C6.98888 3.54579 6.93531 3.61852 6.89705 3.70033Z" fill="black"/>
<path d="M11.7099 4.6555C11.6028 4.7555 11.5722 4.80095 11.6334 4.76459C11.7176 4.71913 11.7099 4.74641 11.6181 4.88277C11.4344 5.11913 11.4421 5.18277 11.664 5.12823C11.7635 5.11004 12.016 5.07368 12.215 5.04641C12.4217 5.02823 12.6589 4.99186 12.7431 4.97368C12.9421 4.92823 12.9956 4.63732 12.8043 4.67368C12.7278 4.69186 12.5747 4.67368 12.4599 4.62823C12.2916 4.57368 12.2609 4.58277 12.2992 4.71004C12.3451 4.8555 12.3375 4.8555 12.1997 4.71913C11.9472 4.47368 11.9013 4.46459 11.7099 4.6555Z" fill="black"/>
<path d="M12.6276 6.11024C12.6276 6.1557 12.574 6.18297 12.5051 6.18297C12.4439 6.18297 12.4057 6.21934 12.4286 6.26479C12.4822 6.36479 12.9184 6.32843 13.1633 6.20115C13.3852 6.09206 13.3546 6.07388 12.9337 6.0557C12.7653 6.0557 12.6276 6.07388 12.6276 6.11024Z" fill="black"/>
<path d="M13.0271 7.63715C12.9276 7.73715 12.8894 7.82806 12.9353 7.86442C12.9736 7.8917 13.0118 7.87351 13.0118 7.81897C13.0118 7.76442 13.0501 7.74624 13.0884 7.77351C13.2185 7.87351 13.4634 7.72806 13.4174 7.5826C13.3639 7.40988 13.2414 7.42806 13.0271 7.63715Z" fill="black"/>
<path d="M7.98261 6.082C7.66884 6.31836 7.35506 6.80018 7.40098 7.00927C7.42394 7.10018 7.46986 7.16382 7.50047 7.13654C7.53873 7.10927 7.61526 7.15473 7.67649 7.22745C7.99026 7.60018 8.34231 7.20018 8.34231 6.46382C8.34231 5.91836 8.28873 5.86382 7.98261 6.082Z" fill="black"/>
<path d="M3.8429 9.07413C3.87352 9.18322 3.85821 9.25594 3.81995 9.21958C3.72811 9.15594 3.73576 9.73776 3.81995 9.9014C3.88117 10.0105 3.93474 10.0196 4.08015 9.93776C4.29443 9.81958 4.42454 9.37413 4.27913 9.27413C4.23321 9.23776 4.2179 9.15594 4.24086 9.1014C4.27148 9.04685 4.24852 9.0014 4.17964 9.0014C4.11841 9.0014 4.01127 8.97413 3.93474 8.93776C3.8276 8.89231 3.81229 8.91958 3.8429 9.07413Z" fill="black"/>
<path d="M6.08433 9.21061C5.95423 9.42879 5.92362 9.86515 6.04607 9.77424C6.08433 9.74697 6.09964 9.77424 6.07668 9.84697C6.02311 10.0197 6.32923 10.1106 6.53586 9.98333C6.65066 9.91061 6.66597 9.86515 6.58944 9.83788C6.52056 9.81061 6.51291 9.78333 6.57413 9.73788C6.68893 9.64697 6.73484 9.33788 6.65831 9.18333C6.55117 8.98333 6.20678 9.00151 6.08433 9.21061Z" fill="black"/>
<path d="M9.5222 12.3002C9.49924 12.3821 9.43802 12.4275 9.3921 12.3912C9.35383 12.3639 9.33853 12.3821 9.36914 12.4366C9.3921 12.4821 9.36914 12.5548 9.32322 12.573C9.25434 12.6093 9.24669 12.6275 9.31557 12.6275C9.36149 12.6366 9.42271 12.6002 9.45332 12.5457C9.47628 12.5002 9.54516 12.4821 9.60639 12.5184C9.73649 12.573 9.75179 12.473 9.64465 12.273C9.58343 12.1639 9.56812 12.1639 9.5222 12.3002Z" fill="black"/>
<path d="M9.55273 12.9823C9.33079 13.0095 9.26956 13.2095 9.43028 13.3277C9.48385 13.3732 9.49915 13.3459 9.47619 13.2641C9.44558 13.1732 9.48385 13.1277 9.58334 13.1186C9.68283 13.1095 9.72109 13.1459 9.69813 13.2186C9.66752 13.3186 9.69813 13.3186 9.84354 13.2368C9.94303 13.1823 10.0272 13.1004 10.0272 13.055C10.0272 13.0095 10.0043 13.0004 9.97364 13.0277C9.95068 13.0641 9.88946 13.055 9.84354 13.0186C9.79762 12.9823 9.66752 12.9641 9.55273 12.9823Z" fill="black"/>
<path d="M13.3408 12.9381C13.3485 13.0017 13.2796 13.0381 13.1877 13.0381C13.0882 13.029 13.0117 13.0744 13.0117 13.1472C13.0117 13.2744 13.4479 13.3017 13.5168 13.1654C13.5398 13.129 13.5857 13.1108 13.624 13.1381C13.6622 13.1654 13.7081 13.1472 13.7311 13.1017C13.7541 13.0563 13.7158 12.9926 13.6393 12.9563C13.4173 12.8381 13.3255 12.829 13.3408 12.9381Z" fill="black"/>
</svg>
