<svg width="15" height="15" viewBox="0 0 15 15" fill="none" xmlns="http://www.w3.org/2000/svg">
<path d="M9.26938 2.49414C9.24569 2.54015 9.19832 2.55856 9.15885 2.53095C8.99306 2.41132 7.97464 3.0831 8.0299 3.27635C8.04569 3.34077 7.98253 3.36837 7.85622 3.34077C7.74569 3.31316 7.60359 3.34077 7.54043 3.40518C7.39832 3.54322 7.24832 3.43279 7.30359 3.23034C7.42201 2.77942 6.56148 2.42972 6.06411 2.7242C5.9378 2.79782 5.84306 2.83463 5.84306 2.79782C5.84306 2.76101 5.7878 2.78862 5.72464 2.85304C5.66148 2.91745 5.6299 3.00028 5.65359 3.04629C5.67727 3.0923 5.66938 3.11991 5.6299 3.1107C5.4878 3.06469 4.97464 3.43279 4.92727 3.61684C4.84832 3.93893 4.66675 4.12297 4.37464 4.17819C4.19306 4.2242 4.07464 4.31623 3.99569 4.50028C3.93253 4.63831 3.82201 4.80396 3.75885 4.86837C3.6878 4.93279 3.65622 5.02481 3.67201 5.07083C3.72727 5.17205 3.34043 5.45733 3.24569 5.39291C3.03253 5.23647 2.14832 5.96347 2.12464 6.30396C2.12464 6.34997 2.10096 6.4788 2.07727 6.58003C2.06148 6.68126 2.0378 6.87451 2.0299 7.01255C2.02201 7.15978 1.98253 7.27021 1.93517 7.27021C1.66675 7.27942 1.31938 7.81316 1.29569 8.22727C1.27201 8.66899 1.39043 9.20273 1.50096 9.20273C1.61938 9.20273 1.53253 9.4788 1.37464 9.60764C1.16938 9.78248 1.12201 10.5003 1.30359 10.6751C1.36675 10.7395 1.42201 10.8408 1.42201 10.9052C1.42201 11.0892 1.7378 11.5125 1.94306 11.5954C2.17201 11.7058 2.19569 11.8714 1.97464 11.8254C1.79306 11.7886 1.03517 12.0463 0.900956 12.1935C0.758851 12.35 0.861482 12.5248 1.03517 12.4236C1.14569 12.35 1.18517 12.3592 1.18517 12.442C1.18517 12.5156 1.20885 12.5248 1.24832 12.4696C1.33517 12.3316 1.76938 12.2948 1.69043 12.4328C1.65096 12.5156 1.67464 12.5248 1.76938 12.488C1.84832 12.4512 1.92727 12.4236 1.94306 12.4236C1.96675 12.4236 1.96675 12.396 1.95096 12.35C1.91938 12.2948 2.44832 12.2763 2.51148 12.3408C2.51938 12.35 2.55885 12.3592 2.59832 12.3684C2.6378 12.3684 2.70096 12.4144 2.74043 12.4512C2.77201 12.4972 2.77201 12.5248 2.72464 12.5156C2.54306 12.4696 2.44832 12.5248 2.44832 12.6721C2.44832 12.7641 2.41675 12.8009 2.38517 12.7457C2.35359 12.6905 2.25885 12.6629 2.17201 12.6629C2.08517 12.6721 1.95096 12.6813 1.87201 12.6905C1.79306 12.6997 1.75359 12.7365 1.77727 12.7917C1.80096 12.8377 1.75359 12.8837 1.66675 12.8837C1.57201 12.8837 1.50096 12.9205 1.50096 12.9665C1.50096 13.1046 1.64306 13.169 1.69832 13.0678C1.7299 13.0125 1.81675 12.9941 1.90359 13.0217C1.99832 13.0586 2.06938 13.031 2.10096 12.9389C2.13253 12.8377 2.1878 12.8193 2.27464 12.8745C2.45622 12.9757 4.90359 12.9481 5.04569 12.8469C5.12464 12.7917 5.14043 12.7917 5.10096 12.8653C5.01411 13.031 5.1799 12.9941 5.32201 12.8285C5.41675 12.7181 5.44832 12.7181 5.44832 12.8101C5.45622 12.8837 5.4799 12.8745 5.52727 12.7733C5.59832 12.6352 5.6299 12.6352 5.80359 12.8469C5.90622 12.9665 6.04043 13.0678 6.09569 13.0678C6.16675 13.0678 6.16675 13.0402 6.0799 12.9757C6.01675 12.9297 6.00096 12.8837 6.04832 12.8837C6.0878 12.8837 6.15885 12.9205 6.20622 12.9665C6.30096 13.0862 6.6799 13.1598 6.75096 13.0862C6.79832 13.0217 6.8378 13.0125 7.16938 12.9941C7.36675 12.9757 7.37464 12.7825 7.17727 12.7181C7.09043 12.6905 7.09043 12.6997 7.18517 12.7825C7.33517 12.9113 7.22464 12.9113 7.01938 12.7917C6.91675 12.7273 6.86938 12.7273 6.86938 12.7917C6.86938 12.8377 6.90885 12.8837 6.96411 12.8837C7.01148 12.8837 7.03517 12.9113 7.00359 12.9389C6.9799 12.9665 6.90885 12.9573 6.85359 12.9205C6.79832 12.8745 6.66411 12.8377 6.55359 12.8285C6.44306 12.8193 6.2299 12.7549 6.0799 12.6813L5.80359 12.5432L6.05622 12.5524C6.19043 12.5616 6.28517 12.5892 6.26148 12.626C6.24569 12.6721 6.26938 12.6997 6.30885 12.6997C6.35622 12.6997 6.39569 12.6537 6.39569 12.5892C6.39569 12.5064 6.41938 12.5064 6.49043 12.5892C6.61675 12.7365 6.86938 12.7273 6.86938 12.58C6.86938 12.4972 6.88517 12.4972 6.93253 12.58C6.96411 12.6352 7.08253 12.6629 7.20096 12.6352C7.31938 12.6076 7.39832 12.5524 7.37464 12.5064C7.35096 12.4604 7.36675 12.4236 7.40622 12.4236C7.52464 12.4236 7.5799 12.6629 7.47727 12.7825C7.41411 12.8561 7.45359 12.8837 7.62727 12.8837C7.76148 12.8837 7.90359 12.8377 7.95885 12.7733C8.0299 12.6905 8.05359 12.6905 8.05359 12.7733C8.05359 12.8561 8.09306 12.8653 8.20359 12.8009C8.28253 12.7457 8.36938 12.7273 8.39306 12.7549C8.41675 12.7917 8.6299 12.8285 8.85885 12.8469C9.0878 12.8653 9.46675 12.9113 9.69569 12.9389C10.0352 12.9849 10.1457 12.9665 10.2799 12.8285C10.4457 12.6537 10.4457 12.6537 10.3904 12.8285C10.351 12.9757 10.3589 12.9849 10.4615 12.8837C10.5246 12.8193 10.5562 12.7273 10.5246 12.6629C10.4852 12.5892 10.501 12.5892 10.5878 12.6629C10.7299 12.7917 10.9983 12.7917 11.0694 12.6721C11.101 12.6076 11.1562 12.6076 11.2352 12.6905C11.322 12.7733 11.3694 12.7733 11.4089 12.6997C11.4404 12.6444 11.5194 12.6168 11.5825 12.6444C11.6694 12.6813 11.6852 12.6444 11.6536 12.488C11.6299 12.3776 11.6299 12.3408 11.6536 12.4052C11.6773 12.4604 11.7325 12.4972 11.772 12.4604C11.8115 12.4328 11.8431 12.4604 11.8431 12.5156C11.8431 12.5708 11.8825 12.5892 11.9378 12.5524C11.9931 12.5156 12.2299 12.4696 12.4746 12.4512C13.0746 12.4144 13.0983 12.4052 13.051 12.2763C13.0352 12.2119 12.9641 12.1843 12.9089 12.2027C12.8536 12.2303 12.7825 12.2027 12.751 12.1475C12.7115 12.0739 12.6641 12.0739 12.5852 12.1567C12.4983 12.2395 12.4746 12.2395 12.4746 12.1475C12.4746 12.0831 12.4115 12.0555 12.3167 12.0831C12.2141 12.1107 12.1589 12.0831 12.1589 12.0003C12.1589 11.9267 12.2615 11.8438 12.3957 11.8162C12.522 11.7794 12.6167 11.715 12.6089 11.6598C12.601 11.6046 12.6641 11.5402 12.7431 11.5217C13.0431 11.4481 13.3115 10.8684 13.1141 10.7303C13.0036 10.6475 12.972 10.0402 13.0667 9.99414C13.3115 9.88371 13.4062 9.38678 13.2641 8.95426C13.1299 8.53095 12.8141 8.16285 12.6799 8.25488C12.6404 8.28248 12.6325 8.27328 12.6562 8.21807C12.6799 8.17205 12.6089 8.03402 12.4825 7.90518C12.3246 7.74874 12.2773 7.62911 12.301 7.46347C12.3325 7.29782 12.3167 7.26101 12.2299 7.31623C12.1352 7.38985 12.1352 7.37144 12.2299 7.24261C12.3089 7.12297 12.3167 7.05856 12.2457 6.96653C12.1983 6.89291 12.1825 6.81009 12.2141 6.78248C12.2378 6.74567 12.222 6.71807 12.1746 6.71807C12.1194 6.71807 12.0799 6.65365 12.0799 6.58003C12.0799 6.4512 11.8194 6.12911 11.701 6.1107C11.6694 6.1107 11.5825 6.07389 11.5036 6.02788C11.322 5.93586 11.2194 6.05549 11.3694 6.16592C11.4325 6.22113 11.4483 6.25794 11.401 6.25794C11.3536 6.25794 11.2667 6.19353 11.2115 6.11991C11.1562 6.04629 11.0773 6.00948 11.0299 6.04629C10.9746 6.0831 10.9667 6.04629 11.0062 5.92666C11.4246 4.75794 11.1878 3.90212 10.4773 3.99414C10.2246 4.03095 10.1852 4.02175 10.2641 3.91132C10.3273 3.8285 10.3273 3.77328 10.2641 3.72727C10.201 3.68126 10.201 3.62604 10.2641 3.54322C10.3667 3.40518 10.2799 3.1015 10.1615 3.19353C10.1141 3.22113 10.1062 3.20273 10.1378 3.14751C10.2404 2.95426 10.0352 2.69659 9.67201 2.55856C9.47464 2.47574 9.29306 2.45733 9.26938 2.49414ZM9.73517 3.34077C9.81411 3.73647 9.75885 4.00334 9.58517 4.03095C9.44306 4.05856 9.41148 4.00334 9.37201 3.70886C9.34832 3.51561 9.30096 3.26715 9.26938 3.15672C9.22201 2.96347 9.2299 2.95426 9.45885 3.04629C9.60096 3.1015 9.71148 3.22113 9.73517 3.34077ZM6.75096 3.28555C6.97201 3.43279 6.99569 3.87451 6.79043 4.03095C6.6799 4.10457 6.63253 4.11377 6.63253 4.04015C6.63253 3.98494 6.57727 3.96653 6.49832 3.99414C6.41938 4.03095 6.3878 4.03095 6.41938 3.99414C6.45096 3.95733 6.3799 3.80089 6.26148 3.66285C6.00096 3.34077 5.99306 3.30396 6.19832 3.22113C6.40359 3.13831 6.55359 3.15672 6.75096 3.28555ZM8.89043 3.63524C8.91411 3.81009 8.92201 4.04015 8.89832 4.14138C8.87464 4.2334 8.88253 4.33463 8.91411 4.35304C8.9378 4.37144 8.9299 4.38064 8.89043 4.37144C8.79569 4.36224 8.51148 3.50641 8.56675 3.39598C8.66938 3.20273 8.83517 3.33156 8.89043 3.63524ZM5.77201 3.80089C6.02464 4.03095 6.0878 4.28862 5.9299 4.45426C5.76411 4.62911 5.40885 4.57389 5.3378 4.35304C5.31411 4.27942 5.25096 4.25181 5.19569 4.28862C5.14832 4.32543 5.20359 4.2058 5.32201 4.02175C5.56675 3.64445 5.59043 3.63524 5.77201 3.80089ZM8.27464 4.31623C8.36938 4.61991 8.3299 4.70273 8.0299 4.85917C7.84043 4.9512 7.80885 4.9512 7.76938 4.80396C7.74569 4.72113 7.69043 4.53708 7.64306 4.40825C7.5878 4.2334 7.59569 4.10457 7.66675 3.98494C7.79306 3.73647 8.16411 3.93893 8.27464 4.31623ZM10.5483 5.28248C10.3825 6.04629 10.1141 6.0831 10.0667 5.3561C10.051 5.15365 10.0194 4.88678 9.9878 4.77635C9.95622 4.66592 9.96411 4.6015 9.99569 4.61991C10.0352 4.64751 10.1378 4.63831 10.2246 4.6015C10.5089 4.47267 10.651 4.78555 10.5483 5.28248ZM7.09043 4.9604C7.15359 5.04322 7.17727 5.05242 7.14569 4.98801C7.12201 4.93279 7.1378 4.87758 7.18517 4.87758C7.24043 4.87758 7.25622 4.9512 7.23253 5.06162C7.20885 5.16285 7.16938 5.31929 7.14569 5.42052C7.10622 5.58616 6.87727 5.64138 6.79043 5.50334C6.76675 5.47574 6.60885 5.52175 6.43517 5.61377C6.00096 5.86224 5.92201 5.84383 5.92201 5.52175C5.92201 5.36531 5.91411 5.21807 5.90622 5.17205C5.88253 5.08003 6.40359 4.68432 6.48253 4.73954C6.51411 4.76715 6.56148 4.74874 6.59306 4.69353C6.64832 4.5831 6.93253 4.73034 7.09043 4.9604ZM5.10096 4.9604C5.26675 5.10764 5.41675 5.27328 5.41675 5.3285C5.42464 5.38371 5.43253 5.43893 5.44832 5.44813C5.55096 5.60457 5.4799 6.34997 5.35359 6.34997C5.21148 6.34997 5.04569 6.60764 5.15622 6.65365C5.22727 6.69046 5.22727 6.70886 5.14832 6.70886C5.09306 6.71807 4.98253 6.53402 4.89569 6.30396C4.80885 6.07389 4.63517 5.77021 4.50096 5.61377C4.21675 5.29169 4.21675 5.30089 4.4299 4.9604C4.63517 4.62911 4.71411 4.62911 5.10096 4.9604ZM9.58517 5.38371C9.55359 6.07389 9.45885 6.44199 9.31675 6.44199C9.26938 6.44199 9.2378 6.41439 9.24569 6.36837C9.26938 6.20273 9.13517 5.89905 9.05622 5.95426C9.00885 5.98187 9.00096 5.96347 9.03253 5.89905C9.06411 5.84383 9.12727 5.81623 9.16675 5.84383C9.20622 5.88064 9.2378 5.83463 9.2378 5.75181C9.2378 5.66899 9.20622 5.62297 9.16675 5.65058C9.03253 5.75181 9.22201 4.93279 9.36411 4.81316C9.59306 4.61991 9.60885 4.66592 9.58517 5.38371ZM8.6299 5.61377C8.61411 6.42359 8.54306 6.68126 8.32201 6.80089C8.1878 6.86531 8.14043 6.87451 8.17201 6.80089C8.20359 6.75488 8.16411 6.65365 8.08517 6.58923C7.99832 6.51561 7.96675 6.39598 7.99832 6.27635C8.02201 6.16592 8.00622 6.05549 7.96675 6.02788C7.80096 5.89905 8.30622 5.12604 8.49569 5.21807C8.55885 5.24567 8.60622 5.21807 8.60622 5.16285C8.60622 5.10764 8.61411 5.06162 8.6299 5.06162C8.6378 5.06162 8.6378 5.31009 8.6299 5.61377ZM3.00096 6.04629C3.30096 5.91745 3.30096 5.91745 3.24569 6.64445C3.20622 7.15058 3.22201 7.30702 3.33253 7.47267C3.50622 7.73954 3.52201 7.92359 3.34832 7.67512C3.24569 7.52788 3.2299 7.52788 3.26938 7.65672C3.30885 7.79475 3.29306 7.80396 3.15096 7.70273C3.02464 7.6107 2.98517 7.61991 2.9299 7.71193C2.86675 7.84077 2.81938 7.77635 2.76411 7.50028C2.75622 7.44506 2.71675 7.35304 2.66938 7.28862C2.56675 7.15058 2.55096 6.37758 2.64569 6.27635C2.68517 6.23954 2.68517 6.26715 2.64569 6.34077C2.59832 6.43279 2.61411 6.4512 2.67727 6.40518C2.72464 6.36837 2.74832 6.24874 2.72464 6.13831C2.70885 6.02788 2.70885 5.98187 2.73253 6.03709C2.76411 6.11991 2.83517 6.11991 3.00096 6.04629ZM4.18517 6.07389C4.35096 6.17512 4.62727 6.69966 4.61938 6.91132C4.61938 7.14138 4.16148 7.69353 3.97201 7.69353C3.87727 7.69353 3.82201 7.65672 3.8378 7.61991C3.86148 7.5831 3.84569 7.54629 3.80622 7.54629C3.6878 7.54629 3.73517 6.30396 3.86148 6.13831C3.9878 5.95426 3.99569 5.95426 4.18517 6.07389ZM7.2799 6.27635C7.57201 6.53402 7.4378 7.2058 7.12201 7.11377C6.66411 6.98494 6.07201 7.05856 5.85096 7.28862C5.71675 7.41745 5.67727 7.41745 5.53517 7.30702C5.36938 7.16899 5.36938 7.16899 5.60622 6.90212C5.74043 6.74567 5.88253 6.62604 5.92201 6.62604C5.96938 6.62604 6.00096 6.57083 6.00096 6.50641C6.00096 6.24874 7.03517 6.06469 7.2799 6.27635ZM10.9667 6.78248C10.9194 6.8469 10.9115 6.94813 10.9431 7.00334C10.9746 7.06776 10.9667 7.08616 10.9115 7.04936C10.8641 7.02175 10.7852 7.07696 10.7378 7.17819C10.6904 7.27942 10.5641 7.38985 10.4615 7.41745C10.351 7.44506 10.2641 7.51868 10.2641 7.5831C10.2641 7.63831 10.2167 7.6015 10.1694 7.50028C10.0589 7.26101 9.93253 7.16899 9.81411 7.2242C9.75885 7.24261 9.73517 7.2058 9.76675 7.12297C9.79043 7.05856 9.76675 6.99414 9.71938 6.99414C9.67201 6.99414 9.63253 6.94813 9.63253 6.90212C9.63253 6.8469 9.6799 6.81009 9.74306 6.81009C9.80622 6.81009 9.86938 6.76408 9.88517 6.70886C9.90096 6.65365 10.1299 6.59843 10.4062 6.58923C10.6746 6.58923 10.8957 6.53402 10.8957 6.48801C10.8957 6.43279 10.9273 6.4604 10.9746 6.53402C11.0141 6.61684 11.0141 6.70886 10.9667 6.78248ZM11.7562 6.95733C11.851 7.09537 11.922 7.2334 11.922 7.26101C11.922 7.36224 11.5825 7.31623 11.3931 7.19659C11.2273 7.08616 11.2194 7.07696 11.3536 6.91132C11.5352 6.67205 11.5667 6.68126 11.7562 6.95733ZM9.22201 7.30702C9.27727 7.31623 9.36411 7.38064 9.41148 7.43586C9.46675 7.50028 9.54569 7.54629 9.60096 7.54629C9.8299 7.54629 9.77464 7.84997 9.47464 8.22727C9.18253 8.59537 8.92201 8.7334 8.92201 8.52175C8.92201 8.39291 8.59832 8.00641 8.4878 8.00641C8.44043 8.00641 8.3378 7.92359 8.26675 7.81316C8.12464 7.62911 8.12464 7.61991 8.26675 7.49107C8.45622 7.31623 8.85885 7.18739 9.00096 7.24261C9.06411 7.27021 9.16675 7.29782 9.22201 7.30702ZM6.92464 7.65672C7.04306 7.72113 7.16148 7.77635 7.17727 7.79475C7.24832 7.84997 6.93253 8.10764 6.54569 8.31929C6.13517 8.54015 6.11938 8.54015 6.09569 8.36531C6.0799 8.27328 6.04043 8.19046 6.00885 8.19046C5.97727 8.19046 5.95359 8.09844 5.95359 7.9788C5.96148 7.82236 6.03253 7.74874 6.27727 7.66592C6.69569 7.52788 6.67201 7.52788 6.92464 7.65672ZM11.6062 7.83156C11.6062 7.87758 11.6536 7.91439 11.7167 7.91439C11.772 7.91439 11.8746 7.9788 11.9299 8.06163C11.9852 8.14445 12.1194 8.24567 12.2299 8.30089C12.3799 8.36531 12.4036 8.40212 12.3246 8.45733C12.2615 8.50334 12.2457 8.58617 12.2694 8.64138C12.301 8.69659 12.301 8.7334 12.2615 8.7242C12.2299 8.715 12.1194 8.75181 12.0167 8.81623C11.8667 8.91745 11.8352 8.90825 11.7957 8.77021C11.6773 8.3285 11.5194 8.00641 11.4483 8.05242C11.401 8.08923 11.3773 8.06163 11.3852 7.98801C11.401 7.92359 11.3536 7.87758 11.2904 7.89598C11.2273 7.91439 11.1957 7.89598 11.2273 7.85917C11.2589 7.82236 11.251 7.73954 11.2036 7.67512C11.1325 7.5739 11.1562 7.56469 11.3615 7.64751C11.4957 7.70273 11.6062 7.78555 11.6062 7.83156ZM5.36148 8.00641C5.54306 8.27328 5.70096 8.88985 5.55096 8.7058C5.51938 8.67819 5.41675 8.715 5.31411 8.78862C5.19569 8.88064 5.13253 8.89905 5.13253 8.82543C5.13253 8.75181 5.10096 8.74261 5.0299 8.82543C4.89569 8.95426 4.59569 8.67819 4.63517 8.45733C4.65096 8.37451 4.5878 8.27328 4.48517 8.20886C4.38253 8.15365 4.35096 8.10764 4.40622 8.10764C4.45359 8.09844 4.50096 8.04322 4.50096 7.9696C4.50096 7.89598 4.45359 7.81316 4.40622 7.78555C4.35096 7.75794 4.38253 7.75794 4.47727 7.77635C4.57201 7.80396 4.66675 7.78555 4.69832 7.73954C4.80096 7.53709 5.14832 7.68432 5.36148 8.00641ZM2.46411 8.31929C2.44832 8.40212 2.4878 8.60457 2.55096 8.77021C2.80359 9.43279 2.85096 9.62604 2.74832 9.4788C2.64569 9.34077 2.53517 9.29475 2.27464 9.26715C2.19569 9.25794 2.10885 9.18433 2.08517 9.0923C2.06148 9.00028 2.00622 8.94506 1.96675 8.97267C1.92727 9.00028 1.91938 8.97267 1.94306 8.89905C1.96675 8.82543 1.93517 8.7058 1.87201 8.64138C1.7378 8.48494 1.74569 8.17205 1.8878 7.9696C2.01411 7.78555 2.50359 8.08003 2.46411 8.31929ZM10.801 8.14445C11.0694 8.31009 11.3378 8.65979 11.322 8.80702C11.3141 8.87144 11.3062 8.96347 11.2983 9.01868C11.2983 9.06469 11.2431 9.11071 11.1799 9.11071C11.1167 9.11071 11.0457 9.17512 11.022 9.24874C10.9904 9.36837 10.9273 9.32236 10.7299 9.06469C10.5957 8.88985 10.4536 8.74261 10.4141 8.74261C10.3667 8.74261 10.2483 8.67819 10.1378 8.59537C9.92464 8.42972 9.9878 8.24567 10.3036 8.09844C10.5246 7.98801 10.5641 7.98801 10.801 8.14445ZM3.8299 8.29169C4.09832 8.47574 4.38253 8.83463 4.25622 8.83463C4.20885 8.83463 4.19306 8.91745 4.22464 9.01868C4.34306 9.4512 4.09832 9.72727 3.77464 9.53402C3.67201 9.4696 3.49832 9.42359 3.3878 9.43279C3.21411 9.4512 3.19043 9.39598 3.10359 8.85304C3.04832 8.52175 3.02464 8.21807 3.04832 8.17205C3.11938 8.04322 3.57727 8.11684 3.8299 8.29169ZM8.21148 8.50334C8.21148 8.55856 8.29043 8.65058 8.38517 8.69659C8.62201 8.81623 8.7799 9.19353 8.66148 9.34077C8.44043 9.59844 8.14832 9.76408 8.09306 9.66285C8.05359 9.58923 8.00622 9.58923 7.92727 9.67206C7.75359 9.8377 7.70622 9.69966 7.81675 9.39598C7.87201 9.23954 7.8878 9.00948 7.86411 8.87144C7.78517 8.52175 7.87201 8.29169 8.05359 8.3469C8.14043 8.37451 8.21148 8.43893 8.21148 8.50334ZM7.26411 9.12911L7.4299 9.31316L7.07464 9.70886C6.77464 10.0494 6.65622 10.1138 6.28517 10.169C6.04043 10.2058 5.81938 10.2702 5.79569 10.3162C5.77201 10.3622 5.71675 10.3806 5.67727 10.3438C5.6378 10.3162 5.61411 10.3438 5.62201 10.399C5.6378 10.4635 5.59043 10.5279 5.52727 10.5463C5.16411 10.6475 4.89569 10.6199 4.89569 10.4727C4.89569 10.4175 4.81675 10.2702 4.7299 10.1598C4.63517 10.0402 4.5799 9.88371 4.60359 9.81009C4.67464 9.60764 5.21148 9.36837 5.45622 9.42359C5.74043 9.48801 6.2299 9.86531 6.2378 10.031C6.24569 10.123 6.26148 10.1322 6.29306 10.0494C6.30885 9.99414 6.35622 9.95733 6.3878 9.97574C6.48253 10.0494 6.43517 9.48801 6.33253 9.36837C6.17464 9.18433 6.22201 9.02788 6.45885 8.96347C6.57727 8.93586 6.71148 8.89905 6.75096 8.88985C6.89306 8.84383 7.09043 8.93586 7.26411 9.12911ZM9.91675 9.06469C10.0431 9.19353 10.201 9.32236 10.2799 9.34077C10.4299 9.40518 10.6352 9.74567 10.6115 9.91132C10.6036 9.97574 10.5957 10.0678 10.5878 10.123C10.5799 10.2058 10.1062 10.5371 10.0746 10.4727C10.051 10.4267 9.89306 9.99414 9.79832 9.72727C9.75096 9.58923 9.65622 9.4788 9.58517 9.4788C9.50622 9.4788 9.47464 9.4512 9.49832 9.41439C9.5299 9.38678 9.51411 9.30396 9.46675 9.23954C9.40359 9.15672 9.41148 9.0831 9.49043 8.98187C9.63253 8.79782 9.64832 8.79782 9.91675 9.06469ZM12.8694 9.22113C12.8694 9.53402 12.7667 9.67206 12.4983 9.70886C12.2773 9.73647 12.2536 9.71807 12.2773 9.52482C12.3167 9.04629 12.8694 8.77021 12.8694 9.22113ZM11.922 9.88371C11.922 10.215 11.5983 10.5555 11.2431 10.6015C10.9431 10.6475 10.9194 10.6291 10.9194 10.4359C10.9194 10.3254 10.9667 10.2058 11.022 10.1782C11.0852 10.1506 11.1325 10.0678 11.1325 10.0033C11.1325 9.8469 11.3694 9.52482 11.5273 9.4604C11.6852 9.39598 11.922 9.64445 11.922 9.88371ZM9.26938 9.77328C9.24569 9.81929 9.29306 9.95733 9.3799 10.1046C9.56938 10.4175 9.49043 10.8592 9.20622 11.034C8.96938 11.1813 8.89832 11.1352 8.71675 10.7027C8.55096 10.2978 8.55885 10.1506 8.7799 9.87451C8.9299 9.69046 9.35622 9.59844 9.26938 9.77328ZM1.93517 9.93893C1.91148 9.98494 1.94306 10.031 2.00622 10.031C2.06938 10.031 2.21938 10.077 2.34569 10.1414C2.46411 10.1966 2.59043 10.2426 2.61411 10.2334C2.6378 10.2334 2.66148 10.3714 2.66938 10.5555C2.67727 10.7303 2.71675 10.9328 2.76411 10.9972C2.82727 11.0892 2.7878 11.126 2.59043 11.1629C2.37727 11.2089 2.29832 11.1721 2.17201 10.9788C2.08517 10.8592 1.91938 10.6291 1.80096 10.4819C1.65096 10.2886 1.62727 10.215 1.71411 10.215C1.78517 10.215 1.81675 10.1598 1.79306 10.0862C1.75359 9.97574 1.80885 9.90212 1.95885 9.8561C1.97464 9.8469 1.95885 9.88371 1.93517 9.93893ZM3.8378 10.123C3.90096 10.123 3.97201 10.1874 3.99569 10.261C4.02727 10.3346 4.09043 10.399 4.14569 10.399C4.30359 10.399 4.59569 10.7487 4.56411 10.9144C4.55622 10.9972 4.40622 11.1721 4.23253 11.2917C4.06675 11.4205 3.95622 11.4757 3.9799 11.4205C4.01938 11.3561 3.95622 11.3193 3.80622 11.3193C3.66411 11.3193 3.51411 11.2273 3.39569 11.0892C3.29306 10.9604 3.2378 10.8592 3.26938 10.8592C3.30096 10.8592 3.24569 10.7211 3.15096 10.5555C3.03253 10.3622 3.01675 10.307 3.10359 10.3898C3.22201 10.5003 3.2378 10.4819 3.20622 10.2334C3.17464 9.92052 3.41938 9.78248 3.61675 10.0033C3.67201 10.0678 3.77464 10.123 3.8378 10.123ZM8.1799 10.4267C8.21938 10.3806 8.22727 10.3898 8.19569 10.4267C8.17201 10.4727 8.19569 10.6475 8.25885 10.8132C8.41675 11.2641 8.40096 11.4481 8.16411 11.7242C7.92727 12.0003 7.81675 12.0279 7.81675 11.8162C7.81675 11.7426 7.77727 11.7058 7.7299 11.7426C7.66675 11.7794 7.66675 11.7426 7.7299 11.6046C7.78517 11.5033 7.79306 11.4113 7.74569 11.4113C7.57201 11.4113 7.56411 10.9144 7.7378 10.7487C7.8878 10.6107 7.89569 10.5831 7.77727 10.5831C7.68253 10.5831 7.65885 10.5371 7.69043 10.4359C7.71411 10.353 7.7378 10.2426 7.7378 10.1874C7.7378 10.1322 7.81675 10.1782 7.91938 10.2886C8.02201 10.399 8.14043 10.4635 8.1799 10.4267ZM12.5694 10.6199C12.6957 10.7303 12.7431 11.1721 12.6246 11.08C12.5852 11.0616 12.4825 11.1352 12.3878 11.2457C12.2931 11.3653 12.2457 11.4021 12.2773 11.3285C12.3246 11.2365 12.3089 11.2181 12.2299 11.2825C12.1667 11.3285 12.0246 11.3653 11.8983 11.3745C11.6378 11.3837 11.6615 11.1997 11.9852 10.7671C12.2141 10.4727 12.3562 10.4267 12.5694 10.6199ZM7.05096 10.896C7.32727 11.0432 7.05885 11.3561 6.56938 11.4573C6.21411 11.531 5.59043 11.1721 5.7878 10.9972C5.85885 10.942 5.90622 10.8684 5.89043 10.85C5.82727 10.7856 6.90885 10.8316 7.05096 10.896ZM10.872 11.1352C11.0378 11.2365 11.2194 11.3193 11.2746 11.3193C11.3299 11.3193 11.3536 11.3561 11.3299 11.4113C11.3062 11.4573 11.322 11.5033 11.3773 11.5033C11.4562 11.5033 11.4562 11.531 11.3931 11.6046C11.3457 11.6598 11.322 11.7702 11.3457 11.8346C11.3694 11.9083 11.3378 11.9727 11.2825 11.9819C11.2194 11.9819 11.1404 12.0003 11.0931 12.0003C11.0536 12.0095 10.9746 12.0463 10.9194 12.0831C10.7773 12.1843 10.4299 11.9635 10.4773 11.7978C10.5089 11.7058 10.4931 11.6782 10.4378 11.7242C10.3825 11.761 10.3589 11.7426 10.3825 11.6598C10.4062 11.5954 10.351 11.4389 10.2641 11.3193C9.9799 10.942 10.3667 10.8224 10.872 11.1352ZM5.4799 11.531C5.59832 11.715 5.96938 11.8254 6.03253 11.6966C6.06411 11.6414 6.12727 11.5954 6.17464 11.5954C6.22201 11.5954 6.15096 11.715 6.03253 11.8622C5.81148 12.1291 4.89569 12.4236 4.89569 12.2395C4.89569 12.2027 4.79306 12.1107 4.66675 12.0371C4.46938 11.9267 4.45359 11.8898 4.53253 11.7518C4.77727 11.3745 5.30622 11.2457 5.4799 11.531ZM9.35622 11.5954C9.33253 11.6414 9.41148 11.669 9.54569 11.6414C9.78253 11.6138 10.2404 12.0463 10.0431 12.1291C9.9878 12.1475 9.96411 12.1935 9.9878 12.2395C10.0431 12.35 9.46675 12.2856 9.18253 12.1383C8.88253 12.0003 8.79569 11.577 9.07201 11.6598C9.15096 11.6874 9.24569 11.6598 9.26938 11.6046C9.30096 11.5494 9.34043 11.5033 9.36411 11.5033C9.3878 11.5033 9.3878 11.5402 9.35622 11.5954ZM3.88517 12.0371C3.99569 12.0923 4.11411 12.1843 4.14569 12.2303C4.23253 12.396 3.94043 12.4604 3.6799 12.3408C3.54569 12.2763 3.40359 12.2211 3.35622 12.2027C3.14306 12.1475 2.92201 11.9359 2.92201 11.7886C2.92201 11.6138 3.11148 11.6598 3.88517 12.0371Z" fill="black"/>
<path d="M11.6306 13.3249C11.4963 13.3433 11.3384 13.4169 11.2911 13.4905C11.1727 13.647 11.299 13.6654 11.4411 13.4997C11.52 13.4077 11.5279 13.4169 11.4884 13.5365C11.449 13.6562 11.4806 13.6746 11.6384 13.647C11.749 13.6194 11.8437 13.5549 11.8437 13.4905C11.8437 13.4261 11.8753 13.4353 11.9148 13.5089C11.97 13.6102 11.9858 13.6102 12.0253 13.4997C12.0806 13.3341 11.97 13.2789 11.6306 13.3249Z" fill="black"/>
<path d="M7.73769 13.435C7.73769 13.481 7.7298 13.5546 7.7219 13.5914C7.70611 13.6191 7.84822 13.6651 8.0298 13.6835C8.3298 13.7203 8.35348 13.7019 8.31401 13.527C8.26664 13.3246 8.1719 13.2878 8.09296 13.435C8.06138 13.4994 7.99032 13.4994 7.88769 13.435C7.78506 13.3706 7.73769 13.3706 7.73769 13.435Z" fill="black"/>
</svg>
