<svg width="15" height="15" viewBox="0 0 15 15" fill="none" xmlns="http://www.w3.org/2000/svg">
<path d="M5.40606 2.49562C5.38958 2.51576 5.25771 2.53589 5.1176 2.53589C4.97749 2.54596 4.8621 2.57616 4.8621 2.60636C4.8621 2.63656 4.74672 2.67683 4.60661 2.6869C4.45826 2.69697 4.26045 2.7775 4.15331 2.86811C4.04617 2.94864 3.90606 3.01911 3.83188 3.01911C3.76595 3.01911 3.70826 3.08958 3.70826 3.17012C3.70826 3.25066 3.67529 3.31106 3.63408 3.29092C3.32089 3.19025 2.33188 4.85133 2.16705 5.78757C2.0187 6.59294 2.12584 7.77079 2.38958 8.28421C2.52144 8.54596 2.63683 8.8077 2.63683 8.84797C2.63683 8.89831 2.69452 8.99898 2.7687 9.06945C2.89232 9.19025 2.88408 9.22046 2.71925 9.38153C2.62034 9.4822 2.50496 9.5426 2.47199 9.5124C2.43078 9.4822 2.27419 9.5426 2.12584 9.64327C1.97749 9.74395 1.68078 9.90502 1.4665 10.0057C1.0132 10.207 0.732982 10.6198 0.823642 10.9218C0.922543 11.2439 1.21925 11.5057 1.48298 11.5057C1.61485 11.5057 1.70551 11.546 1.68903 11.5862C1.6643 11.6164 1.78793 11.6567 1.961 11.6668C2.12584 11.6668 2.48023 11.6869 2.74397 11.697C2.99947 11.7171 3.21375 11.707 3.21375 11.6768C3.21375 11.6466 3.51045 11.6366 3.88133 11.6567C4.34287 11.6869 4.53243 11.6567 4.49122 11.5862C4.4665 11.5258 4.48298 11.4755 4.52419 11.4755C4.57364 11.4755 4.61485 11.5158 4.61485 11.5661C4.61485 11.6265 4.68078 11.6668 4.7632 11.6668C5.00221 11.6567 6.28793 11.7775 6.63408 11.8379C7.25221 11.9285 8.24122 11.9285 8.28243 11.8278C8.30716 11.7674 8.34012 11.7674 8.36485 11.8379C8.38958 11.8983 8.50496 11.9285 8.6121 11.8983C8.73573 11.8782 8.79342 11.8077 8.76045 11.7372C8.72749 11.6567 8.74397 11.6567 8.81815 11.7473C8.91705 11.858 9.29617 11.7473 9.88957 11.4352C10.1286 11.3144 10.7138 10.6097 10.7138 10.4486C10.7138 10.3882 10.7385 10.358 10.7632 10.3882C10.7879 10.4184 10.9033 10.3379 11.0187 10.207C11.2907 9.90502 11.678 9.66341 11.9006 9.66341C12.0901 9.66341 12.461 9.21039 12.667 8.7171C12.9225 8.10301 12.6423 6.44193 12.2962 6.59294C12.2302 6.62314 12.2302 6.56274 12.3209 6.40166C12.3868 6.28086 12.4198 6.13992 12.3868 6.08958C12.3456 6.04931 12.3621 6.03925 12.4198 6.07952C12.4775 6.10972 12.5352 6.05938 12.5681 5.93858C12.6258 5.72717 12.9555 5.40502 13.1616 5.37482C13.8291 5.25401 13.8621 4.19697 13.211 3.99562C12.8731 3.90502 12.4692 4.49898 12.5187 5.0124C12.5517 5.28421 12.0077 6.05938 11.8099 6.00905C11.711 5.98891 11.6121 6.00905 11.6039 6.04931C11.5874 6.09965 11.4885 6.07952 11.3731 6.00905C11.1341 5.86811 11.0846 5.47549 11.2577 5.09294C11.3072 4.952 11.3319 4.81106 11.3072 4.77079C11.2742 4.73052 11.2907 4.73052 11.3401 4.76072C11.5132 4.88153 11.7852 4.52918 11.7852 4.17683C11.7852 3.83455 11.4885 3.4218 11.2412 3.4218C10.8539 3.4218 10.5819 4.14663 10.7632 4.69025C10.8209 4.86139 10.8539 5.03254 10.8374 5.05267C10.8127 5.08287 10.7714 5.30435 10.7467 5.54596C10.6973 5.95871 10.4583 6.40166 10.3511 6.27079C10.3264 6.24059 10.2852 6.29093 10.2522 6.38153C10.2275 6.47213 10.1698 6.5426 10.1203 6.5426C10.0214 6.5426 9.80716 6.80435 9.80716 6.92515C9.80716 7.00569 9.32089 7.57952 9.30441 7.52918C9.29617 7.50905 9.27968 7.26744 9.2632 6.99562C9.24672 6.71374 9.21375 6.38153 9.18078 6.24059C9.15606 6.09965 9.12309 5.8379 9.10661 5.6567C9.09837 5.46542 9.04892 5.28421 8.99947 5.25401C8.95826 5.21374 8.91705 5.16341 8.92529 5.13321C8.95001 5.02247 8.711 4.43858 8.66155 4.47884C8.62859 4.49898 8.59562 4.45871 8.59562 4.37817C8.59562 4.1869 8.18353 3.61307 7.78793 3.26072C7.47474 2.98891 6.92254 2.6869 6.92254 2.78757C6.92254 2.81777 6.87309 2.78757 6.80716 2.7171C6.69177 2.60636 5.47199 2.40502 5.40606 2.49562ZM6.6176 3.27079C6.90606 3.31106 7.68903 3.96542 8.02694 4.43858C8.48023 5.09294 8.8676 7.09629 8.64507 7.68019C8.54617 7.94193 8.17529 8.25401 7.35936 8.76744C6.68353 9.20032 6.64232 9.19025 6.84012 8.67683C6.92254 8.47549 6.97199 8.27415 6.94727 8.23388C6.93078 8.18354 6.95551 8.15334 7.00496 8.15334C7.05441 8.15334 7.07089 8.10301 7.04617 8.05267C7.02144 7.99227 7.02969 7.952 7.07089 7.952C7.14507 7.952 7.14507 6.65334 7.06265 6.26072C6.97199 5.8379 6.90606 5.60636 6.83188 5.49562C6.79067 5.43522 6.68353 5.26408 6.59287 5.12314C6.50221 4.97213 6.32914 4.82113 6.20551 4.78086C6.08188 4.75066 5.95002 4.67012 5.92529 4.60972C5.85111 4.45871 5.0599 4.39831 4.74672 4.52918C3.72474 4.93186 3.15606 6.74395 3.74947 7.69025C4.05441 8.17348 5.02694 8.59629 5.02694 8.24395C5.02694 8.19361 5.06815 8.17348 5.10936 8.20368C5.23298 8.29428 5.6698 7.73052 5.73573 7.39831C5.7687 7.22717 5.75221 7.03589 5.69452 6.91509C5.62034 6.78421 5.62034 6.74395 5.68628 6.79428C5.75221 6.84462 5.74397 6.79428 5.67804 6.66341C5.56265 6.44193 5.22474 6.20032 5.05166 6.21039C4.81265 6.22046 4.77969 6.25066 4.77969 6.44193C4.77969 6.69361 4.98573 6.81441 5.13408 6.65334C5.25771 6.53254 5.26595 6.56274 5.29892 7.14663C5.3154 7.45871 5.28243 7.51911 4.98573 7.70032L4.65606 7.91173L4.35111 7.53925C4.18628 7.33791 4.02969 7.1869 4.02144 7.20703C4.00496 7.22717 3.98848 7.1567 3.98023 7.06609C3.97199 6.97549 3.96375 6.80435 3.95551 6.69361C3.94727 6.5124 3.98848 6.18019 4.04617 6.03925C4.05441 6.00905 4.06265 5.91844 4.07089 5.8379C4.07914 5.75737 4.09562 5.70703 4.12034 5.72717C4.14507 5.7473 4.30991 5.59629 4.48298 5.39495C4.73023 5.12314 4.88683 5.03254 5.09287 5.03254C5.38133 5.03254 6.18078 5.42515 6.18078 5.55603C6.18078 5.60636 6.23023 5.63656 6.28793 5.63656C6.35386 5.63656 6.40331 5.69697 6.41155 5.75737C6.41155 5.82784 6.46925 6.08958 6.53518 6.34126C6.87309 7.63992 6.37859 8.97884 5.43903 9.35133C5.05166 9.50233 4.16155 9.47213 3.98023 9.30099C3.89782 9.23052 3.79067 9.16005 3.73298 9.16005C3.50221 9.16005 2.80991 8.10301 2.75221 7.68019C2.72749 7.43858 2.67804 7.26744 2.64507 7.28757C2.58738 7.33791 2.60386 6.452 2.67804 5.98891C2.70276 5.81777 2.72749 5.63656 2.73573 5.58623C2.74397 5.52582 2.80166 5.42515 2.85936 5.34462C2.94177 5.25401 2.95002 5.17348 2.88408 5.08287C2.81815 4.9822 2.83463 4.952 2.94177 4.97213C3.02419 4.97213 3.13133 4.85133 3.21375 4.64999C3.35386 4.3077 4.07914 3.52247 4.2687 3.52247C4.31815 3.52247 4.3676 3.47213 4.3676 3.40166C4.3676 3.34126 4.38408 3.31106 4.40881 3.34126C4.43353 3.37146 4.63133 3.33119 4.84562 3.25066C5.20001 3.12985 5.66155 3.13992 6.6176 3.27079ZM11.3401 4.31777C11.2165 4.55938 11.0434 4.42851 11.0599 4.1265C11.0764 3.82448 11.0846 3.82448 11.233 4.01576C11.3236 4.11643 11.3648 4.25737 11.3401 4.31777ZM13.2687 4.68019C13.2687 4.87146 13.0214 4.952 12.972 4.78086C12.8896 4.51911 13.005 4.28757 13.1451 4.42851C13.211 4.49898 13.2687 4.60972 13.2687 4.68019ZM11.5709 6.69361C11.6616 6.70368 11.7522 6.73388 11.7687 6.74395C11.7769 6.75401 11.8346 6.77415 11.8923 6.78421C11.9418 6.78421 11.9912 6.83455 11.9995 6.89495C11.9995 6.94529 12.0407 7.10636 12.0901 7.2473C12.4116 8.19361 12.2879 8.64663 11.6286 9.03925C11.3566 9.20032 11.1588 9.37146 11.1918 9.41173C11.2247 9.46207 11.2083 9.46207 11.1506 9.43187C11.0517 9.35133 10.8209 9.56274 10.1945 10.3178C9.76595 10.8312 9.1643 11.2137 8.95001 11.1131C8.87584 11.0728 8.81815 11.103 8.81815 11.1735C8.81815 11.2439 8.75221 11.2741 8.66155 11.2439C8.57914 11.2238 8.44727 11.2439 8.37309 11.2943C8.29892 11.3446 8.24122 11.3446 8.24122 11.3043C8.24122 11.254 8.16705 11.2137 8.07639 11.2037C7.98573 11.1936 7.9198 11.2137 7.94452 11.254C7.97749 11.3245 7.61485 11.3144 6.64232 11.2137C6.18078 11.1634 6.09012 11.1735 6.14782 11.2842C6.19727 11.405 6.18903 11.405 6.07364 11.2943C5.87584 11.0929 3.53518 10.9419 2.85936 11.0829C2.69452 11.1131 2.53793 11.1131 2.5132 11.0728C2.49672 11.0325 2.38133 11.0225 2.26595 11.0426C1.961 11.1231 1.50771 10.9923 1.45002 10.8111C1.40881 10.6701 1.4665 10.6198 1.93628 10.4084C2.02694 10.3681 2.34012 10.2272 2.63683 10.0963C3.48573 9.71374 3.63408 9.66341 3.58463 9.77415C3.55166 9.82448 3.60936 9.86475 3.70826 9.86475C3.80716 9.86475 3.96375 9.91509 4.05441 9.97549C4.45001 10.2372 6.09837 10.0661 6.09837 9.77415C6.09837 9.73388 6.29617 9.70368 6.53518 9.69361C6.98848 9.68354 7.88683 9.31106 8.16705 9.02918C8.24947 8.93858 8.35661 8.85804 8.39782 8.85804C8.43903 8.85804 8.58738 8.72717 8.73573 8.55603C8.88408 8.39495 9.03243 8.27415 9.07364 8.30435C9.24672 8.44529 10.0544 7.71039 10.0544 7.40838C10.0544 7.31777 10.1039 7.2473 10.1698 7.2473C10.2357 7.2473 10.3017 7.20703 10.3181 7.1567C10.3841 6.92515 10.9857 6.5426 11.1918 6.61307C11.2989 6.64327 11.472 6.68354 11.5709 6.69361Z" fill="black"/>
<path d="M11.0601 7.44015C10.92 7.55089 10.9612 8.00391 11.1178 8.00391C11.1837 8.00391 11.2744 7.92337 11.3238 7.83277C11.431 7.61129 11.2332 7.30928 11.0601 7.44015Z" fill="black"/>
<path d="M11.7858 11.5466C11.7858 11.6573 11.8434 11.6875 11.9588 11.6473C12.0742 11.607 12.1154 11.6271 12.0907 11.7177C12.066 11.7882 12.0989 11.8486 12.1566 11.8486C12.2226 11.8486 12.2638 11.8184 12.2555 11.7882C12.2473 11.758 12.2803 11.7278 12.3215 11.7278C12.3709 11.7278 12.3956 11.758 12.3874 11.7882C12.3792 11.8184 12.4533 11.8386 12.5522 11.8285C12.7336 11.7983 12.8819 11.9392 12.9149 12.1607C12.9314 12.2211 12.8819 12.2513 12.8077 12.211C12.7336 12.1808 12.6511 12.201 12.6182 12.2614C12.5358 12.4224 11.9588 12.5533 11.5467 12.5131C11.3489 12.4929 11.2171 12.5131 11.2418 12.5634C11.2665 12.6137 11.2336 12.654 11.1676 12.654C11.1017 12.654 11.0687 12.6137 11.0852 12.5735C11.1099 12.5332 11.0687 12.4728 10.9945 12.4426C10.9121 12.4023 10.8874 12.4224 10.9286 12.503C10.9698 12.5735 10.9533 12.5835 10.8792 12.5332C10.7143 12.4124 10.1127 12.3922 9.99729 12.503C9.9396 12.5634 9.89015 12.5634 9.89015 12.5131C9.89015 12.4627 9.81597 12.4224 9.72531 12.4124C9.63465 12.4023 9.56048 12.4526 9.56048 12.5433C9.56048 12.6238 9.51927 12.6842 9.46982 12.6842C9.32971 12.6842 9.42861 12.9157 9.57696 12.9459C9.65114 12.956 9.70059 12.9157 9.67586 12.8453C9.65114 12.7748 9.71707 12.7245 9.82421 12.7144C9.97257 12.6943 9.98905 12.7144 9.89015 12.7849C9.82421 12.8352 9.80773 12.8855 9.84894 12.8855C10.4341 12.9459 10.8627 12.9258 10.9533 12.8453C11.0522 12.7547 11.0605 12.7647 11.0028 12.8855C10.9451 13.0063 10.9533 13.0164 11.0605 12.9157C11.1264 12.8453 11.2006 12.805 11.2253 12.8352C11.283 12.9057 12.1978 12.9761 12.1649 12.8956C12.1484 12.8654 12.2967 12.8251 12.5028 12.8151C12.7088 12.7949 12.9314 12.7345 12.989 12.6741C13.055 12.6137 13.1044 12.5936 13.1044 12.6339C13.1044 12.6741 13.1621 12.654 13.2281 12.5835C13.294 12.5131 13.327 12.4224 13.3022 12.3721C13.2775 12.3218 13.3022 12.2916 13.3599 12.3016C13.4094 12.3218 13.4753 12.2714 13.5 12.1909C13.5165 12.1104 13.5 12.0802 13.4506 12.1204C13.4094 12.1506 13.3434 12.1104 13.3187 12.0198C13.294 11.9392 13.3022 11.899 13.3434 11.9292C13.3847 11.9594 13.4423 11.9392 13.4753 11.8788C13.5 11.8285 13.4753 11.7782 13.4094 11.7782C13.3434 11.7782 13.261 11.7077 13.2363 11.6171C13.2033 11.5265 13.1292 11.4761 13.055 11.5164C12.989 11.5466 12.9478 11.5365 12.9726 11.4963C12.9973 11.4459 12.7336 11.4057 12.3956 11.4057C11.9094 11.4057 11.7858 11.4359 11.7858 11.5466Z" fill="black"/>
</svg>
