<svg width="15" height="15" viewBox="0 0 15 15" fill="none" xmlns="http://www.w3.org/2000/svg">
<path d="M6.87732 2.52153C6.70634 2.55903 6.34883 2.74653 6.07681 2.9434C5.79701 3.14965 5.54054 3.27153 5.46282 3.2434C4.98095 3.06528 3.83069 3.27153 3.411 3.59965C3.10789 3.8434 2.71929 4.6684 2.71929 5.06215C2.71929 5.16528 2.68821 5.24965 2.64935 5.24965C2.61049 5.24965 2.55608 5.35278 2.53276 5.48403C2.48613 5.7184 2.1053 6.2809 2.08976 6.1309C2.08199 6.08403 2.07422 5.91528 2.06644 5.76528C2.0509 5.6059 2.03536 5.40903 2.03536 5.32465C2.02758 5.21215 1.97318 5.18403 1.88769 5.22153C1.79442 5.24965 1.80997 5.21215 1.92655 5.10903C2.02758 5.01528 2.08976 4.8934 2.06644 4.80903C2.04313 4.73403 2.05867 4.7059 2.09753 4.73403C2.21411 4.8184 2.29183 4.50903 2.18302 4.37778C2.12085 4.30278 2.09753 4.30278 2.09753 4.38715C2.09753 4.45278 2.0509 4.49965 1.9965 4.49965C1.94209 4.49965 1.80997 4.67778 1.70893 4.8934C1.60012 5.12778 1.56903 5.24965 1.63898 5.20278C1.72447 5.14653 1.72447 5.1559 1.6623 5.24028C1.55349 5.3809 1.60789 6.0184 1.74002 6.11215C1.80219 6.1684 1.80219 6.18715 1.74002 6.18715C1.67784 6.18715 1.67007 6.29028 1.70893 6.51528C1.74779 6.74028 1.74779 6.82465 1.68561 6.77778C1.63898 6.74028 1.62344 6.77778 1.65453 6.87153C1.69339 6.98403 1.6623 7.0309 1.54572 7.0309C1.46023 7.0309 1.37473 6.96528 1.35142 6.89028C1.30479 6.75903 1.28924 6.7684 1.19598 6.90903C1.10271 7.05903 1.09494 7.05903 1.1338 6.9184C1.16489 6.79653 1.14157 6.77778 1.01722 6.81528C0.82292 6.87153 0.737428 7.11528 0.892869 7.1809C0.947273 7.20903 0.978361 7.2934 0.962817 7.35903C0.939501 7.43403 0.993905 7.54653 1.0794 7.61215C1.17266 7.67778 1.24261 7.7809 1.24261 7.84653C1.24261 7.90278 1.35142 8.0809 1.48354 8.24028C1.61567 8.39965 1.69339 8.5309 1.67007 8.5309C1.63898 8.5309 1.65453 8.59653 1.70893 8.67153C1.78665 8.78403 1.78665 8.81215 1.70893 8.81215C1.63898 8.81215 1.63898 8.84965 1.7167 8.97153C1.77888 9.0559 1.82551 9.14965 1.82551 9.17778C1.82551 9.2059 1.87214 9.22465 1.94209 9.2059C2.04313 9.18715 2.04313 9.19653 1.94986 9.27153C1.84883 9.34653 1.84883 9.38403 1.94209 9.53403C2.00427 9.62778 1.8566 9.47778 1.61567 9.19653C1.3281 8.85903 1.1338 8.70903 1.05608 8.74653C0.885097 8.8309 0.900641 9.11215 1.0794 9.34653C1.16489 9.45903 1.21152 9.56215 1.18821 9.59965C1.16489 9.62778 1.20375 9.67465 1.2737 9.71215C1.34365 9.74028 1.37473 9.8059 1.35142 9.85278C1.3281 9.89965 1.38251 9.93715 1.468 9.93715C1.56126 9.93715 1.63121 9.97465 1.63121 10.0309C1.63121 10.0778 1.72447 10.1528 1.84883 10.1809C2.08199 10.2559 2.40064 10.509 2.40841 10.6215C2.40841 10.6684 2.47059 10.8184 2.54831 10.9497C2.75038 11.3059 2.80479 11.5122 2.70375 11.5872C2.65712 11.6247 2.64157 11.6153 2.66489 11.5684C2.68821 11.5122 2.68821 11.4372 2.65712 11.3903C2.55608 11.2215 1.65453 10.7528 1.56126 10.8184C1.42914 10.9215 1.45245 11.2778 1.58458 11.2215C1.6623 11.184 1.68561 11.2122 1.65453 11.3059C1.63121 11.3903 1.67007 11.4372 1.77111 11.4372C1.86437 11.4372 1.95764 11.484 1.98095 11.5309C2.01204 11.5872 2.06644 11.6059 2.1053 11.5778C2.14416 11.5403 2.17525 11.5684 2.17525 11.6247C2.17525 11.6809 2.20634 11.709 2.2452 11.6715C2.28406 11.6434 2.33846 11.6622 2.36178 11.709C2.3851 11.7559 2.47836 11.7747 2.57163 11.7465C2.66489 11.709 2.76593 11.7465 2.80479 11.8215C2.85919 11.934 2.87473 11.934 2.87473 11.8215C2.87473 11.7372 2.90582 11.7278 2.97577 11.7934C3.0224 11.8403 3.20893 11.9059 3.37992 11.9247C3.76074 11.9809 4.28924 12.2903 4.11826 12.3559C4.05608 12.384 3.91618 12.4403 3.80738 12.4965C3.69857 12.5434 3.44986 12.5903 3.24779 12.5997C2.80479 12.609 2.4939 12.8622 2.64935 13.0872C2.71929 13.1903 2.76593 13.1997 2.85142 13.1059C2.91359 13.0403 3.09235 13.0028 3.24002 13.0122C3.48872 13.0403 3.51204 13.0215 3.41878 12.8903C3.33328 12.759 3.34106 12.759 3.53536 12.8809C3.65971 12.9559 3.79183 12.9934 3.83846 12.9559C3.8851 12.9184 3.9939 12.8903 4.0794 12.8903C4.16489 12.8809 4.22707 12.834 4.21929 12.7778C4.19598 12.6465 5.09753 12.6747 5.21411 12.8153C5.26074 12.8715 5.35401 12.8997 5.40841 12.8715C5.59494 12.7872 5.52499 13.0028 5.32292 13.1622C5.21411 13.2465 5.12862 13.284 5.12862 13.2559C5.12862 13.2184 5.0509 13.2653 4.95764 13.3684C4.86437 13.4622 4.81774 13.4997 4.84106 13.434C4.87992 13.359 4.84106 13.3309 4.74779 13.3403C4.6623 13.3403 4.61567 13.3872 4.63121 13.4247C4.65453 13.4622 4.63121 13.4997 4.58458 13.4997C4.53017 13.4997 4.53795 13.5465 4.60012 13.6309C4.67784 13.734 4.72447 13.734 4.80997 13.6497C4.90323 13.5653 4.911 13.5747 4.86437 13.6684C4.80997 13.7809 4.82551 13.7809 4.98095 13.6778C5.08199 13.6122 5.18302 13.5465 5.20634 13.5465C5.22966 13.5372 5.33069 13.4997 5.4395 13.4528C5.54831 13.4153 5.71929 13.3684 5.8281 13.3497C5.93691 13.3403 6.03017 13.3215 6.04572 13.3122C6.05349 13.3028 6.10012 13.2747 6.13898 13.2653C6.18561 13.2559 6.22447 13.2372 6.24002 13.2184C6.34883 13.1153 7.01722 13.0028 6.97059 13.0965C6.92396 13.1903 7.60789 13.5278 7.911 13.5653C8.01204 13.5747 8.18302 13.6497 8.29183 13.7434C8.42396 13.8465 8.47059 13.8559 8.42396 13.7715C8.37732 13.659 8.3851 13.659 8.48613 13.7622C8.64935 13.9215 9.10789 13.8747 9.15453 13.6965C9.17784 13.6028 9.15453 13.584 9.06903 13.6215C8.99131 13.659 8.96023 13.6403 8.98354 13.5559C9.00686 13.4715 8.96023 13.4528 8.79701 13.4809C8.54054 13.5184 8.40064 13.359 8.54831 13.1903C8.62603 13.1059 8.64157 13.1153 8.60271 13.2372C8.54054 13.4528 8.56385 13.4434 8.89805 13.2184C9.05349 13.1153 9.15453 13.0778 9.12344 13.1434C9.07681 13.2372 9.08458 13.2465 9.18561 13.1528C9.24779 13.0872 9.32551 13.059 9.34883 13.0965C9.37992 13.1247 9.44986 13.0965 9.51981 13.0309C9.58199 12.9653 9.63639 12.9465 9.63639 12.984C9.63639 13.0309 9.69857 12.9934 9.77629 12.9184C9.98613 12.7028 10.1338 12.609 10.0716 12.7403C10.0328 12.8153 10.0483 12.8434 10.1105 12.834C10.1727 12.8153 10.3281 12.8715 10.4602 12.9653C10.5924 13.0497 10.7944 13.134 10.9032 13.1622C11.0198 13.1809 11.1442 13.2278 11.1908 13.2653C11.2374 13.3028 11.2452 13.2559 11.2141 13.1528C11.1675 13.0122 11.183 13.0028 11.2763 13.0965C11.3696 13.1903 11.3929 13.1715 11.4006 13.0215C11.4084 12.9184 11.3851 12.8622 11.3385 12.8903C11.2996 12.9278 11.2685 12.8997 11.2685 12.8528C11.2685 12.7965 11.2219 12.7497 11.1597 12.7497C11.1053 12.7497 11.012 12.684 10.9576 12.609C10.9032 12.534 10.8333 12.4965 10.7944 12.5247C10.7556 12.5528 10.6701 12.5059 10.6079 12.4309C10.4991 12.309 10.5069 12.2809 10.6312 12.1965C10.8333 12.0653 11.183 11.9997 11.2219 12.084C11.2452 12.1215 11.4084 12.1403 11.5949 12.1309C11.7815 12.1215 12.0069 12.1122 12.1079 12.1028C12.2322 12.0934 12.2711 12.0559 12.2322 11.9715C12.1934 11.9059 12.2322 11.9153 12.3177 11.9997C12.4499 12.1309 12.4576 12.1215 12.411 11.9622C12.3644 11.8215 12.3721 11.8028 12.4654 11.8965C12.5898 12.0184 12.8618 11.7747 12.7841 11.6153C12.7141 11.4934 12.512 11.5122 12.512 11.634C12.512 11.709 12.481 11.709 12.411 11.634C12.3333 11.559 12.2789 11.5684 12.2012 11.6528C12.1234 11.7465 12.1157 11.7372 12.1623 11.6247C12.2089 11.5122 12.2012 11.5122 12.1234 11.5965C12.069 11.6528 11.9835 11.6809 11.9291 11.6622C11.8747 11.634 11.8048 11.6528 11.7737 11.709C11.7504 11.7653 11.6882 11.8122 11.6493 11.8122C11.6027 11.8122 11.5949 11.7747 11.6183 11.7184C11.6416 11.6715 11.626 11.6247 11.5716 11.6247C11.5094 11.6247 11.5094 11.5872 11.5794 11.484C11.6338 11.3997 11.696 11.3528 11.7115 11.3809C11.7271 11.3997 11.8514 11.2965 11.9913 11.1465C12.1234 10.9965 12.2711 10.8747 12.3177 10.8747C12.3566 10.8747 12.4965 10.7247 12.6208 10.5465C12.8385 10.2372 13.0483 10.0872 12.9317 10.3309C12.8696 10.4622 13.2037 10.134 13.5069 9.77778C13.6468 9.60903 13.6545 9.56215 13.5613 9.56215C13.4913 9.56215 13.4602 9.51528 13.4835 9.4684C13.5069 9.42153 13.4758 9.37465 13.4058 9.37465C13.3281 9.37465 13.3048 9.42153 13.3359 9.48715C13.3747 9.55278 13.3592 9.56215 13.297 9.51528C13.2348 9.47778 13.1571 9.52465 13.0872 9.63715C13.025 9.74965 12.924 9.81528 12.854 9.77778C12.7763 9.74028 12.7607 9.6934 12.8229 9.60903C12.8696 9.5434 12.9006 9.44965 12.8851 9.41215C12.8773 9.36528 12.8929 9.1309 12.9317 8.88715C12.9628 8.6059 12.955 8.37153 12.9006 8.24965C12.7841 7.98715 12.7141 6.79653 12.8074 6.59965C12.8618 6.47778 12.9084 6.49653 13.0794 6.74965C13.196 6.90903 13.2659 7.09653 13.2426 7.1434C13.2115 7.19965 13.2271 7.2184 13.2659 7.19028C13.3126 7.15278 13.367 7.19028 13.3981 7.26528C13.4214 7.34028 13.4058 7.42465 13.3747 7.45278C13.1804 7.5934 13.4369 7.94028 13.6545 7.84653C13.8411 7.77153 13.6312 6.4684 13.4369 6.4684C13.4058 6.4684 13.3514 6.38403 13.3281 6.2809C13.297 6.17778 13.2115 6.0934 13.126 6.0934C13.0405 6.0934 12.9939 6.04653 13.0172 5.99965C13.0405 5.9434 13.025 5.9059 12.9861 5.9059C12.9395 5.9059 12.8385 5.8309 12.7607 5.73715C12.5431 5.4934 12.3022 5.3434 12.1234 5.3434C12.0379 5.3434 11.968 5.3059 11.968 5.25903C11.968 5.21215 11.8126 5.0809 11.626 4.9684C11.2452 4.75278 11.0975 4.49965 11.354 4.49965C11.4395 4.49965 11.5794 4.45278 11.6649 4.4059C11.7426 4.34965 11.8126 4.34028 11.8126 4.38715C11.8126 4.42465 11.9369 4.5184 12.0846 4.58403C12.2322 4.64028 12.4265 4.8184 12.512 4.97778C12.6286 5.16528 12.7374 5.24965 12.8851 5.24028C13.0017 5.24028 13.0561 5.21215 13.0017 5.1934C12.9473 5.16528 12.924 5.09028 12.9473 5.02465C13.0017 4.84653 12.5898 4.2934 12.4576 4.34965C12.3955 4.37778 12.3644 4.3684 12.3877 4.32153C12.4576 4.19028 12.2167 4.00278 12.0457 4.05903C11.9602 4.08715 11.8747 4.0684 11.8514 4.02153C11.8281 3.98403 11.6338 3.9559 11.424 3.97465C11.2141 3.98403 11.0587 3.97465 11.0742 3.93715C11.1131 3.85278 10.8644 3.8809 10.74 3.97465C10.6856 4.01215 10.6468 3.9934 10.6468 3.9184C10.6468 3.82465 10.6312 3.82465 10.5846 3.90903C10.4758 4.1059 8.94468 4.04028 8.85142 3.83403C8.79701 3.70278 8.81256 3.66528 8.91359 3.66528C8.99131 3.66528 9.1623 3.64653 9.28665 3.60903C9.41878 3.5809 9.73743 3.5434 10.0017 3.52465C10.2659 3.51528 10.5069 3.47778 10.5379 3.44028C10.569 3.40278 10.6468 3.4309 10.7089 3.49653C10.7867 3.56215 10.81 3.57153 10.7789 3.5059C10.7478 3.44028 10.7944 3.37465 10.9032 3.33715C11.0509 3.2809 11.0587 3.27153 10.9421 3.18715C10.6079 2.9434 8.56385 3.14965 8.67266 3.41215C8.69598 3.4684 8.61826 3.38403 8.48613 3.23403C7.98872 2.61528 7.49909 2.39965 6.87732 2.52153ZM7.39805 3.04653C7.56126 3.0559 7.7167 3.0934 7.74779 3.14028C7.78665 3.17778 7.75556 3.18715 7.69339 3.14965C7.63121 3.10278 7.67007 3.1684 7.78665 3.29028C8.28406 3.82465 8.46282 4.72465 8.13639 5.09028C8.02758 5.20278 7.81774 5.48403 7.65453 5.7184C7.38251 6.11215 7.26593 6.19653 7.26593 6.0184C7.26593 5.9809 7.19598 5.85903 7.11049 5.73715C7.02499 5.62465 6.94727 5.48403 6.94727 5.43715C6.9395 5.3809 6.93173 5.29653 6.92396 5.24028C6.92396 5.18403 6.86178 5.1559 6.80738 5.18403C6.72966 5.22153 6.70634 5.1934 6.72966 5.1184C6.75297 5.0434 6.6053 4.91215 6.30219 4.75278C6.03795 4.61215 5.85142 4.46215 5.85919 4.38715C5.91359 4.0309 6.0224 3.79653 6.26333 3.5434C6.411 3.38403 6.51204 3.23403 6.4965 3.19653C6.48095 3.1684 6.55867 3.1309 6.66748 3.12153C6.78406 3.12153 6.8851 3.06528 6.90064 3.00903C6.91618 2.95278 6.97059 2.93403 7.01722 2.97153C7.06385 2.99965 7.23484 3.03715 7.39805 3.04653ZM5.51722 3.71215C5.51722 3.81528 5.15194 3.94653 4.75556 3.98403C4.56126 4.00278 3.81515 4.39653 3.6908 4.54653C3.65194 4.60278 3.53536 4.72465 3.44209 4.8184L3.26333 4.99653V4.71528C3.26333 4.2559 3.97836 3.64653 4.41359 3.74028C4.46023 3.74965 4.50686 3.72153 4.50686 3.68403C4.50686 3.64653 4.73225 3.60903 5.01204 3.60903C5.34624 3.60903 5.51722 3.64653 5.51722 3.71215ZM10.2348 5.16528C10.4058 5.3434 10.6234 5.85903 10.6001 6.04653C10.5846 6.14965 10.569 6.3559 10.5535 6.51528C10.5224 6.9559 9.85401 7.68715 9.48095 7.68715C9.38769 7.68715 9.34106 7.72465 9.36437 7.7809C9.38769 7.83715 9.3566 7.84653 9.28665 7.8184C9.22448 7.7809 9.12344 7.79965 9.06903 7.8559C9.0224 7.90278 8.8281 7.94028 8.64157 7.9309C8.46282 7.9309 8.31515 7.94965 8.31515 7.98715C8.31515 8.03403 8.27629 8.06215 8.22966 8.06215C8.1908 8.06215 8.17525 8.01528 8.19857 7.9684C8.2452 7.87465 8.14416 7.83715 7.94209 7.86528C7.88769 7.87465 7.8566 7.84653 7.86437 7.80903C7.88769 7.67778 7.67007 7.2184 7.58458 7.2184C7.54572 7.2184 7.57681 7.16215 7.65453 7.08715C7.74002 7.01215 7.77888 6.90903 7.74779 6.8059C7.7167 6.72153 7.72447 6.66528 7.76333 6.6934C7.83328 6.74965 8.00427 6.3559 8.00427 6.14965C8.00427 6.07465 8.05867 5.99965 8.12085 5.96215C8.18302 5.93403 8.23743 5.85903 8.23743 5.7934C8.23743 5.72778 8.36178 5.5684 8.50168 5.43715C8.64935 5.3059 8.75038 5.17465 8.73484 5.14653C8.71929 5.1184 8.75038 5.09028 8.80479 5.0809C9.03795 5.06215 9.42655 4.9684 9.45764 4.9309C9.50427 4.87465 10.126 5.06215 10.2348 5.16528ZM6.23225 5.40903C6.40323 5.54965 6.55867 5.7184 6.58199 5.78403C6.6053 5.84965 6.65194 5.88715 6.68302 5.85903C6.72188 5.8309 6.72966 5.88715 6.70634 5.99028C6.6908 6.08403 6.72188 6.22465 6.78406 6.29028C6.84624 6.3559 6.87732 6.48715 6.85401 6.5809C6.83846 6.67465 6.86178 6.8809 6.90841 7.04028C6.97836 7.2934 6.97059 7.38715 6.82292 7.69653C6.59753 8.18403 6.37214 8.25903 5.78147 8.06215C5.4395 7.94028 5.26852 7.92153 5.15971 7.99653C5.08199 8.0434 5.03536 8.05278 5.06644 8.01528C5.14416 7.92153 4.84106 7.65903 4.74779 7.72465C4.70893 7.75278 4.64675 7.72465 4.60012 7.65903C4.5224 7.54653 4.50686 7.49028 4.50686 7.31215C4.50686 7.2559 4.45245 7.2184 4.39028 7.2184C4.14157 7.2184 4.21152 6.08403 4.49131 5.62465C4.84883 5.02465 5.65712 4.92153 6.23225 5.40903ZM12.2012 5.99965C12.2867 6.06528 12.3177 6.29965 12.3255 7.00278C12.3333 7.91215 12.3333 7.92153 12.1001 8.18403C11.8281 8.4934 11.525 8.65278 11.354 8.57778C11.2685 8.54965 11.2763 8.57778 11.3773 8.67153C11.4628 8.74653 11.5017 8.84028 11.4784 8.87778C11.424 8.9434 11.1986 8.6434 11.1908 8.50278C11.1908 8.46528 11.253 8.43715 11.3307 8.4559C11.4084 8.47465 11.455 8.43715 11.4395 8.36215C11.4317 8.28715 11.4473 8.25903 11.4784 8.27778C11.6338 8.39965 12.2012 7.64028 12.24 7.27465C12.2711 6.93715 12.2633 6.9184 12.1701 7.08715C12.1079 7.1809 12.0535 7.30278 12.0457 7.35903C12.0302 7.4059 11.9291 7.50903 11.8203 7.57465C11.7115 7.6309 11.4784 7.83715 11.3151 8.01528C11.1442 8.1934 10.981 8.3434 10.9421 8.3434C10.911 8.3434 10.81 8.42778 10.7245 8.5309C10.6312 8.6434 10.569 8.67153 10.569 8.59653C10.569 8.51215 10.5457 8.51215 10.4991 8.6059C10.4602 8.69028 10.2193 8.74653 9.82292 8.77465C9.24779 8.81215 9.20116 8.80278 9.10012 8.6059C9.0224 8.43715 9.0224 8.4184 9.10012 8.50278C9.2167 8.6434 9.43432 8.66215 9.36437 8.5309C9.34106 8.48403 9.36437 8.46528 9.42655 8.4934C9.48872 8.52153 9.67525 8.47465 9.83846 8.39028C10.0017 8.31528 10.2504 8.22153 10.3903 8.20278C10.7089 8.1559 10.9887 7.94965 11.4317 7.41528C11.867 6.89028 11.968 6.66528 11.968 6.2434C11.968 5.88715 12.0069 5.84965 12.2012 5.99965ZM2.83587 6.29028C2.76593 6.70278 3.23225 7.41528 3.95504 8.0059C4.1338 8.14653 4.25815 8.29653 4.22707 8.33403C4.19598 8.36215 4.15712 8.33403 4.14157 8.2684C4.11826 8.21215 4.07162 8.1559 4.03276 8.1559C3.98613 8.1559 3.97836 8.21215 4.00945 8.2684C4.05608 8.36215 4.04054 8.36215 3.95504 8.28715C3.89287 8.2309 3.76074 8.14653 3.65194 8.10903C3.5509 8.07153 3.41878 7.97778 3.3566 7.91215C3.30219 7.83715 3.2167 7.80903 3.17007 7.83715C3.12344 7.87465 3.10789 7.86528 3.13121 7.80903C3.15453 7.76215 3.10012 7.61215 3.00686 7.49028C2.64935 7.00278 2.61049 6.8059 2.76593 6.2059C2.81256 6.0184 2.86696 6.07465 2.83587 6.29028ZM2.39287 7.57465C2.86696 8.39028 3.30997 8.6059 4.54572 8.6059C5.00427 8.61528 5.40064 8.63403 5.42396 8.66215C5.50945 8.77465 5.36178 8.8309 4.87992 8.87778C4.60789 8.9059 4.36696 8.9809 4.33587 9.03715C4.29701 9.0934 4.2737 9.10278 4.2737 9.04653C4.2737 8.99028 4.04054 8.95278 3.75297 8.9434C2.81256 8.93403 2.01981 8.65278 2.01981 8.33403C2.01981 8.27778 2.0509 8.25903 2.08976 8.29653C2.12862 8.32465 2.11308 8.22153 2.0509 8.06215C1.98095 7.91215 1.89546 7.75278 1.84883 7.72465C1.79442 7.68715 1.80219 7.64028 1.86437 7.5934C1.94209 7.53715 1.98872 7.3684 2.01204 7.09653C2.02758 6.96528 2.07422 7.0309 2.39287 7.57465ZM7.84883 8.81215C7.92655 8.81215 8.00427 8.78403 8.02758 8.73715C8.04313 8.69965 8.04313 8.72778 8.02758 8.80278C8.01204 8.87778 8.04313 8.9059 8.12085 8.8684C8.1908 8.84028 8.22188 8.84965 8.19857 8.9059C8.12862 9.03715 8.26074 9.0184 8.39287 8.87778C8.48613 8.78403 8.48613 8.7934 8.40064 8.92465C8.34624 9.00903 8.32292 9.1309 8.35401 9.18715C8.37732 9.23403 8.36178 9.2809 8.30738 9.2809C8.25297 9.2809 8.23743 9.30903 8.26074 9.34653C8.29183 9.37465 8.37732 9.33715 8.44727 9.26215C8.54054 9.15903 8.64157 9.14028 8.74261 9.18715C8.968 9.29965 9.18561 9.29965 9.13121 9.18715C9.10789 9.1309 9.12344 9.0934 9.1623 9.0934C9.20893 9.0934 9.24779 9.1309 9.24779 9.18715C9.24779 9.23403 9.39546 9.2809 9.57422 9.2809H9.90064L9.65194 9.5059C9.51204 9.62778 9.25556 9.74965 9.08458 9.78715C8.90582 9.82465 8.65712 9.9184 8.53276 9.9934C8.40064 10.0778 8.32292 10.0965 8.35401 10.0309C8.3851 9.96528 8.34624 9.94653 8.22188 9.97465C7.72447 10.0965 7.53795 10.1153 7.53795 10.0309C7.53795 9.97465 7.51463 9.94653 7.48354 9.9559C7.32033 10.0028 6.91618 9.81528 6.97059 9.72153C7.00168 9.64653 6.97836 9.6559 6.90064 9.7309C6.7996 9.82465 6.76074 9.82465 6.67525 9.7309C6.61308 9.66528 6.48095 9.59965 6.37214 9.59028C6.26333 9.57153 5.99131 9.5434 5.7737 9.51528C5.50168 9.47778 5.36178 9.49653 5.36178 9.56215C5.36178 9.6184 5.31515 9.63715 5.26852 9.59965C5.19857 9.5434 5.19857 9.57153 5.26852 9.68403C5.33069 9.7684 5.40064 9.83403 5.42396 9.82465C5.45504 9.81528 5.55608 9.85278 5.65712 9.9184C5.79701 10.0122 5.8281 10.0122 5.83587 9.9184C5.83587 9.82465 5.85142 9.82465 5.88251 9.90903C5.89805 9.97465 5.98354 10.0309 6.06126 10.0309C6.31774 10.0309 6.29442 10.1809 6.03795 10.2184C5.36178 10.3215 5.06644 10.2559 4.8566 9.9559C4.74002 9.78715 4.60012 9.6559 4.54572 9.6559C4.49131 9.6559 4.41359 9.59965 4.36696 9.53403C4.29701 9.44028 4.34365 9.41215 4.56903 9.3934C4.72447 9.38403 4.9965 9.34653 5.16748 9.30903C5.33846 9.27153 5.52499 9.25278 5.5794 9.27153C5.6338 9.2809 5.69598 9.22465 5.71929 9.14965C5.74261 9.06528 5.79701 9.02778 5.84365 9.0559C5.88251 9.08403 6.04572 9.03715 6.20116 8.9434C6.39546 8.8309 6.67525 8.77465 7.04831 8.76528C7.36696 8.76528 7.61567 8.72778 7.62344 8.67153C7.62344 8.61528 7.64675 8.63403 7.67007 8.69028C7.68561 8.7559 7.77111 8.81215 7.84883 8.81215ZM12.4965 8.87778C12.4887 9.02778 12.4499 9.19653 12.4032 9.27153C12.3566 9.34653 12.3255 9.4309 12.3333 9.45903C12.3721 9.56215 12.1934 10.1247 12.1234 10.1247C12.0846 10.1247 12.069 10.209 12.0846 10.3122C12.1001 10.4153 12.0846 10.4809 12.0457 10.4528C12.0069 10.4247 11.9369 10.4903 11.8903 10.5934C11.7737 10.8559 11.6416 10.8372 11.7271 10.5653C11.7659 10.4434 11.8203 10.2184 11.8436 10.0684C11.968 9.19653 12.0302 9.0184 12.2089 8.95278C12.2867 8.91528 12.3411 8.85903 12.3177 8.81215C12.2867 8.74653 12.3411 8.69028 12.4887 8.63403C12.5043 8.62465 12.5043 8.73715 12.4965 8.87778ZM11.5483 9.14028C11.4784 9.27153 11.3851 9.37465 11.3385 9.37465C11.2996 9.37465 11.1597 9.5059 11.0276 9.66528C10.8955 9.82465 10.7478 9.96528 10.6856 9.97465C10.6312 9.98403 10.5302 10.0497 10.4602 10.1153C10.3903 10.1809 10.3359 10.209 10.3359 10.1809C10.3359 10.1434 10.2582 10.1997 10.1649 10.3028C10.0483 10.4434 9.9395 10.4809 9.80738 10.434C9.65194 10.3872 9.62085 10.4059 9.65971 10.5278C9.6908 10.6309 9.67525 10.659 9.59753 10.6215C9.53536 10.5934 9.50427 10.5372 9.52758 10.4903C9.5509 10.4434 9.51204 10.4059 9.44209 10.4059C9.37214 10.4059 9.33328 10.4434 9.3566 10.4809C9.37992 10.5278 9.34883 10.5653 9.28665 10.5653C9.06126 10.5653 9.26334 10.2747 9.65194 10.0215C9.75297 9.96528 9.84624 9.8809 9.86955 9.85278C9.91618 9.77778 10.297 9.51528 10.6468 9.30903C10.9732 9.12153 10.9343 9.14028 11.253 9.04653C11.3929 9.00903 11.525 8.93403 11.5483 8.88715C11.5716 8.84028 11.6105 8.82153 11.6338 8.84965C11.6571 8.87778 11.6183 9.00903 11.5483 9.14028ZM2.67266 9.19653C2.64157 9.26215 2.89028 9.3559 3.30219 9.44028C3.43432 9.4684 3.58976 9.5434 3.65971 9.6184C3.72188 9.6934 3.82292 9.74965 3.86955 9.74965C3.92396 9.74965 3.96282 9.79653 3.96282 9.85278C3.96282 9.90903 4.00945 9.93715 4.06385 9.90903C4.11049 9.89028 4.21152 9.9559 4.28147 10.0684C4.40582 10.2559 4.39805 10.2653 4.18821 10.2653C4.06385 10.2653 3.96282 10.2372 3.96282 10.1903C3.96282 10.1528 3.83069 10.1247 3.67525 10.1247C3.51204 10.1247 3.25556 10.0778 3.10012 10.0309C2.79701 9.92778 2.20634 9.2809 2.32292 9.18715C2.43173 9.11215 2.71929 9.12153 2.67266 9.19653ZM6.86178 10.3872C6.95504 10.4059 7.1338 10.4153 7.25038 10.4153C7.36696 10.4153 7.56126 10.4528 7.67007 10.509C7.87214 10.6028 7.87214 10.6028 7.7167 10.734C7.32033 11.0715 6.72188 11.0809 6.04572 10.7622C5.72707 10.6122 5.78147 10.5278 6.22447 10.4528C6.44209 10.4153 6.59753 10.359 6.55867 10.3215C6.51981 10.2934 6.48095 10.1997 6.46541 10.1247C6.45764 10.0309 6.48872 10.0497 6.56644 10.1715C6.63639 10.2747 6.76852 10.3684 6.86178 10.3872ZM11.3151 10.3122C11.2374 10.8184 10.5302 11.6715 10.1105 11.7653C10.0405 11.784 9.98613 11.8028 9.98613 11.8215C9.98613 11.859 9.51204 11.8778 9.38769 11.8403C9.22448 11.7934 9.20116 11.6528 9.3566 11.6528C9.46541 11.6528 10.196 11.0715 10.2426 10.9403C10.2582 10.9028 10.3048 10.8934 10.3436 10.9309C10.3825 10.959 10.4136 10.9309 10.4136 10.884C10.4136 10.8278 10.4447 10.7809 10.4913 10.7809C10.5302 10.7809 10.6468 10.6965 10.74 10.6028C11.3851 9.94653 11.3773 9.94653 11.3151 10.3122ZM3.53536 10.6965C3.50427 10.7528 3.52758 10.7809 3.58199 10.7715C3.64416 10.7528 3.8851 10.7997 4.11826 10.8559C4.35142 10.9122 4.77888 10.9684 5.06644 10.9778C5.66489 10.9965 6.03795 11.259 5.6338 11.3809C5.52499 11.4184 5.40064 11.4184 5.36178 11.3903C5.32292 11.3622 5.27629 11.3715 5.26074 11.409C5.21411 11.5028 4.46023 11.4934 4.19598 11.3997C3.86955 11.2872 3.34883 10.9309 3.30219 10.7997C3.27888 10.734 3.29442 10.7059 3.33328 10.734C3.37214 10.7622 3.42655 10.7434 3.45764 10.6872C3.48095 10.6403 3.51981 10.5934 3.54313 10.5934C3.56644 10.5934 3.55867 10.6403 3.53536 10.6965ZM8.80479 10.9778C9.20116 10.7997 9.54313 10.7715 9.58199 10.9122C9.63639 11.0715 9.28665 11.3153 8.90582 11.3997C8.7737 11.4278 8.53276 11.484 8.36955 11.5215C8.21411 11.5684 7.95764 11.5684 7.80219 11.5309C7.49909 11.4465 7.36696 11.3434 7.54572 11.334C7.77888 11.3247 7.94209 11.259 8.12862 11.109C8.22966 11.0247 8.35401 10.9872 8.39287 11.0153C8.4395 11.0528 8.4939 10.9965 8.52499 10.9028C8.5794 10.7528 8.58717 10.7528 8.61048 10.8934C8.62603 11.0153 8.67266 11.034 8.80479 10.9778ZM7.18821 11.9247L7.57681 12.1684L7.22707 12.2809C7.03276 12.3465 6.7996 12.3934 6.70634 12.3934C6.6053 12.3934 6.52758 12.4309 6.52758 12.4684C6.52758 12.5809 5.4939 12.4684 5.39287 12.3465C5.36178 12.309 5.26074 12.2809 5.17525 12.2809C5.04313 12.2715 5.05867 12.2434 5.26852 12.1122C5.40841 12.0184 5.4939 11.9059 5.46282 11.859C5.43173 11.8028 5.44727 11.8122 5.50168 11.8684C5.57162 11.9434 5.71152 11.9247 6.00686 11.8122C6.51981 11.6059 6.71411 11.6247 7.18821 11.9247ZM9.37992 12.4403C9.45764 12.7028 7.70893 13.1434 7.53795 12.8903C7.46023 12.7778 7.47577 12.759 7.94986 12.609C7.98095 12.5903 8.02758 12.5715 8.06644 12.5622C8.09753 12.5528 8.17525 12.534 8.23743 12.5247C8.2996 12.5247 8.34624 12.4684 8.33846 12.4122C8.31515 12.2715 9.34106 12.2903 9.37992 12.4403Z" fill="black"/>
<path d="M7.965 9.11261C7.87951 9.16886 7.78625 9.26261 7.75516 9.31886C7.7163 9.38448 7.69298 9.37511 7.69298 9.29073C7.69298 9.18761 7.66966 9.18761 7.5764 9.28136C7.51422 9.34698 7.45982 9.35636 7.45982 9.30011C7.45982 9.16886 6.97018 9.30948 6.93132 9.45011C6.90023 9.58136 7.07899 9.56261 7.16448 9.42198C7.20334 9.36573 7.22666 9.37511 7.22666 9.45011C7.22666 9.51573 7.25775 9.55323 7.29661 9.51573C7.33547 9.48761 7.38987 9.50636 7.42096 9.55323C7.44428 9.60948 7.56863 9.59073 7.72407 9.51573C7.86397 9.44073 8.00386 9.40323 8.02718 9.43136C8.05049 9.45948 8.1049 9.40323 8.15153 9.29073C8.26034 9.06573 8.16707 8.98136 7.965 9.11261Z" fill="black"/>
</svg>
