<svg width="15" height="15" viewBox="0 0 15 15" fill="none" xmlns="http://www.w3.org/2000/svg">
<path d="M6.15726 1.91605C6.14902 1.9338 5.89352 1.9693 5.60506 1.99593C5.14352 2.04031 4.59132 2.12907 4.45121 2.17345C4.42649 2.18232 4.30286 2.23558 4.16275 2.29771C4.03088 2.35096 3.8166 2.43972 3.70121 2.49297C3.21495 2.69711 2.90176 3.28291 3.27264 3.28291C3.37154 3.28291 3.37979 3.30954 3.30561 3.40717C3.24792 3.47818 3.23143 3.62907 3.25616 3.74445C3.28088 3.85096 3.32209 4.12611 3.34682 4.348C3.3633 4.5699 3.39627 4.82729 3.41275 4.92492C3.42924 5.02256 3.44572 5.1912 3.45396 5.30658C3.4622 5.44859 3.49517 5.49297 3.56935 5.44859C3.64352 5.39534 3.64352 5.40421 3.56935 5.51072C3.50341 5.59948 3.48693 5.79475 3.53638 6.14978C3.56935 6.42492 3.56935 6.65569 3.52814 6.65569C3.49517 6.65569 3.47869 6.74445 3.49517 6.85096C3.52814 7.09948 3.33034 7.25924 2.93473 7.3125C2.77814 7.33913 2.57209 7.40126 2.48143 7.45451C2.39078 7.49889 2.25067 7.54327 2.16001 7.54327C2.07759 7.54327 1.92099 7.61427 1.83034 7.69416C1.73143 7.78291 1.53363 7.95155 1.39352 8.07581C1.09682 8.33321 0.833083 8.91901 0.800116 9.40717C0.783632 9.60244 0.750665 9.78883 0.717698 9.81546C0.643522 9.89534 0.651764 10.5521 0.72594 10.7563C0.783632 10.8894 1.40176 11.4042 1.40176 11.3066C1.40176 11.2888 1.54187 11.3421 1.71495 11.4397C1.87979 11.5285 2.16825 11.6084 2.34957 11.6084C2.53088 11.6172 2.89352 11.635 3.15726 11.6527C3.41275 11.6705 3.62704 11.6616 3.62704 11.635C3.62704 11.5995 3.77539 11.5729 3.95671 11.5817C4.23693 11.5906 4.31935 11.635 4.45121 11.848C4.54187 11.9989 4.63253 12.0965 4.65726 12.0699C4.68198 12.0433 4.73143 12.0699 4.7644 12.1143C4.82209 12.2119 5.40726 12.6024 5.48968 12.6024C5.5144 12.6024 5.50616 12.5492 5.47319 12.4871C5.42374 12.4072 5.43198 12.4072 5.53089 12.4871C5.60506 12.5492 5.84407 12.6113 6.0666 12.6379C6.28913 12.6557 6.56935 12.7001 6.70121 12.7356C6.84132 12.7711 6.97319 12.7622 7.04737 12.6912C7.1133 12.6379 7.20396 12.6113 7.25341 12.6468C7.35231 12.7089 7.94572 12.7178 8.20122 12.6557C8.29187 12.6379 8.59682 12.5758 8.88528 12.5137C9.1655 12.4516 9.39627 12.3628 9.39627 12.3095C9.39627 12.2563 9.42099 12.2385 9.44572 12.274C9.51165 12.345 9.98143 12.1587 9.93198 12.0699C9.90726 12.0344 10.0391 12.0078 10.2122 12.0166C10.3935 12.0166 10.5171 11.9989 10.4924 11.9545C10.4759 11.919 10.5007 11.8924 10.5419 11.8924C10.5913 11.8924 10.6325 11.9368 10.6325 11.99C10.6325 12.061 10.6737 12.0521 10.7562 11.9811C10.8633 11.8835 10.8715 11.8924 10.8303 12.0078C10.7891 12.132 10.8221 12.1409 11.0281 12.0699C11.1682 12.0344 11.3001 12.0166 11.3248 12.0433C11.4073 12.132 11.9512 11.706 11.8935 11.5995C11.8606 11.5374 11.9018 11.5462 11.9759 11.6172C12.0748 11.706 12.0913 11.777 12.0336 11.9013C11.9595 12.0433 11.9842 12.0788 12.1737 12.1231C12.3798 12.1853 12.5529 12.0344 12.4375 11.8924C12.3551 11.7859 12.1985 11.8303 12.1985 11.9634C12.1985 12.0344 12.182 12.0788 12.1573 12.0521C12.0666 11.9634 12.215 11.5462 12.3139 11.5906C12.3715 11.6172 12.5117 11.5374 12.6353 11.4131C12.7589 11.2888 12.8578 11.2178 12.8578 11.2445C12.8578 11.28 12.9485 11.2089 13.0556 11.1024C13.204 10.9516 13.2617 10.9338 13.3029 11.0226C13.3276 11.0847 13.3358 11.0581 13.3111 10.9604C13.2946 10.8628 13.3111 10.7208 13.3606 10.6498C13.4265 10.5433 13.4347 10.5433 13.4182 10.6853C13.4018 10.774 13.4512 10.8717 13.5171 10.8894C13.6243 10.9249 13.6243 10.916 13.5171 10.8362C13.4347 10.774 13.4265 10.7385 13.4924 10.7385C13.5501 10.7385 13.5913 10.7119 13.5913 10.6675C13.5666 10.49 13.6078 10.4456 13.6902 10.561C13.7562 10.6587 13.7644 10.6409 13.715 10.4723L13.6573 10.2504L13.8551 10.4279L14.0529 10.6054L13.8963 10.4013C13.7562 10.2237 13.7232 10.2149 13.5996 10.3391C13.5254 10.4101 13.3935 10.4723 13.3111 10.4723C13.2287 10.4723 13.0556 10.6054 12.9237 10.7563L12.6847 11.0492L12.8248 10.7474C12.9979 10.348 12.8908 8.52848 12.6847 8.44859C12.6353 8.43084 12.6435 8.35984 12.7012 8.28883C12.7507 8.21782 12.7589 8.16457 12.7177 8.16457C12.6435 8.16457 12.6435 6.94859 12.7177 6.56694C12.7424 6.44268 12.7836 6.1409 12.8084 5.90126C12.8331 5.65274 12.8743 5.35984 12.8908 5.23558C12.9567 4.83617 13.0474 3.94859 13.0391 3.78883C13.0391 3.70895 13.0639 3.65569 13.1133 3.68232C13.204 3.74445 13.2122 3.52256 13.1298 3.42492C13.0639 3.36279 13.0556 3.32729 13.0309 3.07877C13.0226 3.00777 12.9979 3.01664 12.9402 3.1054C12.899 3.1764 12.8578 3.19416 12.8578 3.1409C12.8578 3.01664 12.2232 2.72374 12.116 2.79475C12.0831 2.82137 12.0336 2.80362 12.0171 2.75037C11.9759 2.60836 9.47869 2.41309 9.47869 2.5551C9.47869 2.69711 8.77814 2.57285 8.65451 2.40421C8.5144 2.21782 7.99517 2.00481 7.99517 2.13794C7.99517 2.18232 7.95396 2.21782 7.90451 2.21782C7.8633 2.21782 7.83858 2.18232 7.8633 2.13794C7.92924 2.02256 7.43473 1.9693 7.33583 2.07581C7.27814 2.13794 7.25341 2.12907 7.25341 2.04919C7.25341 1.98705 7.22869 1.96043 7.19572 1.97818C7.15451 1.99593 6.9155 1.98705 6.65176 1.96043C6.38803 1.92492 6.1655 1.90717 6.15726 1.91605ZM6.54462 2.46634C6.90726 2.4841 7.26165 2.52848 7.32759 2.57285C7.42649 2.63498 7.3688 2.65274 7.14627 2.62611C6.97319 2.60836 6.8166 2.63498 6.78363 2.68824C6.75067 2.74149 6.77539 2.75037 6.84132 2.70599C6.9155 2.66161 6.93198 2.67049 6.89078 2.74149C6.84957 2.80362 6.78363 2.8125 6.73418 2.777C6.67649 2.73262 6.54462 2.71487 6.42924 2.72374C6.31385 2.73262 5.95946 2.75924 5.63803 2.76812C5.28363 2.78587 4.99517 2.848 4.90451 2.92788C4.78913 3.03439 4.75616 3.03439 4.69023 2.91901C4.64902 2.848 4.61605 2.83913 4.61605 2.89238C4.61605 3.08765 4.06385 3.30066 3.85781 3.18528L3.68473 3.07877L3.88253 2.96339C4.23693 2.75037 4.81385 2.58173 5.27539 2.54623C5.53089 2.5196 5.73693 2.45747 5.75341 2.39534C5.77814 2.33321 5.81111 2.32433 5.84407 2.36871C5.8688 2.40421 6.19023 2.45747 6.54462 2.46634ZM8.06111 2.67936C8.11056 2.68824 8.16001 2.75924 8.16001 2.848C8.16001 2.99001 8.13528 2.99889 7.95396 2.91013C7.83858 2.85688 7.74792 2.777 7.74792 2.74149C7.74792 2.70599 7.68198 2.65274 7.60781 2.62611C7.52539 2.59948 7.57484 2.59948 7.70671 2.62611C7.84682 2.65274 8.00341 2.67049 8.06111 2.67936ZM10.4512 3.05214C10.8963 3.08765 11.127 3.0699 11.127 3.00777C11.127 2.95451 11.1847 2.98114 11.2589 3.05214C11.3331 3.1409 11.5309 3.19416 11.7452 3.19416C11.9512 3.19416 12.1573 3.24741 12.2232 3.32729C12.2891 3.3983 12.3633 3.4338 12.388 3.40717C12.4045 3.38055 12.4457 3.42492 12.4704 3.50481C12.5281 3.65569 12.3551 3.68232 12.2232 3.54031C12.1737 3.48706 11.943 3.44268 11.7122 3.44268C11.4897 3.45155 11.1847 3.41605 11.0446 3.37167C10.8468 3.30954 10.7809 3.31842 10.7397 3.42492C10.7067 3.51368 10.6655 3.52256 10.5996 3.4693C10.4759 3.36279 9.37979 3.35392 9.43748 3.46043C9.4622 3.50481 9.43748 3.56694 9.38803 3.60244C9.32209 3.64682 9.31385 3.62907 9.35506 3.54919C9.40451 3.46043 9.34682 3.45155 9.05836 3.50481C8.03638 3.70007 7.921 3.70007 8.0199 3.54031C8.06935 3.45155 8.18473 3.35392 8.28363 3.31842C8.37429 3.29179 8.47319 3.25629 8.5144 3.23853C8.54737 3.22966 8.6133 3.21191 8.66275 3.20303C8.70396 3.20303 8.72045 3.1409 8.68748 3.07877C8.63803 2.99889 8.64627 2.99889 8.74517 3.07877C8.81935 3.1409 8.91001 3.14978 8.97594 3.1054C9.04187 3.0699 9.14078 3.05214 9.19847 3.07877C9.25616 3.09652 9.37154 3.07877 9.44572 3.03439C9.52814 2.98114 9.63528 2.96339 9.67649 2.98114C9.72594 2.99001 10.0721 3.02552 10.4512 3.05214ZM7.40176 3.7622C7.31935 3.93084 7.31111 4.81842 7.38528 5.36871C7.47594 6.09652 7.39352 7.70303 7.24517 8.01368C7.18748 8.12019 7.13803 8.2267 7.13803 8.25333C7.12979 8.27108 7.05561 8.29771 6.96495 8.29771C6.87429 8.29771 6.75067 8.33321 6.70121 8.36871C6.64352 8.41309 6.56111 8.42197 6.5199 8.38646C6.47869 8.35984 6.41275 8.38646 6.38803 8.43972C6.35506 8.4841 6.28089 8.51072 6.21495 8.4841C6.15726 8.45747 6.08308 8.47522 6.05836 8.5196C6.02539 8.57285 5.95946 8.60836 5.89352 8.60836C5.58034 8.60836 4.88803 9.34504 4.73968 9.84208C4.68198 10.0551 4.48418 10.0995 4.03913 9.99297C3.97319 9.97522 3.82484 10.0107 3.70946 10.0729C3.37979 10.2504 2.15176 10.0374 1.55836 9.70895C1.35231 9.60244 1.17099 9.22966 1.31935 9.22966C1.35231 9.22966 1.40176 9.1409 1.43473 9.02552C1.48418 8.8125 2.02814 8.16457 2.16001 8.16457C2.20121 8.16457 2.20946 8.12019 2.18473 8.07581C2.15176 8.02256 2.16001 7.99593 2.20121 8.00481C2.23418 8.01368 2.54737 7.95155 2.88528 7.86279C3.52814 7.70303 3.56935 7.70303 4.15451 8.04919C4.35231 8.16457 4.40176 8.16457 4.45946 8.06694C4.52539 7.95155 4.5666 8.02256 4.54187 8.20007C4.53363 8.24445 4.58308 8.2267 4.65726 8.16457C4.78088 8.04919 4.78088 8.03143 4.59957 7.88055C4.49242 7.79179 4.36056 7.73853 4.3111 7.76516C4.25341 7.78291 4.2122 7.77404 4.2122 7.73853C4.23693 7.56102 4.19572 7.45451 4.09682 7.45451C4.0144 7.45451 3.98968 7.29475 4.0144 6.78883C4.03913 6.32729 4.0144 6.12315 3.94847 6.12315C3.87429 6.12315 3.88253 6.08765 3.94847 5.99889C4.02264 5.90126 4.03088 5.74149 3.96495 5.35096C3.84132 4.62315 3.80836 3.81546 3.89077 3.81546C3.93198 3.81546 3.94023 3.77108 3.90726 3.70895C3.87429 3.64682 3.88253 3.63794 3.94023 3.67345C4.09682 3.77108 6.19023 3.83321 6.29737 3.73558C6.38803 3.65569 6.76715 3.60244 7.2699 3.59356C7.45946 3.58469 7.47594 3.61132 7.40176 3.7622ZM12.2726 4.19711C12.4952 4.13498 12.5446 4.28587 12.454 4.72078C12.4128 4.9338 12.3468 5.34208 12.3221 5.63498C12.2644 6.20303 12.2562 6.23853 12.1078 7.24149C12.0171 7.78291 12.0171 7.96043 12.1078 8.1912C12.1655 8.35096 12.2397 8.58173 12.2562 8.71487C12.2809 8.848 12.3386 8.93676 12.3798 8.91013C12.5281 8.8125 12.2397 9.23853 11.9018 9.62019C11.5639 10.0018 11.2919 10.1794 11.2919 10.0196C11.2919 9.96635 11.2589 9.94859 11.2177 9.97522C11.1765 10.0018 11.1188 9.96635 11.0941 9.88646C11.0364 9.71782 10.7891 9.75333 10.649 9.95747C10.5913 10.0462 10.4924 10.1172 10.4265 10.1172C10.3523 10.1172 10.3276 10.1705 10.3523 10.2504C10.3935 10.348 10.3688 10.3658 10.2699 10.3303C10.1792 10.2947 10.138 10.3214 10.138 10.419C10.138 10.4989 10.1051 10.561 10.0556 10.561C10.0144 10.561 9.99792 10.632 10.0309 10.7119C10.0721 10.845 10.0556 10.8362 9.94847 10.6942C9.86605 10.5876 9.8166 10.561 9.80836 10.632C9.80836 10.6942 9.77539 10.7297 9.74242 10.703C9.70946 10.6853 9.51165 10.7474 9.31385 10.845C8.90176 11.0492 8.8688 11.0581 8.28363 11.1291C7.38528 11.2445 6.92374 11.2622 6.88253 11.1734C6.84957 11.1202 6.77539 11.1202 6.69297 11.1734C6.6188 11.2178 6.50341 11.2267 6.42924 11.1823C6.3633 11.1468 6.1655 11.0847 5.99242 11.0581C5.81935 11.0314 5.59682 10.9427 5.48968 10.8717C5.39078 10.8007 5.27539 10.7652 5.23418 10.8007C5.20121 10.845 5.19297 10.8184 5.22594 10.7563C5.25891 10.6942 5.23418 10.6231 5.16001 10.5965C4.95396 10.5078 5.19297 9.49593 5.4155 9.49593C5.47319 9.49593 5.52264 9.46043 5.52264 9.42492C5.52264 9.33617 5.89352 9.13203 6.12429 9.07877C6.20671 9.06102 6.35506 9.00777 6.44572 8.95451C6.67649 8.82137 7.64078 8.75924 7.70671 8.87463C7.73143 8.92788 7.82209 8.96339 7.90451 8.96339C7.98693 8.96339 8.16001 9.05214 8.29187 9.15865C8.42374 9.27404 8.49792 9.30066 8.45671 9.22966C8.42374 9.15865 8.44847 9.16753 8.5144 9.24741C8.58034 9.33617 8.671 9.40717 8.72869 9.40717C8.77814 9.40717 8.81935 9.44268 8.81935 9.49593C8.81935 9.54031 8.85231 9.58469 8.89352 9.58469C8.92649 9.58469 8.94297 9.48706 8.91825 9.35392C8.87704 9.12315 8.23418 8.5196 8.02814 8.5196C7.921 8.5196 7.8633 8.2622 7.91275 8.03143C7.99517 7.6054 7.97869 6.92197 7.88803 6.97522C7.81385 7.02848 7.81385 7.01072 7.87154 6.91309C7.97045 6.77995 7.97045 5.93676 7.87979 4.9338C7.82209 4.33025 7.89627 4.09948 8.10231 4.23262C8.14352 4.25924 8.34957 4.29475 8.56385 4.3125C8.7699 4.33025 9.08308 4.348 9.25616 4.36575C9.42099 4.3835 9.5611 4.35688 9.56935 4.30362C9.56935 4.25924 9.59407 4.25924 9.61056 4.3125C9.63528 4.3835 9.82484 4.41013 10.1628 4.3835C11.5968 4.28587 11.9924 4.23262 12.0254 4.13498C12.0501 4.06398 12.0666 4.06398 12.0913 4.13498C12.1078 4.19711 12.1902 4.22374 12.2726 4.19711ZM1.94572 10.348C2.01165 10.3214 2.05286 10.3303 2.02814 10.3746C2.00341 10.419 2.03638 10.4811 2.11056 10.5078C2.19297 10.5433 2.2177 10.5255 2.16825 10.4456C2.13528 10.3924 2.20946 10.4101 2.33308 10.49C2.44847 10.5788 2.58858 10.6498 2.62979 10.6498C2.67099 10.6498 2.77814 10.5788 2.85231 10.49C2.97594 10.3658 2.99242 10.3658 2.95121 10.4811C2.91001 10.5965 2.97594 10.6143 3.41275 10.5965C3.68473 10.5788 3.93198 10.561 3.95671 10.5521C3.98143 10.5433 4.03088 10.5433 4.07209 10.5521C4.10506 10.561 4.17924 10.5344 4.23693 10.49C4.28638 10.4456 4.39352 10.4279 4.4677 10.4634C4.73968 10.5699 4.36056 10.9516 3.98143 10.9427C3.80836 10.9338 3.6188 10.9782 3.55286 11.0314C3.45396 11.1202 3.44572 11.1113 3.49517 11.0137C3.55286 10.9249 3.52814 10.9072 3.39627 10.9516C3.13253 11.0403 2.22594 11.0758 2.17649 10.9959C2.12704 10.8983 1.64902 10.6498 1.51715 10.6498C1.39352 10.6498 1.22045 10.348 1.29462 10.2592C1.31935 10.2326 1.30286 10.206 1.24517 10.206C1.18748 10.206 1.16275 10.1705 1.19572 10.1261C1.22045 10.0729 1.3688 10.1172 1.52539 10.2237C1.69023 10.3214 1.87154 10.3746 1.94572 10.348ZM10.9375 10.561C10.7644 10.703 10.7314 10.7829 10.7891 10.9072C10.8468 11.0226 10.8303 11.0581 10.715 11.0581C10.6243 11.0581 10.5831 11.0137 10.616 10.9249C10.6408 10.845 10.6243 10.8184 10.5666 10.8628C10.5007 10.9072 10.4842 10.8805 10.5171 10.7918C10.5419 10.7208 10.6408 10.632 10.7314 10.5965C10.8221 10.5699 10.8715 10.5255 10.8468 10.4989C10.8221 10.4634 10.8386 10.3924 10.8963 10.3214C10.954 10.2415 11.0117 10.2237 11.0693 10.2859C11.127 10.348 11.0858 10.4368 10.9375 10.561ZM11.7452 10.2947C11.7781 10.348 11.8358 10.3569 11.8853 10.3303C11.943 10.2859 11.9512 10.3125 11.91 10.3924C11.8688 10.4634 11.91 10.4545 12.0007 10.3658C12.1243 10.2504 12.1902 10.2326 12.2562 10.3036C12.3798 10.4368 12.215 10.7385 12.0584 10.6764C11.9924 10.6498 11.9512 10.6942 11.9512 10.7829C11.9512 10.8628 11.9018 10.916 11.8523 10.8894C11.7946 10.8717 11.7452 10.7474 11.7452 10.6143C11.7369 10.4811 11.6875 10.3391 11.6215 10.2947C11.5474 10.2415 11.5391 10.206 11.5968 10.206C11.6463 10.206 11.7204 10.2504 11.7452 10.2947ZM11.3825 10.6853C11.3166 10.774 11.3084 10.8273 11.3743 10.8717C11.5391 10.9782 11.366 11.0936 11.1847 10.9959C11.0034 10.8894 11.0034 10.8894 11.16 11.0847C11.2507 11.1823 11.2919 11.2711 11.2671 11.2711C11.2342 11.2711 11.193 11.2711 11.1682 11.2711C11.1435 11.2711 11.1353 11.2533 11.1518 11.2267C11.16 11.2001 11.1188 11.1468 11.0611 11.1024C11.0034 11.0669 10.9787 10.9693 11.0117 10.8894C11.0364 10.8095 11.0941 10.7563 11.127 10.7829C11.16 10.8095 11.2342 10.7652 11.2919 10.6942C11.3496 10.6231 11.4155 10.561 11.432 10.561C11.4567 10.561 11.432 10.6143 11.3825 10.6853ZM10.0391 11.2178C10.138 11.2178 10.2452 11.2445 10.2781 11.2977C10.3029 11.351 10.2864 11.3598 10.2369 11.3243C10.1792 11.2888 10.138 11.2977 10.138 11.3332C10.138 11.3776 10.0556 11.4131 9.96495 11.422C9.86605 11.4308 9.64352 11.5462 9.4622 11.6705C9.28088 11.8036 9.15726 11.8569 9.19847 11.7859C9.24792 11.6971 9.23968 11.6971 9.12429 11.7947C9.05012 11.8569 8.98418 11.8835 8.98418 11.848C8.98418 11.8125 8.93473 11.8303 8.87704 11.8835C8.81111 11.9368 8.73693 11.9545 8.7122 11.919C8.67924 11.8924 8.60506 11.9101 8.53913 11.9723C8.47319 12.0255 8.39078 12.0699 8.35781 12.061C8.3166 12.0433 8.02814 12.0699 7.70671 12.1143C7.39352 12.1498 7.04737 12.1942 6.94023 12.203C6.84132 12.2119 6.73418 12.1942 6.7177 12.1498C6.69297 12.1143 6.60231 12.0965 6.5199 12.1143C6.09957 12.203 5.02814 11.7681 5.02814 11.5107C5.02814 11.422 4.99517 11.3687 4.95396 11.4042C4.91275 11.4308 4.84682 11.4042 4.81385 11.351C4.78088 11.28 4.78913 11.2711 4.84682 11.3066C4.90451 11.3421 4.94572 11.3243 4.94572 11.2711C4.94572 11.1646 5.28363 11.2445 5.35781 11.3687C5.47319 11.5551 6.75891 11.7859 6.75891 11.6172C6.75891 11.5462 6.80836 11.5729 6.89078 11.6794C6.95671 11.7681 6.98968 11.7859 6.95671 11.7149C6.89902 11.5995 6.90726 11.5995 7.03089 11.706C7.15451 11.8125 7.19572 11.8125 7.29462 11.6616C7.39352 11.5285 7.41001 11.5196 7.3688 11.6439C7.31935 11.7859 7.57484 11.8303 7.78913 11.706C7.83858 11.6794 7.9622 11.6705 8.07759 11.6794C8.34957 11.706 8.58858 11.635 8.53089 11.5285C8.50616 11.4841 8.53913 11.4752 8.60506 11.5018C8.77814 11.5729 9.65176 11.2711 9.59407 11.1646C9.5611 11.1113 9.59407 11.1024 9.69297 11.1557C9.78363 11.2001 9.93198 11.2267 10.0391 11.2178Z" fill="black"/>
<path d="M4.40084 4.71293C4.41733 4.90819 4.47502 5.12121 4.53271 5.17446C4.61513 5.25435 4.62337 5.25435 4.58216 5.17446C4.55744 5.12121 4.57392 5.05908 4.62337 5.04133C4.75524 4.99695 4.73876 4.51766 4.60689 4.4289C4.40909 4.29577 4.36788 4.34014 4.40084 4.71293Z" fill="black"/>
<path d="M5.48953 4.72171C5.51425 4.81934 5.48953 4.89923 5.40711 4.93473C5.30821 4.97911 5.29997 5.02349 5.3659 5.15662C5.41535 5.27201 5.41535 5.32526 5.3659 5.32526C5.30821 5.32526 5.30821 5.40514 5.34942 5.52053C5.42359 5.74242 5.6626 5.80455 5.6214 5.60041C5.61315 5.53828 5.65436 5.38739 5.7203 5.28088C5.86041 5.05011 5.95107 4.6152 5.86865 4.60633C5.45656 4.55307 5.44008 4.56195 5.48953 4.72171Z" fill="black"/>
<path d="M6.21532 5.7417C6.18235 5.83046 6.14939 6.08786 6.14115 6.31863C6.11642 6.81567 6.28126 6.81567 6.44609 6.31863C6.53675 6.01685 6.55323 5.91922 6.52027 5.67957C6.50378 5.52868 6.2895 5.58194 6.21532 5.7417Z" fill="black"/>
<path d="M2.66371 8.46708C2.63075 8.53809 2.56481 8.60022 2.51536 8.61797C2.31756 8.65347 2.25987 8.7156 2.24338 8.91087C2.23514 9.09726 2.25987 9.11501 2.63075 9.12389C2.878 9.13276 3.08404 9.08838 3.18294 8.99962C3.30657 8.89312 3.30657 8.87536 3.20767 8.90199C3.10877 8.93749 3.0758 8.90199 3.10053 8.80436C3.14998 8.59134 2.75437 8.28957 2.66371 8.46708Z" fill="black"/>
<path d="M8.47306 5.07571C8.46481 5.34198 8.46481 5.5195 8.50602 5.83015C8.51427 5.89228 8.54723 5.94553 8.58844 5.94553C8.62965 5.94553 8.63789 5.98104 8.61317 6.03429C8.58844 6.07867 8.62141 6.12305 8.69558 6.12305C8.778 6.12305 8.80273 6.08754 8.76152 6.00766C8.64613 5.8124 8.66262 5.68814 8.80273 5.74139C8.90163 5.78577 8.91811 5.75914 8.86042 5.62601C8.82745 5.53725 8.80273 5.36861 8.81097 5.25322C8.81097 5.13784 8.78624 5.07571 8.73679 5.10234C8.69558 5.12896 8.6791 5.06683 8.69558 4.9692C8.71207 4.85382 8.68734 4.79169 8.60492 4.79169C8.53075 4.79169 8.4813 4.89819 8.47306 5.07571Z" fill="black"/>
<path d="M11.218 5.4843C11.1273 5.56418 11.0284 5.75057 11.0037 5.90146C10.9625 6.1056 10.9707 6.13223 11.0367 6.03459C11.1108 5.91921 11.1438 5.91921 11.2674 6.0701C11.4076 6.22098 11.4076 6.22986 11.2757 6.18548C11.1356 6.13223 10.9872 6.26536 11.0696 6.36299C11.1521 6.44288 11.3993 6.23873 11.4323 6.0701C11.5559 5.39554 11.49 5.23578 11.218 5.4843Z" fill="black"/>
<path d="M9.68555 5.5995C9.72676 5.71489 9.71027 5.76814 9.66082 5.73264C9.5372 5.65276 9.47126 5.93678 9.56192 6.12317C9.61961 6.23856 9.61137 6.30069 9.5372 6.32731C9.4795 6.36282 9.48775 6.38057 9.57016 6.38057C9.75148 6.38944 9.89983 6.19418 9.94104 5.86578C9.97401 5.67939 9.94929 5.59063 9.87511 5.59063C9.80093 5.59063 9.80093 5.564 9.89159 5.50187C9.99049 5.43087 9.97401 5.41311 9.82566 5.41311C9.66907 5.41311 9.64434 5.44862 9.68555 5.5995Z" fill="black"/>
<path d="M10.6326 6.5403C10.4018 6.58468 10.1381 6.80657 10.1381 6.95746C10.1381 7.01071 10.2205 6.95746 10.3112 6.8332L10.4843 6.6113L10.3359 6.89533C10.2535 7.05509 10.1546 7.18823 10.1134 7.18823C10.0804 7.18823 10.0639 7.22373 10.0886 7.25923C10.1134 7.29474 10.0969 7.48113 10.0557 7.65864C10.0145 7.86278 10.0227 7.98704 10.0722 7.98704C10.1134 7.98704 10.1299 8.02255 10.1051 8.05805C10.0886 8.09355 10.1381 8.13793 10.2288 8.13793C10.3359 8.14681 10.4183 8.0758 10.4678 7.93379C10.509 7.8184 10.5832 7.72077 10.6408 7.72077C10.6903 7.72077 10.715 7.66752 10.6903 7.60539C10.6738 7.55213 10.6161 7.50775 10.5667 7.51663C10.5255 7.5255 10.4595 7.48113 10.4348 7.40124C10.4018 7.30361 10.4183 7.29474 10.5419 7.36574C10.6573 7.42787 10.748 7.41012 10.9211 7.25923L11.1436 7.07284L11.0365 7.25923C10.9705 7.36574 10.8963 7.4545 10.8634 7.4545C10.8222 7.4545 10.7974 7.50775 10.7974 7.56101C10.8057 7.7119 11.2095 7.17935 11.2095 7.02846C11.2095 6.97521 11.1848 6.93083 11.1518 6.93083C10.987 6.95746 10.9293 6.91308 11.0365 6.84207C11.1354 6.77107 11.1354 6.73556 11.02 6.62018C10.954 6.5403 10.8799 6.48704 10.8634 6.48704C10.8469 6.49592 10.748 6.52255 10.6326 6.5403Z" fill="black"/>
<path d="M11.0201 8.11169C10.9624 8.2537 11.1519 8.46672 11.2426 8.36908C11.2756 8.33358 11.2756 8.37796 11.2426 8.46672C11.2014 8.59098 11.1684 8.59985 11.119 8.50222C11.0613 8.41346 11.0448 8.41346 11.0448 8.49334C11.0448 8.55547 10.9953 8.60873 10.9377 8.60873C10.8717 8.60873 10.8223 8.67086 10.8223 8.74186C10.8223 8.81287 10.8552 8.875 10.8964 8.875C10.9294 8.875 10.9624 8.83062 10.9624 8.78624C10.9624 8.73299 11.0036 8.69749 11.053 8.69749C11.0942 8.69749 11.1107 8.75074 11.086 8.80399C11.053 8.86612 11.1107 8.82175 11.2014 8.69749C11.292 8.57322 11.3497 8.40459 11.325 8.31583C11.3003 8.22707 11.325 8.16494 11.3827 8.16494C11.5311 8.16494 11.3992 8.04956 11.2179 8.01405C11.1272 8.00518 11.0448 8.04956 11.0201 8.11169Z" fill="black"/>
<path d="M6.29714 9.59461C6.22297 9.68336 6.13231 9.74549 6.10758 9.71887C6.07462 9.70111 6.04165 9.80762 6.03341 9.94963C6.01692 10.1804 6.04165 10.207 6.26418 10.207C6.41253 10.207 6.53616 10.1538 6.56088 10.0739C6.59385 9.99401 6.66802 9.95851 6.75868 9.98514C6.98121 10.065 7.12132 9.8165 6.94 9.65674C6.70923 9.43484 6.45374 9.40821 6.29714 9.59461Z" fill="black"/>
<path d="M7.22054 10.1708C7.14637 10.3749 7.16285 10.4903 7.25351 10.4282C7.30296 10.4016 7.3112 10.4371 7.28648 10.5081C7.18757 10.7921 7.47604 10.6412 7.64087 10.3217C7.73153 10.153 7.72329 10.1353 7.62439 10.1708C7.55845 10.2063 7.50076 10.1797 7.50076 10.1264C7.50076 9.97552 7.27823 10.011 7.22054 10.1708Z" fill="black"/>
<path d="M13.0634 11.3608C13.0799 11.3874 13.0634 11.4673 13.014 11.5383C12.9563 11.6448 12.9398 11.6448 12.9398 11.5471C12.9398 11.4495 12.9151 11.4495 12.8162 11.5383C12.709 11.627 12.709 11.6714 12.7914 11.7247C12.8491 11.7602 12.9398 11.7513 12.9975 11.698C13.0552 11.6448 13.1706 11.6359 13.2447 11.6714C13.3272 11.7158 13.4178 11.7335 13.459 11.7335C13.492 11.7247 13.5167 11.7513 13.5167 11.8045C13.5167 11.9199 13.7392 11.8134 13.7969 11.6714C13.8382 11.556 13.6156 11.5471 13.4425 11.6625C13.4013 11.6892 13.3519 11.6182 13.3189 11.5116C13.2942 11.3963 13.22 11.2986 13.1541 11.2986C13.0882 11.2986 13.0469 11.3253 13.0634 11.3608Z" fill="black"/>
<path d="M1.63314 12.1144C1.60841 12.1411 1.41061 12.1855 1.18808 12.2121C0.965555 12.2298 0.75127 12.292 0.701819 12.3452C0.644127 12.4073 0.668852 12.434 0.784237 12.4162C0.874896 12.3985 0.998522 12.4162 1.06446 12.4606C1.15512 12.5227 1.16336 12.5139 1.11391 12.4162C1.05621 12.3097 1.06446 12.3097 1.1716 12.4073C1.26226 12.4872 1.36116 12.4961 1.51775 12.4251C1.64138 12.3807 1.76501 12.3452 1.79797 12.3452C2.01226 12.3807 2.13588 12.3186 2.09468 12.2032C2.04523 12.0789 1.7238 12.0168 1.63314 12.1144Z" fill="black"/>
<path d="M3.19774 12.6111C3.07412 12.6466 2.95873 12.6466 2.93401 12.62C2.90928 12.5933 2.88456 12.6111 2.88456 12.6644C2.88456 12.7176 2.81038 12.7797 2.71972 12.8064C2.62906 12.833 2.55488 12.9217 2.56313 13.0194C2.56313 13.1614 2.57137 13.1614 2.6373 13.0016C2.70324 12.833 2.71148 12.833 2.71148 12.9928C2.71972 13.1348 2.7362 13.1436 2.85983 13.0371C2.95049 12.9484 2.97521 12.9484 2.93401 13.0194C2.90104 13.0815 2.91752 13.1348 2.95873 13.1348C3.00818 13.1348 3.04939 13.0904 3.04939 13.046C3.04939 12.9839 3.09884 12.9839 3.20598 13.0371C3.37906 13.1436 3.46972 13.0815 3.41203 12.9129C3.3873 12.8507 3.41203 12.7709 3.46972 12.7265C3.53565 12.691 3.55214 12.6999 3.51093 12.762C3.46972 12.833 3.49445 12.8507 3.57686 12.8152C3.65104 12.7886 3.70873 12.8064 3.70873 12.8596C3.70873 12.9129 3.65928 12.9573 3.60983 12.9573C3.53565 12.9573 3.5439 12.9928 3.62631 13.046C3.70873 13.1081 3.77467 13.0993 3.83236 13.0105C3.88181 12.9484 3.97247 12.8774 4.03016 12.8507C4.12906 12.8241 4.12906 12.7975 4.01368 12.7531C3.93126 12.7176 3.87357 12.7354 3.87357 12.8064C3.87357 12.8685 3.84884 12.8774 3.80763 12.8241C3.68401 12.6377 3.41203 12.5401 3.19774 12.6111Z" fill="black"/>
<path d="M10.517 12.8603C10.4923 12.8958 10.3852 12.9135 10.2698 12.8958C10.1626 12.8692 10.0473 12.8958 10.0225 12.949C9.98957 13.0023 9.86594 13.0467 9.74232 13.0467C9.59396 13.0467 9.55276 13.0733 9.62693 13.1177C9.70111 13.1709 9.68462 13.2331 9.54451 13.3662C9.42913 13.4638 9.39616 13.4816 9.4621 13.3928C9.61869 13.1621 9.49506 13.1443 9.12418 13.3396C8.93462 13.4461 8.74506 13.5171 8.69561 13.4993C8.63792 13.4816 8.63792 13.5082 8.69561 13.5615C8.82748 13.6946 9.37968 13.7567 9.42913 13.6414C9.45385 13.5703 9.47034 13.5792 9.47034 13.6591C9.47858 13.7567 9.51979 13.7479 9.6599 13.6147C9.7588 13.526 9.80825 13.4993 9.77528 13.5526C9.67638 13.739 10.2368 13.6946 10.7231 13.4905C11.0363 13.3485 11.1764 13.3307 11.2423 13.4017C11.2918 13.4638 11.3 13.4993 11.2506 13.4905C11.2093 13.4727 11.0775 13.4816 10.9621 13.4905L10.7561 13.5082L10.9621 13.5703C11.2258 13.6591 11.3083 13.6236 11.4401 13.3928C11.5061 13.2863 11.5143 13.2331 11.4648 13.2686C11.4154 13.2952 11.3742 13.2597 11.3742 13.1798C11.3742 13.0822 11.333 13.0467 11.2423 13.0822C11.1599 13.1177 11.1352 13.0999 11.1764 13.0289C11.2176 12.9668 11.1764 12.949 11.061 12.9757C10.9621 13.0112 10.8797 12.9934 10.8797 12.949C10.8797 12.9047 10.8385 12.8692 10.789 12.8692C10.7478 12.8692 10.7313 12.9135 10.7643 12.9668C10.7973 13.0289 10.7725 13.0556 10.7066 13.0289C10.6407 13.0023 10.5995 12.9313 10.6159 12.878C10.6324 12.7627 10.5747 12.7449 10.517 12.8603Z" fill="black"/>
</svg>
