<svg width="15" height="15" viewBox="0 0 15 15" fill="none" xmlns="http://www.w3.org/2000/svg">
<path d="M2.79367 1.91438C2.71753 2.02211 2.67946 2.06355 2.7023 2.00554C2.73276 1.94753 2.61854 1.99725 2.44341 2.12985C2.2759 2.25416 2.13885 2.39504 2.13123 2.42819C2.13123 2.52764 1.67438 2.98344 1.58301 2.98344C1.54494 2.98344 1.53732 3.01659 1.56017 3.06631C1.58301 3.10775 1.55255 3.14918 1.49164 3.14918C1.42311 3.14918 1.37742 3.17405 1.37742 3.2072C1.40027 3.36465 1.3622 3.50554 1.31651 3.45581C1.24798 3.38123 1.0424 3.71272 1.10331 3.80388C1.12616 3.84532 1.11093 3.90333 1.08047 3.92819C0.928186 4.02764 0.996714 4.62432 1.20991 5.08012C1.32413 5.32874 1.38504 5.51935 1.33174 5.50278C1.23275 5.46134 1.01194 5.76797 0.973872 6.01659C0.958643 6.09946 0.920572 6.19891 0.882501 6.22377C0.79113 6.30664 0.760674 6.71272 0.852044 6.71272C0.897729 6.71272 0.912958 6.76244 0.890115 6.82874C0.867273 6.89504 0.897729 6.96963 0.958643 6.99449C1.01956 7.01935 1.06524 7.11051 1.06524 7.20167C1.06524 7.42543 1.30128 7.71548 1.49925 7.73206C1.65915 7.74034 1.82666 7.95581 1.68199 7.95581C1.51448 7.95581 1.54494 8.50278 1.72768 8.80112C1.87996 9.04145 2.23022 9.36465 2.10078 9.13261C2.07793 9.09946 2.13885 9.01659 2.23022 8.95029C2.37489 8.85913 2.3825 8.85913 2.30636 8.96686C2.21499 9.0746 2.2226 10.0774 2.31397 10.1685C2.33682 10.1934 2.32159 10.2928 2.28352 10.4006C2.23783 10.5249 2.25306 10.6243 2.30636 10.6906C2.37489 10.7735 2.37489 10.7818 2.30636 10.7403C2.24545 10.7072 2.21499 10.7652 2.20737 10.9144C2.20737 11.047 2.19976 11.4116 2.19215 11.7431C2.17692 12.2155 2.15407 12.3232 2.07793 12.2569C2.02463 12.2072 1.99418 12.1243 2.00179 12.0746C2.0094 12.0166 1.97133 11.9834 1.92565 11.9917C1.87235 12.0083 1.82666 11.9752 1.82666 11.9337C1.82666 11.884 1.72768 11.7348 1.59824 11.5939C1.40788 11.3785 1.35458 11.3453 1.2556 11.4365C1.11854 11.5608 1.10331 11.7265 1.23275 11.6354C1.29367 11.5939 1.30128 11.6188 1.27083 11.71C1.24798 11.7845 1.2556 11.8674 1.30128 11.8923C1.33935 11.9254 1.42311 12.0829 1.49164 12.2486C1.55255 12.4144 1.64392 12.5801 1.69722 12.6133C1.75814 12.6547 1.73529 12.6796 1.63631 12.6796C1.50687 12.6796 1.50687 12.6961 1.59824 12.7624C1.66677 12.8122 1.68199 12.8453 1.62108 12.8453C1.56778 12.8453 1.54494 12.9033 1.56778 12.9862C1.60585 13.1022 1.59824 13.1105 1.53732 13.0194C1.48402 12.9365 1.45357 12.9365 1.40788 13.0111C1.37742 13.0608 1.36981 13.1271 1.39265 13.1519C1.46118 13.2182 2.50433 13.2265 2.45864 13.1519C2.44341 13.1188 2.48149 13.0939 2.55001 13.0939C2.62616 13.0939 2.649 13.1354 2.61854 13.1934C2.58809 13.2514 2.5957 13.2597 2.65661 13.2265C2.7023 13.1934 2.72514 13.1354 2.70991 13.1022C2.66423 13.0276 2.79367 12.7956 2.85458 12.8536C2.87743 12.8868 2.8622 13.0028 2.82413 13.1188C2.7556 13.3094 2.76321 13.3343 2.9155 13.326C3.00687 13.3177 3.14392 13.2597 3.22006 13.1851C3.30382 13.1105 3.37996 13.0939 3.41042 13.1354C3.44088 13.1851 3.53225 13.2182 3.616 13.2182C3.69976 13.21 3.79113 13.2431 3.81397 13.2845C3.84443 13.326 3.90534 13.3343 3.95864 13.3011C4.02717 13.2514 4.02717 13.2265 3.95103 13.1685C3.78352 13.0525 4.16423 12.7873 4.43834 12.837C4.4688 12.837 4.49164 12.8039 4.49164 12.7624C4.49164 12.7127 4.54494 12.6796 4.61347 12.6796C4.67438 12.6796 4.70484 12.6381 4.68199 12.5967C4.65915 12.547 4.68961 12.5138 4.75814 12.5138C4.83428 12.5138 4.85712 12.5553 4.82666 12.6133C4.78859 12.6879 4.81144 12.6796 4.89519 12.605C4.97133 12.5387 5.05509 12.5221 5.08555 12.5553C5.116 12.5884 5.09316 12.6381 5.04748 12.6547C4.99418 12.6796 4.94849 12.7459 4.94849 12.8122C4.94849 12.8868 4.91042 12.9116 4.87235 12.8868C4.82666 12.8619 4.77336 12.8868 4.75052 12.9613C4.72768 13.0359 4.65915 13.0608 4.59062 13.0359C4.49925 12.9945 4.48402 13.0111 4.52971 13.1022C4.58301 13.1934 4.56778 13.1934 4.45357 13.0939C4.33935 12.9945 4.32413 12.9945 4.37743 13.0856C4.42311 13.1768 4.40027 13.1934 4.28605 13.1602C4.16423 13.1271 4.13377 13.1519 4.149 13.2514C4.16423 13.326 4.17946 13.4089 4.17946 13.4337C4.18707 13.5 4.43072 13.4752 4.55255 13.3923C4.60585 13.3591 4.64392 13.3757 4.64392 13.442C4.65154 13.5083 4.68961 13.4917 4.75814 13.3923C4.81905 13.3011 4.87235 13.268 4.87235 13.326C4.87235 13.4503 5.17692 13.3757 5.28352 13.2182C5.37489 13.0856 5.93834 12.9696 5.93834 13.0856C5.93834 13.1934 5.74037 13.3508 5.68707 13.2845C5.65661 13.2597 5.63377 13.2845 5.63377 13.3508C5.63377 13.4503 5.61854 13.4503 5.56524 13.3508C5.51956 13.2763 5.50433 13.3094 5.50433 13.4669C5.50433 13.5912 5.51956 13.6575 5.55001 13.6243C5.57286 13.5829 5.64138 13.5497 5.69468 13.5414C5.90788 13.5249 5.94595 13.5083 5.90027 13.4337C5.87743 13.3923 5.89265 13.326 5.93834 13.3011C5.98402 13.268 6.00687 13.2928 5.99925 13.3508C5.9688 13.5166 6.22006 13.5332 6.27336 13.3757C6.29621 13.3011 6.28098 13.1851 6.23529 13.1271C6.17438 13.0442 6.17438 13.0111 6.23529 13.0111C6.28098 13.0111 6.31905 13.0608 6.31905 13.1105C6.31905 13.1851 6.34951 13.1768 6.39519 13.0939C6.45611 13.0028 6.46372 13.0276 6.42565 13.1934C6.39519 13.3674 6.41042 13.4254 6.48656 13.4254C6.55509 13.4254 6.59316 13.3508 6.59316 13.2348C6.58555 13.0276 6.46372 12.8453 6.37996 12.9033C6.34189 12.9199 6.31905 12.8785 6.31905 12.8122C6.31905 12.6879 6.15915 12.6381 5.84697 12.663C5.77083 12.6713 5.67946 12.605 5.63377 12.5138C5.58809 12.4227 5.49671 12.3481 5.4358 12.3481C5.37489 12.3481 5.33682 12.3149 5.36727 12.2735C5.39012 12.2238 5.19215 12.1989 4.85712 12.2155C4.08047 12.2569 4.0957 12.2569 4.149 12.3398C4.17184 12.3895 4.11854 12.4061 4.03479 12.3895C3.95103 12.3729 3.8825 12.3895 3.8825 12.431C3.8825 12.5138 3.67692 12.489 3.60078 12.3895C3.57032 12.3564 3.58555 12.3481 3.63885 12.3812C3.68453 12.4144 3.73022 12.4061 3.73022 12.3564C3.73022 12.3149 3.68453 12.2569 3.63885 12.2321C3.5627 12.1906 3.5627 12.174 3.63885 12.1326C3.71499 12.0912 3.70737 12.058 3.60078 11.9752C3.50179 11.8923 3.48656 11.8426 3.55509 11.7597C3.616 11.6685 3.64646 10.4834 3.58555 10.4834C3.5094 10.4834 3.55509 9.0746 3.63885 9.06631C3.68453 9.05802 3.76829 9.04974 3.81397 9.04145C3.85204 9.04145 3.86727 8.99173 3.83682 8.93371C3.79874 8.8757 3.82159 8.85913 3.90534 8.89228C3.97387 8.91714 4.0424 8.89228 4.06524 8.81769C4.08809 8.74311 4.13377 8.70996 4.17184 8.73482C4.2023 8.75139 4.31651 8.70167 4.4155 8.61051C4.57539 8.47791 4.58301 8.46134 4.45357 8.49449C4.33174 8.53592 4.33174 8.51935 4.47641 8.44476C4.56778 8.38675 4.64392 8.30388 4.64392 8.25416C4.64392 8.20443 4.66677 8.07184 4.69722 7.9641C4.73529 7.81493 4.72006 7.78178 4.64392 7.8315C4.56778 7.88123 4.56017 7.86465 4.61347 7.78178C4.72768 7.58289 4.72006 7.40057 4.60585 7.29283C4.50687 7.20996 4.52971 7.15195 4.74291 6.93648C4.89519 6.77902 4.94849 6.67128 4.88758 6.65471C4.84189 6.62985 4.81905 6.57184 4.84951 6.52211C4.87996 6.4641 4.91042 6.31493 4.91042 6.17405C4.91042 6.02487 4.94849 5.92543 5.0094 5.92543C5.36727 5.92543 5.39773 4.97239 5.07032 4.35084C4.95611 4.14366 4.82666 3.9862 4.78098 4.00278C4.65915 4.02764 4.64392 3.77073 4.75814 3.42267C4.84189 3.15747 4.84189 3.09117 4.75052 2.97515C4.68961 2.90057 4.65915 2.77626 4.68961 2.6851C4.72768 2.5525 4.72006 2.5525 4.65154 2.65195C4.58301 2.75968 4.56778 2.75968 4.56017 2.62709C4.55255 2.5525 4.54494 2.45305 4.53732 2.4199C4.51448 2.27073 4.05001 1.80664 3.96626 1.85637C3.92057 1.88952 3.89773 1.9641 3.92819 2.01383C3.95103 2.07184 3.92057 2.04697 3.85966 1.97239C3.79874 1.88123 3.59316 1.80664 3.34189 1.77349C2.96118 1.72377 2.90788 1.74034 2.79367 1.91438ZM3.22768 7.01935C3.20484 7.19338 3.17438 7.54974 3.15915 7.81493C3.14392 8.08012 3.12108 8.31217 3.10585 8.33703C3.08301 8.3536 3.09062 8.5525 3.12108 8.77626C3.14392 9.00001 3.14392 9.25692 3.11347 9.35637C3.07539 9.44753 3.07539 9.53869 3.10585 9.56355C3.17438 9.60499 3.15915 10.0608 3.08301 10.442C3.05255 10.6077 3.06017 10.6906 3.09824 10.6658C3.13631 10.6326 3.17438 10.6658 3.17438 10.7321C3.17438 10.7984 3.13631 10.8232 3.09824 10.7984C3.05255 10.7652 3.04494 10.7901 3.07539 10.8481C3.18199 11.0304 3.18199 11.3536 3.07539 11.3536C3.0221 11.3536 2.96118 11.3868 2.93834 11.4282C2.90788 11.4696 2.9688 11.4862 3.06017 11.4531C3.22006 11.4116 3.22768 11.4199 3.12108 11.5608C3.05255 11.6519 3.04494 11.6934 3.10585 11.6519C3.15154 11.6188 3.19722 11.6271 3.19722 11.6768C3.19722 11.7182 3.16677 11.7763 3.12869 11.8094C3.05255 11.8591 3.15915 12.3232 3.28098 12.4641C3.38758 12.5967 3.35712 12.6547 3.17438 12.6961C3.03732 12.7293 2.99925 12.6961 2.98402 12.5387C2.97641 12.431 3.00687 12.3481 3.05255 12.3481C3.09824 12.3481 3.10585 12.3066 3.06778 12.2403C3.03732 12.1906 3.00687 12.0414 2.99925 11.9089C2.98402 11.4531 2.90788 11.6022 2.90027 12.0995C2.90027 12.3812 2.87743 12.6381 2.85458 12.663C2.77083 12.7624 2.7023 12.5221 2.7023 12.1575C2.7023 11.9503 2.67184 11.8011 2.63377 11.8343C2.5957 11.8591 2.58047 11.826 2.60331 11.7597C2.7556 11.3536 2.76321 11.3287 2.68707 11.3785C2.64138 11.4116 2.58809 11.3619 2.56524 11.2624C2.53479 11.1298 2.5424 11.1133 2.63377 11.1961C2.72514 11.279 2.74037 11.2293 2.74037 10.9061C2.74037 10.6575 2.70991 10.5249 2.649 10.5249C2.5957 10.5249 2.61093 10.4834 2.68707 10.4337C2.79367 10.3674 2.82413 10.2597 2.8089 10.0276C2.79367 9.84532 2.81651 9.67128 2.85458 9.63813C2.88504 9.5967 2.89265 9.62156 2.85458 9.68786C2.8089 9.77073 2.82413 9.78731 2.89265 9.73758C2.9688 9.68786 2.9688 9.64642 2.86981 9.57184C2.74037 9.47239 2.68707 9.31493 2.80128 9.3978C2.83174 9.41438 2.90788 9.3978 2.9688 9.34808C3.06778 9.28178 3.06017 9.27349 2.95357 9.30664C2.77844 9.37294 2.74798 9.31493 2.81651 9.00001C2.84697 8.84255 2.83935 8.66023 2.80128 8.57736C2.74798 8.4862 2.7556 8.40333 2.81651 8.34532C2.87743 8.27073 2.88504 8.28731 2.84697 8.41162C2.81651 8.50278 2.82413 8.5525 2.85458 8.51106C2.93072 8.43648 2.96118 7.7072 2.88504 7.75692C2.85458 7.77349 2.8622 7.65747 2.89265 7.50001C2.93072 7.30112 2.92311 7.20996 2.8622 7.20167C2.81651 7.20167 2.85458 7.16023 2.94595 7.11051C3.03732 7.06079 3.12108 6.95305 3.14392 6.87018C3.21245 6.5967 3.26575 6.70443 3.22768 7.01935Z" fill="black"/>
<path d="M10.057 1.84852C9.99613 1.91482 10.0037 1.97283 10.0723 2.0557C10.1484 2.16344 10.1408 2.17173 9.98851 2.08057C9.821 1.98112 9.78293 2.00598 9.46313 2.37062C9.24994 2.62753 9.13572 2.82642 9.15856 2.91758C9.18141 2.99217 9.15856 3.05018 9.11288 3.04189C8.93775 3.00046 8.83115 3.42311 8.96821 3.59714C9.03674 3.6883 9.05958 3.72974 9.01389 3.70488C8.9606 3.67173 8.93014 3.72974 8.93014 3.85405C8.93014 3.97007 8.9606 4.06123 8.99867 4.06123C9.03674 4.06123 9.05197 4.09438 9.02912 4.13582C8.96821 4.24355 9.26516 4.50046 9.37176 4.42587C9.43268 4.39272 9.4479 4.40101 9.40983 4.45902C9.37938 4.51703 9.40222 4.55847 9.47075 4.55847C9.53166 4.55847 9.63826 4.61648 9.69917 4.69106C9.7677 4.75736 9.821 4.7988 9.821 4.76565C9.821 4.74079 9.89714 4.77394 9.99613 4.84852C10.0951 4.91482 10.2017 4.94797 10.2246 4.91482C10.255 4.88996 10.2779 4.92311 10.2779 4.98941C10.2779 5.06399 10.3312 5.13858 10.3921 5.17173C10.453 5.19659 10.4987 5.26289 10.4911 5.3209C10.4758 5.37891 10.5063 5.42035 10.5444 5.41206C10.6357 5.39548 10.651 6.56399 10.552 6.63858C10.5139 6.67173 10.4911 6.78775 10.4911 6.91206C10.4911 7.02808 10.4606 7.10267 10.4225 7.0778C10.3845 7.05294 10.354 7.08609 10.354 7.15239C10.354 7.21869 10.3007 7.30156 10.2322 7.32642C10.1713 7.35129 10.1408 7.41758 10.1713 7.46731C10.2017 7.52532 10.1941 7.54189 10.1484 7.51703C10.1027 7.48388 9.9276 7.61648 9.75247 7.7988C9.42506 8.13029 9.40983 8.18001 9.51643 8.76013C9.51643 8.76841 9.60019 8.86786 9.69156 8.98388C9.83623 9.14963 9.88953 9.17449 9.96567 9.09162C10.0418 9.01703 10.057 9.01703 10.0342 9.10819C10.019 9.18278 10.1027 9.26565 10.2398 9.31537C10.552 9.4314 10.5367 9.40653 10.5139 9.78775C10.5063 10.0447 10.5215 10.111 10.5977 10.0612C10.6738 10.0115 10.6738 10.0198 10.6129 10.1192C10.5596 10.1855 10.5215 10.343 10.5215 10.4839C10.5215 10.6165 10.5139 10.7491 10.5063 10.7739C10.4987 10.7988 10.4834 11.0557 10.4682 11.354C10.4454 11.6524 10.4225 11.9673 10.3997 12.0585C10.3845 12.1496 10.3616 12.2739 10.3616 12.3237C10.354 12.3817 10.3007 12.4314 10.2398 12.4314C10.1789 12.4314 10.0951 12.506 10.0494 12.5971C10.0037 12.6966 9.9276 12.738 9.85146 12.7049C9.7677 12.6717 9.76009 12.6303 9.81339 12.5723C9.85907 12.5226 9.89714 12.3651 9.89714 12.2242C9.89714 12.0916 9.95044 11.8761 10.0037 11.7518C10.1332 11.4866 10.0647 11.4038 9.80577 11.5115C9.56212 11.611 9.47836 11.7353 9.36415 12.2076C9.25755 12.6469 9.16618 12.7546 9.03674 12.5971C8.9606 12.5143 8.97582 12.4977 9.09004 12.5474C9.21186 12.5889 9.21948 12.5806 9.13572 12.4728C9.08242 12.4065 9.06719 12.3485 9.09765 12.3485C9.13572 12.3485 9.09765 12.2739 9.02151 12.1828C8.854 11.9839 8.71694 11.9673 8.78547 12.1496C8.80831 12.2159 8.8007 12.2574 8.76263 12.2325C8.72455 12.2076 8.67125 12.2657 8.6408 12.3734C8.61034 12.4728 8.57988 12.5806 8.56466 12.6137C8.55704 12.6552 8.54181 12.6966 8.5342 12.7215C8.5342 12.7463 8.35907 12.6469 8.15349 12.5143C7.74994 12.2408 7.43775 12.1994 7.25501 12.39C7.11034 12.5474 7.17887 12.7629 7.37684 12.7629C7.59765 12.7629 8.29816 13.0281 8.29816 13.111C8.29816 13.1524 8.34384 13.1607 8.39714 13.1192C8.44283 13.0861 8.51136 13.0529 8.54943 13.0447C8.70933 13.0115 8.6941 12.9866 8.48851 12.9286C8.26009 12.8623 8.26009 12.8623 8.5342 12.8706C8.72455 12.8789 8.8007 12.9121 8.77785 12.9866C8.73978 13.0861 8.97582 13.0778 9.13572 12.9701C9.18141 12.9452 9.21186 12.9535 9.21186 12.9949C9.21186 13.0447 9.28039 13.0612 9.36415 13.0364C9.4479 13.0115 9.49359 12.9618 9.47075 12.9203C9.4479 12.8789 9.47075 12.8458 9.50882 12.8458C9.5545 12.8458 9.59257 12.8872 9.59257 12.9369C9.59257 12.9784 9.63065 12.9949 9.66872 12.9701C9.7144 12.9452 9.74486 12.9618 9.74486 13.0032C9.74486 13.2187 10.2931 13.0778 10.3768 12.8458C10.4073 12.7629 10.4225 12.7795 10.4225 12.9038C10.4301 13.0364 10.4758 13.0944 10.59 13.0944C10.6738 13.0944 10.7271 13.0612 10.7043 13.0198C10.6738 12.9784 10.7575 12.9618 10.8946 12.9866C11.0545 13.0115 11.1763 12.9784 11.2905 12.8706C11.3743 12.7878 11.42 12.7712 11.3895 12.8292C11.3438 12.9038 11.3819 12.9203 11.5266 12.8955C11.6256 12.8789 11.7474 12.9038 11.7931 12.9618C11.9073 13.111 12.3261 13.1192 12.3794 12.9701C12.4098 12.9038 12.4631 12.8458 12.5088 12.8458C12.5621 12.8458 12.5621 12.8789 12.5012 12.9452C12.4479 13.0032 12.4098 13.0695 12.4098 13.1027C12.4098 13.1938 12.722 13.1192 12.821 13.0115C12.92 12.9038 12.9428 12.4231 12.8438 12.4894C12.8058 12.5143 12.7905 12.6054 12.8134 12.6883C12.8362 12.7712 12.8058 12.8789 12.7449 12.9369C12.6687 13.0032 12.6383 13.0032 12.6383 12.9369C12.6383 12.8872 12.6687 12.8458 12.7068 12.8458C12.7449 12.8458 12.7601 12.7712 12.7372 12.68C12.7144 12.5889 12.6687 12.5391 12.6306 12.564C12.5926 12.5889 12.585 12.6469 12.6078 12.6966C12.6383 12.7546 12.623 12.7629 12.5697 12.7297C12.524 12.6966 12.4251 12.7132 12.3565 12.7795C12.2499 12.8789 12.2499 12.854 12.3641 12.6137C12.4327 12.4728 12.4707 12.3485 12.4479 12.3485C12.4174 12.3485 12.4631 12.2491 12.5469 12.1248C12.8134 11.6938 12.8286 11.6524 12.6687 11.7104C12.524 11.7684 12.524 11.7684 12.6687 11.6441C12.8819 11.4701 12.7601 11.3872 12.524 11.5529C12.4174 11.6275 12.3337 11.7601 12.3337 11.8513C12.3337 12.0253 12.189 12.0833 12.1738 11.9093C12.1738 11.8596 12.1281 11.9176 12.0824 12.0585C11.8616 12.6634 11.8159 12.3319 11.8159 10.3596C11.8159 9.35681 11.8083 9.38996 12.0215 9.4314C12.1281 9.45626 12.189 9.43968 12.1586 9.38996C12.1281 9.34024 12.1814 9.32366 12.288 9.34024C12.5545 9.39825 13.0114 8.68554 13.0723 8.11372C13.1103 7.77394 13.0951 7.69935 13.019 7.74908C12.9428 7.7988 12.9276 7.76565 12.9581 7.5999C12.9809 7.45902 12.9581 7.36786 12.8895 7.343C12.8286 7.31814 12.8058 7.26013 12.8286 7.2104C12.8515 7.16897 12.8362 7.12753 12.7982 7.12753C12.7525 7.12753 12.722 7.10267 12.722 7.06123C12.7449 6.89548 12.7068 6.79604 12.6078 6.79604C12.5469 6.79604 12.4784 6.84576 12.4555 6.89548C12.4251 6.96178 12.4174 6.96178 12.4327 6.87891C12.4479 6.81261 12.5697 6.72974 12.7068 6.69659C12.8362 6.65515 12.9276 6.58885 12.9048 6.54742C12.8819 6.51427 12.92 6.42311 12.9809 6.34852C13.1408 6.18278 13.1484 5.39548 12.9961 5.06399C12.8971 4.84024 12.8971 4.82366 13.0114 4.8651C13.1103 4.90653 13.118 4.88996 13.0418 4.7988C12.9885 4.74079 12.9428 4.62477 12.9428 4.54189C12.9428 4.35957 12.6002 4.10267 12.4784 4.19383C12.4174 4.22698 12.4098 4.21869 12.4403 4.16068C12.4784 4.09438 12.4251 4.06123 12.2804 4.06123C12.1053 4.05294 12.09 4.04466 12.1966 3.97007C12.4098 3.83747 12.3261 2.89272 12.0824 2.5778C11.9758 2.43692 11.8692 2.35405 11.8464 2.37891C11.8235 2.41206 11.8007 2.3872 11.8007 2.33747C11.8007 2.22145 11.5266 2.11372 10.9403 2.01427C10.689 1.97283 10.6586 1.98112 10.7043 2.122C10.7347 2.24631 10.7347 2.2546 10.6738 2.16344C10.6281 2.09714 10.6129 2.00598 10.6281 1.94797C10.651 1.89825 10.6205 1.84852 10.5672 1.84024C10.5139 1.84024 10.3921 1.81537 10.3083 1.7988C10.2169 1.77394 10.1027 1.7988 10.057 1.84852ZM11.3362 9.58885C11.3438 10.2684 11.3743 11.1469 11.4048 11.5447C11.4352 11.9424 11.4352 12.3154 11.4048 12.3734C11.3667 12.4397 11.3438 12.4065 11.3438 12.2822C11.3438 12.1828 11.2982 12.0999 11.2372 12.0999C11.1839 12.0999 11.0773 12.0087 11.0088 11.8927C10.8794 11.6855 10.8413 11.4784 10.9479 11.5447C10.9784 11.5695 11.0012 10.9811 10.9936 10.2518C10.9936 9.51427 11.0164 8.81814 11.0469 8.70211C11.085 8.56123 11.1078 8.54466 11.1078 8.6441C11.1154 8.72698 11.1459 8.7767 11.1839 8.74355C11.2296 8.71869 11.2449 8.62753 11.2296 8.53637C11.2144 8.44521 11.2296 8.37062 11.2601 8.37062C11.2982 8.37062 11.3286 8.91758 11.3362 9.58885Z" fill="black"/>
<path d="M6.82887 2.64308C6.74512 2.70938 6.69943 2.72596 6.72227 2.67623C6.76035 2.61822 6.72227 2.60165 6.62329 2.62651C6.53953 2.65137 6.49385 2.7011 6.51669 2.74253C6.53953 2.78397 6.50146 2.79226 6.43293 2.76739C6.35679 2.73425 6.19689 2.84198 5.97608 3.09889C5.62583 3.48839 5.56491 3.69557 5.73243 3.88618C5.78573 3.96076 5.78573 3.97734 5.74004 3.95248C5.59537 3.86132 5.54969 4.1348 5.6639 4.37513C5.84664 4.75634 6.13598 4.99668 6.34918 4.95524C6.46339 4.93038 6.54715 4.94695 6.54715 4.99668C6.54715 5.05469 6.5776 5.05469 6.63852 4.98839C6.69182 4.93038 6.76796 4.88894 6.80603 4.88894C6.85172 4.88894 6.83649 4.93038 6.77557 4.97181C6.67659 5.03811 6.6842 5.05469 6.79842 5.05469C6.86694 5.05469 6.92786 5.01325 6.92786 4.97181C6.92786 4.92209 6.96593 4.88894 7.01161 4.88894C7.04969 4.88894 7.06491 4.93867 7.03446 4.98839C6.98877 5.07126 6.99639 5.07126 7.09537 4.99668C7.15628 4.93867 7.23243 4.9138 7.25527 4.94695C7.28573 4.97181 7.3238 4.93038 7.35425 4.85579C7.3771 4.78121 7.4304 4.74806 7.46847 4.77292C7.50654 4.79778 7.537 4.77292 7.537 4.73148C7.537 4.56574 7.55222 4.51601 7.62075 4.41657C7.67405 4.35027 7.62075 4.23425 7.46085 4.04364C7.3238 3.89447 7.24004 3.81988 7.2705 3.8696C7.3238 3.99391 7.18674 4.01878 7.11821 3.89447C7.03446 3.7453 6.92786 3.81159 6.92786 4.01878C6.92786 4.21767 6.99639 4.25911 7.27811 4.25082C7.39233 4.24253 7.36187 4.51601 7.24766 4.5243C7.19436 4.53259 7.09537 4.54088 7.02684 4.54916C6.90502 4.55745 6.90502 4.57402 7.004 4.64032C7.08776 4.70662 7.0573 4.71491 6.88979 4.67347C6.76796 4.64032 6.64613 4.60717 6.6309 4.5906C6.61568 4.57402 6.53192 4.59889 6.44816 4.64861C6.33395 4.71491 6.31111 4.71491 6.35679 4.64032C6.43293 4.50773 6.25019 4.38342 6.05222 4.43314C5.96847 4.458 5.93801 4.44972 5.9837 4.42485C6.037 4.39999 6.05984 4.26739 6.037 4.10165C5.99131 3.72872 6.19689 3.35579 6.54715 3.17347C6.87456 3.00773 7.65121 2.92485 7.71974 3.05745C7.79588 3.18176 7.94055 3.17347 7.87202 3.04088C7.84156 2.99115 7.87964 3.00773 7.96339 3.08231C8.10045 3.21491 8.10806 3.20662 8.11568 3.00773C8.1309 2.84198 8.10045 2.80883 7.97862 2.84198C7.87202 2.87513 7.84156 2.85855 7.87202 2.76739C7.91009 2.65966 7.78826 2.61822 7.4837 2.62651C7.4304 2.6348 7.38471 2.60994 7.38471 2.57679C7.38471 2.47734 6.98116 2.52706 6.82887 2.64308Z" fill="black"/>
<path d="M7.94143 5.27035C7.9262 5.32008 7.79676 5.39466 7.6597 5.41952C7.3932 5.47753 7.04295 5.80903 7.13432 5.92505C7.17239 5.9582 7.14955 5.96648 7.09625 5.93333C7.04295 5.90019 6.98965 5.93333 6.95919 6.02449C6.93635 6.10737 6.89828 6.23168 6.87544 6.29798C6.84498 6.36427 6.82214 6.47201 6.80691 6.53002C6.7993 6.59632 6.76884 6.66262 6.75361 6.68748C6.73077 6.70405 6.746 6.84494 6.79168 6.98582C6.86782 7.28416 6.91351 7.46648 6.92112 7.56593C6.92874 7.60737 6.96681 7.60737 7.00488 7.58251C7.05057 7.55764 7.08102 7.59908 7.08102 7.68195C7.08102 7.76483 7.14194 7.88914 7.21808 7.95543C7.37036 8.09632 7.88051 8.41952 7.88051 8.37809C7.88051 8.28693 8.38305 8.68472 8.42112 8.80074C8.44397 8.88361 8.49727 8.94991 8.54295 8.94991C8.58864 8.94991 8.60386 8.97477 8.58102 8.99963C8.55057 9.03278 8.58864 9.15709 8.65716 9.28969C8.76376 9.4803 8.77138 9.57146 8.69524 9.82836C8.62671 10.0687 8.63432 10.1681 8.70285 10.2676C8.78661 10.3836 8.77899 10.3836 8.66478 10.2842C8.53534 10.1847 8.48965 10.2096 8.52011 10.3836C8.52772 10.425 8.50488 10.4333 8.47442 10.4168C8.43635 10.3919 8.30691 10.4665 8.18508 10.5825C8.05564 10.6985 7.99473 10.7731 8.04041 10.7483C8.0861 10.7151 8.12417 10.7483 8.12417 10.8146C8.12417 10.8974 8.0861 10.9057 7.9795 10.8477C7.88051 10.7897 7.84244 10.7897 7.85767 10.8726C7.8729 10.9223 7.85006 10.972 7.80437 10.9803C7.4998 11.0134 6.3729 11.4029 6.34244 11.4941C6.3196 11.5521 6.28153 11.5853 6.25107 11.5687C6.22823 11.5521 6.1597 11.5853 6.1064 11.6516C6.0531 11.7179 6.03026 11.7676 6.0531 11.7676C6.07595 11.7676 6.06072 11.8339 6.02265 11.9168C5.96935 12.0328 5.97696 12.0742 6.0531 12.0742C6.1064 12.0742 6.13686 12.0162 6.1064 11.9499C6.08356 11.8753 6.09879 11.8422 6.14447 11.8753C6.19016 11.9085 6.38813 11.8587 6.59371 11.7676C6.79168 11.6764 6.96681 11.6184 6.98965 11.635C7.00488 11.6599 7.12671 11.6184 7.24853 11.5521C7.37036 11.4858 7.57595 11.4112 7.69777 11.3947C7.94904 11.3615 8.16985 11.2041 8.10894 11.1046C8.09371 11.0715 8.15463 11.0632 8.246 11.0797C8.44397 11.1212 9.02265 10.4168 8.95412 10.2179C8.93128 10.1599 8.95412 10.1101 8.99219 10.1101C9.04549 10.1101 9.06072 10.019 9.04549 9.90295C9.02265 9.78693 9.03026 9.69577 9.06072 9.69577C9.19777 9.69577 9.00742 8.70958 8.86275 8.64328C8.80183 8.61842 8.77138 8.56869 8.79422 8.53554C8.87036 8.40295 8.44397 8.27864 8.3526 8.41124C8.31452 8.45267 8.30691 8.41124 8.33737 8.31179C8.36782 8.17919 8.34498 8.12118 8.20793 8.07146C8.11656 8.04659 7.99473 7.96372 7.93381 7.89742C7.8729 7.83112 7.77392 7.79798 7.713 7.82284C7.65209 7.8477 7.62925 7.83941 7.65209 7.78969C7.67493 7.74825 7.61402 7.65709 7.50742 7.58251C7.40082 7.50792 7.29422 7.3256 7.26376 7.18472C7.24092 7.03554 7.18001 6.8698 7.12671 6.8035C7.05818 6.70405 7.06579 6.69577 7.14955 6.75378C7.23331 6.8035 7.24853 6.78693 7.21046 6.68748C7.18762 6.61289 7.19524 6.53002 7.23331 6.50516C7.27138 6.4803 7.28661 6.38914 7.27138 6.29798C7.25615 6.19853 7.27138 6.1488 7.31706 6.18195C7.36275 6.20682 7.41605 6.16538 7.43128 6.07422C7.46935 5.93333 7.98711 5.63499 8.20793 5.63499C8.25361 5.63499 8.2993 5.58527 8.2993 5.52726C8.2993 5.45267 8.32214 5.46096 8.36782 5.54383C8.4059 5.60184 8.46681 5.63499 8.49727 5.61013C8.59625 5.55212 9.06072 5.77588 9.06072 5.88361C9.06072 5.92505 9.1064 5.96648 9.16732 5.96648C9.28914 5.96648 9.34244 6.11566 9.38051 6.52173C9.40336 6.83665 9.07595 7.18472 8.84752 7.07698C8.77899 7.04383 8.70285 7.01068 8.68001 7.01068C8.52772 6.97753 8.45919 6.85322 8.52011 6.72891C8.56579 6.63775 8.55057 6.55488 8.48204 6.4803C8.39067 6.38914 8.37544 6.39742 8.37544 6.52173C8.37544 6.64604 8.36021 6.64604 8.30691 6.55488C8.20031 6.37256 8.10894 6.84494 8.1927 7.11013C8.26884 7.33389 8.84752 7.62394 8.8932 7.4582C8.90843 7.40847 8.99219 7.33389 9.08356 7.28416C9.24346 7.20129 9.24346 7.20129 9.1064 7.3256C9.02265 7.40019 8.97696 7.47477 8.99219 7.49135C9.0531 7.56593 9.40336 7.3256 9.38813 7.22615C9.3729 7.16814 9.41859 7.15157 9.49473 7.18472C9.5861 7.22615 9.60894 7.20129 9.57087 7.10184C9.54803 7.02726 9.56326 6.94438 9.60894 6.91124C9.66224 6.8698 9.66985 6.89466 9.6394 6.96925C9.60894 7.03554 9.6394 7.01068 9.70793 6.91952C9.79168 6.81179 9.81452 6.6709 9.79168 6.51345C9.76884 6.38085 9.746 6.22339 9.746 6.15709C9.746 6.08251 9.70793 6.06593 9.65463 6.09908C9.5861 6.14052 9.5861 6.12394 9.66224 6.02449C9.746 5.90847 9.746 5.87532 9.6394 5.83389C9.57087 5.80903 9.51757 5.73444 9.51757 5.66814C9.51757 5.60184 9.48711 5.55212 9.44143 5.55212C9.40336 5.55212 9.36529 5.60184 9.36529 5.65157C9.36529 5.70958 9.29676 5.63499 9.213 5.48582C9.1064 5.29521 8.9998 5.22063 8.85513 5.21234C8.73331 5.20405 8.48965 5.19577 8.31452 5.17919C8.10133 5.1709 7.96427 5.20405 7.94143 5.27035Z" fill="black"/>
<path d="M5.90725 6.6463C5.94532 6.7126 5.92248 6.72089 5.83111 6.68774C5.75497 6.65459 5.7169 6.66288 5.74735 6.7126C5.7702 6.76232 5.76258 6.79547 5.72451 6.79547C5.67882 6.79547 5.62553 6.85348 5.60268 6.92807C5.57223 7.01094 5.58745 7.03581 5.65598 6.99437C5.72451 6.94464 5.72451 6.95293 5.65598 7.05238C5.48847 7.27614 5.47324 8.18774 5.64075 8.08C5.67121 8.05514 5.68644 8.11315 5.67121 8.2126C5.64075 8.37835 5.80065 8.59382 6.18136 8.91702C6.28796 9.00818 6.78289 9.21536 6.99608 9.24851C7.04938 9.26509 7.14075 9.31481 7.18644 9.37282C7.24735 9.44741 7.24735 9.45569 7.17882 9.41426C7.1103 9.37282 7.09507 9.39768 7.12553 9.48056C7.14837 9.55514 7.22451 9.61315 7.28542 9.61315C7.36157 9.61315 7.38441 9.66288 7.35395 9.74575C7.32349 9.82034 7.34634 9.94464 7.39964 10.0109C7.48339 10.1187 7.48339 10.127 7.39964 10.0772C7.2702 9.99437 6.90471 10.2513 6.97324 10.3756C7.0037 10.4336 6.99608 10.4419 6.93517 10.4087C6.88948 10.3756 6.86664 10.3176 6.88187 10.2844C6.92756 10.2098 6.71436 10.2264 6.524 10.3176C6.44786 10.3507 6.27273 10.359 6.12806 10.3341C5.95294 10.301 5.82349 10.3259 5.75497 10.4087C5.69405 10.475 5.6103 10.5248 5.56461 10.5248C5.52654 10.5248 5.4504 10.5911 5.41233 10.6656C5.36664 10.7485 5.32857 10.7817 5.32857 10.7402C5.32857 10.6988 5.24481 10.7485 5.13822 10.8562C4.95547 11.0469 4.95547 11.0551 5.08492 11.2126C5.19152 11.3535 5.19913 11.3701 5.09253 11.3369C5.024 11.3038 4.9707 11.3286 4.9707 11.4032C4.9707 11.5772 5.16106 11.5441 5.25243 11.3618C5.41994 11.022 5.96055 10.7154 6.50116 10.6656C6.78289 10.6408 7.057 10.5745 7.1103 10.533C7.1636 10.4833 7.22451 10.4585 7.24735 10.4833C7.30065 10.5413 7.68898 10.1353 7.68898 10.0275C7.68898 9.97779 7.64329 9.96122 7.59761 9.98608C7.54431 10.0192 7.55192 9.99437 7.61284 9.92807C7.68136 9.87006 7.72705 9.77061 7.71943 9.7126C7.71182 9.66288 7.70421 9.56343 7.69659 9.50542C7.68898 9.37282 7.38441 8.97503 7.38441 9.08277C7.38441 9.1242 7.33872 9.09934 7.28542 9.02476C7.23212 8.95017 7.1103 8.85072 7.01131 8.78442C6.8438 8.69326 6.83619 8.69326 6.88187 8.83415C6.91994 8.97503 6.91994 8.97503 6.83619 8.85901C6.78289 8.78442 6.6306 8.6684 6.49355 8.59382C6.3641 8.51923 6.20421 8.37835 6.14329 8.28719C6.08999 8.19603 6.02146 8.13802 5.99862 8.16288C5.94532 8.22089 5.94532 7.1021 5.99862 7.00266C6.09761 6.82862 6.08238 6.6463 5.96817 6.59658C5.89202 6.56343 5.86918 6.58 5.90725 6.6463Z" fill="black"/>
<path d="M5.20767 9.36531C5.16198 9.41503 5.04777 9.46476 4.94117 9.48962C4.54523 9.5642 4.16452 10.3515 4.46147 10.4758C4.6366 10.5504 4.69751 10.5338 4.57569 10.4509C4.52239 10.4095 4.49954 10.3349 4.53 10.2769C4.57569 10.2023 4.59853 10.2023 4.65183 10.2852C4.69751 10.3681 4.72797 10.3598 4.76604 10.2355C4.7965 10.1443 4.9564 9.92884 5.13152 9.7631C5.32188 9.58078 5.39802 9.45647 5.32949 9.44818C5.23051 9.44818 5.23051 9.43989 5.32949 9.36531C5.39041 9.32387 5.40564 9.28244 5.36756 9.28244C5.32188 9.28244 5.24574 9.32387 5.20767 9.36531Z" fill="black"/>
<path d="M1.10412 12.7712C1.03559 13.0033 1.19549 13.111 1.37061 12.9453C1.55336 12.7795 1.48483 12.5392 1.3097 12.6967C1.21833 12.7795 1.2031 12.7795 1.24879 12.6967C1.27924 12.6469 1.27163 12.5972 1.22594 12.5972C1.18787 12.5972 1.12696 12.6801 1.10412 12.7712Z" fill="black"/>
<path d="M6.66908 13.1609C6.61578 13.2603 6.69954 13.5918 6.78329 13.5918C6.81375 13.5918 6.86705 13.5504 6.88989 13.5089C6.92035 13.4592 6.96604 13.4426 6.99649 13.4592C7.02695 13.4841 7.05741 13.4509 7.05741 13.3846C7.05741 13.3183 7.02695 13.2852 6.98888 13.31C6.95842 13.3349 6.86705 13.31 6.79852 13.2603C6.66908 13.1691 6.66908 13.1691 6.79852 13.2106C6.86705 13.2354 6.92796 13.2189 6.92796 13.1774C6.92796 13.078 6.72238 13.0697 6.66908 13.1609Z" fill="black"/>
</svg>
