<svg width="15" height="15" viewBox="0 0 15 15" fill="none" xmlns="http://www.w3.org/2000/svg">
<path d="M8.11517 0.94103C7.69209 1.06215 7.1344 1.57457 6.99017 1.97519L6.87479 2.31991L6.47094 2.05904C6.01902 1.76091 5.36517 1.63047 4.79786 1.72364C4.36517 1.79817 3.84594 2.30128 3.84594 2.65532C3.84594 2.82302 3.77863 2.88823 3.54786 2.93482C2.32671 3.19569 2.09594 5.15221 3.20171 5.91619L3.41325 6.06525L3.15363 6.27954C2.30748 7.00625 2.31709 8.49693 3.17286 8.86028C3.39402 8.96277 3.46132 9.04662 3.46132 9.25159C3.46132 10.2485 4.84594 10.8448 5.98055 10.3323C6.23055 10.2205 6.46132 10.146 6.49017 10.1739C6.6344 10.3137 6.68248 10.8448 6.60555 11.3665C6.57671 11.5435 6.54786 11.8417 6.53825 12.0187C6.52863 12.2795 6.5094 12.3075 6.45171 12.1584C6.33632 11.8882 5.6344 11.2174 5.26902 11.0218C5.02863 10.8913 4.74017 10.8541 4.08632 10.8541C3.10555 10.8541 2.78825 10.9845 2.17286 11.646C1.72094 12.1305 1.73055 12.3261 2.19209 12.5218C2.3844 12.6056 2.7594 12.8199 3.01902 12.9969C3.6344 13.4069 4.18248 13.5839 4.74017 13.5559C5.15363 13.528 5.92286 13.2019 6.07671 12.9969C6.19209 12.8479 6.33632 13.0621 6.39402 13.4628C6.48055 14.0031 6.5094 14.0684 6.72094 14.0684C6.95171 14.0684 7.0094 13.9007 7.0094 13.2299C7.0094 12.6988 7.11517 11.3665 7.16325 11.3665C7.18248 11.3665 7.31709 11.4317 7.46132 11.5062C7.94209 11.7485 8.83632 11.6367 9.24979 11.292C9.36517 11.1988 9.52863 11.1708 9.7594 11.2081C10.7882 11.3665 11.7017 10.5 11.6152 9.44724L11.5767 8.96277L12.1056 8.91619C13.3844 8.79507 14.1152 7.83544 13.7498 6.76401C13.6632 6.50314 13.6632 6.35407 13.7594 6.07457C14.1152 5.06836 13.3556 4.12737 12.1536 4.07146L11.6729 4.05283L11.8075 3.68016C12.144 2.72053 11.4229 1.58389 10.4806 1.58389C10.2306 1.58389 10.0767 1.50935 9.86517 1.29507C9.42286 0.847862 8.86517 0.726744 8.11517 0.94103ZM9.49017 1.72364C9.73055 2.01246 9.80748 2.04973 10.2017 2.04973C11.394 2.04973 11.6921 3.32612 10.7594 4.46277C10.2402 5.08699 10.3075 5.18016 11.0286 4.84476C12.2402 4.29507 13.269 4.67705 13.269 5.68327C13.269 5.84165 13.2017 6.07457 13.1152 6.19569C12.9709 6.40997 12.9709 6.45656 13.1152 6.74538C13.7209 7.97519 12.3844 8.87892 10.9902 8.18948C10.4325 7.90997 9.90363 8.04973 10.3459 8.34786C11.0382 8.82302 11.2498 9.35407 10.9998 9.95966C10.7498 10.5746 10.1248 10.8541 9.55748 10.6025C9.33632 10.5 9.28825 10.5094 9.14402 10.6864C8.89402 10.9752 8.43248 11.1708 8.07671 11.1336C7.28825 11.0311 6.96132 10.4814 7.05748 9.39134C7.09594 8.99072 7.08632 8.66463 7.03825 8.66463C6.99017 8.66463 6.7594 8.90687 6.51902 9.21432C5.78825 10.118 4.85555 10.3044 4.20171 9.68016C3.95171 9.43792 3.92286 9.35407 3.98055 9.02799C4.03825 8.66463 4.03825 8.65532 3.62478 8.48761C3.04786 8.24538 2.85555 7.74227 3.11517 7.146C3.26902 6.77333 3.53825 6.57768 4.20171 6.34476C4.73055 6.16774 4.79786 5.96277 4.37479 5.84165C3.24978 5.52488 2.69209 4.6491 3.14402 3.90376C3.30748 3.63358 3.78825 3.35407 4.07671 3.35407C4.16325 3.35407 4.24978 3.24227 4.28825 3.0932C4.40363 2.57146 4.49979 2.44103 4.93248 2.30128C5.32671 2.17084 5.3844 2.18016 5.86517 2.3665C6.40363 2.57146 7.01902 3.26091 7.01902 3.65221C7.01902 3.95035 7.30748 4.41619 7.42286 4.30438C7.54786 4.18327 7.54786 3.59631 7.42286 3.39134C7.31709 3.20501 7.46132 2.30128 7.64402 1.94724C7.83632 1.60252 8.21132 1.41619 8.76902 1.40687C9.17286 1.39755 9.24979 1.4255 9.49017 1.72364ZM5.0094 11.4597C5.31709 11.618 5.72094 11.9535 5.74017 12.0746C5.74979 12.1398 5.58632 12.1305 5.2594 12.0466C4.70171 11.9069 4.05748 11.8882 3.85555 12.0094C3.69209 12.1118 3.79786 12.1677 4.27863 12.2516C5.72094 12.4938 5.97094 12.6895 5.15363 12.9503C4.53825 13.146 3.85555 12.9503 2.85555 12.3168L2.49017 12.0839L2.76902 11.8137C3.28825 11.3013 4.37479 11.1336 5.0094 11.4597Z" fill="currentColor"/>
<path d="M8.43329 4.17431C8.20252 4.41655 8.22175 4.75195 8.45252 4.75195C8.65445 4.75195 9.06791 4.31406 9.01022 4.15568C8.95252 3.97866 8.60637 3.98798 8.43329 4.17431Z" fill="currentColor"/>
<path d="M5.70104 4.52845C5.56642 4.86385 6.24911 5.32969 6.44142 5.03155C6.54719 4.87317 6.41258 4.69615 6.03758 4.50981C5.78758 4.38869 5.75873 4.38869 5.70104 4.52845Z" fill="currentColor"/>
<path d="M9.3469 4.77033C9.18343 4.92872 9.20267 5.21754 9.39497 5.28275C9.55843 5.34797 9.90459 5.01257 9.90459 4.78896C9.90459 4.63058 9.51036 4.61195 9.3469 4.77033Z" fill="currentColor"/>
<path d="M6.98086 4.96503C6.72125 5.14205 6.8174 5.51472 7.14432 5.62652C7.54817 5.76628 7.79817 5.49609 7.59625 5.14205C7.42317 4.84392 7.23086 4.78802 6.98086 4.96503Z" fill="currentColor"/>
<path d="M8.19133 5.51476C7.97979 5.71973 8.0471 6.04581 8.31633 6.11103C8.70095 6.2042 8.86441 6.0924 8.82595 5.75699C8.7971 5.42159 8.43172 5.28184 8.19133 5.51476Z" fill="currentColor"/>
<path d="M5.48122 5.82293C5.31776 6.00927 5.51007 6.24219 5.83699 6.24219C6.10622 6.24219 6.22161 6.01858 6.05814 5.82293C5.9043 5.64591 5.63507 5.64591 5.48122 5.82293Z" fill="currentColor"/>
<path d="M9.53875 5.98113C9.25029 6.26064 9.70221 6.63331 10.0868 6.43766C10.3176 6.31654 10.3272 6.26064 10.1541 6.02772C10.0099 5.84138 9.70221 5.82275 9.53875 5.98113Z" fill="currentColor"/>
<path d="M6.85574 6.16811C6.46151 6.35444 6.73074 6.96003 7.16343 6.85755C7.47113 6.78301 7.53843 6.63394 7.41343 6.30786C7.30767 6.03767 7.19228 6.00972 6.85574 6.16811Z" fill="currentColor"/>
<path d="M7.97185 6.63267C7.818 6.96807 8.01031 7.35938 8.33723 7.35938C8.51031 7.35938 8.66415 6.9867 8.55839 6.80037C8.47185 6.6513 8.01992 6.53018 7.97185 6.63267Z" fill="currentColor"/>
<path d="M5.89363 7.00612C5.48016 7.20177 5.55709 7.66761 5.98978 7.58376C6.28786 7.52786 6.46093 7.28562 6.33593 7.07134C6.23016 6.87568 6.1917 6.86637 5.89363 7.00612Z" fill="currentColor"/>
<path d="M9.24059 6.97797C9.03866 7.09909 9.27905 7.45312 9.57712 7.45312C9.88482 7.45312 9.99059 7.19226 9.75982 7.02455C9.54828 6.87549 9.43289 6.86617 9.24059 6.97797Z" fill="currentColor"/>
<path d="M6.97187 7.67748C6.79879 7.92903 6.8661 8.19922 7.10648 8.19922C7.3084 8.1899 7.60648 7.77996 7.53917 7.60295C7.45264 7.37934 7.14494 7.42593 6.97187 7.67748Z" fill="currentColor"/>
<path d="M8.2598 7.88264C8.15404 8.00375 8.15404 8.06897 8.26942 8.27394C8.49057 8.64661 8.65404 8.63729 8.65404 8.26462C8.65404 7.864 8.45211 7.65903 8.2598 7.88264Z" fill="currentColor"/>
</svg>
