<svg width="15" height="15" viewBox="0 0 15 15" fill="none" xmlns="http://www.w3.org/2000/svg">
<path d="M11.1831 2.95145C10.3228 4.35621 10.1243 4.54669 10.3007 3.8324C10.3669 3.59431 10.1684 3.11812 9.85955 2.71336C9.17572 1.85621 8.44778 2.11812 7.60955 3.5705C6.8816 4.80859 6.44043 4.8324 6.59484 3.59431C6.63896 3.42764 6.55072 3.35621 6.41837 3.45145C6.26396 3.52288 6.2419 3.45145 6.30807 3.21336C6.44043 2.8324 6.06543 2.14193 5.71249 2.14193C5.60219 2.14193 5.3816 2.49907 5.20513 2.95145C5.02866 3.38002 4.78602 3.8324 4.65366 3.90383C4.2566 4.16574 4.3669 4.52288 4.78602 4.35621C5.09484 4.23717 5.07278 4.3324 4.65366 4.95145C4.08013 5.85621 3.85954 5.90383 3.5066 5.21336C3.35219 4.90383 3.35219 4.76097 3.48454 4.85621C3.8816 5.11812 4.03602 4.49907 3.66102 4.0705C3.46249 3.8324 3.30807 3.54669 3.30807 3.42764C3.30807 3.30859 3.15366 3.02288 2.99925 2.78478C2.71249 2.38002 2.64631 2.42764 2.09484 3.45145C1.76396 4.04669 1.56543 4.61812 1.6316 4.71336C1.83013 4.92764 2.20513 4.23717 2.05072 3.95145C1.98454 3.8324 2.02866 3.80859 2.16102 3.90383C2.46984 4.09431 2.02866 5.18955 1.45513 5.68955C0.991897 6.09431 0.991897 6.76097 1.43307 6.5705C1.87425 6.40383 1.85219 6.59431 1.32278 7.3324C0.991897 7.76097 0.94778 7.99907 1.12425 8.11812C1.27866 8.21336 1.30072 8.40383 1.19043 8.59431C0.925721 9.04669 0.881603 12.1181 1.12425 12.2848C1.23454 12.3562 1.27866 12.4991 1.21249 12.6181C1.14631 12.7134 1.2566 12.9515 1.45513 13.1181C1.7419 13.3562 1.98454 13.3086 2.99925 12.7848C3.66102 12.4276 4.38896 12.1419 4.6316 12.1419C4.87425 12.1419 5.07278 12.0229 5.07278 11.9038C5.07278 11.761 5.13896 11.6895 5.24925 11.6895C5.33749 11.7134 5.44778 11.7134 5.51396 11.6657C5.58013 11.6419 5.8669 11.5943 6.17572 11.5229C6.48454 11.4753 6.83749 11.261 6.96984 11.0705C7.10219 10.88 7.27866 10.7848 7.34484 10.8562C7.41102 10.9276 7.43307 10.8324 7.41102 10.6181C7.38896 10.4038 7.14631 10.0705 6.8816 9.85621C6.1316 9.30859 6.28602 9.09431 7.67572 8.80859C8.35955 8.66574 9.1316 8.47526 9.37425 8.42764C9.72719 8.3324 9.70513 8.40383 9.21984 8.85621C8.44778 9.5705 8.44778 9.90383 9.21984 10.0705C9.92572 10.2372 10.8081 11.0467 10.8081 11.5467C10.8081 11.761 10.5875 12.0943 10.3448 12.3324C10.0801 12.5467 9.6169 12.9753 9.28602 13.261L8.71249 13.8086L10.2125 13.7848C11.139 13.761 11.6904 13.6419 11.6904 13.4753C11.6904 13.3086 11.7566 13.3324 11.8669 13.5229C12.1537 13.9991 13.3007 13.4276 13.6316 12.6419C13.9845 11.8086 13.9404 10.1657 13.5434 9.09431C13.3007 8.45145 13.3007 8.3324 13.5875 8.3324C13.9404 8.3324 14.0066 7.95145 13.6978 7.76097C13.5875 7.68955 13.2787 7.21336 13.014 6.73717C12.5728 5.92764 12.5728 5.88002 12.9478 6.23717C13.411 6.71336 13.8081 6.78478 13.9845 6.45145C14.161 6.16574 13.2345 4.95145 12.9257 5.0705C12.7934 5.14193 12.661 4.97526 12.661 4.73717C12.661 4.40383 12.7934 4.3324 13.2345 4.42764C13.7419 4.54669 13.7419 4.52288 13.411 4.21336C13.1904 4.02288 13.0801 3.8324 13.1243 3.76097C13.1904 3.68955 13.1022 3.49907 12.9037 3.3324C12.7272 3.16574 12.5728 2.90383 12.5728 2.76097C12.5728 2.59431 12.4404 2.28478 12.286 2.04669C12.0213 1.66574 11.9331 1.73716 11.1831 2.95145ZM9.9919 5.80859C10.3669 6.11812 10.5434 6.80859 10.1684 6.54669C10.0581 6.47526 9.90366 6.64193 9.81543 6.90383C9.63896 7.52288 9.46249 7.49907 8.97719 6.76097C8.58013 6.16574 8.58013 6.14193 8.97719 5.8324C9.46249 5.40383 9.5066 5.40383 9.9919 5.80859ZM4.34484 8.68955C4.60954 8.97526 4.6316 9.14193 4.41102 9.40383C4.05807 9.88002 3.74925 9.85621 3.39631 9.3324C2.99925 8.78478 3.02131 8.61812 3.48454 8.49907C3.68307 8.42764 3.8816 8.38002 3.92572 8.35621C3.96984 8.35621 4.14631 8.49907 4.34484 8.68955Z" fill="black"/>
<path d="M9.10874 11.1183C9.17491 11.2373 8.93226 11.523 8.57932 11.7611C7.71903 12.3087 7.8955 12.523 8.79991 12.023C9.52785 11.6421 9.66021 11.3325 9.21903 11.0468C9.08668 10.9516 9.04256 10.9754 9.10874 11.1183Z" fill="black"/>
</svg>
