<svg width="15" height="15" viewBox="0 0 15 15" fill="none" xmlns="http://www.w3.org/2000/svg">
<path d="M9.60613 2.91607C8.56119 3.08273 7.28029 3.70773 6.92636 4.2494C6.72411 4.54107 6.52187 4.58273 5.83085 4.47857C4.9713 4.35357 2.30838 4.97857 1.98816 5.3744C1.90389 5.47857 2.07243 5.9369 2.35894 6.41607L2.86456 7.29107L2.02187 7.72857C0.976922 8.29107 0.471304 9.10357 0.943214 9.52023C1.11175 9.66607 1.48254 9.79107 1.78591 9.79107C2.08928 9.79107 2.93198 10.0619 3.67355 10.3952C5.83085 11.3952 7.78591 11.3536 9.60613 10.2702C10.5331 9.72857 12.8927 9.08273 13.1623 9.29107C13.2466 9.35357 13.314 9.29107 13.314 9.14523C13.314 8.97857 13.0275 8.9369 12.387 8.9994C11.8814 9.0619 11.4601 9.02023 11.4601 8.91607C11.4601 8.83273 11.5275 8.7494 11.6118 8.7494C11.932 8.7494 13.6511 6.60357 13.6511 6.22857C13.6511 5.70773 13.0275 5.41607 11.932 5.41607H11.0724L11.1736 4.3744C11.2241 3.79107 11.241 3.1869 11.1736 3.02023C11.0724 2.6869 11.0219 2.6869 9.60613 2.91607ZM9.4376 4.16607C8.61175 5.0619 8.42636 5.16607 8.42636 4.6869C8.42636 4.52023 8.35894 4.3744 8.25782 4.3744C8.17355 4.3744 8.08928 4.6244 8.08928 4.9369C8.07243 5.70773 6.50501 7.72857 6.33647 7.1869C5.98254 6.04107 7.48254 3.97857 9.01625 3.52023C10.1455 3.1869 10.2297 3.3119 9.4376 4.16607ZM10.5331 5.27023C10.0275 6.85357 9.04996 7.7494 7.5331 8.02023C6.21849 8.27023 6.70726 7.29107 8.08928 6.91607C8.814 6.72857 8.814 6.70773 8.27467 6.6869C7.78591 6.66607 7.73535 6.6244 7.92074 6.33273C8.24097 5.8744 8.76344 5.5619 9.42074 5.4369C9.74097 5.35357 10.0275 5.1869 10.078 5.04107C10.1286 4.85357 10.0275 4.83273 9.70726 4.9994C9.11737 5.27023 9.15108 5.14523 9.99378 4.1869C10.7016 3.35357 10.7016 3.35357 10.7522 3.8744C10.7859 4.16607 10.6848 4.79107 10.5331 5.27023ZM6.18479 5.08273C6.21849 5.1244 6.15108 5.41607 6.06681 5.77023L5.88142 6.39523L5.39265 5.8119C4.78591 5.04107 4.34771 5.02023 4.90389 5.7494L5.30838 6.3119L4.88703 6.16607C4.65108 6.10357 4.0949 5.9369 3.6567 5.8119C3.20164 5.6869 2.88142 5.54107 2.93198 5.47857C3.2522 5.08273 5.93198 4.77023 6.18479 5.08273ZM4.49939 6.45773C4.87018 6.45773 4.7522 6.83273 4.34771 6.9369C4.12861 6.97857 4.33085 6.9994 4.78591 6.9369C5.64546 6.85357 5.89827 7.02023 5.89827 7.7494C5.89827 8.04107 5.76344 8.1244 5.25782 8.1244C4.43198 8.1244 3.60614 7.5619 2.91512 6.52023L2.34209 5.6869L3.30276 6.0619C3.84209 6.29107 4.36456 6.45773 4.49939 6.45773ZM12.8927 6.04107C13.196 6.20773 13.196 6.22857 12.8084 6.2494C12.5724 6.2494 11.932 6.4369 11.3927 6.66607C10.8365 6.89523 10.3814 7.08273 10.3477 7.08273C10.314 7.08273 10.432 6.8119 10.5837 6.45773C10.8365 5.89523 10.9544 5.83273 11.7129 5.85357C12.1848 5.85357 12.7073 5.9369 12.8927 6.04107ZM12.6061 7.0619C12.3702 7.45773 12.1174 7.64523 11.9657 7.5619C11.8309 7.4994 11.5275 7.39523 11.2915 7.33273C10.9207 7.22857 10.9713 7.1869 11.7129 6.85357C12.9264 6.33273 13.0612 6.35357 12.6061 7.0619ZM11.1736 7.6869C11.9994 7.70773 11.9657 7.89523 11.005 8.6244L10.196 9.20773L9.26906 8.85357L8.34209 8.47857L9.10052 8.04107C9.52187 7.79107 10.0106 7.60357 10.196 7.6244C10.3814 7.64523 10.8196 7.66607 11.1736 7.6869ZM3.53872 8.04107C3.53872 8.10357 3.33647 8.22857 3.10052 8.35357C2.84771 8.45773 2.67917 8.60357 2.72973 8.66607C2.78029 8.70773 3.01625 8.66607 3.26906 8.54107C3.57243 8.41607 3.97692 8.41607 4.54996 8.58273C5.32524 8.8119 5.69602 9.16607 5.1567 9.16607C4.76906 9.16607 3.99378 9.58273 4.0949 9.70773C4.14546 9.79107 4.43198 9.72857 4.71849 9.60357C5.13984 9.4369 5.35894 9.45773 5.69602 9.66607C6.48816 10.1661 7.04434 10.2494 6.33647 9.77023L5.66232 9.33273L6.16793 9.0619C7.16232 8.5619 7.80276 8.52023 8.76344 8.95773C9.26906 9.1869 9.72411 9.3744 9.75782 9.3744C10.0949 9.3744 9.31962 9.85357 8.44321 10.2077C6.89265 10.8119 5.89827 10.7494 3.94321 9.89523C3.0331 9.4994 2.00501 9.16607 1.68479 9.16607C1.11175 9.16607 1.11175 9.16607 1.43198 8.7494C1.9713 8.08273 3.53872 7.5619 3.53872 8.04107Z" fill="black"/>
<path d="M1.76887 11.1242C1.4655 11.3951 1.48236 11.4159 2.19022 11.4159C2.69584 11.3951 3.23517 11.5826 3.82505 11.9576C4.70146 12.5409 5.72955 12.6451 5.84753 12.1659C5.88123 12.0409 5.7127 11.9784 5.42618 12.0409C5.12281 12.0826 4.58348 11.9159 4.01045 11.5826C2.78011 10.8534 2.19022 10.7284 1.76887 11.1242Z" fill="black"/>
<path d="M9.94302 11.2489C9.58909 11.4989 9.01605 11.6447 8.47673 11.6656C7.38122 11.6656 7.29695 12.0197 8.3756 12.1239C8.88122 12.1656 9.38684 12.0614 9.8419 11.8114C10.3475 11.5406 10.752 11.4781 11.4599 11.5614L12.3868 11.6656L11.6284 11.2697C10.6846 10.7489 10.6677 10.7489 9.94302 11.2489Z" fill="black"/>
</svg>
