<svg width="15" height="15" viewBox="0 0 15 15" fill="none" xmlns="http://www.w3.org/2000/svg">
<path d="M10.2332 2.65479C6.79651 3.93066 3.98638 7.37893 3.98638 10.2927C3.98638 10.8444 3.8155 11.2755 3.30284 11.9996C2.35347 13.3444 2.73322 13.5686 3.75854 12.2582C4.44208 11.3617 4.66993 11.2065 5.6193 10.9307C9.01803 9.96514 12.9674 5.48238 12.6826 2.89617C12.6066 2.15479 11.7902 2.08583 10.2332 2.65479ZM11.9611 2.68928C11.9611 2.741 10.8218 3.80997 9.43575 5.05135C8.04968 6.30997 6.37879 7.96514 5.73322 8.75824C4.65094 10.0858 4.556 10.1548 4.556 9.67204C4.556 9.06859 5.25854 7.241 5.50537 7.241C5.58132 7.241 5.69525 7.06859 5.77119 6.84445C5.82816 6.63755 6.13195 6.18928 6.45474 5.86169L7.04335 5.25824L6.98638 6.06859C6.94841 6.49962 6.98638 6.82721 7.08132 6.77548C7.15727 6.741 7.21423 6.41342 7.21423 6.05135C7.21423 5.65479 7.38512 5.17204 7.65094 4.82721C8.22056 4.05135 8.48638 3.99962 8.42942 4.68928C8.37246 5.17204 8.41044 5.13755 8.65727 4.46514C8.90411 3.741 9.01803 3.62031 10.0244 3.22376C11.6383 2.58583 11.9611 2.49962 11.9611 2.68928ZM11.8851 4.37893C11.6763 4.84445 11.4104 5.06859 10.8218 5.27548C9.94841 5.60307 9.92942 5.82721 10.8028 5.55135C11.5054 5.32721 11.5054 5.37893 11.0117 6.13755C10.7269 6.5341 10.3471 6.77548 9.68259 6.98238C9.15094 7.13755 8.73322 7.30997 8.73322 7.36169C8.73322 7.4479 9.3598 7.34445 10.0054 7.12031C11.0877 6.77548 9.056 8.15479 7.89778 8.55135C6.47373 9.05135 6.39778 9.32721 7.80284 8.89617C8.96107 8.5341 8.92309 8.65479 7.61297 9.4479C6.54968 10.0858 5.20157 10.6376 5.03069 10.4824C4.82183 10.31 7.78385 7.0341 9.75854 5.27548C12.075 3.20652 12.5117 3.01686 11.8851 4.37893Z" fill="black"/>
</svg>
