<svg width="15" height="15" viewBox="0 0 15 15" fill="none" xmlns="http://www.w3.org/2000/svg">
<path d="M12.0295 1.2581C11.8495 1.45507 11.6995 1.68234 11.6995 1.77325C11.6995 1.86416 11.4445 2.10658 11.1445 2.3187C9.28451 3.59143 5.57951 3.65204 3.67451 2.47022C2.90951 1.97022 2.95451 2.03082 2.92451 1.62173C2.90951 1.43991 2.78951 1.27325 2.63951 1.24294C2.36951 1.18234 2.36951 1.27325 2.62451 2.97022C2.69951 3.50052 2.45951 3.72779 2.33951 3.22779C2.20451 2.72779 1.69451 2.12173 1.37951 2.12173C1.19951 2.12173 1.19951 2.18234 1.40951 2.45507C1.93451 3.18234 2.26451 4.12173 2.30951 5.03082C2.35451 5.84901 2.27951 6.63688 1.87451 9.3187C1.84451 9.56113 1.70951 10.1823 1.58951 10.6823C1.27451 12.0005 1.21451 12.652 1.34951 12.8945C1.57451 13.2429 1.75451 12.8339 1.85951 11.7429C1.88951 11.4854 1.94951 11.1823 1.99451 11.0611C2.03951 10.9399 2.11451 10.652 2.15951 10.4248C2.26451 9.95507 3.19451 9.24294 3.70451 9.24294C4.61951 9.24294 5.38451 10.6672 4.87451 11.4551C4.73951 11.6672 4.66451 11.9248 4.69451 12.0157C4.72451 12.1217 4.90451 11.9096 5.06951 11.5611C5.33951 11.046 5.51951 10.8945 5.99951 10.7581C6.74951 10.546 7.60451 10.8945 7.73951 11.4551C7.87451 12.0005 8.05451 11.8945 8.03951 11.2732C7.99451 9.83385 10.6795 9.63688 11.0995 11.046C11.3545 11.8793 11.5795 12.2732 11.7445 12.1672C11.8345 12.1217 11.8495 12.152 11.8045 12.2429C11.6545 12.4702 11.8495 12.8793 12.0895 12.8793C12.3895 12.8793 12.3595 12.6672 11.8495 11.6823C11.3845 10.7278 11.3095 10.4854 11.1145 8.86416C10.8895 7.16719 11.0695 5.27325 11.4895 4.59143C11.6095 4.40961 11.6995 4.18234 11.6995 4.09143C11.6995 4.00052 11.8345 3.77325 12.0145 3.59143C12.5845 2.98537 12.9145 2.45507 12.7645 2.36416C12.6895 2.30355 12.3895 2.56113 12.0895 2.90961C11.4295 3.68234 11.4295 3.66719 12.0145 2.21264C12.5245 0.939914 12.5245 0.727793 12.0295 1.2581ZM3.91451 2.90961C4.90451 3.37931 4.90451 4.06113 3.88451 5.21264C2.93951 6.30355 2.81951 6.2581 2.93951 4.8187C2.99951 4.12173 3.05951 3.33385 3.05951 3.06113C3.05951 2.48537 3.01451 2.48537 3.91451 2.90961ZM11.1145 3.13688C11.0395 3.37931 10.9795 3.62173 10.9645 3.71264C10.9495 3.7884 10.9195 3.97022 10.8895 4.09143C10.8445 4.21264 10.7845 4.63688 10.7245 5.03082C10.6195 5.89446 10.4395 5.95507 10.0945 5.24294C9.80951 4.62173 9.89951 4.19749 10.4995 3.36416C11.0245 2.63688 11.2795 2.53082 11.1145 3.13688ZM9.53951 4.16719C8.77451 5.04597 8.63951 5.13688 8.48951 4.77325C8.29451 4.24294 8.75951 3.59143 9.44951 3.40961C10.3495 3.18234 10.3495 3.19749 9.53951 4.16719ZM7.10951 3.66719C7.81451 3.66719 8.39951 3.69749 8.39951 3.74294C8.39951 4.21264 8.03951 4.39446 7.13951 4.39446C5.75951 4.39446 5.30951 4.27325 5.11451 3.83385C4.94951 3.47022 4.96451 3.47022 5.38451 3.56113C5.62451 3.60658 6.40451 3.65204 7.10951 3.66719ZM5.27951 5.01567C5.26451 5.62173 4.72451 6.21264 4.19951 6.21264C3.58451 6.21264 3.56951 6.06113 4.12451 5.43991C4.40951 5.12173 4.67951 4.68234 4.73951 4.45507C4.87451 3.90961 5.29451 4.33385 5.27951 5.01567ZM7.75451 5.04597C7.43951 5.51567 6.49451 5.57628 5.95451 5.15204C5.38451 4.69749 5.51951 4.62173 6.82451 4.66719C7.96451 4.72779 7.96451 4.72779 7.75451 5.04597ZM9.74951 4.98537C9.74951 5.13688 9.88451 5.43991 10.0495 5.65204L10.3495 6.03082L10.0195 6.10658C9.29951 6.30355 8.78951 5.56113 9.22451 4.90961C9.47951 4.50052 9.74951 4.54597 9.74951 4.98537ZM8.27951 5.63688L7.94951 5.97022V5.65204C7.94951 5.01567 8.11451 4.7884 8.38451 5.06113C8.59451 5.2884 8.57951 5.33385 8.27951 5.63688ZM5.72951 6.13688C5.62451 6.36416 5.42951 6.51567 5.24951 6.51567C4.85951 6.51567 4.87451 6.349 5.29451 5.71264C5.59451 5.22779 5.63951 5.21264 5.75951 5.47022C5.84951 5.65204 5.83451 5.89446 5.72951 6.13688ZM7.34951 5.72779C7.34951 5.80355 7.25951 5.98537 7.13951 6.13688C6.92951 6.42476 6.91451 6.42476 6.61451 6.15204C6.16451 5.74294 6.22451 5.60658 6.82451 5.60658C7.10951 5.60658 7.34951 5.66719 7.34951 5.72779ZM9.05951 5.97022C9.31451 6.37931 9.22451 6.50052 8.65451 6.60658C8.47451 6.63688 8.12951 6.69749 7.87451 6.7581L7.42451 6.849L7.76951 6.59143C7.94951 6.45507 8.17451 6.39446 8.27951 6.45507C8.39951 6.53082 8.41451 6.48537 8.35451 6.2884C8.24951 6.03082 8.45951 5.60658 8.69951 5.60658C8.75951 5.60658 8.92451 5.77325 9.05951 5.97022ZM6.38951 6.3187C6.64451 6.66719 6.64451 6.8187 6.41951 6.8187C6.07451 6.8187 5.80451 6.54597 5.89451 6.30355C6.01451 5.98537 6.14951 6.00052 6.38951 6.3187ZM3.41951 6.33385C4.16951 6.8187 3.83951 8.68234 2.89451 9.24294C2.24951 9.62173 2.24951 9.62173 2.39951 9.12173C2.45951 8.87931 2.56451 8.24294 2.62451 7.71264C2.77451 6.18234 2.89451 6.00052 3.41951 6.33385ZM10.5595 7.22779C10.5445 7.80355 10.5745 8.57628 10.6495 8.97022C10.7695 9.849 10.7395 9.849 9.92951 9.10658C8.86451 8.12173 9.19451 6.43991 10.4995 6.22779C10.5445 6.21264 10.5595 6.66719 10.5595 7.22779ZM4.76951 7.16719C4.82951 7.77325 4.61951 8.2581 4.22951 8.47022C4.00451 8.59143 3.97451 8.50052 4.00451 7.53082C4.01951 6.92476 4.03451 6.42476 4.03451 6.40961C4.04951 6.39446 4.19951 6.42476 4.39451 6.50052C4.63451 6.59143 4.73951 6.77325 4.76951 7.16719ZM5.66951 7.21264C5.63951 7.43991 5.47451 7.71264 5.29451 7.83385C4.96451 8.04597 4.96451 8.04597 4.99451 7.43991C5.00951 6.89446 5.05451 6.8187 5.36951 6.8187C5.65451 6.8187 5.71451 6.87931 5.66951 7.21264ZM9.20951 7.15204C9.14951 7.349 9.10451 7.72779 9.10451 7.98537C9.13451 8.56113 9.10451 8.57628 8.69951 8.22779C8.17451 7.77325 8.33951 6.8187 8.95451 6.8187C9.26951 6.8187 9.29951 6.86416 9.20951 7.15204ZM8.24951 7.349C8.24951 7.77325 8.20451 7.7884 7.78451 7.57628C7.31951 7.3187 7.45451 7.09143 8.14451 6.98537C8.20451 6.98537 8.24951 7.13688 8.24951 7.349ZM6.13451 8.16719C6.28451 8.2581 6.29951 8.40961 6.20951 8.69749L6.07451 9.10658L5.62451 8.71264C5.24951 8.39446 5.20451 8.30355 5.39951 8.18234C5.68451 8.00052 5.86451 8.00052 6.13451 8.16719ZM8.56451 8.48537C8.92451 8.77325 8.92451 8.77325 8.59451 8.7884C8.27951 8.7884 7.72451 9.21264 7.85951 9.34901C7.90451 9.39446 8.08451 9.3187 8.27951 9.18234C8.78951 8.8187 9.23951 8.87931 9.77951 9.40961L10.2745 9.87931L9.71951 9.7884C9.31451 9.74294 8.96951 9.8187 8.48951 10.0611L7.82951 10.3945L7.72451 9.50052C7.58951 8.2581 7.88951 7.90961 8.56451 8.48537ZM7.22951 8.69749C7.51451 9.13688 7.36451 9.39446 6.86951 9.2884C6.23951 9.16719 6.23951 9.16719 6.43451 8.83385C6.59951 8.51567 7.06451 8.43991 7.22951 8.69749ZM5.42951 8.89446C5.72951 9.16719 5.77451 9.57628 5.53451 10.0308C5.38451 10.3187 5.35451 10.2884 4.93451 9.72779C4.69451 9.39446 4.37951 9.07628 4.22951 9.01567C3.98951 8.90961 4.00451 8.89446 4.27451 8.7884C4.75451 8.57628 5.12951 8.62173 5.42951 8.89446ZM7.24451 9.72779C7.37951 9.83385 7.52951 10.1217 7.58951 10.3793C7.69451 10.7884 7.67951 10.8187 7.43951 10.6217C7.28951 10.5005 6.86951 10.4096 6.44951 10.4096L5.71451 10.4248L5.93951 9.98537C6.17951 9.50052 6.77951 9.37931 7.24451 9.72779Z" fill="black"/>
</svg>
