<svg width="15" height="15" viewBox="0 0 15 15" fill="none" xmlns="http://www.w3.org/2000/svg">
<path d="M9.62206 1.77594C7.63721 2.49533 6.94024 5.05145 8.30388 6.61268C8.57661 6.94941 8.4857 6.94941 7.81903 6.6739C7.13721 6.38308 6.97055 6.06166 7.16752 5.4188C7.57661 4.08717 6.07661 3.429 5.33418 4.60757L5.0463 5.08206L4.87964 4.60757C4.78873 4.34737 4.60691 4.08717 4.47055 4.04125C4.13721 3.90349 3.63721 4.40859 3.63721 4.89839C3.63721 5.14329 3.47055 5.44941 3.24327 5.679C2.59176 6.29125 2.10691 7.27084 2.016 8.1739C1.89479 9.36778 2.39479 9.68921 4.16752 9.59737L5.37964 9.52084L4.77358 9.81166C4.016 10.179 2.62206 10.1178 2.33418 9.71982C2.07661 9.38308 1.33418 9.52084 1.47055 9.88819C1.516 10.0106 1.65236 10.0872 1.75842 10.0412C2.06145 9.9188 2.016 10.0719 1.59176 10.5923C0.970546 11.327 1.07661 11.9392 1.95539 12.8729C2.66752 13.6382 3.81903 14.1127 4.25842 13.8372C4.44024 13.73 4.89479 12.1076 4.80388 11.878C4.72812 11.6637 6.31903 11.1127 6.42509 11.3117C6.68267 11.7708 6.65236 12.2453 6.37964 12.2453C5.9857 12.2453 5.22812 12.9035 5.36448 13.1331C5.42509 13.2402 5.57661 13.3168 5.68267 13.3168C5.80388 13.3168 5.97055 13.4698 6.07661 13.6382C6.37964 14.2045 9.86449 13.8372 10.3342 13.1943C10.4402 13.0412 10.8493 12.7963 11.2433 12.6433C13.2887 11.878 13.9251 9.88819 12.8039 7.71472C12.1978 6.55145 12.213 6.58206 12.4705 6.58206C12.8039 6.58206 13.516 5.84737 13.6978 5.28104C14.4857 3.00043 12.0463 0.903492 9.62206 1.77594ZM12.4402 2.52594C13.713 3.429 13.7887 5.11268 12.5918 5.9239C11.8948 6.39839 11.7433 6.36778 11.4402 5.72492C11.0008 4.77594 11.6524 3.85757 12.3493 4.43921C12.4857 4.54635 12.6372 4.59227 12.6978 4.53104C12.8342 4.37798 12.1675 3.82696 11.8342 3.82696C10.8796 3.84227 10.5008 5.4341 11.2584 6.26063C11.9402 6.99533 12.713 8.28104 12.819 8.83206C13.1069 10.3627 12.4857 11.8474 11.4099 12.1535C11.0918 12.2606 11.0918 12.2453 11.2887 11.5719C11.7433 10.0412 11.1978 8.74023 9.34933 7.04125C8.24327 6.00043 7.95539 5.40349 8.07661 4.33206C8.28873 2.37288 10.7584 1.36268 12.4402 2.52594ZM6.72812 4.88308C6.84933 5.28104 6.80388 5.44941 6.5463 5.81676C6.15236 6.33717 6.12206 6.61268 6.45539 6.47492C6.57661 6.429 6.83418 6.52084 7.016 6.68921C7.19782 6.85757 7.66752 7.08717 8.07661 7.19431C9.80388 7.6688 10.9099 9.00043 10.9099 10.6382C10.8948 12.6127 9.57661 13.6076 7.19782 13.4392C6.45539 13.3933 6.45539 13.378 6.86449 13.1943C7.09176 13.1025 7.45539 12.98 7.66752 12.9494C8.27358 12.8423 8.27358 12.7504 7.68267 12.4902C6.0463 11.8015 6.95539 9.09227 8.66752 9.53614C8.94024 9.61268 8.95539 9.59737 8.77358 9.4137C8.15236 8.81676 6.81903 9.33717 6.59176 10.2861C6.42509 10.9443 4.30388 11.5872 3.84933 11.128C3.69782 10.9902 4.09176 10.4086 4.33418 10.4086C4.87964 10.4086 5.42509 9.9341 5.87964 9.04635C6.15236 8.52594 6.30388 8.11268 6.21297 8.11268C6.13721 8.11268 6.00085 8.25043 5.90994 8.40349C5.72812 8.75553 5.016 9.13819 4.28873 9.27594C3.89479 9.35247 3.77358 9.33717 3.84933 9.19941C3.92509 9.07696 3.84933 9.07696 3.57661 9.1841C3.0463 9.38308 2.68267 9.21472 2.78873 8.84737C2.83418 8.63308 2.77358 8.51063 2.56145 8.46472C2.22812 8.37288 2.21297 8.32696 2.45539 7.63819C2.68267 6.94941 3.40994 6.01574 3.95539 5.74023C4.50085 5.44941 5.00085 5.44941 5.00085 5.74023C5.00085 6.19941 5.27358 5.95451 5.516 5.28104C5.92509 4.19431 6.4857 4.01063 6.72812 4.88308ZM4.47055 5.05145C4.33418 5.28104 3.94024 5.23512 3.94024 5.00553C3.94024 4.63819 4.28873 4.40859 4.44024 4.6688C4.50085 4.79125 4.516 4.97492 4.47055 5.05145ZM3.44024 10.929C3.18267 11.4647 2.28873 11.7555 2.016 11.3882C1.90994 11.2351 1.81903 11.1892 1.81903 11.281C1.81903 11.3882 1.87964 11.4953 1.97055 11.5566C2.0463 11.6025 2.07661 11.7402 2.016 11.878C1.95539 12.0463 1.87964 12.0617 1.72812 11.9239C1.25842 11.5259 1.71297 10.8219 2.65236 10.5004C3.39479 10.2402 3.68267 10.3933 3.44024 10.929ZM4.36449 12.1994C4.47055 13.3321 3.59176 13.8066 2.74327 13.0719C2.37964 12.7657 2.09176 12.1076 2.31903 12.0923C2.33418 12.0923 2.62206 11.9851 2.95539 11.8627C3.89479 11.5106 4.30388 11.6178 4.36449 12.1994ZM6.87964 12.7045C6.80388 12.781 6.50085 12.8882 6.21297 12.9494C5.71297 13.0259 5.69782 13.0259 5.97055 12.7963C6.30388 12.5361 7.13721 12.4443 6.87964 12.7045Z" fill="black"/>
<path d="M4.0918 7.50102C4.0918 7.85306 4.47058 7.91429 4.5918 7.59286C4.69786 7.34796 4.57665 7.1949 4.28877 7.1949C4.18271 7.1949 4.0918 7.33265 4.0918 7.50102Z" fill="black"/>
</svg>
