<svg width="15" height="15" viewBox="0 0 15 15" fill="none" xmlns="http://www.w3.org/2000/svg">
<path d="M9.39161 2.83995C9.21304 3.03637 9.10589 3.28637 9.14161 3.41137C9.21304 3.64352 9.99875 2.92923 9.99875 2.64352C9.99875 2.39352 9.71304 2.4828 9.39161 2.83995Z" fill="black"/>
<path d="M5.16129 3.00006C5.41129 3.46434 5.83986 3.80363 5.96486 3.6072C6.10772 3.37506 5.57201 2.67863 5.25058 2.67863C5.05415 2.67863 5.03629 2.75006 5.16129 3.00006Z" fill="black"/>
<path d="M6.42829 4.32164C5.76758 4.78592 5.12472 5.87521 5.26758 6.28592C5.33901 6.44664 5.66044 6.71449 5.99972 6.89307L6.60686 7.23235V8.78592C6.60686 9.66092 6.53544 10.3574 6.44615 10.3574C6.35686 10.3574 6.16044 10.4109 6.01758 10.4645C5.55329 10.6431 5.26758 9.46449 5.71401 9.16092C6.23186 8.78592 6.17829 8.00021 5.55329 7.33949C5.07115 6.82164 4.76758 6.69664 4.10686 6.76807C2.33901 6.96449 1.83901 9.82164 3.58901 9.82164C4.05329 9.82164 4.10686 9.87521 4.10686 10.4288C4.10686 10.9109 4.03544 11.0359 3.80329 10.9824C3.37472 10.9288 2.48186 11.4466 2.62472 11.6788C2.69615 11.7681 2.60686 11.8038 2.44615 11.7324C2.26758 11.6788 2.14258 11.6966 2.14258 11.8038C2.14258 12.1074 3.10686 11.8931 3.42829 11.5181C3.60686 11.3216 3.73186 11.2324 3.74972 11.3038C3.74972 11.3752 3.55329 11.6609 3.32115 11.9109C3.07115 12.1788 2.91044 12.4466 2.96401 12.5359C3.12472 12.7859 5.32115 12.6252 5.23186 12.3752C5.07115 11.9466 5.33901 12.1431 5.60686 12.6252C5.74972 12.9109 5.87472 13.0359 5.89258 12.9288C5.89258 12.8395 6.07115 12.7502 6.30329 12.7324C7.37472 12.7145 7.44615 12.6966 7.08901 12.4288C6.80329 12.2145 6.80329 12.1788 7.05329 12.0716C7.21401 12.0181 7.30329 12.0359 7.24972 12.1252C7.05329 12.4288 8.03544 12.9109 8.32115 12.6609C8.46401 12.5538 8.62472 12.5002 8.69615 12.5716C8.74972 12.6252 9.01758 12.5538 9.26758 12.3752C9.64258 12.1431 9.69615 12.1431 9.49972 12.3574C9.30329 12.5895 9.41044 12.6252 10.3569 12.6431C11.1783 12.6609 11.4283 12.6074 11.4283 12.3931C11.4283 12.2145 11.5533 12.1609 11.839 12.2324C12.4283 12.3574 12.9819 11.8931 12.6783 11.5181C12.339 11.1074 11.3747 10.7324 11.1426 10.9109C10.9283 11.0895 10.8569 10.6966 10.9997 10.0538C11.0533 9.75021 11.214 9.66092 11.7497 9.60735C12.3926 9.55378 12.4104 9.53592 12.464 8.80378C12.5712 7.30378 11.2319 6.50021 9.83901 7.21449C8.92829 7.69664 8.58901 8.80378 9.28544 9.01807C10.0176 9.25021 9.57115 10.3574 8.74972 10.3574H8.21401L8.17829 9.10735C8.16044 8.41092 8.14258 7.71449 8.14258 7.55378C8.12472 7.33949 8.32115 7.21449 8.69615 7.12521C9.91044 6.87521 10.1069 6.30378 9.37472 5.07164C8.64258 3.83949 7.55329 3.55378 6.42829 4.32164ZM8.71401 4.89307C9.69615 6.01807 9.69615 6.64307 8.71401 6.23235C8.37472 6.08949 7.60686 6.00021 6.92829 6.01807C6.24972 6.03592 5.71401 6.00021 5.71401 5.96449C5.71401 5.58949 6.37472 4.75021 6.83901 4.55378C7.73186 4.16092 8.12472 4.23235 8.71401 4.89307ZM7.69615 7.44664C7.78544 10.6074 7.80329 10.4466 7.33901 10.5002L6.91044 10.5716L7.01758 8.80378C7.08901 7.83949 7.14258 6.91092 7.14258 6.73235C7.14258 6.57164 7.26758 6.42878 7.41044 6.42878C7.60686 6.42878 7.67829 6.67878 7.69615 7.44664ZM5.26758 7.71449L5.73186 8.26807L4.42829 8.67878C2.82115 9.19664 2.85686 9.19664 2.85686 8.69664C2.85686 7.25021 4.35686 6.62521 5.26758 7.71449ZM11.7854 7.89307C12.5354 9.12521 11.8569 9.48235 10.0354 8.85735C9.21401 8.57164 9.16044 8.37521 9.74972 7.80378C10.464 7.08949 11.3211 7.14307 11.7854 7.89307ZM5.10686 9.92878C5.39258 10.5895 5.44615 11.4288 5.19615 11.4288C4.87472 11.4288 4.62472 10.8931 4.51758 9.98235C4.39258 8.91092 4.67829 8.89307 5.10686 9.92878ZM10.5711 9.39307C10.7854 9.58949 10.2497 11.1609 9.94615 11.2145C9.55329 11.2859 9.55329 10.7502 9.94615 9.91092C10.2319 9.30378 10.3747 9.17878 10.5711 9.39307Z" fill="black"/>
<path d="M10.9456 4.69754C10.4992 4.89397 10.392 5.17969 10.767 5.17969C11.1063 5.17969 11.4813 4.89397 11.4099 4.67969C11.3563 4.57254 11.1956 4.57254 10.9456 4.69754Z" fill="black"/>
<path d="M3.64275 5.08956C3.83917 5.23242 4.1606 5.35742 4.35703 5.35742C4.73203 5.33956 4.73203 5.33956 4.39275 5.08956C4.19632 4.94671 3.87489 4.82171 3.67846 4.82171C3.30346 4.83956 3.30346 4.83956 3.64275 5.08956Z" fill="black"/>
</svg>
