<svg width="15" height="15" viewBox="0 0 15 15" fill="none" xmlns="http://www.w3.org/2000/svg">
<path d="M6.00094 2.01041C2.02951 2.92541 1.18666 8.08542 4.4438 11.5354C5.81523 12.9904 6.90094 13.4404 8.95809 13.3954C10.7867 13.3504 12.2581 12.4204 12.7438 10.9654C12.9581 10.3504 12.9867 7.72542 12.8009 7.27542C12.7295 7.11042 12.6438 6.84042 12.6152 6.69042C12.5867 6.54042 12.3009 5.92542 11.9867 5.32542C10.4581 2.52041 8.50094 1.44041 6.00094 2.01041ZM8.82951 2.71541C10.3152 3.37541 11.5438 4.99542 12.2295 7.14042C12.6724 8.56542 12.6581 10.0954 12.1867 11.0404C11.8867 11.6554 10.8295 12.5554 10.2581 12.6904C8.80094 13.0654 7.35809 12.9454 6.25809 12.3604C5.60094 12.0154 3.78666 10.3504 4.05809 10.3504C4.12951 10.3504 4.08666 10.2304 3.95809 10.0804C2.91523 8.86542 2.58666 6.18042 3.32951 4.71041C3.9438 3.46541 5.17237 2.56541 6.42951 2.43041C6.78666 2.40041 7.10094 2.34041 7.11523 2.32541C7.22951 2.22041 8.25809 2.46041 8.82951 2.71541Z" fill="black"/>
<path d="M6.54412 3.46445C4.82983 3.73445 4.11555 5.32445 4.92983 7.09445C5.70126 8.80445 7.72983 9.34445 8.81555 8.11445C9.70126 7.12445 8.5584 4.79945 7.17269 4.79945C6.48698 4.79945 5.78698 5.53445 5.92983 6.11945C6.1584 7.10945 6.84412 7.63445 7.48698 7.31945C7.94412 7.10945 8.02983 6.85445 7.77269 6.46445C7.5584 6.14945 7.00126 6.02945 7.00126 6.29945C7.00126 6.37445 7.08698 6.44945 7.20126 6.44945C7.60126 6.44945 7.7584 6.86945 7.42983 7.04945C6.81555 7.39445 5.94412 6.34445 6.31555 5.69945C6.9584 4.61945 8.78698 5.63945 8.78698 7.07945C8.78698 8.75945 6.38698 8.81945 5.27269 7.16945C4.78698 6.46445 4.81555 5.30945 5.31555 4.61945C6.24412 3.34445 8.1584 3.58445 9.5584 5.17445C10.0155 5.68445 10.1441 5.77445 10.0727 5.51945C9.6584 4.15445 8.07269 3.22445 6.54412 3.46445Z" fill="black"/>
</svg>
