<svg width="15" height="15" viewBox="0 0 15 15" fill="none" xmlns="http://www.w3.org/2000/svg">
<path d="M7.67815 1.09317C7.50073 1.23335 7.58137 1.35952 7.9846 1.51373C8.2104 1.59784 8.37169 1.72401 8.35557 1.78008C8.35557 1.85018 8.40395 2.0184 8.46847 2.15859C8.54911 2.32681 8.50073 2.67728 8.33944 3.09784C7.96847 3.99504 7.9846 4.05111 8.7104 4.99036C9.08137 5.48102 9.35557 5.98569 9.35557 6.20999C9.35557 6.47634 9.42008 6.58849 9.56524 6.54644C9.69427 6.50438 9.74266 6.23803 9.7104 5.70532C9.67815 5.28475 9.74266 4.89223 9.82331 4.85018C10.033 4.73803 11.291 6.40625 11.3072 6.82681C11.3233 7.00905 11.3394 7.23335 11.3556 7.31747C11.404 7.5698 10.8556 8.97167 10.6298 9.19597C10.3556 9.49036 10.6943 9.43429 11.3556 9.09784C11.8556 8.8455 11.9362 8.83148 11.9362 9.02775C11.9362 9.60251 10.0491 10.7941 9.14589 10.7941C8.83944 10.7941 8.83944 10.7801 9.08137 10.5418C9.74266 9.91092 10.0007 8.32681 9.50073 8.04644C9.40395 8.00438 9.08137 8.20064 8.79105 8.50905C8.17815 9.09784 8.22653 9.16793 8.17815 7.61186C8.14589 6.64457 8.00073 6.40625 7.67815 6.81279C7.54911 6.95298 7.16202 7.3455 6.80718 7.66793C5.83944 8.53709 5.77492 9.65859 6.64589 10.4717C7.08137 10.8782 6.95234 10.8782 6.00073 10.4577C3.88782 9.53242 3.40395 8.13055 4.66202 6.61653C4.83944 6.40625 5.03298 6.01373 5.11363 5.74737L5.27492 5.25672L5.53298 5.70532C5.67815 5.95765 5.80718 6.30812 5.80718 6.50438C5.80718 7.20532 6.24266 7.09317 6.75879 6.23803C7.11363 5.63522 7.0975 5.36887 6.69427 4.42961C6.38782 3.7427 6.50073 3.39223 7.22653 2.66326C7.56524 2.32681 7.67815 2.13055 7.56524 2.03242C7.32331 1.83616 6.16202 3.02775 6.03298 3.60251C5.96847 3.88289 6.04911 4.31747 6.25879 4.7941C6.50073 5.35485 6.53298 5.6212 6.42008 5.88756L6.25879 6.23803L6.11363 5.83148C5.9846 5.42494 5.06524 4.48569 4.79105 4.48569C4.7104 4.48569 4.69428 4.72401 4.74266 5.00438C4.83944 5.45298 4.75879 5.64924 4.27492 6.2941C3.2104 7.73803 3.14589 8.55111 4.01686 9.61653L4.50073 10.2053L3.53298 10.3595C2.08137 10.6119 1.62976 11.1726 2.12976 12.1259C2.33944 12.5324 2.95234 12.6025 3.4846 12.2801C3.79105 12.0838 3.80718 12.0978 3.80718 12.7287C3.79105 13.3034 3.83944 13.3876 4.32331 13.6399L4.85557 13.9062L5.45234 13.5418C5.77492 13.3455 6.43621 12.939 6.92008 12.6305L7.80718 12.0838L8.90395 12.939C10.1459 13.9062 10.4201 13.9904 11.1943 13.5978C11.791 13.2894 12.0007 12.8548 11.7588 12.4623C11.5169 12.0698 11.5814 12.0137 12.0169 12.252C12.8717 12.7427 13.8717 12.3221 13.8717 11.495C13.8717 10.9904 13.2588 10.5978 12.2588 10.4577L11.6298 10.3735L12.0169 9.85485C12.4846 9.28008 12.8556 8.31279 12.6781 8.17261C12.6136 8.11653 12.3394 8.17261 12.0814 8.31279C11.5975 8.55111 11.5975 8.53709 11.6943 8.25672C12.0491 7.31747 11.7265 6.08382 10.8878 5.11653C10.6943 4.87821 10.4846 4.55578 10.4201 4.37354C10.2588 3.967 10.1136 3.98102 9.62976 4.48569L9.2104 4.90625L8.85557 4.40158C8.53298 3.93896 8.51686 3.84083 8.7104 3.44831C9.08137 2.66326 9.0975 1.93429 8.72653 1.52775C8.40395 1.16326 7.85557 0.938961 7.67815 1.09317ZM7.79105 7.90625C7.56524 9.16793 8.14589 9.79877 8.83944 9.04176C9.46847 8.35485 9.56524 8.92961 9.00073 9.91092C8.51686 10.738 8.19427 10.8782 7.53298 10.5558C6.37169 9.98102 6.22653 8.71933 7.19427 7.82214C7.77492 7.30345 7.90395 7.33148 7.79105 7.90625ZM5.37169 10.696L5.77492 10.8782L5.43621 11.0745C4.64589 11.5231 3.38782 11.8876 3.38782 11.6913C3.38782 11.453 4.03298 11.2147 4.67815 11.2147C4.93621 11.2147 5.17815 11.1586 5.22653 11.0885C5.33944 10.9343 4.08137 11.0605 3.69428 11.2287C3.51686 11.3128 3.35557 11.2707 3.22653 11.1446C2.96847 10.8642 2.96847 10.8642 4.03298 10.696C4.51686 10.6119 4.93621 10.5418 4.93621 10.5277C4.95234 10.5277 5.14589 10.5978 5.37169 10.696ZM12.2749 10.8922C12.533 10.9343 12.7427 10.9904 12.7427 11.0184C12.7427 11.1866 12.1298 11.9016 12.0491 11.8315C12.0007 11.7894 11.5007 11.6072 10.9362 11.4249L9.92008 11.1025L10.4846 10.8922C10.791 10.7661 11.2265 10.696 11.4362 10.738C11.6459 10.7801 12.0169 10.8502 12.2749 10.8922ZM3.03298 11.6773C3.00073 11.8315 2.90395 11.9857 2.79105 12.0137C2.56524 12.0838 2.33944 11.453 2.50073 11.2147C2.66202 10.9763 3.0975 11.3408 3.03298 11.6773ZM7.22653 11.2988C7.42008 11.3548 7.58137 11.439 7.58137 11.495C7.58137 11.6773 5.80718 12.7707 5.64589 12.6866C5.35557 12.5324 5.46847 12.3502 6.04911 12.0277C6.35557 11.8455 6.61363 11.6492 6.61363 11.5791C6.61363 11.5231 6.37169 11.6212 6.06524 11.8315C5.51686 12.182 5.00073 12.2941 4.77492 12.0978C4.64589 11.9857 6.24266 11.2287 6.61363 11.2287C6.74266 11.2147 7.01686 11.2567 7.22653 11.2988ZM10.0491 11.7053C10.5814 12.0137 10.791 12.21 10.5975 12.21C10.4523 12.224 10.2588 12.238 10.162 12.252C10.0814 12.2661 9.75879 12.0558 9.43621 11.8034C9.12976 11.5371 8.87169 11.3829 8.87169 11.439C8.87169 11.495 9.12976 11.7474 9.43621 12.0137C9.92008 12.4203 10.0652 12.9109 9.69427 12.8969C9.56524 12.8829 7.90395 11.5511 7.90395 11.453C7.90395 11.4109 8.14589 11.3408 8.43621 11.3128C8.7104 11.2848 9.01686 11.2427 9.08137 11.2427C9.14589 11.2287 9.58137 11.439 10.0491 11.7053ZM13.3394 11.439C13.4201 11.6352 12.9523 12.1399 12.8233 12.0277C12.6459 11.8735 12.8878 11.1866 13.0975 11.2427C13.2104 11.2848 13.3072 11.3689 13.3394 11.439ZM4.85557 12.4763C5.32331 12.7006 5.27492 13.3175 4.75879 13.3175C4.29105 13.3175 4.00073 12.939 4.2104 12.5885C4.38782 12.2941 4.43621 12.2941 4.85557 12.4763ZM11.291 12.6165C11.5007 12.7427 11.4685 12.8128 11.0814 13.1072C10.404 13.6259 9.83944 13.3034 10.4362 12.7287C10.7265 12.4483 10.9362 12.4203 11.291 12.6165Z" fill="black"/>
</svg>
