<svg width="15" height="15" viewBox="0 0 15 15" fill="none" xmlns="http://www.w3.org/2000/svg">
<path d="M10.0132 2.27887C9.77632 2.3622 9.4079 2.6122 9.21053 2.82053C8.85527 3.20942 8.82895 3.20942 6.86842 3.2372C5.09211 3.26498 4.88158 3.25109 4.75 3.01498C4.47369 2.55664 3.36842 2.32053 2.64474 2.57053C2.1579 2.7372 2.48684 2.91776 3.28948 2.91776C3.93421 2.91776 4.10527 2.97331 4.30263 3.22331C4.43421 3.40387 4.69737 3.62609 4.9079 3.7372C5.4079 4.01498 5.46053 4.30664 5.46053 7.22331C5.46053 9.75109 5.46053 9.79276 5.17106 9.83442C5.01316 9.8622 4.82895 10.0428 4.73684 10.2928C4.60527 10.5983 4.48684 10.6955 4.21053 10.6955C4.01316 10.6955 3.77632 10.7928 3.68421 10.9039C3.57895 11.0289 3.4079 11.0844 3.26316 11.0289C2.92106 10.9178 2.07895 11.0983 2.17106 11.265C2.22369 11.3344 2.59211 11.39 3.02632 11.39C3.56579 11.39 3.80263 11.4455 3.85527 11.5844C3.96053 11.8622 4.80263 12.015 5.32895 11.8483C5.67106 11.7372 5.81579 11.7511 6.07895 11.9733C6.55263 12.3205 8.18421 12.3622 8.75 12.0428C9.14474 11.8066 9.13158 11.8066 8.14474 11.89C7.06579 11.9872 6.25 11.8066 5.94737 11.4178C5.81579 11.2233 5.73684 11.2233 5.52632 11.3622C5.21053 11.5566 4.13158 11.5844 4.01316 11.39C3.86842 11.14 4.07895 10.9733 4.39474 11.1122C4.76316 11.2511 5 11.0566 5 10.6122C5 10.2372 5.21053 10.14 5.69737 10.3205C6.13158 10.4733 6.26316 10.39 6.02632 10.1261C5.89474 9.97331 5.85527 9.26498 5.85527 7.29276C5.85527 5.83442 5.81579 4.41776 5.76316 4.12609L5.67106 3.6122H7.09211C9.21053 3.6122 9.27632 3.7372 9.23685 7.59831C9.22369 9.75109 9.25 10.14 9.4079 10.14C9.51316 10.14 9.60527 10.0844 9.60527 10.015C9.60527 9.77887 10.0526 9.70942 10.2105 9.91776C10.3158 10.0844 10.4737 10.1122 10.7763 10.0566C11 10.0011 11.1842 10.015 11.1974 10.0844C11.2105 10.3344 11.3026 10.7233 11.3421 10.765C11.3816 10.8066 12.329 10.8761 12.5526 10.8483C12.8026 10.8205 12.3158 10.4178 12.0263 10.4178C11.8553 10.4178 11.7105 10.3344 11.7105 10.2372C11.7105 9.91776 11.2237 9.54276 10.9079 9.62609C10.75 9.66776 10.5395 9.62609 10.4342 9.50109C10.329 9.38998 10.1316 9.30664 9.98685 9.30664C9.85527 9.30664 9.73685 9.26498 9.73685 9.19553C9.72369 9.13998 9.69737 8.15387 9.67106 7.01498C9.61842 4.91776 9.53948 4.15387 9.32895 3.7372C9.18421 3.43164 9.60527 2.84831 10.0921 2.68164C10.3026 2.59831 10.8684 2.52887 11.3816 2.51498C12.3684 2.47331 12.5395 2.41776 12.2368 2.22331C11.9605 2.04276 10.5526 2.07053 10.0132 2.27887Z" fill="black"/>
<path d="M11.1714 3.62676C11.0529 3.80732 10.974 4.14065 10.9872 4.37676C11.0003 4.59898 10.9608 5.00176 10.895 5.25176C10.8293 5.50176 10.8293 5.79343 10.895 5.91843C10.9872 6.0851 11.0266 6.00176 11.0924 5.55732C11.1319 5.23787 11.2635 4.86287 11.395 4.7101C11.6056 4.47398 11.6056 4.44621 11.4082 4.44621C11.145 4.44621 11.1319 4.26565 11.3293 3.87676C11.5398 3.4601 11.395 3.25176 11.1714 3.62676Z" fill="black"/>
<path d="M6.38088 4.23676C6.43351 4.45898 6.52562 5.05621 6.59141 5.55621L6.69667 6.45898L6.6572 5.30621C6.63088 4.58398 6.55193 4.09787 6.44667 3.98676C6.31509 3.84787 6.30193 3.90343 6.38088 4.23676Z" fill="black"/>
<path d="M3.6044 4.51432C3.65703 4.73655 3.73598 5.09766 3.77545 5.31988C3.81493 5.55599 3.9465 5.72266 4.13071 5.77821C4.30177 5.81988 4.49914 6.01432 4.57808 6.22266L4.72282 6.59766L4.6965 6.18099C4.68335 5.90321 4.57808 5.72266 4.38071 5.62543C4.18335 5.5421 4.06493 5.31988 4.01229 4.97266C3.95966 4.69488 3.82808 4.37543 3.72282 4.27821C3.53861 4.11154 3.52545 4.13932 3.6044 4.51432Z" fill="black"/>
<path d="M7.69759 5.07023C7.94759 7.33412 8.01338 7.62579 7.96075 6.15357C7.94759 5.37579 7.85549 4.62579 7.76338 4.4869C7.64496 4.29246 7.6318 4.40357 7.69759 5.07023Z" fill="black"/>
<path d="M8.3558 4.79229C8.38211 5.09785 8.42159 5.73674 8.42159 6.22285C8.42159 6.79229 8.47422 7.07007 8.55316 7.01452C8.72422 6.9034 8.61895 5.05618 8.42159 4.57007C8.30316 4.2784 8.29001 4.32007 8.3558 4.79229Z" fill="black"/>
<path d="M12.1047 6.31993C11.9336 6.62548 11.8415 6.93104 11.8942 7.1116C11.9336 7.27826 11.8678 7.70882 11.7626 8.06993C11.4599 9.04215 11.6047 9.20882 11.9468 8.27826C12.1178 7.79215 12.1968 7.34771 12.1573 7.09771C12.1047 6.8616 12.1705 6.52826 12.2889 6.26437C12.5784 5.68104 12.4599 5.72271 12.1047 6.31993Z" fill="black"/>
<path d="M2.5 6.11283C2.5 6.18228 2.55263 6.25172 2.60526 6.25172C2.75 6.25172 3.11842 7.0295 3.21053 7.51561C3.27632 7.80728 3.38158 7.9045 3.73684 7.97394C4.15789 8.05728 4.18421 8.11283 4.35526 8.89061C4.48684 9.51561 4.55263 9.66839 4.64474 9.50172C4.77632 9.25172 4.51316 8.04339 4.28947 7.89061C4.21053 7.83506 4.01316 7.7795 3.85526 7.7795C3.63158 7.7795 3.55263 7.66839 3.48684 7.22394C3.39474 6.61283 2.97368 5.97394 2.68421 5.97394C2.57895 5.97394 2.5 6.0295 2.5 6.11283Z" fill="black"/>
<path d="M7.13203 8.50087C7.13203 9.02865 7.17151 9.44531 7.22414 9.44531C7.36887 9.44531 7.39519 8.27865 7.25045 7.90365C7.14519 7.63976 7.11887 7.76476 7.13203 8.50087Z" fill="black"/>
<path d="M6.46094 9.19613C6.46094 9.71002 6.50041 10.0017 6.5662 9.89058C6.67146 9.71002 6.63199 8.4878 6.52673 8.37669C6.50041 8.34891 6.4741 8.71002 6.46094 9.19613Z" fill="black"/>
<path d="M6.99907 10.5016C6.60433 10.7933 6.63065 11.0016 7.0517 10.8349C7.56486 10.6266 7.86749 10.6683 8.11749 10.9738C8.39381 11.3071 8.72276 11.3349 8.9596 11.0294C9.07802 10.8627 9.27539 10.821 9.63065 10.8766C10.1438 10.946 10.2491 10.8766 9.97276 10.5849C9.76223 10.3627 9.18328 10.3766 8.88065 10.6127C8.65697 10.7794 8.59118 10.7794 8.3017 10.5433C7.92012 10.2238 7.39381 10.2099 6.99907 10.5016Z" fill="black"/>
<path d="M10.8033 11.5424C10.6191 11.6119 10.3691 11.6535 10.2244 11.6396C10.0796 11.6119 9.93488 11.6813 9.8954 11.7924C9.84277 11.9452 9.97435 11.9591 10.5401 11.8896C10.9349 11.8341 11.3954 11.7785 11.5796 11.7508C12.1454 11.6813 12.1717 11.6674 11.9744 11.5285C11.7244 11.3619 11.2112 11.3619 10.8033 11.5424Z" fill="black"/>
<path d="M3.10602 12.4862C3.22444 12.6251 4.04023 12.6946 4.86918 12.639L5.3297 12.6112L4.93497 12.5001C4.35602 12.3474 2.94812 12.3335 3.10602 12.4862Z" fill="black"/>
<path d="M9.18377 12.6544C8.93377 12.8211 9.30219 12.9183 10.2232 12.9461C11.118 12.96 11.7101 12.8489 11.7101 12.6544C11.7101 12.5433 9.36798 12.5294 9.18377 12.6544Z" fill="black"/>
<path d="M6.31641 13.0703C6.31641 13.237 7.7243 13.237 7.82956 13.0703C7.86904 12.987 7.57956 12.9314 7.10588 12.9314C6.67167 12.9314 6.31641 13.0009 6.31641 13.0703Z" fill="black"/>
</svg>
