<svg width="15" height="15" viewBox="0 0 15 15" fill="none" xmlns="http://www.w3.org/2000/svg">
<path d="M6.39103 1.83539C4.4019 2.24315 3.01603 3.51014 2.38017 5.51985C2.23343 5.95675 2.1193 6.46646 2.1193 6.67034C2.1193 6.85966 1.97256 7.18005 1.79321 7.38393C1.41821 7.82082 1.3693 8.27228 1.69538 8.66548C1.80951 8.82568 1.95625 9.34995 2.02147 9.83053C2.46169 13.1655 3.47256 13.9082 7.49973 13.9082C11.6247 13.9082 12.5378 13.3257 13.141 10.2966C13.2715 9.67034 13.4834 9.015 13.6139 8.84024C13.9726 8.38879 13.9236 7.61694 13.5486 7.42762C13.3204 7.32568 13.1899 7.00529 13.0432 6.23345C12.8313 5.05383 12.1465 3.78684 11.3639 3.04413C10.9073 2.6218 8.99973 1.71888 8.68995 1.76257C8.60843 1.77714 8.5269 1.77714 8.47799 1.74801C8.18451 1.66063 7.0269 1.70432 6.39103 1.83539ZM9.55408 2.4616C11.3639 3.17519 12.7008 5.12665 12.7171 7.04898C12.7171 7.95189 12.5378 7.61694 12.2443 6.18976C11.3639 1.95189 5.64103 1.16548 3.60299 4.99558C3.30951 5.54898 3.08125 6.23345 3.04864 6.69947C2.98343 7.45675 2.8856 7.6315 2.54321 7.52956C2.33125 7.47131 2.70625 5.56354 3.08125 4.76257C4.17364 2.49073 7.04321 1.47131 9.55408 2.4616ZM9.37473 3.26257C10.4019 3.6849 11.1193 4.39849 11.5595 5.4616C11.7552 5.92762 11.8856 6.32082 11.853 6.36451C11.7389 6.45189 10.9236 6.1315 10.9236 5.98587C10.9236 5.72374 10.4019 5.38879 9.9943 5.38879C9.74973 5.38879 9.45625 5.24315 9.2606 5.02471C8.85299 4.55869 8.07038 4.54413 7.54864 4.98102C7.17364 5.28684 7.14103 5.28684 6.70082 5.05383C6.08125 4.73345 5.33125 4.95189 5.07038 5.51985C4.95625 5.75286 4.7443 5.91306 4.54864 5.92762C4.35299 5.94218 4.05951 6.07325 3.89647 6.20432C3.43995 6.5684 3.47256 6.11694 3.97799 5.17034C4.98886 3.23345 7.32038 2.40335 9.37473 3.26257ZM9.01603 5.28684C9.16277 5.63636 8.72256 5.98587 8.29864 5.84024C7.87473 5.70917 7.7606 5.68005 7.46712 5.68005C7.3693 5.68005 7.41821 5.54898 7.58125 5.38879C7.92364 5.05383 8.8856 4.99558 9.01603 5.28684ZM6.6193 5.50529C6.71712 5.63636 6.76603 5.97131 6.71712 6.23345C6.6356 6.81597 6.21169 6.85966 5.62473 6.32082C5.21712 5.95675 5.21712 5.92762 5.46169 5.59267C5.75517 5.1849 6.35843 5.12665 6.6193 5.50529ZM10.516 6.1315C10.6628 6.53927 10.0758 7.04898 9.58669 6.91791C8.85299 6.71403 8.75517 6.21888 9.40734 5.92762C9.92908 5.68005 10.3856 5.76743 10.516 6.1315ZM8.10299 6.20432C8.64103 6.33539 8.70625 6.6849 8.23343 7.07811C8.00517 7.26743 7.82582 7.48587 7.82582 7.57325C7.82582 7.64607 7.7606 7.71888 7.66277 7.71888C7.58125 7.71888 7.54864 7.6315 7.59756 7.515C7.64647 7.38393 7.54864 7.22374 7.35299 7.10723C6.97799 6.90335 6.91277 6.55383 7.20625 6.2917C7.41821 6.10238 7.58125 6.08781 8.10299 6.20432ZM5.16821 6.52471C5.9019 7.01985 4.89103 8.19947 4.14103 7.74801C3.6356 7.44218 3.57038 6.99073 3.97799 6.62665C4.45082 6.20432 4.67908 6.17519 5.16821 6.52471ZM11.7715 6.94704C12.3747 7.42762 12.0486 7.96646 11.0541 8.09752C10.4997 8.1849 10.4997 8.1849 10.4671 7.60238C10.4019 6.77228 11.1193 6.4082 11.7715 6.94704ZM6.97799 7.31112C7.07582 7.39849 7.17364 7.61694 7.17364 7.7917C7.17364 8.27228 6.86386 8.43247 6.11386 8.31597C5.33125 8.19947 5.18451 7.84995 5.72256 7.34024C6.09756 6.99073 6.48886 6.97616 6.97799 7.31112ZM9.58669 7.36937C10.0758 7.67519 10.0106 8.1849 9.45625 8.30141C8.42908 8.51985 7.7606 7.92277 8.47799 7.39849C8.91821 7.07811 9.11386 7.06354 9.58669 7.36937ZM13.4508 8.30141C13.3367 8.63636 12.3258 9.10238 12.0649 8.95675C11.9671 8.89849 11.9019 8.92762 11.9019 9.015C11.9019 9.08781 11.5269 9.21888 11.0867 9.30626C10.0432 9.51014 10.1084 9.51014 10.1084 9.21888C10.1084 9.015 10.0595 9.02956 9.84756 9.2917C9.50516 9.72859 6.79864 9.78684 6.6193 9.36451C6.52147 9.16063 6.47256 9.14607 6.37473 9.30626C6.16277 9.59752 4.46712 9.37908 4.05951 9.015C3.81495 8.79655 3.74973 8.78199 3.74973 8.95675C3.74973 9.23345 3.76603 9.23345 2.8856 8.89849C2.16821 8.6218 1.90734 8.41791 1.85843 8.03927C1.82582 7.83539 2.1356 7.80626 2.38017 7.98102C3.2769 8.69461 9.96169 8.94218 11.9345 8.33053C12.5378 8.14121 13.0921 7.92277 13.141 7.83539C13.3204 7.58781 13.5649 7.95189 13.4508 8.30141ZM3.53777 9.46646C4.14103 9.62665 4.22256 9.6849 4.20625 10.0635C4.18995 10.5296 4.14103 10.5296 2.98343 10.1072C2.57582 9.94704 2.44538 9.81597 2.44538 9.52471C2.44538 9.27714 2.5106 9.17519 2.65734 9.23345C2.75517 9.26257 3.16277 9.37908 3.53777 9.46646ZM12.8802 9.45189C12.8802 9.93247 12.5378 10.2966 11.9345 10.4567C11.0704 10.6898 11.0867 10.6898 11.0867 10.2092C11.0867 9.81597 11.1682 9.75772 11.8693 9.5684C12.8313 9.2917 12.8802 9.2917 12.8802 9.45189ZM6.76603 9.97616C7.0106 9.99073 7.10843 10.1364 7.17364 10.5733L7.25517 11.1412L8.1193 11.1849C8.8693 11.2286 8.96712 11.2723 8.96712 11.549C8.96712 12.1752 8.77147 12.248 7.4019 12.2043L6.11386 12.1606V11.5781C6.11386 10.7917 5.95082 10.6315 5.21712 10.6315C4.59756 10.6315 4.4019 10.4713 4.4019 9.94704C4.4019 9.75772 4.56495 9.74315 5.42908 9.8451C5.98343 9.90335 6.58669 9.9616 6.76603 9.97616ZM10.8095 9.93247C11.0215 10.4713 10.6302 10.748 9.50517 10.8645C7.80951 11.0393 7.67908 10.9956 7.56495 10.3839C7.49973 9.97616 7.49973 9.97616 8.34756 9.99073C8.82038 10.0053 9.50516 9.9616 9.86386 9.90335C10.2226 9.8451 10.5649 9.78684 10.6139 9.77228C10.6791 9.77228 10.7606 9.8451 10.8095 9.93247ZM3.83125 10.7043C4.46712 10.8936 5.1356 11.0684 5.34756 11.0684C5.65734 11.0684 5.70625 11.1412 5.70625 11.6364V12.2043L4.85843 11.9859C4.3856 11.8694 3.79864 11.7383 3.55408 11.6946C3.30951 11.6509 3.04864 11.549 2.95082 11.447C2.80408 11.2868 2.5269 10.3402 2.64103 10.3402C2.67364 10.3402 3.21169 10.5004 3.83125 10.7043ZM12.391 11.3742C12.1954 11.782 11.9019 11.9567 11.9019 11.6364C11.9019 11.549 11.7878 11.5927 11.641 11.7092C11.3802 11.9567 11.0867 12.0296 9.97799 12.1461L9.2769 12.2334L9.34212 11.7529C9.39103 11.2868 9.40734 11.2868 10.7606 11.0393C11.5269 10.8936 12.2117 10.7626 12.3095 10.7334C12.5704 10.6461 12.603 10.9082 12.391 11.3742ZM4.67908 12.7723C4.69538 13.3548 4.63017 13.3548 3.91277 12.8888C2.82038 12.1606 2.80408 11.7529 3.88017 12.0733C4.59756 12.2771 4.66277 12.3354 4.67908 12.7723ZM11.641 12.6558C11.3802 12.8888 11.0052 13.1218 10.8095 13.1655C10.4997 13.2529 10.4671 13.2237 10.5813 12.8597C10.6791 12.5538 10.8584 12.4228 11.3476 12.2917C12.1791 12.0733 12.228 12.1461 11.641 12.6558ZM6.86386 12.6121C7.3693 12.6995 7.63017 13.3548 7.22256 13.5004C6.73343 13.6752 5.47799 13.4276 5.18451 13.1072C4.53234 12.3791 4.87473 12.2771 6.86386 12.6121ZM10.2715 12.7723C10.2715 13.2966 10.0106 13.4276 8.8693 13.4422C7.7769 13.4713 7.7443 13.4567 7.7443 13.1072C7.7443 12.8014 7.84212 12.7286 8.39647 12.6558C9.74973 12.4665 10.2715 12.5101 10.2715 12.7723Z" fill="black"/>
</svg>
