<svg width="15" height="15" viewBox="0 0 15 15" fill="none" xmlns="http://www.w3.org/2000/svg">
<path d="M12.6961 1.74737C12.4706 1.81383 12.2157 1.90876 12.1079 1.96572C11.9706 2.04167 11.8922 2.03218 11.7843 1.93724C11.5686 1.71889 11.3922 1.78534 10.8628 2.27902C10.451 2.66826 10.3333 2.72522 10.2647 2.61129C10.0588 2.25053 9.52942 2.62079 9.15687 3.40876C9.01962 3.67459 8.89216 3.798 8.69609 3.83598C7.88236 3.99737 7.89216 6.37079 8.71569 7.23471C8.9706 7.49104 8.9706 7.53851 8.7255 8.06066C8.61765 8.28851 8.52942 8.53534 8.52942 8.62079C8.52942 8.9056 8.35295 8.59231 8.08824 7.83281C7.81373 7.07332 7.14707 5.71572 6.93138 5.47838C6.59805 5.12712 6.58824 4.99421 6.90197 4.79484C7.51961 4.3961 7.45099 3.40876 6.79412 3.13345C6.55883 3.02902 6.50981 2.94357 6.50001 2.67775C6.4804 1.93724 5.50001 1.66193 4.87256 2.22205C4.64707 2.42142 4.59805 2.43091 4.44118 2.31699C3.91177 1.92775 3.03922 2.36446 3.03922 3.01003C3.03922 3.19041 3.00001 3.31383 2.95099 3.28534C2.82354 3.1999 2.38236 3.74104 2.30393 4.07332C2.2353 4.38661 2.45099 4.88028 2.69609 4.97522C2.81373 5.01319 2.83334 5.10813 2.78432 5.41193C2.63726 6.28534 3.65687 6.88345 4.41177 6.36129C4.66667 6.19041 4.70589 6.18091 4.96079 6.31383C5.29412 6.48471 5.33334 6.48471 5.79412 6.36129C6.00001 6.30433 6.19609 6.17142 6.27452 6.02902C6.4706 5.66826 6.52942 5.71572 7.00981 6.67459C7.51961 7.69041 7.55883 7.92775 7.2353 7.84231C7.10785 7.81383 6.96079 7.78534 6.89216 7.78534C6.83334 7.78534 6.61765 7.63345 6.41177 7.45307C6.00981 7.08281 5.81373 7.05433 5.38236 7.26319C5.11765 7.3961 5.07844 7.3961 4.94118 7.26319C4.59805 6.94041 3.80393 7.16826 3.68628 7.63345C3.65687 7.76636 3.4804 7.93724 3.26471 8.04167C2.58824 8.38345 2.40197 9.08598 2.87256 9.57016C3.01961 9.73155 3.04903 9.8075 2.9706 9.85497C2.68628 10.0259 2.71569 10.624 3.02942 10.9183C3.32354 11.2031 3.84314 11.3075 3.9706 11.1081C4.05883 10.9657 4.37256 10.9942 4.50981 11.1556C4.91177 11.6303 5.82354 11.3455 6.00001 10.6809C6.06863 10.4436 6.16667 10.2632 6.2255 10.2822C6.38236 10.3391 6.83334 10.0923 7.00001 9.85497C7.31373 9.42775 7.10785 8.63978 6.69609 8.63978C6.63726 8.63978 6.60785 8.55433 6.63726 8.4499C6.76471 7.99421 7.56863 8.41193 7.95099 9.12395C8.05883 9.33281 8.11765 9.49421 8.09805 9.49421C8.07844 9.49421 8.11765 9.74104 8.18628 10.0448C8.37256 10.8328 8.53922 12.2948 8.52942 13.0069C8.50981 13.8803 8.50001 13.8613 8.76471 13.8613C8.95099 13.8613 9.00981 13.8043 9.04903 13.548C9.10785 13.1778 9.06863 11.8486 8.9706 11.0132C8.82354 9.798 8.9804 8.59231 9.37256 7.94674C9.46079 7.79484 9.50001 7.79484 9.90197 7.92775C10.7059 8.20307 12.3235 7.80433 12.549 7.27269C12.598 7.16826 12.7549 6.94041 12.9118 6.78851C13.6079 6.07648 13.7549 5.63028 13.3235 5.48788C13.2353 5.4594 13.2549 5.38345 13.3628 5.21256C13.5882 4.88028 13.8431 4.09231 13.7843 3.93091C13.7549 3.85497 13.6373 3.798 13.5294 3.798C13.3039 3.798 13.2941 3.73155 13.4314 3.36129C13.6079 2.91509 13.6667 1.84231 13.5196 1.74737C13.3039 1.62395 13.1177 1.62395 12.6961 1.74737ZM13.0392 2.4499C13.0392 2.76319 12.7353 3.74104 12.598 3.89294C12.3039 4.21572 12.5392 4.48155 12.9412 4.27269C13.1275 4.17775 13.1471 4.18724 13.1177 4.38661C13.0784 4.68091 12.7059 5.24104 12.4608 5.38345C12.2059 5.53534 12.2941 5.79167 12.598 5.79167C12.7255 5.79167 12.8529 5.82965 12.8824 5.86762C12.9608 6.00053 12.3824 6.60813 12.0098 6.77902C11.7843 6.88345 11.6667 6.99737 11.6863 7.1018C11.7255 7.32015 11.2941 7.50053 10.6667 7.51003C9.46079 7.53851 9.35295 6.93091 10.5392 6.798C11.1863 6.72205 11.7941 6.48471 11.7059 6.3518C11.6765 6.30433 11.5392 6.28534 11.3922 6.31383C10.7353 6.43724 10.2941 6.47522 10.2941 6.40876C10.2941 6.19041 10.8726 5.64927 11.3235 5.4499C11.8529 5.21256 12.1373 4.98471 12.0196 4.87079C11.9902 4.84231 11.8529 4.86129 11.7157 4.91826C11.2059 5.1461 11.1667 5.05117 11.5392 4.43408C11.7353 4.11129 12.0392 3.67459 12.2157 3.45623C12.5882 3.01003 12.5392 2.76319 12.1373 3.06699C12 3.18091 11.6765 3.57015 11.4314 3.93091C11.1863 4.29167 10.9804 4.548 10.9706 4.50053C10.9608 4.45307 10.9706 4.30117 10.9804 4.14927C10.9902 4.00686 10.951 3.89294 10.8922 3.89294C10.7255 3.89294 10.5882 4.32015 10.5882 4.80433C10.5882 5.24104 10.5 5.4594 10.1275 5.9056C9.87256 6.21889 9.83334 6.14294 9.80393 5.31699C9.79413 4.75686 9.75491 4.66193 9.60785 4.80433C9.46079 4.94674 9.40197 5.73471 9.50001 6.19041C9.57844 6.51319 9.56863 6.6461 9.45099 6.8075L9.31373 7.02585L9.10785 6.82648C8.83334 6.56066 8.62746 5.78218 8.65687 5.1556C8.68628 4.62395 8.78432 4.43408 8.92158 4.64294C9.02942 4.82332 9.31373 4.6999 9.31373 4.48155C9.31373 4.22522 9.78432 3.22838 9.90197 3.22838C9.95099 3.22838 10 3.26636 10 3.30433C10 3.3518 10.0686 3.46572 10.1471 3.57015C10.2843 3.74104 10.2941 3.74104 10.5392 3.47522C10.6765 3.32332 10.7843 3.16193 10.7843 3.12395C10.7843 3.08598 10.902 2.91509 11.0588 2.74421L11.3235 2.43091L11.3726 2.70623C11.4314 3.03851 11.598 3.10496 11.8333 2.87712C12.4412 2.298 13.0392 2.07965 13.0392 2.4499ZM5.84314 2.4499C6.28432 2.73471 5.80393 3.57965 5.29412 3.40876C5.09805 3.33281 5.00001 3.23788 4.9804 3.0575C4.92158 2.6018 5.4804 2.20307 5.84314 2.4499ZM4.31373 2.83914C4.4706 3.13345 4.43138 3.28534 4.17648 3.39927C3.77452 3.57015 3.29412 3.01952 3.59805 2.72522C3.7353 2.58281 4.21569 2.65876 4.31373 2.83914ZM6.68628 3.67459C7.05883 3.99737 6.76471 4.5575 6.2353 4.5575C5.63726 4.5575 5.52942 4.1018 6.04903 3.70307C6.35295 3.47522 6.45099 3.46572 6.68628 3.67459ZM3.60785 3.96889C3.64707 4.19674 3.36275 4.65243 3.18628 4.65243C2.9902 4.65243 2.7353 4.32016 2.77452 4.1018C2.84314 3.62712 3.53922 3.52269 3.60785 3.96889ZM5.03922 3.78851C5.30393 4.07332 5.20589 4.3961 4.82354 4.47205C4.2353 4.58598 3.93138 3.82648 4.50981 3.66509C4.79412 3.58914 4.87256 3.60813 5.03922 3.78851ZM4.26471 4.97522C4.66667 5.26003 4.33334 6.07648 3.80393 6.07648C3.60785 6.07648 3.13726 5.67775 3.13726 5.50686C3.13726 5.32648 3.69609 4.84231 3.89216 4.84231C4.00001 4.84231 4.15687 4.89927 4.26471 4.97522ZM5.88236 5.03218C6.13726 5.27902 6.12746 5.42142 5.83334 5.73471C5.34314 6.25686 4.56863 5.65876 5.02942 5.10813C5.27452 4.80433 5.61765 4.77585 5.88236 5.03218ZM4.64707 7.5575C4.92158 7.66193 4.84314 8.1556 4.54903 8.26952C4.40197 8.31699 4.27452 8.34547 4.26471 8.33598C4.01961 8.02269 4.02942 7.63345 4.30393 7.56699C4.39216 7.53851 4.4706 7.51952 4.4804 7.51003C4.4902 7.51003 4.55883 7.52902 4.64707 7.5575ZM6.11765 7.74737C6.4804 8.09864 6.11765 8.63978 5.64707 8.44041C5.28432 8.27902 5.21569 7.98471 5.4902 7.76636C5.75491 7.5575 5.92158 7.548 6.11765 7.74737ZM3.85295 8.67775C4.00001 9.11446 3.4804 9.5037 3.15687 9.19041C2.9706 9.01003 3.01961 8.76319 3.30393 8.54484C3.61765 8.3075 3.7353 8.33598 3.85295 8.67775ZM5.20589 8.63978C5.46079 8.78218 5.45099 9.24737 5.17648 9.49421C4.91177 9.73155 4.79412 9.73155 4.52942 9.49421C4.26471 9.24737 4.25491 9.11446 4.51961 8.79167C4.7353 8.52585 4.90197 8.48788 5.20589 8.63978ZM6.54903 9.03851C6.79412 9.27585 6.4902 9.87395 6.11765 9.87395C5.89216 9.87395 5.70589 9.59864 5.76471 9.38028C5.86275 8.99104 6.30393 8.80117 6.54903 9.03851ZM4.21569 10.1778C4.21569 10.3676 3.89216 10.7284 3.71569 10.7284C3.27452 10.7284 3.11765 10.3486 3.42158 10.0069C3.74511 9.61762 4.21569 9.72205 4.21569 10.1778ZM5.57844 10.1778C5.7353 10.605 5.41177 10.9942 5.00001 10.8708C4.53922 10.7284 4.55883 10.1208 5.01961 10.0353C5.45099 9.9594 5.50001 9.96889 5.57844 10.1778Z" fill="black"/>
</svg>
