<svg width="15" height="15" viewBox="0 0 15 15" fill="none" xmlns="http://www.w3.org/2000/svg">
<path d="M9.46243 2.31571C9.23166 2.57497 8.9844 2.77867 8.90199 2.77867C8.81957 2.77867 8.55583 2.98238 8.2921 3.22312C7.96243 3.53793 7.73166 3.63052 7.56682 3.5009C6.57781 2.79719 5.83605 3.74164 3.52836 8.61201C3.00089 9.72312 2.44045 10.8898 2.27561 11.2046C1.66572 12.4453 1.61627 12.6305 1.92946 12.8713C2.17671 13.0935 2.24265 13.075 2.34155 12.7602C2.40748 12.575 2.50638 12.4083 2.57232 12.4083C2.62177 12.4083 2.63825 12.5194 2.5888 12.6676C2.47341 12.9824 3.03385 13.1861 3.28111 12.9083C3.39649 12.7787 3.47891 12.7972 3.56133 13.0194C3.62726 13.2231 3.74265 13.2787 4.00638 13.1676C4.22067 13.075 4.4844 13.0935 4.66572 13.2231C4.89649 13.3898 4.99539 13.3713 5.11078 13.149C5.19319 13.0009 5.27561 12.9453 5.2921 13.0565C5.2921 13.149 5.35803 13.075 5.44045 12.8713C5.5888 12.5009 5.5888 12.5009 5.6877 12.8898C5.77012 13.2046 5.93495 13.2787 6.51188 13.2787C6.92396 13.2787 7.20418 13.2046 7.15473 13.1305C7.10528 13.0379 7.1877 12.9639 7.33605 12.9639C7.46792 12.9639 7.66572 12.7787 7.74814 12.5379C7.83056 12.2972 7.89649 12.2416 7.89649 12.4268C7.91298 12.575 7.83056 12.7972 7.73166 12.9083C7.59979 13.0565 7.61627 13.149 7.74814 13.2416C7.86352 13.3157 8.01188 13.2787 8.07781 13.149C8.14374 13.0194 8.24265 13.0009 8.2921 13.0935C8.34155 13.1861 9.14924 13.2787 10.0723 13.2787C10.9954 13.2972 11.6547 13.2416 11.5393 13.149C11.424 13.0565 11.4075 12.9639 11.5064 12.8898C11.5888 12.8342 11.7042 12.9083 11.7701 13.0565C11.902 13.4453 12.2646 13.4083 12.6108 12.9639C12.8251 12.6861 12.9734 12.649 13.2042 12.7787C14.1108 13.3342 13.1053 10.7972 11.9679 9.7046C10.6492 8.44534 10.3031 7.98238 9.77561 6.88978C9.47891 6.26015 9.23166 5.72312 9.23166 5.66756C9.23166 5.63052 9.97341 5.55645 10.88 5.51941C12.6767 5.46386 13.0558 5.26015 13.2701 4.22312C13.402 3.63052 12.7591 2.77867 12.1822 2.77867C12.0009 2.77867 11.6877 2.57497 11.5064 2.31571C11.2591 1.96386 11.0284 1.85275 10.5339 1.85275C10.0558 1.85275 9.75913 1.98238 9.46243 2.31571ZM10.9954 2.37127C11.1108 2.44534 11.2591 2.7046 11.3415 2.96386C11.4569 3.31571 11.6053 3.4083 12.1328 3.4083C12.6932 3.42682 12.7756 3.48238 12.8251 3.9083C12.9075 4.76015 12.3965 5.05645 10.6328 5.13052C9.13275 5.18608 9.03385 5.16756 8.65473 4.74164C8.42396 4.48238 8.24265 4.14904 8.24265 4.0009C8.24265 3.66756 8.86902 3.24164 9.28111 3.31571C9.42946 3.33423 9.56133 3.26015 9.56133 3.13052C9.56133 2.48238 10.4844 2.0009 10.9954 2.37127ZM7.83056 4.42682C8.34155 5.14904 8.7866 5.92682 9.38001 7.13052C9.67671 7.74164 10.2207 8.59349 10.5998 9.01941C11.0943 9.59349 11.1767 9.77867 10.9295 9.7046C10.7317 9.64904 10.5339 9.68608 10.4844 9.79719C10.402 9.92682 10.2372 9.92682 9.95693 9.81571C9.31407 9.53793 9.24814 9.57497 9.34704 10.2787C9.46243 11.0379 9.26462 11.112 8.5888 10.575C8.09429 10.1861 7.89649 10.2416 7.59979 10.8898C7.33605 11.4268 6.90748 11.4083 6.44594 10.8157L6.06682 10.3342L5.70418 10.7231C5.07781 11.3898 4.61627 11.149 4.61627 10.1676C4.61627 9.74164 4.40199 9.72312 3.87451 10.112C3.23166 10.575 3.33056 10.0935 4.31957 8.01941C6.26462 3.85275 6.94045 3.16756 7.83056 4.42682ZM10.3855 10.4453C10.0558 10.8157 10.2207 10.9824 10.5833 10.6305L10.9459 10.2787L10.6163 10.7787C10.4514 11.0379 10.2701 11.1861 10.2536 11.0935C10.2207 10.9824 10.0723 11.0194 9.92396 11.149C9.67671 11.3713 9.66023 11.3527 9.87451 11.0565C10.0393 10.8157 10.0393 10.7416 9.891 10.7416C9.74265 10.7416 9.72616 10.6861 9.87451 10.5009C9.97341 10.3527 10.1712 10.2416 10.3031 10.2416C10.4844 10.2416 10.5009 10.3157 10.3855 10.4453Z" fill="black"/>
<path d="M5.93555 8.2419C5.93555 9.01968 7.73225 9.22338 8.09489 8.50116C8.25972 8.13079 8.02895 7.98264 7.83115 8.33449C7.66632 8.61227 6.66082 8.55671 6.43005 8.2419C6.16632 7.89005 5.93555 7.89005 5.93555 8.2419Z" fill="black"/>
</svg>
