<svg width="15" height="15" viewBox="0 0 15 15" fill="none" xmlns="http://www.w3.org/2000/svg">
<path d="M7.51438 2.61428C6.74166 3.27483 6.68105 3.30235 5.86287 3.30235C5.04469 3.30235 4.96893 3.27483 4.33256 2.68309C3.49923 1.92621 3.24166 1.91245 2.92347 2.573C2.7265 3.01336 2.71135 3.21978 2.86287 3.8941C3.04469 4.6785 3.04469 4.69226 2.57499 5.2152C1.98408 5.90327 1.98408 5.93079 2.87802 6.55006L3.62044 7.05923L3.36287 7.47208C3.2265 7.69226 2.75681 8.24272 2.31741 8.69685C0.378019 10.7335 1.04469 12.7702 3.77196 13.2244C4.75681 13.3757 8.09014 13.2244 8.49923 12.9904C8.6962 12.8803 8.33257 12.1372 7.84772 11.7106C7.36287 11.2702 7.36287 11.2702 7.75681 9.39868C7.87802 8.77942 7.89317 8.36657 7.77196 7.91244L7.62044 7.29318L8.42347 6.72896C9.71135 5.83446 9.74166 5.69685 8.90832 4.8574C8.6659 4.62345 8.6356 4.51336 8.77196 4.29318C9.12044 3.70144 8.89317 1.92621 8.48408 1.92621C8.39317 1.92621 7.95378 2.22896 7.51438 2.61428ZM4.1659 3.16474C4.45378 3.45373 4.45378 3.45373 4.01438 3.784C3.40832 4.22437 3.37802 4.21061 3.30226 3.60511C3.1962 2.55923 3.43863 2.43538 4.1659 3.16474ZM8.48408 3.19226C8.48408 4.04547 8.34772 4.15556 7.75681 3.784L7.25681 3.48125L7.71135 3.04089C8.30226 2.4629 8.48408 2.50419 8.48408 3.19226ZM6.84772 3.88034C7.1659 3.9629 7.59014 4.16933 7.77196 4.33446C8.2265 4.71978 8.93863 5.53171 8.93863 5.65556C8.93863 5.8207 7.68105 6.75648 7.05984 7.04547C6.02953 7.52712 4.37802 7.16933 3.18105 6.19226L2.68105 5.79318L3.34772 5.00878C4.34772 3.83905 5.40832 3.48125 6.84772 3.88034ZM4.80226 7.51336C5.28711 7.66474 5.80226 7.71978 6.37802 7.66474L7.24166 7.59593L7.33256 8.0363C7.49923 8.77942 6.95378 11.1189 6.6356 11.0363C6.40832 10.995 6.36287 10.8299 6.36287 10.2381C6.36287 9.30235 6.12044 9.27483 5.98408 10.1831C5.92347 10.5546 5.81741 10.8712 5.75681 10.8712C5.43863 10.8712 5.18105 10.6923 5.24166 10.5271C5.45378 10.0455 4.33256 9.02712 3.7265 9.15098C3.31741 9.23355 3.02953 9.39868 3.02953 9.57758C3.02953 9.72896 3.10529 9.72896 3.40832 9.60511C3.90832 9.39868 4.59014 9.82529 4.6659 10.3757C4.7265 10.7886 4.65075 10.8161 3.49923 10.94C3.04469 10.9813 2.6356 11.0501 2.60529 11.0776C2.40832 11.2565 3.43863 11.3941 4.36287 11.3253C5.80226 11.2152 6.1356 11.3115 6.15075 11.8207C6.1659 12.0546 6.07499 12.2611 5.96893 12.3024C5.84772 12.3436 5.75681 12.4675 5.75681 12.5776C5.75681 13.3069 3.05984 12.8253 2.18105 11.9446C1.36287 11.1326 1.57499 10.2519 2.96893 8.6418C3.49923 8.02254 3.93863 7.47208 3.93863 7.40327C3.93863 7.25189 3.96893 7.25189 4.80226 7.51336ZM7.51438 12.1235C8.02953 12.6051 7.99923 12.6326 6.87802 12.7427L5.98408 12.8391L6.33256 12.4813C6.57499 12.2473 6.6659 12.0409 6.60529 11.862C6.45378 11.4629 6.96893 11.6143 7.51438 12.1235Z" fill="black"/>
<path d="M6.9226 5.17369C6.78624 5.29754 7.01351 5.93057 7.18018 5.87552C7.43775 5.79295 7.46806 5.27002 7.22563 5.18745C7.10442 5.14616 6.96806 5.1324 6.9226 5.17369Z" fill="black"/>
<path d="M4.72633 5.53113C4.80208 5.97149 5.15057 6.01278 5.15057 5.58617C5.15057 5.35223 5.07481 5.22837 4.90814 5.22837C4.75663 5.22837 4.69602 5.3247 4.72633 5.53113Z" fill="black"/>
<path d="M6.25764 6.44063C5.86371 6.49568 5.81825 6.60577 6.09098 6.85347C6.34855 7.08742 6.62128 7.0599 6.72734 6.78467C6.84855 6.49568 6.68189 6.37182 6.25764 6.44063Z" fill="black"/>
<path d="M10.6964 5.62795C10.4237 5.90318 10.4692 6.6463 10.7722 6.81144C10.8479 6.86648 10.9086 7.14171 10.9086 7.45822C10.9086 7.93988 10.8782 7.99492 10.6813 7.84355C10.5601 7.74722 10.454 7.49951 10.454 7.27933C10.454 6.49492 9.4237 6.30226 9.15098 7.04538C9.04492 7.37566 9.52976 7.84355 9.99946 7.84355C10.5752 7.84355 10.7419 8.76556 10.3025 9.49492C9.98431 10.0179 9.96916 10.0041 9.93885 9.08208C9.9237 8.35272 9.33279 7.89859 8.87825 8.24263C8.46916 8.55914 8.59037 9.04079 9.24189 9.6463C9.9237 10.2793 9.90855 10.2518 9.68128 10.8435C9.51461 11.2977 9.16613 11.3252 9.31764 10.8711C9.52976 10.2518 8.74189 9.53621 8.25704 9.90777C7.78734 10.2656 8.19643 11.2839 8.78734 11.2839C9.09037 11.2839 9.28734 11.6692 9.31764 12.3023C9.33279 12.8114 9.69643 12.9628 9.69643 12.4812C9.69643 12.2885 9.8631 11.9445 10.0752 11.7105C10.4389 11.3252 10.5146 11.2977 11.2267 11.3802C12.0298 11.4628 12.5752 11.2151 12.5752 10.7335C12.5752 10.0041 11.3934 9.97657 10.6661 10.6922C10.0146 11.339 9.95401 11.2564 10.3631 10.3481C10.6964 9.57749 11.2873 9.26098 11.8479 9.50868C12.4692 9.79767 13.2722 9.39859 13.151 8.84813C13.0752 8.47657 12.257 8.44905 11.8934 8.80685C11.7419 8.95822 11.454 9.08208 11.2419 9.08208C10.5449 9.08208 11.4237 8.13254 12.2722 7.98116C12.8328 7.87107 13.1358 7.22428 12.7873 6.86648C12.454 6.53621 12.1964 6.53621 11.8025 6.894C11.5904 7.08666 11.5146 7.27933 11.5752 7.49951C11.6358 7.70593 11.5904 7.84355 11.4389 7.89859C11.151 7.99492 11.2722 7.11419 11.6055 6.67382C11.8934 6.30226 11.8631 5.86189 11.5449 5.60043C11.1813 5.29767 11.0146 5.31144 10.6964 5.62795ZM11.3631 6.19217C11.3631 6.32978 11.2873 6.49492 11.2116 6.53621C11.0146 6.6463 10.8479 6.26098 10.9692 5.97199C11.0904 5.69676 11.3631 5.84813 11.3631 6.19217ZM12.4086 7.45822C12.2873 7.65089 12.1964 7.69217 12.0752 7.58208C11.9692 7.48575 11.9843 7.37566 12.1207 7.23804C12.3782 6.93529 12.6055 7.11419 12.4086 7.45822ZM9.54492 8.79309C9.65098 8.98575 9.65098 9.09584 9.52976 9.16465C9.33279 9.27474 8.90855 8.83437 9.02976 8.65547C9.16613 8.44905 9.37825 8.51786 9.54492 8.79309ZM8.90855 10.5683C8.96916 10.9124 8.71158 10.9812 8.57522 10.6509C8.43886 10.3068 8.46916 10.1555 8.68128 10.2105C8.77219 10.2518 8.87825 10.4032 8.90855 10.5683ZM12.0904 10.761C11.9995 10.9812 11.454 11.1463 11.2116 11.0087C11.1055 10.9536 11.0752 10.8298 11.1207 10.7472C11.2722 10.5408 12.1661 10.5546 12.0904 10.761Z" fill="black"/>
<path d="M10.6047 12.3852C10.4835 12.5917 10.4683 12.7293 10.5895 12.8394C10.6956 12.9357 10.7714 12.8669 10.8471 12.6054C10.9683 12.1238 10.832 11.9999 10.6047 12.3852Z" fill="black"/>
<path d="M11.6652 12.3708C11.4076 12.8249 11.4985 13.0314 11.8167 12.6736C11.9834 12.4947 12.1198 12.302 12.1198 12.2332C12.1198 12.013 11.8319 12.1093 11.6652 12.3708Z" fill="black"/>
</svg>
