<svg width="15" height="15" viewBox="0 0 15 15" fill="none" xmlns="http://www.w3.org/2000/svg">
<path d="M10.528 2.37667C9.50969 2.82221 9.13813 4.53013 9.88125 5.34696C10.473 5.97073 11.4913 5.98558 12.1244 5.37667C12.6335 4.88657 12.5647 4.60439 11.973 4.60439C11.106 4.60439 10.6106 3.62419 10.9409 2.54003C11.0372 2.2133 10.9684 2.16875 10.528 2.37667ZM10.762 4.33706C10.8858 4.54498 11.1886 4.79746 11.4225 4.90142C11.9317 5.12419 11.8216 5.30241 11.106 5.42122C10.0464 5.61429 9.44088 4.35191 10.0739 3.26776L10.3767 2.74795L10.4592 3.35686C10.5005 3.69845 10.6381 4.14399 10.762 4.33706Z" fill="black"/>
<path d="M7.7347 3.26738C7.58333 3.51985 7.61085 3.62381 7.84479 3.89114C8.00993 4.09906 8.12002 4.14361 8.12002 4.00995C8.12002 3.90599 8.23011 3.72777 8.36773 3.62381C8.58791 3.43074 8.58791 3.43074 8.36773 3.41589C8.23011 3.41589 8.12002 3.31193 8.12002 3.19312C8.12002 2.88124 7.94112 2.91094 7.7347 3.26738Z" fill="black"/>
<path d="M3.63288 3.37124C3.5916 3.54945 3.42646 3.74252 3.28884 3.78708C2.97233 3.90589 2.94481 4.09896 3.2338 4.21777C3.34389 4.26232 3.44022 4.44054 3.44022 4.60391C3.44022 4.93064 3.6604 5.0049 3.75673 4.70787C3.79802 4.57421 3.88059 4.57421 4.12829 4.72272C4.41729 4.91579 4.43105 4.91579 4.36224 4.58906C4.30719 4.36629 4.36224 4.14351 4.49985 3.98015C4.70628 3.72767 4.70628 3.71282 4.48609 3.71282C4.34848 3.71282 4.12829 3.5643 3.97692 3.37124L3.71545 3.0445L3.63288 3.37124Z" fill="black"/>
<path d="M5.55952 5.5995C5.40814 6.14901 3.42649 10.3817 2.76594 11.5698C2.38062 12.253 2.10539 12.8767 2.14668 12.951C2.24301 13.1144 12.2614 13.0104 12.7705 12.847C13.1971 12.6985 13.1558 12.5351 12.4678 11.5995C11.6008 10.3965 10.5136 8.55495 10.032 7.47079C9.77053 6.87673 9.53658 6.53514 9.38521 6.52029C9.26135 6.52029 8.99989 6.49059 8.80723 6.44603C8.61457 6.41633 8.06411 6.32722 7.56869 6.23811C6.45402 6.04504 5.91732 5.82227 5.91732 5.55495C5.91732 5.25792 5.64209 5.30247 5.55952 5.5995ZM8.9586 6.98069C9.26135 6.98069 9.38521 7.14405 9.77053 7.97574C10.3347 9.20841 11.0228 10.352 11.7935 11.4064C12.1237 11.852 12.3852 12.2678 12.3852 12.3421C12.3852 12.4163 11.9311 12.4757 11.3944 12.4906C10.8439 12.4906 10.2659 12.5203 10.1146 12.55C9.61915 12.654 9.37145 12.4757 8.75218 11.5401C7.87145 10.2035 6.19255 6.96584 6.19255 6.59455C6.19255 6.47574 6.55035 6.50544 7.40356 6.69851C8.06411 6.84703 8.76594 6.96584 8.9586 6.98069ZM5.55952 7.82722C5.46319 8.88168 4.8164 11.4658 4.4586 12.2084C4.2797 12.5945 4.19713 12.6243 3.50906 12.6243C2.64209 12.6243 2.65585 12.6391 3.06869 11.9856C3.23383 11.7183 3.86686 10.4411 4.4586 9.16386C5.05035 7.88663 5.55952 6.83217 5.6008 6.83217C5.62833 6.83217 5.61457 7.27772 5.55952 7.82722ZM6.60539 8.5698C6.94943 9.26782 7.58246 10.4411 8.02282 11.1688C8.44943 11.8965 8.80723 12.5203 8.80723 12.5648C8.80723 12.5945 8.36686 12.6243 7.84392 12.6243H6.86686L6.61915 11.9856C6.06869 10.5896 5.55952 7.27772 5.90356 7.27772C5.94484 7.27772 6.26135 7.85693 6.60539 8.5698Z" fill="black"/>
<path d="M11.9728 7.10046C11.9728 7.26382 11.8351 7.45689 11.67 7.53115C11.3673 7.69452 11.3673 7.69452 11.6287 7.81333C11.7801 7.87273 11.9865 8.0361 12.0691 8.15491C12.2205 8.36283 12.248 8.34798 12.3306 8.05095C12.3718 7.87273 12.5095 7.72422 12.6058 7.72422C12.7159 7.72422 12.7984 7.64996 12.7984 7.5757C12.7984 7.4866 12.7021 7.42719 12.5783 7.42719C12.4544 7.42719 12.3306 7.29353 12.2893 7.13016C12.1929 6.75887 11.9728 6.74402 11.9728 7.10046Z" fill="black"/>
<path d="M2.72513 7.44143C2.51871 7.67905 2.51871 7.70875 2.72513 7.91667C3.09669 8.28796 3.49577 7.90182 3.17926 7.48598C2.97284 7.21865 2.94531 7.21865 2.72513 7.44143Z" fill="black"/>
</svg>
