<svg width="15" height="15" viewBox="0 0 15 15" fill="none" xmlns="http://www.w3.org/2000/svg">
<path d="M11.0699 3.42477C10.6561 3.67948 10.0354 4.16062 9.6992 4.48609C8.96214 5.20779 8.96214 5.20779 8.85869 4.6842C8.613 3.43892 7.10007 3.32571 6.11731 4.47194C5.72938 4.93892 5.45783 5.12288 5.14748 5.16533C4.31989 5.25024 3.5311 5.4059 3.363 5.51911C2.988 5.77382 3.40179 5.90118 4.41041 5.85873C4.99231 5.83043 5.54834 5.85873 5.63886 5.91533C6.01386 6.14175 6.46645 7.00496 6.46645 7.45779C6.46645 8.71722 7.51386 10.1323 8.67765 10.4719C9.11731 10.5993 9.16903 10.6842 9.24662 11.2078C9.45352 12.5521 10.0483 13.2455 10.4492 12.6087C10.5914 12.3823 10.682 12.3682 10.9794 12.4955C11.8458 12.8493 12.0785 12.2833 11.4966 11.2785C11.2509 10.8682 10.9923 10.387 10.9018 10.1889C10.8242 9.9908 10.6302 9.52382 10.4751 9.14175C10.1777 8.4625 10.2294 8.22194 10.682 8.20779C11.0311 8.20779 11.8975 7.18892 11.8975 6.77854C11.8975 6.50967 12.0009 6.29741 12.2078 6.1559C12.6863 5.81628 12.8932 5.15118 12.6216 4.82571C12.4535 4.6276 12.4406 4.48609 12.544 4.18892C12.6087 3.97665 12.6733 3.60873 12.6733 3.38231C12.6733 2.81628 12.0914 2.83043 11.0699 3.42477ZM11.988 4.13231C11.8328 4.52854 11.613 4.72665 10.9147 5.10873C8.75524 6.25496 8.71645 6.26911 9.738 5.20779C10.488 4.41533 11.2639 3.83514 11.7682 3.67948C12.1949 3.55213 12.2078 3.56628 11.988 4.13231ZM8.05696 4.44363C8.47076 4.91062 8.56127 5.4342 8.36731 6.28326C8.13455 7.25967 8.1992 7.31628 8.92334 6.76439C9.47938 6.35401 11.3156 5.36345 11.8845 5.16533C12.544 4.93892 12.0914 5.78797 11.2509 6.35401C10.5139 6.8493 10.4363 7.00496 10.9923 6.8776C11.4578 6.77854 11.4837 6.92005 11.0958 7.31628C10.6561 7.75496 10.294 7.92477 9.67334 7.98137C9.363 8.00967 9.09145 8.03797 9.05265 8.05213C9.01386 8.06628 9.14317 8.20779 9.35007 8.39175C9.54403 8.56156 10.0225 9.42477 10.4492 10.3587C11.1604 11.9578 11.2639 12.4389 10.7078 11.6748C10.3587 11.1936 10.2423 11.2361 10.1906 11.8446C10.1518 12.3682 10.1518 12.3823 9.97076 12.0427C9.88024 11.8587 9.76386 11.3351 9.738 10.8823C9.67334 10.2172 9.62162 10.0474 9.44058 10.0474C8.30265 10.0474 7.16472 8.84458 6.99662 7.44363C6.93196 6.9059 6.77679 6.52382 6.47938 6.0993L6.05265 5.51911L6.29834 5.05213C6.6992 4.31628 7.63024 3.9908 8.05696 4.44363Z" fill="black"/>
<path d="M6.90541 5.10764C6.80196 5.30575 7.04765 5.57462 7.22869 5.46141C7.43558 5.31991 7.39679 4.95198 7.18989 4.95198C7.08644 4.95198 6.95713 5.02274 6.90541 5.10764Z" fill="black"/>
<path d="M2.45706 6.96226C2.21137 7.25943 2.21137 7.40094 2.41827 8.02358C2.45706 8.12264 2.41827 8.20755 2.34068 8.20755C2.10792 8.20755 1.6812 8.75943 1.6812 9.0566C1.6812 9.46698 2.14672 9.90566 2.58637 9.90566C2.89672 9.90566 2.9743 9.96226 2.9743 10.1887C2.9743 10.3585 3.11654 10.6274 3.27172 10.7972C3.54327 11.066 3.85361 12.0283 3.68551 12.0283C3.64672 12.0283 3.43982 11.8443 3.23292 11.6321C2.81913 11.1934 1.92689 10.7972 1.69413 10.9528C1.40965 11.1509 1.56482 11.4906 2.30189 12.283C3.5562 13.6557 4.40965 13.6557 5.49585 12.283C6.62085 10.8255 5.83206 9.94811 4.64241 11.3208L4.16396 11.8726L4.11223 11.4481C4.02172 10.8396 4.5131 9.7783 4.86223 9.76415C5.49585 9.75 5.76741 8.68868 5.25016 8.25C5.01741 8.03774 4.91396 7.82547 4.91396 7.51415C4.91396 6.93396 4.44844 6.65094 3.91827 6.91981C3.63379 7.06132 3.5562 7.06132 3.46568 6.87736C3.29758 6.55189 2.76741 6.59434 2.45706 6.96226ZM3.32344 7.64151C3.49154 8.00943 3.43982 8.20755 3.1812 8.20755C2.96137 8.20755 2.66396 7.57075 2.78034 7.35849C2.90965 7.13208 3.14241 7.25943 3.32344 7.64151ZM4.46137 7.5C4.57775 7.69811 4.29327 8.20755 4.07344 8.20755C3.85361 8.20755 3.84068 8.13679 3.95706 7.66981C4.03465 7.34434 4.31913 7.24528 4.46137 7.5ZM5.04327 8.92925C5.04327 9.25472 4.62948 9.28302 4.38379 8.9717C4.25448 8.78774 4.25448 8.73113 4.38379 8.63208C4.65534 8.46226 5.04327 8.63208 5.04327 8.92925ZM3.07775 9.04245C3.02603 9.36792 2.35361 9.42453 2.23723 9.12736C2.13379 8.81604 2.37948 8.66038 2.79327 8.74528C3.00016 8.78774 3.10361 8.88679 3.07775 9.04245ZM4.00879 9.79245C4.00879 10.2453 3.81482 10.5283 3.56913 10.4292C3.19413 10.2736 3.29758 9.48113 3.68551 9.48113C3.9312 9.48113 4.00879 9.55189 4.00879 9.79245ZM5.36654 11.7311C5.17258 12.1557 4.53896 12.7925 4.42258 12.6792C4.39672 12.6368 4.52603 12.3821 4.71999 12.1132C4.91396 11.8302 5.01741 11.6038 4.96568 11.5896C4.8493 11.5896 5.28896 11.3491 5.46999 11.3349C5.52172 11.3208 5.48292 11.5047 5.36654 11.7311ZM3.02603 12.1557C3.42689 12.6368 3.06482 12.4953 2.6381 12.0142C2.36654 11.6887 2.34068 11.6038 2.52172 11.717C2.66396 11.7877 2.89672 12 3.02603 12.1557Z" fill="black"/>
</svg>
