<svg width="15" height="15" viewBox="0 0 15 15" fill="none" xmlns="http://www.w3.org/2000/svg">
<path d="M6.40016 2.04574C4.29125 2.45483 2.74669 4.35029 2.85065 6.42302C2.91006 7.62302 3.14768 7.51393 3.34075 6.20483C3.62293 4.45938 4.32095 3.51847 5.79125 2.90483C6.97937 2.42756 7.64768 2.37302 8.64273 2.71393C10.4398 3.3412 11.5833 4.82756 11.5833 6.57302C11.5833 7.40483 11.8952 7.70483 12.0883 7.05029C12.92 4.21393 9.72689 1.40483 6.40016 2.04574Z" fill="black"/>
<path d="M7.33682 3.8732C7.218 4.15956 7.32196 4.54138 7.54474 4.60956C7.66355 4.63683 7.72295 4.51411 7.72295 4.24138C7.72295 3.79138 7.47048 3.54593 7.33682 3.8732Z" fill="black"/>
<path d="M6.38672 5.72607C6.38672 6.47607 7.61939 6.80335 8.37682 6.25789C9.04513 5.78062 8.77781 5.33062 8.10949 5.79425C7.69365 6.08062 7.17385 6.05335 6.87682 5.72607C6.7283 5.57607 6.56494 5.45335 6.50553 5.45335C6.43127 5.45335 6.38672 5.57607 6.38672 5.72607Z" fill="black"/>
<path d="M3.87634 6.64128C3.62386 7.07764 3.23772 7.60946 3.04466 7.82764C2.58426 8.31855 2.74763 8.59128 3.34169 8.34582C3.89119 8.11401 3.80208 8.30491 2.95555 9.19128C2.13871 10.0231 2.10901 10.364 2.89614 10.0913C3.56446 9.85946 3.4902 10.0095 2.52485 10.814C1.67832 11.5095 1.63376 11.5776 1.90109 11.714C2.10901 11.8095 2.4506 11.8231 2.98525 11.7276C3.9506 11.5504 3.89119 11.5504 3.83178 11.8095C3.80208 11.9595 3.43079 12.1231 2.67337 12.3004C1.42584 12.6004 1.36644 12.6276 1.58921 12.8322C1.73772 12.9686 2.22782 12.9413 3.11891 12.7231C4.18822 12.464 8.91099 12.4776 10.9011 12.7504C12.8169 13.0095 12.9506 13.0095 12.8912 12.7231C12.8615 12.5867 12.7724 12.4776 12.6981 12.464C12.1338 12.4367 10.8417 12.0686 10.8417 11.9322C10.8417 11.6595 10.9605 11.6322 11.7328 11.7276C12.7427 11.8504 13.2031 11.5776 12.6239 11.2095C12.4159 11.0867 12.0595 10.8004 11.807 10.5958L11.3615 10.214L11.8516 10.2686C12.6684 10.3504 12.6981 10.064 11.9555 9.36855C11.1981 8.64582 11.0942 8.31855 11.6585 8.42764C12.0744 8.49582 12.208 8.10037 11.807 7.96401C11.6882 7.90946 11.5843 7.80037 11.5843 7.69128C11.5843 7.59582 11.4952 7.45946 11.3912 7.40491C11.0942 7.24128 10.5447 6.46401 10.5447 6.21855C10.5447 5.83673 10.1437 5.98673 9.93574 6.4231C9.83178 6.66855 9.4902 7.1731 9.17832 7.54128C8.58426 8.27764 8.61396 8.70037 9.22287 8.34582C9.40109 8.23673 9.56446 8.18219 9.59416 8.20946C9.68327 8.29128 8.91099 9.2731 8.77733 9.2731C8.55456 9.2731 7.88624 8.46855 7.78228 8.10037C7.64862 7.63673 7.26248 7.73219 6.9506 8.30491C6.80208 8.56401 6.54961 8.90491 6.38624 9.05491L6.07436 9.34128L5.62881 8.89128C5.09416 8.34582 5.07931 8.19582 5.58426 8.29128C6.22287 8.40037 6.25258 8.0731 5.62881 7.51401C5.31693 7.22764 4.9605 6.77764 4.82683 6.50491C4.5001 5.76855 4.36644 5.78219 3.87634 6.64128ZM6.44565 9.94128C6.5199 9.95491 6.4902 10.0367 6.38624 10.1458C6.29713 10.2549 6.11891 10.3095 6.0001 10.2686C5.70307 10.1595 5.74763 9.83219 6.05951 9.88673C6.19317 9.91401 6.37139 9.94128 6.44565 9.94128ZM9.01495 10.3231C8.86644 10.6231 8.85159 10.6231 8.58426 10.4186C8.21297 10.0913 8.24267 9.99582 8.74763 9.99582C9.14862 9.99582 9.16347 10.0231 9.01495 10.3231ZM5.94069 11.7413C5.94069 11.8095 5.76248 11.9049 5.55456 11.9458C5.16842 12.0413 4.79713 11.8504 4.94565 11.6322C5.04961 11.4686 5.94069 11.5776 5.94069 11.7413ZM9.84664 11.7958C9.75753 12.0413 9.72782 12.0413 9.31198 11.8367L8.98525 11.6731L9.35654 11.5913C9.81693 11.4822 9.96545 11.5367 9.84664 11.7958Z" fill="black"/>
<path d="M3.93518 12.982C3.48964 13.2002 3.47479 13.2274 3.69756 13.3502C3.80152 13.4183 4.09855 13.4183 4.36588 13.3638C4.61835 13.3092 4.95994 13.3229 5.1233 13.3774C5.56885 13.5274 6.68271 13.5274 6.68271 13.3638C6.68271 13.2002 6.50449 13.132 5.86588 13.0229C4.72231 12.8456 4.20251 12.832 3.93518 12.982Z" fill="black"/>
<path d="M7.72335 12.9813C7.38177 13.1177 7.38177 13.1313 7.6491 13.1859C7.81246 13.2132 8.31741 13.295 8.76296 13.3904C9.98078 13.6086 10.2778 13.6359 10.5748 13.4859C10.9907 13.2813 10.7828 13.1313 9.92137 13.0359C9.49068 12.995 8.89662 12.9268 8.61444 12.8859C8.33226 12.8586 7.93127 12.8995 7.72335 12.9813Z" fill="black"/>
</svg>
