<svg width="15" height="15" viewBox="0 0 15 15" fill="none" xmlns="http://www.w3.org/2000/svg">
<path d="M10.1692 2.24922C6.70763 2.55534 4.15475 4.34616 5.38071 5.61656C5.55379 5.81554 5.88552 6.13697 6.10186 6.36656C6.47686 6.73391 6.49129 6.77983 6.27494 7.04003C5.89994 7.48391 5.17879 7.79003 3.86629 8.05024C2.64032 8.29514 2.30859 8.4635 2.30859 8.80024C2.30859 8.9533 2.45282 8.9686 2.85667 8.87677C3.14513 8.80024 3.79417 8.67779 4.29898 8.58595C5.19321 8.43289 6.62109 7.80534 7.01052 7.39207C7.44321 6.91758 7.25571 6.32065 6.49129 5.7084C5.69802 5.08085 5.65475 4.97371 6.02975 4.49922C6.77975 3.53493 9.04417 2.83085 10.9769 2.9686C12.3326 3.06044 12.6932 2.9686 12.2317 2.64718C11.9432 2.4635 10.6596 2.2186 10.1692 2.24922Z" fill="black"/>
<path d="M8.84181 3.51974C8.06296 3.68811 7.64469 3.9177 7.25527 4.4228C6.66392 5.15749 6.837 5.46362 8.29373 6.24423C9.86585 7.08607 10.2264 7.86668 9.41873 8.6626C8.94277 9.12178 9.05815 9.29015 9.6495 8.96872C10.1399 8.69321 10.313 8.20341 10.1832 7.45341C10.0678 6.82586 9.69277 6.44321 8.69758 5.90749C7.91873 5.49423 7.47162 5.00443 7.587 4.6677C7.68796 4.40749 9.01488 3.84117 9.59181 3.79525C10.1543 3.76464 10.313 3.6728 10.0822 3.50443C9.85142 3.35137 9.66392 3.35137 8.84181 3.51974Z" fill="black"/>
<path d="M12.5495 3.61181C9.86677 4.08629 8.98696 5.24956 10.6312 6.13731C13.011 7.42303 13.2995 8.12711 12.0158 9.64242C11.3956 10.3771 10.4581 10.9587 8.91484 11.5404C8.06388 11.8771 7.50138 12.3363 7.50138 12.7189C7.50138 13.0863 7.41484 13.1016 8.61196 12.474C9.17446 12.1832 9.70811 11.9383 9.78023 11.9383C10.1985 11.9383 11.9293 10.6985 12.4629 10.0251C13.9918 8.0965 13.7754 7.19344 11.511 5.8618C10.0975 5.03527 10.2273 4.83629 12.4773 4.39242C13.3283 4.23936 13.487 4.16283 13.487 3.90262C13.487 3.58119 13.2273 3.50466 12.5495 3.61181Z" fill="black"/>
<path d="M8.76923 4.53059C8.59615 4.69896 8.62499 5.32651 8.81249 5.43365C9.05769 5.60202 9.14423 5.38774 8.99999 4.88263C8.92788 4.62243 8.82692 4.46937 8.76923 4.53059Z" fill="black"/>
<path d="M3.47713 7.17902C2.79924 7.378 3.01559 7.57698 3.89539 7.56167C4.80405 7.56167 5.10693 7.42391 4.76078 7.19432C4.51559 7.02596 3.99636 7.02596 3.47713 7.17902Z" fill="black"/>
<path d="M8.02021 8.08057C7.40002 8.78465 7.02502 8.95302 5.5106 9.18261C4.11156 9.38159 2.56829 10.2234 2.71252 10.6826C2.75579 10.8204 2.98656 10.7438 3.50579 10.4224C3.98175 10.1469 4.8904 9.82547 5.94329 9.58057C7.80387 9.152 8.25098 8.92241 8.5106 8.26424C8.81348 7.49894 8.59713 7.42241 8.02021 8.08057Z" fill="black"/>
<path d="M11.2504 7.82023C11.3513 7.98859 11.3802 8.29472 11.3369 8.47839C11.2504 8.83043 10.2984 9.82533 9.95229 9.93247C9.20229 10.1468 8.50999 10.4682 8.50999 10.5906C8.50999 10.6672 8.45229 10.6978 8.38018 10.6519C8.30806 10.6059 8.17826 10.6672 8.07729 10.7896C7.57249 11.4325 10.2119 10.3763 11.0484 9.59574C11.7119 8.96819 11.9138 8.11104 11.51 7.68247C11.2359 7.39165 11.0773 7.46819 11.2504 7.82023Z" fill="black"/>
<path d="M7.35607 10.0095C7.08203 10.1167 6.43299 10.3004 5.91376 10.3922C5.01953 10.5759 3.89453 11.1728 3.89453 11.4789C3.89453 11.7697 4.16857 11.7697 4.54357 11.4483C4.75992 11.28 5.36569 11.0351 5.88492 10.9126C7.18299 10.6371 8.07722 10.2544 8.07722 10.0095C8.07722 9.74934 8.00511 9.74934 7.35607 10.0095Z" fill="black"/>
<path d="M12.5498 10.6832C12.0306 11.127 12.3046 11.3413 12.9825 11.0505C13.2998 10.9128 13.5883 10.6985 13.6171 10.5913C13.7325 10.3005 12.9248 10.3617 12.5498 10.6832Z" fill="black"/>
<path d="M6.25972 11.9545C5.8126 12.0922 5.37991 12.4902 5.50972 12.6279C5.53856 12.6739 5.92799 12.5667 6.34626 12.4137C7.52895 11.9698 7.45683 11.5871 6.25972 11.9545Z" fill="black"/>
<path d="M10.9773 11.9837C10.4437 12.2746 10.386 12.6266 10.9052 12.4582C11.136 12.397 11.6119 12.3205 11.9725 12.3205C12.8956 12.2899 12.9388 12.2592 12.636 12.0143C12.2898 11.7388 11.4533 11.7235 10.9773 11.9837Z" fill="black"/>
</svg>
