<svg width="15" height="15" viewBox="0 0 15 15" fill="none" xmlns="http://www.w3.org/2000/svg">
<path d="M6.60479 2.80863C6.19194 3.13216 5.4213 3.66157 4.8846 3.99981C3.41213 4.92628 2.99928 5.41157 2.91671 6.30863C2.88919 6.7204 2.7791 7.05863 2.69653 7.05863C2.61396 7.07334 2.36626 7.2204 2.15983 7.41157C1.8158 7.70569 1.77451 7.85275 1.69194 8.99981L1.60938 10.2645L2.14607 10.5586C2.68277 10.8528 2.76534 10.8822 3.02681 10.8822C3.10938 10.8822 3.21947 11.0292 3.28827 11.2204C3.42589 11.588 4.80204 12.1763 5.98552 12.3675C6.37084 12.4263 7.25158 12.6469 7.95341 12.8528C9.39837 13.2792 9.23323 13.3086 11.3112 12.2057C12.8525 11.3969 12.88 11.3528 12.9213 10.0292C12.9351 9.26452 12.7424 8.82334 12.3846 8.82334C12.013 8.82334 11.903 8.55863 12.1644 8.26452C12.3296 8.04393 12.3571 7.83805 12.247 7.05863C12.1782 6.52922 12.1094 6.05863 12.1094 5.99981C12.1094 5.94099 11.8754 5.79393 11.5727 5.64687C11.1461 5.44099 11.0497 5.32334 11.036 4.95569C11.0222 4.2351 10.3754 3.64687 9.6736 3.70569C9.15066 3.74981 9.08185 3.70569 8.84791 3.24981C8.6002 2.7351 7.93965 2.20569 7.56809 2.2204C7.458 2.2204 7.01763 2.4851 6.60479 2.80863ZM8.10479 3.17628C8.49011 3.70569 8.53139 3.64687 7.22405 4.54393C6.57727 4.9704 5.90295 5.4851 5.71029 5.67628C5.38002 5.99981 5.36626 5.99981 5.22864 5.7351C5.14607 5.57334 4.92589 5.35275 4.73323 5.24981C4.38919 5.05863 4.40295 5.04393 5.69653 4.14687C6.42589 3.64687 7.07268 3.2351 7.14149 3.2351C7.21029 3.2351 7.33415 3.13216 7.43048 3.01452C7.66442 2.70569 7.77451 2.7351 8.10479 3.17628ZM10.2378 4.49981C10.3617 4.61746 10.458 4.77922 10.458 4.85275C10.458 4.9704 9.57727 5.7351 9.42589 5.7351C9.37084 5.7351 8.90295 6.02922 8.38002 6.39687L7.41671 7.05863L7.11396 6.7204C6.94882 6.52922 6.65983 6.27922 6.4947 6.19099C6.12314 5.9851 5.93048 6.13216 8.18736 4.83805C9.21947 4.2351 9.89378 4.13216 10.2378 4.49981ZM4.80204 6.2351C4.96717 6.54393 4.96717 6.7204 4.8158 7.30863C4.55433 8.32334 4.48552 8.35275 3.93506 7.55863C3.3846 6.74981 3.34332 6.49981 3.64607 5.86746C3.85249 5.45569 3.88002 5.44099 4.23782 5.64687C4.44424 5.76452 4.70571 6.02922 4.80204 6.2351ZM11.1185 6.10275C11.1323 6.11746 10.5543 6.45569 9.83873 6.83805C9.12314 7.2351 8.53139 7.60275 8.53139 7.66157C8.53139 7.91157 11.091 6.77922 11.2974 6.44099C11.4075 6.24981 11.5864 6.55863 11.6415 6.99981C11.6552 7.17628 11.7103 7.45569 11.7516 7.60275C11.8341 7.89687 11.1874 8.33805 10.3204 8.60275C10.1277 8.66157 9.59103 8.86746 9.12314 9.05863C8.13231 9.4704 8.11855 9.4704 8.11855 9.19099C8.11855 8.95569 8.64149 8.63216 9.28827 8.4704C9.78369 8.33805 11.3938 7.51452 11.5039 7.33805C11.614 7.14687 11.2424 7.17628 10.7883 7.41157C9.83873 7.89687 8.40754 8.52922 8.22864 8.52922C8.07727 8.52922 7.6369 7.66157 7.74699 7.55863C7.76075 7.54393 8.39378 7.13216 9.1369 6.64687C10.4855 5.77922 10.6644 5.7204 11.1185 6.10275ZM6.24699 6.74981C6.99011 7.2351 7.78827 8.79393 7.48552 9.11746C7.33415 9.27922 5.35249 8.60275 5.21488 8.36746C5.11855 8.20569 5.21488 7.77922 5.53139 6.86746C5.69653 6.39687 5.69653 6.39687 6.24699 6.74981ZM3.27451 7.86746C3.30204 7.99981 3.27451 8.08805 3.20571 8.05863C3.15066 8.01452 2.98552 7.94099 2.84791 7.89687C2.71029 7.83805 2.62772 7.7351 2.66901 7.66157C2.80662 7.44099 3.23323 7.58805 3.27451 7.86746ZM3.06809 8.4704L3.52222 8.70569L3.39837 9.4851C3.26075 10.2645 3.26075 10.2792 2.83415 10.191C2.22864 10.0733 2.14607 9.94099 2.18736 9.16157C2.2424 8.11746 2.29745 8.07334 3.06809 8.4704ZM11.6277 8.82334C11.5864 8.89687 11.614 8.9704 11.6965 8.9704C12.013 8.9704 11.6552 9.27922 10.6231 9.85275C9.45341 10.4998 9.32956 10.5292 9.09561 10.2351C8.97176 10.0733 9.08185 9.9704 9.70112 9.69099C10.114 9.51452 10.458 9.29393 10.458 9.2351C10.458 9.16157 10.4993 9.13216 10.5681 9.16157C10.6231 9.20569 10.8846 9.11746 11.1461 8.95569C11.7103 8.63216 11.7378 8.63216 11.6277 8.82334ZM5.55892 9.2351C5.6002 9.30863 5.65525 9.89687 5.69653 10.5586L5.76534 11.7645L5.39378 11.6763C4.77451 11.5145 3.71488 10.9998 3.71488 10.8528C3.71488 10.5439 4.29286 9.54393 4.51304 9.4704C4.6369 9.42628 4.84332 9.33805 4.95341 9.26452C5.21488 9.10275 5.47635 9.08805 5.55892 9.2351ZM12.3846 9.95569C12.3846 10.8675 12.247 11.0292 10.9809 11.7057C10.2929 12.0733 9.72864 12.3528 9.70112 12.3233C9.68736 12.2939 9.63231 11.9263 9.59103 11.4998C9.50846 10.8086 9.53598 10.7351 9.78369 10.7351C9.96259 10.7351 10.0314 10.6763 9.96259 10.5586C9.90754 10.4704 9.9213 10.441 10.0176 10.4998C10.1002 10.5439 10.6094 10.3675 11.1736 10.088C12.4121 9.4704 12.3846 9.4704 12.3846 9.95569ZM6.86626 9.89687L7.30662 10.1028L6.82497 10.4851C6.20571 10.9998 6.19194 10.9851 6.19194 10.2939C6.19194 9.64687 6.23323 9.61746 6.86626 9.89687ZM8.79286 10.8233C9.02681 11.2498 9.21947 12.6469 9.04057 12.6469C9.01304 12.6469 8.72405 12.5439 8.38002 12.4263C8.04974 12.3233 7.51304 12.1469 7.19653 12.0586C6.86626 11.9704 6.60479 11.838 6.60479 11.7645C6.60479 11.3528 7.40295 10.7351 8.49011 10.3086C8.49011 10.2939 8.62772 10.5292 8.79286 10.8233Z" fill="black"/>
<path d="M7.01783 3.8083C7.01783 3.91124 6.96278 3.95536 6.90774 3.91124C6.75636 3.82301 5.7793 4.51419 5.7793 4.72007C5.7793 4.88183 6.35728 4.57301 6.88021 4.13183C7.07287 3.97007 7.16921 3.7936 7.11416 3.73477C7.05911 3.67595 7.01783 3.70536 7.01783 3.8083Z" fill="black"/>
<path d="M9.57799 4.80955C9.53671 4.86838 9.39909 4.9272 9.30276 4.9419C9.15139 4.97132 7.65139 5.91249 7.44496 6.11838C7.41744 6.14779 7.41744 6.20661 7.45872 6.25073C7.59634 6.39779 8.66973 5.72132 8.5734 5.54485C8.53212 5.45661 8.55964 5.4419 8.64221 5.50073C8.83487 5.61838 9.63304 5.20661 9.63304 4.98602C9.63304 4.89779 9.70184 4.88308 9.77065 4.9272C9.85322 4.97132 9.90827 4.9419 9.90827 4.86838C9.90827 4.6919 9.72937 4.66249 9.57799 4.80955Z" fill="black"/>
<path d="M4.8161 9.86797C4.8161 10.0003 4.77482 10.3386 4.73353 10.6033C4.66473 10.9562 4.69225 11.0591 4.78858 10.9562C4.995 10.7503 5.09133 10.0886 4.93996 9.83855C4.84363 9.66208 4.8161 9.67679 4.8161 9.86797Z" fill="black"/>
<path d="M11.146 10.6178C10.3616 11.1031 9.97623 11.4707 10.2377 11.4707C10.5129 11.4707 11.834 10.6031 11.834 10.4266C11.834 10.2354 11.6964 10.2795 11.146 10.6178Z" fill="black"/>
<path d="M8.3943 11.1036C8.29797 11.2212 8.10531 11.3241 7.96769 11.3241C7.83008 11.3241 7.6787 11.3977 7.63742 11.4712C7.4998 11.7065 8.27045 11.5153 8.51815 11.2653C8.62824 11.133 8.68329 11.0006 8.642 10.9565C8.60072 10.9124 8.49063 10.9712 8.3943 11.1036Z" fill="black"/>
</svg>
