<svg width="15" height="15" viewBox="0 0 15 15" fill="none" xmlns="http://www.w3.org/2000/svg">
<path d="M3.12753 1.51397C2.63224 1.91019 2.49073 2.91491 2.84451 3.50925L3.11338 3.97623L2.7596 4.10359C2.57564 4.17434 2.32092 4.42906 2.19356 4.65548C1.65583 5.70265 2.57564 6.35359 3.86338 5.85831C4.00488 5.81585 4.10394 5.91491 4.1747 6.18378C4.30205 6.74982 4.79734 7.2168 5.25017 7.2168C5.7313 7.2168 5.94356 6.94793 6.04262 6.22623C6.09922 5.78755 6.18413 5.66019 6.39639 5.66019C6.86338 5.66019 7.65583 5.20736 7.81149 4.86774C8.17941 4.07529 7.38696 3.28283 6.4813 3.53755C5.6747 3.77812 6.32564 2.95736 7.1747 2.67434C7.66998 2.51868 7.78319 2.30642 7.41526 2.16491C7.2879 2.12246 6.94828 2.27812 6.58036 2.53283L5.97187 2.97151L6.12753 2.47623C6.22658 2.12246 6.22658 1.88189 6.11338 1.62717C5.90111 1.16019 5.64639 1.3017 5.74545 1.81114C5.81621 2.23567 5.63224 3.04227 5.44828 3.04227C5.39168 3.04227 5.25017 2.78755 5.13696 2.47623C4.76904 1.41491 3.82092 0.96208 3.12753 1.51397ZM4.38696 2.0517C4.55677 2.23567 4.79734 2.7168 4.89639 3.11302C5.08036 3.83472 5.08036 3.84887 4.58507 4.58472C3.89168 5.64604 2.54734 6.02812 2.54734 5.16491C2.54734 4.68378 3.04262 4.33 3.69356 4.34416C3.99073 4.35831 4.24545 4.31585 4.24545 4.23095C4.24545 4.16019 4.18885 4.10359 4.13224 4.10359C3.87753 4.10359 3.11338 3.29699 3.05677 2.95736C2.98602 2.49038 3.43885 1.69793 3.79262 1.69793C3.93413 1.69793 4.203 1.85359 4.38696 2.0517ZM7.41526 4.28755C7.69828 4.75453 6.89168 5.29227 6.04262 5.19321C5.41998 5.10831 5.36338 5.13661 5.46243 5.34887C5.84451 6.24038 5.56149 7.11774 5.0096 6.72151C4.45771 6.33944 4.45771 5.84416 5.02375 4.9951C5.7596 3.89133 6.96243 3.53755 7.41526 4.28755Z" fill="black"/>
<path d="M11.1356 1.57002C10.8384 1.73983 10.329 2.71624 10.329 3.11247C10.329 3.40964 10.3148 3.40964 9.89028 3.05587C9.40915 2.64549 9.19688 2.58889 9.19688 2.88606C9.19688 2.99926 9.3667 3.18322 9.57896 3.28228C10.1167 3.55115 10.1167 3.73511 9.59311 3.89077C8.60254 4.18794 8.7016 5.20681 9.73462 5.43323C10.0601 5.51813 10.329 5.64549 10.329 5.73039C10.329 5.95681 10.7959 6.36719 11.0648 6.36719C11.3337 6.36719 11.7016 5.95681 11.7724 5.58889C11.8007 5.40492 11.9422 5.29172 12.211 5.26341C13.0176 5.16436 13.2016 4.07473 12.4658 3.67851C12.2252 3.55115 12.1969 3.46624 12.3242 3.16907C12.6922 2.17851 11.9139 1.11719 11.1356 1.57002ZM11.9139 2.32002C12.0412 2.60304 12.0129 2.77285 11.7582 3.25398C11.362 4.01813 11.3761 4.14549 11.8573 4.03228C12.3667 3.91907 12.7346 4.2587 12.4516 4.59832C11.9422 5.20681 10.7535 4.44266 10.7535 3.5087C10.7535 2.30587 11.5318 1.51341 11.9139 2.32002ZM10.8242 4.68323C11.1497 4.98039 11.3195 5.23511 11.2912 5.41907C11.2205 5.85775 10.9233 5.8719 10.7393 5.46153C10.612 5.20681 10.4563 5.0936 10.1875 5.0936C9.62141 5.0936 9.22519 4.75398 9.46575 4.47096C9.76292 4.11719 10.2724 4.20209 10.8242 4.68323Z" fill="black"/>
<path d="M8.09378 6.52301C7.90982 6.59376 7.7117 6.83433 7.6268 7.04659C7.51359 7.38622 7.41453 7.44282 7.14566 7.38622C6.32491 7.23056 5.64566 8.51829 6.28246 9.04188C6.43812 9.16924 6.45227 9.29659 6.32491 9.60792C6.04189 10.3721 6.52302 11.0655 7.28717 10.9523C7.44283 10.924 7.69755 11.023 7.85321 11.1787C8.00887 11.3202 8.36265 11.49 8.63151 11.5607C9.07019 11.674 9.14095 11.773 9.35321 12.4664C9.62208 13.3579 9.8768 13.4711 10.7117 13.0324C11.9994 12.3673 12.8626 11.0089 12.7494 9.79188C12.7211 9.48056 11.9428 9.60792 11.3768 10.0324C10.6126 10.5843 10.4004 10.8532 10.0749 11.674L9.79189 12.3815L9.63623 11.9853C9.38151 11.3485 9.33906 10.8815 9.52302 10.8249C9.62208 10.7966 9.86265 10.74 10.0749 10.6975C10.5419 10.5985 10.7259 10.0607 10.4853 9.53716C10.3579 9.25414 10.3721 9.14093 10.5419 8.97112C10.7966 8.71641 10.8249 7.9098 10.5843 7.66924C10.4853 7.57018 10.174 7.49942 9.8768 7.49942C9.45227 7.49942 9.33906 7.44282 9.33906 7.24471C9.33906 6.73527 8.63151 6.3249 8.09378 6.52301ZM8.84378 7.0749C9.24 7.51358 8.98529 8.26358 8.41925 8.32018C7.85321 8.39093 7.64095 8.58905 7.64095 9.04188C7.64095 9.53716 7.88151 9.76358 8.3768 9.76358C8.90038 9.76358 9.29661 9.18339 9.09849 8.73056C8.92868 8.34848 9.38151 7.92395 9.94755 7.92395C10.6268 7.92395 10.5843 8.47584 9.89095 8.90037L9.46642 9.15509L9.83434 9.39565C10.0891 9.56546 10.1881 9.73527 10.1598 9.94754C10.1032 10.3296 9.52302 10.457 9.39566 10.1315C9.24 9.73527 9.05604 9.89093 9.05604 10.3862C9.05604 10.9806 8.75887 11.2636 8.36265 11.0372C8.15038 10.924 8.06548 10.74 8.06548 10.3721V9.86263L7.7117 10.2447C7.34378 10.6551 7.18812 10.6834 6.77774 10.4711C6.40982 10.273 6.43812 10.1457 6.94755 9.55131L7.38623 9.05603L6.9617 8.90037C6.46642 8.73056 6.25415 8.29188 6.50887 7.99471C6.73529 7.72584 7.14566 7.72584 7.41453 7.99471C7.74 8.33433 7.89566 8.24942 7.88151 7.72584C7.85321 6.89093 8.36265 6.55131 8.84378 7.0749ZM8.73057 8.85792C8.77302 8.97112 8.70227 9.18339 8.57491 9.31075C8.34849 9.53716 8.32019 9.53716 8.13623 9.28244C7.98057 9.08433 7.96642 8.95697 8.07963 8.81546C8.29189 8.56075 8.61736 8.58905 8.73057 8.85792ZM12.3674 10.3579C12.056 11.4192 11.7023 11.9287 10.9664 12.3957L10.5419 12.6645L10.9098 12.1692C11.3485 11.5749 11.7872 10.7541 11.7023 10.6692C11.674 10.6409 11.3485 11.023 10.9664 11.5324C10.2023 12.5796 10.0608 12.6362 10.457 11.7306C10.924 10.6268 12.6645 9.39565 12.3674 10.3579Z" fill="black"/>
<path d="M2.88639 7.55558C2.84393 7.68294 2.84393 7.93765 2.88639 8.13577C2.99959 8.5603 2.82978 8.60275 2.57507 8.20652C2.40525 7.9235 1.98073 7.8103 1.98073 8.03671C1.98073 8.10747 2.13639 8.30558 2.3345 8.48954C2.77318 8.89992 2.78733 9.05558 2.3628 9.05558C1.5845 9.05558 1.25903 10.1027 1.95242 10.3575C2.22129 10.4565 2.40525 10.6688 2.49016 10.9518C2.65997 11.5178 3.38167 11.5886 3.60808 11.065C3.70714 10.8527 3.8628 10.7537 4.13167 10.7537C4.5279 10.7537 5.09393 10.3292 5.09393 10.0178C5.09393 9.93294 4.98073 9.73482 4.85337 9.57916C4.68356 9.40935 4.59865 9.06973 4.59865 8.6452C4.59865 7.85275 4.17412 7.66879 3.59393 8.22067L3.25431 8.53199V8.02256C3.25431 7.48482 3.0279 7.18765 2.88639 7.55558ZM4.38639 8.46124C4.38639 8.68765 3.93356 9.19709 3.73544 9.19709C3.48073 9.19709 3.48073 9.05558 3.76374 8.65935C3.96186 8.36218 4.38639 8.22067 4.38639 8.46124ZM3.09865 9.70652C3.40997 10.1027 3.48073 10.6829 3.26846 11.0226C3.07035 11.3339 2.78733 11.0509 2.87224 10.6263C2.94299 10.2867 2.90054 10.2301 2.51846 10.1027C1.95242 9.94709 1.85337 9.66407 2.29205 9.49426C2.75903 9.29614 2.78733 9.29614 3.09865 9.70652ZM4.5279 9.83388C4.72601 10.0744 4.59865 10.3292 4.25903 10.3292C3.97601 10.3292 3.67884 10.0603 3.67884 9.80558C3.67884 9.55086 4.31563 9.56501 4.5279 9.83388Z" fill="black"/>
<path d="M5.63141 11.4191C4.92386 11.5889 5.90027 12.8767 6.94744 13.1597C7.64084 13.3437 8.80122 13.2871 8.87197 13.0606C8.94273 12.8484 7.95216 11.8861 7.40027 11.6597C6.90499 11.4474 5.99933 11.3201 5.63141 11.4191ZM7.51348 12.1974C8.22103 12.5937 8.33424 12.8767 7.7965 12.8767C7.0748 12.8767 5.80122 12.1691 5.80122 11.7729C5.80122 11.6172 7.03235 11.9144 7.51348 12.1974Z" fill="black"/>
</svg>
