<svg width="15" height="15" viewBox="0 0 15 15" fill="none" xmlns="http://www.w3.org/2000/svg">
<path d="M9.10932 4.34308C9.06878 4.54457 9.05527 5.0595 9.08229 5.48487C9.10932 5.93263 9.06878 6.29084 8.97419 6.358C8.77148 6.49233 8.64986 7.63412 8.79851 8.08189C8.89311 8.39532 8.82554 8.48487 8.46067 8.59681C7.54175 8.88786 6.89311 10.3879 7.35257 11.149C7.52824 11.4401 7.52824 11.552 7.33905 11.9998C7.08229 12.649 7.29851 12.7162 7.63635 12.0893C7.94716 11.5073 8.10932 11.5073 8.01473 12.0893C7.97419 12.3356 8.01473 12.5371 8.09581 12.5371C8.17689 12.5371 8.24446 12.3356 8.24446 12.0893C8.24446 11.5073 8.64986 11.5073 8.74446 12.0893C8.86608 12.8058 9.09581 12.6043 9.01473 11.8655C8.90662 11.0147 9.13635 10.7685 9.35257 11.5073C9.51473 12.1117 9.66338 12.2461 9.785 11.8879C9.82554 11.7759 9.74446 11.4401 9.59581 11.1267C9.43365 10.8132 9.32554 10.2311 9.32554 9.76099C9.32554 8.9998 9.35257 8.95502 9.79851 8.95502C10.6499 8.95502 10.9336 6.67144 10.1363 6.33562C9.82554 6.20129 9.79851 5.91024 10.0688 5.14905C10.312 4.43263 10.312 4.25353 10.0958 4.25353C9.9877 4.25353 9.83905 4.65651 9.74446 5.14905C9.52824 6.33562 9.27148 6.33562 9.36608 5.14905C9.43365 4.25353 9.25797 3.69383 9.10932 4.34308ZM10.0553 7.14159C10.4472 7.858 10.0823 8.6192 9.4877 8.26099C9.10932 8.01472 8.97419 7.47741 9.1904 7.05203C9.42013 6.60427 9.77148 6.62666 10.0553 7.14159ZM8.9877 9.40278C9.1904 9.94009 8.66338 10.7461 8.10932 10.7461C7.43365 10.7461 7.37959 10.2535 8.01473 9.62666C8.4877 9.13412 8.85257 9.04457 8.9877 9.40278Z" fill="black"/>
<path d="M6.43338 4.83696C6.39284 5.03845 6.3523 5.39666 6.3523 5.66532C6.3523 6.09069 6.32527 6.09069 5.9469 5.48621C5.66311 5.03845 5.50095 4.90412 5.39284 5.08323C5.29825 5.23994 5.3523 5.46382 5.60906 5.79964C5.97392 6.24741 5.97392 6.26979 5.75771 7.03099C5.63609 7.45636 5.58203 7.9489 5.62257 8.15039C5.67663 8.39666 5.62257 8.5086 5.4469 8.5086C5.29825 8.5086 5.01446 8.75487 4.82527 9.04591L4.47392 9.58323L4.24419 9.00114C4.02798 8.44144 4.02798 8.41905 4.39284 7.90412C4.59554 7.61308 4.71717 7.29964 4.67663 7.21009C4.54149 7.0086 4.13609 7.45636 3.98744 8.01606C3.91987 8.28472 3.81176 8.5086 3.75771 8.5086C3.60906 8.5086 3.62257 7.65785 3.78473 7.14293C3.89284 6.80711 3.87933 6.71756 3.73068 6.71756C3.50095 6.71756 3.32527 7.85935 3.4469 8.5086C3.555 9.09069 3.3523 9.09069 3.02798 8.48621C2.48744 7.47875 1.08203 8.53099 1.08203 9.96382C1.08203 10.2773 1.23068 10.6579 1.43338 10.9041C1.74419 11.2847 1.77122 11.3967 1.63609 11.8444C1.33879 12.7176 1.555 12.8295 1.93338 12.0011C2.40636 10.9937 2.70365 10.9489 2.70365 11.8892C2.70365 12.3146 2.75771 12.5385 2.86582 12.4937C2.96041 12.4265 3.02798 12.0683 3.02798 11.6653C3.04149 10.9265 3.055 10.9041 3.60906 10.8817C4.25771 10.8593 4.46041 11.2399 4.12257 11.8668C3.97392 12.1355 3.9469 12.3146 4.04149 12.4041C4.12257 12.4937 4.25771 12.3593 4.3523 12.0907C4.58203 11.4862 4.86582 11.5086 4.77122 12.1355L4.69014 12.6504L4.98744 12.1355C5.3523 11.5086 5.54149 11.5086 5.54149 12.1131C5.54149 12.3817 5.60906 12.5385 5.71717 12.4713C5.81176 12.4265 5.86582 12.1355 5.83879 11.7996C5.77122 10.9937 6.16311 10.9937 6.27122 11.7773C6.33879 12.2026 6.40636 12.3146 6.51446 12.1355C6.60906 11.9787 6.59554 11.7101 6.46041 11.2399C6.21717 10.4787 6.4469 9.18024 6.81176 9.18024C7.09554 9.18024 7.58203 8.06084 7.54149 7.52353C7.51446 7.27726 7.29825 6.85188 7.055 6.60562C6.6496 6.20263 6.62257 6.09069 6.69014 5.30711C6.75771 4.47875 6.59554 4.16532 6.43338 4.83696ZM6.555 7.3892C6.4469 7.9489 6.69014 7.99367 6.87933 7.43397C7.00095 7.07576 7.01446 7.07576 7.10906 7.45636C7.27122 8.19517 6.51446 8.97875 6.12257 8.44144C5.77122 8.01606 6.01446 6.94144 6.46041 6.94144C6.58203 6.94144 6.60906 7.09815 6.555 7.3892ZM2.89284 9.15785C3.12257 9.56084 3.12257 9.60561 2.83879 10.0758C2.41987 10.7698 1.56852 10.6355 1.51446 9.87427C1.41987 8.82203 2.43338 8.30711 2.89284 9.15785ZM5.98744 9.49367C6.12257 10.031 5.56852 10.9713 5.13609 10.9713C4.58203 10.9713 4.51446 10.5907 4.9469 9.8295C5.3523 9.13547 5.86582 8.97875 5.98744 9.49367ZM3.98744 9.85188C3.98744 10.031 3.8523 10.2101 3.69014 10.2549C3.39284 10.322 3.25771 9.89666 3.47392 9.53845C3.63609 9.29218 3.98744 9.49367 3.98744 9.85188Z" fill="black"/>
<path d="M12.7445 5.53062L12.5147 6.38137L12.4607 5.64256C12.3931 4.6351 12.1634 4.74704 12.1634 5.79928C12.1634 6.29182 12.0823 6.78436 11.9607 6.94107C11.8526 7.09779 11.758 7.50077 11.758 7.83659C11.758 8.35152 11.6904 8.50824 11.3526 8.62018C10.9472 8.77689 10.2715 9.87391 10.2715 10.4112C10.2715 10.5679 10.3661 10.8814 10.4877 11.0829C10.6904 11.3963 10.6904 11.4858 10.4877 11.9784C10.312 12.4261 10.2985 12.5381 10.4472 12.5381C10.5553 12.5381 10.7174 12.2918 10.812 11.9784C11.0147 11.3291 11.2174 11.4411 11.2174 12.2247C11.2174 12.5381 11.2715 12.7172 11.3526 12.65C11.4336 12.5829 11.4877 12.2694 11.4877 11.956C11.4877 11.3067 11.8391 11.2172 11.9607 11.8664C12.0688 12.4261 12.3526 12.4709 12.258 11.9112C12.2309 11.7097 12.1769 11.3963 12.1499 11.2172C12.0418 10.5903 12.4201 10.747 12.6363 11.4187C12.758 11.7993 12.9066 12.0455 12.9742 11.9784C13.1363 11.8217 12.758 10.5232 12.5688 10.5232C12.4877 10.5232 12.4336 10.2769 12.4336 9.96346C12.4336 9.58286 12.5012 9.40376 12.6769 9.40376C13.4742 9.40376 13.8255 7.61271 13.1904 6.78436C12.8931 6.38137 12.8796 6.31421 13.0553 5.62018C13.3796 4.34406 13.0958 4.27689 12.7445 5.53062ZM13.1634 7.67988C13.285 8.0157 13.258 8.15003 13.0418 8.41868C12.5823 8.97839 12.0147 8.37391 12.2039 7.52316C12.3255 7.00824 12.9607 7.12018 13.1634 7.67988ZM12.0012 9.6948C12.0688 10.2545 11.6499 10.7247 11.1228 10.747C10.6228 10.747 10.5418 10.3441 10.9201 9.80674C11.4066 9.09033 11.9336 9.04555 12.0012 9.6948Z" fill="black"/>
</svg>
