<svg width="15" height="15" viewBox="0 0 15 15" fill="none" xmlns="http://www.w3.org/2000/svg">
<path d="M10.3387 1.20824C10.0322 1.29562 9.46771 1.64513 9.08062 1.99465C8.22578 2.73737 8.29029 2.7228 8.17739 2.21309C7.96771 1.28105 7.08062 0.93154 6.17739 1.44125C5.49997 1.81989 5.16126 2.57717 5.16126 3.68397V4.55775L4.72578 4.14999C3.09675 2.67911 1.56449 4.32474 2.56449 6.45096C3.03223 7.41212 2.99997 7.58688 2.46771 7.48494C2.11287 7.42669 1.91933 7.4995 1.56449 7.83445C0.935455 8.43154 1.04836 8.9995 2.03223 10.3539C3.129 11.8539 3.129 11.8684 2.66126 12.6403C2.43546 12.9898 2.25804 13.383 2.25804 13.4849C2.25804 13.8345 2.72578 13.7034 2.96771 13.2811C3.43546 12.451 3.79029 12.3199 6.129 12.1597C7.70965 12.0432 8.14513 11.7665 8.129 10.9364C8.11288 10.4121 8.16126 10.3393 8.48384 10.3393C9.27417 10.3393 9.37094 10.4558 9.03223 11.0383C8.66126 11.6646 8.629 11.9849 8.91933 12.2616C9.03223 12.3636 9.22578 12.6694 9.33868 12.9315C9.80642 13.9364 11.3709 14.5044 12.0806 13.9218C12.6613 13.4412 12.9032 12.7859 12.8387 11.7665C12.758 10.5578 12.5645 10.2519 11.7742 10.0335C11.1451 9.85873 11.129 9.84416 11.2258 9.30533C11.3387 8.73737 11.0484 8.34416 10.2258 7.92183C9.96771 7.79076 10.0967 7.73251 11.0484 7.58688C11.6774 7.48494 12.3387 7.31018 12.5322 7.19368C12.9032 6.98979 13.3387 6.31989 13.3064 6.04319C13.2258 5.37329 12.7419 4.93639 11.8709 4.74707L11.4032 4.64513L11.8064 4.25193C13.1129 2.97038 13.0645 1.74707 11.6774 1.2228C11.0645 0.989793 11.0806 0.989793 10.3387 1.20824ZM11.4677 1.74707C11.629 1.83445 11.8871 2.09659 12.0322 2.34416C12.2742 2.76649 12.258 2.82474 11.8709 3.36358C11.629 3.6694 11.3709 3.93154 11.2903 3.93154C11.2096 3.93154 11.0645 4.06261 10.9677 4.2228C10.7096 4.64513 11 5.00921 11.7742 5.24222C13.5 5.75193 12.8709 6.87329 10.7096 7.14999C9.17739 7.33931 8.88707 7.86358 9.98384 8.41698C10.3387 8.59173 10.6451 8.82474 10.6935 8.92669C10.9355 9.52377 9.79029 9.98979 8.46771 9.84416C7.45158 9.74222 7.16126 9.93154 7.41933 10.5432C7.77417 11.3879 7.69352 11.4315 5.70965 11.65C4.99997 11.7228 4.30642 11.8247 4.16126 11.8684C3.72578 12.0141 3.80642 11.7228 4.30642 11.2131C4.80642 10.7325 5.5161 10.5578 5.99997 10.7908C6.17739 10.8781 6.35481 10.9073 6.41933 10.8636C6.59675 10.6888 6.129 10.4267 5.48384 10.3539L4.82255 10.2665L5.35481 9.46552L5.88707 8.66455L6.77417 8.67911C7.25804 8.67911 7.95158 8.73737 8.30642 8.81018C9.41933 8.9995 8.74191 8.62086 7.46771 8.3296L6.32255 8.06746L6.85481 7.42669C7.75804 6.30533 7.85481 6.26164 9.66126 6.1597C11.5645 6.05775 11.5484 5.82474 9.64513 5.82474C8.95159 5.82474 8.38707 5.78106 8.38707 5.7228C8.38707 5.57717 9.06449 4.81989 9.98384 3.93154C10.6935 3.24707 11 2.76649 10.7258 2.76649C10.5806 2.76649 8.74191 4.47038 8.09675 5.21309L7.41933 5.9995V5.53348C7.41933 4.79076 7.06449 3.20338 6.88707 3.20338C6.79029 3.20338 6.77417 3.48008 6.83868 3.88785C7.19352 6.26164 7.20965 6.10144 6.35481 7.17911L5.58062 8.15484L5.38707 7.58688C5.06449 6.58203 4.19352 5.40241 4.19352 5.97038C4.19352 6.05775 4.37094 6.45096 4.59675 6.84416C5.22578 7.98008 5.27417 8.56261 4.75804 9.4364C4.24191 10.3393 4.16126 10.3539 3.72578 9.68397C3.46771 9.2762 2.88707 8.89756 3.09675 9.2762C3.75804 10.4412 3.87094 10.7908 3.69352 11.082C3.48384 11.4461 3.49997 11.4607 2.53223 10.1063C1.43546 8.6063 1.5161 8.09659 2.82255 8.08203C3.41933 8.08203 3.46771 8.0529 3.5161 7.63057C3.54836 7.39756 3.41933 6.87329 3.22578 6.49465C2.69352 5.37329 2.64513 4.74707 3.04836 4.383C3.49997 3.97523 3.629 3.98979 4.30642 4.58688C5.29029 5.4461 5.74191 5.15484 5.83868 3.53834C5.93546 1.7762 6.98384 1.13542 7.61288 2.43154C8.19352 3.62572 8.38707 3.61115 9.46771 2.35872C9.629 2.18397 10.0484 1.93639 10.4032 1.81989C11.1935 1.57232 11.0967 1.57232 11.4677 1.74707ZM10.9677 10.2811C10.9677 10.3247 10.8548 10.5141 10.7096 10.7034C10.3871 11.1403 10.629 11.184 11.0484 10.7762C11.4032 10.4267 11.8226 10.3976 12.0967 10.7034C12.3871 11.0238 12.1774 11.1694 10.9516 11.4898C10.3871 11.6354 9.79029 11.8102 9.64513 11.8684C9.19352 12.0286 9.27417 11.4752 9.75804 11.0092C9.98384 10.7908 10.1613 10.5286 10.1613 10.4121C10.1613 10.3102 10.258 10.1937 10.3709 10.15C10.5645 10.0917 10.9677 10.1791 10.9677 10.2811ZM12.258 12.2325C12.258 13.2082 11.8709 13.7325 11.2419 13.6014C10.4677 13.4558 10.1935 13.2956 9.91933 12.815C9.77417 12.5675 9.69352 12.3781 9.70965 12.3636C9.74191 12.3636 10.2742 12.2034 10.8871 12.0141C11.5161 11.8393 12.0645 11.6791 12.1451 11.6646C12.2096 11.65 12.258 11.9121 12.258 12.2325Z" fill="black"/>
</svg>
