<svg width="15" height="15" viewBox="0 0 15 15" fill="none" xmlns="http://www.w3.org/2000/svg">
<path d="M5.44087 1.15339C5.1946 1.28032 4.91475 1.46493 4.80281 1.56878C4.42221 1.92647 4.23192 3.61109 4.50057 4.21109C4.67968 4.61493 4.46699 4.76493 4.01923 4.53416C3.64983 4.34955 2.84386 4.30339 2.23938 4.43032C0.952065 4.71878 0.537886 6.08032 1.41102 7.17647L1.66848 7.49955L1.39983 8.00724C0.840125 9.09186 1.43341 10.3149 2.63117 10.5688C2.7543 10.5919 2.96699 10.638 3.10132 10.6611C3.24684 10.6957 3.38117 10.6726 3.41475 10.6149C3.44833 10.5572 3.54908 10.5342 3.64983 10.5803C3.86251 10.6611 5.21699 9.99186 5.63117 9.59955L5.93341 9.29955V9.61109C5.93341 9.77263 5.82147 10.1072 5.69833 10.3495C5.564 10.5919 5.42968 10.9957 5.40729 11.2495C5.3849 11.5034 5.34012 11.9649 5.30654 12.288C5.18341 13.4072 5.28415 13.8457 5.66475 13.8457C5.91102 13.8457 6.04535 13.4534 6.02296 12.7957C6.00057 11.9765 6.12371 11.2842 6.43714 10.4419C6.57147 10.0611 6.73938 9.56493 6.79535 9.3457L6.89609 8.95339L7.08639 9.40339C7.19833 9.65724 7.33266 9.9457 7.38863 10.038C7.4558 10.1303 7.54535 10.3149 7.60132 10.4419C7.71326 10.6957 8.7655 11.6534 8.93341 11.6534C9.00057 11.6534 9.06774 11.7111 9.09012 11.7919C9.12371 11.8726 9.45953 11.9419 9.99684 11.9649L10.8476 11.988L11.3065 11.5149C11.8774 10.9149 12.0677 10.3149 11.8886 9.65724C11.8103 9.32263 11.8103 9.16109 11.8886 9.12647C12.2468 8.99955 12.7506 8.37647 12.8849 7.88032C13.1648 6.85339 12.8625 5.8957 12.2916 5.98801C12.2356 5.98801 12.2021 5.93032 12.2021 5.84955C12.2021 5.61878 11.6983 5.42263 10.9148 5.34186C10.3215 5.28416 10.2207 5.24955 10.2655 5.07647C10.2991 4.96109 10.411 4.8457 10.523 4.81109C10.6685 4.77647 10.7692 4.56878 10.8588 4.0957C11.0603 3.09186 10.9371 2.53801 10.3886 1.96109L9.91848 1.46493L9.19087 1.5457C8.78789 1.58032 8.44087 1.66109 8.41848 1.73032C8.35132 1.92647 8.0043 1.85724 7.85878 1.61493C7.47818 0.980317 6.23565 0.749548 5.44087 1.15339ZM7.13117 1.86878C7.2543 2.01878 7.46699 2.35339 7.60132 2.63032C7.85878 3.14955 7.85878 3.14955 8.37371 2.64186C9.15729 1.86878 10.1088 2.08801 10.2543 3.06878C10.411 4.19955 9.87371 5.04186 8.34012 6.06878C7.64609 6.51878 7.47818 6.72647 7.56774 6.96878C7.64609 7.18801 7.88117 7.21109 8.08266 7.00339C8.16102 6.93416 8.65356 6.63416 9.16848 6.35724C10.3327 5.7457 10.9595 5.73416 11.7319 6.29955C12.3252 6.73801 12.4707 7.04955 12.3028 7.60339C12.1685 8.07647 11.3401 8.73416 11.1498 8.53801C11.0043 8.38801 10.523 8.38801 10.523 8.53801C10.523 8.5957 10.7021 8.88416 10.9148 9.18416C11.3961 9.83032 11.4297 10.3034 11.0155 10.7649C9.94087 11.9649 8.41848 11.0072 7.39983 8.50339C7.22072 8.05339 7.13117 7.96109 6.89609 7.96109C6.73938 7.96109 6.60505 8.01878 6.60505 8.08801C6.60505 8.15724 6.5043 8.19186 6.39236 8.15724C6.23565 8.12263 6.02296 8.24955 5.69833 8.56109C4.80281 9.43801 4.0752 9.83032 3.24684 9.89955C2.50804 9.9457 2.50804 9.9457 2.14983 9.53032C1.94833 9.29955 1.79162 9.01109 1.79162 8.8957C1.79162 8.68801 2.49684 7.71878 2.69833 7.63801C2.88863 7.55724 2.79908 7.40724 2.53042 7.33801C2.21699 7.25724 1.56774 6.31109 1.56774 5.93032C1.56774 5.56109 2.14983 4.96109 2.54162 4.94955C3.20206 4.91493 3.75057 4.97263 3.85132 5.07647C3.91848 5.1457 4.06401 5.19186 4.17595 5.19186C4.29908 5.19186 4.79162 5.60724 5.32893 6.17263C5.84386 6.71493 6.314 7.15339 6.38117 7.15339C6.61624 7.15339 6.62744 6.7957 6.40356 6.54186C5.0043 4.96109 4.53415 2.50339 5.51923 1.85724C6.02296 1.52262 6.82893 1.53416 7.13117 1.86878Z" fill="currentColor"/>
</svg>
