<svg width="15" height="15" viewBox="0 0 15 15" fill="none" xmlns="http://www.w3.org/2000/svg">
<path d="M6.56191 1.61104C5.65325 1.9742 5.19172 2.49525 5.19172 3.14262C5.19172 3.7742 5.23498 3.80578 6.2446 4.16894C6.57633 4.27946 6.56191 5.10052 6.21575 5.93736C5.94172 6.58473 5.92729 6.60052 5.04748 6.71104C4.45614 6.78999 4.09556 6.75841 3.9946 6.64788C3.87922 6.52157 3.92248 6.4742 4.15325 6.4742C4.3696 6.4742 4.49941 6.34788 4.5571 6.09525C4.94652 4.3742 2.35037 3.90052 1.80229 5.58999C1.64364 6.09525 1.81672 6.4742 2.27825 6.71104C2.78306 6.96367 2.65325 7.10578 1.91768 7.10578C0.980177 7.10578 0.879216 7.2163 0.677293 8.35315C0.302293 10.3584 0.936908 12.4742 1.94652 12.6163C2.58114 12.6953 4.77345 12.3321 5.23498 12.0637C5.84075 11.7321 5.99941 11.7953 5.65325 12.2058C5.09075 12.8531 5.43691 13.0426 6.11479 12.4584C6.40325 12.2058 6.54748 12.1584 6.67729 12.3005C6.86479 12.5058 7.67248 12.5374 7.85998 12.3321C8.09075 12.111 8.79749 11.9689 8.79749 12.1584C8.79749 12.411 9.33114 12.3479 9.4321 12.0795C9.53306 11.7637 9.89364 11.7795 10.009 12.0953C10.11 12.3953 10.5283 12.1268 10.5283 11.7479C10.5283 11.4795 9.9946 11.1637 9.77825 11.3058C9.69172 11.3689 9.30229 11.4321 8.92729 11.4637C8.24941 11.4953 8.23499 11.4953 8.36479 11.1163C8.66768 10.2795 8.98499 10.0584 9.66287 10.2795C10.3119 10.5005 10.6725 10.9268 10.6725 11.4953C10.6725 11.9531 11.0186 11.89 11.0763 11.4163C11.1052 11.1479 11.2638 11.0689 11.8696 10.99C13.1533 10.8005 13.2254 10.7531 13.5427 9.94788C13.8888 9.04788 13.9321 7.95841 13.6436 7.18473C13.5283 6.90052 13.4706 6.52157 13.4994 6.36367C13.6436 5.81104 12.9369 5.30578 12.1869 5.4163L11.5379 5.52683V5.00578C11.5379 4.57946 11.61 4.45315 11.9706 4.31104C12.5908 4.05841 12.5908 3.1742 11.985 2.70051C10.8311 1.80051 9.07152 3.03209 9.87922 4.20051C10.3984 4.94262 9.86479 5.92157 8.84075 6.09525L8.24941 6.18999V5.08473C8.26383 3.99525 8.26383 3.97946 8.6821 3.88473C9.4321 3.72683 9.6196 2.58999 9.01383 1.91104C8.60999 1.46894 7.31191 1.29525 6.56191 1.61104ZM8.35037 2.06894C8.88402 2.2742 9.10037 2.88999 8.75422 3.26894C8.50902 3.55315 6.63402 3.74262 5.98498 3.56894C5.56672 3.44262 5.50902 3.00051 5.88402 2.65315C6.6196 1.94262 7.47056 1.73736 8.35037 2.06894ZM11.7109 3.11104C12.2302 3.6163 11.7542 4.10578 10.7446 4.10578C10.2831 4.10578 10.2398 4.05841 10.2398 3.66367C10.2398 2.85841 11.1196 2.52683 11.7109 3.11104ZM7.87441 4.45315C8.01864 4.95841 7.77345 6.15841 7.48498 6.3163C7.1821 6.50578 6.48979 6.52157 6.48979 6.34788C6.50422 6.28473 6.59075 6.06367 6.70614 5.84262C6.82152 5.62157 6.90806 5.19525 6.92248 4.87946C6.92248 4.56367 6.96575 4.27946 7.00902 4.23209C7.1821 4.04262 7.80229 4.20051 7.87441 4.45315ZM11.0763 5.16367C11.0331 5.70052 10.9898 5.76367 10.6148 5.81104C10.2542 5.85841 10.2109 5.82683 10.3119 5.5742C10.3696 5.4163 10.4561 5.13209 10.485 4.92683C10.6292 4.27946 11.134 4.48473 11.0763 5.16367ZM3.83595 5.25841L4.22537 5.63736L3.90806 5.98473C3.64845 6.26894 3.46095 6.3163 2.91287 6.28473C2.09075 6.22157 1.96095 5.88999 2.50902 5.28999C2.95614 4.80052 3.33114 4.78473 3.83595 5.25841ZM12.8215 5.98473C13.1244 6.20578 12.8792 6.45841 12.1725 6.64788C11.5523 6.82157 11.3359 7.23209 11.9129 7.13736C13.0956 6.97946 13.2686 7.08999 13.3696 8.08473C13.4417 9.00052 13.3119 9.15841 12.36 9.26894C11.7686 9.33209 11.5379 9.42683 11.5379 9.60051C11.5379 9.78999 11.6821 9.80578 12.3311 9.71104C13.1244 9.6163 13.2398 9.67946 12.9946 10.09C12.8071 10.4216 11.1052 10.611 10.8167 10.3426C10.4129 9.96367 9.67729 9.63209 9.23018 9.63209C8.91287 9.63209 8.6821 9.50578 8.40806 9.15841C7.80229 8.36894 6.4321 8.73209 6.12922 9.7742C6.07152 10.011 5.84075 10.09 5.04748 10.1689C4.26864 10.2637 4.03787 10.3426 4.03787 10.5321C4.03787 10.6742 4.12441 10.7374 4.25422 10.6742C4.3696 10.6268 4.78787 10.5479 5.16287 10.4847C5.53787 10.4374 5.89845 10.3426 5.97056 10.2953C6.04268 10.2479 6.0571 10.2795 6.01383 10.3742C5.73979 10.8637 6.64845 11.3058 7.45614 11.0689C7.98979 10.911 8.00422 10.9426 7.77345 11.6689C7.65806 12.0163 7.54268 12.1426 7.39845 12.0953C7.28306 12.0479 7.12441 12.0005 7.05229 12.0005C6.98018 12.0005 6.92248 11.9058 6.92248 11.7795C6.92248 11.3058 5.59556 11.1953 4.98979 11.6058C4.81672 11.7163 4.26864 11.8426 3.76383 11.9058C2.8696 12.0005 2.85518 12.0005 2.95614 11.6374C3.01383 11.4479 3.08595 10.911 3.12922 10.4531C3.17248 10.011 3.2446 9.63209 3.30229 9.63209C4.29748 9.55315 4.94652 9.36367 4.83114 9.15841C4.68691 8.92157 3.92248 8.96894 3.53306 9.25315C3.18691 9.50578 3.17248 9.48999 3.02825 9.07946C2.95614 8.85841 2.88402 8.60578 2.88402 8.54262C2.88402 8.46367 2.72537 8.22683 2.53787 8.00578L2.19172 7.59525L2.58114 7.54788C2.84075 7.5163 2.94172 7.42157 2.91287 7.2163C2.88402 7.01104 2.97056 6.94788 3.31672 6.94788C3.73498 6.94788 3.74941 6.96367 3.54748 7.20052C3.41768 7.32683 3.31672 7.53209 3.31672 7.62683C3.31672 7.76894 3.34556 7.76894 3.4321 7.62683C3.48979 7.5163 3.76383 7.38999 4.03787 7.34262C4.31191 7.29525 4.64364 7.2163 4.75902 7.18473C4.87441 7.15315 5.52345 7.0742 6.18691 7.02683C6.85037 6.96367 7.91768 6.82157 8.56672 6.67946C9.20133 6.55315 10.1533 6.37946 10.6725 6.3163C11.1917 6.25315 11.7686 6.12683 11.9706 6.03209C12.4177 5.82683 12.5763 5.81104 12.8215 5.98473ZM2.01864 8.17946C2.71095 8.93736 2.88402 10.011 2.52345 11.3374C2.27825 12.2374 2.16287 12.3163 1.71575 11.8268C1.06672 11.1163 0.85037 9.90052 1.08114 8.36894C1.19652 7.61104 1.44172 7.56367 2.01864 8.17946ZM8.04749 9.34788C8.56672 9.9163 7.96095 10.6742 6.9946 10.6584C6.64845 10.6584 6.54748 10.5795 6.51864 10.2953C6.41768 9.50578 7.5571 8.81104 8.04749 9.34788Z" fill="black"/>
<path d="M8.81225 7.18522C8.30744 7.31154 7.86032 7.45364 7.81705 7.50101C7.61513 7.72206 8.00455 7.75364 9.04301 7.57996C10.4709 7.32733 10.5719 7.29575 10.4565 7.10627C10.3411 6.90101 9.95167 6.9168 8.81225 7.18522Z" fill="black"/>
<path d="M4.6862 7.81572C4.36889 7.94204 4.09485 8.05257 4.066 8.05257C4.03716 8.05257 4.066 8.13151 4.1237 8.22625C4.16697 8.32099 4.34004 8.35257 4.52754 8.28941C4.6862 8.22625 5.2487 8.13151 5.76793 8.06835C6.28716 8.02099 6.70543 7.89467 6.70543 7.81572C6.70543 7.56309 5.32081 7.56309 4.6862 7.81572Z" fill="black"/>
<path d="M10.442 8.33818C9.70638 8.49607 9.98042 8.68555 10.9179 8.68555C12.3025 8.68555 12.591 8.33818 11.2352 8.3066C10.9612 8.29081 10.6006 8.32239 10.442 8.33818Z" fill="black"/>
<path d="M1.37004 9.15877C1.32677 9.31667 1.3412 9.58509 1.41331 9.74298C1.48543 9.90088 1.60081 10.3272 1.6585 10.6904C1.7162 11.1167 1.81716 11.3219 1.93254 11.2746C2.13447 11.1956 2.0912 10.3904 1.86043 9.85351C1.77389 9.67983 1.73062 9.47456 1.74504 9.37983C1.83158 8.82719 1.5287 8.62193 1.37004 9.15877Z" fill="black"/>
</svg>
