<svg width="15" height="15" viewBox="0 0 15 15" fill="none" xmlns="http://www.w3.org/2000/svg">
<path d="M5.83266 1.83184C5.18114 2.09733 4.39326 2.81415 4.39326 3.13273C4.39326 3.2522 4.2266 3.31857 3.93872 3.31857C1.77205 3.31857 0.938717 5.84069 2.98417 6.18583C3.69629 6.31857 6.02963 6.31857 6.16599 6.1991C6.36296 6.01326 6.02963 5.93361 4.54478 5.82742C2.87811 5.69468 2.49932 5.58848 2.34781 5.17698C2.09023 4.48671 3.55993 3.45131 4.2569 3.82299C4.65084 4.03538 4.69629 4.02211 4.69629 3.69025C4.69629 2.08406 8.19629 1.55308 9.02963 3.02653C9.2872 3.47786 9.36296 3.50441 9.62054 3.26547C10.3781 2.61503 12.1054 3.45131 11.9387 4.39379C11.9084 4.56636 12.0448 4.71238 12.4236 4.87167C13.6508 5.41592 13.0751 5.72123 10.8024 5.7345C9.40841 5.74777 8.71144 5.88052 8.86296 6.10618C8.99932 6.29202 12.5145 6.27875 12.9236 6.09291C13.6357 5.76105 13.6963 5.09733 13.0448 4.61946C12.8175 4.43361 12.5296 4.07521 12.4387 3.80972C12.1205 2.98671 11.5145 2.65485 10.3024 2.65485C9.43872 2.65485 9.24175 2.61503 9.18114 2.41592C8.92357 1.73892 6.92357 1.38052 5.83266 1.83184Z" fill="black"/>
<path d="M6.9241 5.97316C6.62107 6.33157 6.3635 6.66343 6.3635 6.70325C6.3635 6.7298 6.15138 7.06166 5.8938 7.43334C5.3938 8.15015 5.4241 8.42891 6.01501 8.29617C6.3635 8.2298 6.34835 8.26962 5.74229 9.01298C5.07562 9.84927 5.03016 10.2608 5.62107 10.128L5.96956 10.0484L5.60592 10.5661C5.4241 10.8448 5.15138 11.2431 5.01501 11.4422C4.87865 11.6546 4.72713 11.8139 4.68168 11.8139C4.49986 11.8139 4.40895 11.4289 4.54532 11.3493C4.77259 11.2298 4.71198 10.7254 4.40895 10.2209C4.15138 9.79617 4.13623 9.75635 4.37865 9.59705C4.59077 9.45104 4.56047 9.33157 3.96956 8.30944C3.27259 7.10148 3.01501 6.94219 2.74229 7.52626C2.66653 7.73865 2.34835 8.2829 2.04532 8.76077C1.56047 9.51741 1.51501 9.63688 1.72713 9.76962C1.95441 9.90236 1.95441 9.94219 1.74229 10.0882C1.60592 10.1811 1.34835 10.4466 1.18168 10.659L0.863498 11.0572L1.16653 11.2829L1.48471 11.5086L1.03016 12.1192C0.575619 12.7431 0.605922 13.2209 1.10592 13.0749C1.21198 13.0484 1.63623 12.9953 2.06047 12.9555C2.8332 12.8758 2.84835 12.8758 2.93926 13.2873C3.04532 13.7785 3.3938 13.7386 3.45441 13.2342C3.49986 12.9024 3.56047 12.8758 4.25744 12.8758C4.93926 12.8758 5.06047 12.8094 5.03016 12.4776C5.03016 12.4378 5.49986 12.3979 6.09077 12.3847L7.13623 12.3581L7.10592 12.8493C7.07562 13.128 7.12107 13.4201 7.18168 13.513C7.3938 13.8316 7.57562 13.513 7.57562 12.8094V12.1059L8.3635 12.3183C8.80289 12.451 9.27259 12.6369 9.40895 12.7563C9.59077 12.9156 9.84835 12.9555 10.4393 12.9024C11.1514 12.8493 11.212 12.8625 11.212 13.128C11.212 13.4732 11.6059 13.4997 11.7423 13.1546C11.818 12.9289 11.9393 12.9024 12.6211 12.9687C13.8635 13.0749 14.1362 12.8094 13.5605 12.0794C13.1211 11.5351 13.1211 11.5086 13.409 11.336C13.7271 11.1236 13.7423 11.1369 12.9696 10.3006C12.5756 9.86254 12.5605 9.79617 12.7726 9.65015C13.2271 9.34484 11.6817 7.03511 11.1362 7.22095C10.8786 7.30059 9.99986 8.82714 9.99986 9.18555C9.99986 9.30502 10.1059 9.42449 10.2271 9.45104C10.4241 9.47759 10.3786 9.6236 9.98471 10.1546C9.53016 10.7917 9.51501 10.805 9.80289 11.0174C9.96956 11.1236 10.0756 11.2962 10.0302 11.3891C9.99986 11.482 9.74229 11.2431 9.45441 10.8581C8.95441 10.1944 8.95441 10.1546 9.24229 10.0617C9.66653 9.92891 9.62107 9.57051 9.07562 8.90679C8.63623 8.40236 8.62107 8.33599 8.84835 8.18997C9.03016 8.07051 9.09077 7.91121 9.03016 7.64573C8.93926 7.22095 7.8332 5.40236 7.63623 5.34927C7.56047 5.32272 7.24229 5.60148 6.9241 5.97316ZM8.48471 7.77847C8.48471 7.80502 8.3938 7.83157 8.27259 7.83157C7.8635 7.83157 7.8938 8.04396 8.4241 8.81387C9.04532 9.71652 9.03016 9.66343 8.56047 9.58378C8.03016 9.50413 8.07562 9.71652 8.8635 10.8847L9.53016 11.8802L8.99986 11.9201C8.71198 11.9466 8.28774 11.8802 8.06047 11.774C7.71198 11.628 7.56047 11.628 7.19683 11.7608C6.93926 11.8537 6.3938 11.9333 5.95441 11.9466H5.18168L5.84835 11.0572C6.65138 9.98201 6.69683 9.71652 6.03016 9.80944C5.81804 9.83599 5.8938 9.6767 6.45441 8.89351C7.01501 8.09705 7.01501 7.75192 6.48471 7.87139C6.22713 7.93776 6.22713 7.89794 6.59077 7.39351C6.80289 7.0882 7.09077 6.63688 7.22713 6.39794L7.48471 5.95989L7.98471 6.84927C8.25744 7.32714 8.48471 7.75192 8.48471 7.77847ZM12.2726 9.17228C12.2726 9.22537 12.1665 9.29174 12.0453 9.34484C11.6817 9.46431 11.7877 9.82272 12.3635 10.4333L12.8938 11.0174H12.515C11.8786 11.0174 11.909 11.2829 12.5908 11.8935L13.2423 12.4643L11.6514 12.4378C10.7877 12.4245 10.0605 12.3581 10.0453 12.305C9.95441 12.0794 10.0302 11.9333 10.4696 11.482C10.9847 10.9643 10.9847 10.5395 10.4544 10.6855C10.1817 10.7652 10.1968 10.6988 10.6059 10.1413C11.1059 9.45104 11.1968 9.02626 10.8332 9.02626C10.5302 9.02626 10.5453 8.92006 10.9241 8.2298L11.2423 7.64573L11.7574 8.36254C12.0453 8.76077 12.2726 9.11918 12.2726 9.17228ZM3.60592 9.41121C3.46956 9.61033 3.49986 9.74307 3.75744 10.1413C4.15138 10.7254 4.16653 10.8847 3.8635 10.8847C3.53016 10.8847 3.57562 11.1103 4.07562 11.8139L4.53016 12.451L3.15138 12.4643C2.40895 12.4776 1.72713 12.5174 1.65138 12.5572C1.34835 12.7165 1.54532 12.2785 2.04532 11.6546C2.63623 10.9378 2.62107 10.7121 1.99986 10.8316C1.60592 10.9112 1.62107 10.8847 2.24229 10.3271C2.93926 9.68997 3.04532 9.42449 2.56047 9.42449C2.3938 9.42449 2.27259 9.38467 2.30289 9.31829C2.3332 9.2652 2.51501 8.93334 2.72713 8.5882L3.09077 7.95104L3.43926 8.54838C3.72713 9.03953 3.75744 9.19882 3.60592 9.41121Z" fill="black"/>
</svg>
