<svg width="15" height="15" viewBox="0 0 15 15" fill="none" xmlns="http://www.w3.org/2000/svg">
<path d="M10.3852 1.56201C10.2699 1.64013 9.99582 1.71826 9.77948 1.71826C9.56313 1.71826 9.34678 1.79638 9.30352 1.87451C9.24582 1.96826 9.15928 1.99951 9.08717 1.95263C9.02948 1.90576 8.92852 1.98388 8.88525 2.12451C8.84198 2.26513 8.69775 2.34326 8.59678 2.29638C8.33717 2.18701 8.23621 2.48388 8.13525 3.57763C8.04871 4.62451 8.26505 5.17138 8.87082 5.37451C9.44775 5.59326 9.44775 5.57763 9.20255 5.89013C8.88525 6.29638 8.52467 7.14013 8.42371 7.74951C8.30832 8.39013 8.07755 8.60888 8.07755 8.07763C8.07755 7.28076 7.50063 5.68701 6.9814 5.03076C6.49102 4.40576 6.47659 4.34326 6.69294 4.07763C6.96698 3.74951 6.9814 3.43701 6.73621 3.06201C6.51986 2.73388 5.6689 2.92138 5.16409 3.40576C4.93332 3.60888 4.90448 3.60888 4.90448 3.40576C4.90448 3.17138 4.52948 2.92138 3.93813 2.73388C3.72178 2.67138 3.51986 2.74951 3.33236 2.95263C2.97179 3.34326 2.95736 3.49951 3.26025 3.81201C3.46217 4.04638 3.44775 4.09326 3.00063 4.28076C1.29871 5.06201 1.86121 9.06201 3.66409 9.06201C4.06794 9.06201 4.67371 8.84326 4.94775 8.59326C5.03428 8.49951 5.2939 8.29638 5.51025 8.12451C6.39005 7.40576 6.70736 5.84326 6.10159 5.12451C5.81313 4.78076 6.02948 4.74951 6.47659 5.09326C6.86602 5.39013 7.25544 6.31201 7.7314 8.04638C8.23621 9.89013 8.16409 10.0776 7.25544 9.21826C6.72178 8.71826 5.94294 8.57763 5.59678 8.95263C5.49582 9.06201 5.09198 9.28076 4.71698 9.43701C4.22659 9.64013 4.05352 9.76513 4.1689 9.89013C4.26986 9.99951 4.19775 10.187 3.89486 10.4995C3.40448 10.9995 3.20255 11.6558 3.44775 11.9214C3.53429 12.0151 3.6064 12.2808 3.6064 12.5308C3.6064 13.1714 4.14005 13.4995 4.84678 13.2964C5.20736 13.187 5.46698 13.187 5.65448 13.2964C5.95736 13.4683 6.57755 13.1401 6.72178 12.7339C6.76505 12.6089 6.88044 12.5464 6.96698 12.5776C7.42852 12.7495 7.93332 11.8589 7.93332 10.8745C7.93332 10.4839 7.97659 10.1558 8.04871 10.1558C8.1064 10.1558 8.14967 10.4058 8.13525 10.7026C8.07755 11.937 8.2939 13.5151 8.51025 13.562C8.75544 13.6089 8.75544 13.5308 8.56794 11.312C8.45255 9.74951 8.55352 9.21826 8.95736 9.21826C9.18813 9.21826 9.2314 9.28076 9.14486 9.48388C8.74102 10.4683 9.02948 11.812 9.66409 11.9214C9.77948 11.9526 10.0535 12.0933 10.2843 12.2495C10.5006 12.4058 10.8468 12.5464 11.0776 12.5776C11.2939 12.5933 11.6545 12.687 11.8708 12.7808C12.8804 13.2339 13.2699 12.7964 13.2122 11.2495C13.1256 9.17138 11.9574 8.10888 10.342 8.62451C9.73621 8.81201 8.65448 8.90576 8.65448 8.74951C8.65448 8.59326 9.2314 6.68701 9.33236 6.51513C9.39005 6.42138 9.47659 6.49951 9.53429 6.68701C9.66409 7.06201 10.5006 7.68701 10.7026 7.56201C10.7602 7.51513 10.9333 7.56201 11.0776 7.64013C11.2651 7.74951 11.4237 7.73388 11.6256 7.59326C11.7699 7.48388 12.1016 7.34326 12.3468 7.28076C12.7939 7.17138 13.4141 6.45263 13.4141 6.06201C13.4141 5.93701 13.3131 5.70263 13.1977 5.51513C13.0535 5.29638 13.0247 5.14013 13.1256 5.07763C13.5006 4.82763 13.9477 2.92138 13.717 2.51513C13.6449 2.39013 13.2554 2.29638 12.6352 2.26513C12.1016 2.24951 11.6545 2.20263 11.6401 2.17138C11.6256 2.14013 11.5391 1.96826 11.4526 1.79638C11.2795 1.45263 10.717 1.32763 10.3852 1.56201ZM11.0343 2.49951C11.2506 2.95263 11.2795 2.95263 11.5968 2.73388C11.7699 2.60888 11.9718 2.54638 12.0151 2.59326C12.0727 2.65576 12.3612 2.70263 12.6497 2.71826L13.1977 2.73388L13.1689 3.43701C13.1401 4.01513 13.0535 4.21826 12.6785 4.56201L12.2026 4.99951L12.5199 5.35888C13.1256 6.04638 12.7218 6.87451 11.7987 6.87451C11.5679 6.87451 11.3949 6.93701 11.3949 7.01513C11.3949 7.20263 10.4429 6.96826 10.1689 6.71826C9.9814 6.54638 9.85159 5.62451 10.0102 5.62451C10.0535 5.62451 10.3131 5.76513 10.5872 5.95263C10.8612 6.12451 11.2074 6.24951 11.3516 6.21826C11.7987 6.12451 11.6256 5.71826 11.0343 5.48388C10.717 5.35888 10.4285 5.23388 10.3997 5.20263C10.2987 5.12451 10.616 4.82763 10.8324 4.78076C11.5679 4.64013 12.5487 3.74951 11.9718 3.74951C11.8708 3.74951 10.7458 4.28076 10.0535 4.65576C9.99582 4.68701 9.9814 4.37451 10.0391 3.95263L10.1256 3.20263L9.83717 3.56201C9.63525 3.81201 9.57755 4.06201 9.62082 4.45263C9.73621 5.34326 8.84198 5.12451 8.58236 4.20263C8.43813 3.74951 8.62563 2.81201 8.8564 2.81201C8.95736 2.81201 9.15928 2.67138 9.30352 2.49951C9.53428 2.21826 9.59198 2.21826 9.7939 2.42138C10.0102 2.62451 10.0535 2.60888 10.2122 2.34326C10.4718 1.89013 10.7747 1.95263 11.0343 2.49951ZM4.38525 3.37451C4.74582 3.74951 4.68813 4.10888 4.29871 3.98388C3.85159 3.82763 3.54871 3.49951 3.66409 3.29638C3.80832 3.04638 4.12563 3.07763 4.38525 3.37451ZM6.27467 3.74951C6.27467 4.07763 5.53909 4.49951 5.32275 4.26513C5.20736 4.14013 5.23621 4.01513 5.4814 3.74951C5.81313 3.39013 6.27467 3.39013 6.27467 3.74951ZM4.94775 4.70263C5.4814 4.96826 5.95736 5.99951 5.8564 6.64013C5.75544 7.23388 4.70255 8.37451 4.11121 8.53076C2.65448 8.92138 1.77467 6.07763 2.98621 4.87451C3.37563 4.48388 4.34198 4.40576 4.94775 4.70263ZM11.6112 8.90576C11.8131 8.98388 12.1593 9.34326 12.4045 9.70263C12.8372 10.3589 12.967 10.7339 12.6929 10.5464C12.592 10.4839 12.5631 10.7651 12.5776 11.3433C12.6208 12.4058 12.4045 12.5776 11.6977 12.0464C11.4381 11.8433 11.2362 11.7808 11.1785 11.8745C10.9766 12.2339 10.3564 11.7339 10.0824 10.9995L9.90929 10.5464L9.80832 10.937L9.70736 11.3276L9.53429 10.8745C9.33236 10.3433 9.44775 9.59326 9.73621 9.46826C9.85159 9.42138 10.2843 9.71826 10.7458 10.187C11.2939 10.7183 11.5968 10.937 11.6977 10.8276C11.8997 10.6089 11.2218 9.74951 10.5439 9.37451C10.0391 9.09326 10.0391 9.07763 10.3564 8.95263C10.8324 8.76513 11.2218 8.74951 11.6112 8.90576ZM6.93813 9.53076C7.29871 9.85888 7.15448 10.1401 6.62082 10.1558C6.34678 10.1558 5.04871 11.0308 5.04871 11.2183C5.04871 11.562 5.30832 11.4995 6.30352 10.9058C7.47178 10.2183 7.55832 10.2183 7.55832 10.9995C7.55832 11.7026 7.28428 12.062 6.83717 11.937C6.59198 11.8745 6.49102 11.9058 6.49102 12.062C6.49102 12.187 6.40448 12.4214 6.28909 12.5776C6.10159 12.8589 6.07275 12.8745 5.81313 12.6245C5.58236 12.4058 5.51025 12.3901 5.19294 12.5776C4.44294 13.0308 3.80832 12.6558 4.34198 12.0776C4.45736 11.9526 4.41409 11.8745 4.19775 11.7964C3.63525 11.6089 4.02467 10.7183 4.81794 10.4058C4.96217 10.3589 5.04871 10.2183 5.00544 10.0933C4.9189 9.84326 5.19294 9.68701 5.71217 9.68701C5.92852 9.68701 6.05832 9.59326 6.05832 9.45263C6.05832 9.12451 6.53428 9.15576 6.93813 9.53076Z" fill="black"/>
<path d="M4.47118 5.23424C4.37022 5.37487 4.32695 5.51549 4.37022 5.56237C4.51445 5.73424 4.90388 5.48424 4.90388 5.23424C4.90388 4.93737 4.70195 4.93737 4.47118 5.23424Z" fill="black"/>
</svg>
