<svg width="15" height="15" viewBox="0 0 15 15" fill="none" xmlns="http://www.w3.org/2000/svg">
<path d="M7.2392 2.63589C6.27491 2.93892 5.60144 3.40862 4.66777 4.43892C3.96369 5.2268 3.82593 5.31771 3.82593 5.02983C3.82593 4.84801 3.71879 4.65104 3.59634 4.60559C3.47389 4.54498 3.36675 4.37831 3.36675 4.2268C3.36675 4.02983 3.25961 3.93892 2.9994 3.93892C2.41777 3.93892 2.35655 4.24195 2.84634 4.62074C3.44328 5.09044 3.44328 5.52983 2.87695 5.77225C2.54022 5.90862 2.38716 5.90862 2.2494 5.77225C2.06573 5.59044 1.37695 5.54498 1.37695 5.71165C1.37695 5.77225 1.54532 5.95407 1.7443 6.13589L2.12695 6.43892L1.88206 7.36316C1.62185 8.28741 1.62185 8.28741 2.01981 8.95407C2.38716 9.59044 2.40246 9.65104 2.20348 10.3783C1.97389 11.2268 1.91267 13.4844 2.12695 13.4844C2.20348 13.4844 2.57083 13.348 2.93818 13.1813C3.41267 12.9844 4.2392 12.8329 5.52491 12.742C8.43308 12.5147 9.76471 11.9238 11.3872 10.1359C12.5198 8.87831 13.0402 7.51468 13.5453 4.48438C13.8055 2.83286 13.7902 2.7571 13.2392 2.99953C12.6729 3.2571 12.3208 3.2268 10.9739 2.80256C9.64226 2.37831 8.28001 2.31771 7.2392 2.63589ZM10.7596 3.1965C11.0657 3.30256 11.3259 3.42377 11.3259 3.48438C11.3259 3.52983 10.6831 3.98438 9.91777 4.46922C9.13716 4.96922 8.0045 5.86316 7.39226 6.45407L6.29022 7.54498L6.12185 7.04498C5.96879 6.57528 5.32593 5.89347 4.68308 5.52983C4.11675 5.21165 6.22899 3.34801 7.54532 3.01468C8.17287 2.86316 10.0096 2.96922 10.7596 3.1965ZM13.0096 5.02983C12.6423 7.45407 12.4433 7.87831 11.3106 8.51468C9.65757 9.45407 7.68308 9.71165 6.55042 9.13589C5.89226 8.81771 6.03001 8.48438 7.33104 7.16619C9.13716 5.36316 11.4484 3.87831 12.627 3.7571C13.2392 3.68135 13.2239 3.62074 13.0096 5.02983ZM4.86675 6.21165C5.81573 6.78741 6.09124 8.36316 5.35655 8.95407C5.18818 9.10559 4.69838 9.30256 4.26981 9.39347C3.53512 9.57528 3.45859 9.56013 3.25961 9.30256C3.13716 9.13589 2.95348 9.02983 2.83103 9.06013C2.4943 9.12074 2.11165 8.24195 2.2341 7.68134C2.55552 6.13589 3.70348 5.51468 4.86675 6.21165ZM11.1729 9.6965C9.88716 11.3026 7.71369 12.2723 5.37185 12.2723C4.88206 12.2723 4.14736 12.3783 3.7494 12.4995C2.86165 12.7571 2.81573 12.742 3.12185 12.1662C3.67287 11.0904 5.72389 9.09044 5.9841 9.34801C6.10655 9.46922 5.9841 9.66619 5.57083 10.0298C4.75961 10.7723 5.01981 11.0904 5.86165 10.3783C6.56573 9.78741 7.16267 9.63589 6.88716 10.1359C6.67287 10.545 6.68818 10.7571 6.96369 10.7571C7.10144 10.7571 7.26981 10.5904 7.34634 10.3783C7.46879 10.0601 7.59124 9.99953 8.08104 9.99953C8.63206 9.99953 8.67797 10.0298 8.60144 10.3783C8.55553 10.651 8.60144 10.7571 8.78512 10.7571C8.93818 10.7571 9.07593 10.5904 9.12185 10.3026C9.19838 9.92377 9.33614 9.81771 10.0096 9.62074C10.4382 9.49953 10.9586 9.28741 11.1729 9.18134C11.7239 8.86316 11.7239 8.99953 11.1729 9.6965ZM4.13206 10.0753C4.13206 10.1056 3.93308 10.3783 3.67287 10.651C3.42797 10.9389 3.04532 11.4692 2.83103 11.8329L2.44838 12.4995V11.8935C2.44838 10.9086 2.70859 10.1813 3.10655 10.1056C3.61165 10.0147 4.13206 9.98438 4.13206 10.0753Z" fill="black"/>
<path d="M7.43906 3.86392C7.07172 4.33362 7.07172 4.36392 7.33192 4.60635C7.88294 5.0912 8.72478 4.78817 8.72478 4.10635C8.72478 3.34877 7.94417 3.21241 7.43906 3.86392Z" fill="black"/>
<path d="M6.07626 5.33327C5.98443 5.68176 6.19871 6.06055 6.47422 6.06055C6.76504 6.06055 7.02524 5.5454 6.87218 5.27267C6.65789 4.89388 6.1834 4.92418 6.07626 5.33327Z" fill="black"/>
<path d="M10.5912 5.86304C10.4075 6.21153 10.6065 6.74183 10.9585 6.8782C11.234 6.98426 11.9381 6.60547 11.9381 6.34789C11.9381 5.71153 10.8667 5.33274 10.5912 5.86304Z" fill="black"/>
<path d="M8.73939 6.87816C8.63224 6.99937 8.57102 7.3327 8.60163 7.60543C8.69347 8.62058 10.1016 8.45392 10.1016 7.42361C10.1016 6.78725 9.13734 6.40846 8.73939 6.87816Z" fill="black"/>
<path d="M3.88648 7.59049C3.76403 7.80261 4.05485 8.09049 4.26913 7.96928C4.36097 7.90867 4.4375 7.80261 4.4375 7.72686C4.4375 7.52989 3.99362 7.42383 3.88648 7.59049Z" fill="black"/>
<path d="M2.786 7.98479C2.86253 8.36358 3.21457 8.40904 3.21457 8.0454C3.21457 7.86358 3.12273 7.72722 2.96967 7.72722C2.83192 7.72722 2.75538 7.83328 2.786 7.98479Z" fill="black"/>
</svg>
