<svg width="15" height="15" viewBox="0 0 15 15" fill="none" xmlns="http://www.w3.org/2000/svg">
<path d="M11.1316 2.0341C11.0895 2.12064 11.0475 2.58218 11.0615 3.05814C11.0755 3.80814 11.0475 3.9091 10.8512 3.83699C10.5147 3.70718 10.2344 4.01007 10.2344 4.48603C10.2344 4.8466 10.2904 4.9043 10.6549 4.9043C11.2297 4.9043 11.5521 4.25526 11.468 3.28891C11.3979 2.5966 11.5381 2.4091 11.8746 2.75526C12.0428 2.92834 12.3372 2.81295 12.3372 2.5966C12.3372 2.36584 11.2437 1.86103 11.1316 2.0341Z" fill="black"/>
<path d="M4.9627 2.22102C4.47205 2.45179 3.50476 3.54794 3.50476 3.8941C3.50476 4.03833 3.29448 4.18256 2.87392 4.29794C2.10289 4.51429 2.04681 4.81717 2.73373 5.14891L3.21036 5.37967L3.12625 6.41814C3.00008 8.09121 3.92532 9.56237 5.55149 10.2547C6.2384 10.5576 6.29448 10.6008 6.09822 10.8316C5.90195 11.0335 5.81784 11.0479 5.35522 10.8749C5.07485 10.7739 4.68233 10.6729 4.48607 10.6729C4.2898 10.6729 3.50476 10.4422 2.73373 10.1681C1.94868 9.8941 1.27579 9.73544 1.20569 9.80756C1.0655 9.95179 1.59822 10.2547 2.6356 10.6008L3.37859 10.846L2.83186 11.1345C2.07485 11.5095 1.42999 12.447 1.69635 12.7787C2.03279 13.197 4.48607 12.6922 4.83653 12.1153C4.99074 11.8556 4.64027 11.8412 4.12158 12.1008C3.49074 12.4181 2.13093 12.7066 2.03279 12.5479C1.93466 12.3893 2.80382 11.5383 3.36457 11.2499C3.95336 10.947 4.38793 11.0047 7.20569 11.7691C9.49074 12.4037 9.57485 12.447 8.87392 12.7354C8.56551 12.8508 8.24308 13.0528 8.14494 13.1826C7.83653 13.5576 8.29915 13.471 9.36457 12.9662C10.0375 12.6345 10.6403 12.4758 11.4674 12.3893C12.659 12.2595 13.1777 12.0864 13.1777 11.7979C13.1777 11.7114 13.0234 11.6826 12.7992 11.7403C10.7104 12.2162 9.53279 12.1585 8.00476 11.5239L7.68233 11.3797L8.03279 11.1056C8.22906 10.947 8.57952 10.8172 8.81784 10.8172C9.49074 10.8172 11.3692 10.1393 12.1122 9.64891C12.9253 9.08641 13.1636 8.72583 13.402 7.67294C13.7104 6.31717 13.3879 5.92775 12.701 6.85083C11.8319 8.0191 11.5234 7.97583 9.89728 6.38929C8.90195 5.40852 8.83186 5.29314 8.83186 4.73064C8.83186 4.03833 8.45336 3.08641 8.04681 2.71141C7.33186 2.06237 5.8599 1.8316 4.9627 2.22102ZM6.88326 2.61044C7.5842 2.85564 8.08887 3.40371 8.25709 4.11044C8.50943 5.14891 8.46737 5.27871 7.86457 5.46621C7.52812 5.56717 7.1356 5.84121 6.89728 6.1441C5.32719 8.09121 8.00476 10.4133 10.2758 9.10083C11.159 8.59602 12.3926 7.74506 12.7992 7.37006L13.2057 6.99506L13.1076 7.42775C12.8132 8.66814 12.2945 9.20179 10.6543 9.90852C9.32251 10.471 7.24775 10.5576 6.15429 10.0816C4.14962 9.21621 2.90195 7.00948 3.72906 5.79794C3.9113 5.52391 3.92532 5.3941 3.78513 5.04794C3.64494 4.70179 3.65896 4.54314 3.89728 4.00948C4.47205 2.71141 5.60756 2.17775 6.88326 2.61044ZM8.95803 6.11525C9.61691 6.62006 10.9347 7.93256 10.9347 8.09121C10.9347 8.30756 10.6543 8.23544 10.2197 7.91814C9.61691 7.48544 9.43466 7.65852 9.95336 8.17775C10.3739 8.59602 10.3879 8.62487 10.1076 8.72583C9.79915 8.82679 9.39261 8.63929 8.7898 8.12006C8.10289 7.54314 8.01878 7.93256 8.70569 8.55275L9.32251 9.12967L8.70569 9.04314C6.88326 8.79794 6.22438 6.80756 7.69635 5.98544C8.21504 5.69698 8.43934 5.72583 8.95803 6.11525ZM7.57018 10.9758C7.57018 11.1922 6.88326 11.2931 6.65896 11.1056C6.32251 10.8172 6.40663 10.7306 7.00943 10.7883C7.31784 10.8172 7.57018 10.9037 7.57018 10.9758Z" fill="black"/>
<path d="M5.4668 4.38537C5.4668 4.78922 5.80325 4.97672 6.01353 4.70268C6.22381 4.44306 6.05558 4.03922 5.73315 4.03922C5.55091 4.03922 5.4668 4.14018 5.4668 4.38537Z" fill="black"/>
</svg>
