<svg width="15" height="15" viewBox="0 0 15 15" fill="none" xmlns="http://www.w3.org/2000/svg">
<path d="M7.8012 2.21717C7.67488 2.51446 7.8012 3.58203 7.97488 3.58203C8.06962 3.58203 8.14856 3.23068 8.18014 2.79825C8.22751 2.06852 8.00646 1.74419 7.8012 2.21717Z" fill="black"/>
<path d="M10.753 3.02803C10.4057 3.501 10.3267 3.91992 10.5636 3.91992C10.6899 3.91992 11.5267 2.82533 11.5267 2.64965C11.5267 2.39289 11.0215 2.63614 10.753 3.02803Z" fill="black"/>
<path d="M4.37423 2.91881C4.26371 3.01341 5.0216 4.32422 5.21108 4.32422C5.52687 4.32422 5.51108 4.04043 5.1795 3.45935C4.86371 2.87827 4.61108 2.71611 4.37423 2.91881Z" fill="black"/>
<path d="M6.71119 4.28442C4.92698 4.74388 3.63225 6.05469 3.63225 7.37901C3.63225 7.91955 3.60067 7.98712 3.36382 7.90604C1.54803 7.31144 1.20067 7.44658 1.2954 8.63577C1.43751 10.352 2.30593 11.1898 4.21646 11.4871C4.80067 11.5682 5.41646 11.6763 5.59014 11.7168C6.07961 11.8385 5.54277 12.0277 4.70593 12.0277C3.80593 12.0277 2.82698 12.3385 2.57435 12.7033C2.21119 13.1763 3.82172 14.0547 5.06909 14.0547C6.06382 14.0547 7.73751 13.2844 7.73751 12.8114C7.73751 12.6763 7.81646 12.5682 7.92698 12.5682C8.22698 12.5682 10.3112 13.406 10.8638 13.7439C11.4165 14.0952 11.6849 14.0547 11.6849 13.6358C11.6849 13.4736 11.9691 13.2168 12.4744 12.9466C13.2322 12.5141 13.5007 12.1628 13.0586 12.1628C12.9322 12.1628 12.5217 12.3385 12.1428 12.5547C11.3691 13.0006 11.1954 12.9196 11.3217 12.2168C11.3849 11.8385 11.4796 11.7709 11.9849 11.7033C12.7901 11.5952 13.9901 10.6763 14.4638 9.79793C14.7638 9.25739 14.8428 8.89253 14.8428 7.93307C14.8428 6.50063 14.7322 6.41955 13.4217 6.98712L12.4901 7.37901L12.3954 6.90604C11.9375 4.82496 9.28488 3.60874 6.71119 4.28442ZM10.1059 5.00063C10.8796 5.33847 11.5744 6.12225 11.8428 6.96009C12.048 7.5682 12.0322 7.59523 11.5744 8.01415C10.5007 9.01415 10.1375 10.0141 10.5007 11.0277C10.848 12.0141 10.8165 12.3655 10.327 12.5547C9.75856 12.7709 9.6954 12.6898 9.58488 11.7168C9.47435 10.6763 9.0954 9.94658 8.55856 9.74388C7.80067 9.44658 7.42172 10.3114 7.81646 11.4196C7.92698 11.7574 8.00593 12.0277 7.97435 12.0277C7.92698 12.0277 7.01119 11.7168 6.28488 11.4466C5.93751 11.325 5.87435 11.2304 5.9533 11.0141C6.23751 10.2168 5.70067 9.14928 4.70593 8.5682C4.13751 8.23036 4.10593 8.1628 4.10593 7.51415C4.10593 5.24388 7.4533 3.83847 10.1059 5.00063ZM14.3059 8.48712C14.1322 9.81144 13.1849 10.9331 12.0165 11.2168C11.7165 11.2844 11.4322 11.325 11.4007 11.2979C11.3059 11.2033 11.9533 10.2033 12.5533 9.54117C12.8691 9.18982 13.1059 8.83847 13.0744 8.7709C12.9796 8.51415 11.8901 9.46009 11.5112 10.1223C11.0533 10.9601 10.8954 10.9871 10.8954 10.2709C10.8954 9.21685 11.8744 8.13577 13.3428 7.51415L14.1322 7.18982L14.2586 7.48712C14.3375 7.63577 14.3533 8.09523 14.3059 8.48712ZM3.12698 8.37901C4.69014 9.00063 5.52698 9.79793 5.52698 10.7033C5.52698 10.9736 5.46382 10.9466 4.84803 10.4601C4.48488 10.1493 3.83751 9.67631 3.3954 9.40604C2.14803 8.60874 2.32172 9.10874 3.64803 10.1493L4.81646 11.0682L4.18488 10.9871C2.84277 10.825 1.97435 9.97361 1.78488 8.63577C1.67435 7.83847 1.70593 7.83847 3.12698 8.37901ZM8.66909 10.379C8.87435 10.7033 9.14277 12.0682 9.04803 12.2168C8.85856 12.4601 8.21119 11.2844 8.21119 10.7033C8.21119 10.1087 8.41646 9.96009 8.66909 10.379ZM6.07961 12.6358C5.82698 12.7439 5.52698 12.825 5.43225 12.8385C5.33751 12.8385 5.16382 12.9331 5.0533 13.0412C4.80067 13.2979 5.14803 13.3114 6.04803 13.0952C6.8533 12.906 6.9954 13.0547 6.26909 13.3114C5.44803 13.6087 4.2954 13.5682 3.64803 13.2304C3.33225 13.0682 3.17435 12.906 3.2533 12.8385C3.49014 12.6358 4.5954 12.4601 5.60593 12.4601C6.53751 12.4601 6.53751 12.4601 6.07961 12.6358Z" fill="black"/>
<path d="M6.17511 6.71738C5.95405 7.08224 6.09616 7.43359 6.47511 7.43359C6.88563 7.43359 6.98037 7.08224 6.64879 6.7444L6.36458 6.43359L6.17511 6.71738Z" fill="black"/>
<path d="M9.18958 6.64989C8.93694 6.86611 8.95273 7.09584 9.20537 7.28503C9.50537 7.48773 9.99484 7.16341 9.91589 6.81206C9.85273 6.50124 9.458 6.42016 9.18958 6.64989Z" fill="black"/>
<path d="M8.98441 8.10874C8.44756 8.62226 7.78441 8.64928 7.13704 8.17631C6.36335 7.62226 6.04756 7.7709 6.63178 8.41955C6.93178 8.73036 7.76862 9.05469 8.32125 9.05469C8.65283 9.05469 9.63178 8.23036 9.63178 7.96009C9.63178 7.60874 9.47388 7.64928 8.98441 8.10874Z" fill="black"/>
<path d="M13.0743 4.75718C12.4743 5.02745 12.3479 5.18961 12.6164 5.33826C12.8216 5.44637 14.0848 4.86529 14.0058 4.68961C13.9111 4.44637 13.69 4.45988 13.0743 4.75718Z" fill="black"/>
<path d="M2.05273 4.98725C2.05273 5.24401 3.44221 5.79807 3.53695 5.58185C3.67905 5.28455 3.67905 5.28455 3.06326 5.06834C2.41589 4.83861 2.05273 4.81158 2.05273 4.98725Z" fill="black"/>
</svg>
