<svg width="15" height="15" viewBox="0 0 15 15" fill="none" xmlns="http://www.w3.org/2000/svg">
<path d="M6.44698 2.14764C5.29805 2.39088 4.16507 3.32331 3.90975 4.2152C3.81401 4.5125 3.7023 4.59358 3.38315 4.59358C2.77677 4.59358 1.64379 5.1071 1.27677 5.52601C0.494857 6.45845 0.590602 7.63412 1.51613 8.48547C2.02677 8.95845 2.10656 8.98547 3.11188 9.0125C4.02145 9.02601 4.24486 9.08007 4.61188 9.37737C5.7289 10.2828 7.67571 10.4449 9.28741 9.75574C10.181 9.36385 10.3725 9.33682 11.0108 9.43142C12.3512 9.64764 13.1012 9.45845 13.9151 8.68818C14.3778 8.25574 14.4417 7.3098 14.0427 6.76926C13.8034 6.44493 13.6917 6.05304 13.6757 5.52601C13.6278 4.28277 12.4789 3.49899 11.0587 3.75574C10.5321 3.86385 10.3725 3.85034 10.3725 3.7152C10.3725 3.41791 9.57464 2.70169 8.9523 2.44493C8.25018 2.13412 7.1172 1.99899 6.44698 2.14764ZM8.55337 2.68818C9.38315 3.0125 10.0534 3.72872 10.0534 4.3098V4.75574L10.548 4.40439C11.9523 3.40439 14.1544 5.12061 13.0215 6.33682C12.8938 6.48547 12.8938 6.53953 13.0693 6.59358C14.2661 6.93142 14.0108 8.52601 12.6863 8.99899C12.0161 9.22872 11.5853 9.22872 10.8193 8.99899C10.2608 8.83682 10.197 8.83682 9.55869 9.20169C8.71294 9.67466 7.54805 9.91791 6.71826 9.79628C5.93635 9.68818 4.62784 8.99899 4.51613 8.63412C4.4523 8.44493 4.35656 8.39088 4.16507 8.45845C1.88315 9.33682 0.127836 7.0125 1.94698 5.52601C2.40975 5.16115 2.79273 5.05304 3.90975 4.97196C4.32464 4.93142 4.38847 4.87737 4.3406 4.56655C4.26081 3.90439 5.32996 2.83682 6.38315 2.52601C6.89379 2.36385 7.93103 2.44493 8.55337 2.68818Z" fill="black"/>
<path d="M5.77592 5.70291C5.47273 5.95967 5.53656 6.35156 5.88762 6.35156C6.2706 6.35156 6.41422 6.04075 6.17485 5.75697C6.01528 5.58129 5.93549 5.56778 5.77592 5.70291Z" fill="black"/>
<path d="M9.09551 5.72941C8.8721 5.97265 8.99976 6.40509 9.30295 6.32401C9.54232 6.24292 9.65402 5.82401 9.46253 5.66184C9.36678 5.58076 9.22317 5.60779 9.09551 5.72941Z" fill="black"/>
<path d="M6.22266 7.13428C6.22266 7.80996 7.61095 8.18834 8.345 7.70185C8.58436 7.53969 8.77585 7.32347 8.77585 7.21536C8.77585 7.0532 8.69606 7.06671 8.36095 7.28293C7.80244 7.66131 7.25989 7.63428 6.76521 7.22888C6.28649 6.82347 6.22266 6.80996 6.22266 7.13428Z" fill="black"/>
<path d="M2.32907 11.1349C1.6429 11.9592 1.38758 12.5673 1.7546 12.5673C1.85035 12.5673 1.81843 12.743 1.67482 12.9727C1.11631 13.8781 1.5312 13.8917 2.20141 12.9727C2.66418 12.3376 2.68014 12.2835 2.42482 12.1889C2.15354 12.1079 2.18545 12.0403 2.64822 11.5268L3.15886 10.9592L3.63758 11.6079C4.03652 12.1754 4.06843 12.27 3.86099 12.3917C3.63758 12.4998 3.68545 12.6079 4.14822 13.1484C4.65886 13.77 5.10567 13.9727 5.10567 13.6079C5.10567 13.4998 4.96205 13.3106 4.78652 13.1754C4.54716 12.9862 4.48333 12.8241 4.54716 12.5538C4.62694 12.27 4.48333 11.9862 3.90886 11.2295C3.50992 10.7025 3.1429 10.27 3.11099 10.27C3.07907 10.27 2.72801 10.6619 2.32907 11.1349Z" fill="black"/>
<path d="M10.4998 10.6747C10.2924 10.9045 9.94131 11.2964 9.70195 11.5396C9.19132 12.0666 9.17536 12.1477 9.49451 12.3504C9.71791 12.4856 9.70195 12.5531 9.33493 12.972C8.90408 13.4585 8.84025 13.6477 9.09557 13.6477C9.57429 13.6477 10.5796 12.2153 10.2285 12.0261C10.0371 11.9315 10.069 11.8099 10.436 11.3504L10.8828 10.7828L11.3934 11.3099C12.0637 11.972 12.1275 12.0937 11.7285 12.0937C11.5371 12.0937 11.4254 12.1747 11.4573 12.2828C11.5371 12.5666 12.4626 13.6207 12.702 13.7018C13.069 13.8234 12.9573 13.391 12.5264 12.9991C12.0637 12.5801 12.0317 12.4315 12.3668 12.4315C12.7817 12.4315 12.6381 11.8234 12.1115 11.4045C11.8403 11.1883 11.5211 10.8504 11.3934 10.6342C11.1062 10.1612 10.9626 10.1747 10.4998 10.6747Z" fill="black"/>
<path d="M6.30273 11.5127C5.64848 12.1208 5.56869 12.2694 5.66443 12.6478C5.71231 12.8911 5.68039 13.1208 5.58465 13.1748C5.34529 13.2965 5.3772 13.783 5.63252 13.7019C5.93571 13.5938 6.71763 12.5667 6.62188 12.4181C6.55805 12.3505 6.44635 12.3235 6.36656 12.364C6.1272 12.4992 6.20699 12.2694 6.58997 11.7965C6.92507 11.364 7.33997 11.2019 7.33997 11.4992C7.33997 11.5803 7.48358 11.81 7.67507 11.9992L7.99422 12.3505L7.67507 12.4586C7.24422 12.5938 7.26018 12.6884 7.83465 13.2154C8.1538 13.5127 8.40912 13.6478 8.56869 13.5938C8.79209 13.5127 8.77614 13.4586 8.45699 13.1748C8.08997 12.8505 8.08997 12.8235 8.3772 12.6478C8.64848 12.4857 8.63252 12.4181 7.91443 11.6343C7.49954 11.1884 7.13252 10.81 7.1006 10.81C7.06869 10.81 6.71763 11.1208 6.30273 11.5127Z" fill="black"/>
</svg>
