<svg width="15" height="15" viewBox="0 0 15 15" fill="none" xmlns="http://www.w3.org/2000/svg">
<path d="M6.04236 2.72281C3.05637 3.35998 1.03768 5.70954 0.799365 8.80246C0.687216 10.3025 1.1218 9.79803 1.38815 8.11219C2.27133 2.62989 9.63114 1.18299 12.547 5.89538C13.0237 6.66529 13.4582 8.08564 13.4582 8.85555C13.4582 9.28033 13.5143 9.42635 13.6685 9.42635C14.1311 9.42635 13.8087 7.30246 13.1639 6.01485C11.8741 3.43962 8.95824 2.09892 6.04236 2.72281Z" fill="black"/>
<path d="M6.30869 4.03681C5.10308 4.27574 3.79934 5.09875 3.11242 6.0545C2.76196 6.54566 1.96289 8.52353 1.96289 8.92176C1.96289 9.49256 2.29934 9.02796 2.83205 7.72707C3.70121 5.5899 5.01897 4.52796 6.93953 4.40849C9.42083 4.26247 11.5657 5.82884 11.9582 8.08548C12.1685 9.20052 12.4068 9.24035 12.3928 8.15185C12.3788 6.24035 10.5984 4.50141 8.15915 3.99698C7.28999 3.82442 7.31803 3.82442 6.30869 4.03681Z" fill="black"/>
<path d="M6.42042 5.37701C5.38304 5.61595 4.14939 6.70444 3.84098 7.62037C3.78491 7.76639 3.4765 8.19117 3.15407 8.56285C2.07463 9.78409 1.6821 10.6204 2.2008 10.6204C2.39706 10.6204 2.39706 10.6469 2.21481 10.846C2.01855 11.085 1.54192 11.9744 1.54192 12.1336C1.54192 12.1735 1.71014 12.2133 1.9064 12.2133H2.27089L1.83631 12.7708C1.17743 13.6204 1.23351 13.7266 2.29893 13.6204C2.88771 13.5673 3.23818 13.5806 3.29425 13.6735C3.35033 13.7664 3.56061 13.7797 3.82696 13.7266C4.06528 13.6867 4.64005 13.6336 5.10266 13.6204C5.70547 13.6071 5.94379 13.554 5.91575 13.4345C5.90173 13.3549 5.99986 13.2752 6.15407 13.2752C6.29425 13.2752 6.61668 13.2354 6.855 13.1956C7.26154 13.1159 7.28958 13.1425 7.28958 13.4744C7.28958 13.8991 7.61201 13.8593 7.6821 13.4213C7.72416 13.1823 7.79425 13.1292 8.03257 13.1956C8.20079 13.2354 8.55126 13.2752 8.8036 13.2752C9.08397 13.2752 9.23818 13.3416 9.22416 13.4478C9.19612 13.554 9.43444 13.6204 10.0092 13.6469C10.4999 13.6735 10.9064 13.7664 11.0326 13.8859C11.2288 14.0584 11.2709 14.0584 11.4812 13.8726C11.6354 13.7531 11.9999 13.6735 12.4485 13.6735C13.3036 13.6735 13.4017 13.5673 13.0653 12.9832C12.855 12.6513 12.841 12.4921 12.9531 12.3195C13.0653 12.1469 13.0372 11.9876 12.841 11.6823C12.7008 11.4434 12.6167 11.1381 12.6728 10.9655C12.7569 10.6602 11.7055 9.1071 11.2569 8.85489C11.1587 8.80179 11.0746 8.60267 11.0746 8.41683C11.0746 7.89913 10.3737 6.66462 9.82696 6.21329C8.85967 5.40356 7.58397 5.09825 6.42042 5.37701ZM8.62136 6.02745C9.43444 6.38586 10.0232 6.98321 10.4017 7.83276C10.5419 8.16462 10.7242 8.5363 10.7943 8.65577C10.9064 8.84161 10.7943 9.06728 10.3036 9.6779C9.64472 10.4876 9.53257 10.846 9.86902 10.9655C10.0372 11.0319 10.0372 11.1115 9.81294 11.4434C9.6307 11.7354 9.58865 11.9345 9.67276 12.1469C9.855 12.585 9.67276 12.6513 9.36435 12.2797C9.09799 11.9611 9.09799 11.9611 9.39238 11.6823L9.68678 11.4036L9.28023 10.6867C8.9578 10.1292 8.91575 9.95666 9.06995 9.90356C9.30827 9.81064 9.04192 9.1602 8.29893 8.0717C7.69612 7.19559 7.61201 7.16905 7.12136 7.6602C6.28023 8.49648 5.39706 10.5009 6.11201 9.94338C6.4064 9.70444 6.35033 9.87701 5.85967 10.6204C5.45313 11.2443 5.39706 11.2841 5.22883 11.0717C4.99051 10.7531 5.00453 10.6071 5.25687 10.7C5.64939 10.846 5.48117 10.3018 4.79425 9.1602C4.00921 7.87259 4.00921 7.84604 4.87837 6.90356C5.98584 5.70887 7.23351 5.41683 8.62136 6.02745ZM8.10266 8.56285C8.5793 9.20002 8.69145 9.59825 8.355 9.47878C7.9765 9.34604 7.9765 9.70444 8.34098 10.1027C9.09799 10.9522 9.29425 11.669 8.69145 11.3106C7.99051 10.8991 7.96248 11.2575 8.62136 12.0275C8.88771 12.3328 9.11201 12.6248 9.11201 12.6646C9.11201 12.8505 7.92042 12.731 7.6821 12.5186C7.4578 12.3328 7.38771 12.3195 7.28958 12.4655C7.21949 12.585 6.84098 12.6779 6.35033 12.7177L5.53724 12.7841L5.81762 12.4655C5.97182 12.2929 6.12603 12.1204 6.16808 12.0806C6.37837 11.8947 6.86902 11.231 6.86902 11.1381C6.86902 11.0717 6.71481 11.0982 6.51855 11.1779C5.99986 11.4036 5.9578 11.2443 6.36435 10.6336C6.74285 10.0761 6.88304 9.18675 6.56061 9.37259C6.37837 9.47878 6.91108 8.5894 7.26154 8.19117C7.55594 7.87259 7.59799 7.88586 8.10266 8.56285ZM4.49986 9.47878C4.80827 10.0098 4.89238 10.2487 4.7522 10.1956C4.17743 9.98321 4.13537 10.3283 4.66808 11.0452C5.17276 11.7354 5.17276 11.7487 4.86435 11.7885C4.31762 11.8682 4.28958 12.0407 4.7522 12.5982L5.20079 13.1292L3.71481 13.1159C2.11668 13.1159 2.07463 13.0894 2.60734 12.4921C3.05594 11.9876 2.97182 11.6425 2.43911 11.762C2.01855 11.8682 2.01855 11.8682 2.69145 10.9257C3.15407 10.2752 3.19612 10.0363 2.8036 10.1292C2.34098 10.2487 2.56528 9.81064 3.49051 8.85489C3.89706 8.44338 3.88304 8.43011 4.49986 9.47878ZM11.4251 9.6779C11.4671 9.81064 11.6214 10.023 11.7756 10.1558C12.126 10.4611 12.126 10.5673 11.7615 10.6602C11.4671 10.7398 11.4671 10.7531 11.9017 11.2575C12.3924 11.8549 12.4204 11.9478 12.14 11.9478C11.7335 11.9478 11.7475 12.2398 12.1961 12.6779C12.6728 13.1425 12.6027 13.262 11.8457 13.2089C11.6214 13.1956 11.0606 13.169 10.612 13.169L9.79893 13.1425L10.1214 12.731C10.6821 12.0142 10.7101 11.9611 10.626 11.8814C10.584 11.8283 10.4017 11.8549 10.2475 11.9478C9.855 12.1469 9.88304 12.0407 10.3737 11.3505C10.8643 10.6602 10.8784 10.6204 10.5139 10.6204C10.1354 10.6204 10.1634 10.5009 10.6681 9.91683C11.1447 9.35931 11.2989 9.31949 11.4251 9.6779Z" fill="black"/>
</svg>
