<svg width="15" height="15" viewBox="0 0 15 15" fill="none" xmlns="http://www.w3.org/2000/svg">
<path d="M3.04442 2.38599C2.85325 2.55742 2.94148 2.85742 3.16207 2.85742C3.27972 2.85742 3.38266 2.72885 3.38266 2.57171C3.38266 2.28599 3.22089 2.20028 3.04442 2.38599Z" fill="black"/>
<path d="M3.55983 3.65806C3.20689 3.88664 3.14807 4.28664 3.38336 4.71521C3.78042 5.44378 5.00101 5.32949 5.00101 4.57235C5.00101 3.78664 4.14807 3.24378 3.55983 3.65806ZM4.50101 4.55806C4.36866 4.75806 4.01572 4.75806 3.89807 4.57235C3.83925 4.48664 3.88336 4.31521 3.98631 4.20092C4.20689 3.94378 4.67748 4.27235 4.50101 4.55806Z" fill="black"/>
<path d="M9.78032 3.91495C9.26561 4.42923 9.30973 4.75781 9.9862 5.11495C10.5303 5.41495 10.5597 5.41495 10.795 5.17209C11.4862 4.41495 10.5156 3.21495 9.78032 3.91495ZM10.4421 4.35781C10.545 4.48638 10.5891 4.61495 10.545 4.65781C10.398 4.81495 10.0009 4.58638 10.0009 4.35781C10.0009 4.08638 10.2068 4.08638 10.4421 4.35781Z" fill="black"/>
<path d="M2.5594 5.87211C2.41234 6.11497 2.75057 6.3864 2.95646 6.1864C3.13293 6.01497 3.01528 5.71497 2.79469 5.71497C2.72116 5.71497 2.61822 5.7864 2.5594 5.87211Z" fill="black"/>
<path d="M4.26562 6.55742C4.26562 6.72885 4.35386 6.85742 4.50092 6.85742C4.63327 6.85742 4.7068 6.75742 4.67739 6.61456C4.60386 6.25742 4.26562 6.21456 4.26562 6.55742Z" fill="black"/>
<path d="M6.03088 7.02796C5.51618 8.14225 5.66324 8.42796 6.8103 8.49939C7.86912 8.57082 7.98677 7.12796 6.95736 6.59939C6.45736 6.32796 6.325 6.38511 6.03088 7.02796ZM6.97206 7.22796C7.16324 7.72796 7.075 7.99939 6.69265 7.99939C6.28088 7.99939 6.22206 7.74225 6.50147 7.28511C6.72206 6.94225 6.85441 6.92796 6.97206 7.22796Z" fill="black"/>
<path d="M11.6766 6.585C11.5295 6.82786 11.8678 7.09929 12.0736 6.89929C12.2501 6.72786 12.1325 6.42786 11.9119 6.42786C11.8383 6.42786 11.7354 6.49929 11.6766 6.585Z" fill="black"/>
<path d="M2.20703 7.51372C2.20703 7.6423 2.30997 7.71372 2.45703 7.68515C2.82468 7.61372 2.8688 7.28515 2.51585 7.28515C2.33938 7.28515 2.20703 7.37087 2.20703 7.51372Z" fill="black"/>
<path d="M10.5007 8.22882C10.1772 8.70025 9.55951 10.5288 9.55951 11.0002V11.3574L9.22128 10.9431C8.70657 10.3288 8.38304 10.5145 8.38304 11.4288C8.38304 11.8145 8.32422 12.1431 8.23598 12.1431C8.16245 12.1431 8.08893 12.086 8.08893 12.0145C8.08893 11.686 7.55951 11.7145 7.2654 12.0574C6.85363 12.5145 6.7654 12.4145 6.7654 11.4145C6.7654 10.5431 6.57422 9.85739 6.33892 9.85739C6.2654 9.85739 6.04481 10.1145 5.86834 10.4288C5.48598 11.1002 5.44187 11.0717 5.08892 9.95739C4.7801 8.95739 4.05951 8.08596 3.82422 8.42882C3.75069 8.5431 3.67716 9.21453 3.67716 9.92882V11.2145L2.82422 10.286C1.63304 9.01453 1.35363 9.12882 1.91245 10.6717C2.60363 12.6002 2.60363 12.4574 2.00069 12.2145C1.33892 11.9431 1.32422 11.9431 1.32422 12.286C1.32422 12.4431 1.42716 12.5717 1.54481 12.5717C1.67716 12.5717 2.04481 12.7431 2.36834 12.9431C3.16245 13.4288 3.29481 13.2574 2.94187 12.2145C2.7801 11.7431 2.57422 11.1717 2.50069 10.9431L2.36834 10.5288L2.79481 10.9288C3.0301 11.1431 3.39775 11.6717 3.60363 12.1145C3.80951 12.5431 4.0301 12.8431 4.08892 12.786C4.14775 12.7288 4.17716 11.9145 4.14775 10.9574C4.11834 9.35739 4.13304 9.2431 4.33892 9.50025C4.61834 9.8431 4.85363 10.6288 4.85363 11.2431C4.85363 11.7717 5.08892 12.4288 5.2654 12.4288C5.33892 12.4288 5.58892 12.0288 5.82422 11.5288L6.23598 10.6431L6.35363 11.9145C6.47128 13.2717 6.67716 13.7002 6.97128 13.2288C7.05951 13.086 7.25069 12.8288 7.38304 12.6574L7.61834 12.3574L8.05951 12.7717C8.50069 13.1574 8.50069 13.1717 8.66245 12.886C8.75069 12.7145 8.82422 12.2431 8.83893 11.8288V11.0717L9.25069 11.9145C9.72128 12.9002 9.80951 12.8288 10.0007 11.4002C10.1477 10.3145 10.5154 9.02882 10.7801 8.78596C10.9419 8.61453 10.7948 10.5574 10.5889 11.3002C10.5007 11.5717 10.4419 11.9717 10.4419 12.2002C10.4419 12.6002 10.4419 12.6145 10.736 12.3574C10.8977 12.2145 11.0301 12.0288 11.0301 11.9288C11.0301 11.7431 12.5007 9.80025 12.5742 9.88596C12.6036 9.91453 12.4125 10.6145 12.133 11.4288C11.8536 12.2431 11.6183 13.0288 11.6183 13.1717C11.6183 13.5431 11.9566 13.486 12.3683 13.0574C12.5595 12.8574 12.8683 12.6288 13.0595 12.5574C13.4419 12.4145 13.5007 12.0002 13.133 12.0002C13.0007 12.0002 12.7654 12.1002 12.6183 12.2431C12.4713 12.3717 12.3536 12.4145 12.3536 12.3288C12.3536 12.1574 12.986 10.386 13.2948 9.68596C13.8095 8.51453 13.2654 8.55739 12.0889 9.77168L11.2066 10.7002L11.2801 9.58596C11.3977 8.0431 11.0301 7.42882 10.5007 8.22882Z" fill="black"/>
</svg>
