<svg width="15" height="15" viewBox="0 0 15 15" fill="none" xmlns="http://www.w3.org/2000/svg">
<path d="M7.01255 1.17097C6.50663 1.56151 5.34391 2.75085 5.27291 2.94612C5.24628 3.03488 5.18415 3.10588 5.13977 3.10588C5.09539 3.10588 5.05989 3.16801 5.05989 3.23902C5.05989 3.31003 5.02438 3.37216 4.98001 3.37216C4.909 3.37216 4.75811 3.5763 4.31433 4.29523C4.21669 4.44612 4.0303 4.7479 3.88829 4.96979C3.74628 5.18281 3.65752 5.42245 3.68415 5.49346C3.71077 5.57334 3.71077 5.59997 3.67527 5.56446C3.62202 5.51121 3.33799 5.82186 3.32912 5.94612C3.32024 5.97275 3.26699 6.08813 3.19598 6.21239C3.04509 6.47867 2.73444 7.27748 2.72557 7.42837C2.72557 7.4905 2.69006 7.54375 2.64569 7.54375C2.61018 7.54375 2.57468 7.60588 2.57468 7.67689C2.57468 7.7479 2.4948 7.95204 2.39717 8.12068C2.29953 8.29819 2.2374 8.47571 2.26403 8.52896C2.29953 8.57334 2.27291 8.60884 2.22853 8.60884C2.13977 8.60884 2.07764 8.00529 2.11314 7.63251C2.12202 7.56151 2.14864 7.29523 2.1664 7.03784C2.18415 6.78932 2.22853 6.5408 2.25515 6.49642C2.33504 6.36328 2.57468 4.68577 2.52143 4.59701C2.4948 4.56151 2.51255 4.526 2.5658 4.526C2.64569 4.526 2.70782 4.38399 2.79657 3.99346C2.87646 3.66506 2.96521 3.39878 3.01847 3.32778C3.05397 3.27452 3.13385 3.07926 3.19598 2.88399C3.25811 2.68872 3.32912 2.49346 3.35575 2.4402C3.45338 2.27156 3.4445 1.95204 3.34687 1.95204C3.19598 1.95204 2.84095 2.20943 2.84095 2.31594C2.84095 2.3692 2.72557 2.65322 2.59243 2.955C2.45042 3.25677 2.29066 3.73606 2.22853 4.01121C2.1664 4.29523 2.07764 4.526 2.02438 4.526C1.97113 4.526 1.97113 4.57926 2.04214 4.65914C2.13977 4.77452 2.13089 4.7834 2.00663 4.73902C1.90012 4.69464 1.86462 4.73902 1.8735 4.88991C1.88237 5.1118 1.80249 5.74198 1.72261 6.12364C1.59835 6.66506 1.58947 7.02896 1.69598 6.95796C1.77586 6.91358 1.77586 6.93133 1.72261 7.02009C1.55397 7.28636 1.52734 8.7331 1.69598 8.93725C1.76699 9.01713 1.77586 9.06151 1.72261 9.026C1.60722 8.955 1.5806 11.7686 1.69598 11.9994C1.74036 12.0793 1.74924 12.168 1.70486 12.1946C1.57172 12.2745 1.67823 13.171 1.83799 13.2952C2.03326 13.4372 2.09539 13.3662 2.30841 12.7627C2.4948 12.2213 2.93859 11.3426 3.31137 10.7656C3.4445 10.5526 3.55101 10.3574 3.55101 10.3307C3.55101 10.2952 3.64864 10.1355 3.77291 9.97571C3.89717 9.81594 3.9948 9.65618 3.9948 9.62955C3.9948 9.59405 4.0658 9.46091 4.16344 9.33665C4.51847 8.83074 4.68711 8.45796 4.6161 8.3337C4.52734 8.19168 4.17231 8.45796 4.17231 8.67097C4.17231 8.7331 4.13681 8.78636 4.08356 8.78636C3.96817 8.78636 3.59539 9.20352 3.45338 9.48754C3.38237 9.6118 3.22261 9.85145 3.08947 10.0112C2.94746 10.171 2.84095 10.3307 2.83208 10.3662C2.80545 10.6059 2.7522 10.7745 2.68119 10.8189C2.62793 10.8455 2.59243 10.8899 2.58356 10.9165C2.57468 11.0497 2.29953 11.6266 2.21965 11.671C2.11314 11.7331 2.12202 10.3929 2.22853 10.2509C2.26403 10.1976 2.35279 9.95796 2.42379 9.70056C2.50367 9.44316 2.61906 9.10588 2.69006 8.94612C2.90308 8.47571 3.35575 7.27748 3.51551 6.76269C3.59539 6.50529 3.69302 6.27452 3.7374 6.2479C3.78178 6.22127 3.79066 6.15914 3.76403 6.10588C3.72853 6.05263 3.7374 6.03488 3.79066 6.06151C3.84391 6.09701 3.9948 5.91062 4.12793 5.65322C4.26995 5.39583 4.58947 4.88103 4.85575 4.49938C5.11314 4.11772 5.32616 3.77156 5.32616 3.74494C5.32616 3.68281 5.57468 3.52304 6.16935 3.19464C6.32024 3.10588 6.50663 3.05263 6.59539 3.07038C6.67527 3.07926 6.74628 3.06151 6.74628 3.026C6.74628 2.96387 7.37646 2.83074 8.21965 2.70648C8.57468 2.65322 8.60131 2.67097 8.84095 2.9905C9.63977 4.06446 10.5983 4.66801 11.6279 4.7479C12.5688 4.82778 12.8439 4.67689 12.7907 4.11772C12.764 3.75381 12.2492 3.13251 12.0717 3.23902C12.0185 3.27452 11.983 3.23902 11.983 3.17689C11.983 3.06151 11.0865 2.6621 10.8291 2.6621C10.6782 2.65322 10.3321 2.41358 10.3942 2.36032C10.483 2.27156 11.5569 1.95204 11.6279 1.99642C11.6723 2.02304 11.7256 2.00529 11.7522 1.96091C11.7877 1.91653 11.9208 1.88991 12.054 1.90766C12.3912 1.95204 12.5776 1.67689 12.3646 1.455C12.2492 1.34849 12.1339 1.32186 11.8587 1.37511C11.6546 1.40174 11.3528 1.42837 11.1841 1.42837C10.7315 1.41949 9.67527 1.86328 9.67527 2.05855C9.67527 2.10293 9.4445 2.12955 9.16935 2.12955C8.61018 2.12955 7.04805 2.34257 6.59539 2.47571C6.3735 2.53784 6.30249 2.52896 6.26699 2.43133C6.24036 2.36032 6.24924 2.32482 6.30249 2.35145C6.3735 2.39582 6.89717 1.96979 7.47409 1.38399C7.66935 1.18872 7.69598 1.09997 7.62498 1.01121C7.48296 0.833694 7.42971 0.851446 7.01255 1.17097ZM10.0569 2.85736C10.2344 2.86624 10.3587 2.90174 10.3321 2.94612C10.3054 2.98162 10.3676 3.01713 10.4652 3.01713C10.5628 3.01713 10.6694 3.06151 10.696 3.10588C10.7404 3.17689 10.7936 3.16801 10.8824 3.09701C10.98 3.01713 11.0066 3.026 11.0066 3.14139C11.0066 3.22127 11.0776 3.3189 11.1664 3.34553C11.2463 3.38103 11.4149 3.47867 11.5303 3.56742C11.6457 3.65618 11.7788 3.70056 11.8321 3.66506C11.8853 3.63843 11.8942 3.65618 11.8587 3.70943C11.8321 3.76269 11.8765 3.84257 11.9563 3.89582C12.2315 4.04671 11.9652 4.1976 11.5214 4.13547C11.3173 4.10884 11.051 4.07334 10.9356 4.05559C10.8291 4.04671 10.696 3.97571 10.6516 3.9047C10.6072 3.83369 10.5628 3.80707 10.5628 3.84257C10.5628 3.92245 10.0658 3.55855 9.63977 3.16801C9.48888 3.03488 9.32912 2.92837 9.27586 2.92837C9.23148 2.92837 9.24924 2.88399 9.32024 2.83961C9.39125 2.79523 9.51551 2.77748 9.59539 2.79523C9.67527 2.82186 9.88829 2.84849 10.0569 2.85736Z" fill="black"/>
<path d="M7.41186 5.22679C6.69293 5.46644 5.57458 6.41614 5.72547 6.65579C5.7521 6.69129 5.70772 6.75342 5.62784 6.78005C5.54796 6.80667 5.50358 6.89543 5.53021 6.95756C5.55683 7.02857 5.53908 7.09957 5.4947 7.11732C5.40595 7.14395 5.23731 8.51969 5.32606 8.51969C5.35269 8.51969 5.37932 8.64395 5.38819 8.78596C5.39707 8.93685 5.46808 9.12324 5.54796 9.19425C5.61896 9.27413 5.68109 9.38951 5.68109 9.46052C5.68109 9.53153 5.77873 9.69129 5.90299 9.81555L6.12488 10.0374L5.92961 10.2061C5.81423 10.3037 5.65447 10.3747 5.57458 10.3836C5.35269 10.3836 4.89115 10.8096 4.92666 10.9871C4.94441 11.067 4.96216 11.2179 4.96216 11.3155C4.97103 11.4664 4.98879 11.4664 5.05979 11.3599C5.1308 11.2534 5.14855 11.2623 5.14855 11.4221C5.14855 11.5374 5.19293 11.6262 5.23731 11.6262C5.29056 11.6262 5.32606 11.6972 5.31719 11.7771C5.31719 11.8747 5.29056 11.8925 5.26393 11.8215C5.24618 11.7682 5.17518 11.7416 5.12192 11.7771C5.02429 11.8392 4.97991 11.857 4.81127 11.8836C4.76689 11.8836 4.65151 11.9635 4.55387 12.0434C4.45624 12.1321 4.2521 12.3008 4.09234 12.4161C3.78169 12.6558 3.76393 12.7357 3.95032 12.9309C4.11896 13.0907 4.39411 12.9221 4.30535 12.709C4.27873 12.6203 4.30535 12.6025 4.39411 12.638C4.46512 12.6647 4.52725 12.6469 4.52725 12.6025C4.52725 12.5493 4.66926 12.5138 4.8379 12.5138C5.00654 12.5138 5.14855 12.4694 5.14855 12.425C5.14855 12.3718 5.21068 12.3363 5.29056 12.3363C5.37044 12.3363 5.39707 12.2919 5.36157 12.2298C5.32606 12.1676 5.33494 12.1587 5.40595 12.1942C5.4592 12.2298 5.56571 12.212 5.63671 12.1587C5.70772 12.0966 5.76985 12.07 5.76985 12.1055C5.76985 12.141 5.86748 12.0966 5.98287 12.0167C6.10713 11.9457 6.27577 11.8925 6.36453 11.9102C6.45328 11.9191 6.57754 11.9013 6.63967 11.8658C6.69293 11.8215 6.74618 11.8303 6.74618 11.8836C6.74618 11.9457 6.81719 11.9457 6.9592 11.8925C7.11009 11.8392 7.18997 11.8481 7.22547 11.9191C7.2521 11.999 7.26985 11.999 7.26985 11.9102C7.27873 11.857 7.35861 11.8037 7.45624 11.8037C7.55387 11.8037 7.63376 11.857 7.63376 11.9102C7.63376 11.999 7.66038 11.9901 7.71364 11.9013C7.76689 11.8126 7.8024 11.8126 7.85565 11.8925C7.90003 11.9635 7.95328 11.9457 8.05092 11.8303C8.1663 11.6795 8.17518 11.6795 8.1308 11.8215C8.07754 11.9901 8.29056 12.0522 8.38819 11.8925C8.4237 11.8392 8.51245 11.8481 8.64559 11.9013C8.7876 11.9724 8.91186 11.9724 9.01837 11.9102C9.11601 11.857 9.25802 11.8481 9.39115 11.9013C9.53317 11.9546 9.57754 11.9546 9.53317 11.8836C9.49766 11.8126 9.52429 11.8126 9.64855 11.8836C9.83494 11.9812 10.2166 11.9812 10.1545 11.8836C10.1012 11.786 10.5983 11.7238 10.7048 11.8126C10.758 11.857 10.8468 11.8481 10.9178 11.7771C11.0065 11.6972 11.0154 11.6972 10.971 11.7771C10.9355 11.8481 10.9977 11.9102 11.1574 11.9457C11.2906 11.9724 11.4592 12.0079 11.5213 12.0345C11.5923 12.0522 11.6101 12.0256 11.5746 11.9724C11.5036 11.8481 11.4858 11.8481 12.4089 12.3096C12.8438 12.5315 13.1988 12.6647 13.2876 12.6292C13.3764 12.5937 13.4119 12.6114 13.3764 12.6647C13.3409 12.7179 13.3764 12.7889 13.4562 12.8155C13.5272 12.8422 13.5628 12.8333 13.5361 12.7889C13.5095 12.7445 13.545 12.6913 13.616 12.6735C13.9355 12.6025 13.5716 12.2298 12.8261 11.8836C12.4089 11.6883 12.0716 11.5108 12.0716 11.4842C12.0716 11.4576 12.2669 11.2357 12.5065 10.996C12.8971 10.6055 13.3941 9.85105 13.261 9.85105C13.2432 9.85105 13.261 9.77117 13.3142 9.67354C13.4296 9.45164 13.3497 9.11437 13.1988 9.20312C13.119 9.2475 13.1278 9.22088 13.1988 9.13212C13.2876 9.01673 13.2876 8.96348 13.19 8.83034C13.0568 8.64395 13.1278 8.52857 13.6426 8.03153C13.7935 7.88951 13.9267 7.70312 13.9355 7.63212C13.971 7.3836 13.9355 7.27709 13.8201 7.27709C13.6693 7.27709 13.119 7.84514 13.19 7.92502C13.2255 7.96052 13.2077 7.98715 13.1545 7.98715C13.1012 7.98715 13.0036 8.0404 12.9326 8.11141C12.7107 8.34218 12.4355 8.19129 12.4444 7.84514C12.4533 7.6765 12.4799 7.54336 12.5065 7.54336C12.5953 7.54336 12.7551 7.24158 12.8261 6.93981C12.8793 6.69129 12.8616 6.65579 12.7018 6.65579C12.4267 6.65579 11.9651 7.49898 12.0272 7.87176C12.0716 8.10253 12.0361 8.18241 11.8409 8.31555C11.7166 8.40431 11.5302 8.56407 11.4326 8.67058C11.3261 8.77709 11.2107 8.84809 11.1663 8.82147C11.1308 8.79484 11.0953 8.82147 11.0953 8.8836C11.0953 8.94573 11.0687 8.96348 11.0332 8.93685C11.0065 8.90135 10.9267 8.9191 10.8557 8.97235C10.7669 9.05224 10.7403 9.04336 10.7403 8.93685C10.7403 8.85697 10.7758 8.77709 10.8201 8.75046C11.1663 8.52857 11.0243 6.97531 10.5983 6.30076C10.4207 6.01673 10.0302 5.6262 10.0302 5.72383C10.0302 5.75046 9.93257 5.67945 9.80831 5.57295C9.27577 5.11141 8.19293 4.95164 7.41186 5.22679ZM8.53908 5.6262C9.03612 5.69721 9.49766 5.9546 9.85269 6.33626C10.0213 6.53153 10.2077 6.72679 10.2521 6.78005C10.3054 6.8333 10.3497 6.93981 10.3586 7.01082C10.3675 7.08182 10.4119 7.30372 10.4651 7.49898C10.6426 8.20904 10.4562 8.84809 9.9237 9.39839C9.77281 9.54928 9.68405 9.67354 9.72843 9.67354C9.76393 9.67354 9.63967 9.75342 9.45328 9.85105C9.25802 9.94869 9.045 10.0108 8.97399 9.98419C8.91186 9.95756 8.79648 9.98419 8.73435 10.0374C8.64559 10.1084 8.61009 10.1084 8.61009 10.0374C8.61009 9.98419 8.53021 9.93981 8.43257 9.93981C8.33494 9.93981 8.04204 9.72679 7.78464 9.4694C7.31423 9.00786 7.31423 9.00786 7.31423 8.43981C7.30535 8.01377 7.34973 7.81851 7.46512 7.68537C7.55387 7.57886 7.69589 7.4191 7.78464 7.31259C8.32606 6.68241 9.045 6.85105 9.10713 7.62324C9.11601 7.83626 9.08938 8.10253 9.03612 8.21792C8.91186 8.47531 8.4592 8.73271 8.37932 8.5907C8.33494 8.52857 8.36157 8.51969 8.43257 8.56407C8.52133 8.61732 8.53908 8.59957 8.48583 8.46644C8.45032 8.37768 8.39707 8.17354 8.37044 8.03153C8.31719 7.68537 8.28169 7.65874 8.10417 7.82738C7.99766 7.94277 7.97991 8.06703 8.02429 8.38656C8.05979 8.61732 8.11305 8.77709 8.13967 8.75046C8.1663 8.72383 8.24618 8.75934 8.31719 8.83034C8.56571 9.07886 9.0095 8.99898 9.32015 8.64395C9.5953 8.32443 9.60417 8.2978 9.55979 7.68537C9.54204 7.33922 9.47991 7.04632 9.41778 7.02857C9.36453 7.01082 9.32015 6.94869 9.32015 6.89543C9.31127 6.71792 8.89411 6.4694 8.58346 6.46052C8.19293 6.44277 7.5095 6.78005 7.31423 7.08182C7.22547 7.21496 7.11009 7.37472 7.04796 7.43685C6.94145 7.53448 6.79056 8.22679 6.80831 8.49306C6.80831 8.55519 6.81719 8.73271 6.82606 8.87472C6.82606 9.03448 6.9237 9.23863 7.05683 9.37176C7.30535 9.62028 7.45624 9.87768 7.45624 10.0463C7.45624 10.1262 7.42961 10.1262 7.36748 10.0286C7.2876 9.91318 7.27873 9.91318 7.27873 10.0286C7.27873 10.1173 7.2521 10.1262 7.20772 10.0641C7.12784 9.93093 6.51541 9.7623 6.41778 9.8333C6.38228 9.8688 6.3734 9.85993 6.4089 9.81555C6.44441 9.77117 6.39115 9.62916 6.29352 9.48715C5.74322 8.70608 5.74322 7.24158 6.29352 6.64691C6.39115 6.5404 6.44441 6.38951 6.41778 6.30963C6.39115 6.22087 6.40003 6.20312 6.45328 6.27413C6.50654 6.34514 6.59529 6.31851 6.76393 6.16762C6.89707 6.05224 6.97695 5.93685 6.94145 5.89247C6.90595 5.85697 6.9237 5.85697 6.98583 5.89247C7.03908 5.9191 7.11009 5.91022 7.14559 5.85697C7.18109 5.80371 7.24322 5.78596 7.2876 5.81259C7.33198 5.84809 7.36748 5.82147 7.36748 5.77709C7.36748 5.72383 7.48287 5.67945 7.62488 5.67945C7.77577 5.67945 7.9089 5.64395 7.94441 5.5907C7.97103 5.54632 8.04204 5.52857 8.10417 5.54632C8.1663 5.56407 8.36157 5.59957 8.53908 5.6262ZM12.8349 8.87472C12.8438 8.87472 12.8438 9.09661 12.8438 9.36289C12.8349 9.62916 12.7994 9.85105 12.7639 9.85105C12.7196 9.85105 12.6574 9.92206 12.6308 10.0019C12.4977 10.3392 12.0361 10.7298 11.4237 11.0138L10.7846 11.3155H8.41482C6.24914 11.3155 6.02725 11.2978 5.88524 11.1558C5.73435 11.0049 5.73435 10.9871 5.94737 10.8274C6.07163 10.7386 6.18701 10.6765 6.20476 10.7031C6.22251 10.7209 6.29352 10.6942 6.35565 10.641C6.42666 10.5877 6.87932 10.5434 7.42961 10.5434C8.62784 10.5434 9.22251 10.4457 9.72843 10.1795C9.87932 10.0996 10.0302 10.0641 10.0657 10.0907C10.0923 10.1262 10.119 10.0729 10.119 9.99306C10.119 9.88656 10.1633 9.85105 10.2432 9.87768C10.3142 9.90431 10.3852 9.89543 10.403 9.85993C10.4474 9.75342 11.3438 9.14099 11.4503 9.14099C11.5036 9.14099 11.5302 9.10549 11.5036 9.06999C11.4858 9.03448 11.5657 8.99011 11.6988 8.98123C11.8231 8.97235 12.0095 8.91022 12.1071 8.83922C12.2403 8.75934 12.3734 8.74159 12.5598 8.79484C12.7018 8.83922 12.8261 8.87472 12.8349 8.87472Z" fill="black"/>
<path d="M11.5744 9.54149C11.5389 9.61249 11.4856 9.65687 11.4501 9.63025C11.4057 9.60362 11.3525 9.61249 11.3259 9.65687C11.2992 9.70125 11.4235 9.72788 11.601 9.719C11.8051 9.719 11.9383 9.66575 11.9649 9.58587C11.9915 9.47048 11.9827 9.47048 11.9028 9.58587C11.8229 9.70125 11.8051 9.70125 11.8051 9.55924C11.8051 9.37285 11.6454 9.3551 11.5744 9.54149Z" fill="black"/>
<path d="M7.19913 12.5854C7.137 12.6475 7.03937 12.683 6.97724 12.6653C6.92399 12.6475 6.72872 12.7718 6.5512 12.9582C6.24943 13.2511 6.23168 13.2955 6.34706 13.4552C6.47132 13.615 6.47132 13.615 6.4802 13.4641C6.4802 13.3398 6.52458 13.3132 6.65771 13.3576C6.76422 13.3931 6.83523 13.3753 6.83523 13.3132C6.83523 13.2599 6.87073 13.2333 6.91511 13.2599C7.03937 13.3398 7.82044 12.7718 7.79381 12.6209C7.7583 12.4523 7.34115 12.4256 7.19913 12.5854Z" fill="black"/>
<path d="M9.72019 12.7725C9.57818 12.8524 9.36516 13.0032 9.24978 13.1009C9.03676 13.2873 9.03676 13.2961 9.2054 13.3849C9.44505 13.518 10.4746 13.0476 10.4746 12.808C10.4746 12.6038 10.0841 12.5861 9.72019 12.7725Z" fill="black"/>
</svg>
