<svg width="15" height="15" viewBox="0 0 15 15" fill="none" xmlns="http://www.w3.org/2000/svg">
<path d="M9.73795 0.926529C8.93957 1.032 7.92344 1.67653 7.74199 2.19215C7.57263 2.67262 7.59682 2.68434 7.00408 2.05153C6.72586 1.75856 6.43553 1.52419 6.35086 1.52419C6.25408 1.52419 6.1694 1.45387 6.14521 1.37184C6.04844 1.10231 4.12505 1.18434 3.61699 1.48903C3.09682 1.80544 2.54037 2.74294 2.54037 3.32887C2.54037 4.18434 3.24199 5.41481 3.81053 5.55544C4.20973 5.64919 4.19763 5.93044 3.78634 6.0359C3.59279 6.07106 3.24199 6.30544 2.98795 6.53981C1.28231 8.12184 2.34682 10.5125 4.89924 10.8406C5.4315 10.8992 5.56457 10.8757 5.98795 10.6062C6.61699 10.1961 7.13715 9.71559 7.24602 9.4695C7.2944 9.32887 7.37908 9.30544 7.48795 9.36403C7.6936 9.49294 7.34279 11.0398 6.89521 12.0125C6.1936 13.5242 6.1936 13.5359 6.50811 13.7C6.78634 13.8406 7.25811 13.5711 7.25811 13.2664C7.25811 13.0906 7.47586 12.4109 7.74199 11.7781C7.93553 11.3211 7.98392 11.1101 8.0565 10.5125C8.15328 9.73903 8.14118 9.73903 8.61295 10.2195C9.82263 11.4382 11.988 11.2039 12.8347 9.76247C13.488 8.6609 13.3912 7.36012 12.5928 6.51637C12.2904 6.19997 11.7823 5.91872 11.5888 5.95387C11.3226 6.01247 11.5646 5.63747 12.0001 5.33278C12.2783 5.13356 12.5323 4.89919 12.5807 4.80544C12.8952 4.19606 12.9557 3.98512 12.9678 3.51637C13.0041 2.29762 12.3992 1.39528 11.2863 1.02028C10.9476 0.91481 10.5968 0.832779 10.5121 0.832779C10.4154 0.844498 10.0767 0.891373 9.73795 0.926529ZM11.4557 1.87575C12.3388 2.21559 12.4597 4.26637 11.6251 4.782C11.4557 4.88747 11.2863 5.00465 11.2501 5.03981C11.117 5.16872 10.0767 5.61403 9.5565 5.75465C9.25408 5.83669 8.93957 5.95387 8.84279 6.02419C8.55247 6.23512 8.8065 5.63747 9.26618 5.02809C9.66537 4.48903 9.65328 4.032 9.24199 3.90309C9.08473 3.85622 8.66134 4.67653 8.37102 5.56715L8.17747 6.15309L8.0807 4.64137C8.00811 3.45778 8.03231 3.07106 8.15328 2.82497C8.64924 1.92262 9.97989 1.30153 10.7662 1.60622C10.996 1.69997 11.3105 1.82887 11.4557 1.87575ZM6.12102 2.19215C6.77424 2.60231 7.16134 3.25856 7.50005 4.5945C7.87505 6.07106 7.81457 6.23512 7.14924 5.60231C6.85892 5.32106 6.5444 4.92262 6.45973 4.71169C6.26618 4.28981 6.21779 4.26637 5.97586 4.50075C5.69763 4.782 5.78231 5.157 6.22989 5.59059C6.47182 5.82497 6.62908 6.0359 6.60489 6.07106C6.52021 6.14137 5.35892 5.6609 4.95973 5.39137C4.79037 5.27419 4.54844 5.157 4.41537 5.11012C3.85892 4.93434 3.26618 4.09059 3.26618 3.4695C3.26618 3.04762 3.59279 2.37965 3.83473 2.29762C3.95569 2.25075 4.24602 2.12184 4.47586 1.99294C4.99602 1.71169 5.4194 1.75856 6.12102 2.19215ZM11.6855 6.66872C12.3025 7.10231 12.6654 8.0984 12.4355 8.6609C12.363 8.82497 12.2904 8.98903 12.2783 9.02419C12.0001 10.1843 10.2581 10.7468 9.29037 9.9734C8.28634 9.18825 7.94763 8.61403 8.0444 7.88747C8.18957 6.85622 8.18957 6.85622 8.74602 7.32497C9.2057 7.71169 9.67747 7.86403 9.67747 7.62965C9.67747 7.55934 9.43553 7.3484 9.13311 7.13747C8.61295 6.77419 8.49199 6.57497 8.66134 6.4109C8.70973 6.36403 9.32666 6.35231 10.0283 6.36403C11.1654 6.38747 11.3589 6.42262 11.6855 6.66872ZM6.07263 6.83278C5.62505 7.27809 5.60086 7.407 5.89118 7.68825C6.08473 7.86403 6.10892 7.86403 6.36295 7.55934C6.59279 7.27809 7.74199 6.70387 7.74199 6.86794C7.74199 6.90309 7.65731 7.11403 7.54844 7.36012C7.43957 7.5945 7.3307 7.92262 7.3065 8.07497C7.17344 8.7195 6.1694 9.79762 5.4436 10.0554C4.6815 10.3367 3.36295 9.63356 3.01215 8.77809C2.52828 7.54762 3.73795 6.4695 5.61295 6.45778L6.45973 6.44606L6.07263 6.83278Z" fill="black"/>
</svg>
