<svg width="15" height="15" viewBox="0 0 15 15" fill="none" xmlns="http://www.w3.org/2000/svg">
<path d="M4.35751 1.75836C4.26585 1.83094 4.15751 2.0003 4.13251 2.13739C4.01585 2.73417 4.00751 2.89546 4.08251 2.94385C4.13251 2.9761 4.14918 3.02449 4.13251 3.05675C4.10751 3.08901 4.08251 3.2503 4.06585 3.41159C4.05751 3.57288 4.01585 3.68578 3.98251 3.66159C3.89085 3.60514 3.59918 4.08901 3.49085 4.4761C3.38251 4.85514 3.36585 5.7261 3.44918 6.42772C3.50751 6.87127 3.49918 6.93578 3.38251 6.93578C3.30751 6.93578 3.24918 6.96804 3.24918 7.01643C3.24918 7.16159 3.21585 7.21804 3.06585 7.33901C2.90751 7.4761 2.62418 8.06481 2.72418 8.06481C2.76585 8.06481 2.74085 8.09707 2.67418 8.13739C2.60751 8.17772 2.54085 8.37127 2.52418 8.56481C2.45751 9.32288 2.44085 10.21 2.48251 10.2826C2.51585 10.3229 2.54085 10.4116 2.55751 10.4842C2.56585 10.5487 2.59918 10.6938 2.62418 10.8067C2.67418 11.0084 2.67418 11.0164 2.17418 11.0003C1.84085 11.0003 1.69085 11.0245 1.71585 11.0809C1.74085 11.1293 1.71585 11.1132 1.64918 11.0487C1.52418 10.9116 1.14918 10.8551 0.857513 10.9277C0.69918 10.96 0.657513 11.0164 0.682513 11.1858C0.715847 11.468 1.26585 11.5971 2.43251 11.5971C2.88251 11.6051 3.28251 11.6293 3.32418 11.6535C3.37418 11.6777 3.42418 11.6616 3.45751 11.6213C3.48251 11.5729 3.61585 11.589 3.79085 11.6616C3.94918 11.7261 4.20751 11.7745 4.36585 11.7745C4.78251 11.7745 4.91585 11.8471 4.91585 12.0729C4.91585 12.1777 4.94918 12.2503 4.98251 12.2261C5.02418 12.2019 5.03251 12.2906 5.01585 12.4277C4.98251 12.6535 4.97418 12.6535 4.85751 12.5245C4.75751 12.4116 4.74085 12.4035 4.77418 12.5084C4.80751 12.6051 4.76585 12.6293 4.55751 12.6051C4.40751 12.589 4.15751 12.5648 3.98251 12.5567C3.81585 12.5487 3.69085 12.5245 3.70751 12.5003C3.76585 12.4116 2.12418 12.5084 1.54085 12.6213C1.11585 12.71 0.74918 12.9116 0.74918 13.0729C0.74918 13.2906 0.87418 13.3229 1.35751 13.2342C1.59085 13.1858 1.88251 13.1293 1.99918 13.1132C2.11585 13.089 2.20751 13.0729 2.20751 13.0648C2.20751 12.9519 4.66585 13.0971 4.90751 13.218C4.99085 13.2664 5.08251 13.2826 5.10751 13.2503C5.15751 13.21 7.33251 13.1455 8.48251 13.1535C8.67418 13.1535 8.83251 13.1213 8.83251 13.0809C8.83251 13.0406 8.94918 13.0326 9.10751 13.0568C9.24918 13.089 9.52418 13.089 9.70751 13.0568C10.0575 12.9922 10.7242 13.0809 10.9992 13.2261C11.0825 13.2664 11.2158 13.3068 11.2908 13.3068C11.3658 13.3068 11.5742 13.3793 11.7658 13.468C11.9992 13.5729 12.1408 13.6051 12.2075 13.5487C12.2658 13.5084 12.3325 13.4922 12.3575 13.5245C12.3908 13.5487 12.4158 13.5245 12.4158 13.4519C12.4158 13.2342 11.5992 12.7422 11.1658 12.7019C11.1408 12.7019 11.0908 12.6777 11.0408 12.6535C10.8658 12.5648 9.95751 12.5406 8.74918 12.5971L8.19918 12.6213L8.22418 12.3551C8.23251 12.218 8.20751 12.0971 8.16585 12.0971C8.11585 12.0971 8.14918 12.0326 8.24085 11.9438C8.38251 11.8067 8.59085 11.7664 9.79085 11.6535C10.3908 11.5971 11.1992 11.5971 12.0242 11.6616C12.7825 11.718 12.8325 11.71 12.8325 11.5648C12.8325 11.4358 12.8492 11.4358 12.9158 11.5326C12.9992 11.6616 13.2742 11.5487 13.7075 11.218C14.0908 10.9277 13.8658 10.5971 13.4575 10.8551C13.3408 10.9277 13.2242 10.968 13.1908 10.9358C13.1658 10.9116 13.0992 10.9197 13.0492 10.96C12.9575 11.0326 12.2658 11.1938 11.8158 11.2503C11.4992 11.2826 11.5242 11.1616 11.8575 11.0003C11.9992 10.9277 12.1492 10.8309 12.1742 10.7906C12.1992 10.7503 12.2908 10.71 12.3658 10.6938C12.5158 10.6697 13.6658 9.62933 13.6658 9.51643C13.6658 9.35514 13.5575 9.19385 13.4492 9.19385C13.2908 9.19385 12.6158 9.64546 12.4242 9.88739C11.8242 10.6293 10.2575 11.3955 9.94918 11.0971C9.78251 10.9358 9.84085 10.8551 10.2908 10.6051C10.6825 10.3793 11.2908 9.7261 11.2158 9.60514C11.1908 9.56481 11.2158 9.51643 11.2742 9.49223C11.3992 9.44385 11.6242 8.59707 11.5408 8.46804C11.5158 8.42772 11.5325 8.38739 11.5908 8.38739C11.8158 8.38739 11.4408 7.12127 11.0992 6.74223C11.0242 6.65352 10.9992 6.60514 11.0492 6.63739C11.2075 6.7261 11.4075 5.31481 11.2992 4.83901C11.2825 4.77449 11.2408 4.56481 11.2075 4.37127C11.1658 4.16159 11.0492 3.93578 10.9242 3.80675C10.7158 3.60514 10.7075 3.56481 10.7992 3.26643C10.8575 3.06481 10.8658 2.88739 10.8158 2.79868C10.7742 2.70997 10.7742 2.66159 10.8325 2.66159C11.0158 2.66159 10.9242 2.01643 10.7075 1.81481C10.3908 1.5003 9.96585 1.60514 9.59918 2.08901C9.49085 2.2261 9.37418 2.32288 9.33251 2.29868C8.90751 2.04062 6.24918 1.94385 5.96585 2.16965C5.86585 2.2503 5.80751 2.25836 5.72418 2.18578C5.65751 2.13739 5.57418 2.12933 5.54085 2.16159C5.49918 2.19385 5.49918 2.17772 5.53251 2.12127C5.60751 1.99223 5.02418 1.6132 4.74918 1.6132C4.63251 1.6132 4.45751 1.67772 4.35751 1.75836ZM5.18251 2.35514C5.24085 2.45997 5.29085 2.6132 5.29085 2.70191C5.29085 2.87127 5.79918 2.91965 5.90751 2.75836C6.04085 2.55675 7.73251 2.49223 8.61585 2.65352C8.84085 2.69385 9.07418 2.70997 9.14085 2.68578C9.19918 2.66159 9.24918 2.68578 9.24918 2.73417C9.24918 2.78256 9.32418 2.82288 9.40751 2.82288C9.49918 2.82288 9.59918 2.8632 9.62418 2.90352C9.65751 2.95191 9.71585 2.96804 9.75751 2.93578C9.80751 2.90352 9.80751 2.85514 9.74918 2.78256C9.69085 2.70997 9.69918 2.65352 9.79085 2.58094C9.86585 2.52449 9.90751 2.42772 9.88251 2.37933C9.85751 2.31481 9.89918 2.29062 10.0075 2.31481C10.0908 2.33901 10.1658 2.31481 10.1658 2.26643C10.1658 2.1132 10.3992 2.26643 10.4492 2.45997C10.5242 2.73417 10.2658 3.33901 10.1242 3.2261C9.89085 3.04062 9.91585 3.4761 10.1492 3.70191C10.5325 4.07288 10.5908 4.16965 10.7158 4.69385C10.8242 5.12127 10.8158 5.83094 10.7075 6.12933C10.6992 6.15352 10.6575 6.29062 10.6242 6.43578C10.5742 6.62933 10.5408 6.67772 10.4908 6.59707C10.4492 6.54062 10.4158 6.53256 10.4158 6.57288C10.4158 6.62127 10.4658 6.70998 10.5158 6.75836C10.5992 6.83901 10.5992 6.87127 10.5158 6.92772C10.4408 6.96804 10.4658 7.01643 10.6075 7.08901C10.8492 7.20998 11.1825 8.54868 10.9825 8.54868C10.9408 8.54868 10.9158 8.59707 10.9325 8.64546C11.0075 9.02449 10.5992 9.85514 10.2242 10.0809C10.0075 10.21 9.98251 10.1535 10.1408 9.87933C10.3492 9.50836 10.3408 8.1132 10.1325 7.92772C9.99085 7.79868 9.98251 7.79868 10.0242 7.91965C10.0492 7.99223 10.0325 8.06481 9.99085 8.08094C9.94085 8.09707 9.89085 8.23417 9.86585 8.38739C9.64085 10.2664 9.24085 11.0245 8.37418 11.2664C7.69918 11.4519 4.71585 11.4438 4.52418 11.2584C4.49085 11.2342 4.43251 11.21 4.38251 11.21C4.33251 11.21 4.34918 11.2503 4.41585 11.2906C4.49085 11.339 4.49918 11.3713 4.44085 11.3713C4.39085 11.3713 4.32418 11.339 4.29085 11.2906C4.26585 11.2503 4.18251 11.2342 4.09918 11.2584C3.98251 11.2987 3.97418 11.2906 4.08251 11.218C4.19085 11.1374 4.19085 11.1213 4.09085 11.0567C3.99085 10.9922 4.02418 10.9519 4.25751 10.8309C4.99085 10.4519 6.02418 9.06481 5.83251 8.70998C5.70751 8.48417 5.73251 8.41965 5.87418 8.59707C5.98251 8.74223 5.99085 8.7261 5.99918 8.41159C5.99918 8.02449 5.93251 7.80675 5.82418 7.87127C5.78251 7.89546 5.74918 7.8632 5.74918 7.80675C5.74918 7.67772 5.45751 8.2261 5.27418 8.70191C5.19918 8.91159 5.07418 9.16159 4.99918 9.27449C4.91585 9.38739 4.84085 9.52449 4.82418 9.58094C4.75751 9.78256 3.49085 10.71 3.33251 10.6697C2.84918 10.5487 2.83251 8.90352 3.29918 8.00836C3.42418 7.77449 3.54918 7.58094 3.58251 7.58094C3.76585 7.58094 4.26585 6.83901 4.21585 6.64546C4.18251 6.53256 4.12418 6.46804 4.08251 6.49223C4.04085 6.51643 3.96585 6.40352 3.92418 6.23417C3.68251 5.39546 3.98251 4.16965 4.50751 3.85514C4.84085 3.66159 4.92418 3.43578 4.70751 3.35514C4.42418 3.2503 4.57418 2.17772 4.88251 2.17772C4.99918 2.17772 5.11585 2.2503 5.18251 2.35514ZM7.17418 11.9842C7.19085 11.968 7.21585 12.0809 7.22418 12.2342C7.24085 12.5003 7.07418 12.7906 6.97418 12.6858C6.94918 12.6616 6.81585 12.6777 6.69085 12.718C6.39918 12.8229 6.09085 12.718 6.09918 12.5245C6.09918 12.4438 6.08251 12.2826 6.04918 12.1697C5.99085 11.96 5.99085 11.96 6.41585 11.9761C6.64918 11.9842 6.85751 11.96 6.88251 11.9197C6.90751 11.8793 6.97418 11.8793 7.03251 11.9277C7.09085 11.9761 7.15751 12.0003 7.17418 11.9842Z" fill="black"/>
<path d="M5.87471 3.87838C5.41637 3.99934 4.79137 4.68483 4.70804 5.16063C4.61637 5.68483 4.81637 6.4187 5.09971 6.62838C5.23304 6.73321 5.39137 6.85418 5.44137 6.90257C5.84971 7.25741 6.74971 7.22515 6.74971 6.85418C6.74971 6.75741 6.39971 6.61225 6.09971 6.57999C5.99971 6.56386 5.86637 6.51547 5.81637 6.46709C5.75804 6.41063 5.67471 6.37031 5.62471 6.37031C5.50804 6.37031 5.26637 5.90257 5.24137 5.64451C5.16637 4.89451 5.59971 4.32192 6.24971 4.28967C6.44971 4.27354 6.58304 4.3058 6.58304 4.35418C6.58304 4.40257 6.61637 4.42676 6.65804 4.40257C6.69137 4.37838 6.79137 4.42676 6.87471 4.51547C6.95804 4.60418 7.05804 4.65257 7.10804 4.62031C7.14971 4.59612 7.16637 4.61225 7.14137 4.65257C7.10804 4.70096 7.18304 4.83805 7.30804 4.95902C7.52471 5.16063 7.54137 5.1687 7.64137 5.02354C8.24137 4.20902 8.79971 4.04773 9.33304 4.53967C9.68304 4.86225 9.70804 4.9187 9.70804 5.49128C9.70804 6.0558 9.43304 6.48321 8.89971 6.72515C8.49971 6.9187 8.44137 7.02354 8.62471 7.20902C8.79137 7.37031 9.08304 7.26547 9.62471 6.85418C10.458 6.21709 10.483 4.90257 9.67471 4.16063C9.51637 4.01547 9.37471 3.95096 9.29137 3.98321C9.21637 4.00741 9.17471 3.99934 9.19971 3.95902C9.32471 3.76547 8.54137 3.73321 8.26637 3.9187C8.16637 3.98321 8.08304 4.01547 8.08304 3.98321C8.08304 3.95096 8.01637 3.98321 7.94137 4.0558C7.75804 4.20902 7.33304 4.32192 7.33304 4.21709C7.33304 3.95096 6.40804 3.74128 5.87471 3.87838Z" fill="black"/>
<path d="M6.18308 5.20155C5.75808 5.42736 5.75808 5.6451 6.17475 5.84671C6.39141 5.95961 6.41641 5.95961 6.49975 5.81445C6.60808 5.61284 6.60808 5.40316 6.49141 5.40316C6.44975 5.40316 6.43308 5.36284 6.45808 5.32252C6.48308 5.27413 6.46641 5.24187 6.41641 5.24187C6.36641 5.24187 6.34975 5.20155 6.37475 5.16123C6.43308 5.06445 6.43308 5.06445 6.18308 5.20155Z" fill="black"/>
<path d="M8.59962 5.2579C8.40796 5.44338 8.47462 5.87887 8.71629 5.93532C9.10796 6.03209 9.32462 5.51596 8.98296 5.29016C8.75796 5.13693 8.72462 5.13693 8.59962 5.2579Z" fill="black"/>
<path d="M7.38172 5.74951C7.04839 6.24951 7.03172 6.37854 7.27339 6.58015C7.56506 6.82209 7.72339 6.82209 7.92339 6.59628C8.13172 6.37047 8.12339 6.23338 7.89839 5.9108C7.64839 5.57209 7.52339 5.53176 7.38172 5.74951Z" fill="black"/>
<path d="M8.47435 8.68623C8.44102 8.71042 8.41602 8.82333 8.41602 8.92817C8.41602 9.08139 8.44935 9.10558 8.68268 9.08946C8.99102 9.06526 9.05768 8.94429 8.87435 8.75881C8.73268 8.62171 8.56602 8.58946 8.47435 8.68623Z" fill="black"/>
<path d="M7.15719 9.24178C6.94886 9.49178 7.26552 9.75791 7.54052 9.56436C7.69886 9.45146 7.69886 9.44339 7.54886 9.2821C7.35719 9.08049 7.30719 9.07242 7.15719 9.24178Z" fill="black"/>
<path d="M7.9658 10.0886C7.84913 10.1773 7.70747 10.3225 7.6658 10.4112C7.5158 10.6692 7.78247 10.6854 8.12413 10.4434C8.44913 10.2015 8.50747 10.0402 8.2408 10.1047C8.10747 10.137 8.0908 10.1289 8.17413 10.0321C8.3158 9.87084 8.22413 9.89504 7.9658 10.0886Z" fill="black"/>
<path d="M6.77436 10.2022C6.54103 10.3635 6.5827 10.6055 6.84103 10.6055C6.99103 10.6055 7.04936 10.5571 7.06603 10.4119C7.1077 10.1458 6.9827 10.0571 6.77436 10.2022Z" fill="black"/>
<path d="M11.082 12.0978C11.082 12.1865 11.1404 12.2671 11.207 12.2671C11.2737 12.2752 11.382 12.2832 11.4404 12.2913C11.4904 12.2994 11.5904 12.3478 11.6487 12.3961C11.707 12.4526 11.8237 12.509 11.8987 12.5171C12.1737 12.5332 12.4154 12.6139 12.682 12.751C12.7654 12.7913 12.907 12.8236 12.9987 12.8236C13.0904 12.8236 13.1654 12.8558 13.1654 12.8881C13.1654 12.9203 13.2487 12.9607 13.3487 12.9607C13.457 12.9687 13.5487 13.0171 13.5654 13.0655C13.607 13.1784 13.832 13.1703 13.832 13.0413C13.832 12.8397 13.2487 12.3639 12.932 12.2994C12.832 12.2832 12.6904 12.2349 12.607 12.1945C12.457 12.1139 11.482 11.9365 11.2237 11.9365C11.1404 11.9365 11.082 12.001 11.082 12.0978Z" fill="black"/>
</svg>
