<svg width="15" height="15" viewBox="0 0 15 15" fill="none" xmlns="http://www.w3.org/2000/svg">
<path d="M4.16033 1.70639C4.0499 1.72363 3.98548 1.77535 4.01309 1.82708C4.0499 1.8788 4.01309 1.8788 3.88426 1.81846C3.70941 1.73225 3.22168 1.86156 3.22168 1.99949C3.22168 2.02535 3.13886 2.03397 3.03763 2.00811C2.88119 1.96501 2.85358 2.00811 2.85358 2.23225C2.85358 2.55121 3.01002 2.87018 3.12965 2.80121C3.17567 2.77535 3.23088 2.79259 3.26769 2.84432C3.2953 2.88742 3.2861 2.93053 3.23088 2.93053C3.07444 2.93053 3.64499 3.64604 4.02229 3.9219C4.52843 4.29259 5.34745 4.6719 5.64192 4.6719C5.77996 4.6719 5.87199 4.69777 5.85358 4.73225C5.82597 4.76673 6.05603 4.79259 6.35972 4.79259C7.00389 4.78397 7.08671 4.8357 6.76462 5.03397C6.63579 5.11156 6.55297 5.21501 6.58057 5.25811C6.61738 5.30984 6.58978 5.34432 6.53456 5.34432C6.47935 5.34432 6.46094 5.39604 6.49775 5.44777C6.54376 5.53397 6.53456 5.53397 6.44254 5.45639C6.35051 5.3788 6.24929 5.40466 5.99162 5.59432C5.58671 5.88742 5.32904 5.99087 5.39346 5.82708C5.42107 5.75811 5.39346 5.68053 5.32904 5.63742C5.26462 5.60294 5.23702 5.61156 5.27383 5.6719C5.31984 5.72363 5.26462 5.74087 5.14499 5.71501C4.99775 5.68053 4.98855 5.64604 5.08057 5.59432C5.20021 5.52535 5.05297 5.48225 4.72168 5.49087C4.65726 5.49949 4.60205 5.46501 4.60205 5.4219C4.60205 5.30984 3.85665 5.39604 3.77383 5.51673C3.73702 5.57708 3.65419 5.60294 3.59898 5.56846C3.55297 5.53397 3.42413 5.5857 3.32291 5.68053C3.22168 5.77535 3.12965 5.82708 3.10205 5.80984C3.03763 5.74087 2.01616 6.73225 2.07137 6.80984C2.09898 6.84432 2.05297 6.90466 1.97935 6.93053C1.84131 6.97363 1.61125 7.38742 1.63886 7.51673C1.64806 7.55984 1.62045 7.5857 1.56524 7.5857C1.51923 7.5857 1.45481 7.73225 1.418 7.90466C1.38119 8.0857 1.33518 8.26673 1.30757 8.31846C1.27996 8.36156 1.24315 8.45639 1.23395 8.53397C1.21554 8.60294 1.16953 8.80984 1.12352 8.98225C1.0591 9.19777 1.0683 9.32708 1.14192 9.40466C1.21554 9.48225 1.21554 9.49087 1.13272 9.44777C0.948673 9.35294 0.985483 9.62018 1.16953 9.74949C1.32597 9.86156 1.32597 9.86156 1.19714 9.69777C1.0591 9.53397 1.0591 9.53397 1.32597 9.68915C1.76769 9.95639 3.00082 9.79259 4.09591 9.31846C4.72168 9.04259 5.191 8.66328 5.09898 8.51673C5.06217 8.45639 5.08057 8.44777 5.13579 8.48225C5.24622 8.54259 5.68794 7.98225 5.74315 7.70639C5.76156 7.61156 5.84438 7.39604 5.9088 7.23225C5.98242 7.07708 6.04683 6.9219 6.05603 6.89604C6.09284 6.65466 6.48855 6.00811 6.75542 5.74087C6.93947 5.55984 7.08671 5.38742 7.08671 5.35294C7.08671 5.31846 7.21554 5.22363 7.37199 5.13742C7.53763 5.05121 7.73088 4.91328 7.82291 4.8357C8.12659 4.55984 8.45788 4.31846 8.66953 4.21501C8.77996 4.16328 9.00082 4.01673 9.13886 3.91328C9.2861 3.80121 9.44254 3.70639 9.47935 3.70639C9.56217 3.70639 9.49775 3.97363 9.38732 4.05121C9.32291 4.10294 8.83518 5.48225 8.83518 5.6288C8.82597 5.76673 8.47628 6.18915 8.46708 6.05984C8.46708 5.93053 7.54683 5.97363 7.45481 6.12018C7.418 6.18053 7.34438 6.20639 7.28916 6.18053C7.18794 6.11156 6.87505 6.41328 6.96708 6.49087C6.99469 6.52535 6.97628 6.55122 6.92107 6.55122C6.85665 6.55122 6.81064 6.61156 6.81064 6.68053C6.81064 6.74949 6.77383 6.80984 6.72781 6.80984C6.60818 6.80984 6.55297 7.20639 6.65419 7.37018C6.71861 7.48225 6.70941 7.50811 6.63579 7.46501C6.32291 7.28397 6.64499 8.18915 6.96708 8.40466C7.18794 8.55122 7.97935 8.64604 8.05297 8.53397C8.08057 8.48225 8.191 8.44777 8.29223 8.44777C8.48548 8.44777 8.48548 8.62018 8.30143 8.94777C8.23702 9.05122 8.20941 9.18915 8.24622 9.24087C8.28303 9.30122 8.27383 9.30984 8.20941 9.27535C8.02536 9.17191 8.08057 9.75811 8.27383 10.034C8.36585 10.1633 8.5407 10.3185 8.66033 10.3788C8.99162 10.534 8.98242 10.6805 8.63272 10.6891C8.02536 10.6891 7.86892 10.7323 7.89653 10.8874C7.91493 10.9823 7.87812 11.0167 7.77689 10.9823C7.70327 10.9478 7.56524 10.9823 7.47321 11.0426C7.33518 11.1547 7.32597 11.146 7.4364 11.0167C7.51002 10.9391 7.53763 10.8271 7.50082 10.7754C7.46401 10.7236 7.49162 10.6978 7.55603 10.7064C7.62045 10.7236 7.67567 10.6891 7.68487 10.646C7.68487 10.5943 7.73088 10.4823 7.7861 10.3874C7.98855 10.0254 7.93334 9.6288 7.64806 9.32708C7.49162 9.16328 7.32597 9.05984 7.27076 9.09432C7.21554 9.1288 7.18794 9.10294 7.19714 9.03397C7.21554 8.97363 7.15113 8.93053 7.0683 8.93053C6.97628 8.93915 6.92107 8.91328 6.94867 8.8788C7.0499 8.72363 6.59898 8.69777 6.15726 8.8357C5.82597 8.93915 5.66033 9.05122 5.58671 9.21501C5.5315 9.3357 5.43947 9.46501 5.39346 9.49087C5.27383 9.57708 5.25542 10.3271 5.37505 10.6116C5.43027 10.7495 5.58671 10.9133 5.72475 10.9736C5.87199 11.0254 5.98242 11.1029 5.98242 11.146C5.98242 11.1805 6.06524 11.1719 6.16646 11.1202C6.3137 11.0426 6.36892 11.0512 6.41493 11.1633C6.46094 11.2754 6.47935 11.284 6.54376 11.1891C6.60818 11.0943 6.62659 11.0943 6.62659 11.1891C6.62659 11.2754 6.70941 11.2926 6.91186 11.2495C7.14192 11.1978 7.18794 11.215 7.12352 11.3012C6.93027 11.6029 6.89346 12.7064 7.07751 12.8616C7.17873 12.9564 7.18794 12.9478 7.13272 12.8443C7.08671 12.7667 7.09591 12.7409 7.14192 12.784C7.18794 12.8271 7.23395 12.896 7.23395 12.9391C7.24315 12.9823 7.25235 13.0598 7.26156 13.1116C7.26156 13.1547 7.45481 13.2754 7.68487 13.3702C8.5407 13.7236 9.48855 13.3012 9.62659 12.4995C9.691 12.146 9.81064 12.0771 10.0223 12.2581C10.1235 12.3529 10.1327 12.3443 10.0775 12.2409C10.0223 12.1374 10.0315 12.1288 10.1235 12.215C10.2063 12.284 10.2984 12.2926 10.418 12.2323C10.5376 12.1719 10.5836 12.1805 10.5836 12.2581C10.5836 12.3357 10.6113 12.3357 10.6757 12.2409C10.7217 12.1719 10.7861 12.1202 10.8137 12.1288C11.1174 12.2667 11.7616 11.5771 11.8168 11.0512C11.8536 10.7667 11.8076 10.6288 11.5867 10.3443C11.3198 9.99949 11.2738 9.97363 10.8597 9.96501C10.6665 9.95639 10.6297 9.91328 10.6297 9.68053C10.6297 9.53397 10.6573 9.43053 10.7033 9.45639C10.7401 9.47363 10.7677 9.41328 10.7677 9.31846C10.7677 9.21501 10.7309 9.13742 10.6757 9.13742C10.6297 9.13742 10.5836 9.09432 10.5836 9.04259C10.5836 8.99949 10.6205 8.98225 10.6757 9.00811C10.7309 9.03397 10.7401 8.99949 10.7125 8.93053C10.6849 8.85294 10.6113 8.81846 10.556 8.85294C10.5008 8.88742 10.4916 8.86156 10.5376 8.80122C10.7125 8.52535 9.80143 7.98225 9.26769 8.05122C8.95481 8.09432 8.918 8.0857 9.04683 7.99087C9.23088 7.87018 9.24929 7.59432 9.15726 6.73225C9.11125 6.29259 9.12045 5.99949 9.20327 5.74087C9.35972 5.29259 9.47935 5.15466 9.47935 5.43915C9.47935 5.55122 9.54376 5.74087 9.62659 5.84432C9.70941 5.95639 9.75542 6.12018 9.72781 6.21501C9.70021 6.31846 9.71861 6.36156 9.78303 6.31846C9.84745 6.28397 9.85665 6.31846 9.81064 6.43053C9.73702 6.61156 9.72781 6.63742 9.74622 6.79259C9.74622 6.85294 9.78303 6.88742 9.82904 6.87018C9.86585 6.84432 9.90266 6.9219 9.91186 7.04259C9.93027 7.43915 10.8873 8.1288 11.2646 8.03397C11.3014 8.01673 11.3843 8.04259 11.4487 8.0857C11.6327 8.23225 12.4886 8.3788 12.9947 8.35294C13.2616 8.34432 13.556 8.36156 13.6481 8.40466C14.2278 8.63742 14.0622 7.49949 13.3444 6.27535C13.2892 6.18915 13.2524 6.06846 13.2524 6.00811C13.2524 5.76673 12.3873 5.00811 12.2125 5.09432C12.102 5.15466 12.0744 5.14604 12.1113 5.05984C12.1849 4.87018 11.8352 4.64604 11.4487 4.63742C11.0714 4.6288 10.9425 4.65466 10.3444 4.91328C9.98548 5.06846 9.96708 5.06846 9.86585 4.90466C9.64499 4.5857 9.92107 3.62018 10.2708 3.43915C10.3904 3.38742 10.464 3.30121 10.4364 3.26673C10.4088 3.22363 10.4916 3.1719 10.6205 3.13742C10.7493 3.11156 10.9057 3.03397 10.9609 2.96501C11.0346 2.8788 11.099 2.87018 11.1358 2.93053C11.1726 2.98225 11.3106 2.93915 11.5039 2.80121C11.6787 2.68053 11.8904 2.5857 11.9916 2.5857C12.0836 2.5857 12.1389 2.55121 12.1113 2.51673C12.0928 2.48225 12.1573 2.43915 12.2677 2.43915C12.4241 2.4219 12.4425 2.43915 12.3321 2.49949C12.0652 2.65466 12.3045 2.5857 12.7094 2.38742C13.1787 2.15466 13.2892 1.79259 12.9119 1.74087C12.7922 1.72363 12.7002 1.75811 12.7002 1.81846C12.7002 1.8788 12.6726 1.90466 12.645 1.8788C12.5438 1.78397 11.2002 2.24949 11.0898 2.41328C11.053 2.46501 10.9886 2.48225 10.9425 2.44777C10.8045 2.37018 9.6634 2.85294 9.6634 2.98225C9.6634 3.04259 9.61738 3.12018 9.55297 3.15466C9.48855 3.19777 9.47935 3.18053 9.52536 3.11156C9.59898 2.99087 9.20327 3.1719 9.10205 3.30984C9.02843 3.39604 8.65113 3.29259 8.65113 3.18915C8.65113 3.14604 8.45788 3.00811 8.21861 2.8788C7.97015 2.74949 7.71248 2.5857 7.62045 2.52535C7.53763 2.45639 7.418 2.38742 7.34438 2.3788C7.27996 2.37018 7.0591 2.27535 6.85665 2.18053C6.65419 2.07708 6.40573 1.98225 6.3045 1.96501C6.20327 1.95639 6.10205 1.91328 6.07444 1.88742C5.99162 1.79259 4.54683 1.65466 4.16033 1.70639ZM4.95174 2.18915C5.01616 2.22363 5.09898 2.24087 5.12659 2.21501C5.14499 2.18915 5.34745 2.21501 5.5683 2.28397C5.78916 2.34432 5.99162 2.37018 6.01922 2.34432C6.04683 2.32708 6.12965 2.35294 6.21248 2.41328C6.2953 2.47363 6.37812 2.49949 6.40573 2.47363C6.50695 2.3788 8.00696 3.36156 8.00696 3.52535C8.00696 3.57708 8.08057 3.59432 8.1726 3.55984C8.25542 3.53397 8.21861 3.5857 8.08057 3.68915C7.95174 3.79259 7.8045 3.8788 7.75849 3.8788C7.72168 3.8788 7.74929 3.8357 7.82291 3.78397C7.93334 3.70639 7.92413 3.69777 7.75849 3.73225C7.64806 3.75811 7.53763 3.72363 7.51002 3.66328C7.47321 3.56846 6.98548 3.45639 6.42413 3.39604C6.33211 3.39604 6.19407 3.3357 6.11125 3.26673C6.02843 3.20639 5.918 3.14604 5.85358 3.13742C5.35665 3.04259 4.7861 2.8788 4.7861 2.82708C4.7861 2.78397 4.74008 2.75811 4.68487 2.75811C4.63886 2.75811 4.62045 2.80121 4.64806 2.85294C4.68487 2.89604 4.55603 2.87018 4.35358 2.79259C4.16033 2.71501 3.93947 2.64604 3.85665 2.63742C3.73702 2.63742 3.71861 2.59432 3.78303 2.43915C3.84745 2.28397 3.82904 2.25811 3.70021 2.29259C3.57137 2.3357 3.56217 2.32708 3.6818 2.24949C3.75542 2.20639 3.91186 2.18053 4.02229 2.20639C4.13272 2.23225 4.28916 2.22363 4.37199 2.18053C4.54683 2.0857 4.7861 2.09432 4.95174 2.18915ZM5.01616 3.35294C5.191 3.39604 5.33824 3.41328 5.33824 3.38742C5.33824 3.36156 5.40266 3.38742 5.48548 3.45639C5.60511 3.54259 5.64192 3.54259 5.71554 3.43915C5.76156 3.37018 5.79837 3.36156 5.79837 3.41328C5.79837 3.55984 6.27689 3.71501 7.14192 3.84432C7.74929 3.93053 7.89653 4.04259 7.59284 4.18915C7.45481 4.25811 7.17873 4.30984 6.97628 4.30984C6.70941 4.30984 6.63579 4.3357 6.6818 4.41328C6.73702 4.49949 6.71861 4.49949 6.61738 4.43053C6.54376 4.3788 6.40573 4.3357 6.3045 4.3357C6.03763 4.31846 5.24622 4.05984 4.89653 3.87018C4.73088 3.78397 4.52843 3.70639 4.45481 3.70639C4.38119 3.70639 4.33518 3.6719 4.36278 3.6288C4.39039 3.59432 4.33518 3.49087 4.23395 3.40466C3.96708 3.1719 4.01309 3.11156 4.37199 3.19777C4.54683 3.24087 4.84131 3.30984 5.01616 3.35294ZM11.1726 5.18915C11.1358 5.24087 11.145 5.25811 11.2094 5.22363C11.2646 5.19777 11.4211 5.21501 11.5683 5.27535C11.7063 5.32708 11.8536 5.37018 11.8996 5.36156C11.9364 5.35294 11.9548 5.3788 11.9456 5.4219C11.9272 5.46501 12.0652 5.60294 12.2401 5.73225C12.4149 5.85294 12.553 5.98225 12.5438 6.01673C12.5346 6.05122 12.5898 6.10294 12.6818 6.13742C12.7646 6.1719 12.8014 6.19777 12.7646 6.19777C12.7186 6.20639 12.7738 6.34432 12.8751 6.51673C13.0683 6.82708 13.4456 7.77535 13.3904 7.82708C13.326 7.89604 12.4978 7.88742 12.4517 7.81846C12.4241 7.77535 12.3229 7.76673 12.2217 7.78397C11.9548 7.85294 11.0346 7.52535 10.7125 7.24949C10.2524 6.85294 10.0223 6.0857 10.4456 6.34432C10.5744 6.4219 10.6757 6.44777 10.6757 6.41328C10.6757 6.37018 10.7125 6.3788 10.7493 6.4219C10.8137 6.52535 11.7247 6.78397 12.1941 6.85294L12.4701 6.88742L12.2217 6.75811C12.0744 6.68915 11.964 6.57708 11.964 6.51673C11.964 6.3788 10.9609 5.96501 10.7493 6.01673C10.7033 6.02535 10.6757 5.99087 10.6757 5.94777C10.6757 5.89604 10.6205 5.86156 10.5468 5.86156C10.4824 5.86156 10.372 5.80122 10.3076 5.73225C10.1879 5.59432 10.5376 5.24087 10.8413 5.20639C10.9149 5.18915 10.9886 5.16328 11.0254 5.13742C11.1174 5.04259 11.237 5.0857 11.1726 5.18915ZM4.92413 6.03397C4.99775 6.0857 5.09898 6.11156 5.15419 6.07708C5.20021 6.05122 5.24622 6.05984 5.24622 6.10294C5.24622 6.20639 4.57444 6.77535 4.49162 6.74949C4.45481 6.73225 4.33518 6.84432 4.21554 6.98225C4.10511 7.1288 3.96708 7.24087 3.91186 7.24087C3.74622 7.24087 2.52229 8.50811 2.60511 8.5857C2.62352 8.60294 2.87199 8.46501 3.15726 8.27535C3.43334 8.0857 3.70941 7.93053 3.75542 7.93053C3.80143 7.93053 3.91186 7.84432 4.01309 7.74949C4.10511 7.64604 4.33518 7.47363 4.51002 7.37018C4.68487 7.25811 4.91493 7.09432 5.02536 6.99949C5.29223 6.75811 5.61432 6.6719 5.61432 6.84432C5.61432 6.91328 5.57751 6.99087 5.5315 7.02535C5.48548 7.05122 5.39346 7.20639 5.33824 7.3788C5.21861 7.70639 5.1818 7.74949 4.60205 8.35294C4.39959 8.55984 4.26156 8.75811 4.28916 8.80122C4.31677 8.84432 4.27076 8.85294 4.19714 8.82708C4.12352 8.80122 3.87505 8.86156 3.64499 8.96501C3.24929 9.1288 2.49469 9.30122 1.97015 9.3357C1.84131 9.34432 1.69407 9.41328 1.64806 9.48225C1.56524 9.59432 1.55603 9.5857 1.60205 9.45639C1.62965 9.3788 1.62045 9.30984 1.57444 9.30984C1.45481 9.30984 1.83211 8.1288 2.08057 7.71501C2.20021 7.51673 2.27383 7.32708 2.24622 7.30984C2.15419 7.21501 3.56217 5.99087 3.83824 5.9219C4.11432 5.85294 4.7861 5.9219 4.92413 6.03397ZM8.35665 6.53397C8.37505 6.5857 8.30143 6.78397 8.20021 6.97363C7.98855 7.35294 7.95174 7.6719 8.10818 7.6719C8.15419 7.6719 8.1726 7.6288 8.14499 7.5857C8.11738 7.53397 8.12659 7.49949 8.1726 7.49949C8.21861 7.49949 8.31984 7.34432 8.40266 7.15466C8.59591 6.68915 8.70634 6.72363 8.73395 7.24087C8.75235 7.73225 8.39346 8.20639 8.04376 8.14604C7.95174 8.1288 7.7861 8.11156 7.67567 8.11156C7.0591 8.0857 6.87505 7.30122 7.37199 6.77535C7.51922 6.61156 7.70327 6.49087 7.77689 6.51673C7.84131 6.54259 7.92413 6.52535 7.95174 6.48225C8.02536 6.37018 8.31064 6.40466 8.35665 6.53397ZM9.81064 8.52535C9.77383 8.56846 9.79223 8.62018 9.83824 8.63742C9.95788 8.68053 10.2984 9.39604 10.1879 9.37018C10.1419 9.36156 10.0591 9.48225 10.0131 9.63742C9.92107 9.96501 9.691 10.0771 9.21248 10.0254C8.82597 9.98225 8.85358 10.0081 8.80757 9.74087C8.77996 9.62018 8.75235 9.48225 8.73395 9.43915C8.72475 9.38742 8.78916 9.18915 8.88119 8.99949C9.02843 8.69777 9.11125 8.62018 9.42413 8.55122C9.63579 8.50811 9.81064 8.46501 9.82904 8.45639C9.84745 8.45639 9.83824 8.48225 9.81064 8.52535ZM6.86585 9.43915C6.90266 9.50811 6.95788 9.55122 6.99469 9.52535C7.03149 9.50811 7.13272 9.55984 7.22475 9.65466C7.59284 10.034 7.0683 10.6891 6.40573 10.6891C5.9272 10.6891 5.67873 10.2667 5.84438 9.75811C5.97321 9.40466 6.75542 9.15466 6.86585 9.43915ZM11.1358 10.6029C11.3566 10.8098 11.3659 10.8788 11.1634 11.2754C10.8965 11.8185 10.7953 11.8702 10.0959 11.8185C9.83824 11.8012 9.64499 11.2926 9.77383 10.9736C9.97628 10.465 10.7677 10.2581 11.1358 10.6029ZM9.20327 12.0167C9.20327 12.215 8.67873 12.8357 8.43027 12.9305C8.191 13.0167 7.45481 12.5857 7.45481 12.3616C7.45481 12.1719 7.67567 11.4736 7.72168 11.4995C7.75849 11.5254 7.90573 11.4823 8.04376 11.4219C8.191 11.3529 8.33824 11.3098 8.37505 11.3357C8.42107 11.3616 8.48548 11.3357 8.52229 11.284C8.60511 11.1633 9.20327 11.7926 9.20327 12.0167Z" fill="black"/>
<path d="M2.62344 12.2059C1.85043 12.749 1.63878 12.9903 1.76761 13.1886C1.86884 13.3266 1.87804 13.3266 2.06209 13.18C2.17252 13.0938 2.30135 13.0162 2.34736 13.0076C2.40258 12.999 2.51301 12.9128 2.60503 12.8179C2.68786 12.7231 2.76148 12.6714 2.76148 12.6972C2.76148 12.7317 2.8443 12.68 2.94552 12.5852C3.04675 12.4903 3.12957 12.3697 3.12957 12.3266C3.12957 12.2748 3.18479 12.249 3.24921 12.2576C3.30442 12.2748 3.35043 12.2317 3.34123 12.1714C3.32283 12.1197 3.37804 12.0679 3.46086 12.0679C3.54368 12.0679 3.5897 12.0162 3.57129 11.9559C3.48847 11.7403 3.15718 11.8266 2.62344 12.2059Z" fill="black"/>
<path d="M4.73152 12.0947C4.299 12.3878 3.58121 13.0343 3.63643 13.0861C3.65483 13.1033 3.59041 13.1981 3.49839 13.3016C3.37876 13.4223 3.34195 13.5085 3.40636 13.5775C3.45238 13.6378 3.47078 13.7068 3.43397 13.7326C3.40636 13.7671 3.45238 13.793 3.5536 13.793C3.64563 13.793 3.82048 13.6895 3.94011 13.5516C4.35422 13.1033 4.97078 12.5085 5.26526 12.2843C5.47692 12.1206 5.53213 12.043 5.44011 12.0085C5.34808 11.974 5.33888 11.9481 5.4309 11.8964C5.50452 11.8533 5.46771 11.8275 5.32048 11.8361C5.19164 11.8447 4.92477 11.9654 4.73152 12.0947Z" fill="black"/>
</svg>
