<svg width="15" height="15" viewBox="0 0 15 15" fill="none" xmlns="http://www.w3.org/2000/svg">
<path d="M4.57566 1.4143C4.12566 1.60396 3.75066 2.24189 3.75066 2.75913C3.75066 2.94879 3.63816 3.10396 3.52566 3.10396C3.03816 3.1212 1.55691 4.29361 1.23816 4.9143C0.769409 5.8281 0.900659 7.19017 1.53816 7.96603L2.02566 8.55223L1.38816 9.03499C0.244409 9.87982 0.600659 11.7419 2.19441 13.0867C3.18816 13.9315 3.26316 13.966 4.36941 14.0005C7.05066 14.0695 8.85066 13.9488 9.45066 13.6729C9.76941 13.5178 10.2382 13.3798 10.5007 13.3626C12.9944 13.1729 14.2319 10.104 12.8444 7.58672L12.3944 6.75913L12.9382 6.67292C14.5319 6.36258 14.8132 3.44879 13.3507 2.20741C11.7194 0.793614 9.61941 1.05223 8.10066 2.84534C7.74441 3.25913 7.70691 3.25913 7.20066 3.01775C6.90066 2.87982 6.48816 2.75913 6.26316 2.75913C5.94441 2.75913 5.88816 2.67292 5.96316 2.27637C6.09441 1.44879 5.41941 1.03499 4.57566 1.4143ZM5.43816 2.01775C5.43816 2.44879 5.21316 2.69017 4.74441 2.79361C4.21941 2.9143 4.14441 2.4143 4.61316 2.00051C5.00691 1.63844 5.43816 1.65568 5.43816 2.01775ZM12.1694 1.98327C13.5757 2.63844 14.2132 4.24189 13.5757 5.46603C13.2569 6.03499 13.1444 6.1212 12.5632 6.1212C11.8132 6.1212 11.5319 5.60396 12.0944 5.24189C12.2632 5.1212 12.3569 4.94879 12.2819 4.84534C12.0757 4.51775 11.6257 4.63844 11.4194 5.06948C11.2319 5.43154 11.3257 5.70741 12.0194 7.01775C13.4257 9.60396 13.1257 11.7936 11.2319 12.6902C10.5194 13.0178 10.4632 12.966 10.6882 12.2246C11.1194 10.8281 10.8194 9.56948 9.75066 8.37982C9.22566 7.79361 9.03816 7.44879 9.09441 7.17292C9.15066 6.98327 9.22566 6.37982 9.26316 5.86258C9.30066 5.34534 9.41316 4.69017 9.54441 4.43154C9.86316 3.67292 9.80691 2.98327 9.37566 2.70741C8.43816 2.10396 11.0257 1.43154 12.1694 1.98327ZM9.18816 3.27637C9.33816 3.53499 9.30066 3.77637 9.07566 4.25913C8.90691 4.6212 8.75691 5.37982 8.73816 5.94879C8.71941 6.74189 8.60691 7.1212 8.26941 7.56948C7.80066 8.15568 7.80066 8.15568 8.21316 8.06948C9.18816 7.8281 10.6507 10.1557 10.3882 11.5178C10.0882 13.0178 9.07566 13.6212 6.84441 13.6212C5.47566 13.6212 5.23191 13.535 5.64441 13.1557C5.73816 13.0695 5.86941 12.6902 5.92566 12.3281C6.03816 11.4833 6.07566 11.4315 6.84441 11.3109C7.25691 11.2246 7.50066 11.0867 7.50066 10.9143C7.50066 10.7419 7.40691 10.6902 7.18191 10.7764C5.41941 11.4143 3.39441 10.7419 4.18191 9.77637C4.36941 9.51775 4.50066 9.51775 4.98816 9.69017C5.66316 9.9143 7.14441 9.70741 7.27566 9.34534C7.33191 9.19017 7.10691 9.15568 6.33816 9.24189C5.56941 9.3281 5.25066 9.29361 5.04441 9.10396C4.89441 8.96603 4.33191 8.74189 3.78816 8.6212C-0.111841 7.77637 1.06941 3.50051 5.30691 3.17292C6.20691 3.10396 7.68816 3.6212 7.68816 4.00051C7.68816 4.06948 7.81941 4.13844 7.98816 4.13844C8.13816 4.13844 8.21316 4.05223 8.15691 3.96603C8.00691 3.75913 8.55066 2.93154 8.81316 2.93154C8.90691 2.93154 9.07566 3.08672 9.18816 3.27637ZM3.76941 9.06948C3.84441 9.10396 3.78816 9.43154 3.65691 9.77637C3.41316 10.4143 3.39441 10.4315 2.36316 10.4833C0.938159 10.5522 0.750659 10.1902 1.78191 9.36258C2.47566 8.81085 3.11316 8.72465 3.76941 9.06948ZM4.01316 11.1557C4.36941 11.3453 4.36941 11.3626 3.88191 12.0522C3.28191 12.8626 2.71941 12.966 2.11941 12.3626C1.70691 11.966 1.31316 11.3281 1.31316 11.0867C1.31316 10.8798 3.60066 10.9315 4.01316 11.1557ZM5.49441 12.0522C5.23191 13.0178 4.63191 13.6384 4.03191 13.535C3.82566 13.5005 3.54441 13.466 3.41316 13.466C3.26316 13.4488 3.41316 13.2246 3.75066 12.9143C4.06941 12.6212 4.44441 12.1557 4.59441 11.8971C4.96941 11.2419 5.68191 11.3626 5.49441 12.0522Z" fill="black"/>
<path d="M2.51294 5.5357C2.34419 5.81156 2.73794 6.10467 3.09419 5.96674C3.35669 5.88053 3.37544 5.81156 3.18794 5.60467C2.90669 5.29432 2.70044 5.27708 2.51294 5.5357Z" fill="black"/>
<path d="M5.90707 5.69089C5.75707 5.91503 6.16957 6.41503 6.39457 6.2771C6.48832 6.22538 6.56332 6.03572 6.56332 5.84607C6.56332 5.50124 6.11332 5.39779 5.90707 5.69089Z" fill="black"/>
<path d="M3.4688 6.31019C3.1688 6.60329 3.1688 6.62054 3.48755 6.84467C3.93755 7.15502 4.2188 7.03433 4.2188 6.55157C4.2188 6.03433 3.8813 5.93088 3.4688 6.31019Z" fill="black"/>
<path d="M3.1875 7.57045C3.1875 7.77734 3.9375 8.27734 4.21875 8.27734C4.59375 8.27734 5.11875 7.81183 4.9875 7.62217C4.89375 7.467 4.7625 7.48424 4.5 7.62217C4.21875 7.79459 4.0875 7.79459 3.9 7.62217C3.6375 7.38079 3.1875 7.34631 3.1875 7.57045Z" fill="black"/>
<path d="M2.43829 9.5687C2.43829 9.72387 2.32579 9.82732 2.19454 9.79283C2.06329 9.75835 1.93204 9.81008 1.91329 9.91352C1.89454 9.99973 2.10079 10.0859 2.40079 10.0859C2.92579 10.0859 3.15079 9.49973 2.68204 9.34456C2.55079 9.31008 2.43829 9.41352 2.43829 9.5687Z" fill="black"/>
</svg>
