<svg width="15" height="15" viewBox="0 0 15 15" fill="none" xmlns="http://www.w3.org/2000/svg">
<path d="M3.43181 1.71949C3.25181 1.939 3.11981 2.24388 3.11981 2.4512C3.11981 2.78047 3.09581 2.80486 2.63981 2.80486C1.59581 2.80486 1.04381 3.939 1.72781 4.68291C2.02781 5.02437 2.80781 5.40242 2.92781 5.28047C3.05981 5.14632 3.01181 5.31705 2.74781 5.91461C2.55581 6.34144 2.50781 6.64632 2.55581 7.08534C2.60381 7.49998 2.56781 7.7073 2.44781 7.81705C2.02781 8.17071 2.37581 8.4512 2.83181 8.12193C2.96381 8.02437 3.19181 7.97559 3.37181 8.01217C3.56381 8.04876 3.92381 7.96339 4.25981 7.81705C4.97981 7.49998 4.96781 7.48778 4.88381 7.92681C4.79981 8.30486 4.95581 8.52437 5.11181 8.26827C5.15981 8.18291 5.23181 7.92681 5.26781 7.6951C5.36381 7.14632 5.63981 7.03656 5.63981 7.56095C5.63981 8.13412 5.93981 7.9512 5.95181 7.36583C5.97581 6.56095 6.11981 6.21949 6.40781 6.21949C7.39181 6.21949 7.79981 4.65851 7.03181 3.79266C6.75581 3.48778 6.97181 3.04876 7.57181 2.74388C7.97981 2.52437 8.01581 2.10973 7.61981 2.17071C7.24781 2.24388 6.62381 2.79266 6.49181 3.18291C6.32381 3.67071 6.07181 3.65851 6.16781 3.15851C6.20381 2.9512 6.23981 2.67071 6.23981 2.54876C6.23981 2.41461 6.35981 2.1951 6.51581 2.04876C6.83981 1.71949 6.89981 1.30486 6.61181 1.37803C6.50381 1.40242 6.43181 1.48778 6.45581 1.57315C6.46781 1.65851 6.43181 1.6951 6.38381 1.65851C6.16781 1.52437 5.90381 2.02437 5.75981 2.78047C5.57981 3.67071 5.39981 3.87803 5.38781 3.2073C5.36381 1.62193 4.22381 0.756076 3.43181 1.71949ZM4.55981 2.07315C4.85981 2.37803 4.94381 2.73169 4.89581 3.42681C4.84781 4.07315 4.73981 4.08534 4.15181 3.56095C3.81581 3.25608 3.68381 3.03656 3.63581 2.67071C3.52781 1.89022 4.04381 1.54876 4.55981 2.07315ZM3.76781 3.82925L4.22381 4.23169L3.89981 4.57315C3.29981 5.17071 2.02781 4.74388 1.94381 3.91461C1.90781 3.58534 1.95581 3.51217 2.29181 3.36583C2.77181 3.15851 3.11981 3.26827 3.76781 3.82925ZM6.70781 4.34144C7.16381 4.92681 6.82781 5.85364 6.17981 5.85364C5.96381 5.85364 5.27981 5.03656 5.27981 4.78047C5.27981 4.03656 6.25181 3.74388 6.70781 4.34144ZM4.83581 4.98778C4.88381 5.18291 5.07581 5.53656 5.29181 5.78047C5.68781 6.24388 5.69981 6.60973 5.29181 6.49998C4.75181 6.35364 4.06781 5.12193 4.34381 4.78047C4.55981 4.52437 4.76381 4.62193 4.83581 4.98778ZM4.00781 5.76827C4.09181 5.99998 4.35581 6.35364 4.57181 6.56095C5.03981 7.01217 4.94381 7.24388 4.34381 7.12193C3.59981 6.96339 3.10781 5.99998 3.55181 5.56095C3.80381 5.30486 3.81581 5.30486 4.00781 5.76827Z" fill="black"/>
<path d="M6.12076 4.86562C6.27676 5.1705 6.51676 5.20708 6.45676 4.9144C6.43276 4.79245 6.32476 4.68269 6.20476 4.6583C6.01276 4.62172 6.00076 4.64611 6.12076 4.86562Z" fill="black"/>
<path d="M10.1511 2.38976C9.8991 2.63367 9.7911 3.08489 9.8751 3.57269C9.9351 3.93854 9.9111 3.96293 9.5511 3.98733C8.7591 4.0483 8.5431 4.91415 9.1791 5.43854C9.5031 5.69464 9.5151 5.74342 9.3711 6.02391C8.9751 6.76781 9.8391 7.63367 10.4151 7.0483C10.5951 6.86537 10.5951 6.91415 10.5591 8.2922C10.5351 9.28001 10.4151 10.4873 10.2591 11.28C10.1631 11.7922 9.4671 13.2922 9.3351 13.2922C9.2751 13.2922 9.2511 13.2434 9.2871 13.1824C9.3711 13.0483 8.9151 11.5117 8.6751 11.1459C8.4831 10.841 8.5551 10.6093 8.8431 10.6093C9.1551 10.6093 9.7431 10.1093 9.9111 9.68245C10.1271 9.14586 9.9351 8.67025 9.4551 8.57269C9.2031 8.52391 9.0591 8.38976 8.9391 8.09708C8.5551 7.15806 7.1391 7.70684 7.0551 8.81659C7.0311 9.12147 6.9951 9.14586 6.6471 9.07269C5.6031 8.87757 4.9551 10.0849 5.7351 10.7556C6.0231 10.9995 6.0591 11.1093 6.0231 11.5483C5.9271 12.5849 7.0431 12.719 7.7391 11.7312C7.9431 11.4629 8.1351 11.2312 8.1711 11.2312C8.2911 11.219 8.7591 12.4385 8.8311 12.9751C8.9871 13.9751 9.4311 14.0971 9.9951 13.28C10.2351 12.9507 10.4271 12.8044 10.6311 12.8044C11.4711 12.8044 12.7671 11.4873 13.0551 10.3532C13.2231 9.64586 13.3071 8.67025 13.1991 8.59708C12.9711 8.45074 12.1911 8.85318 11.5791 9.42635L10.9071 10.0727L10.9671 9.46294C10.9911 9.12147 11.0271 8.52391 11.0271 8.13367C11.0391 7.45074 11.0391 7.43854 11.3871 7.43854C11.8431 7.43854 12.1191 7.15806 12.1191 6.69464C12.1191 6.36537 12.1431 6.34098 12.5271 6.36537C13.0431 6.40196 13.3191 6.17025 13.3191 5.70684C13.3191 5.2922 12.8511 4.75562 12.4791 4.75562C12.1671 4.75562 12.1671 4.69464 12.5991 4.14586C13.0791 3.53611 13.1151 2.67025 12.6711 2.37757C12.4191 2.20684 12.3351 2.20684 11.8191 2.37757C11.3031 2.5605 11.2431 2.5605 11.0511 2.38976C10.7871 2.14586 10.3911 2.14586 10.1511 2.38976ZM10.8471 3.19464C10.8231 3.96293 10.7031 4.13367 10.4391 3.8044C10.1151 3.40196 10.2711 2.63367 10.6551 2.70684C10.7991 2.74342 10.8591 2.87757 10.8471 3.19464ZM12.4791 3.17025C12.4791 3.67025 11.9511 4.26781 11.5071 4.26781C11.0871 4.26781 11.0751 4.14586 11.4111 3.43854C11.7951 2.64586 12.4791 2.47513 12.4791 3.17025ZM10.3071 4.5605C10.4991 4.8044 10.1391 5.14586 9.7431 5.09708C9.3471 5.0483 9.1071 4.67025 9.3591 4.51172C9.6231 4.34098 10.1511 4.36537 10.3071 4.5605ZM11.2551 4.96293C11.2791 5.10928 11.2071 5.24342 11.0991 5.2922C10.7151 5.43854 10.5231 5.08489 10.8231 4.78001C11.0271 4.57269 11.2071 4.65806 11.2551 4.96293ZM12.6231 5.32879C12.9111 5.59708 12.9111 5.97513 12.6111 5.97513C12.0351 5.97513 11.5191 5.5483 11.7111 5.23123C11.8191 5.0483 12.3831 5.10928 12.6231 5.32879ZM10.4151 6.31659C10.1871 6.69464 9.7191 6.84098 9.7191 6.52391C9.7191 6.25562 10.0431 5.64586 10.2231 5.57269C10.4991 5.47513 10.6191 5.96293 10.4151 6.31659ZM11.5071 6.10928C11.7711 6.53611 11.7111 6.95074 11.3871 6.95074C11.1111 6.95074 11.0151 6.7922 10.9551 6.20684C10.8831 5.60928 11.1711 5.5483 11.5071 6.10928ZM8.5791 8.41415C8.7351 9.10928 8.0511 9.87757 7.6191 9.51172C7.3551 9.2922 7.4031 8.91415 7.7511 8.45074C8.1351 7.93855 8.4711 7.92635 8.5791 8.41415ZM9.5271 9.20684C9.6351 9.49952 9.5031 9.70684 9.0591 9.95074C8.5191 10.2434 8.4351 10.1215 8.7831 9.52391C9.0591 9.01172 9.3951 8.87757 9.5271 9.20684ZM12.7071 9.76781C12.5631 10.7068 11.8791 11.7556 11.1831 12.1215C10.6071 12.4264 10.6191 12.3776 11.3391 11.4751C11.6991 11.0239 11.9991 10.6093 11.9991 10.5605C11.9991 10.3532 11.7591 10.5483 11.2431 11.1703C10.9311 11.5483 10.6791 11.7922 10.6791 11.719C10.6791 11.3532 11.1951 10.4751 11.6991 9.98733C11.9991 9.69464 12.3231 9.38976 12.3951 9.3044C12.7071 8.98733 12.8031 9.13367 12.7071 9.76781ZM7.0071 9.7922C7.5471 10.2312 7.3671 10.4873 6.5391 10.4873C5.7951 10.4873 5.6751 10.3654 5.8671 9.84098C6.0231 9.41415 6.5151 9.40196 7.0071 9.7922ZM8.0391 10.2922C8.0391 10.4629 7.9791 10.6337 7.9191 10.6703C7.7631 10.7678 7.6311 10.4264 7.7271 10.1824C7.8351 9.88976 8.0391 9.97513 8.0391 10.2922ZM7.5591 11.1824C7.5591 11.6093 6.8631 12.0239 6.5391 11.78C6.3591 11.6581 6.3471 11.5849 6.4671 11.3532C6.7191 10.8898 7.5591 10.7556 7.5591 11.1824Z" fill="black"/>
</svg>
