<svg width="15" height="15" viewBox="0 0 15 15" fill="none" xmlns="http://www.w3.org/2000/svg">
<path d="M9.28387 2.33859C8.72793 2.69153 8.48667 3.08859 8.42373 3.79447C8.3608 4.41212 8.62303 4.8533 9.04261 4.8533C9.31534 4.8533 9.32583 6.17683 9.0531 6.19153C8.94821 6.19153 8.59157 6.25035 8.2559 6.30918C7.59506 6.42683 7.56359 6.39741 7.44821 5.66212C7.37478 5.22094 7.39576 5.17683 7.71045 5.01506C8.78038 4.47094 7.73143 2.19153 6.53562 2.45624C5.81184 2.618 5.2559 3.39741 5.19296 4.33859C5.15101 4.91212 5.29786 5.14741 5.73842 5.20624C6.06359 5.26506 6.13702 5.50035 6.04261 6.25035C5.97968 6.69153 5.93772 6.73565 5.38178 6.89741C5.0566 6.98565 4.63702 7.05918 4.43772 7.05918H4.09157V6.26506C4.09157 5.54447 4.11254 5.47094 4.30136 5.54447C4.79436 5.72094 5.04611 4.98565 4.78387 4.1033C4.29087 2.44153 3.04261 2.27977 2.07758 3.73565C1.90975 3.97094 1.78387 4.23565 1.77338 4.32388C1.77338 4.41212 1.7524 4.6033 1.73143 4.75035C1.67898 5.14741 2.04611 5.58859 2.42373 5.58859C2.74891 5.58859 2.74891 5.6033 2.68597 6.13271C2.6545 6.44153 2.62303 6.868 2.62303 7.07388C2.62303 7.38271 2.5601 7.47094 2.18247 7.58859C1.59506 7.76506 1.3538 8.25035 1.32233 9.3533C1.26989 10.8974 1.74191 11.9709 2.41324 11.8386C2.5601 11.8239 2.93772 11.7504 3.2524 11.6915C3.56709 11.6474 4.07059 11.5298 4.3538 11.4562C4.64751 11.3827 5.04611 11.2798 5.24541 11.2356C5.44471 11.1915 5.86429 11.1033 6.17898 11.0298C7.18597 10.7798 7.64751 10.8386 8.2559 11.3239C9.07408 11.9856 9.68247 11.8386 9.68247 10.9856C9.68247 10.5298 9.7559 10.5004 11.4342 10.3533C13.3748 10.2062 13.7314 9.76506 13.7419 7.54447C13.7419 6.50035 13.7314 6.47094 13.3748 6.07388C12.9447 5.58859 12.8713 4.94153 13.2174 4.77977C13.7629 4.52977 13.4797 3.00035 12.8293 2.75035C12.3468 2.55918 11.9797 2.73565 11.7489 3.27977C11.4657 3.91212 11.4867 4.33859 11.8014 4.69153C12.2839 5.20624 12.0741 5.69153 11.3608 5.76506C10.7314 5.80918 10.7104 5.79447 10.5951 5.04447C10.5216 4.58859 10.5321 4.54447 10.7 4.6033C11.2769 4.80918 11.4762 3.57388 10.9727 2.82388C10.4692 2.04447 9.96569 1.89741 9.28387 2.33859ZM10.3328 2.8533C10.7 3.07388 10.9937 3.618 10.8363 3.82388C10.7419 3.97094 9.01115 4.26506 8.89576 4.16212C8.63352 3.95624 8.9587 3.23565 9.49366 2.82388C9.77688 2.6033 9.90275 2.6033 10.3328 2.8533ZM7.47968 3.54447C7.87828 4.16212 7.8573 4.41212 7.37478 4.41212C7.1545 4.41212 6.6615 4.45624 6.27338 4.50035C5.43422 4.618 5.3608 4.44153 5.87478 3.618C6.37828 2.82388 6.97618 2.79447 7.47968 3.54447ZM3.90275 3.51506C4.17548 3.72094 4.57408 4.6033 4.46919 4.82388C4.39576 5.00035 2.17198 4.94153 2.13003 4.76506C2.06709 4.48565 2.89576 3.41212 3.22094 3.3533C3.57758 3.27977 3.5566 3.27977 3.90275 3.51506ZM12.9237 3.48565C13.2384 3.88271 13.165 4.26506 12.7769 4.27977C12.0216 4.32388 11.8538 4.14741 12.1056 3.618C12.3049 3.17683 12.6405 3.118 12.9237 3.48565ZM10.186 5.32388C10.2594 5.98565 10.2384 6.02977 9.83982 6.02977C9.5566 6.02977 9.54611 6.00035 9.54611 5.3533C9.54611 4.70624 9.5566 4.69153 9.82933 4.73565C10.0706 4.77977 10.1335 4.868 10.186 5.32388ZM12.7454 5.00035C12.8608 5.26506 12.6825 5.73565 12.4727 5.73565C12.2734 5.73565 12.2209 5.50035 12.3363 5.08859C12.4097 4.82388 12.651 4.77977 12.7454 5.00035ZM6.90275 5.17683C6.9552 5.27977 7.02863 5.67683 7.07059 6.04447C7.14401 6.70624 7.13352 6.73565 6.85031 6.80918C6.44122 6.91212 6.39926 6.83859 6.39926 5.95624C6.39926 5.08859 6.64052 4.72094 6.90275 5.17683ZM3.65101 6.3533C3.61954 7.26506 3.61954 7.27977 3.29436 7.32388C2.99017 7.368 2.96919 7.3533 3.01115 6.88271C3.12653 5.51506 3.14751 5.44153 3.42024 5.44153C3.67198 5.44153 3.68247 5.47094 3.65101 6.3533ZM13.1545 6.64741C13.3853 7.08859 13.3118 7.14741 12.4622 7.25035C12.0426 7.29447 11.6125 7.368 11.5181 7.42683C11.2244 7.58859 11.2979 7.82388 11.623 7.73565C11.7804 7.69153 12.2209 7.618 12.6195 7.55918L13.3223 7.47094V8.07388C13.3223 8.6033 13.2909 8.67683 13.0391 8.75035C12.8713 8.80918 12.63 8.88271 12.4832 8.92683L12.2209 9.00035L12.4727 9.13271C12.6195 9.22094 12.7979 9.23565 12.8713 9.20624C12.9447 9.16212 13.0076 9.17683 13.0076 9.25035C13.0076 9.50035 12.4097 9.69153 11.3293 9.77977C9.97618 9.88271 9.08457 10.0004 9.03212 10.0886C9.01115 10.118 9.0531 10.3092 9.12653 10.5151C9.38877 11.2062 9.11604 11.2945 8.38178 10.7651C7.95171 10.4562 7.58457 10.2945 7.29087 10.2945C6.70345 10.2945 4.43772 10.7945 3.14751 11.2062C3.06359 11.2209 2.99017 11.1621 3.00066 11.0592C3.01115 10.9709 3.02164 10.7356 3.03212 10.5445C3.0531 10.0004 3.18947 9.868 3.77688 9.76506C4.62653 9.63271 4.67898 9.41212 3.8608 9.41212H3.17898L3.00066 8.77977C2.78038 7.94153 2.7594 8.00035 3.38877 7.89741C3.97618 7.79447 4.17548 7.75035 5.27688 7.50035C5.67548 7.41212 6.158 7.38271 6.3573 7.44153C6.58807 7.50035 6.88178 7.45624 7.16499 7.30918C7.40625 7.17683 8.15101 6.95624 8.81184 6.82388C9.47268 6.69153 10.2069 6.52977 10.4377 6.47094C10.6685 6.41212 11.3398 6.3533 11.9272 6.33859C12.9132 6.32388 13.0076 6.3533 13.1545 6.64741ZM2.61254 9.07388C2.7594 9.89741 2.6545 10.8533 2.39226 11.0739C1.82583 11.5886 1.44821 9.16212 1.96219 8.3533C2.21394 7.97094 2.47618 8.26506 2.61254 9.07388Z" fill="black"/>
<path d="M9.02216 7.57413C8.93824 7.60354 8.68649 7.67707 8.45572 7.72118C8.183 7.78001 8.08859 7.86824 8.15153 7.95648C8.29838 8.16236 9.46272 7.92707 9.52565 7.67707C9.55712 7.5153 9.38929 7.47118 9.02216 7.57413Z" fill="black"/>
<path d="M4.87823 8.6771C4.8048 8.83886 6.00061 9.01534 6.66145 8.94181C6.93417 8.91239 7.18592 8.82416 7.2069 8.75063C7.24886 8.57416 4.95166 8.51534 4.87823 8.6771Z" fill="black"/>
<path d="M10.2809 8.74977C9.06414 8.97036 8.07812 9.26448 8.07812 9.44095C8.07812 9.49977 8.16204 9.55859 8.26694 9.55859C8.55015 9.55859 11.4453 8.86742 11.4977 8.77918C11.6236 8.60271 11.204 8.60271 10.2809 8.74977Z" fill="black"/>
<path d="M2.172 9.36707C2.05662 9.51413 2.08809 10.1465 2.20347 10.1465C2.26641 10.1465 2.30837 9.9406 2.30837 9.70531C2.30837 9.24943 2.28739 9.1906 2.172 9.36707Z" fill="black"/>
</svg>
