<svg width="15" height="15" viewBox="0 0 15 15" fill="none" xmlns="http://www.w3.org/2000/svg">
<path d="M6.26723 1.90894C6.03468 2.44303 5.01142 3.06803 4.16258 3.19303C3.56956 3.28394 3.55793 3.28394 3.0463 2.8294C2.67421 2.48849 2.49979 2.39758 2.40677 2.48849C2.31374 2.5794 2.40677 2.74985 2.77886 3.11349C3.26723 3.59076 3.27886 3.62485 3.20909 4.15894C3.05793 5.26121 2.39514 6.47712 1.86026 6.64758C1.56956 6.73849 1.55793 7.04531 1.837 7.04531C2.31374 7.04531 3.03468 8.5794 3.10444 9.78394L3.16258 10.6476L2.68584 11.0794C2.20909 11.5112 2.06956 11.818 2.36026 11.818C2.44165 11.818 2.69747 11.6362 2.90677 11.4203C3.36026 10.9658 3.66258 10.9544 4.98816 11.318C6.19747 11.6589 7.59282 12.6362 7.6277 13.1703C7.63933 13.2839 7.67421 13.4771 7.72072 13.5794C7.837 13.8862 8.17421 13.5567 8.08119 13.2158C7.93002 12.6135 9.51142 11.4658 11.023 11.0908C11.9998 10.8521 12.1277 10.8635 12.4184 11.193C12.6626 11.4658 12.9068 11.4885 12.9068 11.2385C12.9068 11.1817 12.7672 10.9885 12.5928 10.818C11.8021 10.0567 12.6975 6.89758 13.7789 6.63621C14.1393 6.54531 14.1626 6.24985 13.8021 6.24985C12.7905 6.24985 11.4417 3.94303 11.6393 2.55667C11.6858 2.18167 11.7207 1.86349 11.6975 1.85212C11.6742 1.8294 11.4068 1.94303 11.0928 2.09076C10.7789 2.24985 10.3021 2.40894 10.0347 2.44303C9.05793 2.5794 6.74398 1.96576 6.74398 1.5794C6.74398 1.31803 6.43002 1.52258 6.26723 1.90894ZM9.31375 2.80667C10.0114 2.84076 10.5812 2.89758 10.5812 2.92031C10.5812 2.9544 10.3835 3.18167 10.151 3.43167L9.70909 3.88621L8.90677 3.81803C7.76723 3.71576 7.15095 3.43167 7.0463 2.9544C6.9184 2.28394 6.93002 2.26121 7.51142 2.51121C7.88351 2.68167 8.40677 2.76121 9.31375 2.80667ZM6.6277 3.12485C6.6277 3.5794 6.59281 3.63621 6.08119 3.9544C5.18584 4.49985 4.86026 4.52258 4.34863 4.05667L3.90677 3.67031L4.36026 3.59076C4.84863 3.49985 5.69747 3.10212 6.16258 2.73849C6.53468 2.4544 6.6277 2.52258 6.6277 3.12485ZM11.3137 3.81803C11.5463 4.68167 12.1858 5.78394 12.651 6.12485L12.9649 6.35212L12.3835 6.37485C11.5579 6.39758 11.4882 6.37485 11.1858 6.04531C10.8486 5.65894 10.2324 4.44303 10.2324 4.17031C10.2324 3.97712 10.9068 3.0794 11.0463 3.06803C11.0812 3.06803 11.1975 3.40894 11.3137 3.81803ZM8.03468 4.10212C8.13933 4.15894 8.49979 4.2044 8.82537 4.21576L9.40677 4.23849L9.0463 4.64758C8.6277 5.10212 8.27886 5.17031 7.73235 4.90894C7.30212 4.7044 7.20909 4.5794 7.20909 4.17031C7.20909 3.85212 7.47654 3.8294 8.03468 4.10212ZM4.4184 5.04531C4.39514 6.06803 3.89514 6.7044 3.11607 6.7044H2.5463L2.90677 6.19303C3.39514 5.49985 3.60444 4.93167 3.60444 4.29531V3.93167L4.01142 4.31803C4.30212 4.60212 4.4184 4.79531 4.4184 5.04531ZM6.86026 4.61349C6.86026 5.11349 5.9184 5.44303 5.47654 5.10212C5.19747 4.87485 5.23235 4.65894 5.55793 4.65894C5.66258 4.65894 5.96491 4.52258 6.22072 4.37485C6.70909 4.0794 6.86026 4.13621 6.86026 4.61349ZM10.6277 6.01121C11.0114 6.40894 11.0114 6.42031 10.4998 6.4544C10.2672 6.47712 10.0347 6.51121 9.98816 6.53394C9.80212 6.64758 9.51142 6.43167 9.30212 6.01121C8.99979 5.43167 9.01142 5.35212 9.43002 4.85212L9.80212 4.42031L10.0696 5.06803C10.2091 5.42031 10.4649 5.85212 10.6277 6.01121ZM5.23235 5.40894C5.58119 5.71576 5.60444 6.0794 5.337 6.61349C5.24398 6.77258 4.53468 6.80667 4.337 6.64758C4.31375 6.63621 4.40677 6.42031 4.53468 6.15894C4.66258 5.90894 4.76723 5.55667 4.76723 5.39758C4.76723 5.04531 4.80212 5.04531 5.23235 5.40894ZM7.98816 5.92031C7.59282 6.38621 7.55793 6.36349 7.40677 5.61349L7.337 5.26121L7.84863 5.37485L8.36026 5.48849L7.98816 5.92031ZM7.06956 5.98849C7.20909 6.56803 7.16258 6.5794 6.59281 6.12485C6.08119 5.71576 6.05793 5.62485 6.48816 5.47712C6.88351 5.34076 6.94165 5.39758 7.06956 5.98849ZM8.93002 6.12485C9.18584 6.63621 9.10444 6.7044 8.27886 6.7044H7.89514L8.25561 6.19303C8.68584 5.5794 8.66258 5.5794 8.93002 6.12485ZM6.36026 6.43167C6.88351 6.81803 6.84863 6.9544 6.25561 6.86349C5.97654 6.81803 5.74398 6.78394 5.73235 6.77258C5.68584 6.73849 5.84863 6.13621 5.90677 6.13621C5.94165 6.13621 6.13933 6.26121 6.36026 6.43167ZM12.9068 6.79531C12.9068 6.84076 12.8603 6.93167 12.8021 6.99985C12.3951 7.42031 11.9998 8.47712 11.8719 9.51121L11.8021 10.1135L11.2556 9.64758C10.6044 9.11349 10.5928 9.03394 10.9998 7.93167C11.3603 6.94303 11.4417 6.84076 11.837 6.79531C12.6277 6.7044 12.9068 6.7044 12.9068 6.79531ZM10.93 7.09076C10.93 7.18167 10.8835 7.28394 10.8254 7.31803C10.7672 7.35212 10.6277 7.71576 10.523 8.12485C10.4068 8.53394 10.2905 8.86349 10.2672 8.86349C10.244 8.86349 9.97654 8.67031 9.69747 8.43167C9.13933 7.98849 9.0463 7.52258 9.43002 7.13622C9.63933 6.90894 10.93 6.87485 10.93 7.09076ZM3.99979 7.3294C4.48816 7.84076 4.72072 9.23849 4.37188 9.56803C4.09281 9.8294 3.60444 10.2271 3.55793 10.2271C3.53468 10.2271 3.53468 10.1362 3.55793 10.0226C3.63933 9.72712 3.17421 8.10212 2.86026 7.54531L2.56956 7.04531H3.15095C3.61607 7.04531 3.77886 7.10212 3.99979 7.3294ZM5.47654 7.28394C5.93002 8.01122 5.86026 8.42031 5.23235 8.86349L4.90677 9.09076V8.61349C4.89514 8.36349 4.76723 7.89758 4.61607 7.5794L4.32537 7.02258L4.86026 7.09076C5.15095 7.12485 5.43002 7.21576 5.47654 7.28394ZM8.9184 7.38622L8.79049 7.71576L8.44165 7.49985C7.90677 7.17031 7.93002 7.04531 8.52305 7.04531H9.0463L8.9184 7.38622ZM6.82537 7.3294C6.84863 7.34076 6.70909 7.48849 6.52305 7.65894L6.18584 7.97712L5.99979 7.63622C5.89514 7.44303 5.81375 7.24985 5.81375 7.21576C5.81375 7.17031 6.74398 7.26122 6.82537 7.3294ZM8.48816 8.0794C8.48816 8.13621 8.30212 8.23849 7.76723 8.49985C7.70909 8.52258 7.67421 8.30667 7.67421 8.02258V7.49985L8.08119 7.74985C8.30212 7.89758 8.48816 8.04531 8.48816 8.0794ZM7.31375 8.43167C7.32537 8.59076 7.27886 8.60212 6.95328 8.48849C6.74398 8.42031 6.5463 8.34076 6.52305 8.3294C6.48816 8.30667 6.6277 8.13621 6.81375 7.94303L7.15095 7.60212L7.22072 7.92031C7.26723 8.09076 7.30212 8.31803 7.31375 8.43167ZM9.53468 8.88621C9.82537 9.13621 9.99979 9.31803 9.94165 9.28394C9.74398 9.18167 8.81375 9.63621 8.40677 10.0226C7.95328 10.443 7.95328 10.443 7.87188 9.7044C7.80212 9.05667 7.87188 8.94303 8.5463 8.60212C8.99979 8.36349 8.93002 8.35212 9.53468 8.88621ZM7.05793 8.96576C7.34863 9.11349 7.39514 9.22712 7.43002 9.86349L7.46491 10.3408L6.89514 9.99985C6.58119 9.80667 6.18584 9.62485 6.02305 9.60212C5.22072 9.4544 5.18584 9.39758 5.70909 9.01121C6.19747 8.64758 6.44165 8.63621 7.05793 8.96576ZM10.523 9.69303C10.9417 9.93167 11.5114 10.3749 11.5114 10.4658C11.5114 10.5112 11.2324 10.6021 10.9068 10.6817C10.0696 10.8521 9.15095 11.2953 8.59282 11.7839C8.05793 12.2612 8.06956 12.2612 7.99979 11.568C7.94165 11.0567 7.96491 11.0112 8.48816 10.5112C8.77886 10.2271 9.27886 9.89758 9.60444 9.77258C10.2789 9.51121 10.2324 9.52258 10.523 9.69303ZM6.01142 10.068C6.52305 10.2385 7.26723 10.693 7.46491 10.9658C7.58119 11.1135 7.58119 12.1589 7.47654 12.1589C7.43002 12.1589 7.26723 12.0339 7.10444 11.8862C6.47654 11.318 4.90677 10.6817 4.13933 10.6817C3.73235 10.6817 3.76723 10.568 4.27886 10.2044C4.77886 9.84076 5.23235 9.80667 6.01142 10.068Z" fill="black"/>
<path d="M11.5222 12.1588C11.185 12.7497 11.2315 13.2952 11.6268 13.4884C11.8245 13.5793 11.9524 13.5906 12.0571 13.4997C12.1385 13.4316 12.2082 13.4202 12.2082 13.477C12.2082 13.5338 12.2896 13.4543 12.3943 13.3179C12.5803 13.0566 12.5571 12.852 12.2431 12.1247C12.0106 11.5906 11.8478 11.5906 11.5222 12.1588ZM12.0222 12.9656C11.8478 13.3406 11.5919 13.0566 11.7431 12.6588C11.8594 12.3634 11.8826 12.352 11.9989 12.5452C12.0687 12.6702 12.0803 12.8406 12.0222 12.9656Z" fill="black"/>
</svg>
