<svg width="15" height="15" viewBox="0 0 15 15" fill="none" xmlns="http://www.w3.org/2000/svg">
<path d="M5.08476 1.63543C4.88565 1.79526 4.56706 1.9674 4.38122 2.01658C3.94317 2.11494 3.51839 2.48379 2.7883 3.38133C2.46972 3.78707 2.07149 4.2174 1.89892 4.34035C1.72636 4.4633 1.59361 4.61084 1.59361 4.66002C1.59361 4.89363 2.16441 5.28707 2.61574 5.36084C2.8945 5.41002 3.22635 5.56985 3.3591 5.74199C3.62459 6.03707 4.10246 6.11084 4.3414 5.88953C4.44759 5.79117 4.56706 5.82805 4.76618 6.01248C5.07149 6.29526 5.33697 6.33215 5.68211 6.16002C6.02724 5.98789 6.01397 2.7174 5.66883 2.37313C5.39007 2.07805 5.49627 1.9674 6.05379 1.9674C6.96972 1.9674 7.69981 3.01248 7.88565 4.61084C8.13786 6.62723 8.09804 6.87313 7.64671 6.40592C7.11574 5.86494 6.15998 6.04936 5.8414 6.75018C5.74848 6.9592 5.57591 7.15592 5.44317 7.19281C5.17768 7.26658 4.64671 8.01658 4.64671 8.31166C4.64671 8.55756 4.40777 8.52067 4.32812 8.26248C4.07591 7.54936 2.3237 6.47969 2.05821 6.88543C1.99184 6.98379 3.31928 10.9551 3.55821 11.3731C3.59804 11.4346 3.51839 11.3977 3.37237 11.2871C2.76175 10.7953 1.32812 10.6231 1.32812 11.0412C1.3414 11.324 3.67768 13.8936 3.92989 13.8936C4.02282 13.8936 4.11574 13.8444 4.11574 13.783C4.11574 13.6723 3.2529 12.5781 2.52282 11.7789C2.04494 11.2625 2.07149 11.2256 2.69538 11.5084C3.34582 11.8158 3.69096 12.16 4.26175 13.0576C4.73963 13.8199 5.17768 14.1395 5.17768 13.7338C5.17768 13.6477 4.88565 12.9592 4.52724 12.1969C4.15556 11.4469 3.75733 10.4756 3.63786 10.0576C3.50512 9.62723 3.23963 8.85264 3.05379 8.33625L2.70866 7.38953L3.06706 7.63543C3.95644 8.2133 4.36795 9.12313 4.04936 9.76248C3.78388 10.2789 3.94317 10.66 4.48742 10.7707C5.41662 10.9551 5.29715 10.7461 6.18653 13.6723C6.26618 13.9059 6.63786 13.8322 6.63786 13.5862C6.63786 13.5002 6.49184 12.9469 6.306 12.3567C5.90777 11.1149 6.00069 10.9182 6.90335 11.0289C7.64671 11.1272 7.77945 10.8813 7.51397 9.89772C7.3945 9.4674 7.30158 8.97559 7.30158 8.81576C7.30158 8.38543 6.95644 7.68461 6.61131 7.37723C6.26618 7.08215 6.39892 6.72559 6.86352 6.66412C7.24848 6.61494 7.63343 7.15592 7.89892 8.11494C8.09804 8.79117 8.11131 9.24608 8.03166 11.0658C7.97857 12.2461 7.95202 13.3526 7.95202 13.5125C7.99184 14.3362 8.42989 13.783 8.54936 12.7748C8.7352 11.3117 9.59804 9.34445 10.421 8.54527C10.8458 8.12723 11.2441 8.00428 10.9255 8.38543C10.5803 8.80346 9.55821 12.0125 9.33255 13.3526C9.21308 14.1518 9.55821 13.9059 10.1025 12.824C11.0184 11.0043 11.9343 9.97149 13.2352 9.25838C13.9786 8.86494 14.1511 8.92641 13.7529 9.4674C13.3945 9.97149 11.8016 12.2461 11.2042 13.1436C10.8724 13.6231 10.8193 13.7953 10.9387 13.8813C11.1511 14.0412 11.4166 13.783 12.2795 12.5412C15.014 8.63133 15.0007 8.65592 14.5494 8.47149C13.8989 8.18871 12.2396 9.03707 11.1511 10.1682C10.8591 10.4756 10.6202 10.6846 10.6202 10.6354C10.6202 10.4756 10.8989 9.7133 11.1511 9.16002C11.7219 7.93051 11.7618 7.73379 11.4963 7.56166C10.8856 7.14363 9.63786 8.23789 8.94759 9.82395L8.64228 10.5002V8.82805C8.62901 7.05756 8.7883 5.13953 9.04051 4.11904C9.46529 2.43461 10.5272 1.51248 11.2972 2.16412C11.5494 2.37313 11.5494 2.37313 11.2839 2.54526C10.8193 2.85264 10.6069 3.39363 10.6069 4.32805C10.6069 4.80756 10.514 5.4469 10.3945 5.75428C10.2618 6.13543 10.2485 6.34445 10.3414 6.43051C10.5272 6.60264 11.2573 6.56576 11.4963 6.38133C11.6556 6.25838 11.775 6.27067 12.0936 6.44281C12.5848 6.7133 13.0361 6.62723 13.275 6.2092C13.4078 5.98789 13.5538 5.90182 13.8591 5.90182C14.6157 5.90182 15.1998 5.23789 14.6821 4.9551C14.5892 4.90592 14.3237 4.48789 14.0848 4.04526C13.6467 3.17231 12.9166 2.4592 12.4653 2.4592C12.306 2.4592 12.0936 2.28707 11.9343 2.02887C11.5494 1.42641 10.7529 1.22969 10.1025 1.54936C9.39892 1.90592 8.93432 2.54526 8.65556 3.55346L8.40335 4.47559L8.31043 3.89772C8.21751 3.30756 7.84582 2.43461 7.54051 2.07805C6.94317 1.38953 5.69538 1.16822 5.08476 1.63543ZM5.19096 2.66822C5.3237 2.80346 5.3768 3.25838 5.3768 4.26658C5.3768 5.68051 5.28388 5.90182 4.93874 5.25018C4.76618 4.91822 4.42105 4.93051 4.18211 5.28707C3.99627 5.55756 3.71751 5.41002 3.71751 5.02887C3.71751 4.63543 3.61131 4.61084 2.8945 4.85674C2.80158 4.89363 2.62901 4.86904 2.53609 4.80756C2.3768 4.7092 2.42989 4.58625 2.86795 4.11904C4.40777 2.43461 4.77945 2.201 5.19096 2.66822ZM12.8104 3.22149C13.0095 3.36904 13.3414 3.81166 13.5405 4.2051C13.7396 4.59854 13.9786 4.99199 14.0582 5.09035C14.2839 5.34854 13.952 5.41002 13.3679 5.22559L12.8768 5.06576V5.55756C12.8768 5.98789 12.8502 6.03707 12.5848 6.00018C12.4122 5.97559 12.2662 5.86494 12.2396 5.7174C12.1467 5.26248 11.9741 5.25018 11.5494 5.64363C11.0582 6.09854 10.8724 6.13543 10.9786 5.74199C11.0184 5.59445 11.098 5.02887 11.1379 4.48789C11.191 3.9469 11.2972 3.38133 11.3901 3.22149C11.6157 2.86494 12.306 2.85264 12.8104 3.22149ZM6.43874 7.97969C6.54494 8.18871 6.69096 8.7174 6.7706 9.18461C6.83697 9.63953 6.94317 10.1436 6.98299 10.2912C7.08919 10.66 6.86352 10.66 6.59804 10.2912L6.38565 10.0207L6.06706 10.3772C5.76175 10.7215 5.7352 10.7338 5.60246 10.5002C5.46972 10.2666 5.44317 10.1805 5.44317 9.9592C5.44317 9.88543 5.2706 9.9469 5.04494 10.0944C4.55379 10.4387 4.43432 10.3403 4.69981 9.84854C4.81928 9.65182 4.9122 9.38133 4.9122 9.25838C4.92547 8.90182 5.2706 8.11494 5.52281 7.85674C5.85467 7.52477 6.19981 7.56166 6.43874 7.97969Z" fill="black"/>
<path d="M6.9043 11.8026C6.9043 12.3067 7.34235 13.6592 7.48837 13.61C7.67421 13.5485 7.60784 12.8969 7.35562 12.1346C7.14323 11.5444 6.9043 11.36 6.9043 11.8026Z" fill="black"/>
<path d="M12.386 13.1689C11.6825 13.7714 11.8418 14.1648 12.5719 13.5993C12.771 13.4517 13.0763 13.255 13.2488 13.1689C13.4081 13.0829 13.5143 12.9722 13.4745 12.8985C13.3152 12.6771 12.7975 12.8001 12.386 13.1689Z" fill="black"/>
</svg>
