<svg width="15" height="15" viewBox="0 0 15 15" fill="none" xmlns="http://www.w3.org/2000/svg">
<path d="M6.06903 0.750519C4.66449 1.09911 3.40994 1.97587 3.40994 2.58855C3.40994 2.67305 3.30085 2.747 3.17812 2.747C1.58267 2.77869 0.287213 5.21883 1.22812 6.40193C1.48721 6.71883 1.50085 6.78221 1.30994 7.04629C1.1463 7.31038 1.03721 7.85967 1.07812 8.35615C1.13267 9.02165 2.71449 10.0357 3.6963 10.0357C3.90085 10.0357 4.35085 10.1308 4.69176 10.2576C5.0463 10.3738 5.52358 10.4583 5.75539 10.4371L6.19176 10.4054L6.15085 11.0709C6.13721 11.4407 6.08267 11.8421 6.05539 11.9688C6.02812 12.0956 5.93267 12.5604 5.86449 12.9935C5.78267 13.4266 5.70085 13.8597 5.65994 13.9547C5.4963 14.3456 5.98721 14.4723 7.67812 14.4407C9.55994 14.4195 9.62812 14.3878 9.43721 13.6167C9.19176 12.6449 9.02812 10.1942 9.19176 10.0569C9.21903 10.0463 9.60085 10.0146 10.0372 9.98291C11.169 9.9301 12.5463 9.44418 12.3281 9.1801C12.2872 9.12728 12.3145 9.08503 12.3963 9.08503C12.9281 9.08503 13.1463 7.66953 12.7372 6.96179C12.5327 6.5815 12.5327 6.56038 12.8736 6.16953C13.7872 5.09207 12.8327 3.20122 11.2236 2.8632C10.7463 2.75756 10.6781 2.70474 10.5281 2.26108C10.3781 1.81742 10.0508 1.48996 9.32812 1.04629C8.72812 0.687139 6.98267 0.528689 6.06903 0.750519ZM9.08267 1.59559C9.13721 1.5639 9.13721 1.58503 9.0963 1.64841C9.04176 1.72235 9.0963 1.80686 9.21903 1.83855C9.50539 1.92305 9.81903 2.55686 9.81903 3.05334C9.81903 3.53925 9.94176 3.63432 10.3918 3.497C11.2099 3.25404 12.3281 4.09911 12.3554 4.997C12.3827 5.4301 12.3145 5.59911 11.9872 5.9477C11.5236 6.44418 11.5099 6.5815 11.8645 7.1308C12.6963 8.38784 11.1554 9.68714 9.32812 9.29629C8.45539 9.10615 8.30539 9.24348 8.25085 10.3104C8.22358 10.7752 8.1963 11.1871 8.1963 11.2505C8.18267 11.3033 8.11449 11.2928 8.01903 11.2188C7.92358 11.1449 7.69176 11.0921 7.48721 11.0921H7.10539L7.18721 9.52869C7.22812 8.67305 7.30994 7.95474 7.36449 7.92305C7.43267 7.89136 7.66449 7.6801 7.8963 7.45827C8.12812 7.23643 8.31903 7.08855 8.31903 7.1308C8.31903 7.17305 8.53721 7.00404 8.7963 6.75052C9.79176 5.78925 9.04176 5.45122 8.00539 6.40193C7.28267 7.07798 7.32358 7.12024 7.36449 5.69418C7.37812 5.0815 7.35085 4.98643 7.10539 4.93362C6.83267 4.8808 6.57358 5.20827 6.57358 5.59911C6.57358 5.95827 6.38267 7.22587 6.32812 7.31038C6.28721 7.35263 5.97358 7.14136 5.63267 6.83503C4.85539 6.15897 4.71903 6.08503 4.50085 6.28573C4.21449 6.54981 4.45994 6.90897 5.38721 7.59559L6.28721 8.26108L6.2463 9.07446C6.20539 9.91953 6.23267 9.88784 5.53721 9.83503C5.42812 9.83503 5.16903 9.6977 4.95085 9.54981C4.70539 9.37024 4.4463 9.28573 4.15994 9.29629C3.16449 9.33855 2.95994 9.29629 2.50994 8.92658C1.7463 8.29277 1.71903 7.50052 2.46903 6.98291C2.90539 6.66601 2.89176 6.40193 2.44176 6.30686C2.14176 6.24348 1.77358 5.64136 1.77358 5.20827C1.78721 4.40545 2.74176 3.48643 3.57358 3.48643C4.06449 3.48643 4.07812 3.47587 4.28267 2.92658C4.60994 2.03925 5.65994 1.43714 6.95539 1.38432C7.28267 1.37376 7.58267 1.34207 7.60994 1.32094C7.65085 1.29982 7.96449 1.3632 8.33267 1.46883C8.68721 1.57446 9.02812 1.63784 9.08267 1.59559ZM8.37358 12.6238C8.41449 13.0357 8.46903 13.4583 8.4963 13.5745C8.52358 13.7646 8.45539 13.7857 7.84176 13.7646C7.47358 13.754 7.02358 13.7435 6.85994 13.7435C6.58721 13.7329 6.57358 13.7012 6.68267 13.4794C6.75085 13.3421 6.76449 13.1942 6.72358 13.1625C6.66903 13.1308 6.83267 13.0991 7.06449 13.0991C7.2963 13.0991 7.52812 13.0463 7.56903 12.9935C7.71903 12.8139 7.50085 12.4653 7.24176 12.4653C6.90085 12.4653 6.79176 12.3491 6.96903 12.1801C7.05085 12.1062 7.07812 12.0428 7.03721 12.0428C6.98267 12.0428 7.00994 11.9583 7.07812 11.8421C7.17358 11.7047 7.32358 11.6625 7.54176 11.6942C7.73267 11.7259 7.92358 11.6836 7.97812 11.6097C8.14176 11.4195 8.27812 11.7576 8.37358 12.6238Z" fill="currentColor"/>
</svg>
