<svg width="15" height="15" viewBox="0 0 15 15" fill="none" xmlns="http://www.w3.org/2000/svg">
<path d="M6.56179 1.18593C6.33008 1.33145 6.01301 1.62249 5.86667 1.84637C5.62276 2.23816 5.58618 2.24936 5.37886 2.08145C5.09837 1.84637 4.06179 1.84637 3.54959 2.08145C3.15935 2.26055 2.74472 2.83145 2.86667 3.02175C2.90325 3.08891 2.87886 3.13369 2.80569 3.13369C2.64715 3.13369 2.74472 3.90608 2.91545 4.06279C3.08618 4.21951 3.08618 4.58891 2.91545 4.58891C2.84228 4.58891 2.56179 4.7904 2.2935 5.04787C1.81789 5.49563 1.80569 5.51802 1.87886 6.07772C1.97642 6.81652 2.37886 7.16354 3.14715 7.16354C3.67154 7.16354 3.74472 7.25309 3.5374 7.6113C3.31789 7.9807 3.58618 8.85384 4.0252 9.21205C4.37886 9.50309 4.47642 9.52548 5.0374 9.46951C5.39106 9.43593 5.70813 9.41354 5.75691 9.40234C5.80569 9.40234 5.92764 9.31279 6.04959 9.21205C6.2813 8.99936 6.2813 8.94339 6.04959 9.8501C6.01301 10.0068 5.95203 10.4546 5.91545 10.8576C5.87886 11.2606 5.83008 11.7979 5.80569 12.0553C5.7813 12.3352 5.81789 12.5031 5.87886 12.4695C5.95203 12.4247 5.93984 12.5031 5.86667 12.6262C5.7813 12.7717 5.7813 12.8837 5.85447 12.9285C5.91545 12.962 5.93984 13.0628 5.90325 13.1523C5.81789 13.3314 6.25691 13.768 6.5252 13.768C6.62276 13.768 6.70813 13.8128 6.70813 13.8688C6.70813 13.9135 7.00081 13.9135 7.35447 13.8688C7.69593 13.8128 8.18374 13.7456 8.41545 13.7232C9.84228 13.5441 10.8423 12.9061 11.3667 11.8426C11.7813 10.9807 11.1593 10.5777 10.0374 10.9807C9.85447 11.0479 9.56179 11.1262 9.39106 11.1598C8.91545 11.2382 8.0374 11.6635 7.73252 11.977C7.14715 12.5591 6.95203 12.7941 6.95203 12.9509C6.95203 13.1523 6.74472 13.1411 6.65935 12.9173C6.62276 12.8277 6.61057 12.1785 6.64715 11.4956C6.68374 10.8016 6.70813 10.13 6.70813 9.99563C6.70813 9.69339 7.08618 9.65981 7.56179 9.90608C8.40325 10.3538 9.14715 9.89488 9.45203 8.7307C9.51301 8.47324 9.57398 8.45085 10.074 8.48443C10.8911 8.5516 11.1593 8.45085 11.4154 7.9807C11.7203 7.40981 11.7203 7.19712 11.4398 6.73816L11.2081 6.34637L11.5862 6.05533C11.7935 5.89861 12.0618 5.51802 12.1837 5.21578L12.4033 4.66727L11.9764 4.26428C11.7325 4.0404 11.452 3.8613 11.3545 3.8613C11.1959 3.8613 11.1472 3.70458 11.1228 3.15608C11.0862 2.52921 11.0496 2.43966 10.7935 2.32772C10.6228 2.26055 10.4886 2.15981 10.4886 2.11503C10.4886 2.07025 10.3057 1.94712 10.074 1.84637C9.63496 1.65608 8.70813 1.77921 8.51301 2.05906C8.46423 2.12622 8.41545 2.00309 8.41545 1.77921C8.41545 1.01802 7.40325 0.704583 6.56179 1.18593ZM7.69593 1.68966C7.92764 1.90234 7.95203 2.01428 7.89106 2.67473C7.7935 3.59264 7.92764 3.8613 8.24472 3.40234C8.90325 2.42846 9.37886 2.19339 10.0008 2.5404C10.6959 2.921 10.5984 3.39115 9.67154 4.12996L9.08618 4.58891L9.7935 4.53294C10.1837 4.49936 10.5618 4.44339 10.635 4.40981C10.7691 4.33145 11.7081 4.68966 11.7081 4.81279C11.7081 5.26055 10.6593 5.85384 9.97642 5.79787C9.57398 5.77548 9.46423 5.80906 9.43984 5.96578C9.42764 6.07772 9.48862 6.15608 9.59837 6.15608C9.90325 6.15608 10.8423 6.91727 10.9276 7.2307C11.1593 8.05906 9.98862 8.15981 8.97642 7.421C8.45203 7.01802 8.20813 7.25309 8.5374 7.84637C8.67154 8.08145 8.7813 8.40608 8.7813 8.57399C8.7813 8.87622 8.42764 9.51428 8.25691 9.51428C7.98862 9.51428 7.51301 9.08891 7.2935 8.62996C6.85447 7.72324 6.65935 7.38742 6.54959 7.38742C6.48862 7.38742 6.50081 7.46578 6.58618 7.55533C6.72032 7.70085 6.70813 7.71205 6.54959 7.66727C6.42764 7.62249 6.34228 7.67846 6.2813 7.81279C6.0374 8.5516 5.18374 9.05533 4.64715 8.78667C4.01301 8.48443 4.06179 7.68966 4.75691 7.0516C4.89106 6.92846 4.95203 6.74936 4.91545 6.62622C4.85447 6.40234 4.83008 6.40234 4.24472 6.57025C3.39106 6.79413 2.56179 6.53667 2.56179 6.04413C2.56179 5.49563 3.30569 5.00309 4.01301 5.09264C5.0374 5.22697 5.06179 5.21578 5.09837 4.96951C5.13496 4.76802 5.00081 4.66727 4.40325 4.421C3.74472 4.14115 3.67154 4.07399 3.5252 3.61503C3.14715 2.3613 4.74472 1.96951 5.46423 3.13369C5.76911 3.61503 5.84228 3.671 5.97642 3.52548C6.06179 3.43593 6.15935 3.37996 6.20813 3.41354C6.25691 3.43593 6.2813 3.22324 6.26911 2.94339C6.23252 2.42846 6.2813 2.3501 6.85447 1.77921C7.24472 1.38742 7.35447 1.37622 7.69593 1.68966ZM10.7325 11.6411C10.7325 11.865 9.72032 12.7606 9.40325 12.8277C9.23252 12.8613 8.95203 12.9285 8.7813 12.9844C8.61057 13.0404 8.26911 13.1076 8.01301 13.1411C7.58618 13.1859 7.57398 13.1747 7.69593 12.9732C8.04959 12.3576 10.7325 11.1934 10.7325 11.6411Z" fill="black"/>
<path d="M6.65868 4.7115C6.47575 4.95777 6.47575 4.99135 6.65868 5.11449C7.01234 5.34956 7.23185 4.99135 6.96356 4.59956C6.87819 4.48762 6.81722 4.51001 6.65868 4.7115Z" fill="black"/>
<path d="M8.00138 4.98114C7.74529 5.22741 7.80626 5.41771 8.14773 5.46248C8.48919 5.50726 8.63553 5.19383 8.39163 4.96995C8.23309 4.81323 8.18431 4.81323 8.00138 4.98114Z" fill="black"/>
<path d="M6.15912 5.75285C6.02497 5.8424 5.964 5.96553 6.01278 6.08867C6.14693 6.41329 6.58595 6.18941 6.58595 5.78643C6.58595 5.55135 6.464 5.54016 6.15912 5.75285Z" fill="black"/>
<path d="M7.37965 6.39164C7.33087 6.4588 7.31867 6.53716 7.35526 6.57074C7.45282 6.6491 7.92843 6.49238 7.92843 6.36925C7.92843 6.22373 7.47721 6.24612 7.37965 6.39164Z" fill="black"/>
</svg>
