<svg width="15" height="15" viewBox="0 0 15 15" fill="none" xmlns="http://www.w3.org/2000/svg">
<path d="M6.51522 1.19088C6.35922 1.25471 6.23922 1.33981 6.23922 1.39301C6.23922 1.43556 6.05922 1.56322 5.83122 1.68024C5.41122 1.89301 5.15922 2.39301 4.96722 3.32918C4.89522 3.68024 4.85922 3.72279 4.63122 3.64833C4.49922 3.60577 3.98322 3.56322 3.50322 3.57386C2.62722 3.5845 1.85922 3.89301 1.35522 4.43556C0.983223 4.85045 2.07522 6.99939 2.53122 6.74407C2.62722 6.70152 2.99922 7.10577 2.99922 7.25471C2.99922 7.29726 2.87922 7.42492 2.73522 7.55258C2.59122 7.6696 2.51922 7.76535 2.56722 7.76535C2.61522 7.76535 2.53122 7.92492 2.37522 8.10577C1.93122 8.65896 1.85922 10.2866 2.29122 10.0526C2.35122 10.01 2.38722 10.0419 2.37522 10.1164C2.26722 10.5313 3.69522 10.659 4.76322 10.3185C5.13522 10.2015 5.44722 10.1164 5.45922 10.1377C5.47122 10.1483 5.56722 10.3717 5.67522 10.6377C5.87922 11.1164 6.29922 11.6058 6.67122 11.7866C6.82722 11.8611 6.83922 11.9249 6.73122 12.1058C6.53922 12.4356 6.56322 13.393 6.76722 13.4675C7.16322 13.6058 7.43922 13.3185 7.43922 12.776C7.43922 12.3611 7.49922 12.2015 7.73922 12.01C7.89522 11.8717 8.03922 11.7015 8.03922 11.6377C8.03922 11.5632 8.13522 11.4888 8.25522 11.4675C8.50722 11.4036 8.99922 10.6058 8.99922 10.2653C8.99922 10.0207 9.02322 10.01 9.93522 10.0313C11.3272 10.0526 12.0232 9.89301 12.1672 9.49939C12.2512 9.25471 12.2272 8.51003 12.1312 8.51003C12.0952 8.51003 12.0472 8.36109 12.0472 8.1696C12.0352 7.97811 11.9272 7.75471 11.8072 7.6696C11.2912 7.28662 11.2792 6.99939 11.7472 6.5845C12.4912 5.92492 12.7072 5.61641 12.7912 5.11641C12.8392 4.85045 12.9232 4.57386 12.9832 4.49939C13.1992 4.25471 12.5992 3.75471 11.8792 3.57386C11.8432 3.56322 11.6632 3.47811 11.4592 3.38237C11.1592 3.24407 10.1152 3.19088 9.83922 3.29726C9.80322 3.3079 9.74322 3.31854 9.69522 3.31854C9.65922 3.3079 9.55122 3.37173 9.47922 3.45684C9.25122 3.70152 8.96322 3.65896 9.03522 3.39301C9.17922 2.92492 8.47122 1.68024 7.79922 1.20152C7.58322 1.04194 6.87522 1.04194 6.51522 1.19088ZM7.67922 1.91428C8.37522 2.55258 8.67522 3.46747 8.41122 4.18024L8.26722 4.55258L7.57122 4.49939C7.16322 4.46747 6.68322 4.49939 6.41922 4.57386C6.01122 4.69088 5.93922 4.69088 5.79522 4.51003C5.44722 4.0845 5.74722 2.57386 6.28722 2.09513C6.94722 1.51003 7.19922 1.47811 7.67922 1.91428ZM11.7232 4.02067C12.3232 4.3079 12.3952 4.51003 12.1312 5.06322C11.6392 6.0313 11.0272 6.51003 9.94722 6.73343C9.64722 6.79726 9.62322 6.77599 9.55122 6.32918C9.44322 5.72279 9.16722 5.24407 8.80722 5.0313C8.44722 4.82918 8.44722 4.79726 8.85522 4.37173C9.39522 3.79726 10.8712 3.61641 11.7232 4.02067ZM4.42722 4.20152C4.65522 4.24407 5.05122 4.41428 5.29122 4.57386L5.75922 4.87173L5.45922 5.06322C5.29122 5.1696 5.15922 5.31854 5.15922 5.38237C5.15922 5.4462 5.07522 5.56322 4.97922 5.63769C4.87122 5.71216 4.81122 5.83981 4.84722 5.91428C4.88322 5.98875 4.85922 6.0845 4.79922 6.11641C4.72722 6.15896 4.67922 6.29726 4.67922 6.43556C4.67922 6.77599 4.55922 6.81854 3.91122 6.71216C2.92722 6.55258 1.71522 5.31854 1.96722 4.73343C2.07522 4.47811 3.43122 4.02067 3.83922 4.09513C3.93522 4.11641 4.19922 4.1696 4.42722 4.20152ZM7.83522 5.14833C8.57922 5.42492 8.81922 5.77598 8.81922 6.5845C8.81922 7.42492 8.69922 7.59513 7.94322 7.88237C6.62322 8.38237 5.38722 7.75471 5.39922 6.5845C5.41122 5.9462 5.62722 5.63769 6.32322 5.29726C6.98322 4.96747 7.29522 4.93556 7.83522 5.14833ZM10.9672 7.61641C11.3752 8.13769 11.7232 9.11641 11.5432 9.27598C11.2912 9.49939 9.67122 9.42492 9.23922 9.1696C8.32722 8.65896 8.21922 8.5313 8.45922 8.29726C8.57922 8.18024 8.74722 8.0845 8.84322 8.0845C8.92722 8.0845 8.99922 8.0313 8.99922 7.95684C8.99922 7.89301 9.13122 7.68024 9.31122 7.47811C9.79122 6.91428 10.4272 6.96747 10.9672 7.61641ZM4.91922 7.4462C4.99122 7.56322 5.00322 7.65896 4.95522 7.65896C4.90722 7.65896 5.09922 7.85045 5.38722 8.09513L5.92722 8.52067L5.69922 8.85045C5.21922 9.57386 4.53522 9.89301 3.47922 9.89301C2.68722 9.89301 2.62722 9.82918 2.75922 9.11641C2.87922 8.42492 3.40722 7.51003 3.77922 7.35045C4.21122 7.1696 4.77522 7.21216 4.91922 7.4462ZM8.20722 9.0845C8.62722 9.72279 8.45922 10.393 7.70322 11.159L7.34322 11.5207L6.87522 11.1058C6.28722 10.5739 6.03522 9.87173 6.19122 9.1696L6.29922 8.6696L6.93522 8.65896C7.28322 8.65896 7.59522 8.61641 7.63122 8.5845C7.75122 8.47811 7.87122 8.5845 8.20722 9.0845Z" fill="currentColor"/>
<path d="M6.62401 5.96841C6.14401 6.12799 6.19201 7.11735 6.67201 7.04288C6.79201 7.0216 6.96001 6.98969 7.02001 6.98969C7.09201 6.97905 7.26001 6.86203 7.40401 6.72373C7.88401 6.28756 7.33201 5.74501 6.62401 5.96841Z" fill="currentColor"/>
</svg>
