<svg width="15" height="15" viewBox="0 0 15 15" fill="none" xmlns="http://www.w3.org/2000/svg">
<path d="M7.7433 0.920982C7.41403 0.9778 6.9994 0.989163 6.82867 0.966436C6.2433 0.8528 4.45062 1.11416 3.95062 1.37553C2.85306 1.96644 2.19452 3.1028 2.60916 3.69371C2.76769 3.90962 2.7433 3.96644 2.42623 4.33007C2.23111 4.54598 2.02379 4.77325 1.97501 4.83007C1.59696 5.26189 1.46281 6.46644 1.76769 6.70507C1.86525 6.78462 1.95062 6.94371 1.95062 7.05735C1.95062 7.61416 3.01159 8.19371 4.32867 8.3528C4.77989 8.42098 5.04818 8.53462 5.36525 8.81871C5.59696 9.02326 6.04818 9.29598 6.37745 9.42098C7.02379 9.68235 7.03599 9.71644 6.76769 10.6937C6.65794 11.0687 6.58477 11.4323 6.59696 11.5119C6.67013 12.0346 6.57257 12.0914 6.30428 11.7051C5.64574 10.7392 4.68233 10.2278 3.52379 10.2278C2.59696 10.2278 2.4872 10.7164 3.21891 11.6823C3.93842 12.6483 5.64574 13.6028 6.06038 13.2733C6.2433 13.1369 6.46281 13.3073 6.46281 13.6028C6.46281 13.8755 7.07257 13.7733 7.20672 13.4778C7.29208 13.3187 7.41403 13.2278 7.4994 13.2505C7.68233 13.3187 9.38964 12.921 10.0726 12.6596C10.9628 12.3073 12.6335 10.7278 12.4994 10.3414C12.3287 9.8528 9.30428 10.0801 8.70672 10.6255C8.57257 10.7505 8.29208 10.9778 8.07257 11.1255C7.86525 11.2733 7.65794 11.4892 7.62135 11.6028C7.57257 11.7278 7.4994 11.8187 7.45062 11.8187C7.36525 11.8187 7.59696 9.93235 7.69452 9.84144C7.71891 9.81871 8.06038 9.76189 8.43842 9.7278C9.29208 9.64826 9.64574 9.48916 10.3774 8.84144C11.2189 8.11416 11.4384 7.95507 11.6823 7.95507C11.8043 7.95507 12.1335 7.81871 12.414 7.64826C13.8409 6.78462 14.0238 4.38689 12.7311 3.6028C12.4994 3.46644 12.3165 3.27325 12.3165 3.18235C12.3165 2.70507 11.0238 1.40962 10.3043 1.15962C9.96282 1.04598 8.57257 0.784618 8.42623 0.807345C8.38964 0.818709 8.08477 0.864163 7.7433 0.920982ZM7.81647 1.6028C8.59696 1.43235 9.35306 1.45507 9.81647 1.65962C10.3896 1.90962 11.3896 2.86416 11.8165 3.58007C12.0238 3.90962 12.3043 4.26189 12.4628 4.36416C13.036 4.73916 12.7799 6.93235 12.1457 7.1028C11.2921 7.31871 10.6945 7.62553 10.1214 8.12553C9.26769 8.87553 9.09696 8.95507 8.14574 9.03462C7.2433 9.11416 6.56038 8.88689 5.85306 8.29598C5.32867 7.8528 4.9994 7.7278 4.37745 7.7278C3.27989 7.7278 2.46281 7.01189 2.42623 6.02325C2.38964 5.29598 2.59696 4.93235 3.23111 4.56871C3.79208 4.26189 3.92623 3.95507 3.59696 3.78462C3.4994 3.7278 3.36525 3.51189 3.29208 3.30735C3.19452 2.9778 3.21891 2.89825 3.62135 2.48916C4.27989 1.81871 4.76769 1.62553 5.90184 1.6028C6.43842 1.6028 6.88964 1.56871 6.92623 1.53462C6.96281 1.50053 7.06038 1.53462 7.13355 1.59144C7.2433 1.67098 7.46281 1.67098 7.81647 1.6028ZM11.4872 10.7619C11.6092 10.8187 10.5482 11.6823 10.1579 11.8528C9.9994 11.9096 9.87745 12.0119 9.87745 12.0687C9.87745 12.1142 9.79208 12.1596 9.69452 12.1596C9.58477 12.1596 9.34086 12.2392 9.15794 12.3301C8.65794 12.5687 7.7555 12.6937 7.81647 12.5119C7.92623 12.2164 8.86525 11.2619 9.32867 10.9778C9.7433 10.7164 9.93842 10.671 10.6092 10.6937C11.0482 10.7051 11.4384 10.7392 11.4872 10.7619ZM4.40184 10.9551C4.9872 11.1823 5.54818 11.6823 5.85306 12.2164L6.09696 12.671L5.85306 12.7051C5.58477 12.7505 4.26769 12.0914 4.26769 11.9323C4.26769 11.8755 4.09696 11.6483 3.88964 11.4323C3.34086 10.8414 3.57257 10.6255 4.40184 10.9551Z" fill="currentColor"/>
<path d="M7.38907 2.2845C7.35248 2.3754 7.2915 2.89813 7.25492 3.46631C7.16955 4.86404 7.18175 4.81859 6.96224 4.95495C6.76711 5.09131 6.45004 4.89813 5.41346 4.02313C5.03541 3.70495 4.3037 3.46631 4.14516 3.60268C4.10858 3.63677 4.23053 3.76177 4.41346 3.89813C5.41346 4.6595 5.65736 4.82995 5.74272 4.86404C5.8037 4.88677 5.85248 4.95495 5.85248 5.01177C5.85248 5.07995 5.98663 5.2504 6.15736 5.39813C6.53541 5.71631 6.46224 5.77313 5.5476 5.85268C4.84028 5.92086 4.14516 6.17086 4.14516 6.36404C4.14516 6.4095 4.40126 6.44359 4.73053 6.4095C5.0476 6.38677 5.51102 6.34131 5.77931 6.31859C6.37687 6.26177 7.36467 6.89813 7.57199 7.46631C7.73053 7.93222 7.88907 7.95495 7.90126 7.52313C7.91346 6.95495 8.41346 6.38677 9.02321 6.20495C9.32809 6.1254 9.59638 6.07995 9.63297 6.1254C9.70614 6.20495 10.9744 6.29586 10.9744 6.21631C10.9744 5.96631 10.0476 5.6595 9.43785 5.70495C8.31589 5.79586 8.34028 5.60268 9.58419 4.48904C10.4866 3.68222 10.6208 3.52313 10.3891 3.52313C10.0842 3.52313 9.38907 3.85268 9.38907 3.98904C9.38907 4.21631 8.19394 4.98904 7.95004 4.92086C7.69394 4.86404 7.68175 4.81859 7.76711 4.10268C7.90126 2.98904 7.86467 2.51177 7.64516 2.30722C7.47443 2.14813 7.43785 2.14813 7.38907 2.2845ZM7.8037 5.5345C8.08419 5.76177 8.10858 6.0345 7.90126 6.39813C7.81589 6.5345 7.73053 6.67086 7.71833 6.68222C7.70614 6.70495 7.53541 6.61404 7.32809 6.46631C6.87687 6.1595 6.84028 5.7845 7.23053 5.5345C7.57199 5.30722 7.51102 5.30722 7.8037 5.5345Z" fill="currentColor"/>
</svg>
