<svg width="15" height="15" viewBox="0 0 15 15" fill="none" xmlns="http://www.w3.org/2000/svg">
<path d="M6.10969 0.582326C5.97662 0.679449 5.91614 0.754988 5.96453 0.754988C6.02501 0.754988 5.97662 0.830528 5.87985 0.92765C5.77098 1.01398 5.6863 1.15427 5.6863 1.2406C5.6863 1.31614 5.60162 1.40247 5.50485 1.44564C5.40807 1.47801 5.3234 1.55355 5.3234 1.6183C5.3234 1.68305 5.38388 1.70463 5.44436 1.67225C5.51695 1.63988 5.56533 1.66146 5.56533 1.71542C5.56533 1.92046 5.42017 1.84492 5.03307 1.45643C4.5492 0.960024 3.89598 0.895276 3.4363 1.31614C3.10969 1.59672 3.08549 1.72621 3.19436 2.47082C3.25485 2.91326 3.24275 2.93484 2.98872 2.85931C2.34759 2.67585 1.1984 2.95643 1.40404 3.24779C1.44033 3.30175 1.40404 3.34492 1.33146 3.34492C0.944365 3.34492 1.50082 4.20823 2.09356 4.53197L2.43227 4.72621L1.97259 4.80175C1.31936 4.90967 0.835494 5.39528 0.932268 5.85931C1.02904 6.35571 1.29517 6.58233 1.77904 6.58233C2.28711 6.58233 2.40807 6.81974 2.12985 7.2406C2.02098 7.41326 1.9484 7.59672 1.98469 7.65067C2.03307 7.70463 1.99678 7.76938 1.9242 7.79096C1.82743 7.82333 1.85162 7.95283 1.97259 8.22261C2.14195 8.57873 2.19033 8.60031 2.71049 8.6111C3.01291 8.6219 3.26695 8.57873 3.26695 8.51398C3.26695 8.44923 3.32743 8.43844 3.38791 8.47082C3.46049 8.50319 3.54517 8.46002 3.58146 8.37369C3.71453 8.07154 3.8234 8.19024 3.77501 8.57873C3.66614 9.37729 3.84759 9.89528 4.24678 9.97082C4.60969 10.0356 5.28711 9.80895 5.46856 9.56074C5.58953 9.40967 5.58953 9.46362 5.62582 10.4672C5.66211 11.8701 5.81936 13.4348 5.94033 13.532C6.14598 13.7262 6.41211 13.683 6.48469 13.4456C6.54517 13.219 6.64195 13.1866 7.37985 13.1327C8.23872 13.0679 9.38791 12.6471 9.52098 12.3557C9.55727 12.2694 9.65404 12.1938 9.73872 12.1938C9.83549 12.1938 10.1016 11.978 10.3436 11.719C11.0331 10.9636 10.6944 10.683 9.24275 10.8018C7.87582 10.9205 7.68227 10.9852 7.06533 11.5032C6.75082 11.7622 6.47259 11.9672 6.46049 11.9456C6.4363 11.9348 6.41211 11.5571 6.38791 11.1147L6.35162 10.3161H6.77501C7.15001 10.3053 7.21049 10.2622 7.39195 9.81974C7.63388 9.24779 7.76695 9.18305 8.06936 9.52837C8.19033 9.66866 8.38388 9.77657 8.50485 9.75499C8.61372 9.7442 8.71049 9.77657 8.71049 9.83053C8.71049 9.93844 9.08549 9.96002 9.36372 9.8629C9.47259 9.83053 9.58146 9.59312 9.62985 9.30175C9.75082 8.53556 9.8113 8.48161 10.5008 8.51398C11.0089 8.53556 11.1298 8.50319 11.2992 8.28736C11.5411 7.9852 11.5532 7.3701 11.3113 6.8629C11.1298 6.47441 11.1298 6.47441 11.4323 6.3665C11.6137 6.30175 11.7952 6.25859 11.8557 6.25859C12.0613 6.25859 12.3395 5.78377 12.3395 5.43844C12.3395 4.9852 11.9403 4.55355 11.4323 4.46722C10.9242 4.38089 10.9242 4.40247 11.3718 4.01398C11.7347 3.69024 11.8557 3.13988 11.6379 2.84851C11.5048 2.65427 10.6581 2.46002 10.3315 2.52477C10.0411 2.58952 10.029 2.56794 10.0411 2.2442C10.0774 1.70463 10.0653 1.68305 9.67824 1.29456C9.35162 0.970816 9.27904 0.938442 9.0613 1.05715C8.92824 1.13269 8.75888 1.16506 8.6863 1.12189C8.61372 1.07873 8.48066 1.13269 8.38388 1.2406C8.2992 1.3593 8.22662 1.41326 8.22662 1.3701C8.22662 1.32693 8.10566 1.33772 7.97259 1.41326C7.77904 1.49959 7.73066 1.49959 7.76695 1.40247C7.82743 1.2406 6.93227 0.431247 6.69033 0.431247C6.59356 0.431247 6.55727 0.474413 6.59356 0.539161C6.62985 0.593118 6.61775 0.647075 6.54517 0.647075C6.48469 0.647075 6.41211 0.593118 6.38791 0.539161C6.36372 0.463621 6.25485 0.485204 6.10969 0.582326ZM6.96856 1.42405C7.02904 1.56434 7.05324 1.70463 7.04114 1.74779C7.02904 1.80175 7.08953 1.83413 7.1742 1.83413C7.28307 1.83413 7.28307 1.85571 7.16211 1.93125C6.90807 2.07154 7.10162 3.02118 7.37985 3.02118C7.50082 3.02118 7.63388 2.91326 7.67017 2.77297C7.86372 2.15787 8.83146 1.57513 9.17017 1.87729C9.37582 2.06074 9.24275 2.46002 8.74678 3.1183C8.58953 3.32333 8.46856 3.54995 8.46856 3.62549C8.46856 3.71182 8.42017 3.77657 8.34759 3.77657C8.28711 3.77657 8.22662 3.81974 8.22662 3.88449C8.22662 3.93844 8.33549 3.9924 8.46856 3.9924C8.60162 3.9924 8.71049 3.94923 8.71049 3.89528C8.71049 3.83053 9.0613 3.63628 9.48469 3.45283C10.3798 3.05355 11.0936 3.03197 11.0331 3.39887C10.9968 3.64707 10.1137 4.40247 9.71453 4.54276C9.09759 4.74779 9.40001 4.93125 10.4645 4.9852C11.5653 5.03916 11.8073 5.13628 11.6742 5.48161C11.5774 5.76218 11.275 5.84851 10.3436 5.89168C9.20646 5.93484 9.0734 6.02118 9.70243 6.33413C10.525 6.7442 10.8879 7.1111 10.8879 7.51038C10.8879 8.09312 10.2831 8.03916 9.36372 7.3701C8.65001 6.8629 8.00888 6.94923 8.56533 7.47801C8.87985 7.76938 9.19436 8.42765 9.19436 8.76218C9.18227 9.60391 8.52904 9.37729 7.97259 8.34132C7.62178 7.66146 7.44033 7.45643 7.24678 7.44564C7.21049 7.44564 7.13791 7.8665 7.10162 8.38449C7.04114 9.42046 6.95646 9.71182 6.72662 9.71182C6.40001 9.71182 6.25485 9.20463 6.32743 8.37369C6.36372 7.92046 6.37582 7.55355 6.35162 7.55355C6.32743 7.55355 6.23065 7.52118 6.12178 7.4888C5.98872 7.44564 5.84356 7.60751 5.57743 8.1147C5.11775 8.96722 4.65807 9.4852 4.48872 9.33413C4.31936 9.18305 4.53711 8.25499 4.85162 7.78017C5.17824 7.29456 5.23872 6.9924 5.04517 6.88449C4.82743 6.75499 4.80324 6.76578 4.33146 7.15427C3.71453 7.65067 2.83146 8.07154 2.66211 7.92046C2.49275 7.76938 3.13388 7.01398 3.76291 6.64708C4.25888 6.34492 4.25888 6.34492 4.02904 6.13988C3.83549 5.95643 3.75082 5.94564 3.40001 6.05355C2.96453 6.19384 1.86372 6.12909 1.68227 5.96722C1.37985 5.69743 2.22662 5.17945 2.97662 5.17945C3.32743 5.17945 3.75082 5.00679 3.75082 4.85571C3.75082 4.80175 3.46049 4.6183 3.10969 4.43484C2.34759 4.04636 1.99678 3.73341 2.11775 3.54995C2.25082 3.3665 3.32743 3.496 4.02904 3.77657C4.96049 4.14348 5.12985 3.85211 4.36775 3.19384C4.11372 2.96722 3.85969 2.64348 3.8234 2.47082C3.75082 2.1147 3.92017 1.6183 4.11372 1.6183C4.29517 1.6183 4.9242 2.23341 5.22662 2.70823C5.49275 3.13988 5.95243 3.19384 5.86775 2.79456C5.77098 2.3629 6.40001 1.18664 6.71453 1.18664C6.8113 1.18664 6.92017 1.29456 6.96856 1.42405ZM9.67824 11.4277C9.67824 11.7082 7.81533 12.6255 7.25888 12.6255C6.58146 12.6255 7.59759 11.7514 8.58953 11.4924C9.17017 11.3305 9.67824 11.3089 9.67824 11.4277Z" fill="currentColor"/>
<path d="M6.45974 3.94908C6.39925 3.95987 6.2057 4.00304 6.01216 4.03541C4.7057 4.2944 4.3428 5.91311 5.4678 6.4311C6.2178 6.77642 7.08877 6.84117 7.56054 6.57138C7.94764 6.36635 8.4799 5.62174 8.41941 5.37354C8.39522 5.298 8.33474 5.02822 8.28635 4.79081C8.16538 4.19728 7.27022 3.77642 6.45974 3.94908ZM6.83474 4.4239C6.88312 4.48865 6.9678 4.51023 7.02828 4.47786C7.30651 4.31599 7.7299 4.8016 7.74199 5.25484C7.74199 5.51383 7.69361 5.71887 7.62103 5.71887C7.56054 5.71887 7.50006 5.78361 7.50006 5.86994C7.50006 5.95628 7.41538 6.04261 7.31861 6.08577C7.19764 6.12894 7.13716 6.07498 7.13716 5.93469C7.13716 5.81599 7.20974 5.71887 7.30651 5.71887C7.53635 5.71887 7.62103 5.24404 7.45167 4.94189C7.36699 4.8016 7.22183 4.70448 7.10087 4.72606C6.99199 4.74764 6.89522 4.70448 6.89522 4.63973C6.89522 4.58577 6.81054 4.53181 6.71377 4.53181C6.61699 4.53181 6.53232 4.47786 6.53232 4.4239C6.53232 4.28361 6.73796 4.28361 6.83474 4.4239ZM6.41135 4.53181C6.41135 4.59656 6.27828 4.69369 6.10893 4.74764C5.78232 4.85556 5.72183 4.95268 5.64925 5.39512C5.58877 5.75124 5.80651 5.9239 6.45974 5.99944C7.20974 6.09656 7.18554 6.3016 6.44764 6.22606C5.37103 6.11815 5.02022 5.39512 5.77022 4.79081C6.2299 4.41311 6.41135 4.33757 6.41135 4.53181Z" fill="currentColor"/>
</svg>
