<svg width="15" height="15" viewBox="0 0 15 15" fill="none" xmlns="http://www.w3.org/2000/svg">
<path d="M7.50046 1.3711C7.02678 1.46979 6.64332 1.66716 6.35008 1.94347C6.05685 2.21979 5.88768 2.22966 5.68467 1.99281C5.60572 1.904 5.52678 1.86453 5.52678 1.92374C5.52678 1.97308 5.2561 2.02242 4.92903 2.01255C4.35384 2.00268 3.54181 2.25926 3.36136 2.50597C3.31625 2.56518 3.25986 2.60466 3.24858 2.58492C3.09069 2.43689 2.58317 2.83163 2.28993 3.32505C1.71475 4.27242 1.61324 5.11124 2.01926 5.60466C2.14332 5.77242 2.2561 5.95005 2.2561 6.00926C2.2561 6.06847 2.33505 6.11781 2.44783 6.11781C2.60572 6.11781 2.59444 6.14742 2.40272 6.28558C1.92903 6.66058 1.62452 7.79545 2.00798 7.79545C2.14332 7.79545 2.15459 7.82505 2.06437 7.87439C1.82753 8.00268 2.26738 8.62439 2.94407 9.14742C3.28241 9.41387 3.57565 9.64084 3.60948 9.67045C4.07189 10.0948 5.21099 10.2132 5.91023 9.90729C6.27114 9.74939 6.47414 9.86781 6.37264 10.1639C6.2373 10.5586 6.21475 12.3349 6.35008 12.2757C6.45159 12.2264 6.45159 12.2362 6.35008 12.3349C6.27114 12.4139 6.24858 12.5323 6.31625 12.6803C6.37264 12.8086 6.3952 12.927 6.36136 12.9566C6.2373 13.0553 6.66587 13.2329 6.88016 13.1737C7.08317 13.1145 7.117 13.0553 7.06061 12.8481C6.81249 11.881 6.86888 10.2527 7.13956 10.4402C7.30873 10.5586 9.07941 10.4797 9.07941 10.3612C9.07941 10.3514 9.27114 10.3218 9.50798 10.3119C9.99294 10.2724 10.7486 9.91716 11.1546 9.53229C11.3125 9.39413 11.3914 9.27571 11.3463 9.27571C11.3012 9.27571 11.3463 9.20663 11.4478 9.11781C11.5493 9.029 11.6057 8.89084 11.5719 8.82176C11.5381 8.74281 11.5606 8.6836 11.6283 8.6836C11.6959 8.6836 11.7072 8.63426 11.6734 8.57505C11.4591 8.279 11.5493 7.98295 11.9553 7.66716C12.3162 7.39084 12.5305 7.11452 12.8576 6.51255C13.1621 5.95992 13.0606 4.58821 12.6772 3.93689C12.5193 3.66058 11.82 3.14742 11.5606 3.11781C11.4704 3.10795 11.3576 3.06847 11.3238 3.029C11.2787 2.98953 11.1208 2.95992 10.9741 2.95992C10.7711 2.95992 10.6584 2.86124 10.5005 2.53558C10.1057 1.77571 8.5155 1.14413 7.50046 1.3711ZM8.96663 2.07176C9.80121 2.41716 9.95911 2.58492 9.98166 3.14742C9.99294 3.42374 9.95911 3.65071 9.90272 3.65071C9.8576 3.65071 9.81249 3.70992 9.81249 3.779C9.81249 3.92702 9.6546 4.09479 8.83129 4.87439C8.39144 5.28887 8.28993 5.33821 8.18843 5.20992C8.12076 5.13097 7.9967 5.08163 7.92903 5.10137C7.82753 5.13097 7.78241 5.04216 7.78241 4.84479C7.78241 4.50926 7.56813 4.43031 7.4779 4.72637C7.39896 5.01255 6.88016 5.19018 6.88016 4.92374C6.88016 4.81518 6.7561 4.39084 6.5982 3.98624C6.15835 2.85137 6.20347 2.70334 7.10572 2.18031C7.71475 1.82505 8.30121 1.78558 8.96663 2.07176ZM5.7185 2.95992C5.72978 3.20663 5.8764 3.78887 6.03429 4.27242C6.36136 5.26913 6.3952 5.58492 6.15835 5.29874C5.86512 4.97308 5.41399 5.22966 5.70723 5.56518C5.92151 5.82176 5.7185 6.03887 5.38016 5.93031C5.24482 5.88097 4.68091 5.86124 4.12828 5.8711C3.1358 5.89084 3.11324 5.88097 2.79745 5.58492C2.50422 5.29874 2.48166 5.22966 2.50422 4.5586C2.5155 4.17374 2.57189 3.84808 2.617 3.84808C2.66211 3.84808 2.7749 3.71979 2.8764 3.55202C3.10196 3.16716 4.65835 2.48624 5.26738 2.50597C5.69595 2.51584 5.69595 2.51584 5.7185 2.95992ZM11.6057 3.75926C12.102 4.08492 12.3162 4.54874 12.3275 5.36781C12.3388 6.42374 11.6734 7.49939 11.008 7.49939C10.7824 7.49939 10.6245 7.44018 9.84632 7.07505C9.67715 6.98624 9.36136 6.86781 9.15835 6.78887C8.96663 6.71979 8.80873 6.6211 8.83129 6.56189C8.85384 6.51255 8.89896 6.48295 8.94407 6.51255C9.03429 6.57176 9.35008 6.20663 9.36136 6.03887C9.36136 5.95005 9.28241 5.93031 9.1358 5.96979C8.68467 6.09808 8.54933 5.90071 8.83129 5.54545C8.96663 5.37768 9.1358 5.22966 9.19219 5.22966C9.47414 5.22966 10.602 3.85795 10.602 3.51255C10.602 3.32505 11.1208 3.44347 11.6057 3.75926ZM7.55685 5.6836C7.55685 5.76255 7.51174 5.82176 7.44407 5.82176C7.38768 5.82176 7.33129 5.78229 7.33129 5.74281C7.33129 5.69347 7.25234 5.654 7.16211 5.654C7.04933 5.654 7.00422 5.71321 7.04933 5.79216C7.08317 5.89084 7.04933 5.92045 6.89144 5.8711C6.74482 5.83163 6.66587 5.8711 6.62076 6.01913C6.58693 6.12768 6.4967 6.2165 6.42903 6.2165C6.32753 6.2165 6.31625 6.18689 6.41775 6.07834C6.48542 6.00926 6.50798 5.8711 6.47414 5.77242C6.41775 5.654 6.45159 5.61452 6.60948 5.63426C6.72226 5.64413 6.94783 5.60466 7.10572 5.55531C7.42151 5.43689 7.55685 5.47637 7.55685 5.6836ZM8.04181 5.88097C8.00798 5.95992 8.04181 6.07834 8.10948 6.14742C8.19971 6.2461 8.17715 6.33492 8.05309 6.49281C7.96287 6.61124 7.91775 6.75926 7.95159 6.8086C7.98542 6.86781 7.94031 6.90729 7.85008 6.90729C7.74858 6.90729 7.66963 6.83821 7.66963 6.75926C7.66963 6.68031 7.71475 6.61124 7.77114 6.61124C7.90648 6.61124 8.00798 6.22637 7.88392 6.16716C7.72602 6.07834 7.80497 5.63426 7.96287 5.69347C8.04181 5.72308 8.07565 5.80202 8.04181 5.88097ZM5.50422 6.45334C5.617 6.51255 5.60572 6.56189 5.42527 6.68031C5.10948 6.86781 5.13204 7.00597 5.48166 7.00597C5.89896 7.00597 6.20347 7.1836 6.20347 7.42045C6.20347 7.57834 6.2373 7.60795 6.32753 7.529C6.54181 7.3415 7.02678 7.58821 6.93655 7.83492C6.89144 7.95334 6.8576 8.10137 6.8576 8.16058C6.84632 8.22966 6.80121 8.28887 6.74482 8.28887C6.69971 8.28887 6.6546 8.34808 6.6546 8.41716C6.6546 8.59479 5.63956 9.4336 5.32377 9.52242C4.85008 9.64084 4.38768 9.46321 3.57565 8.81189C2.41399 7.904 2.23354 7.27242 2.93279 6.64084C3.16963 6.42374 3.37264 6.34479 3.73354 6.32505C4.00422 6.31518 4.24106 6.29545 4.25234 6.27571C4.30873 6.22637 5.3576 6.37439 5.50422 6.45334ZM6.6546 6.71979C6.6546 6.88755 6.60948 6.9961 6.54181 6.95663C6.48542 6.92702 6.42903 6.82834 6.42903 6.74939C6.42903 6.67045 6.37264 6.61124 6.30497 6.61124C6.24858 6.61124 6.22602 6.56189 6.25986 6.51255C6.41775 6.29545 6.6546 6.41387 6.6546 6.71979ZM7.32001 6.87768C7.70347 6.92702 7.70347 7.10466 7.30873 7.10466C7.06061 7.10466 6.88016 7.04545 6.84632 6.9665C6.76738 6.78887 6.86888 6.69018 7.03805 6.779C7.10572 6.81847 7.22978 6.85795 7.32001 6.87768ZM9.36136 7.39084C9.57565 7.53887 10.0493 7.7461 10.399 7.83492C10.7937 7.9336 11.0305 8.04216 11.008 8.1211C10.9854 8.18031 10.8952 8.44676 10.8275 8.70334C10.7147 9.06847 10.602 9.2165 10.2862 9.37439C9.37264 9.84808 7.6358 10.1047 7.16211 9.82834C6.7561 9.60137 6.77866 9.404 7.34257 8.33821C7.39896 8.22966 7.46663 8.04216 7.50046 7.91387C7.56813 7.57834 7.66963 7.48952 7.90648 7.54873C8.01926 7.58821 8.18843 7.57834 8.27866 7.529C8.43655 7.45005 8.45911 7.41058 8.45911 7.20334C8.45911 7.00597 8.9779 7.11452 9.36136 7.39084Z" fill="black"/>
</svg>
