<svg width="15" height="15" viewBox="0 0 15 15" fill="none" xmlns="http://www.w3.org/2000/svg">
<path d="M8.01438 1.01764C7.98079 1.11407 7.89124 1.15692 7.82408 1.12478C7.76811 1.08192 7.6002 1.13549 7.47706 1.25335C7.0293 1.62835 6.62632 2.78549 6.95094 2.78549C7.00691 2.78549 7.0405 2.82835 7.00691 2.88192C6.90617 3.03192 6.67109 2.96764 6.36885 2.68907C5.83154 2.19621 4.92482 1.79978 4.92482 2.04621C4.92482 2.11049 4.83527 2.11049 4.70094 2.03549C4.30915 1.83192 3.69348 2.63549 3.69348 3.35335C3.69348 3.71764 4.3987 5.02478 4.54423 4.92835C4.589 4.89621 4.64497 4.94978 4.66736 5.03549C4.70094 5.14264 4.68975 5.15335 4.62258 5.07835C4.54423 4.96049 4.05169 4.96049 3.35766 5.06764C2.95467 5.12121 2.56288 5.33549 2.27184 5.64621C1.74572 6.21407 2.31661 7.39264 3.21214 7.55335C3.32408 7.57478 3.43602 7.59621 3.4696 7.61764C3.50318 7.62835 3.58154 7.64978 3.63751 7.66049C4.38751 7.79978 4.45467 7.87478 4.15244 8.18549C4.0405 8.31407 3.839 8.60335 3.70467 8.83907C2.84273 10.3926 4.84647 11.3998 6.1002 10.0498C6.45841 9.66407 6.44721 9.66407 6.54796 10.3926C6.59273 10.7141 6.67109 11.0355 6.73826 11.1105C6.79423 11.1855 6.81662 11.2819 6.78303 11.3462C6.73826 11.3998 6.80542 11.4748 6.92856 11.5176C7.3987 11.6569 7.51064 11.9355 7.51064 12.8891C7.51064 13.9498 7.68975 14.2819 8.05915 13.8426C8.22706 13.6498 8.24945 13.4676 8.20467 12.7605C8.1599 12.0855 8.18229 11.8605 8.31662 11.7426C8.40617 11.6569 8.50691 11.6034 8.5405 11.6355C8.60766 11.6998 9.20094 10.7676 9.26811 10.4998C9.2905 10.4141 9.32408 10.2319 9.33527 10.0926C9.34647 9.82478 9.45841 9.78192 9.55915 10.0176C9.59273 10.1034 9.86139 10.3284 10.1524 10.4998C10.7681 10.8748 11.6524 10.8855 11.9323 10.5212C12.2569 10.1141 12.4136 9.67478 12.3577 9.28907C12.3017 8.86049 11.8315 8.03549 11.6412 8.03549C11.5741 8.03549 11.5293 7.99264 11.5293 7.93907C11.5293 7.88549 11.742 7.85335 11.9995 7.87478C13.4323 8.00335 14.4174 6.57835 13.4659 5.78549C13.2644 5.60335 12.8614 5.41049 12.5815 5.34621C12.0442 5.21764 11.9771 4.93907 12.4248 4.63907C12.9062 4.31764 13.0293 3.08549 12.6039 2.84978C12.4808 2.78549 12.2905 2.64621 12.1786 2.53907C11.7756 2.17478 10.9696 2.34621 10.1077 2.97835C9.90617 3.11764 9.73826 3.19264 9.72706 3.14978C9.72706 3.09621 9.72706 2.82835 9.73826 2.54978C9.74945 2.05692 9.50318 1.39264 9.2905 1.39264C9.22333 1.39264 9.17856 1.31764 9.17856 1.23192C9.17856 1.14621 9.14497 1.07121 9.1002 1.06049C9.04423 1.06049 8.93229 1.03907 8.84273 1.00692C8.19348 0.846208 8.09273 0.846208 8.01438 1.01764ZM8.9099 1.79978C9.11139 2.05692 9.22333 2.80692 9.11139 3.23549C9.05542 3.42835 9.01065 3.63192 8.99945 3.69621C8.97706 3.87835 8.84273 4.21049 8.58527 4.68192C8.10393 5.60335 7.54423 5.01407 7.43229 3.47121C7.35393 2.48549 7.56662 1.73549 7.9696 1.56407C8.21587 1.46764 8.75318 1.59621 8.9099 1.79978ZM6.03303 3.18192C6.39124 3.52478 6.76064 4.00692 6.87259 4.25335C6.99572 4.49978 7.17482 4.78907 7.28676 4.88549C7.54423 5.09978 7.55542 5.24978 7.34273 5.24978C7.25318 5.24978 7.10766 5.34621 7.01811 5.47478C6.90617 5.61407 6.839 5.64621 6.80542 5.56049C6.78303 5.48549 6.63751 5.41049 6.49199 5.38907C6.34647 5.36764 6.18975 5.31407 6.15617 5.27121C6.12259 5.21764 5.92109 5.07835 5.68602 4.94978C5.26064 4.70335 4.47706 3.93192 4.47706 3.76049C4.47706 3.70692 4.3987 3.57835 4.30915 3.49264C4.16363 3.35335 4.15244 3.28907 4.27557 3.08549C4.35393 2.94621 4.42109 2.80692 4.43229 2.75335C4.44348 2.71049 4.45467 2.65692 4.46587 2.62478C4.46587 2.59264 4.68975 2.57121 4.93602 2.57121C5.36139 2.57121 5.47333 2.63549 6.03303 3.18192ZM12.2233 3.37478C12.5032 3.95335 11.4733 4.94978 9.98453 5.54978C9.35766 5.80692 8.92109 5.78549 9.03303 5.49621C9.06662 5.41049 9.03303 5.29264 8.95467 5.24978C8.75318 5.13192 8.94348 4.86407 9.82781 3.99621C10.9024 2.92478 11.8875 2.66764 12.2233 3.37478ZM5.32781 5.57121C6.41363 5.76407 6.60393 5.86049 6.52557 6.22478C6.49199 6.42835 6.51438 6.53549 6.59273 6.53549C6.98453 6.53549 6.49199 6.74978 5.74199 6.91049C3.96214 7.29621 3.02184 7.13549 2.75318 6.38549C2.49572 5.72121 3.79423 5.31407 5.32781 5.57121ZM8.57408 5.82835C8.92109 6.06407 8.78676 6.98549 8.39497 7.07121C8.07035 7.14621 7.4099 6.95335 7.26438 6.73907C6.8502 6.10692 7.89124 5.37835 8.57408 5.82835ZM12.6151 5.96764C13.3092 6.27835 13.3987 6.57835 12.9062 7.01764C12.3689 7.48907 11.3166 7.46764 9.91736 6.95335C9.36885 6.74978 9.33527 6.71764 9.38005 6.42835C9.42482 6.14978 9.48079 6.10692 10.0069 6.01049C10.3203 5.95692 10.6786 5.88192 10.8017 5.86049C11.3502 5.74264 12.2233 5.79621 12.6151 5.96764ZM6.89497 7.33907C7.13005 7.58549 7.16363 8.03549 6.93975 8.03549C6.88378 8.03549 6.71587 8.28192 6.55915 8.58192C6.22333 9.23549 5.26064 10.0712 4.85766 10.0712C4.70094 10.0712 4.45467 9.95335 4.29796 9.80335L4.01811 9.53549L4.30915 9.01049C4.56661 8.50692 5.39497 7.72478 6.11139 7.28549C6.53676 7.02835 6.59273 7.02835 6.89497 7.33907ZM9.51438 7.27478C9.51438 7.32835 9.8502 7.54264 10.2756 7.74621C11.2271 8.22835 11.6972 8.77478 11.6972 9.38549C11.6972 10.8212 10.3763 10.3069 9.07781 8.36764C8.75318 7.89621 8.69721 7.40335 8.97706 7.56407C9.03303 7.59621 9.11139 7.53192 9.14497 7.40335C9.20094 7.18907 9.51438 7.08192 9.51438 7.27478ZM8.03676 7.78907C8.3502 7.59621 8.73079 8.71049 8.73079 9.82478C8.73079 10.7891 8.04796 11.5391 7.56662 11.0891C7.47706 11.0034 7.35393 10.9284 7.28676 10.9284C7.2196 10.9284 7.16363 10.6926 7.15244 10.3926C7.14124 10.0926 7.13005 9.77121 7.13005 9.66407C7.08527 8.87121 7.54423 7.53192 7.7905 7.72478C7.86885 7.78907 7.98079 7.81049 8.03676 7.78907Z" fill="black"/>
</svg>
