<svg width="15" height="15" viewBox="0 0 15 15" fill="none" xmlns="http://www.w3.org/2000/svg">
<path d="M5.41315 1.47955C5.31533 1.60369 5.15228 1.91403 5.03815 2.17265C4.94033 2.43128 4.80989 2.5761 4.77728 2.50369C4.66315 2.29679 3.78272 2.34852 3.58706 2.5761C3.40772 2.79334 3.58706 3.23817 3.89685 3.36231C4.17402 3.46576 4.1088 3.57955 3.7175 3.70369C3.50554 3.76576 3.44033 3.81748 3.53815 3.81748C3.68489 3.82783 3.70119 3.90024 3.58706 4.08645C3.48924 4.26231 3.48924 4.34507 3.60337 4.34507C3.70119 4.34507 3.7338 4.38645 3.68489 4.43817C3.63598 4.4899 3.78272 4.64507 4.02728 4.80024C4.41859 5.05886 4.43489 5.07955 4.17402 5.25541C3.81533 5.51403 3.84793 5.71059 4.25554 5.9899C4.58163 6.20714 4.58163 6.22783 4.32076 6.35197C3.44033 6.76576 4.41859 7.69679 5.9675 7.90369C6.57076 7.98645 7.17402 8.31748 7.19033 8.56576C7.19033 8.65886 7.22293 8.85541 7.25554 9.00024C7.43489 9.83817 7.4675 10.8623 7.33706 10.8623C7.23924 10.8623 7.17402 10.8209 7.17402 10.7796C7.17402 10.7278 6.89685 10.5106 6.57076 10.283C6.22837 10.0658 6.06533 9.93128 6.19576 9.97266C6.32619 10.0244 6.22837 9.92093 5.9675 9.74507C5.29902 9.2899 3.70119 8.77266 3.06533 8.81403C2.47837 8.84507 2.2338 9.27955 2.69033 9.51748C2.82076 9.5899 2.93489 9.69334 2.93489 9.74507C2.93489 10.0451 5.07076 11.4623 6.08163 11.814C6.40772 11.9382 6.68489 12.0727 6.68489 12.1244C6.68489 12.1658 6.79902 12.2071 6.92946 12.2071C7.05989 12.2071 7.17402 12.2485 7.17402 12.3106C7.17402 12.3623 7.28815 12.414 7.43489 12.414C7.63054 12.414 7.66315 12.4864 7.59793 12.7037C7.4838 13.0554 7.67946 13.2727 8.08706 13.2209C8.33163 13.1899 8.39685 13.0968 8.39685 12.7658C8.39685 12.3002 8.73924 11.9071 9.45663 11.5761C11.136 10.7796 13.1414 7.98645 12.3262 7.56231C11.511 7.13817 9.37511 8.62783 8.49467 10.2416L8.18489 10.8002L8.08706 10.4485C8.03815 10.252 8.00554 10.014 8.00554 9.93128C8.00554 9.84852 7.97293 9.53817 7.90772 9.25886C7.59793 7.57265 7.59793 7.68645 8.10337 7.3761C8.34793 7.21059 8.73924 7.01403 8.93489 6.93128C9.32619 6.7761 9.7338 5.89679 9.44033 5.89679C9.3588 5.89679 9.30989 5.79334 9.3425 5.67955C9.3588 5.51403 9.24467 5.43128 8.88598 5.34852C8.26641 5.21403 8.2338 5.20369 8.42946 5.04852C8.75554 4.77955 8.65772 4.31403 8.2175 4.02438C7.98924 3.86921 7.8425 3.69334 7.89141 3.63128C8.39685 3.12438 7.92402 2.43128 7.15772 2.55541C6.88054 2.60714 6.84793 2.55541 6.84793 2.10024C6.84793 1.35541 5.85337 0.931275 5.41315 1.47955ZM6.26098 2.04852C6.04902 2.64852 5.83706 3.00024 5.67402 3.00024C5.41315 3.00024 5.6088 1.86231 5.86967 1.75886C6.21206 1.62438 6.37511 1.73817 6.26098 2.04852ZM4.67946 2.86576C5.10337 3.11403 5.26641 3.41403 4.97293 3.41403C4.71206 3.41403 4.04359 2.85541 4.19033 2.75196C4.32076 2.66921 4.30446 2.65886 4.67946 2.86576ZM7.50011 3.2899C7.50011 3.383 7.35337 3.60024 7.19033 3.76576C7.01098 3.94162 6.91315 4.11748 6.96206 4.16921C7.01098 4.23128 6.97837 4.24162 6.89685 4.21059C6.79902 4.16921 6.66859 4.22093 6.61967 4.31403C6.53815 4.42783 6.45663 4.44852 6.3425 4.3761C6.17946 4.27265 6.65228 3.42438 7.04359 3.13472C7.25554 2.96921 7.50011 3.05196 7.50011 3.2899ZM5.33163 4.21059C5.82076 4.66576 6.04902 5.05886 5.86967 5.12093C5.77185 5.16231 5.70663 5.14162 5.70663 5.07955C5.70663 5.02783 5.57619 4.95541 5.41315 4.92438C4.92402 4.82093 4.04359 4.24162 4.14141 4.08645C4.28815 3.82783 5.00554 3.90024 5.33163 4.21059ZM7.92402 4.4899C8.00554 4.63472 7.1088 6.00024 6.92946 6.00024C6.86424 6.00024 6.86424 5.96921 6.89685 5.91748C6.94576 5.8761 6.91315 5.75197 6.84793 5.63817C6.7175 5.42093 6.91315 4.95541 7.30446 4.57265C7.56533 4.31403 7.79359 4.283 7.92402 4.4899ZM6.22837 5.82438C6.45663 6.32093 6.39141 6.35197 5.5925 6.09334C4.35337 5.71059 4.25554 5.35886 5.39685 5.40024C5.9838 5.43128 6.06533 5.46231 6.22837 5.82438ZM8.6088 5.71059C8.9838 6.00024 8.90228 6.35197 8.39685 6.62093C7.33706 7.1899 7.36967 7.1899 7.51641 6.70369C7.71206 6.00024 8.02185 5.58645 8.31533 5.58645C8.38054 5.58645 8.51098 5.64852 8.6088 5.71059ZM6.01641 6.85886C6.24467 6.93128 6.52185 7.13817 6.63598 7.33472L6.86424 7.6761L6.40772 7.61403C5.65772 7.4899 4.72837 7.05541 4.72837 6.81748C4.72837 6.57955 5.15228 6.60024 6.01641 6.85886ZM11.6577 8.40024C11.6088 8.58645 11.5436 8.783 11.511 8.84507C11.4947 8.89679 11.3642 9.06231 11.2175 9.20714C11.0871 9.35197 10.8588 9.5899 10.7447 9.74507C10.3697 10.2002 9.3588 11.1106 8.9675 11.3278L8.5925 11.5347L8.69033 11.3278C8.73924 11.214 8.88598 10.914 9.00011 10.6554C9.11424 10.3968 9.24467 10.1692 9.29359 10.1382C9.3425 10.1071 9.50554 9.92093 9.65228 9.72438C10.2392 8.96921 11.2827 8.10024 11.6414 8.07955C11.7229 8.06921 11.7229 8.22438 11.6577 8.40024ZM4.07619 9.46576C4.19033 9.54852 4.36967 9.62093 4.4675 9.62093C4.74467 9.62093 6.37511 10.7175 6.88054 11.2244C7.58163 11.9485 7.54902 12.0209 6.7175 11.6589C5.07076 10.9451 2.86967 9.31059 3.55446 9.31059C3.7338 9.31059 3.96206 9.383 4.07619 9.46576Z" fill="black"/>
</svg>
