<svg width="15" height="15" viewBox="0 0 15 15" fill="none" xmlns="http://www.w3.org/2000/svg">
<path d="M8.67194 1.43164C8.50808 1.55759 8.23077 1.75225 8.04169 1.86675C7.84001 1.98126 7.68875 2.11866 7.68875 2.18736C7.68875 2.24462 7.48707 2.48507 7.24757 2.71408C6.93245 3.00034 6.8064 3.06904 6.8064 2.94309C6.8064 2.82859 6.74337 2.74843 6.66774 2.74843C6.60472 2.74843 6.57951 2.69118 6.61732 2.63393C6.65514 2.56523 6.5543 2.47362 6.39043 2.41637C6.21396 2.34767 6.0501 2.24462 6.02489 2.17591C5.99968 2.09576 5.60892 2.03851 4.97867 2.02706C2.78539 1.99271 2.16774 3.11485 3.65514 4.44309L4.17194 4.90111L3.84421 4.96981C3.66774 5.01561 3.52909 5.09576 3.52909 5.15301C3.52909 5.22172 3.45346 5.26752 3.35262 5.26752C3.07531 5.26752 2.20556 6.08049 2.00388 6.52706C1.82741 6.92782 1.82741 7.42019 2.00388 7.59195C2.3064 7.8782 3.75598 7.68355 4.48707 7.24843C4.63833 7.16828 4.91564 7.05378 5.11732 6.99653L5.48287 6.90492L5.44505 7.7866C5.40724 8.56523 5.44505 8.74843 5.73497 9.2637C5.94925 9.65301 6.02489 9.91637 5.94925 9.99652C5.69715 10.2942 5.33161 11.5652 5.3064 12.2408C5.29379 12.5271 5.16774 12.5156 5.11732 12.2293C4.97867 11.3133 3.07531 9.73317 2.12993 9.73317C0.957658 9.73317 1.23497 10.5919 2.86102 12.1034C3.22657 12.4355 3.5543 12.7103 3.59211 12.7103C3.62993 12.7103 3.70556 12.7103 3.76858 12.7103C3.83161 12.7103 3.97026 12.779 4.0585 12.8591C4.14673 12.9393 4.39883 13.1225 4.62573 13.2599C4.85262 13.4087 5.10472 13.6606 5.19295 13.8324C5.40724 14.2332 5.87362 14.2675 5.83581 13.8782C5.8106 13.6721 5.89883 13.5805 6.27699 13.4431C8.59631 12.5729 10.0837 11.6797 10.0837 11.153C10.0837 10.34 7.43665 11.0614 6.10052 12.2293C5.94925 12.3553 5.92404 12.3439 5.92404 12.1148C5.93665 11.7255 6.16354 10.8782 6.39043 10.4202C6.65514 9.90492 6.59211 9.96217 7.12152 9.80187C7.61312 9.64156 8.8232 8.65683 8.8232 8.40492C8.8232 8.10721 9.20136 8.24462 10.0081 8.81714C10.8526 9.41256 11.0165 9.46981 11.5081 9.2637C12.4661 8.87439 12.403 7.34004 11.4072 6.49271L11.0921 6.22935L11.4829 5.96599C11.7854 5.75988 11.9871 5.71408 12.3652 5.75988C12.6425 5.79424 12.8946 5.77133 12.9324 5.71408C12.9703 5.65683 13.1089 5.61103 13.235 5.61103C13.4619 5.61103 13.7014 5.22172 13.6257 4.98126C13.6005 4.91256 13.5753 4.7866 13.5501 4.695C13.298 3.60721 12.0375 2.95454 10.8022 3.27515C10.6131 3.3324 10.5879 3.25225 10.6005 2.66828C10.6131 1.95836 10.4745 1.51179 10.1719 1.28278C9.88203 1.06523 8.99968 1.14538 8.67194 1.43164ZM9.91984 1.94691C9.97026 2.03851 10.0081 2.15301 10.0081 2.19881C10.0207 2.23317 10.0585 2.30187 10.0963 2.33622C10.2854 2.50797 9.83161 4.12248 9.59211 4.12248C9.52909 4.12248 9.44085 4.25988 9.39043 4.43164C9.32741 4.68355 8.54589 5.49653 8.38203 5.49653C8.34421 5.49653 8.39463 4.94691 8.44505 4.8095C8.45766 4.77515 8.47026 4.66065 8.45766 4.54614C8.44505 4.44309 8.50808 4.35149 8.62152 4.35149C8.78539 4.35149 8.79799 4.30569 8.68455 4.07668C8.58371 3.89347 8.47026 3.82477 8.3064 3.85912C8.0669 3.91637 8.00388 4.03088 7.86522 4.72935C7.77699 5.23317 7.68875 5.30187 7.46186 5.08431C7.37362 4.99271 7.33581 4.92401 7.37362 4.92401C7.42404 4.92401 7.33581 4.7637 7.18455 4.58049C6.91984 4.24843 6.42825 4.09958 6.42825 4.36294C6.42825 4.43164 6.57951 4.695 6.78119 4.95836C7.23497 5.58813 7.47446 6.18355 7.26018 6.18355C7.17194 6.18355 7.0585 6.13775 6.98287 6.06904C6.91984 6.01179 6.62993 5.94309 6.36522 5.93164C5.79799 5.89729 5.67194 6.11485 6.11312 6.34385C6.25178 6.41256 6.40304 6.51561 6.45346 6.58431C6.50388 6.64156 6.60472 6.71027 6.68035 6.71027C6.74337 6.72172 6.86942 6.73317 6.93245 6.74462C7.00808 6.74462 7.0585 6.90492 7.0585 7.09958C7.0585 7.30569 7.12152 7.44309 7.22236 7.44309C7.44925 7.44309 7.84001 7.05378 7.72657 6.95072C7.68875 6.90492 7.82741 6.92782 8.04169 6.99653C8.25598 7.06523 8.63413 7.09958 8.87363 7.06523C9.11312 7.04233 9.36522 7.06523 9.42825 7.12248C9.49127 7.17973 9.60472 7.15683 9.70556 7.04233C9.95766 6.76752 9.68035 6.58431 8.93665 6.54996C8.0669 6.51561 8.0669 6.50416 8.70976 5.94309C9.3022 5.42782 10.2098 4.37439 10.2098 4.20263C10.2098 3.93927 10.6257 3.75607 11.256 3.75607C12.3022 3.74462 12.7938 4.01943 13.0459 4.77515C13.1467 5.09576 12.5669 5.37057 12.2014 5.16446C12.0501 5.08431 11.9619 5.09576 11.8484 5.21027C11.4829 5.61103 10.6761 5.86294 9.99547 5.78278C9.37783 5.71408 9.3148 5.72553 9.21396 5.97744C9.11312 6.22935 9.13833 6.2408 9.71816 6.3095C10.8274 6.44691 11.6845 7.23698 11.6215 8.04996C11.5459 8.92019 11.0291 9.04614 10.2602 8.39347C9.60472 7.82095 8.68455 7.38584 8.36942 7.48889C8.19295 7.54614 8.16774 7.59195 8.3064 7.66065C8.5711 7.82095 8.26858 8.47362 7.73917 8.87439C7.48707 9.06904 7.20976 9.27515 7.13413 9.3324C6.99547 9.44691 6.21396 9.38965 6.28959 9.27515C6.3148 9.2408 6.23917 9.01179 6.12573 8.75988C5.91144 8.29042 5.88623 7.48889 6.07531 7.25988C6.26438 7.03088 5.92404 6.53851 5.5585 6.50416C5.21816 6.45836 4.18455 6.71027 3.98287 6.88202C3.90724 6.93927 3.75598 6.98507 3.64253 6.98507C3.51648 6.98507 3.40304 7.03088 3.37783 7.08813C3.36522 7.14538 3.13833 7.21408 2.89883 7.23698C2.48287 7.27133 2.45766 7.24843 2.48287 6.93927C2.52068 6.58431 2.79799 6.25225 3.5669 5.69118C4.12152 5.30187 4.99127 5.18736 5.5711 5.46217C6.01228 5.65683 6.0501 5.65683 6.0501 5.40492C6.0501 5.13011 5.73497 4.90111 5.00388 4.6492C4.60052 4.51179 4.26018 4.28278 3.93245 3.91637C3.68035 3.61866 3.42825 3.3553 3.39043 3.32095C3.35262 3.2866 3.39043 3.1034 3.47867 2.92019C3.5669 2.72553 3.64253 2.62248 3.65514 2.66828C3.65514 2.72553 3.73077 2.72553 3.819 2.66828C4.18455 2.46217 5.10472 2.39347 5.48287 2.56523C5.62152 2.62248 5.8232 2.70263 5.92404 2.74843C6.02489 2.78278 6.28959 3.05759 6.49127 3.3553C6.88203 3.89347 7.23497 4.00798 7.26018 3.60721C7.27278 3.48126 7.28539 3.3095 7.29799 3.22935C7.3106 3.1492 7.36102 3.1034 7.41144 3.13775C7.47446 3.1721 7.63833 2.97744 7.78959 2.71408C7.94085 2.45072 8.0669 2.27897 8.0669 2.32477C8.0669 2.38202 8.29379 2.25607 8.5711 2.06141C9.13833 1.66065 9.74337 1.45454 9.8064 1.6492C9.83161 1.7179 9.88203 1.8553 9.91984 1.94691ZM2.67194 10.4087C3.3022 10.6263 4.17194 11.382 4.5501 12.0461C4.68875 12.2866 4.76438 12.4813 4.71396 12.4813C4.66354 12.4813 4.71396 12.5729 4.8022 12.6759C4.91564 12.7904 4.73917 12.7332 4.34841 12.5385C3.54169 12.1148 2.58371 11.2904 2.21816 10.6835C1.89043 10.1683 1.94085 10.1454 2.67194 10.4087ZM9.20136 11.5652C9.0627 11.6797 8.63413 11.9087 8.25598 12.0919C7.87783 12.2637 7.5627 12.4469 7.5627 12.4927C7.5627 12.55 7.34841 12.6187 7.09631 12.6645C6.84421 12.7103 6.44085 12.8477 6.21396 12.9622C5.98707 13.0881 5.79799 13.1454 5.79799 13.0996C5.79799 12.9507 6.34001 12.4813 6.51648 12.4813C6.60472 12.4813 6.68035 12.4355 6.68035 12.3897C6.68035 12.3324 6.88203 12.195 7.12152 12.069C7.36102 11.9545 7.5627 11.8171 7.5627 11.7713C7.5627 11.7141 7.60052 11.6912 7.66354 11.7026C7.71396 11.7141 7.92825 11.6454 8.12993 11.5652C9.0501 11.2103 9.65514 11.2103 9.20136 11.5652Z" fill="currentColor"/>
</svg>
