<svg width="15" height="15" viewBox="0 0 15 15" fill="none" xmlns="http://www.w3.org/2000/svg">
<path d="M6.39939 0.98514C5.75939 1.178 5.30939 1.97085 5.57939 2.43157C5.69939 2.64585 5.68939 2.66728 5.37939 2.74228C5.19939 2.78514 5.00939 2.828 4.96939 2.828C4.64939 2.86014 4.34939 3.98514 4.57939 4.34943C4.68939 4.52085 5.05939 4.71371 5.29939 4.71371C5.48939 4.71371 5.49939 4.75657 5.43939 5.21728C5.34939 5.978 5.62939 6.32085 6.33939 6.32085C6.61939 6.32085 6.90939 6.26728 6.96939 6.203C7.10939 6.053 7.24939 6.26728 7.12939 6.44943C7.05939 6.578 7.01939 7.58514 6.96939 10.2101C6.94939 10.9923 6.92939 11.1101 6.82939 10.9601C6.75939 10.8637 6.69939 10.6601 6.69939 10.5101C6.69939 10.3601 6.62939 10.0923 6.54939 9.92085C6.46939 9.76014 6.39939 9.54585 6.39939 9.46014C6.39939 9.37443 6.20939 8.89228 5.98939 8.378C5.61939 7.553 5.31939 7.08157 4.54939 6.128C4.36939 5.903 4.30939 5.58157 4.28939 4.69228C4.28939 4.59585 4.11939 4.34943 3.90939 4.14585C3.26939 3.52443 2.66939 3.803 2.81939 4.66014C2.86939 4.90657 2.84939 4.928 2.45939 4.928C1.77939 4.928 1.57939 5.36728 2.04939 5.828L2.29939 6.07443L2.05939 6.21371C1.55939 6.49228 1.72939 7.11371 2.32939 7.23157C2.63939 7.29585 3.70939 6.96371 3.94939 6.73871C4.15939 6.52443 4.40939 6.67443 4.78939 7.21014C5.13939 7.69228 5.75939 8.828 5.77939 8.99943C5.79939 9.128 5.91939 9.49228 6.00939 9.67443C6.18939 10.0173 6.04939 9.97443 5.69939 9.56728C5.02939 8.81728 3.62939 8.38871 3.22939 8.81728C2.92939 9.128 3.71939 10.2316 4.39939 10.4459C4.53939 10.4887 4.69939 10.5637 4.74939 10.6066C4.80939 10.6494 5.02939 10.7244 5.24939 10.7673C5.46939 10.8209 5.71939 10.8744 5.79939 10.8959C5.87939 10.928 6.02939 10.9601 6.13939 10.9709C6.33939 11.003 6.51939 11.4423 6.70939 12.428C6.77939 12.7494 6.87939 13.0816 6.92939 13.1566C7.06939 13.3494 7.34939 13.3173 7.36939 13.0923C7.40939 12.6744 7.48939 12.2459 7.60939 11.8923C7.67939 11.6887 7.78939 11.3351 7.86939 11.0994C7.94939 10.8744 7.98939 10.6601 7.95939 10.628C7.92939 10.6066 7.98939 10.4459 8.09939 10.2851C8.20939 10.1244 8.33939 9.86728 8.38939 9.728C8.47939 9.48157 8.51939 9.46014 8.87939 9.53514C9.08939 9.56728 9.32939 9.59943 9.40939 9.578C9.96939 9.48157 10.1494 9.41728 10.1794 9.32085C10.1994 9.26728 10.2994 9.21371 10.3894 9.21371C10.6094 9.21371 11.0994 8.603 11.0994 8.33514C11.0994 7.90657 10.3194 7.79943 9.49939 8.13157L9.00939 8.33514L9.17939 8.01371C9.52939 7.34943 9.57939 7.26371 9.83939 6.91014L10.1094 6.55657L10.5694 6.70657C11.1094 6.878 11.7594 6.89943 11.8494 6.74943C11.8894 6.68514 11.9494 6.66371 11.9994 6.69585C12.0494 6.728 12.1594 6.61014 12.2494 6.428C12.4394 6.03157 12.2994 5.71014 11.8594 5.59228C11.5594 5.50657 11.5594 5.50657 11.7594 5.29228C12.1394 4.88514 12.2094 4.553 11.9794 4.28514C11.7894 4.06014 11.6794 4.04943 11.2094 4.18871C11.1194 4.21014 11.0394 4.13514 11.0194 4.01728C10.9094 3.44943 10.2694 3.32085 10.0894 3.82443C10.0294 3.99585 9.92939 4.22085 9.86939 4.33871C9.80939 4.45657 9.75939 4.928 9.74939 5.39943C9.73939 6.16014 9.71939 6.26728 9.45939 6.58871C9.20939 6.89943 9.14939 6.92085 9.02939 6.79228C8.58939 6.33157 8.09939 7.13514 8.09939 8.31371C8.09939 8.69943 8.02939 9.18157 7.93939 9.40657C7.85939 9.62085 7.77939 9.82443 7.77939 9.85657C7.53939 10.8423 7.41939 10.6066 7.45939 9.24585C7.51939 7.14585 7.49939 6.39585 7.40939 5.94585C7.28939 5.42085 7.32939 5.378 7.72939 5.59228C8.29939 5.903 8.36939 5.89228 8.70939 5.51728C9.19939 4.98157 9.26939 4.41371 8.90939 3.86728C8.78939 3.68514 8.73939 3.53514 8.79939 3.53514C8.96939 3.53514 9.34939 2.76371 9.32939 2.46371C9.26939 1.778 8.69939 1.46728 8.03939 1.76728C7.55939 1.98157 7.52939 1.97085 7.45939 1.64943C7.38939 1.37085 6.96939 0.845854 6.82939 0.867283C6.78939 0.867283 6.58939 0.920854 6.39939 0.98514ZM7.02939 1.79943C7.31939 2.453 7.18939 2.84943 6.67939 2.84943C5.93939 2.828 5.64939 2.06728 6.19939 1.57443C6.56939 1.23157 6.79939 1.29585 7.02939 1.79943ZM8.76939 2.27085C9.08939 2.65657 8.64939 3.41728 8.08939 3.44943C7.95939 3.46014 7.78939 3.51371 7.72939 3.56728C7.56939 3.69585 7.40939 3.28871 7.47939 2.93514C7.53939 2.56014 8.01939 2.153 8.50939 2.04585C8.53939 2.04585 8.65939 2.14228 8.76939 2.27085ZM6.25939 3.25657C6.26939 3.25657 6.30939 3.47085 6.34939 3.71728C6.42939 4.23157 6.26939 4.34943 5.54939 4.29585C4.84939 4.24228 4.65939 3.74943 5.16939 3.32085C5.39939 3.128 6.10939 3.08514 6.25939 3.25657ZM8.52939 4.178C8.94939 4.67085 8.50939 5.50657 7.97939 5.23871C7.66939 5.08871 7.33939 4.41371 7.48939 4.253C7.54939 4.18871 7.59939 4.16728 7.59939 4.21014C7.59939 4.253 7.65939 4.23157 7.73939 4.15657C7.81939 4.08157 7.84939 3.97443 7.81939 3.92085C7.71939 3.74943 8.34939 3.97443 8.52939 4.178ZM10.5994 4.46728C10.5894 4.86371 10.5294 5.05657 10.3394 5.303L10.0794 5.62443L10.1394 5.11014C10.1894 4.64943 10.4394 3.96371 10.5494 3.96371C10.5794 3.96371 10.5994 4.18871 10.5994 4.46728ZM3.84939 4.97085C3.88939 5.153 3.93939 5.39943 3.96939 5.51728C4.00939 5.66728 3.92939 5.62443 3.70939 5.35657C3.33939 4.91728 3.16939 4.52085 3.24939 4.30657C3.32939 4.06014 3.76939 4.553 3.84939 4.97085ZM7.07939 4.53157C7.26939 4.778 7.01939 5.54943 6.68939 5.73157C6.17939 6.02085 5.89939 5.94585 5.89939 5.528C5.89939 5.08871 6.12939 4.58514 6.36939 4.478C6.65939 4.36014 6.96939 4.38157 7.07939 4.53157ZM11.6994 4.63871C11.6994 4.76728 10.9094 5.57085 10.7794 5.57085C10.7294 5.57085 10.7594 5.49585 10.8394 5.39943C10.9294 5.31371 10.9994 5.18514 10.9994 5.12085C10.9994 4.96014 11.4094 4.53157 11.5594 4.53157C11.6394 4.53157 11.6994 4.58514 11.6994 4.63871ZM3.23939 5.68871C3.46939 5.84943 3.48939 5.89228 3.32939 5.83871C3.20939 5.80657 3.01939 5.753 2.89939 5.73157C2.48939 5.64585 2.29939 5.56014 2.29939 5.44228C2.29939 5.28157 2.87939 5.42085 3.23939 5.68871ZM11.7394 5.95657C11.8294 5.98871 11.8994 6.08514 11.8994 6.17085C11.8994 6.34228 10.9494 6.38514 10.7094 6.22443C10.4494 6.053 11.3794 5.80657 11.7394 5.95657ZM3.49939 6.29943C3.49939 6.47085 2.90939 6.74943 2.55939 6.74943C1.91939 6.74943 2.27939 6.37443 2.99939 6.28871C3.18939 6.26728 3.37939 6.23514 3.42939 6.23514C3.46939 6.22443 3.49939 6.25657 3.49939 6.29943ZM10.5394 8.58157C10.4394 8.76371 9.94939 8.96728 9.47939 9.04228C8.66939 9.17085 8.91939 8.81728 9.83939 8.528C10.2694 8.38871 10.6394 8.42085 10.5394 8.58157ZM4.62939 9.28871C5.45939 9.77085 6.19939 10.6601 5.54939 10.3923C5.40939 10.3387 5.29939 10.3173 5.29939 10.3494C5.29939 10.3709 5.14939 10.3173 4.97939 10.2101C4.79939 10.1137 4.58939 10.0173 4.50939 10.0066C4.34939 9.97443 3.69939 9.32085 3.69939 9.19228C3.69939 9.04228 4.28939 9.10657 4.62939 9.28871Z" fill="black"/>
</svg>
