<svg width="15" height="15" viewBox="0 0 15 15" fill="none" xmlns="http://www.w3.org/2000/svg">
<path d="M6.96833 1.12801C6.33116 1.26755 5.21611 2.33732 5.09665 2.93034C5.08337 2.98848 5.05682 3.04662 5.04355 3.0815C5.03027 3.11639 5.00372 3.17453 4.97718 3.22104C4.9639 3.27918 4.9108 3.39546 4.87098 3.48848C4.60549 4.01174 4.41965 5.90708 4.43293 7.75592C4.43293 8.8722 4.40638 9.84895 4.35328 9.91871C4.27364 10.0234 4.24709 10.0117 4.24709 9.90708C4.24709 9.82569 4.19399 9.79081 4.11434 9.82569C4.0347 9.86057 3.9816 9.81406 3.9816 9.72104C3.9816 9.62801 3.76921 9.36057 3.517 9.13964C3.26479 8.90708 3.0524 8.69778 3.0524 8.65127C3.0524 8.26755 1.32673 7.51174 1.0347 7.76755C0.663017 8.09313 2.52142 10.9885 3.59665 11.7443C4.37983 12.3024 5.17629 13.035 5.16302 13.1862C5.09665 13.6978 5.44178 13.7559 5.81346 13.2792C5.95948 13.1048 6.25151 12.8838 6.4639 12.7908C7.31346 12.4187 9.11877 10.8722 9.21169 10.442C9.22496 10.3606 9.34443 10.0815 9.47718 9.82569C9.84886 9.06988 9.22496 8.4536 8.72054 9.0815C8.5878 9.24429 8.50815 9.26755 8.46833 9.17453C8.32231 8.77918 6.10549 10.8373 5.78691 11.6629C5.64089 12.0234 5.46833 12.3257 5.40195 12.3257C5.32231 12.3257 5.29576 12.2908 5.34886 12.2559C5.38868 12.221 5.37541 12.0699 5.30903 11.9187C4.95063 11.1048 4.89753 5.90708 5.22939 4.36057C5.26921 4.1629 5.32231 3.90708 5.34886 3.77918C5.37541 3.65127 5.4816 3.41871 5.57452 3.25592C5.68072 3.09313 5.77364 2.94197 5.78691 2.90708C5.85328 2.6629 6.06567 2.34894 6.33116 2.13964C6.49045 2.01173 6.59665 1.8722 6.55682 1.82569C6.517 1.7908 6.72939 1.73267 7.0347 1.68615C7.95063 1.54662 8.98603 2.17453 8.20284 2.38383C7.85771 2.47685 6.90195 3.24429 6.90195 3.43034C6.90195 3.48848 6.82231 3.68615 6.71611 3.86057C6.60992 4.02336 6.43735 4.59313 6.31788 5.11639C6.06567 6.17453 5.93293 6.43034 5.4816 6.63964C5.05682 6.83732 5.09665 7.03499 5.65417 7.31406C6.22496 7.61639 7.07452 7.61639 7.63204 7.33732L8.03027 7.12801L8.45505 7.52336C9.11877 8.10476 10.0082 7.96522 10.2869 7.22104C10.3666 6.97685 10.3931 6.97685 10.6055 7.13964C10.7382 7.24429 10.8843 7.29081 10.9241 7.24429C10.9772 7.20941 11.017 7.25592 11.017 7.36057C11.017 7.63964 11.2825 7.72104 11.5082 7.52336C11.6807 7.3722 11.6542 7.31406 11.2958 6.94197C10.7781 6.43034 10.7781 6.38383 11.3223 6.52336C12.2117 6.73267 13.8975 6.3722 13.9639 5.96522C13.9639 5.88383 13.9772 5.75592 13.9905 5.67453C14.0037 5.60476 13.8975 5.53499 13.7648 5.51174C13.632 5.50011 13.4064 5.39546 13.2869 5.30243C13.1542 5.19778 12.9949 5.11639 12.9285 5.11639C12.8621 5.11639 12.5966 4.83732 12.3444 4.51174C11.3754 3.24429 10.3798 2.46522 9.66302 2.39546C9.517 2.3722 8.72054 1.62801 8.84001 1.62801C8.90638 1.61639 8.73381 1.51173 8.45505 1.38383C8.17629 1.25592 7.89753 1.18615 7.83116 1.22104C7.76479 1.25592 7.68514 1.23267 7.63204 1.1629C7.5524 1.04662 7.41965 1.03499 6.96833 1.12801ZM10.2338 3.17453C10.4197 3.31406 10.8312 3.74429 11.1497 4.11639C11.84 4.94197 12.2781 5.34894 12.7825 5.63964L13.1542 5.84894L12.8489 5.98848C12.2382 6.25592 10.8312 5.89546 10.7117 5.44197C10.5922 4.9536 9.83558 3.24429 9.67629 3.06987C9.42408 2.7908 9.83558 2.8722 10.2338 3.17453ZM8.40196 3.25592C8.44178 3.38383 8.4285 3.48848 8.37541 3.48848C8.32231 3.48848 8.28249 3.5815 8.26921 3.68615C8.25594 3.80243 8.21611 4.04662 8.16302 4.24429C8.12319 4.43034 8.05682 4.88383 8.017 5.23267C7.9108 6.31406 7.61877 6.82569 7.04797 6.94197C6.517 7.06987 5.93293 6.96522 6.22496 6.81406C6.31788 6.76755 6.45063 6.5815 6.53027 6.41871C6.67629 6.06987 6.67629 6.05825 6.9816 4.94197C7.10107 4.48848 7.24709 4.0815 7.31346 4.01174C7.37983 3.9536 7.43293 3.81406 7.43293 3.70941C7.43293 3.52336 8.017 3.02336 8.22939 3.02336C8.28249 3.02336 8.36213 3.12801 8.40196 3.25592ZM9.15859 3.13964C9.15859 3.20941 9.27806 3.47685 9.4108 3.75592C9.75594 4.41871 9.96833 4.98848 10.0347 5.38383C10.0612 5.56987 10.1143 5.75592 10.1542 5.81406C10.2869 6.00011 9.9285 6.97685 9.67629 7.13964C9.54355 7.22104 9.4639 7.31406 9.50373 7.36057C9.54355 7.39546 9.47718 7.40708 9.33116 7.38383C9.19842 7.36057 9.06567 7.33732 9.02585 7.33732C8.66744 7.29081 8.45505 5.3722 8.69399 4.3722C8.80019 3.91871 8.84001 3.63964 8.87983 3.22104C8.89311 3.01173 9.15859 2.93034 9.15859 3.13964ZM2.4816 8.8722C3.18514 9.47685 3.50373 9.88383 4.10107 10.8606C4.73824 11.942 4.73824 11.9187 4.32673 11.6862C3.96833 11.4769 2.78691 10.1978 2.78691 10.0117C2.78691 9.94197 2.73381 9.88383 2.68072 9.88383C2.61434 9.88383 2.37541 9.56988 2.14974 9.18615C1.65859 8.39546 1.80461 8.26755 2.4816 8.8722ZM8.97275 9.77918C8.87983 9.97685 8.65417 10.2792 8.4816 10.4536C8.30904 10.6164 8.08337 10.8955 7.97718 11.0582C7.88426 11.2327 7.65859 11.4303 7.48603 11.5001C7.31346 11.5699 7.16744 11.6978 7.16744 11.8024C7.16744 11.8955 7.11434 11.9769 7.0347 11.9769C6.78249 11.9769 6.70284 12.0117 6.38426 12.221C5.89311 12.5582 5.89311 12.3955 6.38426 11.6745C6.9816 10.8024 8.4285 9.61639 9.11877 9.43034C9.13204 9.41871 9.06567 9.5815 8.97275 9.77918Z" fill="currentColor"/>
</svg>
