<svg width="15" height="15" viewBox="0 0 15 15" fill="none" xmlns="http://www.w3.org/2000/svg">
<path d="M6.82987 0.980445C6.07378 1.41044 5.54939 1.99044 5.42743 2.53044C5.34207 2.88044 5.30548 2.91044 5.0128 2.86044C4.34207 2.74044 3.78109 2.72044 3.78109 2.81044C3.78109 2.86044 3.74451 2.89044 3.69573 2.89044C3.025 2.80044 2.68353 4.02044 3.11036 5.00044C3.20792 5.23044 3.29329 5.44044 3.29329 5.45044C3.29329 5.46044 2.96402 5.50044 2.54939 5.53044C1.40304 5.61044 1.15914 5.91044 1.48841 6.82044C1.63475 7.22044 2.48841 8.03044 3.08597 8.34044L3.42743 8.51044L3.13475 8.76044C2.61036 9.19044 2.64695 9.97044 3.20792 10.0104C3.28109 10.0204 3.48841 10.0504 3.65914 10.0704C4.41524 10.1804 5.46402 10.1104 6.09817 9.91044C6.46402 9.79044 6.78109 9.70044 6.80548 9.70044C6.82987 9.70044 6.81768 9.82044 6.78109 9.98044C6.74451 10.1304 6.68353 10.6504 6.64695 11.1504C6.56158 12.1104 6.40304 13.1104 6.2689 13.4704C6.22012 13.6204 6.2689 13.7104 6.43963 13.7904C6.72012 13.9104 8.36646 13.8804 8.53719 13.7404C8.61036 13.6804 8.58597 13.2704 8.46402 12.6504C8.36646 12.1004 8.2567 11.4504 8.23231 11.2004C8.19573 10.9504 8.13475 10.5704 8.09817 10.3604L8.025 9.97044L8.54939 10.0404C10.6957 10.3004 12.0006 10.1804 12.3177 9.70044C12.4884 9.44044 12.4762 9.37044 12.1469 8.97044L11.8543 8.62044L12.6104 7.99044C14.0372 6.78044 14.2201 5.72044 13.0128 5.55044C12.7933 5.52044 12.464 5.48044 12.2689 5.45044C11.7933 5.39044 11.7933 5.39044 12.086 4.84044C12.4274 4.19044 12.3299 3.39044 11.8665 3.04044C11.525 2.78044 10.8665 2.72044 10.1591 2.89044L9.7689 2.98044L9.56158 2.43044C9.07378 1.15044 7.7567 0.460445 6.82987 0.980445ZM8.47622 1.98044C8.74451 2.28044 8.91524 2.61044 8.96402 2.90044C9.12256 3.91044 9.30548 4.02044 10.1713 3.59044C11.0128 3.17044 11.6591 3.44044 11.5372 4.18044C11.5006 4.43044 11.4152 4.68044 11.3543 4.74044C10.7445 5.36044 10.6591 5.99044 11.1957 6.01044C12.903 6.09044 13.1104 6.15044 12.9274 6.55044C12.6835 7.06044 12.1591 7.57044 11.464 7.95044C10.6104 8.42044 10.586 8.52044 11.1591 9.00044C11.5494 9.33044 11.5738 9.38044 11.403 9.50044C11.1348 9.68044 9.91524 9.64044 8.87865 9.40044C7.85426 9.17044 7.96402 9.23044 7.90304 8.79044C7.86646 8.46044 7.93963 8.36044 8.7567 7.66044C10.086 6.49044 9.93963 5.84044 8.59817 6.95044C8.23231 7.25044 7.92744 7.44044 7.91524 7.37044C7.91524 7.31044 7.89085 6.72044 7.86646 6.07044C7.82987 4.88044 7.74451 4.62044 7.39085 4.73044C7.23231 4.78044 7.19573 4.98044 7.18353 5.67044C7.14695 6.97044 7.12256 7.40044 7.03719 7.47044C6.98841 7.50044 6.67134 7.30044 6.32987 7.02044C5.62256 6.44044 5.54939 6.42044 5.36646 6.69044C5.18353 6.99044 5.09817 6.90044 6.45183 7.93044C7.28109 8.57044 7.28109 8.82044 6.50061 9.11044C6.17134 9.23044 5.73231 9.39044 5.5128 9.47044C5.22012 9.59044 4.92743 9.61044 4.32987 9.55044C3.41524 9.47044 3.34207 9.35044 3.93963 8.95044C4.65914 8.45044 4.65914 8.19044 3.92743 7.99044C3.32987 7.83044 2.23231 6.97044 2.13475 6.58044C2.025 6.17044 2.18353 6.10044 3.31768 6.10044C3.82987 6.10044 4.28109 6.06044 4.31768 6.02044C4.35426 5.97044 4.23231 5.70044 4.06158 5.40044C3.50061 4.43044 3.57378 3.39044 4.20792 3.39044C4.67134 3.40044 4.87865 3.43044 4.87865 3.50044C4.87865 3.54044 5.04939 3.64044 5.2689 3.73044C5.80548 3.94044 6.09817 3.81044 6.09817 3.33044C6.09817 2.78044 6.34207 2.24044 6.7567 1.86044C7.5128 1.18044 7.78109 1.20044 8.47622 1.98044Z" fill="currentColor"/>
</svg>
