<svg width="15" height="15" viewBox="0 0 15 15" fill="none" xmlns="http://www.w3.org/2000/svg">
<path d="M8.0147 1.52283C7.78743 1.72433 7.75713 1.83627 7.66622 2.74298C7.62076 3.11239 7.59046 3.44821 7.59046 3.49298C7.56016 3.6497 7.27228 3.59373 7.27228 3.43701C7.27228 3.24671 6.84803 2.98925 6.21167 2.83253C5.65106 2.67582 5.4541 2.76537 5.4541 3.17955C5.4541 3.39224 6.62076 4.25418 6.90864 4.25418C7.24197 4.25418 7.37834 4.52283 7.24197 4.89224L7.12076 5.25044L6.49955 4.75791C6.15106 4.47806 5.74197 4.25418 5.59046 4.25418C5.43894 4.25418 5.27228 4.19821 5.22682 4.14224C5.16622 4.07507 5.07531 4.05268 5.0147 4.07507C4.9541 4.10865 4.81773 4.08627 4.69652 4.0303C4.40864 3.89597 3.93894 4.10865 3.93894 4.36612C3.93894 4.48925 4.15106 4.74671 4.39349 4.94821C4.65106 5.1385 4.84803 5.3288 4.84803 5.37358C4.84803 5.41836 5.30258 5.61985 5.84803 5.82134L6.84803 6.17955L6.75713 6.6385C6.69652 6.89597 6.62076 7.11985 6.59046 7.14224C6.46925 7.23179 6.045 7.05268 6.12076 6.96313C6.27228 6.77283 5.19652 6.15716 4.33288 5.94447C3.49955 5.74298 2.72682 5.76537 2.72682 6.00044C2.72682 6.20194 3.24197 6.8288 3.4541 6.88477C3.60561 6.91836 3.9541 7.09746 4.24197 7.28776C4.52985 7.48925 5.12076 7.75791 5.56016 7.90343C6.46925 8.20567 6.5147 8.25044 6.59046 8.84373C6.66622 9.39224 6.69652 9.40343 5.65106 8.77656C3.9844 7.7691 2.27228 7.54522 2.27228 8.3288C2.27228 8.7094 2.68137 9.04522 3.60561 9.43701C4.07531 9.62731 4.52985 9.80641 4.62076 9.81761C5.02985 9.88477 6.59046 10.2318 6.65106 10.2654C6.78743 10.3325 6.80258 11.3064 6.66622 11.3064C6.57531 11.3064 6.5147 11.2616 6.5147 11.2057C6.5147 11.0266 5.09046 10.3437 4.545 10.2542C2.92379 9.98552 2.80258 9.97432 2.4541 10.1422C2.02985 10.3549 2.16622 10.534 3.28743 11.1833C4.0147 11.6198 5.4541 12.1572 5.4541 12.0116C5.4541 11.9669 5.52985 11.9893 5.63591 12.0676C5.74197 12.146 6.02985 12.2019 6.27228 12.2019C6.9541 12.2019 7.06016 12.2915 7.39349 13.0975C7.69652 13.8475 7.81773 13.9482 8.18137 13.7691C8.34803 13.6907 8.36319 13.6124 8.22682 13.4109C8.13591 13.2654 8.02985 13.0527 7.9844 12.9295C7.93894 12.8064 7.86319 12.6273 7.81773 12.5266C7.72682 12.381 7.83288 12.3475 8.40864 12.3363C8.80258 12.3251 9.24197 12.2579 9.40864 12.2019C9.56016 12.1348 9.69652 12.1124 9.69652 12.1348C9.69652 12.2691 11.1056 11.5303 11.5147 11.1833C12.0299 10.7467 12.0602 10.6124 11.742 10.4109C11.3329 10.1534 9.77228 10.534 8.15106 11.2616C7.5147 11.5639 7.42379 11.4967 7.42379 10.6795V10.187H8.30258C9.21167 10.187 10.6056 9.90716 10.6056 9.72806C10.6056 9.67209 10.6662 9.6385 10.742 9.6497C10.9541 9.70567 11.8177 9.19074 11.8177 9.01164C11.8177 8.81015 11.045 8.50791 10.6662 8.55268C10.4995 8.57507 10.0905 8.63104 9.72682 8.67582C8.86319 8.77656 8.27228 9.01164 7.81773 9.41462C7.37834 9.79522 7.31773 9.75044 7.27228 9.06761C7.21167 8.26164 7.18137 8.28403 8.22682 8.28403C10.242 8.28403 11.9086 7.5788 11.3783 6.95194C11.1511 6.68328 8.72682 6.88477 7.89349 7.24298L7.22682 7.53403L7.33288 7.04149C7.4541 6.44821 7.31773 6.52656 8.5147 6.44821C9.07531 6.41462 9.65107 6.34746 9.80258 6.29149C9.9541 6.22433 10.3329 6.09 10.6359 5.97806C11.2874 5.74298 11.4844 5.38477 11.0905 5.17209C10.7571 4.98179 9.19652 5.06015 8.4541 5.30641C7.87834 5.48552 7.87834 5.48552 7.87834 5.22806C7.87834 4.90343 8.25713 4.63477 8.86319 4.52283C9.46925 4.41089 10.7268 3.84 10.9086 3.58253C11.2874 3.06761 10.1965 3.03403 8.9844 3.53776L8.34803 3.79522L8.71167 3.03403C9.15106 2.1385 9.19652 1.51164 8.84803 1.41089C8.46925 1.29895 8.22682 1.33253 8.0147 1.52283ZM5.83288 4.99298C6.25713 5.28403 6.4541 5.47433 6.28743 5.42955C6.12076 5.38477 5.87834 5.31761 5.75713 5.29522C5.63591 5.26164 5.33288 5.07134 5.10561 4.85865C4.4541 4.29895 4.93894 4.3885 5.83288 4.99298ZM9.78743 5.73179C9.39349 5.8885 8.52985 6.03403 8.40864 5.95567C8.25713 5.84373 8.9541 5.63104 9.52985 5.61985C9.99955 5.60865 10.0299 5.61985 9.78743 5.73179ZM4.57531 6.50418C5.21167 6.72806 5.87834 7.23179 5.71167 7.35492C5.63591 7.41089 4.75713 6.98552 3.93894 6.50418C3.43894 6.20194 3.75713 6.20194 4.57531 6.50418ZM10.3783 7.43328C9.9541 7.64597 9.4541 7.74671 8.71167 7.7803C8.34803 7.79149 7.9844 7.83627 7.89349 7.88104C7.80258 7.92582 7.72682 7.91462 7.72682 7.85865C7.72682 7.63477 8.9541 7.36612 10.3783 7.28776C10.6662 7.27656 10.6662 7.27656 10.3783 7.43328ZM4.52985 8.81015C5.66622 9.24671 6.10561 9.60492 5.34803 9.47059C4.65106 9.34746 3.60561 8.91089 3.36319 8.64224C3.06016 8.29522 3.28743 8.3288 4.52985 8.81015ZM10.8329 9.17955C10.7874 9.23552 10.6511 9.29149 10.5602 9.29149C10.4541 9.29149 10.1814 9.36985 9.9541 9.4594C9.71167 9.54895 9.30258 9.6385 9.02985 9.66089C8.77228 9.68328 8.4541 9.73925 8.33288 9.79522C8.18137 9.85119 8.19652 9.80641 8.37834 9.67209C8.89349 9.2691 11.1359 8.82134 10.8329 9.17955ZM5.045 10.9594C5.69652 11.2281 6.5147 11.7542 6.28743 11.7542C5.99955 11.7542 4.9844 11.4519 4.81773 11.3288C4.71167 11.2504 4.545 11.1945 4.43894 11.1945C4.33288 11.1945 4.24197 11.1385 4.24197 11.0825C4.24197 11.0154 4.13591 10.9706 4.0147 10.9706C3.81773 10.9706 3.18137 10.6012 3.18137 10.4781C3.18137 10.3885 4.4844 10.7243 5.045 10.9594ZM11.0602 10.9706C11.0602 11.0266 10.9541 11.0825 10.8329 11.0825C10.7117 11.0825 10.6056 11.1273 10.6056 11.1721C10.6056 11.34 9.25713 11.7654 8.83288 11.7318C8.46925 11.6982 8.56016 11.6422 9.545 11.284C10.7117 10.8475 11.0602 10.7803 11.0602 10.9706Z" fill="black"/>
</svg>
