<svg width="15" height="15" viewBox="0 0 15 15" fill="none" xmlns="http://www.w3.org/2000/svg">
<path d="M7.11618 2.00002C7.02002 2.07145 6.90464 2.23217 6.85656 2.37502C6.73156 2.76788 6.51041 2.83931 6.03926 2.66074C5.30849 2.35717 4.32772 3.50002 4.32772 4.64288C4.32772 4.85717 4.25079 4.91074 3.99118 4.85717C3.70272 4.78574 3.60656 4.87502 3.32772 5.44645C3.00079 6.10717 2.79887 7.26788 2.93349 7.67859C2.97195 7.80359 2.91426 8.00002 2.79887 8.14288C2.68349 8.30359 2.61618 8.50002 2.64502 8.58931C2.68349 8.67859 2.64502 8.75002 2.5681 8.75002C2.39502 8.75002 2.18349 10.0715 2.27002 10.5893C2.40464 11.4286 2.93349 12.0893 3.57772 12.2143C6.12579 12.7322 9.83733 12.7143 11.2219 12.1786C11.6739 12 12.395 11.1965 12.4143 10.8393C12.4816 9.78574 12.4431 9.48217 12.2027 8.80359C12.0585 8.39288 11.8854 7.58931 11.8277 7.01788C11.6739 5.64288 11.3373 5.08931 10.7027 5.12502C10.6354 5.14288 10.5777 4.94645 10.5777 4.69645C10.5777 3.82145 9.95272 2.85717 9.37579 2.85717C9.25079 2.85717 9.12579 2.78574 9.09695 2.69645C8.86618 2.01788 7.70272 1.60717 7.11618 2.00002ZM8.84695 3.50002C8.84695 3.60716 9.0681 3.75002 9.34695 3.78574C9.99118 3.91074 10.3085 4.51788 10.1931 5.46431C10.0969 6.21431 10.1354 6.26788 10.6643 6.14288C11.2027 6.01788 11.4431 6.58931 11.3854 7.82145C11.3566 8.46431 11.3854 8.60717 11.6546 8.98217C11.9816 9.46431 12.1066 10.6072 11.8469 10.8036C11.7796 10.8572 11.7412 10.9643 11.77 11.0536C11.8085 11.1429 11.7027 11.1786 11.5393 11.1429C11.3469 11.0715 11.2508 11.125 11.2508 11.2857C11.2508 11.4465 11.2219 11.4465 11.1546 11.25C11.1066 11.1072 11.0585 10.7679 11.0585 10.5C11.0585 9.94645 10.9623 9.78574 10.7796 10C10.6835 10.0893 10.6643 10.3393 10.7123 10.7857C10.7508 11.1429 10.7412 11.4286 10.6931 11.4286C10.645 11.4286 10.4719 11.4822 10.3181 11.5357C10.0585 11.625 10.02 11.5893 9.96233 11.1429C9.80849 10.0179 9.46233 9.80359 9.55849 10.875C9.59695 11.3572 9.57772 11.625 9.50079 11.7322C9.3181 11.9286 9.13541 11.9643 9.13541 11.7679C9.13541 11.6965 9.07772 11.6607 9.00079 11.7143C8.90464 11.7857 8.84695 11.6607 8.82772 11.3215C8.78926 10.6965 8.52964 10.4822 8.55849 11.0893C8.58733 11.7679 8.5681 11.9107 8.41426 11.9107C8.33733 11.9107 8.27003 11.8572 8.27003 11.8036C8.27003 11.7322 8.00079 11.7322 7.67387 11.7857C6.71233 11.9286 6.60656 11.8572 6.6931 11.1965C6.77002 10.5715 6.77002 10.0179 6.6931 9.87502C6.58733 9.67859 6.36618 10.3393 6.29887 11.0536L6.23156 11.8036L5.64502 11.6965C5.0681 11.5893 4.37579 11.4822 4.01041 11.4465C3.88541 11.4286 3.84695 11.3393 3.89502 11.0893C3.97195 10.6072 3.77964 10.4465 3.65464 10.8929C3.46233 11.5536 2.83733 11.2322 2.77964 10.4465C2.74118 10 2.86618 9.10717 2.96233 9.10717C3.00079 9.10717 3.14502 8.92859 3.29887 8.69645C3.54887 8.33931 3.55849 8.26788 3.4431 7.73217C3.22195 6.62502 4.00079 4.91074 4.30849 5.83931C4.35656 5.98217 4.43349 6.00002 4.52002 5.89288C4.59695 5.78574 4.62579 5.71431 4.58733 5.71431C4.45272 5.71431 5.02002 3.92859 5.16426 3.92859C5.23156 3.92859 5.28926 3.85716 5.28926 3.76788C5.28926 3.46431 6.09695 3.44645 6.33733 3.73216C6.53926 3.96431 6.57772 3.96431 6.67387 3.73216C6.73156 3.58931 7.01041 3.26788 7.28926 3.00002L7.79887 2.53574L8.32772 2.92859C8.61618 3.12502 8.84695 3.39288 8.84695 3.50002Z" fill="currentColor"/>
<path d="M8.15465 4.39255C7.97195 4.57112 7.91426 4.73184 7.95272 4.9997C8.02003 5.48184 8.16426 5.6247 8.23157 5.28541C8.30849 4.91041 8.40465 4.92827 8.61619 5.30327C8.92388 5.8747 9.04888 5.7497 8.89503 5.05327C8.81811 4.69612 8.7508 4.39255 8.7508 4.3747C8.7508 4.17827 8.34695 4.19612 8.15465 4.39255Z" fill="currentColor"/>
<path d="M5.56861 5.19643C5.26092 5.80357 5.20323 6.25 5.434 6.25C5.51092 6.25 5.57823 6.14286 5.57823 6.01786C5.57823 5.875 5.78977 5.67857 6.059 5.53571C6.40515 5.35714 6.53015 5.21429 6.49169 5.03571C6.46284 4.91071 6.44361 4.75 6.44361 4.71429C6.44361 4.375 5.809 4.73214 5.56861 5.19643Z" fill="currentColor"/>
<path d="M6.70321 6.78533C6.25128 7.44604 6.43398 8.14247 6.90513 7.55318C7.04936 7.37461 7.25128 7.23176 7.35705 7.23176C7.48205 7.23176 7.54936 7.10676 7.54936 6.87461C7.54936 6.35676 7.03974 6.30318 6.70321 6.78533Z" fill="currentColor"/>
<path d="M9.83733 7.42912C9.72195 7.5184 9.77002 8.44698 9.92387 8.98269C10.0681 9.50055 10.2989 9.0184 10.2508 8.28626C10.1835 7.3934 10.1162 7.23269 9.83733 7.42912Z" fill="currentColor"/>
<path d="M4.28863 8.2673C4.05786 8.91016 4.04825 9.91016 4.2694 9.91016C4.3944 9.91016 4.46171 9.7673 4.48094 9.41016C4.49056 9.1423 4.5771 8.80301 4.65402 8.6423C4.74056 8.49944 4.80786 8.24944 4.80786 8.10658C4.80786 7.71373 4.44248 7.82087 4.28863 8.2673Z" fill="currentColor"/>
<path d="M7.99137 8.48175C7.65483 8.83889 7.44329 9.60675 7.64522 9.74961C7.73176 9.82104 7.8856 9.71389 8.02022 9.48175C8.1356 9.28532 8.29906 9.10675 8.3856 9.10675C8.57791 9.10675 8.78945 8.64246 8.70291 8.39246C8.62599 8.14246 8.27983 8.19604 7.99137 8.48175Z" fill="currentColor"/>
<path d="M5.11521 9.14386C5.0479 9.26886 4.99982 9.46528 4.99982 9.60814C4.99982 9.73314 4.96136 9.78671 4.90367 9.73314C4.7979 9.60814 4.76905 10.0546 4.86521 10.2331C4.98059 10.4474 5.75944 9.39386 5.65367 9.16171C5.52867 8.876 5.26905 8.85814 5.11521 9.14386Z" fill="currentColor"/>
</svg>
