<svg width="15" height="15" viewBox="0 0 15 15" fill="none" xmlns="http://www.w3.org/2000/svg">
<path d="M4.24756 1.33774C4.15464 1.43486 4.14137 1.56436 4.20774 1.65069C4.4334 1.96364 5.0042 2.46004 5.36261 2.64349C5.85376 2.90249 5.61482 3.02119 4.55287 3.02119C3.90243 3.02119 3.71659 3.05356 3.71659 3.18306C3.71659 3.52838 4.4865 3.64709 5.81393 3.51759C6.4511 3.46364 6.53075 3.47443 6.59712 3.66867C6.63694 3.78738 6.71659 3.85213 6.78296 3.81975C6.84933 3.78738 6.90243 3.83054 6.90243 3.92767C6.90243 4.014 6.94225 4.16508 6.99535 4.27299C7.04845 4.40249 7.03517 4.43486 6.9157 4.3809C6.51747 4.17587 4.35376 4.03558 4.03517 4.18666C3.88916 4.2622 3.86261 4.31615 3.95553 4.31615C4.04845 4.31615 4.10155 4.35932 4.04845 4.42407C3.84933 4.68306 4.69889 4.90968 5.97323 4.92047L7.23429 4.93126L7.55287 5.43846C7.91128 6.02119 7.85818 6.1399 7.26084 5.94565C6.53075 5.71903 5.15022 5.5032 4.36703 5.5032C3.43783 5.5032 3.58385 6.17227 4.5396 6.31256C4.85818 6.36651 5.13694 6.40968 5.17677 6.42047C5.36261 6.46364 6.90243 6.61472 7.34048 6.6363C7.97765 6.65788 8.07057 6.77659 8.08385 7.56436C8.09712 8.24421 8.07057 8.27659 7.80508 8.06076C7.61924 7.92047 6.88916 7.5104 6.76969 7.48882C6.67677 7.47803 6.23871 7.33774 5.90685 7.22982C4.00862 6.58234 3.0396 7.22982 4.69889 8.03918C5.11039 8.24421 5.76084 8.46004 6.14579 8.514C7.52632 8.71903 7.898 8.87011 7.93783 9.22623C8.0042 9.77659 7.81836 10.0572 7.4865 9.89529C6.74314 9.54997 6.17234 9.30177 6.10597 9.31256C6.06615 9.31256 5.85376 9.23702 5.61482 9.1291C4.68562 8.74062 3.31836 8.74062 3.31836 9.11831C3.31836 9.46364 4.9511 10.4025 5.69447 10.4996C5.81393 10.5104 5.97323 10.5536 6.0396 10.5967C6.11924 10.6291 6.4511 10.6939 6.80951 10.737C7.4865 10.8233 7.56615 10.9313 7.24756 11.4169C6.84933 12.032 6.62367 12.5284 6.70331 12.6255C6.74314 12.6903 6.71659 12.7334 6.65022 12.7334C6.57057 12.7334 6.5042 12.8305 6.5042 12.9385C6.5042 13.2298 6.92898 13.1543 7.10154 12.8413C7.18119 12.701 7.42013 12.291 7.63252 11.9349L8.03075 11.2874L9.02632 11.2766C9.98208 11.2658 11.4157 10.8989 11.4157 10.6615C11.4157 10.6075 11.4953 10.5751 11.5883 10.5751C11.867 10.5751 12.1591 9.92767 11.9334 9.80896C11.429 9.52839 9.59712 9.92767 8.53517 10.5428C8.24314 10.7046 8.22986 10.6939 8.22986 10.4457C8.22986 10.1327 8.48208 9.49601 8.60154 9.48522C8.65464 9.48522 8.81393 9.46364 8.95995 9.43126C9.10597 9.40968 9.34491 9.36651 9.49092 9.35572C9.63694 9.33414 9.92898 9.2586 10.1281 9.19385C10.3405 9.11831 10.5263 9.06436 10.5529 9.06436C10.6989 9.06436 11.7874 8.39529 12.0529 8.14709C12.4378 7.78018 12.5175 7.20824 12.1723 7.16508C11.5352 7.08954 10.2741 7.66148 8.99977 8.61112L8.62809 8.89169V8.55716C8.62809 7.95285 9.13252 7.24062 9.4511 7.40249C9.61039 7.47803 11.1635 6.56076 11.5617 6.15069C12.4644 5.23342 11.9467 4.80177 10.7918 5.5032C10.367 5.7622 10.0086 6.0104 9.98208 6.06436C9.95553 6.10752 9.86261 6.15069 9.76969 6.15069C9.67677 6.15069 9.53075 6.26939 9.4511 6.42047C9.37146 6.57155 9.21216 6.69026 9.10597 6.69026C9.01305 6.69026 8.88031 6.76579 8.84048 6.86292C8.70774 7.15428 8.5219 6.92767 8.54845 6.48522C8.56172 6.2586 8.66792 5.99961 8.77411 5.90249C8.95995 5.74061 10.3405 4.52119 10.7122 4.18666C10.9909 3.93846 10.8847 3.51759 10.5263 3.47443C10.1679 3.43126 9.26526 4.06795 8.81393 4.70464C8.37588 5.30896 8.19004 5.35213 7.92455 4.89889C7.71216 4.53198 7.71216 4.53198 8.13694 4.18666C9.26526 3.24781 9.74314 1.90968 8.84048 2.19025C8.73429 2.22263 8.575 2.42766 8.49535 2.65428C8.40243 2.87011 8.12367 3.26939 7.88473 3.52838L7.4334 4.0032L7.30066 3.72263C7.15464 3.40968 7.24756 2.98882 7.52632 2.62191C7.63252 2.49241 7.68562 2.33054 7.63252 2.26579C7.5927 2.21184 7.60597 2.15788 7.67234 2.15788C7.80508 2.15788 7.79181 1.49961 7.64579 1.31615C7.51305 1.14349 7.04845 1.15428 6.95553 1.32695C6.87588 1.49961 6.80951 1.95284 6.78296 2.48162L6.75641 2.85932L5.84048 2.06076C5.19004 1.48882 4.87146 1.28378 4.71216 1.32695C4.5927 1.37011 4.52632 1.35932 4.57942 1.29457C4.71216 1.12191 4.4334 1.16507 4.24756 1.33774ZM10.7918 6.21544C10.1015 6.71184 9.92898 6.67946 10.5661 6.17227C10.8449 5.94565 11.1369 5.78378 11.19 5.80536C11.2564 5.82695 11.0706 6.0104 10.7918 6.21544ZM5.88031 7.71544C6.4511 7.8881 6.90243 8.09313 6.90243 8.17946C6.90243 8.28738 6.84933 8.28738 6.69004 8.15788C6.58385 8.06076 6.43783 8.0068 6.37146 8.03918C6.26526 8.09313 5.89358 7.98522 4.9511 7.6291C4.77854 7.56436 4.64579 7.47803 4.64579 7.41328C4.64579 7.35932 4.68562 7.33774 4.75199 7.35932C4.80508 7.3809 5.30951 7.53198 5.88031 7.71544ZM11.6812 7.72623C11.6812 7.99601 10.2077 8.77299 9.80951 8.71903C9.61039 8.69745 9.79623 8.55716 10.4998 8.16867C11.4157 7.68306 11.6812 7.58594 11.6812 7.72623ZM5.50862 9.60392C5.73429 9.66867 5.9334 9.73342 5.97323 9.73342C6.17234 9.74421 6.76969 10.0572 6.76969 10.1543C6.76969 10.219 6.83606 10.2298 6.90243 10.1975C6.98208 10.1651 7.03517 10.1867 7.03517 10.2406C7.03517 10.3054 6.94225 10.3593 6.83606 10.3593C6.72986 10.3593 6.63694 10.3162 6.63694 10.2622C6.63694 10.2082 6.47765 10.1435 6.27854 10.1111C6.06615 10.0787 5.61482 9.93846 5.24314 9.80896C4.88473 9.66867 4.5396 9.57155 4.49978 9.57155C4.45995 9.58234 4.42013 9.52839 4.42013 9.45285C4.42013 9.30177 4.67234 9.33414 5.50862 9.60392ZM11.0175 10.2622C11.0175 10.3809 9.80951 10.8126 9.30508 10.8665C8.88031 10.9097 8.92013 10.8773 9.69004 10.5536C10.513 10.219 11.0175 10.1003 11.0175 10.2622Z" fill="black"/>
</svg>
