<svg width="15" height="15" viewBox="0 0 15 15" fill="none" xmlns="http://www.w3.org/2000/svg">
<path d="M10.4844 1.32584C10.3762 1.46714 10.2834 1.59758 10.2834 1.63018C10.2524 1.74975 9.72668 2.39105 9.64936 2.39105C9.60296 2.39105 9.49472 2.23888 9.4174 2.06497C9.32461 1.88018 9.15451 1.73888 9.04626 1.73888C8.84523 1.73888 8.45863 1.99975 8.56688 2.07584C8.59781 2.09758 8.67513 2.29323 8.72152 2.49975C8.76791 2.70627 8.84523 2.99975 8.89162 3.15192C8.98441 3.40192 8.61327 4.23888 8.41224 4.23888C8.36585 4.23888 8.36585 4.1954 8.42771 4.14105C8.4741 4.08671 8.42771 3.99975 8.33492 3.96714C8.2576 3.92366 8.21121 3.82584 8.2576 3.74975C8.38131 3.51062 7.99472 2.92366 7.73183 2.95627C7.48441 2.98888 7.37616 3.41279 7.5308 3.6954C7.57719 3.78236 7.65451 3.99975 7.68544 4.18453C7.73183 4.35845 7.82461 4.58671 7.90193 4.6954C8.01018 4.82584 7.99472 5.04323 7.87101 5.32584C7.66997 5.8041 7.42255 5.8041 7.42255 5.33671C7.42255 5.17366 7.37616 4.99975 7.3143 4.95627C7.23698 4.91279 7.19059 4.77149 7.17513 4.64105C7.1442 4.13018 7.09781 4.0541 6.88131 4.0541C6.38647 4.0541 6.49472 5.4454 7.05142 6.0541C7.29884 6.33671 7.34523 6.84758 7.11327 6.84758C7.03595 6.84758 6.95863 6.92366 6.95863 7.01062C6.95863 7.09758 6.89678 7.17366 6.81946 7.17366C6.64936 7.17366 6.54111 6.95627 6.40193 6.35845C6.27822 5.81497 6.23183 5.76062 5.8607 5.76062C5.45863 5.76062 5.4741 5.98888 5.96894 7.06497C6.43286 8.10845 6.49472 8.45627 6.29369 8.74975C6.13905 8.96714 6.09265 9.10844 5.95348 9.99975C5.8607 10.5215 5.61327 11.2171 5.56688 11.0324C5.55142 10.9671 5.52049 10.8258 5.48956 10.7063C5.11843 8.88018 3.88131 7.21714 3.32461 7.76062C2.99987 8.06497 3.57204 10.5976 4.17513 11.565C4.32977 11.8041 4.42255 12.0432 4.39162 12.0867C4.34523 12.1302 4.37616 12.1737 4.45348 12.1737C4.57719 12.1737 4.73183 12.4237 4.79369 12.7171C4.80915 12.7497 4.9174 12.8911 5.05657 13.0432C5.19575 13.1845 5.35039 13.4563 5.41224 13.6411C5.48956 13.9563 6.18544 14.2063 6.18544 13.9237C6.18544 13.8693 6.27822 13.7497 6.38647 13.6737C6.47925 13.5976 6.83492 13.2606 7.15967 12.9345C8.16482 11.8911 10.6236 9.97801 12.371 8.88018C12.9586 8.51062 12.8504 8.33671 12.0927 8.42366C11.304 8.51062 10.9638 8.58671 11.0411 8.67366C11.072 8.71714 10.9329 8.76062 10.7318 8.76062C10.036 8.79323 7.57719 10.3367 7.57719 10.7497C7.57719 10.815 7.51533 10.8693 7.45348 10.8693C7.39162 10.8693 7.09781 11.1845 6.80399 11.5758C6.51018 11.9563 6.26276 12.2606 6.26276 12.2497C6.2009 12.1845 6.49472 10.4671 6.72668 9.61931C6.98956 8.63018 7.26791 8.15192 7.62358 8.15192C7.73183 8.15192 8.05657 8.01062 8.35039 7.84758C8.6442 7.67366 9.23183 7.40192 9.63389 7.22801C10.1287 7.03236 10.3452 6.88018 10.2988 6.77149C10.2524 6.68453 10.2061 6.58671 10.2061 6.56497C10.2061 6.42366 9.72668 6.58671 8.72152 7.06497C7.43802 7.67366 7.42255 7.68453 7.42255 7.41279C7.42255 7.21714 8.02564 6.73888 8.27307 6.73888C8.52049 6.73888 10.3452 5.70627 10.5463 5.45627C10.9174 4.97801 10.3762 4.95627 9.64936 5.43453C8.73698 6.02149 8.35039 6.15192 8.35039 5.88018C8.35039 5.73888 8.70606 5.49975 9.40193 5.17366C10.8401 4.48888 10.9174 4.43453 11.0411 4.15192C11.1957 3.81497 10.5772 3.82584 10.0514 4.16279C9.55657 4.47801 9.12358 4.60845 9.12358 4.42366C9.12358 4.18453 10.2524 3.41279 11.072 3.08671C11.3504 2.97801 11.5823 2.39105 11.3504 2.39105C11.2885 2.39105 11.0102 2.51062 10.7164 2.67366L10.2061 2.9454L10.3916 2.64105C10.4999 2.47801 10.6236 2.28236 10.7009 2.21714C10.7628 2.15192 10.9174 1.92366 11.0566 1.70627C11.2731 1.33671 11.2731 1.3041 10.9793 1.1954C10.7318 1.10845 10.6545 1.13018 10.4844 1.32584ZM4.46894 9.64105C4.96379 10.7497 5.14936 11.5432 4.93286 11.6737C4.79369 11.7606 4.77822 11.7606 4.84008 11.6737C4.90193 11.6084 4.80915 11.3802 4.66997 11.1737C4.51534 10.9671 4.37616 10.5867 4.3607 10.3258C4.32977 10.0541 4.26791 9.81497 4.20606 9.78236C4.1442 9.74975 4.09781 9.65192 4.08235 9.56497C4.06688 9.47801 4.02049 9.29323 3.95863 9.15192C3.89678 9.02149 3.91224 8.91279 3.98956 8.91279C4.06688 8.91279 4.28338 9.23888 4.46894 9.64105ZM10.639 9.49975C10.4071 9.64105 10.1751 9.77149 10.0978 9.79323C9.95863 9.83671 9.12358 10.5106 8.4741 11.0976C7.29884 12.1628 7.11327 12.3041 7.11327 12.1302C7.11327 11.8802 8.27307 10.6737 8.87616 10.2932C9.13905 10.1302 9.47925 9.91279 9.61843 9.81497C9.9741 9.57584 10.7164 9.26062 10.9019 9.24975C10.9947 9.24975 10.871 9.35844 10.639 9.49975Z" fill="currentColor"/>
</svg>
