<svg width="15" height="15" viewBox="0 0 15 15" fill="none" xmlns="http://www.w3.org/2000/svg">
<path d="M9.77769 1.09606C9.77769 1.15203 9.5768 1.35352 9.34912 1.55501C9.10805 1.7677 8.90715 1.958 8.89376 2.00277C8.89376 2.03635 8.74644 2.27143 8.55894 2.5177C8.14376 3.08859 7.8759 3.68188 7.8759 3.99531C7.8759 4.14083 7.83572 4.25277 7.78215 4.25277C7.72858 4.25277 7.67501 4.46546 7.64822 4.72292C7.63483 4.98038 7.59465 5.22665 7.55447 5.28262C7.5143 5.33859 7.58126 5.66322 7.7018 5.99904C7.8759 6.52516 7.8893 6.72665 7.76876 7.16322C7.6884 7.45427 7.60805 7.85725 7.60805 8.06994C7.60805 8.28262 7.54108 8.5065 7.48751 8.57367C7.42055 8.64083 7.3268 9.08859 7.27322 9.56994C7.19287 10.4319 7.04555 10.499 6.92501 9.73785C6.88483 9.52516 6.84465 9.34606 6.83126 9.34606C6.81787 9.34606 6.79108 9.24531 6.77769 9.12218C6.67055 8.49531 5.78662 6.59233 5.53215 6.458C5.4384 6.41322 5.35805 6.31247 5.35805 6.23412C5.34465 5.8983 4.1393 5.03635 3.65715 5.03635C3.3893 5.03635 3.34912 5.06994 3.42947 5.33859C3.48305 5.5177 3.59019 5.73038 3.68394 5.81994C3.77769 5.90949 3.89822 6.09979 3.9384 6.23412C3.99197 6.37964 4.09912 6.49158 4.16608 6.49158C4.24644 6.49158 4.27322 6.53635 4.21965 6.60352C4.17947 6.65949 4.25983 6.91695 4.40715 7.18561C4.75537 7.81247 5.09019 8.68561 5.09019 8.93188C5.09019 9.04382 5.14376 9.17815 5.19733 9.24531C5.2643 9.30128 5.38483 9.56994 5.47858 9.84979C5.57233 10.1296 5.73305 10.5326 5.8268 10.7453C5.92055 10.958 6.05447 11.2378 6.10805 11.361C6.16162 11.4841 6.21519 11.6184 6.22858 11.6632C6.25537 11.7192 6.26876 11.764 6.28215 11.7752C6.30894 11.7975 6.33572 11.9095 6.3759 12.0326C6.49644 12.5252 7.05894 13.7005 7.20626 13.7453C7.3268 13.7789 8.23751 12.7267 9.04108 11.652C9.12144 11.5513 9.34912 11.2826 9.55001 11.0587C9.7643 10.8237 9.88483 10.6334 9.83126 10.6334C9.77769 10.6334 9.85805 10.5214 10.0054 10.3759C10.1527 10.2416 10.3536 10.0177 10.4473 9.87218C10.6214 9.58113 10.8223 9.35725 11.492 8.74158C12.0143 8.27143 12.7777 7.29755 12.8179 7.05128C12.8714 6.76024 12.5634 6.73785 11.8938 6.99531C10.5411 7.52143 8.61251 9.31247 8.10358 10.5214C8.09019 10.555 7.98305 10.7565 7.84912 10.9692L7.62144 11.361L7.71519 10.6893C7.76876 10.3199 7.79555 9.93934 7.79555 9.84979C7.79555 9.76024 7.82233 9.60352 7.86251 9.51397C7.95626 9.30128 7.99644 9.18934 8.09019 8.65203C8.13037 8.41695 8.22412 7.96919 8.30447 7.66695C8.38483 7.35352 8.46519 7.02889 8.47858 6.93934C8.49197 6.84979 8.58572 6.71546 8.66608 6.65949C8.8268 6.55874 9.06787 6.20053 9.67055 5.22665C10.4072 3.99531 11.0366 1.12964 10.5277 1.29755C10.4339 1.33113 10.3134 1.27516 10.2732 1.18561C10.1795 1.0065 9.77769 0.928146 9.77769 1.09606ZM9.96519 2.67441C9.87144 3.05501 9.79108 3.40203 9.79108 3.4468C9.83126 3.6371 9.60358 4.25277 9.48305 4.25277C9.41608 4.25277 9.3893 4.29755 9.44287 4.35352C9.48305 4.40949 9.44287 4.49904 9.36251 4.53262C9.29555 4.5774 9.25537 4.68934 9.29555 4.77889C9.33572 4.86844 9.30894 4.90203 9.24197 4.86844C9.16162 4.83486 9.10805 4.87964 9.10805 4.96919C9.10805 5.05874 8.97412 5.31621 8.8268 5.54009C8.49197 6.01024 8.10358 5.90949 8.23751 5.38337C8.2643 5.22665 8.33126 4.84606 8.38483 4.54382C8.42501 4.24158 8.50537 3.90576 8.55894 3.81621C8.6259 3.71546 8.6393 3.56994 8.61251 3.49158C8.57233 3.42441 8.59912 3.35725 8.66608 3.35725C8.71965 3.35725 9.04108 2.95427 9.3759 2.47292C10.0723 1.45427 10.2866 1.53262 9.96519 2.67441ZM4.79555 6.12218C4.76876 6.17815 4.90269 6.41322 5.09019 6.65949C5.67947 7.46546 6.17501 8.59606 6.36251 9.56994C6.40269 9.74904 6.45626 9.99531 6.46965 10.0961C6.49644 10.208 6.55001 10.3311 6.60358 10.3647C6.65715 10.4095 6.69733 10.5438 6.69733 10.6558C6.69733 10.9132 6.29555 10.9244 6.28215 10.6558C6.26876 10.3759 6.2018 10.0849 6.08126 9.87218C6.02769 9.77143 5.96072 9.59233 5.94733 9.48039C5.92055 9.36844 5.8134 9.16695 5.70626 9.03262C5.59912 8.8983 5.47858 8.62964 5.4384 8.45053C5.34465 8.04755 4.80894 6.76024 4.58126 6.41322C4.36697 6.09979 4.38037 6.04382 4.62144 6.04382C4.72858 6.04382 4.80894 6.0774 4.79555 6.12218ZM11.7598 7.7677C11.1304 8.29382 10.983 8.47292 11.0902 8.57367C11.1438 8.61844 11.117 8.61844 11.0232 8.57367C10.9295 8.52889 10.7955 8.60725 10.7018 8.75277C10.608 8.8983 10.5009 9.03262 10.4607 9.06621C10.3134 9.16695 9.50983 10.1632 9.50983 10.2416C9.50983 10.2864 9.29555 10.5662 9.04108 10.8573C8.78662 11.1483 8.61251 11.417 8.66608 11.4617C8.70626 11.4953 8.67947 11.5289 8.59912 11.5289C8.51876 11.5289 8.31787 11.7304 8.17055 11.9767C7.76876 12.6371 7.72858 12.5252 8.09019 11.7192C8.55894 10.667 8.92055 10.0513 9.22858 9.76024C9.3759 9.61471 9.45626 9.41322 9.41608 9.31247C9.36251 9.15576 9.3759 9.15576 9.48305 9.27889C9.60358 9.41322 9.67055 9.36844 9.89822 9.05501C10.0455 8.84233 10.367 8.55128 10.5947 8.39456C10.8223 8.23785 11.1705 7.98038 11.3714 7.82367C11.6661 7.5774 11.9072 7.45427 12.1616 7.3983C12.1884 7.3871 12.0009 7.55501 11.7598 7.7677Z" fill="black"/>
</svg>
