<svg width="15" height="15" viewBox="0 0 15 15" fill="none" xmlns="http://www.w3.org/2000/svg">
<path d="M2.74737 2.34618C2.74737 2.37679 2.58892 2.387 2.39878 2.36659C2.10301 2.33598 2.05019 2.36659 2.0185 2.57067C1.91286 3.32577 2.08188 4.3972 2.31427 4.46863C2.37765 4.48904 2.43047 4.57067 2.43047 4.66251C2.43047 4.98904 3.2861 6.18292 3.42343 6.04006C3.45512 6.00945 3.48681 6.06047 3.48681 6.1523C3.48681 6.24414 3.52906 6.32577 3.58188 6.32577C3.62413 6.32577 3.85653 6.46863 4.07836 6.6421C4.30019 6.81557 4.61709 6.97883 4.77554 7.00945C4.94456 7.04006 5.07132 7.10128 5.07132 7.1421C5.07132 7.31557 5.81075 7.45843 6.82484 7.48904C7.13118 7.49924 7.24737 7.54006 7.21568 7.62169C7.18399 7.69312 7.20512 7.75434 7.25794 7.75434C7.31075 7.75434 7.34244 7.90741 7.32132 8.08087C7.2685 8.6421 7.27906 9.48904 7.34244 9.59108C7.37413 9.6523 7.36357 9.69312 7.32132 9.69312C7.20512 9.69312 7.23681 10.2339 7.34244 10.4176C7.39526 10.489 7.3847 10.5197 7.32132 10.4788C7.2685 10.4482 7.21568 10.6421 7.21568 10.9482C7.19456 11.5503 7.09948 11.938 6.9516 11.938C6.89878 11.938 6.88822 11.887 6.91991 11.836C6.9516 11.7748 6.86709 11.7339 6.7192 11.7339C6.37061 11.7339 6.11709 11.836 6.19103 11.9482C6.22272 11.9992 6.16991 12.0094 6.0854 11.9788C6.00089 11.9482 5.81075 11.9992 5.66287 12.0911C5.51498 12.1931 5.38822 12.2237 5.38822 12.1829C5.38822 12.1319 5.31427 12.1829 5.2192 12.2952C5.1347 12.4074 5.05019 12.4788 5.02906 12.4482C4.97625 12.3462 4.3847 12.9074 4.35301 13.0911C4.31075 13.3258 4.55371 13.3156 5.06075 13.0605C5.28258 12.9584 5.49385 12.8972 5.5361 12.9278C5.56779 12.9686 5.59948 12.9482 5.59948 12.887C5.59948 12.7748 5.90582 12.6523 6.31779 12.5911C6.45512 12.5809 6.6347 12.5094 6.70864 12.4482C6.80371 12.3666 6.86709 12.3666 6.91991 12.4482C6.9516 12.5094 7.0361 12.5299 7.08892 12.4992C7.51146 12.2441 9.49737 12.5401 10.1946 12.9686C10.7333 13.2952 11.0713 13.3462 11.1664 13.1013C11.2298 12.9278 10.7544 12.387 10.4269 12.285C10.3213 12.2543 10.1417 12.1523 10.0361 12.0605C9.91991 11.9788 9.6347 11.887 9.38118 11.8666C9.13822 11.836 8.90582 11.785 8.87413 11.7543C8.7685 11.6115 8.10301 11.6115 8.00794 11.7543C7.92343 11.8564 7.91287 11.8564 7.95512 11.7339C7.97625 11.6523 7.95512 11.4584 7.91287 11.3054C7.87061 11.1421 7.88118 10.9992 7.93399 10.9584C8.02906 10.9074 7.96568 10.1523 7.84948 9.95843C7.80723 9.90741 7.83892 9.8972 7.9023 9.93802C7.99737 9.98904 8.0185 9.68292 7.99737 8.73394C7.97625 8.02985 7.99737 7.47883 8.03963 7.50945C8.08188 7.52985 8.14526 7.50945 8.18751 7.44822C8.22977 7.387 8.29315 7.36659 8.3354 7.387C8.37765 7.41761 8.59948 7.387 8.83188 7.33598C9.05371 7.27475 9.34949 7.23394 9.48681 7.23394C9.61357 7.24414 9.75089 7.17271 9.78258 7.09108C9.82484 7.00945 9.88822 6.93802 9.9516 6.93802C10.0044 6.93802 10.015 6.98904 9.97272 7.06047C9.91991 7.1319 9.94103 7.1421 10.0467 7.08087C10.1312 7.04006 10.2896 6.97883 10.4058 6.96863C10.7755 6.91761 10.8917 6.83598 10.8178 6.72373C10.7755 6.6523 10.7861 6.6319 10.86 6.67271C10.9234 6.70332 11.103 6.62169 11.2615 6.47883C11.4093 6.34618 11.5784 6.24414 11.61 6.27475C11.6523 6.29516 11.7579 6.22373 11.8319 6.11149C11.9164 6.00945 12.0326 5.91761 12.096 5.91761C12.2333 5.91761 12.677 5.44822 12.677 5.31557C12.677 5.26455 12.7192 5.20332 12.7615 5.18292C13.0361 5.07067 13.522 3.34618 13.3424 3.11149C13.0784 2.77475 11.1875 2.6421 10.9974 2.94822C10.9551 3.00945 10.7122 3.08087 10.4586 3.11149C10.015 3.1523 9.64526 3.32577 9.27554 3.66251C8.74737 4.1319 8.56779 4.32577 8.62061 4.40741C8.6523 4.44822 8.58892 4.45843 8.49385 4.41761C8.36709 4.37679 8.3354 4.387 8.38822 4.46863C8.43047 4.54006 8.41991 4.59108 8.35653 4.59108C8.20864 4.59108 7.7861 5.28496 7.84948 5.44822C7.88118 5.51965 7.83892 5.58087 7.75441 5.58087C7.62765 5.58087 7.4692 5.31557 7.44808 5.08087C7.44808 5.04006 7.34244 4.92781 7.21568 4.84618C7.07836 4.75434 6.97272 4.62169 6.97272 4.54006C6.97272 4.46863 6.90934 4.37679 6.84596 4.35638C6.76146 4.31557 6.75089 4.29516 6.82484 4.29516C6.97272 4.28496 6.16991 3.46863 6.02202 3.46863C5.9692 3.46863 5.91639 3.41761 5.91639 3.35638C5.91639 3.30536 5.86357 3.28496 5.78963 3.32577C5.72625 3.36659 5.70512 3.35638 5.73681 3.28496C5.81075 3.17271 5.00794 2.66251 4.64878 2.60128C4.53258 2.58087 4.37413 2.52985 4.30019 2.47883C4.23681 2.43802 4.0361 2.387 3.85653 2.37679C3.68751 2.36659 3.36005 2.34618 3.14878 2.32577C2.92695 2.29516 2.74737 2.30536 2.74737 2.34618ZM3.01146 2.95843C2.9692 3.01965 3.09596 3.07067 3.29667 3.08087C3.48681 3.09108 3.76146 3.11149 3.90934 3.11149C4.05723 3.12169 4.3847 3.24414 4.63822 3.37679C4.89174 3.50945 5.18751 3.66251 5.29315 3.72373C5.40934 3.77475 5.49385 3.85638 5.49385 3.8972C5.49385 3.94822 5.55723 3.97883 5.63117 3.97883C5.70512 3.97883 5.85301 4.11149 5.94808 4.28496C6.05371 4.44822 6.22272 4.59108 6.31779 4.59108C6.46568 4.59108 6.46568 4.61149 6.34948 4.68292C6.23329 4.75434 6.24385 4.79516 6.4023 4.87679C6.5185 4.93802 6.59244 5.01965 6.59244 5.07067C6.58188 5.11149 6.68751 5.387 6.81427 5.67271C6.9516 5.96863 7.08892 6.34618 7.13118 6.52985L7.20512 6.86659L6.49737 6.79516C5.6523 6.71353 4.5854 6.27475 4.13117 5.82577C3.9516 5.6523 3.76146 5.50945 3.69808 5.50945C3.6347 5.50945 3.60301 5.46863 3.6347 5.42781C3.66639 5.37679 3.53963 5.17271 3.37061 4.96863C3.19103 4.76455 3.07484 4.59108 3.10653 4.59108C3.14878 4.59108 3.06427 4.3972 2.93751 4.1523C2.61005 3.54006 2.63117 2.85638 2.99033 2.85638C3.03258 2.85638 3.04315 2.8972 3.01146 2.95843ZM12.6453 3.78496C12.6453 3.94822 12.6136 4.05026 12.5713 4.02985C12.4657 3.96863 12.2333 4.67271 12.3178 4.80536C12.36 4.87679 12.3495 4.8972 12.2861 4.86659C12.2227 4.82577 11.9692 5.02985 11.7157 5.30536C11.4622 5.59108 11.1981 5.81557 11.1241 5.81557C10.9551 5.81557 10.5431 6.02985 10.4375 6.16251C10.4058 6.21353 10.2579 6.27475 10.1312 6.29516C9.99385 6.31557 9.75089 6.3972 9.58188 6.47883C9.4023 6.56047 9.12765 6.6319 8.95864 6.6319C8.80019 6.6319 8.66287 6.67271 8.66287 6.73394C8.66287 6.78496 8.58892 6.79516 8.48329 6.76455C8.35653 6.71353 8.3354 6.73394 8.38822 6.84618C8.43047 6.92781 8.39878 6.8972 8.30371 6.79516C8.2192 6.69312 8.16639 6.56047 8.19808 6.51965C8.22977 6.46863 8.20864 6.42781 8.14526 6.42781C7.94456 6.42781 8.73681 5.12169 9.18047 4.71353C9.31779 4.59108 9.39174 4.48904 9.33892 4.48904C9.2861 4.48904 9.42343 4.37679 9.6347 4.23394C9.84596 4.09108 10.0678 3.97883 10.1206 3.97883C10.1734 3.97883 10.2791 3.90741 10.353 3.82577C10.4164 3.74414 10.5115 3.68292 10.5431 3.69312C10.5854 3.70332 10.7439 3.6523 10.9023 3.59108C11.0608 3.52985 11.3777 3.46863 11.6206 3.44822C11.853 3.43802 12.0431 3.3972 12.0431 3.35638C12.0431 3.31557 12.1805 3.33598 12.3389 3.387C12.5713 3.47883 12.6453 3.57067 12.6453 3.78496Z" fill="black"/>
</svg>
