<svg width="15" height="15" viewBox="0 0 15 15" fill="none" xmlns="http://www.w3.org/2000/svg">
<path d="M11.7075 1.9582C11.6849 1.97731 11.4142 2.01553 11.0985 2.04419C10.5684 2.09196 10.3654 2.13018 9.92552 2.26393C9.8353 2.30215 9.68868 2.33081 9.60974 2.34992C9.24883 2.40725 8.56086 2.88495 8.61725 3.01871C8.65109 3.09514 8.63981 3.14291 8.58342 3.11425C8.47064 3.04737 7.79395 3.69705 7.64733 4.01234C7.54582 4.23209 7.52327 4.24164 7.39921 4.08877C7.32026 3.99323 7.23004 3.93591 7.20748 3.96457C7.17364 3.98368 7.13981 3.90725 7.13981 3.7926C7.12853 3.67795 7.01575 3.51553 6.88041 3.41998C6.75635 3.334 6.65485 3.2289 6.65485 3.18113C6.65485 3.1047 5.89921 2.62699 5.76387 2.62699C5.73004 2.61744 5.57214 2.56011 5.41425 2.48368C4.65861 2.13018 3.24883 2.4168 3.5759 2.85629C3.6774 2.99005 3.6774 3.05693 3.5759 3.15247C3.4744 3.24801 3.4744 3.25756 3.59846 3.20024C3.72252 3.14291 3.74507 3.17158 3.69996 3.32444C3.65485 3.43909 3.6774 3.53463 3.74507 3.53463C3.80146 3.53463 3.82402 3.57285 3.77891 3.63018C3.68868 3.75438 3.99319 4.31807 4.27515 4.52826C4.39921 4.63336 4.51199 4.76712 4.51199 4.82444C4.51199 4.94865 5.32402 5.44546 5.52703 5.44546C5.5947 5.44546 5.76387 5.50279 5.89921 5.57922C6.03455 5.65565 6.36161 5.74164 6.63229 5.77986C6.89169 5.81807 7.10598 5.89451 7.11725 5.95183C7.11725 6.01871 7.13981 6.39132 7.17364 6.78304C7.1962 7.17476 7.26387 7.50916 7.32026 7.52826C7.38793 7.54737 7.39921 7.62381 7.36537 7.70979C7.32026 7.81489 7.34282 7.84355 7.42176 7.79578C7.50071 7.75756 7.53455 7.77667 7.50071 7.8531C7.46688 7.92954 7.34282 7.98686 7.21876 7.98686C7.10598 7.98686 7.03831 7.94865 7.06086 7.91043C7.0947 7.87221 6.9368 7.834 6.72252 7.834C6.4744 7.834 6.3165 7.88177 6.3165 7.94865C6.3165 8.04419 6.29394 8.04419 6.22628 7.94865C6.11349 7.80533 5.10973 7.88177 4.86161 8.05374C4.77139 8.12062 4.68116 8.15884 4.65861 8.13973C4.64733 8.13017 4.61349 8.12062 4.60222 8.13017C4.57966 8.13017 4.47816 8.14928 4.37665 8.16839C4.04958 8.21616 3.18116 8.98049 3.10222 9.27667C3.0571 9.42954 2.94432 9.59196 2.84282 9.64928C2.6962 9.71616 2.6962 9.73527 2.80898 9.74482C2.93304 9.74482 2.93304 9.77349 2.78643 9.9168C2.5947 10.0888 2.4368 11.1397 2.57214 11.3213C2.61725 11.369 2.66237 11.5219 2.68492 11.6461C2.77515 12.1907 3.64357 12.8213 4.4556 12.9359C4.64733 12.955 4.79395 12.9837 4.79395 12.9932C4.79395 13.2321 7.85034 13.1174 8.03079 12.8786C8.09846 12.783 8.12101 12.783 8.12101 12.869C8.12101 12.9837 8.45936 12.9646 8.68492 12.8499C8.75259 12.8117 8.96688 12.7735 9.15861 12.7544C9.35034 12.7257 9.58718 12.6493 9.69996 12.5633C9.80146 12.4869 9.92552 12.4486 9.95936 12.4869C10.0045 12.5155 10.0383 12.4964 10.0383 12.4391C10.0383 12.3722 10.106 12.3244 10.1849 12.3244C10.5797 12.3244 11.2451 11.5983 11.1774 11.2448C11.1661 11.1971 11.2112 11.1875 11.2676 11.2162C11.3917 11.283 11.527 11.006 11.4255 10.8722C11.3917 10.8149 11.403 10.7958 11.4706 10.8244C11.7188 10.9582 11.5609 9.7926 11.3015 9.55374C11.1661 9.42954 11.0533 9.27667 11.0533 9.2289C11.0533 9.17158 10.8954 9.06648 10.715 8.9996C10.5233 8.92317 10.4105 8.82763 10.4556 8.76075C10.5007 8.70342 10.4556 8.68431 10.3428 8.72253C10.23 8.76075 10.1511 8.74164 10.1511 8.68431C10.1511 8.62699 10.0496 8.59833 9.92552 8.62699C9.80146 8.65565 9.69996 8.63654 9.69996 8.57922C9.69996 8.53145 9.56462 8.49323 9.39545 8.50279C9.215 8.51234 9.0571 8.51234 9.02327 8.50279C8.98943 8.49323 8.87665 8.47412 8.76387 8.45502C8.44808 8.40724 8.23379 8.21616 8.23379 7.96775C8.23379 7.8531 8.1774 7.71935 8.12101 7.69068C8.05334 7.65247 8.03079 7.58559 8.06462 7.53782C8.10973 7.49005 8.08718 7.45183 8.04207 7.45183C7.98567 7.45183 7.95184 7.30852 7.96312 7.12699C7.9744 6.95502 7.94056 6.75438 7.89545 6.6875C7.73755 6.46775 8.00823 5.82763 8.27891 5.81807C8.40297 5.80852 8.61725 5.78941 8.74131 5.7703C8.86537 5.75119 9.18116 5.71298 9.44056 5.68432C10.7037 5.541 12.3954 4.24164 12.4406 3.38177C12.4518 3.21935 12.497 3.09514 12.5533 3.12381C12.5985 3.14291 12.6323 3.11425 12.6323 3.06648C12.6323 3.00916 12.5646 2.96139 12.497 2.96139C12.3842 2.96139 12.3842 2.94228 12.497 2.8754C12.7 2.7703 12.7451 2.32126 12.5759 2.19705C12.418 2.0824 11.7751 1.91043 11.7075 1.9582ZM11.8654 2.74164C11.933 3.01871 11.2789 4.29896 11.1097 4.22253C10.9406 4.15565 10.8165 4.22253 10.8729 4.35629C10.9067 4.43272 10.8954 4.47094 10.8278 4.44228C10.7601 4.41361 10.715 4.42317 10.715 4.47094C10.715 4.59514 9.59846 5.04419 9.13605 5.11107C8.92177 5.13973 8.5947 5.1875 8.41425 5.21616C8.09846 5.27349 7.90673 5.15884 7.89545 4.91043C7.89545 4.77667 8.89921 3.49642 9.03455 3.4582C9.09094 3.43909 9.11349 3.38177 9.06838 3.334C9.03455 3.28623 9.09094 3.24801 9.18116 3.24801C9.28267 3.24801 9.36161 3.20024 9.36161 3.15247C9.36161 3.09514 9.40673 3.05693 9.46312 3.05693C9.51951 3.05693 9.71124 3.00916 9.89169 2.95183C10.0609 2.88495 10.2864 2.82763 10.3767 2.80852C10.4669 2.78941 10.7488 2.74164 10.997 2.69387C11.6849 2.56011 11.8203 2.56011 11.8654 2.74164ZM5.47064 3.20979C5.80898 3.34355 6.09094 3.49642 6.09094 3.53463C6.09094 3.5824 6.26011 3.8117 6.4744 4.05056C7.18492 4.834 7.11725 5.44546 6.36161 5.11107C6.18116 5.03463 5.97816 4.96775 5.89921 4.96775C5.83154 4.96775 5.60598 4.84355 5.40297 4.68113C5.19996 4.52826 4.98567 4.43272 4.92928 4.46139C4.86161 4.49005 4.85034 4.47094 4.89545 4.40406C4.94056 4.34674 4.83906 4.08877 4.65861 3.84037C3.97064 2.88495 4.21876 2.68432 5.47064 3.20979ZM7.03831 8.52189C7.00447 8.56011 7.08342 8.59833 7.20748 8.59833C7.51199 8.59833 7.62477 8.7703 7.36537 8.85629C7.04958 8.96138 6.18116 9.47731 6.23755 9.52508C6.27139 9.54419 6.18116 9.66839 6.04582 9.7926C5.71876 10.0983 5.58342 10.2512 5.49319 10.4136C5.44808 10.49 5.3353 10.6429 5.24507 10.7576C5.08718 10.9391 5.08718 10.9773 5.23379 11.0728C5.42552 11.2066 6.04582 10.7767 5.92176 10.6047C5.88793 10.5474 5.93304 10.5092 6.02327 10.5092C6.11349 10.5092 6.215 10.4327 6.24883 10.3372C6.3165 10.1652 7.65861 9.29578 7.80522 9.34355C7.85034 9.3531 7.89545 9.32444 7.89545 9.28623C7.89545 9.23845 8.10973 9.19068 8.38041 9.18113C8.63981 9.17158 9.03455 9.15247 9.27139 9.14291C9.49695 9.13336 9.65485 9.15247 9.63229 9.18113C9.60974 9.21935 9.69996 9.27667 9.84658 9.30533C10.1962 9.39132 10.715 9.80215 10.7827 10.0601C10.9293 10.7002 10.9406 10.7958 10.8052 10.7958C10.7376 10.7958 10.7037 10.8244 10.7488 10.8531C10.7827 10.8913 10.7601 10.9678 10.6812 11.0442C10.3654 11.3404 10.2751 11.4455 10.3203 11.4837C10.3428 11.5028 10.1849 11.6079 9.94808 11.7034C9.72252 11.8085 9.35034 11.9805 9.14733 12.0856C8.93304 12.1811 8.67364 12.2767 8.58342 12.2767C8.48192 12.2862 8.29019 12.2958 8.14357 12.3053C7.99695 12.3149 7.90673 12.3531 7.92928 12.3913C7.96312 12.4391 7.73755 12.4582 7.43304 12.4582C7.12853 12.4486 6.88041 12.4678 6.88041 12.506C6.88041 12.5346 6.49695 12.5633 6.03455 12.5633C5.57214 12.5633 5.18868 12.5346 5.18868 12.506C5.18868 12.4773 4.94056 12.4009 4.63605 12.334C3.59846 12.1143 3.13605 11.5219 3.3165 10.6525C3.35034 10.49 3.39545 10.2799 3.41801 10.1652C3.48567 9.77349 4.57966 8.69387 4.89545 8.69387C5.03079 8.69387 5.23379 8.63654 5.3353 8.56967C5.54958 8.44546 7.12853 8.39769 7.03831 8.52189Z" fill="black"/>
</svg>
