<svg width="15" height="15" viewBox="0 0 15 15" fill="none" xmlns="http://www.w3.org/2000/svg">
<path d="M8.62733 1.33535C8.61533 1.36618 8.61533 1.42782 8.62733 1.46892C8.63933 1.52029 8.60333 1.53056 8.54333 1.49974C8.37533 1.41755 8.00333 1.83878 7.69133 2.46549C7.31933 3.22576 7.30732 3.23604 6.70732 2.96892C6.32332 2.80453 5.93932 2.73261 5.27932 2.72234C3.77932 2.69152 3.58733 2.90727 4.43933 3.70864C5.08733 4.32508 5.09933 4.36618 4.49933 4.45864C4.27133 4.49974 4.07933 4.57166 4.07933 4.62303C4.07933 4.68467 4.04333 4.72577 3.99533 4.71549C3.77933 4.68467 3.37133 4.85933 3.43133 4.94152C3.46733 4.99289 3.43133 5.03398 3.37133 5.03398C3.17933 5.03398 2.75933 5.4244 2.75933 5.58878C2.75933 5.67097 2.69933 5.77371 2.61533 5.81481C2.53133 5.86618 2.51933 5.83535 2.57933 5.74289C2.63933 5.64015 2.63933 5.62988 2.54333 5.70179C2.33933 5.86618 1.91933 6.56481 1.91933 6.73946C1.91933 6.82166 1.83533 6.96549 1.73933 7.04768C1.52333 7.24289 1.49933 7.43809 1.71533 7.33535C1.81133 7.27371 1.81133 7.30453 1.70333 7.42782C1.52333 7.60248 1.41533 8.75316 1.58333 8.67097C1.63133 8.64015 1.67933 8.67097 1.67933 8.72234C1.67933 8.78398 1.63133 8.83535 1.57133 8.83535C1.42733 8.83535 1.48733 9.32851 1.65533 9.47234C1.72733 9.53398 1.75133 9.647 1.71533 9.71892C1.67933 9.80111 1.70333 9.86275 1.75133 9.86275C1.81133 9.86275 1.87133 10.0374 1.89533 10.2429C1.90733 10.4484 1.96733 10.6436 2.01533 10.6847C2.07533 10.7155 2.20733 10.921 2.33933 11.147C2.69933 11.8148 4.04332 12.8833 4.63132 12.9758C4.76332 12.9963 5.07532 13.0888 5.33932 13.1915C6.26332 13.5306 7.28333 13.6128 8.27933 13.4175C9.21533 13.2429 10.9553 12.5545 10.8473 12.4107C10.8113 12.3696 10.8593 12.3285 10.9553 12.3285C11.1353 12.3285 11.9993 11.558 11.9993 11.3936C11.9993 11.3422 12.1313 11.1265 12.2753 10.9107C12.4313 10.7052 12.5393 10.4689 12.5033 10.397C12.4793 10.3251 12.5273 10.284 12.6233 10.2943C12.7073 10.3148 12.7673 10.2634 12.7433 10.1812C12.7313 10.1093 12.7673 9.98604 12.8393 9.9244C12.8993 9.85248 12.9233 9.76001 12.8753 9.71892C12.8273 9.67782 12.8633 9.6059 12.9593 9.55453C13.0673 9.49289 13.0793 9.45179 12.9953 9.45179C12.8873 9.45179 12.8993 9.37988 13.0193 9.18467C13.1033 9.03056 13.1633 8.73261 13.1273 8.48604C13.0313 7.6333 12.9233 7.19152 12.8153 7.19152C12.7553 7.19152 12.7313 7.15042 12.7793 7.09905C12.8753 6.95522 12.5873 6.47234 12.4433 6.54426C12.3713 6.57508 12.3593 6.55453 12.4073 6.48261C12.5513 6.28741 11.5913 5.29083 11.3633 5.41412C11.3033 5.44494 11.2073 5.40385 11.1473 5.33193C11.0033 5.12645 11.0153 5.03398 11.1953 5.03398C11.2793 5.03398 11.4713 4.89015 11.6393 4.71549C11.8073 4.55111 12.0833 4.26344 12.2753 4.08878C12.6353 3.73946 12.7073 3.39015 12.4193 3.39015C12.3233 3.39015 12.2393 3.34905 12.2393 3.29768C12.2393 3.23604 12.1433 3.19494 12.0353 3.19494C11.9153 3.19494 11.4833 3.1744 11.0633 3.14357C10.4513 3.10248 10.2233 3.1333 9.88733 3.30796C9.63533 3.43125 9.47933 3.46207 9.47933 3.39015C9.47933 3.32851 9.43133 3.30796 9.35933 3.33878C9.29933 3.3696 9.23933 3.34905 9.23933 3.29768C9.23933 3.23604 9.29933 3.18467 9.37133 3.18467C9.44333 3.18467 9.47933 3.0922 9.44333 2.97919C9.40733 2.86618 9.43133 2.77371 9.50333 2.77371C9.56333 2.77371 9.57533 2.72234 9.53933 2.67097C9.49133 2.60933 9.44333 2.36275 9.41933 2.1059C9.35933 1.56138 9.15533 1.24289 8.85533 1.26344C8.73533 1.27371 8.62733 1.30453 8.62733 1.33535ZM8.90333 2.79426C8.87933 3.27713 8.51933 4.31481 8.38733 4.31481C8.24333 4.31481 7.82333 3.80111 7.85933 3.66755C7.87133 3.6059 7.93133 3.34905 7.97933 3.10248C8.02733 2.86618 8.12333 2.67097 8.19533 2.67097C8.26733 2.67097 8.27933 2.64015 8.24333 2.60933C8.19533 2.56823 8.27933 2.45522 8.42333 2.3422C8.77133 2.08535 8.92733 2.23946 8.90333 2.79426ZM6.23932 3.44152C6.34732 3.52371 6.47932 3.56481 6.51532 3.52371C6.56332 3.49289 6.59932 3.51344 6.59932 3.57508C6.59932 3.63672 6.75532 3.70864 6.94732 3.74974C7.18732 3.79083 7.30732 3.89357 7.34332 4.05796C7.40332 4.32508 7.11532 4.45864 6.82732 4.30453C6.73132 4.25316 6.62332 4.27371 6.57532 4.34563C6.50332 4.43809 6.47932 4.43809 6.47932 4.34563C6.47932 4.28398 6.34732 4.24289 6.17932 4.25316C6.02332 4.27371 5.90332 4.25316 5.93932 4.22234C5.96332 4.18125 5.83132 4.09905 5.66332 4.02714C5.38732 3.9244 4.91932 3.44152 4.91932 3.25659C4.91932 3.14357 6.05932 3.30796 6.23932 3.44152ZM10.1393 3.69837C10.0553 3.81138 10.5713 3.77029 10.7993 3.647C10.9913 3.54426 11.6393 3.69837 11.6393 3.8422C11.6393 3.91412 11.5313 4.05796 11.3993 4.1607C11.2673 4.26344 11.1593 4.40727 11.1593 4.48946C11.1593 4.57166 11.0993 4.60248 11.0273 4.57166C10.9673 4.53056 10.7153 4.58193 10.4873 4.6744C10.2473 4.76686 10.0313 4.81823 9.99533 4.78741C9.94733 4.75659 9.85133 4.77714 9.75533 4.83878C9.65933 4.92097 9.59933 4.92097 9.59933 4.84905C9.59933 4.78741 9.44333 4.71549 9.23933 4.6744C9.04733 4.6333 8.87933 4.58193 8.87933 4.55111C8.87933 4.44837 9.55133 3.95522 9.73133 3.9244C9.82733 3.90385 9.94733 3.82166 9.99533 3.73946C10.0433 3.65727 10.1153 3.59563 10.1513 3.59563C10.1873 3.59563 10.1753 3.647 10.1393 3.69837ZM6.69532 4.95179C7.03132 4.97234 7.31932 5.01344 7.31932 5.04426C7.31932 5.07508 7.52333 5.09563 7.76333 5.07508C8.00333 5.06481 8.29133 5.08535 8.39933 5.13672C8.50733 5.18809 8.73533 5.23946 8.91533 5.26001C9.08333 5.28056 9.26333 5.33193 9.31133 5.37303C9.35933 5.41412 9.47933 5.3833 9.57533 5.31138C9.71933 5.21892 9.74333 5.21892 9.68333 5.31138C9.62333 5.39357 9.70733 5.45522 9.92333 5.49631C10.4153 5.58878 10.9313 5.84563 11.3033 6.1744C11.4833 6.33878 11.5913 6.47234 11.5553 6.47234C11.5193 6.47234 11.5553 6.55453 11.6513 6.647C12.2033 7.21207 12.4913 8.84563 12.1433 9.42097C12.0833 9.52371 11.9993 9.78056 11.9513 9.98604C11.9033 10.2018 11.8193 10.3765 11.7593 10.3765C11.6873 10.3765 11.6393 10.4484 11.6393 10.5306C11.6393 10.623 11.5313 10.7874 11.3993 10.9107C11.2793 11.034 11.1953 11.1675 11.2313 11.2189C11.2673 11.26 11.2313 11.3011 11.1593 11.3011C11.0873 11.3011 10.9793 11.4141 10.8953 11.558C10.8233 11.6915 10.7273 11.784 10.6793 11.7634C10.6193 11.7326 10.4273 11.8354 10.2353 11.9997C10.0313 12.1538 9.82733 12.2771 9.76733 12.2874C9.52733 12.3182 9.11933 12.4621 9.11933 12.5237C9.11933 12.5648 8.99933 12.6059 8.85533 12.6059C8.69933 12.6162 8.51933 12.7086 8.43533 12.8011C8.31533 12.9449 8.27933 12.9449 8.27933 12.8319C8.27933 12.7497 8.24333 12.7292 8.18333 12.7908C8.13533 12.8422 7.77532 12.8833 7.37932 12.8628C6.98332 12.8525 6.53932 12.8319 6.39532 12.8319C6.23932 12.8217 6.11932 12.7806 6.11932 12.7292C6.11932 12.6778 6.08332 12.647 6.03532 12.647C5.85532 12.6778 5.15932 12.5032 5.08732 12.421C5.06332 12.3799 4.94332 12.3696 4.83532 12.4004C4.71532 12.4415 4.66732 12.421 4.71532 12.3593C4.81132 12.2258 4.47533 12.0922 4.28333 12.1949C4.19933 12.2258 4.17533 12.2155 4.23533 12.1744C4.34333 12.0614 3.97133 11.7121 3.74333 11.7121C3.63533 11.7121 3.59933 11.6812 3.63533 11.6401C3.68333 11.5991 3.58733 11.4552 3.43133 11.3114C3.01133 10.921 2.45933 9.96549 2.42333 9.55453C2.41133 9.35933 2.35133 9.18467 2.30333 9.1744C2.13533 9.12303 2.29133 7.60248 2.51933 7.14015C2.60333 6.95522 2.74733 6.6059 2.79533 6.47234C2.79533 6.44152 2.90333 6.32851 3.02333 6.22577C3.13133 6.12303 3.20333 5.98946 3.16733 5.93809C3.13133 5.88672 3.14333 5.86618 3.20333 5.87645C3.26333 5.897 3.46733 5.78398 3.65933 5.6196C3.86333 5.46549 4.16333 5.28056 4.35533 5.20864C4.53533 5.147 4.67932 5.04426 4.67932 5.00316C4.67932 4.95179 4.73932 4.95179 4.79932 4.98261C4.87132 5.01344 4.91932 5.01344 4.91932 4.96207C4.91932 4.92097 5.17132 4.89015 5.48332 4.90042C5.80732 4.92097 6.34732 4.94152 6.69532 4.95179Z" fill="currentColor"/>
</svg>
