<svg width="15" height="15" viewBox="0 0 15 15" fill="none" xmlns="http://www.w3.org/2000/svg">
<path d="M8.89201 1.3271C8.84362 1.38832 8.77104 1.40873 8.72265 1.38832C8.60168 1.3271 7.7791 2.24546 7.68233 2.55159C7.58555 2.8373 7.44039 2.95975 7.25894 2.90873C7.13797 2.87812 7.00491 2.89852 6.95652 2.95975C6.90813 3.03118 6.79926 3.03118 6.62991 2.94954C6.43636 2.85771 6.40007 2.86791 6.47265 2.96995C6.54523 3.06179 6.50894 3.0822 6.37588 3.03118C6.25491 2.99036 6.17023 3.02097 6.17023 3.0924C6.17023 3.17403 6.13394 3.17403 6.06136 3.07199C5.94039 2.91893 5.19039 2.99036 4.53717 3.22505C4.31942 3.29648 4.10168 3.3271 4.0533 3.28628C4.01701 3.24546 3.99281 3.28628 4.01701 3.36791C4.0291 3.44954 4.00491 3.51077 3.93233 3.52097C3.75088 3.52097 2.9041 3.98016 2.9041 4.07199C2.9041 4.12301 2.75894 4.3271 2.58959 4.54138C2.1541 5.0924 2.05733 6.13322 2.42023 6.45975C2.61378 6.63322 2.66217 6.75567 2.60168 6.99036C2.23878 8.41893 2.11781 9.42914 2.31136 9.3271C2.40813 9.27608 2.40813 9.31689 2.31136 9.45975C2.23878 9.57199 2.22668 9.70465 2.27507 9.74546C2.32346 9.77608 2.35975 9.8475 2.35975 9.87812C2.37184 9.94954 2.56539 10.7046 2.60168 10.8169C2.69846 11.0822 2.96459 11.4087 3.04926 11.3679C3.10975 11.3373 3.14604 11.3475 3.13394 11.3985C3.12184 11.4393 3.13394 11.5108 3.14604 11.5516C3.15813 11.6026 3.18233 11.674 3.19442 11.7251C3.19442 11.7761 3.55733 12.0618 3.98072 12.3475C4.4041 12.6332 4.91217 13.0516 5.09362 13.2659C5.29926 13.5108 5.56539 13.6842 5.79523 13.7251C6.15813 13.7863 6.71459 13.623 6.60572 13.4802C6.56942 13.4393 6.60572 13.3985 6.69039 13.3883C7.21055 13.3271 7.60975 13.2353 7.56136 13.1638C7.53717 13.123 7.64604 13.1128 7.8033 13.1434C8.20249 13.2046 9.07346 12.9393 9.75088 12.5414C10.4525 12.1434 11.2509 11.4904 11.2509 11.3373C11.2509 11.2761 11.3114 11.2251 11.3718 11.2251C11.4444 11.2251 11.4928 11.1842 11.4928 11.1332C11.4928 11.0822 11.5533 10.9087 11.6259 10.7455C11.6985 10.5924 11.7468 10.4597 11.7347 10.4597C11.7227 10.4597 11.8073 10.3271 11.9041 10.1536C12.0493 9.92914 12.0614 9.8373 11.9404 9.77608C11.8557 9.73526 11.8557 9.69444 11.9162 9.69444C12.0977 9.69444 12.3033 9.05159 12.2791 8.54138C12.2549 8.13322 12.2912 8.07199 12.5331 8.02097C12.7993 7.95975 13.2952 7.37812 13.3799 6.99036C13.5372 6.31689 13.5614 6.04138 13.4525 5.98016C13.3799 5.94954 13.3557 5.8271 13.392 5.71485C13.4646 5.49036 12.896 4.5924 12.6783 4.5924C12.6178 4.5924 12.3396 4.39852 12.0856 4.17403C11.8194 3.93934 11.6138 3.77608 11.6138 3.81689C11.6138 3.85771 11.5049 3.8373 11.3718 3.77608C11.1904 3.69444 11.1299 3.69444 11.1299 3.79648C11.1299 3.85771 11.0573 3.8271 10.9606 3.71485C10.8638 3.61281 10.7428 3.52097 10.6823 3.51077C10.6339 3.51077 10.5009 3.46995 10.392 3.42914C10.2831 3.38832 10.0412 3.3475 9.84765 3.3271C9.6541 3.30669 9.49684 3.27607 9.50894 3.25567C9.60572 2.92914 9.71459 2.75567 9.81136 2.75567C9.87184 2.75567 9.92023 2.69444 9.92023 2.62301C9.92023 2.55159 9.99281 2.42914 10.0654 2.36791C10.3073 2.16383 10.271 1.66383 10.0291 1.46995C9.76297 1.26587 9.00088 1.17403 8.89201 1.3271ZM9.47265 1.89852C9.56943 1.98016 9.23072 2.50056 8.9162 2.77607C8.79523 2.87812 8.73475 3.02097 8.78313 3.0822C8.83152 3.14342 8.81943 3.16383 8.73475 3.12301C8.66217 3.0924 8.5533 3.14342 8.48072 3.23526C8.38394 3.37812 8.34765 3.38832 8.33555 3.26587C8.33555 3.18424 8.31136 3.01077 8.29926 2.87812C8.27507 2.75567 8.33555 2.60261 8.43233 2.54138C8.51701 2.48016 8.58959 2.37812 8.58959 2.31689C8.58959 2.02097 9.24281 1.71485 9.47265 1.89852ZM7.74281 3.71485C8.35975 3.74546 8.9041 3.80669 8.94039 3.8475C8.97668 3.88832 9.14604 3.92914 9.31539 3.92914C9.48475 3.92914 9.79926 3.99036 10.017 4.06179C10.2347 4.13322 10.4767 4.16383 10.5493 4.12301C10.6218 4.0822 10.646 4.0924 10.6097 4.15363C10.5251 4.26587 10.767 4.38832 11.0694 4.38832C11.263 4.38832 11.9283 4.91893 12.3275 5.39852C12.5573 5.67403 12.6178 5.85771 12.6057 6.31689C12.5815 7.14342 12.5452 7.3373 12.4364 7.28628C12.388 7.25567 12.3396 7.27608 12.3396 7.3271C12.3396 7.38832 12.1339 7.38832 11.8315 7.3271C10.7186 7.12301 8.96459 6.8475 8.45652 6.79648C8.1662 6.77608 7.92426 6.74546 7.92426 6.73526C7.92426 6.71485 7.4162 6.63322 7.01701 6.60261C6.84765 6.5822 6.64201 6.54138 6.56942 6.50056C6.42426 6.41893 5.68636 6.3475 4.48878 6.27608C3.23072 6.20465 2.78313 5.86791 3.09765 5.22505C3.18233 5.05159 3.23072 4.89852 3.20652 4.89852C3.17023 4.89852 3.38797 4.69444 3.6662 4.43934C3.95652 4.18424 4.28313 3.98016 4.39201 3.98016C4.50088 3.98016 4.60975 3.93934 4.64604 3.88832C4.70652 3.80669 5.66217 3.64342 6.13394 3.62301C6.20652 3.62301 6.31539 3.5822 6.36378 3.54138C6.41217 3.50056 6.48475 3.51077 6.53313 3.56179C6.56942 3.62301 7.11378 3.69444 7.74281 3.71485ZM3.93233 6.8373C3.93233 6.86791 5.86781 7.05159 6.6541 7.0924C6.88394 7.10261 7.16217 7.14342 7.25894 7.17403C7.71862 7.31689 8.44443 7.42914 9.19443 7.46995C9.42426 7.49036 9.6541 7.54138 9.69039 7.5822C9.72668 7.62301 9.94443 7.67403 10.1743 7.69444C10.4041 7.71485 10.7549 7.78628 10.9485 7.85771C11.1541 7.92914 11.3477 7.99036 11.4081 7.98016C11.4565 7.96995 11.4928 8.13322 11.4928 8.3475C11.4928 8.56179 11.5654 8.79648 11.6501 8.86791C11.7589 8.98016 11.7589 9.00057 11.6501 8.93934C11.5049 8.86791 11.4686 8.90873 11.4444 9.20465C11.4323 9.27608 11.396 9.35771 11.3597 9.38832C11.2025 9.50057 11.1178 10.021 11.263 9.93934C11.3477 9.89852 11.263 10.0312 11.0815 10.2353C10.888 10.4393 10.7912 10.6128 10.8396 10.6128C10.9001 10.6128 10.888 10.6536 10.8275 10.6944C10.6339 10.8067 9.61781 11.8679 9.61781 11.9495C9.61781 11.9904 9.56943 12.0618 9.50894 12.1128C9.44846 12.1638 9.43636 12.1434 9.48475 12.0618C9.60572 11.8985 9.37588 11.8985 9.20652 12.072C9.13394 12.1536 8.84362 12.2761 8.56539 12.3475C7.98475 12.5006 7.90007 12.521 7.19846 12.5618C6.6541 12.5924 6.25491 12.7251 6.35168 12.8475C6.37588 12.8985 6.2912 12.9597 6.13394 13.0006C5.86781 13.0516 5.43233 12.7353 5.48072 12.521C5.49281 12.47 5.39604 12.3781 5.27507 12.3169C4.4162 11.8781 3.69039 11.2353 3.50894 10.7659C3.42426 10.5414 3.3033 10.2965 3.23072 10.2251C3.04926 10.0312 3.00088 8.8475 3.14604 8.13322C3.32749 7.26587 3.32749 7.25567 3.42426 7.18424C3.47265 7.14342 3.50894 7.03118 3.50894 6.92914C3.50894 6.81689 3.58152 6.76587 3.72668 6.78628C3.83555 6.80669 3.93233 6.8271 3.93233 6.8373Z" fill="black"/>
<path d="M4.71875 5.1531C4.71875 5.35718 4.77923 5.4082 5.02117 5.4082C5.34778 5.4082 5.42036 5.22453 5.17843 5.02045C4.93649 4.81637 4.71875 4.87759 4.71875 5.1531Z" fill="black"/>
<path d="M6.93235 5.25581C6.62993 5.54153 6.763 5.82724 7.138 5.74561C7.44042 5.67418 7.58558 5.30683 7.36784 5.19459C7.15009 5.08234 7.10171 5.08234 6.93235 5.25581Z" fill="black"/>
<path d="M9.07264 5.61186C8.89119 5.90778 9.00006 6.12206 9.30248 6.05063C9.64119 5.9792 9.70167 5.76492 9.43555 5.56084C9.2299 5.39757 9.20571 5.40778 9.07264 5.61186Z" fill="black"/>
<path d="M11.0098 6.17459C11.0098 6.35826 11.0702 6.42969 11.2517 6.42969C11.4332 6.42969 11.4936 6.35826 11.4936 6.17459C11.4936 5.99091 11.4332 5.91948 11.2517 5.91948C11.0702 5.91948 11.0098 5.99091 11.0098 6.17459Z" fill="black"/>
</svg>
