<svg width="15" height="15" viewBox="0 0 15 15" fill="none" xmlns="http://www.w3.org/2000/svg">
<path d="M7.87804 1.55654C7.8336 1.59452 7.66693 1.64199 7.50026 1.67047C7.22249 1.70844 6.55582 2.17363 6.55582 2.32553C6.55582 2.36351 6.4336 2.5249 6.26693 2.6768C6.11138 2.83819 6.01138 3.02806 6.04471 3.10401C6.08915 3.19895 6.05582 3.20844 5.91137 3.15148C5.24471 2.87617 4.28915 3.60718 4.14471 4.51857C4.10026 4.83186 4.0336 4.93629 3.87804 4.94579C3.57804 4.96477 3.52249 4.97427 3.24471 5.11667C3.10026 5.18313 3.01137 5.25908 3.04471 5.28756C3.07804 5.32553 3.04471 5.41098 2.95582 5.49642C2.57804 5.87617 2.51137 6.48376 2.75582 7.37617C2.85582 7.76541 2.85582 7.7749 2.54471 7.83186C2.32249 7.87933 2.22249 7.95528 2.22249 8.0787C2.22249 8.17363 2.17804 8.25908 2.1336 8.25908C2.02249 8.25908 2.04471 9.08503 2.15582 9.17996C2.18915 9.20844 2.22249 9.36034 2.22249 9.50275C2.22249 9.64515 2.27804 9.79705 2.3336 9.82553C2.40026 9.86351 2.41137 9.92996 2.37804 9.98693C2.31137 10.0724 2.51137 10.4996 2.66693 10.6325C2.70026 10.661 2.78915 10.7939 2.87804 10.9268C2.95582 11.0692 3.14471 11.2401 3.28915 11.3065C3.4336 11.373 3.5336 11.4395 3.50026 11.4679C3.44471 11.5154 4.18915 11.9616 4.32249 11.9616C4.37804 11.9616 4.47804 12.0186 4.54471 12.0945C4.62249 12.1705 4.88915 12.2654 5.14471 12.2939C5.40026 12.3319 5.71137 12.4078 5.8336 12.4648C5.95582 12.5217 6.10026 12.5597 6.15582 12.5502C6.28915 12.5122 6.56693 12.7306 6.54471 12.854C6.51138 13.0819 6.56693 13.1958 6.84471 13.4711C7.17804 13.8129 7.42249 13.8319 8.07804 13.5755C8.41138 13.4521 8.61138 13.2907 8.74471 13.0629C8.84471 12.873 9.01138 12.7116 9.10026 12.7116C9.4336 12.6926 9.50026 12.6736 9.72249 12.5597C9.84471 12.5027 10.1114 12.4363 10.3114 12.4078C10.7225 12.3508 11.678 11.9046 11.8114 11.7053C11.8669 11.6293 12.0114 11.5344 12.1447 11.4869C12.278 11.449 12.5114 11.2021 12.6669 10.9553C12.8225 10.699 13.0114 10.4331 13.0892 10.3572C13.1669 10.2907 13.2003 10.1578 13.1669 10.0819C13.1336 10.0059 13.1558 9.90148 13.2336 9.873C13.6114 9.66414 13.3003 8.25908 12.878 8.25908C12.7892 8.25908 12.778 8.2211 12.878 8.13566C12.9447 8.05971 12.9669 7.97427 12.9225 7.94579C12.8892 7.90781 12.9114 7.87933 12.9892 7.87933C13.078 7.87933 13.1114 7.81287 13.0669 7.73693C13.0336 7.66098 13.0558 7.59452 13.1225 7.59452C13.1892 7.59452 13.1892 7.52806 13.1114 7.40465C13.0336 7.29072 13.0336 7.21477 13.1003 7.21477C13.2447 7.21477 13.1447 6.76857 12.9114 6.4173C12.7003 6.09452 12.4447 5.83819 12.4447 5.94262C12.4447 5.9806 12.3336 5.92363 12.2003 5.80971C11.978 5.63882 11.9447 5.5249 11.9669 5.01224C11.9892 4.39515 11.778 3.79705 11.5447 3.79705C11.4669 3.79705 11.4447 3.76857 11.478 3.7306C11.6003 3.63566 10.8669 3.29389 10.5003 3.28439C10.2225 3.2749 10.1669 3.22743 10.1003 2.95211C10.0003 2.54389 9.76693 2.17363 9.64471 2.24009C9.60026 2.26857 9.55582 2.20211 9.55582 2.09768C9.55582 1.98376 9.51138 1.89832 9.44471 1.89832C9.2336 1.89832 9.16693 1.86984 9.04471 1.72743C8.92249 1.58503 8.00026 1.45211 7.87804 1.55654ZM8.68915 2.2211C8.78915 2.2211 8.85582 2.24009 8.84471 2.25908C8.82249 2.27806 8.92249 2.40148 9.06693 2.53439C9.22249 2.6768 9.31138 2.84768 9.27804 2.91414C9.24471 2.99958 9.27804 3.01857 9.35582 2.9806C9.44471 2.93313 9.45582 2.96161 9.41138 3.06604C9.37804 3.16098 9.38915 3.22743 9.45582 3.22743C9.51138 3.22743 9.47804 3.36984 9.36693 3.53123C9.26693 3.70211 9.18915 3.873 9.20026 3.91098C9.21138 3.95844 9.15582 3.98692 9.06693 3.98692C8.98915 3.98692 8.86693 4.04389 8.80026 4.10085C8.60026 4.3192 7.22249 4.20528 7.22249 3.97743C7.22249 3.92996 7.14471 3.89199 7.0336 3.89199C6.9336 3.89199 6.87804 3.86351 6.92249 3.83503C6.95582 3.80655 6.9336 3.66414 6.87804 3.53123C6.6336 2.99958 7.60026 2.01224 8.22249 2.15465C8.37804 2.18313 8.58915 2.21161 8.68915 2.2211ZM5.94471 3.80655C6.4336 3.92996 7.07804 4.84136 6.67804 4.84136C6.56693 4.84136 6.37804 5.21161 6.42249 5.34452C6.4336 5.39199 6.40026 5.40148 6.3336 5.36351C6.27804 5.33503 6.22249 5.38249 6.22249 5.48692C6.22249 5.61984 6.14471 5.65781 5.90026 5.65781C5.71137 5.65781 5.58915 5.62933 5.61137 5.60085C5.66693 5.53439 5.11137 5.26857 4.97804 5.29705C4.67804 5.35401 4.77804 4.30971 5.11137 4.00591C5.22249 3.90148 5.30026 3.79705 5.26693 3.77806C5.17804 3.70211 5.61137 3.7211 5.94471 3.80655ZM10.9669 4.14832C11.0558 4.27173 11.1669 4.34768 11.2114 4.3287C11.2447 4.30971 11.2669 4.52806 11.2447 4.82237C11.2336 5.12617 11.2114 5.43946 11.2114 5.5249C11.2114 5.61984 11.1558 5.69579 11.1003 5.69579C11.0336 5.69579 11.0225 5.73376 11.0558 5.79072C11.0892 5.83819 10.9892 5.90465 10.8336 5.94262C10.678 5.9711 10.5558 6.02806 10.5558 6.06604C10.5558 6.10401 10.478 6.14199 10.3892 6.14199C10.3003 6.14199 10.2558 6.10401 10.2892 6.06604C10.3114 6.02806 10.278 5.87617 10.2003 5.72427C10.1336 5.58186 10.0669 5.41098 10.0558 5.34452C10.0558 5.28756 9.88915 5.08819 9.68915 4.89832C9.38915 4.61351 9.35582 4.52806 9.45582 4.37617C9.81138 3.89199 10.678 3.75908 10.9669 4.14832ZM8.86693 5.10718C9.06693 5.24009 9.20026 5.36351 9.17804 5.38249C9.14471 5.41098 9.22249 5.51541 9.34471 5.62933C9.45582 5.73376 9.55582 5.90465 9.55582 5.99958C9.55582 6.09452 9.60026 6.17047 9.65582 6.17047C9.77804 6.17047 9.64471 6.70211 9.45582 7.01541C9.34471 7.1768 9.25582 7.21477 9.07804 7.1673C8.94471 7.13882 8.77804 7.10085 8.70026 7.10085C8.62249 7.09136 8.58915 7.05338 8.61138 7.01541C8.64471 6.98693 8.55582 6.92996 8.42249 6.90148C8.28915 6.86351 8.14471 6.89199 8.10026 6.94895C8.05582 7.01541 8.01138 7.00591 7.97804 6.92996C7.94471 6.84452 7.87804 6.85401 7.74471 6.96794C7.64471 7.06287 7.55582 7.09136 7.55582 7.04389C7.55582 6.99642 7.4336 6.97743 7.28915 6.99642C6.75582 7.09136 6.36693 6.54072 6.64471 6.10401C6.72249 5.99009 6.77804 5.85718 6.77804 5.80022C6.77804 5.65781 7.34471 5.16414 7.76693 4.95528C8.17804 4.74642 8.32249 4.76541 8.86693 5.10718ZM4.70026 5.74325C4.80026 5.78123 4.88915 5.84768 4.88915 5.89515C4.88915 5.94262 4.94471 5.9806 5.00026 5.9806C5.1336 5.9806 5.76693 6.55971 5.77804 6.67363C5.77804 6.77806 6.28915 7.40465 6.34471 7.37617C6.36693 7.36667 6.25582 7.4806 6.08915 7.63249C5.91137 7.7749 5.77804 7.93629 5.77804 7.98376C5.77804 8.02174 5.6336 8.19262 5.44471 8.35401C5.2336 8.53439 5.11137 8.59136 5.11137 8.50591C5.11137 8.373 4.52249 8.12617 4.25582 8.13566C4.17804 8.13566 4.14471 8.10718 4.17804 8.05971C4.21137 8.01224 4.16693 7.97427 4.07804 7.97427C3.98915 7.97427 3.8336 7.88882 3.72249 7.78439C3.61137 7.67996 3.55582 7.59452 3.60026 7.59452C3.6336 7.59452 3.58915 7.49009 3.50026 7.36667C3.2336 7.0249 3.25582 6.34136 3.54471 5.94262C3.80026 5.59136 4.08915 5.54389 4.70026 5.74325ZM12.1447 6.5692C12.378 6.7211 12.5558 7.68946 12.3447 7.68946C12.2669 7.68946 12.2336 7.72743 12.2669 7.7749C12.3558 7.88882 11.7669 8.39199 11.5003 8.42996C11.378 8.44895 11.1114 8.5249 10.9114 8.60085C10.5558 8.74325 10.1892 8.72427 10.2447 8.57237C10.2558 8.53439 10.178 8.34452 10.0558 8.16414C9.82249 7.79389 9.82249 7.53756 10.0669 7.33819C10.1558 7.26224 10.278 7.11984 10.3336 7.01541C10.5892 6.60718 11.7447 6.32237 12.1447 6.5692ZM8.51138 7.70844C8.72249 7.76541 8.88915 7.86034 8.88915 7.9173C8.88915 7.96477 8.92249 7.97427 8.96693 7.94579C9.04471 7.86984 9.66693 8.76224 9.66693 8.96161C9.66693 9.02806 9.58915 9.123 9.48915 9.15148C9.40026 9.17996 9.35582 9.25591 9.40026 9.31287C9.44471 9.38882 9.4336 9.39832 9.35582 9.36034C9.27804 9.32237 8.92249 9.55971 8.48915 9.92996C7.86693 10.4616 7.7336 10.5376 7.64471 10.4046C7.46693 10.1293 6.34471 9.03756 6.20026 8.99958C6.12249 8.9711 6.05582 8.8192 6.05582 8.65781C6.05582 8.50591 6.07804 8.373 6.11138 8.38249C6.16693 8.40148 6.61138 8.14515 7.07804 7.82237C7.42249 7.59452 7.98915 7.54705 8.51138 7.70844ZM4.44471 8.8192C4.8336 8.99009 5.2336 9.19895 5.3336 9.30338C5.44471 9.40781 5.57804 9.49325 5.6336 9.49325C5.80026 9.49325 6.91138 10.4901 7.1336 10.8414C7.37804 11.2401 7.38915 11.6578 7.14471 11.8857C6.92249 12.0945 6.71138 12.104 6.18915 11.9141C5.97804 11.8382 5.64471 11.7622 5.46693 11.7527C5.27804 11.7433 5.14471 11.7053 5.17804 11.6673C5.20026 11.6293 5.12249 11.5819 5.00026 11.5534C4.87804 11.5249 4.77804 11.5534 4.76693 11.6103C4.76693 11.6768 4.7336 11.6483 4.68915 11.5629C4.64471 11.4679 4.57804 11.411 4.54471 11.4205C4.44471 11.449 3.27804 10.4141 3.31137 10.3192C3.32249 10.2717 3.24471 10.1293 3.1336 9.98693C2.94471 9.76857 2.80026 9.26541 2.72249 8.61034C2.68915 8.34452 3.57804 8.44895 4.44471 8.8192ZM12.3669 9.01857C12.4114 9.01857 12.4336 8.9806 12.4003 8.94262C12.3669 8.89515 12.4114 8.85718 12.5003 8.85718C12.5892 8.85718 12.6336 8.89515 12.6003 8.94262C12.5669 8.9806 12.5892 9.01857 12.6447 9.01857C12.778 9.01857 12.678 9.49325 12.5114 9.67363C12.4225 9.77806 12.4225 9.79705 12.5225 9.74009C12.6003 9.70212 12.5003 9.94895 12.3003 10.2812C12.1114 10.6135 11.9114 10.8698 11.8669 10.8603C11.8336 10.8414 11.7336 10.9458 11.6447 11.1072C11.5669 11.2591 11.4558 11.392 11.4114 11.392C11.3558 11.392 11.3558 11.3445 11.4003 11.2781C11.4558 11.2116 11.4336 11.2021 11.3447 11.2401C11.2669 11.2876 11.2336 11.373 11.2669 11.449C11.3003 11.5344 11.2669 11.5534 11.1447 11.5154C11.0336 11.4774 10.8892 11.5439 10.7558 11.6863C10.6336 11.8097 10.5669 11.8572 10.6114 11.7907C10.7003 11.6483 10.6447 11.6483 10.2558 11.7812C10.0892 11.8382 9.84471 11.9236 9.72249 11.9616C9.35582 12.0945 8.44471 12.1515 8.44471 12.0565C8.44471 12.0091 8.32249 11.9426 8.17804 11.9046C7.6336 11.7907 8.32249 10.7654 9.42249 10.0439C9.76693 9.81604 10.078 9.60718 10.0892 9.55971C10.1114 9.52174 10.178 9.51224 10.2336 9.55022C10.3336 9.59768 10.378 9.45528 10.3336 9.25591C10.3225 9.19895 10.378 9.20844 10.4558 9.2749C10.5225 9.33186 10.6669 9.36034 10.7669 9.33186C11.0447 9.25591 11.7003 9.01857 11.8892 8.93313C11.978 8.88566 12.1003 8.88566 12.1669 8.93313C12.2225 8.9806 12.3114 9.01857 12.3669 9.01857ZM7.90026 12.5502C8.14471 12.7876 8.14471 12.7781 8.00026 13.0154C7.85582 13.2338 7.3336 13.2622 7.3336 13.0439C7.3336 12.9679 7.27804 12.93 7.22249 12.9584C7.14471 12.9964 7.11138 12.93 7.14471 12.7591C7.17804 12.5407 7.36693 12.3983 7.65582 12.3508C7.67804 12.3414 7.78915 12.4363 7.90026 12.5502Z" fill="currentColor"/>
</svg>
