<svg width="15" height="15" viewBox="0 0 15 15" fill="none" xmlns="http://www.w3.org/2000/svg">
<path d="M6.1076 0.906612C4.43923 1.09789 3.13821 1.84285 2.0974 3.20191C1.3627 4.15829 1.22495 4.45024 0.934132 5.54755C0.811683 6.03077 0.842295 7.23883 0.98005 7.65158C1.02597 7.79252 1.1178 8.03413 1.16372 8.20527C1.53107 9.33279 3.30658 10.3798 5.21985 10.5811L6.30658 10.7019L6.21474 11.5778C6.15352 12.061 6.01576 12.7455 5.89331 13.0979C5.78617 13.4804 5.75556 13.8127 5.83209 13.9033C5.98515 14.1046 6.96474 14.2153 7.57699 14.1046L8.03617 14.0241L7.97495 13.0778C7.94433 12.5543 7.88311 11.9301 7.82189 11.6784C7.63821 10.8731 7.77597 10.722 8.63311 10.6818C11.5107 10.571 13.179 9.17171 13.2096 6.84621C13.2709 3.20191 9.99535 0.473726 6.1076 0.906612ZM8.08209 1.61131C8.41882 1.66165 8.8627 1.80259 9.06168 1.91332C9.27597 2.02406 9.49025 2.08446 9.53617 2.05426C9.58209 2.02406 9.65862 2.09453 9.71985 2.20527C9.76576 2.32608 9.90352 2.41668 9.99536 2.41668C10.1025 2.41668 10.2556 2.50728 10.3321 2.60795C10.4239 2.70863 10.7607 3.10124 11.0821 3.47373C12.2913 4.84285 12.6127 7.26903 11.7556 8.47708C11.0515 9.46366 10.1331 9.90661 8.44944 10.0375C7.39331 10.118 7.40862 10.0778 8.92393 9.07104C9.73515 8.51735 10.0719 8.2254 10.0107 8.11467C9.8576 7.85292 9.55148 7.92339 8.63311 8.45695C8.15862 8.72876 7.69944 8.9603 7.62291 8.9603C7.54638 8.9603 7.53107 8.63816 7.59229 8.24554C7.66882 7.57104 7.73005 7.48044 8.51066 6.79587C9.41372 6.01064 9.68923 5.50728 9.27597 5.40661C9.04638 5.34621 8.26576 5.77909 8.26576 5.97037C8.26576 6.13144 7.50046 6.59453 7.48515 6.44352C7.46984 6.36299 7.45454 6.15158 7.42393 5.9905C7.40862 5.81936 7.37801 5.40661 7.3627 5.05426C7.3474 4.57104 7.28617 4.40997 7.1025 4.35963C6.64331 4.24889 6.50556 4.56097 6.50556 5.61802C6.52087 6.18178 6.50556 6.64487 6.47495 6.64487C6.45964 6.64487 6.03107 6.36299 5.52597 6.02071C4.74536 5.49722 4.57699 5.42675 4.3627 5.53748C3.94944 5.75896 4.1025 5.97037 5.28107 6.74554C6.58209 7.61131 6.6127 7.68178 6.44433 9.15158C6.3525 9.96701 6.33719 9.99722 5.96985 10.0173C5.00556 10.0677 3.27597 9.44352 2.69434 8.82943C2.34229 8.46701 2.37291 8.51735 2.21985 8.0744C2.15862 7.90326 2.05148 7.75225 1.99025 7.75225C1.73005 7.75225 1.83719 5.67842 2.14332 4.93346C2.44944 4.18849 3.03107 3.30259 3.26066 3.24218C3.32189 3.22205 3.3678 3.16165 3.3678 3.10124C3.3678 2.76903 5.15862 1.69185 5.89331 1.59118C6.56678 1.50057 7.53107 1.51064 8.08209 1.61131Z" fill="black"/>
</svg>
