<svg width="15" height="15" viewBox="0 0 15 15" fill="none" xmlns="http://www.w3.org/2000/svg">
<path d="M8.2041 1.47889C8.07759 1.65155 7.89687 1.97529 7.81554 2.2127C7.34567 3.52925 7.21012 3.97169 7.17398 4.26306C7.11976 4.82421 6.98422 5.86018 6.91193 6.30263C6.85771 6.59399 6.86675 6.70191 6.93904 6.64795C6.99326 6.61558 6.97518 6.72349 6.89386 6.90694C6.79446 7.15515 6.78542 7.27385 6.85771 7.38176C6.93 7.48968 6.92097 7.55443 6.82157 7.66234C6.73121 7.74867 6.71314 7.84579 6.77639 7.97529C6.82157 8.0832 6.82157 8.22349 6.76735 8.32061C6.72217 8.40694 6.68603 8.41774 6.68603 8.3422C6.68603 8.27745 6.64085 8.0832 6.58663 7.91054C6.52338 7.74867 6.46916 7.52205 6.46012 7.42493C6.45109 7.31702 6.3788 7.14435 6.29747 7.03644C6.21615 6.92853 6.14386 6.77745 6.14386 6.7127C6.14386 6.63716 6.06253 6.52925 5.97217 6.45371C5.88181 6.38896 5.81856 6.27025 5.84567 6.2055C5.86374 6.12997 5.7553 5.94651 5.60169 5.78464C5.44807 5.63356 5.33964 5.4609 5.36675 5.40694C5.40289 5.35299 5.32157 5.2127 5.19506 5.09399C5.06856 4.97529 4.96916 4.835 4.96916 4.78104C4.96916 4.65155 4.34567 3.93932 4.09265 3.78824C3.81253 3.61558 3.64085 3.63716 3.64988 3.85299C3.66795 4.12277 4.00229 5.07241 4.09265 5.07241C4.1288 5.07241 4.15591 5.16953 4.15591 5.27745C4.15591 5.39615 4.20109 5.52565 4.24627 5.55802C4.30048 5.5904 4.33663 5.7091 4.33663 5.80622C4.33663 5.90335 4.39988 6.12997 4.47217 6.30263C4.54446 6.4645 4.60771 6.65874 4.60771 6.73428C4.60771 6.79903 4.67097 6.99327 4.74326 7.16594C4.82458 7.3386 4.90591 7.65155 4.93301 7.85658C4.96012 8.06162 5.0053 8.3314 5.02338 8.4609C5.04145 8.57961 5.08663 8.92493 5.11374 9.2163L5.16795 9.73428L4.8788 9.37817C4.71615 9.17313 4.5535 9.02205 4.50832 9.04364C4.46314 9.05443 4.42699 9.00047 4.42699 8.92493C4.42699 8.80622 3.69506 8.09399 3.56856 8.09399C3.55048 8.09399 3.3788 7.97529 3.19807 7.82421C2.80048 7.50047 2.56554 7.47889 2.48422 7.77025C2.42097 8.01846 2.76434 8.63356 2.97217 8.63356C3.04446 8.63356 3.07157 8.66594 3.04446 8.7091C3.00832 8.74148 3.04446 8.87097 3.13482 8.97889C3.21615 9.0868 3.25229 9.17313 3.22518 9.17313C3.18904 9.17313 3.26133 9.38896 3.3788 9.65874C3.61374 10.1659 3.90289 11.1264 3.93904 11.4933C3.94807 11.612 3.96615 11.7091 3.97518 11.7091C3.98422 11.7091 4.01133 11.8278 4.03844 11.9789C4.10169 12.389 4.13783 12.5724 4.15591 12.594C4.17398 12.6156 4.19205 12.6695 4.20109 12.7343C4.21012 12.7882 4.23723 12.8746 4.24627 12.9177C4.2553 12.9717 4.26434 13.0364 4.26434 13.0688C4.24627 13.2307 4.70711 13.1228 4.78844 12.9501C4.83362 12.8422 4.86073 12.7451 4.84265 12.7235C4.82458 12.7019 4.78844 12.4753 4.75229 12.2271C4.68 11.558 4.41795 10.5328 4.30048 10.4465C4.24627 10.4033 4.2282 10.3602 4.27338 10.3602C4.30952 10.3602 4.27338 10.1875 4.20109 9.97169C4.02036 9.45371 4.02036 9.44292 4.33663 9.79903C4.49024 9.97169 4.60771 10.1444 4.60771 10.1875C4.60771 10.2199 4.72518 10.4465 4.86976 10.6839C5.0053 10.9105 5.17699 11.3314 5.24024 11.6012C5.3035 11.871 5.37579 12.0868 5.41193 12.0868C5.43904 12.0868 5.47518 12.2163 5.48422 12.3674C5.50229 12.7559 5.69205 12.9501 5.92699 12.8422C6.15289 12.7343 6.14386 12.0328 5.89988 10.0904C5.82759 9.49687 5.74627 8.87097 5.7282 8.7091C5.71012 8.53644 5.66494 8.3422 5.6288 8.27745C5.59265 8.2127 5.55651 8.01846 5.53844 7.835C5.52036 7.66234 5.46615 7.4681 5.42097 7.39256C5.37579 7.31702 5.35771 7.23068 5.39386 7.19831C5.42097 7.15515 5.39386 7.12277 5.32157 7.12277C5.22217 7.12277 5.22217 7.10119 5.33061 7.01486C5.40289 6.9609 5.42097 6.90694 5.36675 6.90694C5.31253 6.90694 5.26735 6.8314 5.26735 6.72349C5.26735 6.47529 5.67398 7.0904 5.7553 7.44651C5.78241 7.59759 5.8547 7.78105 5.90892 7.86738C5.96314 7.95371 5.99928 8.05083 5.99928 8.0832C5.97217 8.23428 6.08061 8.40694 6.17097 8.3422C6.22518 8.30982 6.23422 8.3314 6.19807 8.39615C6.13482 8.51486 6.30651 9.37817 6.41494 9.49687C6.44205 9.52925 6.46916 9.66953 6.4782 9.82061C6.49627 10.2199 6.55952 10.6408 6.61374 10.7487C6.64085 10.8026 6.69506 11.0724 6.72217 11.3638C6.75832 11.6444 6.82157 12.0005 6.87579 12.1623C6.92097 12.3134 6.93904 12.4645 6.91193 12.4969C6.83061 12.594 7.06554 12.8422 7.24627 12.8422C7.39085 12.8422 7.41795 12.7882 7.39085 12.5724C7.36374 12.4213 7.37277 12.3026 7.39988 12.3026C7.43603 12.3026 7.46314 11.2235 7.46314 9.89615C7.47217 7.42493 7.51735 6.05443 7.60771 5.87097C7.63482 5.81702 7.65289 5.54723 7.64386 5.25586C7.63482 4.97529 7.67097 4.74867 7.70711 4.74867C7.75229 4.74867 7.77036 4.67313 7.74326 4.5868C7.70711 4.50047 7.72518 4.40335 7.7794 4.37097C7.82458 4.32781 7.84265 4.26306 7.81554 4.2091C7.75229 4.0904 7.86073 3.77745 7.96012 3.77745C7.99627 3.77745 8.02338 3.90694 8.02338 4.06881C8.0053 4.42493 8.13181 7.03644 8.17699 7.12277C8.18603 7.15515 8.23121 7.68392 8.26735 8.30982C8.3035 8.93572 8.34868 9.48608 8.38482 9.54004C8.45711 9.69112 8.46615 10.1551 8.39386 10.2091C8.35771 10.2307 8.36675 10.4141 8.41193 10.6084C8.45711 10.7918 8.49326 11.148 8.49326 11.3962C8.49326 11.6336 8.52036 11.871 8.56554 11.9141C8.60169 11.9573 8.6288 12.1515 8.6288 12.335C8.6288 12.6048 8.67398 12.6911 8.82759 12.7127C9.00832 12.7451 9.27036 12.4105 9.17097 12.281C9.14386 12.2487 9.18904 12.0113 9.26133 11.7631C9.34265 11.5041 9.38783 11.148 9.36073 10.9861C9.34265 10.8134 9.35169 10.7055 9.39687 10.7379C9.4782 10.7918 9.57759 10.4357 9.57759 10.058C9.57759 9.92853 9.61374 9.73428 9.65892 9.62637C9.78542 9.31342 10.0475 8.38536 10.0927 8.06162C10.1198 7.89975 10.174 7.77025 10.2192 7.77025C10.2643 7.77025 10.2914 7.73788 10.2824 7.68392C10.2553 7.51126 10.7704 6.25946 11.0776 5.75227C11.1951 5.56881 11.2945 5.36378 11.2945 5.29903C11.2945 5.23428 11.3396 5.18033 11.3939 5.18033C11.439 5.18033 11.4661 5.13716 11.439 5.0832C11.3939 5.00766 11.5655 4.85658 11.6921 4.85658C11.7734 4.85658 11.6198 5.40694 11.5113 5.51486C11.439 5.57961 11.3848 5.71989 11.3848 5.81702C11.3848 5.91414 11.3216 6.10838 11.2402 6.23788C11.1589 6.37817 11.1228 6.51845 11.1499 6.55083C11.177 6.59399 11.1408 6.70191 11.0686 6.79903C10.9872 6.90694 10.9059 7.16594 10.8878 7.39256C10.8607 7.61917 10.8065 7.85658 10.7704 7.92133C10.7252 7.98608 10.6981 8.20191 10.6981 8.38536C10.7071 8.57961 10.68 8.74148 10.6529 8.74148C10.5354 8.74148 10.4902 9.2163 10.5987 9.30263C10.671 9.35658 10.671 9.38896 10.6077 9.38896C10.5083 9.38896 10.418 9.82061 10.3366 10.7379C10.3095 10.9753 10.2734 11.2343 10.2553 11.299C10.2372 11.3746 10.2643 11.4393 10.3276 11.4393C10.3908 11.4393 10.3999 11.4717 10.3457 11.5256C10.1921 11.6551 10.2372 12.6372 10.3999 12.7667C10.5987 12.9177 10.8427 12.7882 10.8427 12.5292C10.8427 12.4105 10.924 12.1408 11.0234 11.9249C11.1228 11.7199 11.177 11.5472 11.1408 11.5472C11.1137 11.5472 11.1499 11.4609 11.2222 11.353C11.3035 11.2559 11.421 10.9861 11.4842 10.7595C11.674 10.112 12.6499 8.9681 12.6499 9.39975C12.6499 9.45371 12.6137 9.47529 12.5595 9.44292C12.5143 9.41054 12.4692 9.4645 12.4692 9.5832C12.4692 9.69112 12.4421 9.82061 12.4059 9.86378C12.3427 9.93932 12.1258 10.6084 12.0625 10.9213C12.0445 11.0185 11.9812 11.2019 11.927 11.3314C11.8728 11.4501 11.8186 11.817 11.8095 12.13C11.8005 12.4861 11.7553 12.6911 11.7011 12.6587C11.6559 12.6264 11.674 12.6803 11.7553 12.7882C12.0625 13.1659 12.5595 12.281 12.5595 11.353C12.5595 11.2235 12.6047 11.094 12.6499 11.0616C12.7041 11.0292 12.7402 10.9321 12.7402 10.8566C12.7402 10.7703 12.8306 10.4789 12.939 10.1875C13.0475 9.89615 13.1378 9.63716 13.1469 9.60479C13.1559 9.42133 13.7794 8.02925 13.8878 7.95371C14.0505 7.835 14.0414 7.4573 13.8698 7.38176C13.7161 7.30622 12.7402 7.82421 12.7402 7.97529C12.7402 8.04004 12.686 8.09399 12.6228 8.09399C12.5595 8.09399 12.4421 8.18033 12.3698 8.28824C12.2884 8.40694 12.1439 8.55802 12.0445 8.64435C11.9451 8.73069 11.7372 9.00047 11.5927 9.25946C11.2945 9.75587 11.177 9.7127 11.2131 9.14076C11.2312 8.94651 11.2041 8.71989 11.168 8.64435C11.1137 8.54723 11.1228 8.51486 11.186 8.56881C11.3035 8.65515 11.439 7.9645 11.3396 7.78105C11.3125 7.7163 11.3306 7.66234 11.3758 7.66234C11.43 7.66234 11.4752 7.61917 11.4752 7.56522C11.4752 7.51126 11.5294 7.30622 11.6017 7.11198C11.674 6.90694 11.7192 6.7127 11.7192 6.68033C11.7101 6.63716 11.7643 6.51845 11.8457 6.41054C11.9993 6.2055 12.3155 5.18033 12.2342 5.18033C12.2071 5.18033 12.2523 5.10479 12.3246 5.00766C12.4059 4.92133 12.4421 4.79184 12.4149 4.72709C12.3788 4.66234 12.3878 4.5868 12.433 4.54363C12.668 4.34939 13.2101 2.92493 13.1378 2.67673C13.0655 2.39615 12.9119 2.42853 12.4601 2.82781C12.0625 3.16234 11.177 4.2091 11.2854 4.2091C11.3125 4.2091 11.2493 4.29543 11.1499 4.40335C10.9059 4.64076 10.1017 6.07601 9.89386 6.63716C9.24326 8.42853 9.09868 8.91414 9.09868 9.30263C9.09868 9.73428 8.9541 9.88536 8.93603 9.4645C8.91795 9.06522 8.87277 8.29903 8.81856 7.55443C8.67398 5.66594 8.61073 2.61198 8.70109 1.835C8.77338 1.17673 8.55651 1.02565 8.2041 1.47889Z" fill="currentColor"/>
</svg>
