<svg width="15" height="15" viewBox="0 0 15 15" fill="none" xmlns="http://www.w3.org/2000/svg">
<path d="M11.6954 1.20924C11.6954 1.2632 11.6318 1.27399 11.5555 1.24162C11.3903 1.14449 9.66148 1.52219 9.66148 1.6409C9.66148 1.68406 9.59792 1.72723 9.50894 1.72723C9.43266 1.72723 8.98775 1.96464 8.51741 2.25601C7.74199 2.73083 7.653 2.7632 7.42419 2.62291C6.69961 2.15888 5.31402 2.87111 4.46233 4.14449C4.06826 4.71644 4.03012 4.74881 3.58521 4.72723C3.31826 4.72723 2.97504 4.77039 2.80978 4.84593C2.49199 4.99701 1.9708 5.86032 2.16148 5.91428C2.23775 5.93586 2.2886 6.00061 2.2886 6.05457C2.2886 6.11931 2.23775 6.1409 2.17419 6.10852C2.03436 6.03298 1.91995 6.42147 1.95809 6.85313C1.98351 7.02579 2.00894 7.43586 2.00894 7.74881C2.03436 8.14809 2.0725 8.29917 2.1869 8.24521C2.27589 8.20205 2.2886 8.21284 2.23775 8.29917C1.99622 8.61212 2.92419 10.3495 3.29283 10.274C3.38182 10.2632 3.41995 10.2956 3.38182 10.3495C3.33097 10.4035 3.35639 10.479 3.43266 10.5222C3.55978 10.5869 3.01317 11.3963 2.66995 11.6121C2.51741 11.72 2.51741 11.7632 2.66995 11.9359C2.84792 12.1193 2.84792 12.1301 2.64453 11.9898C2.42843 11.8603 2.35216 11.8927 2.403 12.1193C2.41572 12.1733 2.36487 12.1841 2.31402 12.1517C2.12334 12.0546 1.7547 12.4862 1.80555 12.756C1.88182 13.1985 2.79707 13.0258 2.79707 12.551C2.79707 12.4754 2.84792 12.4107 2.89877 12.4107C2.96233 12.4107 3.08944 12.2812 3.19114 12.1193C3.29283 11.9574 3.54707 11.6553 3.77589 11.4503L4.16995 11.0833L4.79283 11.2884C5.75894 11.6121 8.00894 11.5582 9.28012 11.1805C10.2844 10.8783 11.2759 10.3603 11.225 10.1661C11.1996 10.1013 11.2632 10.069 11.3522 10.0905C11.581 10.1661 12.0132 9.48622 11.7971 9.37831C11.67 9.30277 11.67 9.28119 11.7971 9.28119C12.0386 9.28119 11.975 8.7632 11.6954 8.52579C11.4539 8.32075 11.4539 8.32075 11.7971 8.09414C12.242 7.79198 12.8394 7.015 12.8394 6.72363C12.8394 6.59413 12.8903 6.47543 12.9666 6.45385C13.2716 6.36752 13.1572 5.34234 12.8013 4.94306L12.4581 4.56536L12.725 3.82075C13.0555 2.91428 13.0174 1.6409 12.6615 1.30636C12.4327 1.09054 11.6954 1.02579 11.6954 1.20924ZM12.0386 1.94306C12.0767 2.06176 12.1403 2.15888 12.1911 2.15888C12.3437 2.15888 12.1022 3.56176 11.8479 4.27399L11.6064 4.94306L11.975 5.24521C12.5216 5.67687 12.4327 6.48622 11.7716 7.16608C11.5301 7.42507 11.3522 7.66248 11.3776 7.70565C11.4157 7.73802 11.403 7.74881 11.3649 7.71644C11.314 7.69485 11.1233 7.84593 10.92 8.07255L10.564 8.47183L11.0216 8.78478C11.2632 8.95744 11.4157 9.13011 11.3522 9.16248C11.2886 9.19485 11.0598 9.43227 10.831 9.68047C10.5767 9.95025 10.17 10.22 9.7886 10.3711C9.43266 10.5006 9.153 10.6625 9.153 10.7056C9.153 10.7596 9.11487 10.7812 9.05131 10.7488C9.00046 10.7272 8.59368 10.7704 8.14877 10.8567C7.36063 11.0186 6.01317 11.0078 5.16148 10.8459C4.66572 10.7596 4.61487 10.7272 4.5386 10.4682C4.50046 10.3495 4.52589 10.2848 4.58944 10.3172C4.653 10.3495 4.80555 10.2308 4.93267 10.0474C5.22504 9.59414 5.74622 9.41068 7.2208 9.20565C8.55555 9.03298 8.94961 8.90349 8.8225 8.72003C8.73351 8.60133 6.86487 8.66608 6.24199 8.80637C5.84792 8.90349 7.13182 7.27399 7.55131 7.16608C7.69114 7.1337 7.99622 7.03658 8.19961 6.95025C8.41572 6.87471 9.0386 6.69126 9.59792 6.52939C10.8691 6.18406 11.0471 6.09773 10.8437 5.92507C10.6657 5.77399 9.82673 5.94665 8.60639 6.37831C8.26317 6.49701 7.95809 6.58334 7.93267 6.56176C7.90724 6.54018 8.16148 6.19485 8.49199 5.80637C10.5894 3.30277 10.5513 3.34593 10.1827 3.34593C9.95385 3.34593 9.02589 4.11212 9.02589 4.29557C9.02589 4.34953 8.91148 4.48982 8.77165 4.60852C8.64453 4.73802 8.0725 5.37471 7.51317 6.04378L6.49622 7.24162V5.97903C6.48351 4.80277 6.38182 4.37111 6.14029 4.57615C5.98775 4.69485 5.88605 6.5078 5.98775 7.20924C6.06402 7.77039 6.0386 7.85673 5.73351 8.19126C5.54283 8.39629 5.32673 8.57975 5.23775 8.61212C5.09792 8.6445 4.28436 7.40349 4.39877 7.30637C4.4369 7.28478 4.37334 7.23083 4.27165 7.19845C3.81402 7.04737 3.81402 7.48982 4.28436 8.39629L4.72928 9.28119L4.39877 9.65888C4.20809 9.86392 4.10639 10.0366 4.15724 10.0366C4.28436 10.0366 3.91572 10.2524 3.77589 10.2524C3.71233 10.2524 3.69961 10.2092 3.73775 10.1553C3.77589 10.1013 3.71233 9.99342 3.59792 9.91788C3.39453 9.7668 2.78436 8.70924 2.80978 8.54737C2.8225 8.50421 2.80978 8.45025 2.79707 8.41788C2.74622 8.29917 2.68266 7.46824 2.66995 6.90708C2.66995 6.48622 2.75894 6.17327 2.96233 5.82795C3.28012 5.32075 3.35639 5.29917 4.15724 5.45025C4.60216 5.53658 4.85639 5.25601 4.85639 4.66248C4.85639 4.53298 4.91995 4.42507 4.98351 4.42507C5.05978 4.42507 5.08521 4.34953 5.03436 4.2632C4.99622 4.17687 5.03436 4.11212 5.11063 4.1337C5.19961 4.14449 5.32673 4.05816 5.39029 3.92867C5.68267 3.3891 6.95385 2.96824 7.36063 3.28119C7.61487 3.47543 8.00894 3.41068 8.00894 3.16248C8.00894 3.07615 8.05978 3.03298 8.13605 3.07615C8.19961 3.10852 8.35216 3.05457 8.47927 2.94665C8.60639 2.83874 8.87334 2.68766 9.06402 2.60133C9.2547 2.515 9.50894 2.36392 9.63605 2.2668C9.75046 2.16967 9.92843 2.10493 10.0047 2.12651C10.081 2.14809 10.3606 2.09413 10.6149 2.0078C10.8691 1.91068 11.1233 1.85672 11.1742 1.87831C11.225 1.91068 11.3394 1.8891 11.4411 1.82435C11.7462 1.67327 11.975 1.71644 12.0386 1.94306Z" fill="black"/>
</svg>
