<svg width="15" height="15" viewBox="0 0 15 15" fill="none" xmlns="http://www.w3.org/2000/svg">
<path d="M6.96206 1.16708C6.76641 1.2528 6.55445 1.38137 6.48923 1.43494C6.42402 1.49923 6.29358 1.5528 6.21206 1.5528C6.13054 1.5528 5.91858 1.64923 5.73923 1.76708C5.57619 1.88494 4.98923 2.23851 4.43489 2.55994C3.88054 2.88137 3.42402 3.19208 3.42402 3.24566C3.42402 3.29923 3.24467 3.43851 3.03271 3.54566C2.67402 3.7278 1.67945 4.88494 1.74467 5.03494C1.74467 5.06708 1.64684 5.2278 1.53271 5.38851C1.40228 5.54923 1.33706 5.74208 1.40228 5.80637C1.46749 5.87066 1.45119 5.89208 1.35336 5.85994C1.17402 5.78494 0.92945 6.55637 0.880537 7.39208C0.831624 8.10994 0.978363 8.79565 1.19032 8.70994C1.28815 8.6778 1.30445 8.69923 1.23923 8.76351C1.05988 8.96708 1.32075 9.41708 1.66315 9.49208C1.8588 9.52423 1.94032 9.60994 1.89141 9.71708C1.76097 9.93137 2.75554 10.8207 3.13054 10.8207C3.29358 10.8207 3.40771 10.8742 3.3751 10.9385C3.32619 11.1099 4.74467 11.6457 5.44575 11.7421C6.08162 11.8171 6.09793 11.8492 6.27728 13.0599C6.3588 13.7349 6.55445 13.9278 6.97836 13.7457C7.20662 13.6492 7.25554 13.4885 7.20662 12.7171L7.15771 11.8064L7.77728 11.7314C8.69032 11.6242 9.86423 11.2707 10.2881 10.9707C10.4838 10.8314 10.7447 10.7135 10.8588 10.7135C11.0708 10.7135 11.3316 10.4028 11.2664 10.2314C11.2338 10.1671 11.2664 10.1564 11.3316 10.1992C11.511 10.3171 12.1142 9.88851 11.9838 9.73851C11.9023 9.66351 11.9186 9.63137 12.0164 9.67423C12.1795 9.73851 12.3099 9.64208 12.3751 9.37423C12.4077 9.30994 12.5218 9.19208 12.636 9.09565C12.7664 9.00994 12.8968 8.83851 12.9295 8.72065C12.9621 8.61351 13.0599 8.43137 13.1251 8.31351C13.2066 8.19566 13.174 8.08851 13.0599 8.03494C12.8968 7.98137 12.9131 7.93851 13.0925 7.89566C13.2718 7.8528 13.3371 7.68137 13.3208 7.29566C13.3045 6.99566 13.3697 6.7278 13.4512 6.71708C13.549 6.69566 13.5327 6.60994 13.4186 6.51351C13.3045 6.4278 13.2555 6.32066 13.3045 6.28851C13.7284 6.00994 11.7555 3.04208 11.3316 3.29923C11.2501 3.34208 11.2501 3.32066 11.299 3.25637C11.4458 3.08494 10.7773 2.54923 10.549 2.64565C10.4349 2.6778 10.4023 2.6778 10.4675 2.62423C10.5816 2.54923 9.7338 1.84208 9.3751 1.71351C9.29358 1.68137 9.0001 1.53137 8.73923 1.37066C8.47836 1.20994 8.20119 1.1028 8.11967 1.13494C8.05445 1.16708 7.98923 1.14566 7.98923 1.1028C7.98923 0.952798 7.33706 0.995655 6.96206 1.16708ZM8.10336 1.86351C8.34793 2.01351 8.6088 2.09923 8.69032 2.06708C8.78815 2.03494 8.80445 2.04565 8.75554 2.09923C8.70662 2.16351 9.01641 2.46351 9.45662 2.76351C9.89684 3.07423 10.5001 3.54566 10.7773 3.81351C11.0708 4.07066 11.3642 4.28494 11.4458 4.28494C11.511 4.28494 11.5599 4.31708 11.5436 4.35994C11.4784 4.54208 11.7718 4.9278 11.9349 4.86351C12.049 4.82066 12.0653 4.84208 12.0001 4.91708C11.9349 4.98137 11.9838 5.17423 12.0979 5.33494C12.4077 5.73137 12.4729 7.65994 12.2121 8.27066C11.6577 9.51351 9.97836 10.6278 7.82619 11.1421L7.01097 11.3349V10.9278C7.01097 10.3921 7.19032 9.84565 7.33706 9.90994C7.40228 9.94208 8.2501 9.47065 9.19576 8.87065C10.4186 8.10994 10.8751 7.75637 10.7284 7.7028C10.4838 7.59566 10.0925 7.75637 8.52728 8.59208C7.89141 8.93494 7.32076 9.21351 7.25554 9.21351C7.20662 9.21351 7.19032 8.91351 7.23923 8.53851C7.27184 8.17423 7.32076 7.7028 7.32076 7.48851C7.33706 7.15637 7.5001 6.98494 8.26641 6.47066C9.39141 5.70994 10.1088 5.14208 10.1088 5.02423C10.1088 4.7778 9.60336 4.99208 8.52728 5.69923C7.15771 6.58851 7.25554 6.68494 7.5001 4.67066C7.58162 3.96351 7.59793 3.34208 7.54902 3.29923C7.33706 3.06351 6.86423 3.58851 6.76641 4.16708C6.71749 4.49923 6.63597 4.93851 6.60336 5.14208C6.57076 5.34566 6.53815 5.6778 6.52184 5.87066C6.52184 6.33137 6.39141 6.28851 5.57619 5.6028C5.15228 5.24923 4.79358 5.06708 4.61423 5.0778C4.45119 5.09923 4.35336 5.1528 4.38597 5.20637C4.66315 5.63494 4.79358 5.78494 4.92402 5.78494C4.98923 5.78494 5.05445 5.84923 5.05445 5.93494C5.05445 6.02066 5.21749 6.17066 5.41315 6.25637C5.6088 6.3528 5.72293 6.4278 5.65771 6.4278C5.59249 6.4278 5.78815 6.67423 6.11423 6.98494C6.42402 7.29566 6.61967 7.57423 6.55445 7.60637C6.48923 7.63851 6.40771 7.97065 6.3751 8.35637C6.3588 8.74208 6.30989 9.06351 6.29358 9.08494C6.21206 9.1278 5.49467 8.61351 4.97293 8.1528C4.41858 7.67066 4.07619 7.53137 3.89684 7.72423C3.66858 7.95994 4.54902 8.87065 4.8751 8.73137C4.98923 8.69923 5.00554 8.73137 4.95662 8.8278C4.89141 8.92423 5.15228 9.19208 5.6251 9.52423C6.40771 10.0707 6.44032 10.1992 6.08162 11.0671C6.0001 11.2921 5.46206 11.2278 4.56532 10.8849C3.71749 10.5635 2.69032 9.81351 2.20119 9.15994C1.74467 8.55994 1.71206 6.24566 2.15228 5.95637C2.42945 5.78494 2.46206 5.70994 2.51097 5.32423C2.52728 5.25994 2.57619 5.17423 2.6251 5.14208C2.67402 5.10994 2.91858 4.83137 3.17945 4.52066C3.71749 3.86708 5.05445 2.9028 6.44032 2.1528C7.59793 1.53137 7.56532 1.53137 8.10336 1.86351Z" fill="currentColor"/>
</svg>
