<svg width="15" height="15" viewBox="0 0 15 15" fill="none" xmlns="http://www.w3.org/2000/svg">
<path d="M10.0261 1.68868C9.22532 2.1712 8.79675 2.55931 8.79675 2.79008C8.79675 3.03134 8.65014 2.95791 8.30051 2.51735C8.12006 2.29707 7.92833 2.12924 7.87194 2.16071C7.82683 2.19217 7.78171 2.1712 7.78171 2.10826C7.78171 1.94043 7.36442 1.867 7.1163 1.99287C6.78923 2.15022 6.12382 3.51385 6.03359 4.22714C5.94337 4.91945 5.95465 4.89847 5.59374 4.58378C4.84938 3.95441 4.31931 3.71315 3.87946 3.82854C3.69901 3.88099 3.50728 3.92294 3.45089 3.92294C3.25916 3.94392 2.94337 4.6677 2.8757 5.23413C2.80803 5.82155 2.98848 6.82854 3.22532 7.18518C3.30427 7.30057 3.38322 7.43693 3.3945 7.49987C3.40577 7.55231 3.45089 7.70966 3.50728 7.84602C3.56367 7.98238 3.60878 8.13973 3.60878 8.19217C3.60878 8.24462 3.65389 8.28658 3.71029 8.28658C3.76668 8.28658 3.8569 8.38099 3.89074 8.49637C3.93585 8.61175 4.0148 8.67469 4.08247 8.64322C4.16141 8.60127 4.17269 8.62224 4.12758 8.68518C4.05991 8.79008 4.45465 9.2621 5.22156 9.97539L5.53735 10.2796L5.31179 10.5104C5.08623 10.7306 5.02983 10.8565 5.06367 11.0453C5.07495 11.0978 5.02983 11.1083 4.97344 11.0663C4.86066 11.0139 4.28547 11.7481 4.28547 11.9474C4.28547 11.9999 4.20653 12.0943 4.1163 12.1677C4.0148 12.2411 3.95841 12.367 3.99224 12.4509C4.02607 12.5348 4.0148 12.5663 3.95841 12.5348C3.90201 12.5034 3.81179 12.5768 3.77795 12.7027C3.72156 12.8495 3.7554 12.9649 3.84562 13.0173C4.17269 13.2062 4.36442 13.1013 4.62382 12.6083C4.77044 12.3355 4.98472 11.9894 5.10878 11.8215C5.22156 11.6642 5.28923 11.5383 5.24412 11.5383C5.21029 11.5383 5.23284 11.4754 5.30051 11.402C5.36818 11.339 5.57119 11.0768 5.76292 10.8355L6.08998 10.4055L6.55239 10.6153C6.81179 10.7306 7.1163 10.7936 7.22908 10.7726C7.35314 10.7411 7.44337 10.7621 7.44337 10.8146C7.44337 10.9299 9.99224 10.846 10.184 10.7306C10.2629 10.6887 10.3419 10.6467 10.3757 10.6362C10.793 10.5733 11.5035 10.3215 11.7516 10.1432C13.0486 9.22015 13.308 8.72714 12.7892 8.15022C12.5411 7.87749 11.605 7.3635 11.5374 7.4684C11.5261 7.48938 11.4922 7.4684 11.4471 7.42644C11.402 7.39497 11.5712 7.25861 11.808 7.12224C12.6313 6.68169 13.5674 5.1712 13.308 4.70966C13.1501 4.44742 12.7554 4.30057 12.2366 4.32155C12.0223 4.33203 11.8193 4.31106 11.7968 4.29008C11.7516 4.24812 11.8419 3.71315 12.011 3.04183C12.4283 1.38448 11.5374 0.78658 10.0261 1.68868ZM11.3682 2.48588C11.3569 2.82155 11.2892 3.32504 11.1877 3.61875C11.0975 3.90197 11.0298 4.2691 11.0298 4.43693C11.0298 4.59427 10.9847 4.69917 10.9283 4.6677C10.7817 4.57329 10.8043 4.867 10.9622 5.01385C11.0411 5.08728 11.1539 5.09777 11.278 5.03483C11.5148 4.91945 12.4283 4.867 12.5975 4.96141C12.699 5.01385 12.6877 5.11875 12.5637 5.32854C12.4847 5.48588 12.4058 5.67469 12.4058 5.75861C12.4058 5.83203 12.2704 5.98938 12.1125 6.10476C11.887 6.27259 11.8531 6.34602 11.9772 6.41945C12.09 6.50336 12.09 6.51385 11.9546 6.48238C11.7968 6.44043 11.0862 6.88099 10.5223 7.35301C10.1727 7.64672 10.4434 8.0663 10.9847 8.08728C12.3043 8.13973 12.6313 8.50686 11.9546 9.20966C11.1765 9.99637 9.86818 10.3635 8.08623 10.3111C6.05615 10.2481 6.22532 10.2796 6.34938 9.89148C6.54111 9.31455 6.68773 9.25162 8.21029 9.20966C9.63134 9.15721 9.95841 9.05231 9.68773 8.73763C9.57495 8.62224 7.65765 8.64322 7.25164 8.75861C6.99224 8.84252 7.09374 8.54882 7.53359 8.01385C7.75916 7.72015 8.00728 7.39497 8.06367 7.30057C8.13134 7.19567 8.30051 7.10127 8.45841 7.09078C8.6163 7.0698 8.89826 6.98588 9.07871 6.90197C9.27044 6.80756 9.5975 6.70266 9.81179 6.66071C10.3531 6.55581 10.6125 6.37749 10.4885 6.18868C10.387 6.04183 8.93209 6.38798 8.60502 6.62924C8.2554 6.89148 8.78547 5.92644 9.8569 4.34252C10.0148 4.10127 10.1501 3.88099 10.1501 3.83903C10.1501 3.68169 9.69901 3.79707 9.58623 3.97539C9.52983 4.09078 9.40577 4.23763 9.3381 4.32155C9.07871 4.57329 8.45841 5.43343 8.45841 5.53833C8.45841 5.63273 8.01856 6.05231 7.996 5.9684C7.996 5.94742 7.97344 5.68518 7.93961 5.40197C7.86066 4.69917 7.81555 4.60476 7.61254 4.67819C7.42081 4.75162 7.44337 5.98938 7.64638 6.49287C7.72532 6.70266 7.66893 6.84952 7.30803 7.32155C7.07119 7.64672 6.87946 7.94043 6.87946 7.99287C6.87946 8.04532 6.77795 8.18168 6.66517 8.29707C6.45089 8.51735 6.43961 8.51735 6.03359 7.74113C5.50352 6.74462 5.23284 6.41945 5.08623 6.55581C4.996 6.63973 5.0975 6.90197 5.41329 7.44742C6.29299 8.97889 6.25916 8.88448 6.10126 9.2621C6.02232 9.45092 5.95465 9.66071 5.94337 9.73413C5.93209 9.98588 5.2554 9.34602 4.65765 8.49637C4.43209 8.18168 4.2178 7.89847 4.18397 7.867C3.83435 7.60476 3.36066 5.11875 3.63134 4.9719C3.68773 4.94043 3.69901 4.87749 3.66517 4.83553C3.64262 4.78308 3.67645 4.6677 3.76668 4.5628C3.95841 4.32155 4.24036 4.40546 4.96217 4.94043C5.27795 5.1712 5.58247 5.32854 5.65014 5.29707C5.70653 5.25511 5.74036 5.28658 5.72908 5.34952C5.68397 5.51735 6.02232 5.70616 6.22532 5.63273C6.33811 5.60127 6.47344 5.23413 6.5975 4.64672C6.71029 4.14322 6.90201 3.52434 7.0148 3.27259C7.12758 3.02085 7.2178 2.72714 7.2178 2.61176C7.2178 2.50686 7.2742 2.41245 7.35314 2.41245C7.42081 2.41245 7.45465 2.44392 7.40953 2.47539C7.3757 2.50686 7.49976 2.6642 7.68021 2.80057C7.86066 2.94742 8.08623 3.19917 8.17645 3.35651C8.43585 3.81805 9.03359 3.79707 8.93209 3.33553C8.92081 3.28308 8.95465 3.2621 9.01104 3.28308C9.06743 3.29357 9.25916 3.11525 9.45089 2.88448C9.76668 2.47539 11.0862 1.73064 11.278 1.83553C11.3231 1.867 11.3682 2.16071 11.3682 2.48588Z" fill="black"/>
</svg>
