<svg width="15" height="15" viewBox="0 0 15 15" fill="none" xmlns="http://www.w3.org/2000/svg">
<path d="M10.5146 1.58463C10.0941 1.69101 9.64546 1.79739 9.53331 1.82931C9.42116 1.87186 9.08471 1.95697 8.79032 2.0208C8.50994 2.08463 8.29966 2.18037 8.3277 2.22292C8.36976 2.26548 8.24359 2.30803 8.04733 2.31867C7.58471 2.33995 6.28097 2.91441 5.73424 3.32931C5.48191 3.5208 5.3277 3.6059 5.39779 3.5208C5.60807 3.23356 4.83705 3.71229 4.24826 4.23356C2.73424 5.57399 2.3277 6.93569 3.01462 8.2442C3.40714 8.97824 3.8277 9.42505 4.06602 9.3825C4.15013 9.37186 4.19219 9.40378 4.13611 9.46761C4.08004 9.53144 4.12209 9.65909 4.23424 9.75484C4.33237 9.85058 4.34639 9.90378 4.2763 9.87186C4.15013 9.80803 3.74359 10.6485 3.58938 11.2761C3.57536 11.3612 3.47723 11.6272 3.39312 11.8612C3.19686 12.3931 3.14078 12.9995 3.28097 13.1697C3.42116 13.3399 3.77163 13.3293 3.86976 13.1485C4.02396 12.8293 4.45854 11.1165 4.38845 11.0421C4.36041 10.9889 4.40247 10.957 4.47256 10.957C4.55667 10.957 4.61275 10.9251 4.59873 10.8719C4.58471 10.808 4.6548 10.5634 4.85106 9.99952C4.89312 9.8825 5.08938 9.82931 5.50994 9.81867C6.53331 9.79739 6.64546 9.77612 7.26228 9.62718C9.12677 9.13782 11.4258 7.53143 11.0053 7.01016C10.9492 6.95697 11.0613 6.76548 11.2296 6.57399C11.5099 6.28675 11.552 6.09526 11.566 5.35058C11.566 4.86122 11.5941 4.4676 11.6361 4.4676C11.6782 4.4676 11.7202 4.3825 11.7342 4.27612C11.7342 4.18037 11.7903 3.73356 11.8604 3.29739C11.9165 2.86122 11.9726 2.25484 11.9726 1.96761C11.9866 1.32931 11.7903 1.28675 10.5146 1.58463ZM11.1595 2.59526C11.1455 2.91441 11.1034 3.14846 11.0613 3.12718C11.0193 3.11654 10.9772 3.61654 10.9772 4.2442C10.9772 4.87186 10.9352 5.43569 10.8931 5.49952C10.8511 5.55271 10.7389 5.82931 10.6548 6.11654C10.3604 7.12718 9.91181 7.65909 8.83237 8.29739C8.48191 8.49952 8.17349 8.70165 8.15948 8.7442C8.13144 8.79739 8.06135 8.80803 7.99125 8.77612C7.92116 8.7442 7.79499 8.77612 7.68284 8.85058C7.58471 8.92505 7.40247 9.01016 7.29032 9.03144C7.17817 9.05271 6.77163 9.13782 6.3791 9.21229C5.25761 9.44633 5.15948 9.42505 5.27163 8.95697C5.3277 8.7442 5.38378 8.48888 5.39779 8.40378C5.41181 8.31867 5.59406 7.98888 5.80434 7.68037C6.01462 7.37186 6.14078 7.06335 6.08471 6.99952C6.02864 6.93569 6.04265 6.91441 6.12677 6.94633C6.19686 6.97824 6.40714 6.81867 6.6034 6.58463C7.51462 5.42505 8.3277 4.51016 8.49592 4.43569C8.79032 4.30803 8.73424 4.04207 8.42583 4.04207C7.79499 4.04207 4.68284 7.72292 4.99125 8.1059C5.04733 8.18037 5.03331 8.19101 4.93518 8.14846C4.83705 8.1059 4.7249 8.23356 4.62677 8.49952C4.45854 8.98888 4.23424 9.14846 4.12209 8.86122C4.08004 8.75484 3.93985 8.49952 3.79966 8.29739C3.67349 8.09526 3.54733 7.75484 3.51929 7.54207C3.50527 7.33995 3.46321 7.07399 3.4492 6.95697C3.28097 6.12718 4.97723 4.20165 6.35106 3.65909C6.58938 3.56335 6.70153 3.44633 6.64546 3.37186C6.58938 3.29739 6.58938 3.27612 6.64546 3.31867C6.70153 3.35058 7.17817 3.23356 7.68284 3.03143C8.67817 2.65909 9.05667 2.54207 9.39312 2.48888C9.50527 2.4676 9.92583 2.36122 10.3043 2.2442C10.6969 2.13782 11.0473 2.03144 11.0894 2.03144C11.1314 2.0208 11.1735 2.27612 11.1595 2.59526Z" fill="currentColor"/>
</svg>
