<svg width="15" height="15" viewBox="0 0 15 15" fill="none" xmlns="http://www.w3.org/2000/svg">
<path d="M11.2421 1.03326C10.1664 1.19235 8.89363 1.94235 8.6209 2.60144C8.39363 3.13553 7.83302 4.0219 7.69666 4.06735C7.6209 4.09008 7.57545 4.18099 7.57545 4.26053C7.57545 4.35144 7.43908 4.47644 7.27242 4.54462C6.98454 4.65826 6.96939 4.63553 7.02999 4.23781C7.1209 3.76053 6.84817 2.93099 6.6512 3.0219C6.57545 3.05599 6.54514 3.01053 6.5906 2.93099C6.6209 2.85144 6.49969 2.6469 6.30272 2.47644C5.95423 2.18099 4.99969 1.74917 4.99969 1.88553C4.99969 1.93099 4.90878 1.90826 4.81787 1.84008C4.71181 1.78326 4.19666 1.69235 3.68151 1.6469C2.75726 1.56735 2.72696 1.57871 2.57545 1.87417C2.37848 2.26053 2.37848 2.91962 2.57545 3.01053C2.66635 3.05599 2.69666 3.12417 2.6512 3.18099C2.51484 3.35144 3.1209 4.1469 3.63605 4.46508C4.24211 4.85144 6.06029 5.24917 6.06029 4.98781C6.06029 4.93099 6.13605 4.88553 6.24211 4.88553C6.33302 4.88553 6.36332 4.91962 6.31787 4.96508C6.25726 4.99917 6.33302 5.09008 6.45423 5.16962C6.66635 5.28326 6.66635 5.34008 6.51484 5.55599C6.42393 5.70371 6.37848 5.84008 6.42393 5.87417C6.46939 5.90826 6.39363 6.01053 6.27242 6.10144C5.80272 6.46508 6.37848 8.90826 6.98454 9.06735C7.06029 9.09008 7.1209 9.20372 7.1209 9.32872C7.1209 9.44235 7.21181 9.54462 7.31787 9.54462C7.45423 9.54462 7.45423 9.56735 7.31787 9.63553C7.22696 9.68099 6.98454 9.97644 6.78757 10.2946L6.42393 10.8742L6.07545 10.6696C5.87848 10.5446 5.75726 10.4537 5.80272 10.4537C5.98454 10.4537 5.40878 8.99917 5.0906 8.63553C4.21181 7.63553 1.45423 7.15826 1.0906 7.93099C0.939082 8.26053 1.43908 9.70372 1.66635 9.60144C1.72696 9.56735 1.77242 9.63553 1.75726 9.74917C1.75726 9.85144 1.83302 9.93099 1.93908 9.90826C2.06029 9.8969 2.10575 9.93099 2.04514 9.99917C1.90878 10.1696 2.6209 10.6242 3.30272 10.7833C3.72696 10.8969 4.0906 10.9083 4.5906 10.8287C5.22696 10.7151 5.28757 10.7264 5.43908 10.9764C5.52999 11.1242 5.6512 11.2492 5.72696 11.2492C5.99969 11.2492 5.86332 11.7946 5.45423 12.3287C4.52999 13.5105 4.37848 13.7605 4.46938 13.9878C4.63605 14.3742 5.19666 14.2605 5.48454 13.7605C5.72696 13.3514 5.77242 13.3287 6.31787 13.3514C7.37848 13.3969 8.5906 12.806 8.18151 12.4424C7.98454 12.2605 7.49969 12.2037 7.63605 12.3742C7.71181 12.4537 7.37848 12.5901 6.93908 12.6583C6.89363 12.6583 6.78757 12.7037 6.72696 12.7492C6.66635 12.806 6.49969 12.8401 6.34817 12.8401C6.1209 12.8401 6.1512 12.7492 6.5906 12.1696C6.86332 11.7946 7.13605 11.3742 7.19666 11.2264C7.25726 11.0787 7.36332 10.9083 7.42393 10.8514C7.68151 10.5787 8.04514 9.6469 7.93908 9.53326C7.87848 9.44235 7.89363 9.43099 7.99969 9.47644C8.1209 9.5219 8.18151 9.47644 8.18151 9.35144C8.18151 9.18099 8.30272 9.13553 8.75726 9.13553C9.86332 9.13553 11.2573 8.8969 11.1209 8.73781C11.0754 8.68099 11.1664 8.63553 11.333 8.63553C12.2118 8.63553 12.9391 7.12417 12.3482 6.54462C12.227 6.41962 12.1209 6.36281 12.1209 6.40826C12.1209 6.46508 12.03 6.44235 11.9239 6.37417C11.5603 6.15826 10.6664 6.11281 10.1057 6.29462C9.40878 6.51053 7.92393 7.60144 7.80272 7.98781C7.6512 8.40826 7.51484 8.37417 7.19666 7.85144C7.01484 7.53326 6.95423 7.23781 7.01484 6.85144C7.18151 5.73781 7.36332 5.43099 8.37848 4.59008C8.92393 4.13553 8.96938 4.12417 9.5906 4.21508C11.53 4.48781 12.7421 3.80599 13.5603 1.98781C13.9997 1.03326 13.2724 0.726442 11.2421 1.03326ZM12.8785 1.62417C12.8785 1.81735 12.3633 2.90826 12.227 2.99917C11.53 3.49917 11.1361 3.63553 10.3936 3.63553H9.6209L10.4997 3.03326C11.8633 2.11281 11.5603 1.95371 9.99969 2.78326C9.46938 3.06735 9.01484 3.2719 8.96938 3.24917C8.90878 3.19235 9.36332 2.6469 9.72696 2.34008C9.87848 2.22644 9.93908 2.06735 9.89363 2.01053C9.83302 1.94235 9.89363 1.91962 10.0451 1.96508C10.1815 1.99917 10.333 1.98781 10.3936 1.91962C10.5754 1.69235 12.8785 1.41962 12.8785 1.62417ZM5.02999 2.47644C5.51484 2.62417 6.28757 3.44235 6.40878 3.94235C6.54514 4.46508 6.34817 4.40826 5.52999 3.69235C5.1512 3.35144 4.75726 3.06735 4.68151 3.06735C4.36332 3.06735 4.57545 3.48781 5.1209 3.8969L5.68151 4.35144L5.1209 4.28326C4.34817 4.19235 3.84817 3.8969 3.57545 3.35144C3.39363 2.99917 3.33302 2.30599 3.46938 2.20371C3.51484 2.16962 4.66635 2.37417 5.02999 2.47644ZM11.8179 7.1469C11.8179 7.20372 11.7118 7.30599 11.5906 7.38553C11.4694 7.46508 11.3633 7.62417 11.3633 7.73781C11.3633 7.86281 11.3179 7.94235 11.2573 7.93099C11.1815 7.91962 10.8633 8.03326 10.53 8.19235C10.1967 8.35144 9.57545 8.53326 9.13605 8.60144L8.36332 8.71508L8.49969 8.43099C8.72696 7.97644 9.69666 7.18099 10.3633 6.8969C10.9845 6.63553 10.9845 6.63553 11.4088 6.84008C11.6361 6.96508 11.8179 7.10144 11.8179 7.1469ZM3.36332 8.21508C3.60575 8.22644 3.78757 8.30599 3.78757 8.38553C3.78757 8.46508 4.01484 8.62417 4.28757 8.74917C4.54514 8.87417 4.71181 8.97644 4.6512 8.97644C4.57545 8.97644 4.6209 9.05599 4.74211 9.1469C4.87848 9.23781 4.93908 9.41962 4.89363 9.54462C4.80272 9.78326 4.80272 9.78326 4.40878 9.51053C4.19666 9.36281 3.80272 9.12417 3.52999 8.99917C2.69666 8.56735 2.40878 8.73781 3.1512 9.23781C3.37848 9.3969 3.80272 9.68099 4.0906 9.88553L4.6209 10.2378L4.0906 10.1696C3.27241 10.0446 2.71181 9.76053 2.36332 9.26053C2.19666 9.01053 2.01484 8.79462 1.96938 8.7719C1.90878 8.76053 1.89363 8.60144 1.93908 8.41962C1.98454 8.13553 2.04514 8.10144 2.46938 8.1469C2.74211 8.16962 3.13605 8.20372 3.36332 8.21508Z" fill="currentColor"/>
</svg>
