<svg width="15" height="15" viewBox="0 0 15 15" fill="none" xmlns="http://www.w3.org/2000/svg">
<path d="M5.14266 1.2665C4.68348 1.61757 4.33144 3.10693 4.7447 2.92608C4.83654 2.89416 4.85185 2.93671 4.80593 3.03246C4.71409 3.20267 5.60185 3.88352 6.4896 4.30906C7.04062 4.58565 7.49981 5.9048 7.37736 6.87288C7.33144 7.22395 7.28552 7.72395 7.28552 8.00054C7.27021 8.28778 7.20899 8.51118 7.13246 8.51118C7.07123 8.51118 7.04062 8.69203 7.10185 8.9048C7.17838 9.25586 7.16307 9.27714 7.02532 9.0431C6.32123 7.89416 5.86205 7.43671 5.54062 7.53246C5.38756 7.56437 5.34164 7.5431 5.41817 7.46863C5.78552 7.0431 2.77021 6.25586 2.00491 6.58565C1.59164 6.7665 1.7294 8.0431 2.2345 8.74523C2.64776 9.31969 4.13246 10.0857 4.7447 10.0537C4.86715 10.0431 5.06613 10.0857 5.17327 10.1388C5.26511 10.192 5.57123 10.2133 5.81613 10.1708C6.44368 10.0857 6.50491 10.2452 6.29062 11.2027C6.12225 11.9261 5.99981 12.5537 5.92327 13.0325C5.89266 13.2665 6.50491 13.3942 6.76511 13.2133C6.88756 13.1282 7.28552 11.2771 7.37736 10.3516C7.39266 10.2239 7.45389 10.1388 7.51511 10.1601C7.62225 10.2133 7.9896 9.03246 7.88246 8.95799C7.83654 8.92608 7.88246 8.84097 7.9743 8.75586C8.09674 8.66012 8.09674 8.61757 7.9743 8.61757C7.86715 8.61757 7.85185 8.53246 7.95899 8.34097C8.15797 7.97927 8.15797 7.84097 7.92838 7.93671C7.82123 7.97927 7.85185 7.92608 7.9896 7.80905C8.14266 7.69203 8.28042 7.42608 8.32634 7.20267C8.41817 6.66012 8.46409 6.6282 9.35185 6.55374C10.1784 6.47927 11.3263 6.1814 11.3263 6.0431C11.3263 5.98991 11.4182 5.95799 11.5406 5.95799C11.7702 5.95799 12.2141 5.51118 12.8876 4.57501C13.7141 3.44735 13.3314 2.66012 12.0457 2.83033C11.6937 2.88352 11.3416 2.92608 11.2498 2.93671C10.76 2.96863 10.2702 3.11757 10.3467 3.20267C10.3927 3.25586 10.3161 3.2665 10.1937 3.23459C10.0559 3.20267 9.94879 3.22395 9.94879 3.28778C9.94879 3.35161 9.84164 3.4048 9.71919 3.4048C9.45899 3.4048 8.2345 4.44735 8.34164 4.57501C8.38756 4.61757 8.31103 4.6814 8.18858 4.72395C8.06613 4.75586 7.95899 4.74523 7.94368 4.70267C7.94368 4.66012 7.91307 4.19203 7.89776 3.67076C7.85185 2.55374 7.7294 2.22395 7.25491 1.6814C6.74981 1.1282 6.01511 0.926076 5.52532 1.21331C5.34164 1.29842 5.32634 1.29842 5.41817 1.19203C5.58654 1.00054 5.44879 1.03246 5.14266 1.2665ZM6.87225 2.73459C6.9794 3.07501 7.13246 3.45799 7.20899 3.59629C7.30083 3.75586 7.30083 3.81969 7.19368 3.77714C7.11715 3.74523 7.04062 3.7665 7.04062 3.83033C7.04062 3.89416 6.87225 3.81969 6.67327 3.67076C6.44368 3.50054 6.21409 3.41544 6.10695 3.46863C5.99981 3.51118 5.96919 3.50054 6.01511 3.43671C6.07634 3.37288 5.96919 3.19203 5.80083 3.03246C5.44878 2.72395 5.4794 1.85161 5.84674 1.69203C6.13756 1.56437 6.67327 2.09629 6.87225 2.73459ZM12.2447 3.7665C12.2447 4.1282 11.9386 4.6814 11.6018 4.91544C11.4488 5.02182 11.3263 5.1814 11.3263 5.27714C11.3263 5.36225 11.2651 5.41544 11.1886 5.38352C11.1121 5.35161 10.959 5.39416 10.8518 5.48991C10.6529 5.66012 10.4233 5.73459 9.65797 5.9048L9.29062 5.97927L9.62736 5.6814C10.0712 5.27714 10.7141 4.59629 10.7141 4.52182C10.7141 4.28778 9.93348 4.72395 9.21409 5.36225C9.03042 5.53246 8.84674 5.64948 8.80083 5.61757C8.66307 5.53246 9.04572 4.78778 9.32123 4.59629C9.47429 4.50054 9.71919 4.28778 9.85695 4.1282C10.1325 3.83033 11.0967 3.53246 11.8314 3.52182C12.1682 3.51118 12.2447 3.55374 12.2447 3.7665ZM3.67327 7.23459C4.01001 7.23459 5.26511 7.93671 5.60185 8.31969C6.2294 9.00054 6.2447 9.1282 5.67838 8.79842C4.40797 8.06437 3.45899 8.0431 4.54572 8.77714C4.86715 9.00054 5.29572 9.25586 5.51001 9.35161C6.09164 9.60693 6.09164 9.84097 5.51001 9.6282C5.24981 9.53246 5.05083 9.51118 5.05083 9.57501C5.05083 9.6282 4.9743 9.6814 4.88246 9.6814C4.80593 9.6814 4.76001 9.63884 4.82123 9.58565C4.86715 9.53246 4.77532 9.45799 4.63756 9.42608C4.4845 9.39416 4.16307 9.24523 3.91817 9.09629C3.67328 8.95799 3.39776 8.86225 3.30593 8.9048C3.21409 8.93671 3.18348 8.92608 3.26001 8.88352C3.32123 8.83033 3.26001 8.6814 3.12225 8.53246C2.99981 8.39416 2.84674 8.02182 2.80083 7.71331C2.7243 7.1814 2.7396 7.14948 3.07634 7.10693C3.27532 7.09629 3.4743 7.10693 3.4896 7.14948C3.52021 7.20267 3.61205 7.23459 3.67327 7.23459Z" fill="black"/>
</svg>
