<svg width="15" height="15" viewBox="0 0 15 15" fill="none" xmlns="http://www.w3.org/2000/svg">
<path d="M11.6727 1.71563C9.54112 2.31152 8.43586 3.77043 8.99976 5.27043C9.23661 5.91769 9.25916 5.84577 8.48097 6.65741C8.27796 6.86289 8.00728 7.17111 7.87195 7.34577C7.49976 7.81837 6.8118 8.33207 6.63134 8.27043C6.52984 8.22933 6.48473 8.09577 6.49601 7.90056C6.50728 7.7259 6.47345 7.43823 6.41706 7.26358C6.33811 7.02727 6.36067 6.88344 6.49601 6.68823C6.74413 6.35947 6.82307 5.37316 6.64262 4.98275C6.56367 4.8081 6.51856 4.64371 6.51856 4.59234C6.59751 4.30467 5.18773 3.36974 4.49977 3.24645C4.35315 3.2259 4.10503 3.17453 3.94713 3.14371C2.89826 2.90741 2.50352 3.09234 2.65014 3.77043C2.69525 3.98618 2.74037 4.41769 2.76292 4.7259C2.78548 5.36289 3.22533 6.10262 3.85691 6.57522C4.29676 6.89371 5.33435 7.2533 5.39074 7.08892C5.4133 7.03755 5.48097 6.98618 5.53736 6.98618C5.60503 6.98618 5.62758 7.02727 5.59375 7.06837C5.55992 7.11974 5.62758 7.22248 5.74037 7.31495C5.8757 7.41769 5.96593 7.68481 6.01104 8.11632C6.08999 8.72248 6.06743 8.7944 5.72909 9.28755C5.52608 9.57522 5.32307 9.82179 5.27796 9.84234C5.22157 9.86289 5.18773 9.94508 5.18773 10.0273C5.18773 10.1095 5.14262 10.1608 5.09751 10.1403C4.96217 10.1095 3.83435 11.0547 3.9133 11.1369C3.95841 11.1677 3.9133 11.1985 3.82307 11.1985C3.59751 11.1985 2.59375 12.0615 2.59375 12.2567C2.59375 12.7499 3.31555 12.5033 3.89074 11.8149C4.08247 11.5992 4.2742 11.4143 4.33059 11.404C4.5336 11.404 5.18773 10.9417 5.18773 10.8081C5.18773 10.7362 5.24413 10.7054 5.30052 10.7362C5.44713 10.8184 5.98849 10.428 5.88698 10.3149C5.84187 10.2636 5.85315 10.2533 5.90954 10.2944C5.96593 10.3355 6.21405 10.2738 6.46217 10.1608C6.9133 9.94508 7.84939 9.65741 8.28924 9.58549C9.02232 9.47248 9.90202 9.40056 9.85691 9.46221C9.76668 9.59577 10.4998 9.64714 11.075 9.55467C12.2141 9.35947 13.0712 8.68138 13.1163 7.94166C13.1389 7.58207 13.105 7.55125 12.7441 7.43823C12.2253 7.28412 11.481 7.18138 11.5486 7.27385C11.5712 7.31495 11.4133 7.35604 11.199 7.37659C10.6238 7.40741 9.51856 8.03412 9.6539 8.2396C9.68773 8.2807 9.66518 8.31152 9.60879 8.30125C9.54112 8.2807 9.34939 8.41426 9.16894 8.58892C8.9321 8.83549 8.68398 8.93823 8.12007 9.04097C7.71405 9.11289 7.22909 9.23618 7.02608 9.31837C6.38322 9.55467 6.42834 9.46221 7.30804 8.72248C8.48097 7.7259 8.69525 7.49988 8.61631 7.37659C8.57119 7.31495 8.59375 7.2944 8.65014 7.32522C8.71781 7.36632 8.83059 7.32522 8.90954 7.24303C8.98849 7.16084 9.01104 7.08892 8.95465 7.08892C8.89826 7.08892 8.96593 7.017 9.10127 6.93481C9.23661 6.85262 9.45089 6.61632 9.58623 6.42111C9.76668 6.15399 9.94713 6.04097 10.2968 5.95878C11.3118 5.72248 12.4058 5.08549 12.2366 4.82864C12.2028 4.78755 12.2592 4.71563 12.3607 4.68481C12.4509 4.65399 12.496 4.58207 12.4622 4.52043C12.4283 4.46906 12.4396 4.41769 12.496 4.41769C12.6652 4.41769 13.0825 2.81495 13.0261 2.38344C12.9133 1.47933 12.7554 1.40741 11.6727 1.71563ZM12.4622 2.2807C12.4283 2.35262 12.3832 2.54782 12.3607 2.72248C12.2592 3.3081 12.0562 3.92453 11.8419 4.32522C11.6276 4.70536 10.9171 5.2396 10.6351 5.2396C10.5562 5.2396 10.387 5.33207 10.2629 5.44508C10.0937 5.59919 10.0374 5.60947 10.0374 5.50673C10.0374 5.42453 10.105 5.29097 10.184 5.21906C10.2629 5.14714 10.511 4.77727 10.7479 4.39714C11.4246 3.267 10.8381 3.36974 10.105 4.51015C9.62007 5.27043 9.47345 5.29097 9.47345 4.59234C9.47345 3.90399 9.98097 3.20536 10.8945 2.60947C11.0298 2.52727 11.2554 2.43481 11.402 2.40399C11.5486 2.37317 11.8531 2.31152 12.0674 2.26015C12.2817 2.21906 12.4734 2.17796 12.4847 2.16769C12.496 2.16769 12.4847 2.21906 12.4622 2.2807ZM4.87195 3.93481C4.97345 3.94508 5.04112 3.9759 5.00728 4.017C4.98473 4.0581 5.07495 4.11974 5.22157 4.15056C5.75164 4.28412 6.30428 5.39371 6.1351 5.99988C6.04488 6.35947 5.94337 6.33892 5.72909 5.91769C5.5148 5.52727 4.88322 4.82864 4.72533 4.82864C4.56743 4.82864 4.60127 5.15741 4.78172 5.33207C5.10879 5.67111 5.54864 6.49303 5.44713 6.58549C5.33435 6.68823 4.26292 6.3081 4.19525 6.14371C4.1727 6.09234 4.03736 5.92796 3.89074 5.77385C3.48473 5.33207 3.24789 4.32522 3.37195 3.65741C3.38322 3.63686 3.67646 3.68823 4.03736 3.77043C4.38698 3.85262 4.77044 3.92453 4.87195 3.93481ZM12.4847 7.84919C12.6088 7.96221 11.8193 8.72248 11.4697 8.82522C11.0186 8.94851 9.93586 9.0307 9.87946 8.94851C9.74413 8.76358 10.6802 8.08549 11.3456 7.88001C11.7742 7.75673 12.3607 7.73618 12.4847 7.84919Z" fill="black"/>
</svg>
