<svg width="15" height="15" viewBox="0 0 15 15" fill="none" xmlns="http://www.w3.org/2000/svg">
<path d="M11.7961 1.21145C11.7688 1.25589 11.5233 1.30034 11.2643 1.31145C10.9915 1.32256 10.5824 1.41145 10.337 1.52256C9.88698 1.71145 9.80516 1.73367 9.53243 1.76701C9.46425 1.76701 9.43698 1.82256 9.47789 1.88923C9.5188 1.95589 9.46425 1.96701 9.35516 1.93367C9.23243 1.90034 9.13698 1.91145 9.13698 1.95589C9.13698 2.01145 8.93243 2.16701 8.67334 2.31145C7.14607 3.15589 6.3688 5.17812 7.15971 6.27812C7.39152 6.60034 7.48698 6.84478 7.43243 7.02256C7.39152 7.16701 7.33698 7.36701 7.30971 7.4559C7.28243 7.54478 7.20062 7.7559 7.10516 7.93367C7.02334 8.11145 6.95516 8.33367 6.9688 8.43367C7.03698 9.02256 6.98243 9.01145 6.32789 8.26701C5.71425 7.57812 4.25516 6.73367 3.87334 6.8559C3.76425 6.88923 3.68243 6.8559 3.68243 6.78923C3.68243 6.72256 3.60062 6.70034 3.49153 6.73367C3.38243 6.76701 3.25971 6.74478 3.20516 6.67812C3.16425 6.61145 2.97334 6.5559 2.78243 6.5559C2.30516 6.5559 2.11425 7.00034 2.38698 7.52256C2.49607 7.74478 2.6188 8.03367 2.64607 8.17812C2.74153 8.61145 3.8188 9.94478 3.8188 9.63367C3.8188 9.60034 3.9688 9.68923 4.15971 9.84478C4.36425 10.0115 4.59607 10.1003 4.7188 10.067C4.84153 10.0337 4.88243 10.0559 4.84153 10.1115C4.75971 10.2226 5.34607 10.2781 6.24607 10.2337C6.64152 10.2226 6.68243 10.2448 6.68243 10.5226C6.72334 13.2003 6.87334 13.9337 7.40516 13.867C7.67789 13.8337 7.70516 13.7781 7.65062 13.2781C7.54152 11.9337 7.60971 9.23367 7.75971 8.66701C8.18243 7.20034 8.12789 7.26701 8.93243 6.94478C9.34152 6.78923 9.68243 6.60034 9.68243 6.54478C9.68243 6.47812 9.75062 6.46701 9.8188 6.50034C10.0915 6.63367 11.687 5.32256 11.5097 5.10034C11.4688 5.04478 11.5097 5.00034 11.5779 5.00034C11.6597 5.00034 11.7279 4.92256 11.7279 4.83367C11.7279 4.74478 11.7824 4.66701 11.8643 4.66701C12.0279 4.66701 12.5597 3.22256 12.6143 2.64478C12.6279 2.40034 12.6824 2.17812 12.7233 2.14478C12.7779 2.11145 12.7506 1.98923 12.6688 1.87812C12.5733 1.72256 12.587 1.66701 12.6961 1.66701C12.9415 1.66701 12.4506 1.25589 12.1233 1.18923C11.987 1.15589 11.837 1.16701 11.7961 1.21145ZM11.8233 2.52256C11.7006 3.46701 11.6052 3.78923 11.3188 4.24478C11.1688 4.47812 11.087 4.66701 11.1279 4.66701C11.1688 4.66701 10.8415 4.96701 10.3915 5.33367C9.95516 5.70034 9.62789 6.03367 9.6688 6.07812C9.70971 6.11145 9.68243 6.11145 9.58698 6.06701C9.50516 6.03367 9.2188 6.10034 8.95971 6.22256C8.68698 6.3559 8.44152 6.41145 8.41425 6.36701C8.30516 6.22256 8.79607 5.13367 9.15062 4.74478C9.31425 4.54478 9.58698 4.2559 9.73698 4.07812C9.95516 3.83367 9.9688 3.7559 9.83243 3.63367C9.69607 3.52256 9.54607 3.60034 9.0688 4.03367C8.48243 4.57812 8.34607 4.76701 8.03243 5.43367C7.88243 5.7559 7.84152 5.77812 7.75971 5.60034C7.45971 4.97812 7.88243 3.80034 8.64607 3.18923C8.85062 3.02256 8.97334 2.83367 8.9188 2.7559C8.86425 2.67812 8.87789 2.66701 8.97334 2.71145C9.05516 2.7559 9.3688 2.66701 9.65516 2.51145C10.2279 2.21145 11.237 1.90034 11.6461 1.88923C11.8779 1.88923 11.8915 1.9559 11.8233 2.52256ZM4.10516 7.5559C4.4188 7.73367 4.73243 7.8559 4.81425 7.81145C4.89607 7.76701 4.90971 7.80034 4.85516 7.87812C4.78698 7.96701 4.85516 8.03367 5.03243 8.07812C5.18243 8.11145 5.34607 8.23367 5.38698 8.34478C5.44152 8.4559 5.52334 8.5559 5.59152 8.5559C5.70062 8.5559 6.40971 9.51145 6.40971 9.66701C6.40971 9.71145 6.17789 9.71145 5.90516 9.64478C5.6188 9.58923 5.23698 9.51145 5.04607 9.47812C4.85516 9.44478 4.48698 9.24478 4.21425 9.04478C3.95516 8.83367 3.68243 8.70034 3.61425 8.74478C3.55971 8.80034 3.54607 8.77812 3.60062 8.70034C3.65516 8.62256 3.58698 8.37812 3.45062 8.14478C3.20516 7.72256 3.19153 7.22256 3.42334 7.22256C3.49153 7.22256 3.80516 7.36701 4.10516 7.5559Z" fill="black"/>
</svg>
