<svg width="15" height="15" viewBox="0 0 15 15" fill="none" xmlns="http://www.w3.org/2000/svg">
<path d="M9.9294 1.56195C9.59755 1.77845 5.97365 3.15474 4.4471 3.61866C3.71702 3.85062 2.80109 4.22175 2.41613 4.43824C0.995777 5.25783 0.464803 7.17536 1.02233 9.47948C1.47365 11.3815 3.37188 12.3403 4.97808 11.4589C5.1241 11.3815 5.4825 11.2269 5.77454 11.1187C6.06657 11.0259 7.38073 10.4537 8.69489 9.86608C10.0091 9.27845 11.4029 8.64443 11.7745 8.47433C13.1418 7.85577 13.7126 6.52587 13.4338 4.60835C13.2082 3.09288 12.8099 2.33515 11.9338 1.71659C11.4427 1.36092 10.3409 1.2836 9.9294 1.56195ZM10.6728 2.13412C10.7126 2.21144 10.6728 2.2733 10.5798 2.2733C10.3144 2.2733 9.69047 2.79907 9.69047 3.03103C9.69047 3.32484 9.74356 3.30938 10.3276 2.87639C11.0046 2.35061 11.748 2.21144 11.8675 2.56711C11.9073 2.70628 11.9338 2.84546 11.9206 2.84546C11.894 2.86092 11.6285 3.0001 11.3099 3.1702C10.7657 3.44855 10.3276 3.86608 10.5798 3.86608C10.8852 3.86608 11.5489 3.51041 11.4692 3.3867C11.4294 3.30938 11.4958 3.29391 11.6152 3.34031C11.7214 3.40216 11.9073 3.34031 12.0268 3.23206C12.2922 2.98464 12.6639 3.47948 12.8498 4.37639C12.9825 4.94855 12.9692 4.96402 12.5179 5.18051C12.2524 5.30422 11.9737 5.41247 11.894 5.41247C11.6949 5.41247 11.1506 5.86092 11.1506 6.01556C11.1506 6.09288 11.5356 5.98464 12.0002 5.79907C12.956 5.41247 12.9958 5.41247 12.9029 5.95371C12.863 6.21659 12.7303 6.37123 12.4914 6.43309C11.4161 6.71144 11.0179 6.88154 10.3542 7.28361C9.95595 7.53103 9.39843 7.82484 9.13294 7.94855C8.54887 8.21144 8.44268 8.56711 9.0002 8.41247C9.19932 8.35062 9.83648 8.04134 10.4206 7.7166C11.4427 7.15989 12.4781 6.75783 12.571 6.86608C12.7967 7.12897 10.3807 8.65989 9.75684 8.65989C9.71702 8.65989 9.43825 8.78361 9.11967 8.95371C7.99135 9.54134 5.44268 10.6393 5.44268 10.531C5.44268 10.1754 5.89401 9.7733 6.38516 9.68051C7.00905 9.5568 8.11082 8.95371 7.87188 8.86093C7.77896 8.81453 7.42056 8.89185 7.07542 9.01556C5.74799 9.49495 5.81436 9.52587 5.92056 8.53618C6.01348 7.53103 6.01348 7.54649 6.63737 7.26814C7.23471 7.00525 7.99135 6.35577 7.89843 6.18567C7.85861 6.12381 7.46038 6.29391 7.00905 6.58773C6.01348 7.20629 5.89401 7.22175 5.78781 6.74237C5.74799 6.54134 5.66834 6.26299 5.62852 6.13928C5.54887 5.87639 6.61082 5.41247 7.26126 5.41247C7.65949 5.41247 7.65949 5.10319 7.27454 5.08773C6.71702 5.0568 6.35861 5.11866 5.88073 5.36608C5.41613 5.58257 5.38958 5.58257 5.05772 5.16505C4.87188 4.93309 4.77896 4.79391 4.87188 4.85577C5.00463 4.94855 5.96038 4.63927 7.42056 4.05165C7.72587 3.91247 8.25684 3.5568 8.5887 3.24752C8.90728 2.92278 9.41171 2.59804 9.69047 2.48979C9.9825 2.39701 10.248 2.24237 10.2878 2.16505C10.394 1.97948 10.5798 1.96402 10.6728 2.13412ZM8.09755 3.1702C8.09755 3.32484 7.07542 3.83515 6.53117 3.9434C6.21259 4.00525 5.78781 4.14443 5.60197 4.26814C5.21702 4.5001 4.02233 4.57742 4.38073 4.34546C4.48693 4.26814 4.91171 4.12897 5.30994 4.02072C5.70817 3.91247 6.42498 3.66505 6.90286 3.46402C7.76569 3.10835 8.09755 3.03103 8.09755 3.1702ZM4.24799 5.21144C5.93383 6.35577 5.66834 10.6857 3.88958 11.0723C1.65949 11.5516 0.385157 7.56196 2.1241 5.53618C2.69489 4.85577 3.55772 4.73206 4.24799 5.21144Z" fill="black"/>
<path d="M8.73545 3.89678C8.00536 4.26791 7.88589 4.56172 8.53633 4.40709C9.06731 4.26791 9.70447 3.85038 9.61155 3.68028C9.51863 3.51018 9.46554 3.52564 8.73545 3.89678Z" fill="black"/>
<path d="M11.2826 4.42338C11.0304 4.56256 10.4065 4.79452 9.91539 4.94916C8.97291 5.24297 8.78707 5.35122 8.93309 5.50586C9.14548 5.75328 12.0791 4.62442 12.0791 4.31514C12.0791 4.11411 11.8136 4.1605 11.2826 4.42338Z" fill="black"/>
<path d="M8.99962 6.71056C8.74741 6.91159 8.13679 7.32912 7.65891 7.6384C7.16776 7.96314 6.76953 8.28788 6.76953 8.38067C6.76953 8.61262 7.3005 8.3652 8.34918 7.6384C8.88015 7.26726 9.3713 6.95798 9.4244 6.95798C9.4775 6.95798 9.62351 6.81881 9.75626 6.64871C10.1147 6.18479 9.61024 6.21572 8.99962 6.71056Z" fill="black"/>
<path d="M2.80099 5.86167C1.23461 6.37198 1.80541 10.207 3.45143 10.207C4.80541 10.207 5.24346 7.62456 4.11514 6.31012C3.62399 5.72249 3.4116 5.66064 2.80099 5.86167ZM3.99568 6.58847C4.52665 7.23796 4.51337 8.87713 3.9824 9.55755C3.06647 10.7019 1.76559 8.506 2.38948 6.85136C2.72134 5.95445 3.39833 5.84621 3.99568 6.58847Z" fill="black"/>
<path d="M3.01328 7.08322C2.5885 7.62445 2.73452 8.61414 3.26549 8.93889C3.67699 9.20177 3.87611 8.8461 3.82301 7.94919C3.76991 7.03682 3.37168 6.6193 3.01328 7.08322ZM3.55753 8.02651C3.59735 8.59868 3.5708 8.676 3.35841 8.62961C3.1062 8.58322 2.96018 7.91827 3.1062 7.46981C3.25222 7.03682 3.5177 7.36157 3.55753 8.02651Z" fill="black"/>
</svg>
