<svg width="15" height="15" viewBox="0 0 15 15" fill="none" xmlns="http://www.w3.org/2000/svg">
<path d="M6.06282 1.16266C4.79836 1.60144 3.73224 2.34633 3.00084 3.31572C2.60415 3.85654 2.05869 4.89735 2.18266 4.89735C2.23224 4.89735 2.20745 4.95858 2.14547 5.0198C1.89753 5.27491 1.55043 7.14225 1.56282 8.16266C1.57522 9.33613 2.12067 10.1014 2.95125 10.1014C3.27357 10.1014 3.84381 9.72389 3.84381 9.5096C3.84381 9.38715 3.9182 9.40756 4.19092 9.61164C4.662 9.97899 5.0091 10.0096 5.71572 9.77491C6.05043 9.65246 6.37274 9.59123 6.42233 9.63205C6.63307 9.81572 6.47191 12.081 6.18679 12.9382C5.98844 13.5402 6.11241 13.6116 7.35208 13.632C9.32315 13.6627 9.55869 13.5606 9.31076 12.7851C9.00084 11.7647 8.90167 9.87695 9.162 9.66266C9.26117 9.58103 9.37274 9.61164 9.59588 9.78511C9.96778 10.0708 10.3521 10.1116 10.8108 9.92797C11.2446 9.7545 11.4058 9.7647 11.4058 9.94837C11.4058 10.1423 11.8397 10.2851 12.224 10.2239C14.1207 9.92797 13.6124 4.57082 11.4926 2.58103C11.3562 2.45858 11.1827 2.37695 11.1083 2.41776C11.0339 2.44838 11.0091 2.44838 11.0587 2.39736C11.1083 2.35654 10.9967 2.20348 10.8108 2.05042C9.5215 1.0096 7.55043 0.642253 6.06282 1.16266ZM8.48018 1.65246C8.75291 1.71368 9.1372 1.85654 9.32315 1.95858C9.49671 2.06062 9.68266 2.14225 9.73225 2.14225C9.81902 2.14225 10.0298 2.28511 10.8232 2.91776C12.0876 3.93817 12.9802 7.42797 12.4099 9.15246C12.1 10.0912 11.7901 9.58103 11.7157 8.0096C11.6413 6.45858 11.0959 5.21368 10.662 5.57082C10.5628 5.65246 10.5752 5.88715 10.724 6.38715C11.1455 7.84633 10.9843 9.38715 10.4017 9.38715C10.0422 9.38715 10.005 9.22389 9.98018 7.61164C9.95539 5.66266 9.57109 4.47899 9.08762 4.81572C8.90167 4.93817 8.91406 5.38715 9.12481 6.0198C9.27357 6.45858 9.28596 8.22389 9.1496 8.61164C9.03803 8.88715 8.93886 8.97899 8.72811 8.97899C8.57935 8.97899 8.43059 9.05042 8.38101 9.13205C8.19505 9.54021 8.10828 9.17286 8.13307 8.10144C8.17026 6.87695 8.10828 6.72389 7.61241 6.87695C7.45125 6.92797 7.43886 6.96878 7.57522 7.10144C7.69919 7.22389 7.69919 7.2545 7.55043 7.22389C7.41406 7.20348 7.36448 7.38715 7.31489 8.06062C7.25291 8.84633 7.22811 8.92797 6.99258 8.95858C6.45952 9.0198 6.34795 7.34633 6.76944 5.4994C6.94299 4.71368 6.94299 4.55042 6.80663 4.47899C6.29836 4.22389 5.93886 5.34633 5.86448 7.32593C5.80249 8.86674 5.7777 8.9994 5.54216 9.13205C5.18266 9.34633 4.90993 9.32593 4.6372 9.07082C4.16613 8.64225 4.37687 6.17286 4.97191 5.12184C5.29423 4.54021 5.15786 4.28511 4.67439 4.59123C4.11654 4.95858 3.69505 6.38715 3.69505 7.95858C3.69505 8.72389 3.67026 8.87695 3.49671 8.92797C3.37274 8.94837 3.22398 9.08103 3.162 9.20348C3.00084 9.5096 2.71572 9.4994 2.50497 9.18307C2.34381 8.93817 2.36861 6.60144 2.52977 6.22389C2.56696 6.14225 2.62894 5.93817 2.65373 5.78511C2.74051 5.36674 2.98844 4.7647 3.1372 4.61164C3.19919 4.55042 3.22398 4.48919 3.17439 4.48919C3.05043 4.48919 3.40993 3.96878 3.95539 3.36674C4.69919 2.55042 5.67853 1.94838 6.81902 1.60144C7.14134 1.4994 7.94712 1.53001 8.48018 1.65246ZM8.05869 9.95858C8.08348 9.98919 8.12067 10.3157 8.13307 10.6831C8.14547 11.0504 8.19505 11.4994 8.23225 11.6831C8.28183 11.8667 8.34382 12.2443 8.36861 12.5198L8.43059 13.0096H7.72398H7.00497V12.6525C6.99258 12.4586 7.05456 12.2341 7.11654 12.1627C7.24051 12.0198 7.2901 11.581 7.30249 10.4688L7.31489 9.77491L7.6496 9.84633C7.84795 9.88715 8.0215 9.93817 8.05869 9.95858Z" fill="currentColor"/>
</svg>
