<svg width="15" height="15" viewBox="0 0 15 15" fill="none" xmlns="http://www.w3.org/2000/svg">
<path d="M5.88785 0.785994C3.7336 1.28599 2.15381 2.44314 1.11658 4.28599C0.0952989 6.07171 1.02083 7.24314 3.68572 7.52885C4.93041 7.67171 4.94636 7.71457 4.46764 9.51456C3.82934 11.8717 4.51551 12.8574 6.78147 12.8574C8.88785 12.8574 9.57402 11.986 9.207 9.78599C9.11126 9.22885 9.03147 8.52885 9.03147 8.21457L9.01551 7.64314L10.1166 7.54314C13.8187 7.21457 14.3613 5.25742 11.5368 2.42885C10.1964 1.08599 7.707 0.371708 5.88785 0.785994ZM9.46232 1.78599C11.0102 2.44314 12.6059 4.34314 12.6059 5.50028C12.6059 6.15742 12.1272 6.60028 11.5208 6.51457C7.89849 5.95742 6.57402 5.88599 4.54743 6.15742C1.56338 6.54314 1.43572 6.51457 1.43572 5.54314C1.43572 4.11457 3.3187 2.18599 5.3453 1.52885C6.51019 1.15742 8.24955 1.25742 9.46232 1.78599ZM7.77083 6.68599C8.07402 6.71457 8.12189 6.82885 8.21764 7.52885C8.26551 7.98599 8.40913 8.85742 8.52083 9.48599C8.85594 11.4431 8.58466 12.0717 7.30806 12.2146C6.38253 12.3289 5.90381 12.2003 5.90381 11.8574C5.90381 11.486 5.74424 11.1431 5.55275 11.1431C5.457 11.1431 5.42509 11.3289 5.457 11.5717C5.52083 11.9289 5.48892 11.9717 5.29743 11.8289C4.73892 11.4146 4.83466 10.2574 5.66445 7.04314C5.76019 6.65742 6.19104 6.58599 7.77083 6.68599ZM4.99424 6.94314C4.94636 7.05742 4.80275 7.12885 4.67509 7.08599C4.54743 7.04314 4.18041 7.00028 3.86126 7.00028C3.41445 7.00028 3.33466 6.95742 3.51019 6.85742C3.92509 6.61457 5.10594 6.67171 4.99424 6.94314ZM10.4676 6.88599C10.5793 6.98599 9.07934 7.15742 8.91977 7.05742C8.83998 7.01457 8.77615 6.92885 8.77615 6.84314C8.77615 6.71457 10.3081 6.75742 10.4676 6.88599Z" fill="black"/>
<path d="M4.78687 2.64252C4.53155 2.91395 4.739 3.21395 5.04219 2.98538C5.28155 2.79966 5.34538 2.42824 5.12198 2.42824C5.04219 2.42824 4.89857 2.52824 4.78687 2.64252Z" fill="black"/>
<path d="M3.12739 4.27248C2.95185 4.44391 2.87207 4.65819 2.9359 4.80105C3.03164 5.02962 3.06356 5.01534 3.28696 4.74391C3.65398 4.27248 3.52632 3.87248 3.12739 4.27248Z" fill="black"/>
<path d="M11.0749 4.48571C10.9792 4.72857 11.1069 5 11.3462 5C11.5377 5 11.5377 4.47143 11.3303 4.35714C11.2345 4.31429 11.1228 4.37143 11.0749 4.48571Z" fill="black"/>
</svg>
