<svg width="15" height="15" viewBox="0 0 15 15" fill="none" xmlns="http://www.w3.org/2000/svg">
<path d="M6.20922 1.23295C5.487 1.46177 4.58422 2.2499 4.58422 2.66939C4.58422 2.87278 4.51477 2.91092 4.20922 2.84736C3.15366 2.65668 1.84811 3.966 2.00089 5.0338C2.05644 5.45329 2.01477 5.60583 1.80644 5.7838C0.806441 6.62278 1.58422 8.77109 2.88977 8.77109C3.18144 8.77109 3.40366 8.89821 3.737 9.27956C4.30644 9.92787 5.00089 10.1185 5.83422 9.8516C6.15366 9.7499 6.487 9.66092 6.55644 9.66092C6.737 9.66092 6.57033 11.1863 6.30644 11.8601C5.97311 12.7245 6.19533 13.0169 6.79255 12.4702C7.07033 12.216 7.07033 12.216 7.112 12.4957C7.19533 13.0296 7.57033 12.8135 7.58422 12.2287C7.59811 11.5423 7.72311 11.4279 7.83422 11.9999C8.01477 12.9024 8.70922 12.9279 8.54255 12.0253C8.30644 10.7287 8.26477 10.3474 8.30644 10.1567C8.34811 9.91516 9.04255 9.76261 9.987 9.78804C11.2231 9.80075 12.0703 9.26685 12.2787 8.31346C12.3342 8.08465 12.5009 7.80499 12.6676 7.67787C13.5287 6.95329 13.5842 5.89821 12.8064 5.21177C12.3481 4.8177 12.2787 4.70329 12.3898 4.43634C12.8203 3.36854 11.5426 2.11007 10.237 2.33888C9.862 2.40244 9.76478 2.36431 9.65366 2.13549C9.237 1.2838 7.50089 0.826172 6.20922 1.23295ZM8.33422 1.75414C8.59811 1.86854 8.97311 2.18634 9.15366 2.44058C9.47311 2.89821 9.50089 2.91092 10.1676 2.83465C10.9731 2.74566 11.4592 2.93634 11.7509 3.47024C11.987 3.87702 11.9037 4.47448 11.5842 4.716C11.3203 4.91939 11.3342 5.21177 11.6398 5.21177C12.1953 5.21177 12.7787 5.69482 12.7787 6.16516C12.7787 6.7499 12.4314 7.34736 12.0287 7.4999C11.7648 7.58888 11.6953 7.70329 11.6953 8.07193C11.6953 8.97448 10.7648 9.4321 9.59811 9.08888C9.45922 9.05075 9.26478 9.1016 9.16755 9.216C8.987 9.41939 8.52866 9.47024 8.41755 9.30499C8.37589 9.24143 8.487 8.93634 8.66755 8.63126C9.01478 8.0338 9.22311 7.9321 10.3203 7.8177C11.1676 7.716 11.1259 7.44905 10.237 7.39821L9.59811 7.36007L9.94533 6.90244C10.4592 6.19058 10.2648 5.80922 9.69533 6.44482C8.95922 7.24566 8.01477 8.13549 7.94533 8.07193C7.90366 8.0338 7.84811 7.76685 7.82033 7.46177C7.77866 6.99143 7.83422 6.8516 8.40366 6.22871C8.75089 5.84736 9.02866 5.44058 9.02866 5.31346C9.02866 4.89397 8.76477 4.95753 8.43144 5.42787C7.75089 6.41939 7.63977 6.38126 7.63977 5.21177C7.63977 4.29651 7.612 4.1821 7.40366 4.22024C7.22311 4.24566 7.13977 4.42363 7.08422 4.83041C7.00089 5.47871 6.862 5.50414 6.15366 5.00838C5.19533 4.34736 5.12589 4.85583 6.08422 5.55499C6.97311 6.216 7.12589 6.52109 6.862 7.15668C6.76477 7.41092 5.75089 7.04227 4.97311 6.47024C4.22311 5.93634 3.76477 6.1016 4.44533 6.67363C4.82033 6.97871 4.79255 7.05499 4.30644 7.24566C3.76477 7.44905 3.737 7.8177 4.27866 7.69058C5.47311 7.42363 6.20922 7.62702 6.55644 8.33888C6.77866 8.7838 6.59811 8.9999 5.80644 9.29227C4.87589 9.62278 3.862 9.216 4.00089 8.55499C4.04255 8.38973 3.54255 8.21177 3.33422 8.32617C3.26477 8.36431 2.95922 8.28804 2.65366 8.14821C1.70922 7.70329 1.57033 6.59736 2.37589 5.96177C2.75089 5.65668 2.77866 5.59312 2.62589 5.30075C2.237 4.52532 3.01477 3.38126 3.91755 3.39397C4.16755 3.39397 4.50089 3.41939 4.63977 3.44482C4.84811 3.48295 4.93144 3.40668 5.01477 3.08888C5.29255 1.83041 6.987 1.15668 8.33422 1.75414Z" fill="currentColor"/>
<path d="M5.14062 12.0245C5.14062 12.3296 5.40451 12.7109 5.62674 12.7109C5.86285 12.7109 5.89062 12.533 5.69618 12.2152C5.51562 11.8974 5.14062 11.7703 5.14062 12.0245Z" fill="currentColor"/>
<path d="M9.0842 12.2779C8.7092 12.7991 9.07031 13.0152 9.51475 12.5195C9.93142 12.0491 9.94531 11.9474 9.5842 11.9474C9.43142 11.9474 9.2092 12.0873 9.0842 12.2779Z" fill="currentColor"/>
<path d="M4.1113 12.3043C4.01408 12.4441 4.18074 12.6475 4.54185 12.8255C4.9863 13.0416 5.12519 12.7365 4.70852 12.4441C4.33352 12.1772 4.22241 12.1518 4.1113 12.3043Z" fill="currentColor"/>
<path d="M10.0434 12.5199C10.0017 12.6343 10.0017 12.7614 10.0573 12.7996C10.1823 12.9267 10.8628 12.5962 10.7656 12.4564C10.6267 12.253 10.1406 12.3038 10.0434 12.5199Z" fill="currentColor"/>
</svg>
