<svg width="15" height="15" viewBox="0 0 15 15" fill="none" xmlns="http://www.w3.org/2000/svg">
<path d="M6.4788 1.40508C5.7351 1.59427 5.16787 1.99968 4.91577 2.48616C4.77712 2.76995 4.65107 2.83751 4.2351 2.83751C3.31493 2.83751 2.63426 3.48616 2.60905 4.39157C2.59644 4.71589 2.50821 4.87805 2.2435 5.04022C1.22249 5.67535 1.2477 7.60778 2.26871 8.17535C2.483 8.29697 2.72249 8.58076 2.82333 8.83751C3.13846 9.66184 4.38636 10.2835 4.85275 9.86454C5.10485 9.64832 4.87796 9.324 4.55023 9.41859C4.41157 9.45914 4.10905 9.37805 3.85695 9.25643C3.42838 9.04022 3.35275 8.89157 3.25191 8.18886C3.2267 8.0267 3.06283 7.87805 2.84854 7.824C1.7267 7.49968 1.68888 5.70238 2.79812 5.28346C3.15107 5.14832 3.16367 5.10778 3.08804 4.6213C2.94938 3.74292 3.56703 3.26995 4.7267 3.36454C4.90317 3.37805 5.11745 3.18887 5.39476 2.76995C5.83594 2.09427 6.05022 1.97265 7.00821 1.824C7.77712 1.71589 8.28132 1.93211 8.70989 2.55373C8.93678 2.87805 9.03762 2.93211 9.25191 2.83751C10.4116 2.36454 11.3443 2.89157 11.3443 4.0267C11.3443 4.58076 11.5208 4.86454 11.8485 4.86454C12.5292 4.86454 12.8569 6.24292 12.3401 6.93211C12.1385 7.21589 12.1006 7.39157 12.1763 7.78346C12.3275 8.64832 11.6343 9.33751 10.7771 9.14832C10.5628 9.10778 10.3864 9.18886 10.1973 9.40508C9.70569 9.97265 8.69728 9.824 8.69728 9.18886C8.69728 8.49968 9.65527 7.91859 10.4494 8.14832C10.9284 8.28346 11.3443 8.21589 11.3443 7.99968C11.3443 7.93211 11.1301 7.824 10.878 7.75643C10.2855 7.60778 10.2855 7.45914 10.8527 7.05373C11.3696 6.67535 11.4578 6.48616 11.0922 6.48616C10.7645 6.48616 10.1847 6.79697 9.95779 7.09427C9.63006 7.51319 8.44518 7.89157 8.44518 7.56724C8.44518 7.49968 8.55863 7.10778 8.69728 6.70238L8.96199 5.95914L9.86955 5.64832C10.462 5.44562 10.7771 5.26995 10.7771 5.13481C10.7771 5.01319 10.6889 4.94562 10.525 4.97265C9.35275 5.18887 9.45359 5.20238 9.57964 4.72941C9.70569 4.25643 9.61745 3.87805 9.40317 3.95914C9.32754 3.98616 9.18888 4.29697 9.10065 4.63481C8.89896 5.39157 8.81073 5.4186 8.4956 4.79697C8.36955 4.54022 8.21829 4.324 8.18048 4.324C7.9788 4.324 7.9788 4.72941 8.18048 5.14832L8.39476 5.60778L7.90317 6.64832C7.62586 7.22941 7.37375 7.70238 7.32333 7.70238C7.10905 7.70238 6.94518 7.09427 6.85695 6.05373C6.78132 4.99968 6.79392 4.87805 7.10905 4.21589C7.29812 3.824 7.41157 3.44562 7.36115 3.36454C7.2477 3.16184 6.71829 3.72941 6.61745 4.16184L6.52922 4.5267L6.27712 4.14832C6.13846 3.94562 5.94938 3.78346 5.84854 3.78346C5.60905 3.78346 5.62165 3.824 5.9872 4.56724C6.32754 5.24292 6.42838 6.16184 6.15107 6.0267C6.06283 5.98616 5.87375 5.90508 5.7351 5.85103C5.59644 5.79697 5.18048 5.59427 4.81493 5.37805C4.43678 5.17535 4.08384 4.99968 4.02081 4.99968C3.78132 4.99968 3.91997 5.39157 4.2477 5.67535C4.66367 6.0267 4.4872 6.26995 3.84434 6.25643C3.36535 6.24292 3.13846 6.44562 3.41577 6.63481C3.71829 6.83751 4.33594 6.76995 4.71409 6.49968C5.39476 6.01319 6.06283 6.63481 5.94938 7.64832C5.87375 8.36454 5.63426 8.35103 4.26031 7.59427C4.19728 7.56724 4.15947 7.66184 4.15947 7.81049C4.15947 8.09427 4.90317 8.78346 5.21829 8.78346C5.65947 8.78346 5.83594 9.20238 5.7477 10.0537C5.60905 11.5267 5.10485 12.2159 3.71829 12.8105C3.50401 12.9051 3.26451 13.1078 3.17628 13.2564C2.93678 13.6618 3.28972 13.7294 3.94518 13.3916C4.58804 13.0537 5.16787 13.0132 5.16787 13.297C5.16787 13.4051 5.11745 13.5402 5.04182 13.5808C4.85275 13.7024 4.89056 14.0537 5.09224 14.0537C5.18048 14.0537 5.47039 13.8916 5.7351 13.7024C6.50401 13.1483 6.95779 13.1348 7.46199 13.6348C8.13006 14.3105 8.68468 14.1754 8.2435 13.4456C8.13006 13.2564 8.09224 13.1078 8.14266 13.1078C8.30653 13.1078 9.10065 13.4321 9.41577 13.6213C9.93258 13.9321 10.2729 13.7835 9.93258 13.3916C9.79392 13.2429 9.81913 13.2159 10.0838 13.297C10.8401 13.4997 11.3443 13.5402 11.3443 13.4051C11.3443 13.1754 10.7141 12.7159 10.1595 12.5402C9.27712 12.2699 8.69728 11.4997 8.69728 10.5808C8.69728 10.2159 8.70989 10.2024 9.34014 10.2564C9.83174 10.2835 10.0712 10.2294 10.3233 10.0402C10.4998 9.89157 10.9284 9.74292 11.2561 9.70238C12.1637 9.59427 12.8065 8.75643 12.7183 7.81049C12.7057 7.63481 12.7939 7.26995 12.9074 6.99968C13.3233 5.97265 13.0082 4.72941 12.2393 4.4186C11.9368 4.29697 11.8611 4.18887 11.8107 3.68887C11.7099 2.66184 10.878 2.06724 9.75611 2.20238C9.32754 2.24292 9.16367 2.20238 8.9872 1.99968C8.45779 1.36454 7.4872 1.13481 6.4788 1.40508ZM6.35275 11.3645C6.08804 12.1618 5.70989 12.6348 5.94938 11.8781C6.02501 11.6213 6.13846 11.351 6.18888 11.2699C6.25191 11.1889 6.26451 11.0943 6.2393 11.0537C6.20149 11.0132 6.2393 10.8105 6.31493 10.5943C6.57964 9.91859 6.60485 10.6078 6.35275 11.3645Z" fill="currentColor"/>
</svg>
