<svg width="15" height="15" viewBox="0 0 15 15" fill="none" xmlns="http://www.w3.org/2000/svg">
<path d="M9.5853 1.64647C8.79958 2.05424 8.64244 2.50569 8.6853 4.2387C8.69958 5.11249 8.67101 5.82608 8.62815 5.82608C8.39958 5.82608 6.99958 4.47171 6.99958 4.25327C6.9853 3.77268 6.45672 2.79696 6.14244 2.69501C5.95672 2.63676 5.69958 2.69501 5.47101 2.84065C5.12815 3.07365 5.11387 3.14647 5.1853 3.91832C5.31387 5.36006 5.87101 6.19016 7.12815 6.75812C7.84244 7.09307 7.85672 7.28239 7.19958 7.83579C6.45672 8.462 5.74244 8.63676 4.29958 8.52026C2.8853 8.41831 2.34244 8.65132 1.82815 9.61249C0.956725 11.229 2.41387 12.9038 4.64244 12.8746C5.84244 12.8601 6.41387 12.6125 7.44244 11.7241C8.2853 10.996 8.59958 10.9377 9.42815 11.3601C10.4853 11.9135 11.5853 11.6805 12.3424 10.7775C12.7424 10.2824 12.8139 9.91831 12.5424 9.64162C12.3282 9.42317 11.5424 9.40861 11.3282 9.62705C11.1282 9.83094 9.14244 9.64162 9.14244 9.40861C9.14244 9.30666 9.35672 8.97171 9.62815 8.65132C9.8853 8.3455 10.1996 7.87948 10.3282 7.64647C10.5139 7.26783 10.671 7.16589 11.4282 7.02026C12.871 6.71443 13.771 5.57851 13.2853 4.64647C13.0567 4.22414 12.3282 4.28239 11.971 4.73385C11.5567 5.27268 10.8567 5.6222 10.6996 5.36006C10.4996 5.05424 10.5567 3.91832 10.7853 3.21929C11.2139 1.99598 10.5424 1.13676 9.5853 1.64647ZM10.171 3.23385C10.0853 3.74356 10.0567 4.44259 10.0996 4.77754C10.2567 6.13191 10.0424 6.91831 9.09958 8.36006C8.61387 9.08822 8.12815 9.86006 8.01387 10.0785C7.89958 10.297 7.67101 10.6173 7.49958 10.7775L7.17101 11.0834L7.02815 10.6465C6.91387 10.3406 6.77101 10.195 6.5853 10.195C6.21387 10.195 6.19958 10.3698 6.57101 10.7047C6.94244 11.0542 6.92815 11.1562 6.44244 11.6659C5.92815 12.1902 5.77101 12.1902 5.65672 11.7241C5.59958 11.5203 5.47101 11.3601 5.35672 11.3601C5.09958 11.3601 5.09958 11.4329 5.2853 11.797C5.49958 12.2047 5.02815 12.4086 4.1853 12.2921C2.42815 12.0591 1.59958 10.6756 2.55672 9.58336L2.97101 9.10278H4.67101C6.31387 9.08822 6.37101 9.08822 7.1853 8.60764C8.69958 7.71929 9.17101 6.78725 9.15672 4.70472C9.14244 3.11734 9.31387 2.49113 9.81387 2.19987C10.2424 1.9523 10.3424 2.25812 10.171 3.23385ZM6.39958 4.22414C6.61387 4.86492 6.79958 5.12705 7.37101 5.56395C8.07101 6.11734 8.41387 6.61249 8.22815 6.80181C8.17101 6.86006 8.07101 6.83094 8.01387 6.72899C7.95672 6.62705 7.62815 6.39404 7.27101 6.20472C6.15672 5.59307 5.44244 4.26783 5.77101 3.40861C5.89958 3.04453 6.09958 3.2921 6.39958 4.22414ZM12.8567 5.24356C12.8567 5.78239 11.6853 6.55424 10.871 6.55424C10.5139 6.55424 10.7567 6.10278 11.2282 5.8989C11.5139 5.78239 11.9282 5.52026 12.171 5.31637C12.6853 4.87948 12.8567 4.85035 12.8567 5.24356ZM10.1424 10.2096C10.6139 10.3115 10.9567 10.3115 11.3996 10.1805C12.1996 9.962 12.3282 10.1222 11.7424 10.6465C11.171 11.1707 10.5424 11.1999 9.42815 10.7484C8.47101 10.3552 8.52815 10.3989 8.64244 10.2096C8.75672 10.0057 9.31387 10.0057 10.1424 10.2096Z" fill="black"/>
<path d="M7.51438 9.23398C7.85723 9.71457 8.1858 9.74369 8.01438 9.27767C7.95723 9.10291 7.75723 8.92816 7.57152 8.91359C7.25723 8.85534 7.25723 8.85534 7.51438 9.23398Z" fill="black"/>
<path d="M4.71484 10.1959C4.71484 10.4289 4.77199 10.6328 4.84342 10.6328C5.01484 10.6328 5.18627 10.094 5.07199 9.90466C4.90056 9.61339 4.71484 9.75903 4.71484 10.1959Z" fill="black"/>
<path d="M2.85742 10.5307C2.85742 10.9239 3.21456 11.4773 3.35742 11.3316C3.41456 11.2734 3.41456 10.9967 3.37171 10.7054C3.25742 10.1229 2.85742 9.99183 2.85742 10.5307Z" fill="black"/>
</svg>
