<svg width="15" height="15" viewBox="0 0 15 15" fill="none" xmlns="http://www.w3.org/2000/svg">
<path d="M7.38008 1.23979C6.88008 1.36942 6.6387 2.33239 6.96629 2.86942C7.12146 3.12868 7.32836 3.33239 7.4318 3.33239C7.53525 3.33239 7.58698 3.62868 7.55249 4.01757C7.50077 4.62868 7.44905 4.72128 7.01801 4.75831C6.74215 4.77683 6.41456 4.88794 6.27663 5.01757C5.86284 5.38794 5.96629 3.96202 6.39732 3.49905C7.10422 2.73979 6.29387 1.35091 5.25939 1.55461C3.81111 1.85091 3.53525 4.07313 4.94905 4.07313C5.38008 4.07313 5.44905 4.4435 5.60422 7.22128C5.65594 8.29535 5.74215 9.4435 5.79387 9.77683C5.86284 10.2028 5.82836 10.3694 5.70767 10.2768C5.60422 10.2213 5.51801 9.9435 5.51801 9.66572C5.51801 9.38794 5.29387 8.46202 5.01801 7.59165C4.6387 6.38794 4.56974 5.9435 4.69043 5.62868C5.27663 4.25831 3.4318 3.27683 2.77663 4.61016C2.27663 5.57313 2.69043 6.48054 3.62146 6.48054C4.19043 6.48054 4.82836 8.46202 5.3456 11.7954C5.44905 12.5361 5.62146 13.2028 5.72491 13.2583C6.15594 13.5361 6.24215 12.8694 6.24215 9.79535C6.22491 7.49905 6.27663 6.66572 6.41456 6.81387C6.53525 6.9435 6.58698 8.07313 6.56974 10.0731C6.53525 13.2028 6.56974 13.5731 6.94905 13.4065C7.10422 13.3509 7.1387 12.5176 7.10422 10.0916C7.06974 7.92498 7.10422 6.85091 7.22491 6.85091C7.3456 6.85091 7.4318 8.01757 7.44905 10.1287C7.51801 14.5731 7.82836 14.3509 7.89732 9.81387C8.00077 3.9435 8.06974 3.33239 8.58698 3.33239C9.36284 3.33239 9.65594 2.20276 9.05249 1.55461C8.65594 1.12868 8.12146 1.03609 7.38008 1.23979ZM8.58698 1.88794C8.70767 2.01757 8.79387 2.25831 8.79387 2.46202C8.79387 2.96202 7.53525 2.85091 7.44905 2.33239C7.3456 1.75831 8.15594 1.42498 8.58698 1.88794ZM6.00077 2.83239C5.9318 3.35091 5.1387 3.68424 4.75939 3.35091C4.44905 3.07313 4.70767 2.27683 5.15594 2.16572C5.62146 2.05461 6.05249 2.38794 6.00077 2.83239ZM4.20767 4.79535C4.46629 5.23979 3.56974 6.12868 3.22491 5.75831C2.94905 5.46202 3.36284 4.62868 3.77663 4.62868C3.96629 4.62868 4.15594 4.70276 4.20767 4.79535ZM7.41456 5.73979C7.41456 6.20276 6.98353 6.40646 6.6387 6.11016C6.29387 5.81387 6.51801 5.36942 7.00077 5.36942C7.29387 5.36942 7.41456 5.48054 7.41456 5.73979Z" fill="currentColor"/>
<path d="M9.99989 2.25803C9.5861 2.73952 9.55162 3.38766 9.91368 3.70248C10.3447 4.07285 10.2068 4.25803 9.51713 4.25803C8.48265 4.25803 7.75851 5.59137 8.55162 6.07285C8.793 6.221 8.793 6.35063 8.55162 7.51729C8.0861 9.721 8.13782 12.8136 8.63782 13.4062C8.89644 13.721 9.46541 11.2951 9.99989 7.6284C10.1033 6.94322 10.2585 6.1284 10.3447 5.83211C10.4309 5.51729 10.5516 5.05433 10.6033 4.75803C10.6723 4.35063 10.793 4.25803 11.2068 4.25803C11.9137 4.25803 12.4827 3.6284 12.3275 2.99877C12.0861 1.88766 10.7068 1.44322 9.99989 2.25803ZM11.5689 2.79507C12.0689 3.33211 11.6723 3.79507 10.862 3.60989C10.2413 3.46174 10.0344 3.09137 10.3447 2.68396C10.6551 2.29507 11.1378 2.33211 11.5689 2.79507ZM9.82748 5.09137C10.1033 5.44322 9.89644 5.73951 9.39644 5.73951C9.17231 5.73951 8.93093 5.64692 8.8792 5.55433C8.74127 5.31359 9.10334 4.81359 9.39644 4.81359C9.51713 4.81359 9.70679 4.94322 9.82748 5.09137ZM9.22403 9.05433C8.96541 10.8136 8.60334 11.9617 8.62058 11.0173C8.63782 10.1469 8.94817 7.98026 9.13782 7.221C9.51713 5.86914 9.55162 6.86914 9.22403 9.05433Z" fill="currentColor"/>
<path d="M11.363 4.83178C11.0871 5.12807 11.0354 5.3503 11.1044 5.81326C11.1906 6.2577 11.0871 6.68363 10.7078 7.51696C10.1906 8.60956 9.39749 12.3688 9.51818 13.1836C9.60439 13.7947 10.1734 13.1096 10.1734 12.3873C10.1734 10.2207 11.4492 6.66511 12.2423 6.66511C13.294 6.66511 13.863 5.44289 13.1389 4.7577C12.6906 4.31326 11.794 4.36881 11.363 4.83178ZM12.7251 5.22067C13.2423 5.77622 12.7078 6.23918 11.9837 5.88733C11.7423 5.77622 11.5527 5.62807 11.5527 5.554C11.5527 5.33178 11.9665 4.99844 12.2423 4.99844C12.3975 4.99844 12.6044 5.09104 12.7251 5.22067Z" fill="currentColor"/>
</svg>
