<svg width="15" height="15" viewBox="0 0 15 15" fill="none" xmlns="http://www.w3.org/2000/svg">
<path d="M5.74073 1.92504C1.66073 3.27689 0.740727 7.92504 4.32073 9.1843C4.96073 9.40652 5.18073 9.57319 5.12073 9.79541C4.42073 12.0547 5.46073 13.5176 7.62073 13.2769C9.44073 13.0732 10.0807 12.2584 9.82073 10.4806C9.66073 9.42504 9.88073 9.07319 10.7407 9.07319C11.0607 9.07319 12.2607 8.05467 12.4407 7.62874C12.7607 6.90652 12.6607 5.53615 12.2207 4.62874C11.0807 2.27689 8.26073 1.11022 5.74073 1.92504ZM9.42073 2.81393C11.1007 3.4806 12.5007 6.1843 11.8007 7.40652C11.0607 8.66578 7.02073 9.33245 4.70073 8.57319C2.42073 7.81393 2.18073 5.62874 4.18073 3.64726C5.50073 2.31393 7.36073 2.01763 9.42073 2.81393ZM9.14073 10.5176C9.36073 12.0176 8.82073 12.5917 7.22073 12.5917C5.88073 12.5917 5.38073 11.8139 5.72073 10.2213C5.84073 9.64726 5.86073 9.64726 7.28073 9.59171C8.96073 9.51763 9.00073 9.55467 9.14073 10.5176Z" fill="black"/>
</svg>
