<svg width="15" height="15" viewBox="0 0 15 15" fill="none" xmlns="http://www.w3.org/2000/svg">
<path d="M6.35357 1.83398C4.04181 2.26732 1.95946 4.33398 1.90651 6.23398C1.88887 7.55065 2.75357 8.13398 4.43004 7.93398C5.41828 7.80065 5.41828 7.78398 4.94181 9.16732C4.09475 11.684 4.74769 12.834 7.05946 12.834C8.48887 12.834 9.24769 12.4507 9.49475 11.6173C9.67122 11.0507 9.60063 10.584 9.15946 8.88398C8.89475 7.80065 8.89475 7.78398 9.97122 8.08398C11.2065 8.43398 11.6124 8.40065 12.1948 7.85065C12.83 7.23398 12.9183 5.88398 12.3712 4.86732C11.3477 2.95065 8.34769 1.45065 6.35357 1.83398ZM9.35357 2.93398C11.5595 4.06732 12.7771 6.33398 11.7889 7.45065C11.4889 7.78398 10.3948 7.70065 9.2124 7.25065C7.95946 6.76732 6.8124 6.71732 5.54181 7.08398C2.47122 7.96732 1.48299 6.40065 3.63593 4.03398C5.13593 2.38398 7.4124 1.93398 9.35357 2.93398ZM8.48887 8.33398C8.54181 8.75065 8.70063 9.55065 8.82416 10.1173C9.14181 11.4673 8.94769 11.9173 7.90652 12.1673C6.88299 12.434 5.8771 12.2173 5.40063 11.6173C5.04769 11.1507 5.04769 11.1507 5.36534 10.034C5.54181 9.41732 5.73593 8.68398 5.78887 8.41732C5.93004 7.60065 6.12416 7.48398 7.30652 7.53398L8.38299 7.58398L8.48887 8.33398Z" fill="currentColor"/>
<path d="M6.2663 3.31745C4.97806 3.70078 4.36042 4.91745 5.18983 5.41745C5.64865 5.70078 7.11336 5.45078 7.69571 4.98411C8.18983 4.60078 7.83689 3.33411 7.23689 3.33411C7.14865 3.33411 6.98983 3.30078 6.84865 3.26745C6.72512 3.23411 6.46042 3.25078 6.2663 3.31745Z" fill="currentColor"/>
<path d="M9.60057 5.3C8.89469 5.73333 9.47704 7 10.3947 7C11.3476 7 11.5947 6.26667 10.8535 5.58333C10.43 5.16667 9.97116 5.06667 9.60057 5.3Z" fill="currentColor"/>
</svg>
