<svg width="15" height="15" viewBox="0 0 15 15" fill="none" xmlns="http://www.w3.org/2000/svg">
<path d="M5.36989 1.49903C2.92544 2.33035 1.07359 4.30023 1.05507 6.12553C1.03655 7.6436 1.6847 8.14963 4.03655 8.43878C5.03655 8.54722 5.03655 8.54722 4.92544 9.10746C4.53655 11.2219 4.55507 11.5111 5.14766 12.0894C5.86989 12.7942 7.25878 12.8846 8.25878 12.2701C9.01803 11.8183 9.14766 11.3665 9.01803 9.83035L8.92544 8.67372L9.981 8.65565C12.0736 8.63758 13.0366 7.91469 13.0366 6.37854C13.0366 4.62553 11.7403 2.76409 9.90692 1.8424C8.83285 1.30023 6.481 1.11951 5.36989 1.49903ZM9.481 2.38457C11.5736 3.25204 13.0736 6.19782 12.0551 7.42674L11.7217 7.8424L11.5736 7.39059C10.8143 4.96891 5.05507 4.53517 2.64766 6.72192C2.09211 7.24601 2.07359 7.26409 1.86989 6.90264C1.31433 5.89059 2.16618 4.13758 3.75877 3.03517C5.53655 1.78818 7.51803 1.57131 9.481 2.38457ZM6.66618 6.32433C6.66618 6.52312 6.53655 6.68577 6.3884 6.68577C6.24026 6.68577 6.03655 6.52312 5.92544 6.32433C5.75877 5.99903 5.77729 5.96288 6.20322 5.96288C6.53655 5.96288 6.66618 6.05324 6.66618 6.32433ZM7.96248 6.03517C7.96248 6.07131 7.90692 6.23397 7.85137 6.39662C7.6847 6.81228 7.22174 6.75806 7.22174 6.32433C7.22174 6.08939 7.35137 5.96288 7.59211 5.96288C7.79581 5.96288 7.96248 5.99903 7.96248 6.03517ZM5.3884 6.83035C5.03655 6.93878 4.36989 6.48698 4.64766 6.30625C4.81433 6.21589 5.01803 6.27011 5.24026 6.46891C5.42544 6.63156 5.49952 6.79421 5.3884 6.83035ZM9.33285 6.37854C9.62915 6.59541 9.61063 6.63156 8.99952 6.81228C8.27729 7.02915 8.24026 7.01107 8.51803 6.48698C8.75878 6.08939 8.8884 6.05324 9.33285 6.37854ZM5.01803 7.67975C4.99952 7.77011 4.86989 7.8424 4.72174 7.8424C4.57359 7.82433 4.22174 7.80625 3.94396 7.78818C3.03655 7.75204 2.79581 7.46288 3.29581 7.04722C3.72174 6.70384 3.74026 6.70384 4.3884 7.10144C4.74026 7.3183 5.01803 7.57131 5.01803 7.67975ZM10.8143 7.26409C11.1106 7.73397 10.7403 7.96891 9.70322 8.00505C8.59211 8.04119 8.481 7.69782 9.44396 7.22794C10.2217 6.84842 10.5366 6.84842 10.8143 7.26409ZM7.90692 7.46288C7.94396 7.5171 8.11063 8.33035 8.29581 9.27011L8.59211 11.005L8.16618 11.4569C7.59211 12.0532 6.85137 12.1978 6.03655 11.8544C5.20322 11.5111 5.16618 11.3123 5.59211 8.96288C5.79581 7.86047 5.94396 7.49903 6.22174 7.39059C6.55507 7.24601 7.74026 7.30023 7.90692 7.46288Z" fill="currentColor"/>
</svg>
