<svg width="15" height="15" viewBox="0 0 15 15" fill="none" xmlns="http://www.w3.org/2000/svg">
<path d="M5.03366 1.27865C2.40866 1.88976 0.316556 4.96384 1.54024 6.4268C1.85603 6.83421 3.7705 7.59347 4.44156 7.59347C4.85603 7.59347 4.81656 8.31569 4.34287 9.48235C3.49419 11.5749 4.10603 13.4638 5.66524 13.5379C8.40866 13.6861 9.47445 12.5564 8.94155 10.0935C8.48761 8.07495 8.56655 7.77865 9.43498 7.77865C11.8823 7.77865 13.0666 5.96384 11.9416 3.90828C10.7771 1.72309 7.8955 0.630502 5.03366 1.27865ZM8.94155 2.14902C10.6587 2.98235 11.6258 4.18606 11.6455 5.50087C11.6455 6.55643 11.1126 6.70458 9.11919 6.18606C7.10603 5.66754 5.54682 5.6305 3.80998 6.03791C2.34945 6.37124 1.97445 6.22309 1.97445 5.29717C1.97445 2.79717 6.25734 0.871243 8.94155 2.14902ZM7.99419 6.70458C8.0534 6.74161 8.11261 8.00087 8.13234 9.50087C8.19155 12.5935 8.13234 12.7601 6.69156 12.9083C4.69813 13.0749 4.24419 12.2601 4.99419 9.77865C5.29024 8.81569 5.52708 7.68606 5.52708 7.24161V6.4268L6.73103 6.53791C7.38234 6.59347 7.95471 6.66754 7.99419 6.70458Z" fill="black"/>
</svg>
