<svg width="15" height="15" viewBox="0 0 15 15" fill="none" xmlns="http://www.w3.org/2000/svg">
<path d="M5.17036 1.55259C3.01904 2.35492 2.74273 2.54678 2.07167 3.71538C1.44009 4.8491 1.44009 5.26771 2.15062 5.96538C2.64404 6.45376 2.86115 6.52352 3.92694 6.59329C5.50588 6.69794 5.54536 6.80259 4.55852 8.68631C3.1572 11.3724 3.59141 12.5758 5.95983 12.5584C7.34141 12.541 7.97299 11.8782 8.17036 10.1689C8.32825 8.91306 8.64404 8.02352 8.92036 8.02352C9.01904 8.02352 9.35457 8.1805 9.65062 8.35492C10.144 8.66887 10.7164 8.79096 11.4861 8.73864C12.0388 8.70376 13.1835 7.70957 13.4204 7.04678C13.6177 6.54096 13.5783 6.24445 13.223 5.1805C12.4138 2.84329 11.9204 2.30259 10.2625 2.02352C9.88746 1.9712 9.35457 1.70957 9.05852 1.46538C8.19009 0.732825 7.30194 0.750267 5.17036 1.55259ZM8.44667 1.88399C9.13746 2.49445 9.76904 2.79097 10.3611 2.79097C11.2098 2.79097 11.6835 3.31422 12.2954 4.90143C12.7296 6.01771 12.769 6.3491 12.6111 6.87236C12.2361 8.07585 10.973 8.3898 9.76904 7.57003C9.1572 7.16887 8.82167 7.08166 7.91378 7.06422C6.96641 7.06422 6.69009 6.97701 5.9993 6.48864C5.32825 6.01771 5.05194 5.9305 4.2822 5.94794C2.74273 6.00027 2.11115 5.26771 2.74273 4.11655C3.31509 3.07003 3.82825 2.7212 5.52562 2.12817C7.26246 1.51771 7.95325 1.44794 8.44667 1.88399ZM7.30194 7.7619C7.85457 7.79678 7.83483 7.72701 7.51904 9.75027C7.22299 11.4945 6.94667 11.8607 5.84141 11.8607C4.34141 11.8607 4.16378 11.2677 5.09141 9.33166C5.4072 8.65143 5.72299 7.9712 5.80194 7.79678C5.88088 7.55259 6.01904 7.50027 6.35457 7.60492C6.61115 7.67469 7.02562 7.7619 7.30194 7.7619Z" fill="black"/>
<path d="M6.43332 2.82625C6.19648 3.10532 5.92016 3.20997 5.38727 3.22742C4.30174 3.22742 4.36095 3.73323 5.44648 3.803C6.03858 3.83788 6.33464 3.76811 6.61095 3.48904C7.12411 2.98323 7.34122 3.053 8.07148 3.85532C8.68332 4.51811 8.782 4.553 9.65043 4.50067C10.5188 4.44835 10.5583 4.46579 10.5583 4.90183C10.5781 5.16346 10.736 5.56462 10.9136 5.80881C11.0912 6.07044 11.2491 6.31462 11.2491 6.36695C11.2491 6.55881 10.4794 6.43672 10.2228 6.20997C9.67016 5.73904 8.62411 5.37276 8.01227 5.45997C7.55832 5.52974 7.12411 5.39021 6.29516 4.95416C5.1899 4.37858 4.67674 4.25649 4.0649 4.46579C3.47279 4.67509 3.70964 5.05881 4.4399 5.05881C4.89385 5.05881 5.407 5.23323 5.95964 5.58207C6.61095 6.00067 6.96622 6.10532 7.79516 6.10532C8.62411 6.10532 8.95964 6.20997 9.59121 6.62858C10.4004 7.16928 11.2688 7.30881 11.5846 6.92509C11.9991 6.4716 11.9991 6.12276 11.6241 5.68672C11.3675 5.39021 11.2688 5.11114 11.3478 4.86695C11.5649 4.27393 10.9531 3.83788 9.86753 3.83788C9.03858 3.83788 8.88069 3.76811 8.28858 3.14021C7.53858 2.33788 6.88727 2.23323 6.43332 2.82625Z" fill="black"/>
<path d="M6.23678 9.26136C5.9802 9.8195 6.01967 10.3951 6.33546 10.5695C6.55257 10.6741 6.63151 10.4648 6.78941 9.45322C6.92757 8.58112 6.61178 8.45903 6.23678 9.26136Z" fill="black"/>
<path d="M5.03198 10.6402C4.89382 11.0065 5.03198 11.3379 5.34777 11.3379C5.44645 11.3379 5.5254 11.0937 5.5254 10.8146C5.5254 10.2216 5.22935 10.117 5.03198 10.6402Z" fill="black"/>
</svg>
