<svg width="15" height="15" viewBox="0 0 15 15" fill="none" xmlns="http://www.w3.org/2000/svg">
<path d="M8.33686 0.969892C8.31031 1.0005 7.92535 1.03112 7.50057 1.04132C6.66429 1.07193 6.51827 1.20459 6.57137 1.83724C6.58464 1.9801 6.63774 2.57193 6.70411 3.15357L6.81031 4.21479L6.22624 3.89846C5.84128 3.68418 5.4165 3.55153 4.99172 3.52091C4.62004 3.4801 4.27491 3.42908 4.22181 3.40867C4.03597 3.31683 2.82801 3.46989 2.57579 3.61275C2.01827 3.92908 3.46518 4.85765 4.81916 5.05153C5.28376 5.12295 5.50942 5.30663 5.13774 5.30663C4.8988 5.30663 3.46518 6.08214 3.05367 6.43928C2.54925 6.86785 2.31031 7.42908 2.54925 7.62295C2.76164 7.77602 3.83686 7.64336 4.22181 7.41887C4.30146 7.36785 4.3811 7.35765 4.3811 7.38826C4.3811 7.54132 5.36341 7.04132 6.23951 6.44948C6.83686 6.06173 6.88995 6.12295 6.83686 7.15357C6.81031 7.51071 6.77048 8.9801 6.73066 10.4087C6.70411 11.8372 6.65102 13.1332 6.61119 13.2862C6.57137 13.4597 6.61119 13.6127 6.71739 13.6842C6.92978 13.8168 8.66872 13.8576 9.21296 13.7454L9.59792 13.6638L9.505 12.8781C9.4519 12.4495 9.38553 10.5719 9.34571 8.72499C9.29261 5.4903 9.29261 5.36785 9.51827 5.56173C10.4077 6.32704 12.12 6.93928 13.3944 6.93928C13.7528 6.93928 13.8059 6.90867 13.8059 6.66377C13.8059 6.08214 12.9165 5.34744 11.3369 4.63316C11.1112 4.53112 11.1245 4.51071 11.5227 4.34744C12.3192 4.03112 13.4342 3.05153 13.8324 2.31683C13.9121 2.17397 13.474 2.04132 12.89 2.04132C12.0404 2.04132 9.82358 3.02091 10.0492 3.29642C10.0891 3.35765 10.0625 3.36785 9.98287 3.32704C9.82358 3.25561 9.30588 3.71479 9.26606 3.96989C9.19969 4.52091 9.10677 3.05153 9.15987 2.31683C9.19969 1.82704 9.19969 1.37806 9.18641 1.32704C9.13332 1.20459 8.4165 0.908668 8.33686 0.969892ZM8.29703 1.65357C8.36341 1.69438 8.38995 2.40867 8.37668 3.28622L8.36341 4.08214H7.97845C7.55367 4.08214 7.4342 3.84744 7.4342 2.96989C7.4342 2.71479 7.3811 2.32704 7.31473 2.11275C7.20854 1.76581 7.22181 1.71479 7.47402 1.64336C7.72624 1.56173 8.20411 1.57193 8.29703 1.65357ZM12.4784 2.84744C12.4519 3.19438 10.2218 4.33724 10.2218 4.00051C10.2218 3.86785 11.3103 3.10255 11.7351 2.93928C12.12 2.78622 12.4784 2.7454 12.4784 2.84744ZM5.4165 4.28622C5.65544 4.39846 5.92093 4.45969 6.00057 4.42908C6.09349 4.37806 6.10677 4.40867 6.0404 4.4903C5.85456 4.71479 3.71739 4.31683 3.71739 4.05153C3.71739 3.89846 4.8988 4.06173 5.4165 4.28622ZM8.54925 5.66377C8.50942 7.7454 8.53597 7.64336 8.15102 7.71479C7.63332 7.81683 7.56695 7.68418 7.55367 6.42908C7.52712 4.53112 7.4873 4.67397 8.07137 4.71479L8.56252 4.7454L8.54925 5.66377ZM11.2439 5.37806C11.7484 5.55153 12.6112 6.09234 12.6112 6.2352C12.6112 6.34744 11.7351 6.06173 11.0581 5.7352C10.1023 5.26581 10.2351 5.03112 11.2439 5.37806ZM5.62889 6.03112C4.81916 6.69438 3.53155 7.16377 3.67756 6.7454C3.71739 6.62295 3.81031 6.53112 3.88995 6.53112C3.9696 6.53112 4.14217 6.44948 4.28818 6.34744C4.59349 6.14336 5.56252 5.7454 5.82801 5.725C5.94748 5.725 5.86783 5.83724 5.62889 6.03112ZM8.5227 9.30663C8.4696 10.5923 8.4696 10.5821 8.005 10.5719L7.63332 10.5617L7.56695 9.45969C7.4873 8.19438 7.46075 8.26581 8.08464 8.26581H8.57579L8.5227 9.30663ZM8.64217 12.1944C8.72181 13.225 8.68199 13.276 7.8988 13.2454C7.50057 13.225 7.3811 13.174 7.40765 13.0617C7.4342 12.9801 7.47402 12.5617 7.4873 12.1332C7.5404 11.1842 7.58022 11.1332 8.12447 11.2148L8.56252 11.2862L8.64217 12.1944Z" fill="black"/>
</svg>
