<svg width="15" height="15" viewBox="0 0 15 15" fill="none" xmlns="http://www.w3.org/2000/svg">
<path d="M7.06409 1.94164C6.34897 2.31222 5.89549 2.80634 5.68618 3.45928C5.54665 3.91811 6.12223 4.71222 6.68037 4.80046C6.88967 4.83575 7.06409 4.95928 7.04665 5.06517C7.02921 5.1887 7.01176 5.57693 7.01176 5.91222C6.97688 6.42399 6.90711 6.52987 6.57572 6.52987C6.36642 6.52987 6.01758 6.6534 5.80828 6.79458C5.21525 7.21811 4.91874 6.22987 5.51176 5.77105C6.0699 5.34752 6.03502 4.90634 5.38967 4.14752C4.77921 3.45928 4.16874 3.3534 3.33153 3.79458C2.8606 4.02399 2.26758 5.11811 2.26758 5.73575C2.26758 6.15928 2.96525 6.74164 3.34897 6.6534C3.6106 6.58281 3.75014 6.6887 3.92455 7.11222C4.1513 7.65928 4.1513 7.67693 3.6106 7.94164C2.3199 8.57693 2.26758 10.1122 3.55828 10.271C3.942 10.3063 4.1513 10.5005 4.48269 11.1181C4.95362 12.0181 5.80828 12.8828 6.192 12.8828C6.59316 12.8828 6.50595 12.6005 6.01758 12.2828C5.54665 11.9652 4.50014 10.2534 4.63967 10.024C4.81409 9.74164 4.98851 9.88281 5.19781 10.4652C5.47688 11.1887 6.52339 12.4416 6.75014 12.3005C6.87223 12.2299 6.83735 11.8593 6.69781 11.2593C6.41874 10.1652 6.38386 9.17693 6.62804 9.17693C6.73269 9.17693 6.80246 9.19458 6.8199 9.21222C6.8199 9.24752 6.92456 9.86517 7.02921 10.5887C7.30828 12.4063 7.62223 12.424 8.28502 10.6769C9.13967 8.38281 9.27921 8.73575 8.47688 11.2063C8.05828 12.4946 8.05828 12.7063 8.47688 12.7063C9.31409 12.7063 10.2385 11.4534 11.1455 9.07105C11.7734 7.44752 11.8432 7.34164 12.3141 7.32399C13.4653 7.30634 13.4653 5.29458 12.3315 4.57105C10.8664 3.6534 8.68618 5.55928 9.942 6.6534C10.1339 6.82987 10.2908 7.04164 10.2908 7.12987C10.2908 7.23575 10.2036 7.21811 10.0815 7.09458C9.8199 6.82987 9.15711 6.82987 8.70362 7.07693C8.35479 7.2534 8.35479 7.23575 8.45944 6.22987C8.61642 4.99458 8.63386 4.94164 9.12223 4.94164C10.1862 4.94164 10.5873 3.93575 9.942 2.87693C9.26176 1.74752 8.14549 1.39458 7.06409 1.94164ZM8.96525 2.66517C9.22688 2.87693 9.52339 3.24752 9.6106 3.51222C9.88967 4.21811 9.45362 4.41222 7.95362 4.2887C6.12223 4.14752 5.84316 3.77693 6.88967 2.84164C7.62223 2.1887 8.30246 2.13575 8.96525 2.66517ZM5.02339 4.46517C5.56409 4.90634 5.26758 5.43575 4.29083 5.7534C3.15711 6.10634 2.80828 6.01811 2.91293 5.40046C3.12223 4.35928 4.25595 3.84752 5.02339 4.46517ZM8.02339 5.77105C8.02339 6.72399 7.76176 7.34164 7.58735 6.86517C7.53502 6.70634 7.51758 6.3534 7.5699 6.07105C7.60479 5.7887 7.65711 5.41811 7.65711 5.24164C7.692 4.53575 8.02339 5.01222 8.02339 5.77105ZM12.2443 5.24164C12.7501 5.70046 12.6804 6.70634 12.1397 6.70634C11.4594 6.70634 10.0815 6.03575 10.2211 5.7887C10.7094 4.90634 11.6164 4.65928 12.2443 5.24164ZM4.95362 7.35928C5.1106 7.80046 5.19781 8.22399 5.14549 8.25928C5.04083 8.36517 4.37804 6.90046 4.3606 6.56517C4.3606 6.10634 4.67455 6.54752 4.95362 7.35928ZM7.37804 7.71222C7.58735 8.20634 7.3606 8.47105 6.68037 8.47105C5.73851 8.47105 5.42456 7.83575 6.12223 7.35928C6.59316 7.02399 7.13386 7.18281 7.37804 7.71222ZM10.9711 7.97693C10.7618 8.4887 10.5699 9.03575 10.5176 9.17693C10.256 9.9887 9.10479 11.9299 8.96525 11.7887C8.77339 11.5769 9.64549 9.3534 10.0292 9.10634C10.2734 8.94752 10.4653 8.64752 10.4653 8.4534C10.4653 8.01222 10.9362 7.05928 11.1629 7.05928C11.2501 7.05928 11.1629 7.48281 10.9711 7.97693ZM9.85479 7.94164C10.0641 8.62987 9.33153 8.91222 8.6513 8.41811C8.35479 8.1887 8.35479 8.17105 8.63386 7.8887C9.03502 7.46517 9.71525 7.50046 9.85479 7.94164ZM4.67455 8.92987C4.72688 9.28281 4.13386 9.70634 3.55828 9.70634C3.15711 9.70634 3.0699 9.19458 3.41874 8.80634C3.83735 8.34752 4.60479 8.41811 4.67455 8.92987ZM5.72107 9.03575C5.93037 9.31811 6.08735 10.8181 5.87804 10.6063C5.80828 10.5358 5.63386 10.0946 5.49432 9.63575C5.25014 8.84164 5.35479 8.59458 5.72107 9.03575ZM7.95362 9.63575C7.79665 10.8358 7.60479 10.9769 7.50014 9.97105C7.39549 8.94752 7.43037 8.82399 7.79665 8.82399C8.02339 8.82399 8.05828 8.96517 7.95362 9.63575Z" fill="currentColor"/>
</svg>
