<svg width="15" height="15" viewBox="0 0 15 15" fill="none" xmlns="http://www.w3.org/2000/svg">
<path d="M8.92712 2.67293C8.52953 3.58672 8.72833 5.00052 9.2705 5.00052C9.63194 5.00052 9.21628 6.24189 8.60182 7.08672C8.24038 7.55224 7.84279 8.19017 7.69821 8.48327L7.4452 9.05224L7.2464 8.56948C6.97532 7.89707 6.99339 7.67293 7.42712 6.86258C7.7705 6.20741 7.78857 6.05224 7.58977 5.27638C7.48134 4.79362 7.40905 4.15569 7.4452 3.87983C7.48134 3.51776 7.42712 3.36258 7.2464 3.36258C6.79459 3.36258 6.65001 4.31086 6.95724 5.22465C7.22833 6.01776 7.22833 6.08672 6.86688 6.65569C6.66809 7.00052 6.50544 7.39707 6.50544 7.55224C6.48736 8.08672 5.63797 6.94879 5.34881 6.01776C5.0958 5.20741 5.0958 5.08672 5.4211 4.29362C5.78254 3.43155 5.89098 2.56948 5.65604 2.36258C5.45724 2.15569 5.05965 2.62121 5.05965 3.06948C5.05965 4.55224 4.2464 5.3281 3.9211 4.13845C3.75845 3.51776 3.34279 2.96603 3.16206 3.13845C2.85483 3.41431 3.54158 5.06948 4.06568 5.34534C4.69821 5.67293 4.91507 6.37983 4.39098 6.37983C3.77652 6.36258 2.67411 5.89707 2.40303 5.535C2.0958 5.10396 1.80664 5.06948 1.80664 5.44879C1.80664 6.05224 2.78254 6.69017 3.9211 6.81086C4.86086 6.91431 5.04158 7.00052 5.31266 7.43155C5.47532 7.70741 5.78254 8.01776 5.98134 8.12121C6.37893 8.31086 7.02953 9.51776 7.0476 10.035C7.0476 10.7074 5.69218 10.1384 5.13194 9.2419C4.71628 8.56948 4.15604 8.12121 3.74038 8.10396C3.55965 8.10396 3.16206 7.98327 2.87291 7.8281C2.56568 7.69017 2.27652 7.60396 2.2223 7.65569C1.96929 7.89707 2.40303 8.25914 3.23435 8.535C4.17411 8.8281 4.93315 9.50052 4.48134 9.63845C3.397 9.93155 2.67411 10.3626 2.87291 10.5867C3.05363 10.7936 3.19821 10.7764 3.79459 10.5005C4.66206 10.104 4.87893 10.0867 5.58375 10.466C6.28857 10.8626 6.28857 10.8971 5.43917 11.3453C4.68013 11.7591 4.39098 12.1902 4.69821 12.4833C4.82471 12.604 4.95122 12.5695 5.0958 12.3626C5.2223 12.2074 5.69218 11.8453 6.14399 11.5695L6.95724 11.0522L7.0476 11.6902C7.2464 12.9833 7.7705 13.0695 7.7705 11.8109C7.7705 10.7936 8.05965 10.6902 8.7464 11.4316C9.23435 11.966 10.3729 12.5867 10.8609 12.5867C11.3488 12.5867 10.9151 12.0178 10.2283 11.7247C9.79459 11.5522 9.30664 11.2247 9.14399 11.0178C8.87291 10.6384 8.87291 10.6212 9.45122 10.4316C9.90303 10.2764 10.156 10.2936 10.6621 10.4833C11.4392 10.8109 12.5054 10.8453 12.5958 10.5522C12.65 10.4488 12.5416 10.3453 12.3428 10.3453C12.1621 10.3453 11.656 10.1902 11.2223 10.0005C10.2283 9.56948 10.4452 9.13845 11.656 9.13845C12.4874 9.13845 13.3368 8.65569 13.1199 8.31086C13.0295 8.15569 12.8669 8.15569 12.5054 8.3281C12.2344 8.46603 11.891 8.535 11.7103 8.50052C11.2404 8.39707 10.1199 8.91431 9.95724 9.3281C9.86688 9.60396 9.52351 9.81086 8.85483 10.0178L7.91507 10.3109L8.00544 9.75914C8.33074 7.87983 9.0717 7.31086 11.403 7.19017C12.2705 7.13845 13.3729 6.535 13.3729 6.12121C13.3729 5.72465 13.0837 5.67293 12.7404 6.035C12.5777 6.20741 12.1982 6.43155 11.9271 6.51776L11.4211 6.69017L11.5115 5.98327C11.6199 5.15569 11.9091 4.77638 12.6681 4.48327C13.0837 4.31086 13.4633 3.62121 13.138 3.62121C12.4512 3.62121 11.0235 4.77638 11.0235 5.3281C11.0235 6.15569 10.8066 6.535 10.2464 6.70741C9.55965 6.94879 9.54158 6.93155 9.84881 6.12121C9.99339 5.74189 10.1018 5.22465 10.1199 4.98327C10.1199 4.74189 10.3187 4.27638 10.5717 3.94879C11.1681 3.15569 11.4211 2.58672 11.2946 2.27638C11.1681 1.96603 11.2042 1.93155 10.2283 3.34534C9.46929 4.43155 9.41507 4.50052 9.30664 4.10396C9.23435 3.86258 9.30664 3.39707 9.46929 3.01776C9.63194 2.67293 9.70423 2.31086 9.65001 2.22465C9.45122 1.91431 9.19821 2.08672 8.92712 2.67293Z" fill="black"/>
</svg>
