<svg width="15" height="15" viewBox="0 0 15 15" fill="none" xmlns="http://www.w3.org/2000/svg">
<path d="M6.6515 1.94798C5.98283 2.24108 5.40451 2.75832 5.1515 3.34453C4.97078 3.74108 4.80813 3.84453 4.26596 3.87901C2.92861 3.94798 1.84427 5.4135 2.27801 6.51694C2.45873 6.94798 2.42258 7.06867 1.9527 7.55143C0.922584 8.65487 1.33825 10.448 2.76596 11.0859C3.16355 11.2756 3.43463 11.5687 3.57921 11.9825C3.95873 12.9307 5.04307 13.3445 6.03704 12.9135C6.34427 12.7756 6.57921 12.7583 6.72379 12.879C6.8503 12.9652 7.73584 13.0342 8.69367 13.0169C10.6455 12.9997 11.278 12.7583 11.6033 11.8963C11.7117 11.5514 11.9467 11.3618 12.2901 11.2928C13.8262 10.9652 14.6214 8.84453 13.6635 7.60315C13.284 7.12039 13.2298 6.9135 13.3202 6.12039C13.4828 4.56867 12.6154 3.62039 11.0069 3.62039C10.4286 3.62039 10.266 3.55143 10.1395 3.22384C9.6515 2.03418 7.95271 1.4135 6.6515 1.94798ZM8.85632 2.9135C9.1274 3.10315 9.38042 3.4997 9.48885 3.93074C9.74186 4.86177 9.81415 4.9135 10.5551 4.58591C12.019 3.93074 13.1575 5.32729 12.2901 6.68936C11.9286 7.25832 11.9467 7.58591 12.3262 7.58591C12.8142 7.58591 13.3744 8.34453 13.3744 8.98246C13.3744 9.84453 12.9045 10.3445 11.8382 10.6032C11.3322 10.7238 10.9166 10.9135 10.9166 11.0514C10.8985 11.1894 10.8804 11.4307 10.8623 11.5859C10.8443 11.9825 9.83222 12.4652 9.30813 12.3445C8.98283 12.2583 8.92861 12.1549 9.0009 11.7756C9.10933 11.1894 10.0129 9.89625 10.5009 9.60315C10.6816 9.4997 10.8443 9.25832 10.8443 9.08591C10.8443 8.25832 9.36234 9.4135 8.65752 10.7756L8.31415 11.4652L8.38644 10.5859C8.49487 9.53418 9.05512 8.31005 9.77801 7.56867C10.3744 6.94798 10.4286 6.72384 9.9768 6.72384C9.30813 6.72384 8.4768 7.86177 7.93463 9.48246L7.6274 10.4307L7.5009 9.60315C7.33825 8.56867 7.5009 7.03418 7.86234 6.37901C8.20572 5.74108 8.20572 5.68936 7.77198 5.68936C7.32018 5.68936 7.04909 6.17212 6.92258 7.24108C6.79608 8.25832 6.81415 8.25832 6.1274 7.4997C5.58524 6.9135 4.88042 6.68936 4.88042 7.08591C4.88042 7.2066 5.24186 7.65487 5.6756 8.10315C6.54307 8.9997 7.04909 10.2238 7.04909 11.448L7.03102 12.1549L6.50692 11.0859C6.0009 10.1204 4.93463 8.96522 4.51897 8.96522C4.12138 8.96522 4.37439 9.62039 4.98885 10.1894C5.92861 11.0342 6.29005 11.879 5.83825 12.1894C5.18764 12.6549 4.03102 12.0169 4.22981 11.31C4.35632 10.8618 4.03102 10.5169 3.54307 10.5169C2.20572 10.5169 1.53704 8.18936 2.76596 7.82729C3.50692 7.62039 3.6515 7.4135 3.34427 6.96522C3.05511 6.53418 2.98283 5.56867 3.21777 5.22384C3.48885 4.81005 4.37439 4.4997 4.8262 4.67212C5.60331 4.94798 5.78403 4.86177 5.78403 4.25832C5.78403 2.79281 7.51897 2.03418 8.85632 2.9135Z" fill="currentColor"/>
</svg>
