<svg width="15" height="15" viewBox="0 0 15 15" fill="none" xmlns="http://www.w3.org/2000/svg">
<path d="M3.56087 1.1299C3.44862 1.25653 3.45883 1.32471 3.61189 1.53899C3.9078 1.97731 4.22413 2.62016 4.17311 2.66886C4.1425 2.69808 3.9078 2.65912 3.6425 2.5812C2.68331 2.30847 2.50985 2.76627 3.44862 3.12666C4.25474 3.43834 4.45883 3.57471 4.52005 3.85718C4.59148 4.25653 4.50985 4.42211 4.10168 4.60718C3.8976 4.70458 3.56087 4.91886 3.36699 5.08445C3.17311 5.25003 2.71393 5.51302 2.34658 5.6786C1.48944 6.05847 1.32617 6.19484 1.32617 6.55523C1.32617 7.32471 2.54046 8.08445 3.75474 8.08445H4.3874L4.3976 8.44484C4.4078 9.22406 4.52005 9.79873 4.76495 10.4513C5.03025 11.1721 5.04046 11.6591 4.78536 13.237C4.66291 14.026 4.79556 14.2306 5.3976 14.1234C5.60168 14.0844 5.83638 14.026 5.8976 13.987C5.95883 13.9578 6.05066 13.9968 6.10168 14.0942C6.23434 14.3182 6.91801 14.2793 7.17311 14.0357C7.36699 13.8507 7.87719 11.9416 7.76495 11.8247C7.73434 11.7857 7.79556 11.7955 7.9078 11.8344C8.02005 11.8832 8.3976 11.9416 8.74454 11.9611C9.29556 11.9903 9.37719 12.0195 9.42821 12.2241C9.49964 12.4968 9.40781 13.0033 9.21393 13.3637C8.97923 13.8312 9.12209 14.0844 9.6425 14.1137C10.2445 14.1429 10.4894 13.9773 10.816 13.3247C11.1527 12.6624 11.2343 12.6916 11.1527 13.4416C11.0915 14.0844 11.1833 14.1916 11.867 14.2403C12.5915 14.2793 13.2037 12.9059 12.8466 12.0098C12.7241 11.6883 12.8262 10.3929 12.969 10.4806C13.2649 10.6461 13.8874 9.86692 13.8262 9.39938C13.7445 8.64938 12.8466 8.06497 12.2445 8.37666C12.1221 8.44484 12.0303 8.44484 11.9894 8.37666C11.7752 8.05523 10.5303 7.91886 8.75474 8.04549C7.69352 8.11367 7.36699 7.87016 7.27515 6.95458L7.21393 6.36042L7.69352 6.04873C8.93842 5.23055 8.3874 4.16886 6.97923 4.67536C6.55066 4.8312 6.59148 4.74354 7.12209 4.36367L7.60168 4.01302L8.24454 4.14938C8.70372 4.25653 8.93842 4.26627 9.08127 4.18834C9.56087 3.94484 9.1425 3.60393 8.35678 3.60393C7.74454 3.60393 7.91801 3.35068 8.67311 3.15588C8.94862 3.0877 9.94862 2.49354 10.0507 2.3377C10.0813 2.28899 10.0609 2.15263 9.99964 2.05523C9.87719 1.8312 9.75474 1.86042 9.10168 2.27925C8.58127 2.62016 8.55066 2.60068 8.68332 2.05523C8.8976 1.12016 8.36699 1.0812 8.02005 2.00653C7.74454 2.71757 7.28536 3.35068 6.67311 3.8377C6.25474 4.1786 6.19352 4.19808 5.75474 4.1299C4.93842 4.01302 4.80576 3.14614 5.43842 2.15263C5.75474 1.66562 5.80576 1.51951 5.71393 1.41237C5.47923 1.13964 5.25474 1.25653 4.98944 1.74354L4.74454 2.22081L4.45883 1.67536C4.08127 0.954578 3.84658 0.808474 3.56087 1.1299ZM6.17311 4.77276C6.31597 4.82146 6.47923 4.97731 6.53025 5.12341C6.61189 5.32796 6.68332 5.36692 6.86699 5.31821C7.94862 5.00653 8.09148 5.21107 7.19352 5.77601L6.6527 6.12666L6.69352 6.69159C6.75474 7.6851 6.81597 7.85068 7.25474 8.22081L7.66291 8.5812L9.37719 8.56172C10.5915 8.55198 11.1527 8.5812 11.3262 8.66886C12.1119 9.06822 12.3262 9.62341 12.2139 10.9481C12.1527 11.6494 12.1629 11.9708 12.2445 12.1364C12.4792 12.5455 12.1935 13.6364 11.8568 13.6364C11.6935 13.6364 11.6731 13.578 11.7343 13.2176C11.8058 12.75 11.6833 12.3994 11.418 12.3215C11.2649 12.2728 10.8568 11.8734 10.3874 11.3182C10.3262 11.2403 10.2139 11.2208 10.1119 11.2598C9.81597 11.3767 8.83638 11.4156 8.22413 11.3182C7.45883 11.2013 7.26495 11.3377 7.18332 12.039C7.12209 12.5552 6.8874 13.5293 6.79556 13.6072C6.76495 13.6364 6.67311 13.6364 6.59148 13.6072C6.47923 13.5682 6.43842 13.3442 6.43842 12.6332C6.42821 11.513 6.4078 11.4643 5.80576 10.8896C5.23434 10.3442 4.99964 9.58445 4.99964 8.28899V7.50003L4.20372 7.50977C3.44862 7.51951 2.71393 7.39289 2.31597 7.19809C2.1527 7.11042 2.1527 7.0812 2.30576 6.80847C2.3874 6.64289 2.43842 6.44809 2.4078 6.37016C2.37719 6.29224 2.4078 6.2338 2.47923 6.2338C2.61189 6.2338 3.37719 5.78575 4.1425 5.26951C4.93842 4.72406 5.59148 4.56821 6.17311 4.77276ZM13.1119 9.39938C13.1119 9.92536 12.9384 9.91562 12.7343 9.3799C12.5303 8.85393 12.5813 8.69809 12.8874 8.89289C13.0507 9.00003 13.1119 9.1364 13.1119 9.39938ZM5.85678 11.8344C5.98944 12.3507 5.73434 13.4708 5.44862 13.578C5.30576 13.6267 5.30576 13.5487 5.46903 12.4189C5.49964 12.2046 5.53025 11.9319 5.53025 11.8052C5.54046 11.513 5.77515 11.5325 5.85678 11.8344ZM10.3262 12.0487C10.6119 12.2922 10.5609 12.7695 10.1935 13.237C9.79556 13.763 9.75474 13.7143 9.90781 12.9059C10.0098 12.3994 10.0098 12.2143 9.91801 12.0682C9.75474 11.8247 10.0507 11.8052 10.3262 12.0487Z" fill="currentColor"/>
<path d="M4.79641 5.83433C4.64335 6.1168 4.67396 6.30186 4.86784 6.37004C5.11274 6.46745 5.42907 6.05835 5.29641 5.82459C5.16376 5.59082 4.92907 5.60056 4.79641 5.83433Z" fill="currentColor"/>
</svg>
