<svg width="15" height="15" viewBox="0 0 15 15" fill="none" xmlns="http://www.w3.org/2000/svg">
<path d="M9.1941 1.5726C9.14571 1.70675 9.09732 1.95065 9.09732 2.12138C9.09732 2.47504 9.02958 2.51162 8.81668 2.26772C8.63281 2.0604 7.71345 1.84089 7.307 1.88967C7.15216 1.91406 6.82313 1.97504 6.58119 2.02382C6.33926 2.0726 6.0199 2.12138 5.85539 2.13358C5.05216 2.21894 3.58119 2.87748 3.58119 3.17016C3.58119 3.23114 3.50377 3.29211 3.41668 3.29211C3.08765 3.30431 2.22636 4.49943 2.02313 5.21894C1.96507 5.42626 1.78119 5.70675 1.607 5.8287C1.08442 6.21894 0.755388 6.85309 0.794098 7.40187C0.832807 8.02382 1.10377 8.09699 1.24894 7.52382C1.35539 7.13357 1.70377 6.59699 1.77152 6.71894C1.79087 6.74333 1.85861 7.14577 1.92636 7.62138C1.9941 8.08479 2.16829 8.91406 2.32313 9.45065C2.46829 9.98723 2.64248 10.6946 2.71023 11.036C2.87474 11.9019 3.29087 12.9019 3.58119 13.1702C3.80377 13.3775 3.94894 13.3897 4.67474 13.3043C4.71345 13.2921 4.74248 13.2067 4.74248 13.1092C4.74248 12.8897 4.97474 12.8653 5.11023 13.0848C5.32313 13.4019 6.3199 13.3165 6.42636 12.975C6.45539 12.8775 6.39732 12.4141 6.30055 11.9385L6.107 11.097H6.85216C7.25861 11.097 7.66507 11.0482 7.74248 10.9872C7.88765 10.8653 7.95539 11.036 8.27474 12.3043C8.47797 13.1214 8.74894 13.4141 9.30055 13.4141C9.57152 13.4141 9.7941 13.3409 9.87152 13.2433C9.92958 13.1458 10.036 13.0848 10.0941 13.1092C10.5586 13.2799 10.7328 13.2677 10.9554 13.0604L11.1876 12.8287L11.0231 11.5604C10.8393 10.1702 10.8296 10.2189 11.3715 9.99943C11.8167 9.8165 12.1457 9.58479 12.4941 9.18236C12.6296 9.02382 12.9102 8.86528 13.1231 8.8165C13.9554 8.65797 14.3231 8.12138 14.3231 7.0726C14.3231 6.45065 14.1005 5.75553 13.8683 5.65797C13.7715 5.62138 13.5199 5.49943 13.307 5.38967C13.0941 5.26772 12.8812 5.20675 12.8231 5.21894C12.7747 5.24333 12.7554 5.21894 12.7941 5.18236C12.9005 5.04821 12.2425 4.09699 11.6909 3.5726C11.3522 3.24333 11.1393 2.92626 10.9844 2.47504C10.7135 1.70675 10.2973 1.34089 9.707 1.34089C9.39732 1.34089 9.27152 1.40187 9.1941 1.5726ZM10.2683 2.45065C10.4231 2.65797 10.5489 2.95065 10.5489 3.09699C10.5489 3.43845 10.6457 3.60918 10.8973 3.70675C11.0038 3.74333 11.4393 4.21894 11.8554 4.75553C12.2812 5.29211 12.7457 5.79211 12.8909 5.86528C13.036 5.93845 13.1618 6.02382 13.1618 6.03601C13.1618 6.04821 13.0941 6.27992 13.007 6.53601C12.9005 6.85309 12.8715 7.18236 12.9102 7.5726C12.9876 8.26772 12.9102 8.3165 12.2618 8.0726C12.0102 7.98723 11.7393 7.93845 11.6618 7.97504C11.4393 8.08479 11.4973 8.40187 11.7586 8.5604C11.8941 8.63357 12.0005 8.73114 12.0005 8.79211C12.0005 8.95065 11.1973 9.35309 10.4522 9.5726C9.34894 9.90187 9.21345 10.2311 9.44571 12.0116C9.46507 12.2067 9.45539 12.4506 9.407 12.536C9.18442 12.9506 8.75861 12.1458 8.51668 10.8775C8.38119 10.1336 8.207 9.96284 7.84894 10.1946C7.6941 10.3043 7.27797 10.3653 6.72636 10.3653C5.93281 10.3531 5.68119 10.3165 4.78119 10.0604C4.3941 9.95065 4.34571 10.1092 4.34571 11.4263C4.35539 13.4994 3.71668 12.8287 3.107 10.1214C3.03926 9.8165 2.92313 9.37748 2.85539 9.14577C2.38119 7.54821 2.2941 6.34089 2.5941 5.52382C2.77797 5.02382 2.84571 4.88967 3.16507 4.45065C3.29087 4.29211 3.38765 4.09699 3.38765 4.02382C3.38765 3.95065 3.42636 3.91406 3.46507 3.95065C3.54248 4.01162 3.69732 3.92626 4.38442 3.42626C4.58765 3.27992 4.82958 3.15797 4.91668 3.13358C5.00377 3.12138 5.13926 3.04821 5.21668 2.98723C5.43926 2.8165 6.91023 2.74333 6.83281 2.91406C6.65861 3.25553 7.32636 4.75553 7.65539 4.75553C7.94571 4.75553 7.93603 4.59699 7.63603 3.80431C7.48119 3.38967 7.35539 2.96284 7.35539 2.86528C7.35539 2.64577 7.79087 2.62138 8.19732 2.8165C8.34248 2.88967 8.55539 2.97504 8.65216 2.99943C8.75861 3.02382 8.98119 3.20675 9.14571 3.41406C9.42636 3.75553 9.87152 3.91406 9.87152 3.67016C9.87152 3.60918 9.80378 3.36528 9.72636 3.12138C9.41668 2.20675 9.76507 1.77992 10.2683 2.45065ZM13.7909 7.04821C13.7812 7.77992 13.6941 8.09699 13.5393 7.98723C13.3554 7.8287 13.4812 6.34089 13.6844 6.34089C13.7618 6.34089 13.8005 6.58479 13.7909 7.04821ZM10.4522 10.9994C10.4522 11.2921 10.4812 11.7311 10.5102 11.975C10.5586 12.3531 10.5489 12.4385 10.4231 12.4385C10.1812 12.4385 9.96829 11.7921 9.96829 11.097C9.96829 10.5238 9.98765 10.4872 10.2102 10.4872C10.4328 10.4872 10.4522 10.536 10.4522 10.9994ZM5.4199 10.975C5.54571 10.975 5.60377 11.097 5.64248 11.4872C5.66184 11.7799 5.7199 12.097 5.74894 12.2067C5.79732 12.3409 5.75861 12.4263 5.63281 12.4628C5.35216 12.5604 5.26507 12.4385 5.09087 11.7189C4.89732 10.8897 4.89732 10.8043 5.09087 10.9019C5.17797 10.9385 5.32313 10.975 5.4199 10.975Z" fill="black"/>
<path d="M10.4723 5.26749C10.1239 5.70652 10.5787 6.43822 10.9465 6.02359C11.1884 5.7553 11.1787 5.54798 10.9174 5.31627C10.6561 5.08456 10.6174 5.08456 10.4723 5.26749Z" fill="black"/>
</svg>
