<svg width="15" height="15" viewBox="0 0 15 15" fill="none" xmlns="http://www.w3.org/2000/svg">
<path d="M7.18067 0.917216C6.77422 1.8799 6.79357 4.26423 7.20003 4.81274C7.27745 4.90229 7.35486 5.28289 7.3839 5.65229C7.41293 6.02169 7.45164 6.3911 7.46132 6.48065C7.49035 6.58139 7.23874 6.81647 6.82261 7.09632C5.95164 7.67841 5.51615 8.04781 5.29357 8.36125C5.1968 8.50677 5.05164 8.69707 4.97422 8.78662C4.8968 8.87617 4.77099 9.11125 4.6839 9.31274C4.57745 9.58139 4.55809 9.60378 4.5968 9.40229C4.76132 8.60751 4.76132 7.07393 4.60648 6.53662C4.42261 5.87617 3.79357 5.12617 3.0097 4.58886C2.29357 4.10751 2.11938 4.17468 1.84841 5.05901C1.05486 7.61125 1.26777 10.1523 2.39035 11.5963C2.94196 12.3015 3.90003 12.9844 4.34519 12.9844C4.43228 12.9844 4.58712 13.1635 4.69357 13.3874C5.00325 14.059 5.16777 14.115 6.72583 14.1933C8.31293 14.2605 8.61293 14.1709 8.61293 13.6672C8.61293 13.5105 8.56454 13.2978 8.51615 13.2083C8.44841 13.0851 8.46777 13.018 8.59357 12.962C8.89357 12.8277 8.96132 12.8724 9.13551 13.3202C9.23228 13.5777 9.3968 13.8463 9.51293 13.9359C9.79357 14.1374 10.4613 14.2269 10.6258 14.0702C10.6936 14.003 10.9065 13.9247 11.1 13.8911C11.6033 13.7903 11.7 13.5553 11.4871 12.906C11.0903 11.7083 11.0226 10.6896 11.2645 9.64856C11.3613 9.26796 11.4194 8.68587 11.4 8.36125L11.371 7.77916L11.8258 7.76796C13.3645 7.71199 15.0387 5.84259 13.9549 5.39483C13.2484 5.09259 11.9033 3.70453 11.9033 3.26796C11.9033 2.84259 11.6516 1.81274 11.5065 1.60005C11.4387 1.5105 11.3323 1.3202 11.2742 1.19707C11.0323 0.614977 10.4516 0.950798 10.1033 1.85751C9.97744 2.19334 9.87099 2.54035 9.87099 2.6299C9.87099 2.88737 9.61938 2.83139 9.45486 2.54035C9.01938 1.79035 7.81938 0.693335 7.39357 0.670947C7.33551 0.670947 7.23874 0.782888 7.18067 0.917216ZM8.09035 1.84632C8.32261 2.0702 8.67099 2.51796 8.87422 2.85378C9.24196 3.45826 9.32906 3.51423 9.88067 3.46945C10.5678 3.42468 11.4097 3.89483 12.1549 4.73438C12.3678 4.96945 12.6484 5.23811 12.7936 5.32766C13.0065 5.4508 13.5291 6.46945 13.4323 6.54781C12.9774 6.88363 11.8742 7.20826 11.4678 7.11871C10.9645 7.00677 10.7903 7.25304 10.8194 8.01423C10.8678 9.1896 10.7613 9.64856 10.3355 10.253L9.94841 10.8015L10.0065 11.8314C10.0355 12.3911 10.1129 12.9956 10.1613 13.1635C10.2774 13.5217 10.2678 13.5553 9.9968 13.4769C9.71615 13.3874 9.42583 12.7157 9.29035 11.865C9.10648 10.6336 9.10648 10.6336 8.90325 10.6336C8.66132 10.6336 8.5839 10.9583 8.70003 11.5403C8.81615 12.1112 8.73874 12.2456 8.23551 12.3687L7.91615 12.4471L7.9839 12.0777C8.02261 11.865 8.06132 11.6747 8.06132 11.6411C8.20648 10.8127 7.32583 9.60378 6.71615 9.78289C6.37745 9.88363 6.43551 10.1411 6.82261 10.365C7.62583 10.8015 7.77099 11.9098 7.11293 12.5366C6.83228 12.8053 6.93874 13.0739 7.34519 13.1523C7.73228 13.2306 8.10003 13.5329 7.82906 13.5553C7.75164 13.5553 7.56777 13.5777 7.40325 13.5889C7.24841 13.6001 6.74519 13.5777 6.30003 13.5329C5.35164 13.4433 5.1968 13.309 4.94519 12.4247C4.46132 10.6896 5.35164 8.6411 7.00648 7.71199C7.91615 7.19707 8.06132 6.99557 7.97422 6.33513C7.94519 6.03289 7.91615 5.58513 7.91615 5.33886C7.92583 5.09259 7.85809 4.77916 7.78067 4.65602C7.45164 4.11871 7.35486 3.15602 7.50003 1.92468C7.56777 1.35378 7.56777 1.35378 8.09035 1.84632ZM11.1678 2.57393C11.342 3.17841 11.3516 3.16722 10.8194 3.0105L10.3839 2.87617L10.5678 2.4508C10.6645 2.21572 10.742 1.95826 10.742 1.8799C10.742 1.61125 11.0129 2.05901 11.1678 2.57393ZM3.25164 5.60751C4.05486 6.29035 4.2097 6.67095 4.17099 7.8799C4.10325 10.0404 4.12261 10.712 4.23874 11.462C4.30648 11.8874 4.34519 12.2456 4.32583 12.268C4.31615 12.2903 4.0839 12.1896 3.82261 12.0441C2.86454 11.5292 2.05164 10.2195 1.95486 9.04408L1.90648 8.47319L2.11938 8.71945C2.38067 9.02169 2.56454 9.02169 2.85486 8.68587C3.08712 8.41722 3.27099 7.52169 3.14519 7.27542C3.03874 7.07393 2.71938 7.47692 2.61293 7.96945C2.47745 8.51796 2.41938 8.50677 2.14841 7.90229C1.8968 7.35378 1.90648 7.02916 2.24519 5.87617C2.52583 4.8799 2.42906 4.91348 3.25164 5.60751ZM10.8871 12.962C10.9452 13.1523 10.9258 13.1971 10.8097 13.1523C10.6549 13.0739 10.5484 12.5142 10.5581 11.865C10.5678 11.518 10.5774 11.5515 10.6936 12.0889C10.7613 12.4247 10.8484 12.8165 10.8871 12.962Z" fill="currentColor"/>
<path d="M7.89769 2.67549C7.77188 2.91056 8.09124 4.08594 8.28478 4.08594C8.55575 4.08594 8.57511 3.55982 8.31382 3.0225C8.09124 2.57474 7.99446 2.48519 7.89769 2.67549Z" fill="currentColor"/>
<path d="M10.4899 4.7912C10.277 4.94792 10.248 5.33971 10.4221 5.58598C10.6351 5.88822 10.9157 5.79867 11.0028 5.39568C11.0996 4.93673 10.7802 4.55613 10.4899 4.7912Z" fill="currentColor"/>
</svg>
