<svg width="15" height="15" viewBox="0 0 15 15" fill="none" xmlns="http://www.w3.org/2000/svg">
<path d="M6.52991 0.801409C5.78501 1.31183 5.47889 1.86391 5.04011 3.46808C4.87684 4.09308 4.83603 4.12433 4.37684 4.20766C3.36664 4.37433 1.65235 6.52016 1.88705 7.31183C1.99929 7.67641 2.38705 8.16599 2.71358 8.33266C2.87684 8.41599 3.02991 8.52016 3.06052 8.55141C3.09113 8.59308 3.29521 8.65558 3.5095 8.68683C4.0095 8.77016 3.99929 8.74933 3.87684 9.16599C3.7748 9.53058 3.86664 10.1556 4.13195 10.8014C4.39725 11.4368 4.33603 11.6972 3.82582 12.166C2.98909 12.9368 3.28501 13.6972 4.39725 13.6764C4.86664 13.666 5.70337 13.2597 5.71358 13.0306C5.71358 12.9993 5.79521 12.8639 5.89725 12.7285C6.19317 12.3327 6.60133 12.5827 6.55031 13.1243C6.48909 13.7806 6.7544 13.8847 8.40746 13.8743C10.3564 13.8639 11.1217 13.6452 11.3564 13.0306C11.5401 12.5722 11.7646 12.3639 12.1319 12.3222C13.1319 12.1972 13.683 10.8952 13.1524 9.88474C13.0401 9.66599 12.4993 9.43683 12.2544 9.50974C12.1013 9.54099 12.0401 9.46808 11.9483 9.15558C11.785 8.61391 10.8564 7.60349 10.183 7.24933C9.79521 7.04099 9.36664 6.92641 8.70337 6.84308C7.78501 6.72849 7.7544 6.71808 7.7544 6.45766C7.7544 6.31183 7.72378 6.03058 7.69317 5.83266C7.63195 5.47849 7.66256 5.44724 8.13195 5.13474C9.22378 4.40558 10.0809 3.28058 10.1319 2.48891C10.1422 2.32224 10.183 2.18683 10.2238 2.18683C10.336 2.18683 10.183 1.79099 9.99929 1.61391C9.70337 1.34308 9.14215 1.39516 8.46868 1.74933L7.85644 2.07224V1.57224C7.85644 1.30141 7.79521 0.999326 7.72378 0.895159C7.54011 0.634742 6.85644 0.582659 6.52991 0.801409ZM7.28501 1.72849C7.2646 2.33266 6.99929 2.90558 6.44827 3.53058C6.32582 3.68683 6.19317 3.88474 6.16256 3.98891C6.12174 4.11391 6.0197 4.16599 5.80542 4.14516C5.5095 4.12433 5.49929 4.10349 5.56052 3.74933C5.60133 3.55141 5.65235 3.27016 5.68297 3.12433C5.73399 2.78058 6.18297 1.80141 6.34623 1.63474C6.98909 0.988909 7.29521 1.02016 7.28501 1.72849ZM9.63195 2.14516C9.84623 2.71808 8.62174 4.22849 7.22378 5.13474C6.97888 5.29099 6.95848 5.34308 7.05031 5.59308C7.10133 5.74933 7.17276 6.20766 7.18297 6.60349L7.22378 7.33266L8.17276 7.34308C9.06052 7.35349 9.18297 7.38474 9.79521 7.70766C10.1626 7.90558 10.4789 8.10349 10.4891 8.14516C10.5095 8.19724 10.5707 8.20766 10.6217 8.16599C10.6728 8.13474 10.7136 8.16599 10.7136 8.22849C10.7136 8.29099 10.7646 8.31183 10.836 8.27016C10.8973 8.22849 10.9177 8.23891 10.887 8.30141C10.8462 8.36391 10.9075 8.53058 11.0197 8.67641C11.5911 9.41599 11.836 10.8327 11.5299 11.6139C11.2748 12.2806 10.5503 13.2597 10.3462 13.2181C10.0809 13.1764 9.28501 13.2389 9.31562 13.3014C9.37684 13.4056 7.18297 13.3118 7.09113 13.2077C6.91766 13.041 7.46868 12.6972 7.88705 12.7077C8.12174 12.7181 8.37684 12.7181 8.44827 12.7181C8.68297 12.6972 8.57072 12.416 8.21358 12.0931C7.64215 11.5827 7.59113 10.8952 8.10133 10.3847C8.40746 10.0722 8.55031 9.99933 8.88705 9.99933C9.32582 9.99933 9.49929 9.80141 9.28501 9.53058C9.11154 9.31183 8.41766 9.43683 7.93807 9.75974C7.39725 10.1347 7.20337 10.6139 7.2748 11.4264C7.31562 12.0202 7.30542 12.0827 7.13195 12.0931C7.0197 12.1035 6.87684 12.1139 6.81562 12.1243C6.74419 12.1347 6.56052 12.0827 6.40746 12.0097C6.17276 11.8952 6.15235 11.8431 6.22378 11.5202C6.2748 11.2702 6.2646 11.0931 6.17276 10.9681C5.97889 10.7077 5.87684 10.8535 5.61154 11.8014C5.30542 12.8639 5.07072 13.1243 4.38705 13.1243C3.7544 13.1243 3.7544 13.0306 4.33603 12.4577C4.89725 11.8952 4.94827 11.3743 4.55031 10.3847C4.35644 9.88474 4.32582 9.70766 4.40746 9.39516C4.45848 9.18683 4.5197 8.83266 4.56052 8.61391L4.62174 8.22849H4.06052C3.62174 8.22849 3.40746 8.16599 3.02991 7.91599L2.54011 7.60349L2.7646 7.30141C2.98909 6.98891 2.95848 6.77016 2.69317 6.77016C2.49929 6.77016 2.82582 6.12433 3.2544 5.65558C3.42786 5.46808 3.57072 5.27016 3.57072 5.21808C3.57072 5.15558 3.60133 5.11391 3.65235 5.12433C3.69317 5.13474 3.84623 5.07224 3.98909 4.96808C4.44827 4.65558 5.28501 4.54099 5.79521 4.71808L6.24419 4.87433L6.56052 4.39516C7.19317 3.44724 8.32582 2.34308 8.85644 2.16599C9.48909 1.94724 9.56052 1.94724 9.63195 2.14516ZM12.7136 10.4889C12.8054 10.9785 12.6013 11.6347 12.336 11.7181C12.0503 11.8118 12.0299 11.7702 12.1524 11.3014C12.2136 11.0827 12.2442 10.7285 12.2238 10.5097C12.1626 9.87433 12.6013 9.86391 12.7136 10.4889Z" fill="currentColor"/>
<path d="M4.31502 6.00931C4.09053 6.09265 4.15175 6.64473 4.39665 6.71765C4.70277 6.82181 4.93747 6.55098 4.85583 6.20723C4.79461 5.94681 4.61094 5.88431 4.31502 6.00931Z" fill="currentColor"/>
</svg>
