<svg width="15" height="15" viewBox="0 0 15 15" fill="none" xmlns="http://www.w3.org/2000/svg">
<path d="M9.81655 1.82048C9.6941 1.90323 9.59206 2.04806 9.59206 2.13082C9.59206 2.25496 9.54104 2.24461 9.32675 2.0791C8.45941 1.38599 7.89818 2.33772 8.36757 3.6722C8.45941 3.94117 8.439 4.0653 8.21451 4.49979C8.05124 4.84117 7.95941 5.19289 7.95941 5.53427C7.95941 6.08254 7.87777 6.20668 7.26553 6.77565L6.92879 7.08599L6.97982 6.82737C7.01043 6.68254 7.07165 6.41358 7.13288 6.21703C7.27573 5.75151 7.17369 4.42737 6.9492 3.86875C6.31655 2.21358 4.439 1.42737 2.90839 2.1722C2.28594 2.4722 1.55124 3.19634 1.7043 3.35151C1.73492 3.38254 1.71451 3.41358 1.65328 3.41358C1.21451 3.41358 1.01043 5.38944 1.37777 6.11358C1.65328 6.64117 1.95941 7.03427 2.06145 6.9722C2.11247 6.94117 2.13288 6.9722 2.12267 7.04461C2.08186 7.24117 2.64308 7.4791 3.12267 7.4791H3.54104L3.34716 7.89289C2.67369 9.28944 2.95941 11.3481 3.95941 12.3619C4.31655 12.7239 5.1941 13.2412 5.439 13.2412C5.51043 13.2412 5.85737 13.386 6.22471 13.5619C6.91859 13.8929 7.26553 13.9446 9.33696 14.0067C10.1941 14.0274 10.5308 14.0067 10.7655 13.8825C10.9492 13.7894 11.2859 13.7377 11.5921 13.7481C12.3574 13.7791 12.6023 13.4584 12.3472 12.786C12.2451 12.5067 11.7145 12.1653 11.5819 12.2894C11.541 12.3308 11.5308 12.217 11.5819 12.0515C11.6227 11.8756 11.6737 11.6584 11.6941 11.555C11.7145 11.4515 11.7553 11.2756 11.7859 11.1722C11.8166 11.0688 11.7757 10.717 11.6941 10.4067C11.5308 9.74461 11.5717 9.68254 12.1635 9.70323C12.888 9.73427 13.1533 9.50668 13.1329 8.88599C13.1023 8.16185 12.7961 7.91358 11.9288 7.90323C11.2145 7.89289 11.0614 7.81013 11.6023 7.71703C12.4798 7.55151 13.7757 6.62048 13.7757 6.14461C13.7757 5.61703 12.1941 3.61013 11.7553 3.56875C11.4288 3.54806 11.1329 3.24806 10.9696 2.79289C10.6941 2.00668 10.1737 1.56185 9.81655 1.82048ZM5.21451 2.73082C5.90839 3.08254 6.49002 3.83772 6.59206 4.51013C6.67369 5.0791 6.57165 6.49634 6.41859 6.82737C6.40839 6.85841 6.38798 6.92048 6.37777 6.98254C6.37777 7.03427 6.21451 7.38599 6.03084 7.75841C5.23492 9.31013 5.01043 10.7894 5.38798 11.9481C5.61247 12.6308 5.57165 12.7136 5.12267 12.4756C3.49002 11.617 3.13288 9.02048 4.40839 7.22048C4.6941 6.80668 4.70431 6.11358 4.42879 5.53427C4.07165 4.76875 2.85737 4.51013 2.85737 5.20323C2.85737 5.41013 2.89818 5.44117 3.21451 5.39979C3.83696 5.32737 4.27573 6.05151 3.99002 6.68254C3.81655 7.0653 2.90839 7.04461 2.46961 6.64117C1.35737 5.64806 1.56145 3.7653 2.85737 2.87565C3.67369 2.31703 4.34716 2.27565 5.21451 2.73082ZM9.40839 2.90668C9.50022 3.04117 9.60226 3.2791 9.63288 3.43427C9.70431 3.88944 9.76553 3.91013 10.3982 3.85841C11.1023 3.79634 11.6023 4.02392 12.2859 4.72737C12.8063 5.25496 12.939 5.55496 12.9186 6.09289C12.9084 6.51703 12.8778 6.56875 12.5104 6.75496C12.1329 6.96185 12.1023 6.96185 11.8063 6.78599C11.4186 6.56875 11.2043 6.77565 11.5206 7.04461C11.7145 7.21013 11.7145 7.22048 11.4696 7.33427C11.3268 7.39634 11.1329 7.44806 11.041 7.44806C10.6635 7.44806 10.6023 7.59289 10.7859 8.05841L10.9594 8.50323L11.5921 8.45151C12.2961 8.39979 12.6533 8.54461 12.6533 8.89634C12.6533 9.10323 12.3268 9.26875 12.1431 9.15496C12.0104 9.0722 11.3268 9.28944 11.1023 9.48599C10.8676 9.70323 10.0921 9.5791 9.54104 9.24806C8.81655 8.82392 8.63288 9.23772 9.31655 9.7653C9.60226 9.98254 9.83696 10.055 10.388 10.1067C11.1839 10.1688 11.2247 10.2101 11.2247 10.9963C11.2247 11.4825 11.0206 11.8963 10.6125 12.2481C10.1431 12.6412 9.96961 12.6101 10.0717 12.1239C10.3166 10.9446 9.79614 10.1584 8.71451 10.117C8.03084 10.0963 7.99002 10.5722 8.66349 10.6653C9.1839 10.7377 9.47982 11.0067 9.59206 11.5343C9.67369 11.9067 9.65328 11.9377 9.21451 12.3722C8.6839 12.8998 8.71451 13.0343 9.37777 13.0343C9.72471 13.0343 9.9492 13.0963 10.1125 13.2412L10.3574 13.4377L10.0002 13.4584C8.28594 13.5412 6.90839 13.3446 6.52063 12.9722C5.99002 12.455 5.70431 11.017 5.90839 9.89979C6.02063 9.2791 6.41859 8.27565 6.55124 8.27565C6.60226 8.27565 6.63288 8.22392 6.63288 8.1722C6.63288 8.03772 6.88798 7.7791 7.39818 7.39634C7.939 6.99289 8.16349 6.75496 8.09206 6.68254C8.05124 6.65151 8.10226 6.62048 8.1839 6.62048C8.39818 6.62048 8.46961 6.40323 8.46961 5.79289C8.46961 5.23427 8.60226 4.85151 8.9492 4.41703L9.1839 4.12737L8.97982 3.71358C8.86757 3.49634 8.79614 3.31013 8.82675 3.31013C8.85737 3.31013 8.83696 3.21703 8.77573 3.09289C8.70431 2.9791 8.6839 2.76185 8.72471 2.61703C8.77573 2.3791 8.79614 2.36875 9.01043 2.51358C9.13288 2.58599 9.30635 2.7722 9.40839 2.90668ZM10.5512 3.03082C10.5717 3.13427 10.5308 3.24806 10.4492 3.2791C10.2859 3.34117 9.97982 3.12392 10.0512 2.99979C10.0819 2.94806 10.0614 2.88599 10.0002 2.84461C9.939 2.80323 9.9492 2.71013 10.0308 2.57565C10.1533 2.3791 10.1533 2.3791 10.3268 2.60668C10.4186 2.74117 10.5206 2.92737 10.5512 3.03082ZM11.5512 12.8274C12.0206 12.9619 11.9798 13.2412 11.49 13.2412C11.1125 13.2412 10.7553 13.0136 10.8574 12.8481C10.9492 12.6929 11.0717 12.6929 11.5512 12.8274Z" fill="black"/>
<path d="M10.7857 4.93481C10.6734 5.0486 10.704 5.43136 10.8367 5.56584C11.0203 5.75205 11.204 5.72101 11.3265 5.47274C11.4999 5.15205 11.0305 4.67619 10.7857 4.93481Z" fill="black"/>
</svg>
