<svg width="15" height="15" viewBox="0 0 15 15" fill="none" xmlns="http://www.w3.org/2000/svg">
<path d="M3.61289 1.06506C2.68789 1.38085 2.37539 2.15058 2.92539 2.79203C3.08789 2.97953 3.17539 3.1769 3.12539 3.21637C2.77539 3.51243 2.45039 5.32822 2.75039 5.32822C2.81289 5.32822 2.83789 5.38743 2.80039 5.45651C2.76289 5.53545 2.80039 5.70322 2.86289 5.84137C2.96289 6.05848 2.92539 6.13743 2.50039 6.46308C1.72539 7.06506 1.33789 7.87427 1.40039 8.74269C1.43789 9.13743 1.53789 9.53216 1.62539 9.62098C1.71289 9.70979 1.73789 9.83808 1.68789 9.93677C1.62539 10.0355 1.60039 10.1539 1.61289 10.1933C1.62539 10.2427 1.57539 10.2526 1.51289 10.2131C1.28789 10.1144 1.08789 10.5881 1.08789 11.1802C1.10039 12.3447 2.05039 13.3019 3.41289 13.5091C4.47539 13.6769 4.96289 13.6276 5.35039 13.3315C5.70039 13.0848 5.75039 13.0749 7.32539 13.0749C8.90039 13.0848 8.95039 13.0848 9.30039 13.3512C9.82539 13.7361 10.9629 13.7361 11.9629 13.3414C12.6504 13.0848 13.5879 12.1966 13.6379 11.7723C13.6754 11.4664 13.6754 11.3677 13.5879 10.894C13.5379 10.6078 13.3879 10.2723 13.2504 10.144C13.0129 9.89729 13.0129 9.88743 13.2629 9.3644C13.7129 8.45651 13.3129 7.24269 12.3254 6.49269L11.8504 6.12756L12.0379 5.43677C12.2379 4.68677 12.1629 4.05519 11.8254 3.40387C11.6254 3.03874 11.6254 3.00914 11.8629 2.75256C12.2629 2.32822 12.2879 2.06177 11.9754 1.57822C11.5254 0.877557 10.3254 0.769005 9.55039 1.37098L9.18789 1.64729L8.21289 1.52887C7.68789 1.45979 7.12539 1.42032 6.96289 1.44006C5.92539 1.55848 5.75039 1.59795 5.81289 1.7065C5.86289 1.77558 5.77539 1.69664 5.62539 1.54861C5.13789 1.06506 4.25039 0.847952 3.61289 1.06506ZM4.80039 1.7065C4.96289 1.83479 5.11289 1.99269 5.15039 2.07164C5.18789 2.18019 5.33789 2.18019 6.05039 2.07164C6.83789 1.95322 7.77539 1.97295 9.03789 2.13085C9.46289 2.19006 9.55039 2.16045 9.95039 1.83479C10.4504 1.42032 10.8754 1.38085 11.2504 1.69664C11.6004 1.99269 11.5629 2.25914 11.1254 2.6144L10.7504 2.91045L11.0629 3.38414C11.4754 4.04532 11.5754 4.76572 11.3254 5.51572C11.0629 6.34466 11.0504 6.31506 11.7004 6.72953C12.0254 6.93677 12.2504 7.10453 12.2129 7.10453C12.1629 7.10453 12.2754 7.31177 12.4379 7.55848C13.1504 8.62427 12.6504 9.7394 11.2879 10.1045C9.55039 10.5683 8.56289 9.58151 10.0129 8.83151C10.7254 8.46637 10.7879 7.87427 10.1004 8.18019C7.30039 9.37427 9.01289 11.4861 11.9504 10.4697C12.5754 10.2427 12.8129 10.3808 12.9504 11.042C13.1504 12.0585 11.9754 13.1243 10.6379 13.144C9.70039 13.1539 9.36289 12.8183 9.68789 12.2065C9.93789 11.723 9.92539 11.644 9.57539 11.644C9.28789 11.644 9.20039 11.7526 8.96289 12.3447C8.85039 12.6111 7.41289 12.7197 6.18789 12.5519C5.76289 12.4927 5.68789 12.4433 5.65039 12.2164C5.60039 11.871 5.17539 11.5651 4.97539 11.723C4.86289 11.8118 4.86289 11.9203 4.97539 12.167C5.36289 13.0157 4.75039 13.3315 3.33789 13.0157C2.12539 12.7493 1.30039 11.3578 1.92539 10.6078C2.22539 10.2427 2.40039 10.223 3.00039 10.4598C4.58789 11.1012 6.17539 10.5091 5.93789 9.3644C5.81289 8.8019 4.43789 7.93348 4.13789 8.22953C4.02539 8.33808 4.11289 8.44664 4.58789 8.78216C5.36289 9.31506 5.42539 9.40387 5.23789 9.80848C4.76289 10.8447 2.00039 9.86769 2.00039 8.66374C2.00039 8.07164 2.41289 7.29203 3.01289 6.78874C3.50039 6.37427 3.61289 6.21637 3.56289 6.01901C3.20039 4.58808 3.21289 4.31177 3.71289 3.47295L4.03789 2.94993L3.71289 2.68348C3.21289 2.25914 3.21289 1.85453 3.72539 1.63743C4.20039 1.43019 4.46289 1.44993 4.80039 1.7065Z" fill="currentColor"/>
<path d="M8.76293 3.68921C8.42543 4.005 8.82543 4.51816 9.25043 4.34053C9.57543 4.20237 9.57543 3.78789 9.26293 3.64974C8.95043 3.52145 8.93793 3.52145 8.76293 3.68921Z" fill="currentColor"/>
<path d="M5.25102 3.79801C5.06352 3.98551 5.26352 4.43945 5.53852 4.43945C5.80102 4.43945 6.15102 4.08419 6.10102 3.87695C6.05102 3.64998 5.47602 3.59077 5.25102 3.79801Z" fill="currentColor"/>
<path d="M6.66296 4.29275C6.46296 4.36183 6.13796 4.5592 5.95046 4.7467C5.30046 5.35854 5.76296 6.49341 6.67546 6.52302C6.82546 6.52302 7.07546 6.54275 7.25046 6.56249C8.82546 6.72039 9.62546 5.47696 8.50046 4.61841C8.21296 4.41118 7.88796 4.23354 7.77546 4.23354C7.66296 4.22368 7.43796 4.20394 7.30046 4.19407C7.15046 4.1842 6.86296 4.22368 6.66296 4.29275ZM7.81296 4.82565C8.05046 4.9342 8.25046 5.14144 8.33796 5.36841C8.41296 5.56578 8.42546 5.70394 8.37546 5.67433C8.31296 5.64473 8.23796 5.71381 8.18796 5.82236C8.07546 6.11841 7.55046 6.08881 7.56296 5.79275C7.57546 5.66446 7.62546 5.51644 7.67546 5.44736C7.96296 5.08223 7.87546 4.9342 7.37546 4.9342C6.80046 4.9342 6.66296 5.06249 6.87546 5.37828C7.11296 5.72367 6.93796 6.15789 6.62546 6.01973C5.92546 5.72367 6.43796 4.68749 7.31296 4.64802C7.38796 4.63815 7.61296 4.7171 7.81296 4.82565Z" fill="currentColor"/>
</svg>
