<svg width="15" height="15" viewBox="0 0 15 15" fill="none" xmlns="http://www.w3.org/2000/svg">
<path d="M7.69607 1.37841C7.4992 1.53044 7.3492 1.84463 7.25545 2.28044C7.18982 2.56423 7.1992 3.45612 7.25545 3.52706C7.29295 3.55747 7.25545 3.64868 7.18982 3.7399C7.1242 3.83112 6.95545 4.22639 6.81482 4.62166C6.47732 5.56423 5.97107 6.09125 4.96795 6.49666C4.5742 6.65882 4.0492 6.93247 3.81482 7.09463L3.38357 7.38855L3.25232 7.16558C2.89607 6.57774 2.68982 5.96963 2.53982 5.12841C2.35232 4.00341 2.2117 3.92233 1.60232 4.55071C0.0179483 6.1926 0.524198 8.83787 2.5492 9.5676C2.75545 9.63855 2.7742 10.0135 2.68982 11.9088C2.6617 12.5473 2.8867 13.5304 3.09295 13.7331C3.51482 14.1487 4.48045 13.9358 4.37732 13.4595C4.22732 12.821 4.21795 12.3041 4.33982 12.1318C4.45232 11.9595 4.47107 11.9798 4.59295 12.3852C4.90232 13.4392 5.19295 13.7838 5.7742 13.7838C6.28982 13.7838 6.50545 13.571 6.4117 13.1352C6.38357 12.9629 6.30857 12.7906 6.2617 12.7602C6.20545 12.7196 6.1492 12.4865 6.12107 12.2331C6.04607 11.5541 6.45857 10.8548 6.9367 10.8446C7.26482 10.8446 7.26482 10.8446 7.43357 11.5237C7.9867 13.8142 8.10857 14.0068 8.8867 13.9663C9.35545 13.9358 9.42107 13.9054 9.4492 13.7027C9.47732 13.4899 9.49607 13.4899 9.68357 13.6318C9.91795 13.8041 10.4336 13.8345 10.6961 13.6825C10.9117 13.5507 10.9304 13.1757 10.7429 12.7906C10.3304 11.9392 10.1992 9.99328 10.4898 9.28382C10.5929 9.05071 10.7054 8.50341 10.7429 8.07774C10.8086 7.2872 10.9304 7.09463 11.3054 7.20612C11.3523 7.22639 11.5773 7.20612 11.8117 7.16558C12.0461 7.12504 12.2523 7.09463 12.2804 7.10477C12.5992 7.23652 13.5929 6.10139 13.5929 5.6149C13.5929 5.31085 13.2273 4.8649 12.9836 4.8649C12.8617 4.8649 12.2523 4.36828 11.6242 3.76017C11.0523 3.20274 10.9867 3.09125 10.9304 2.66558C10.8461 2.01693 10.4992 1.2872 10.2742 1.25679C9.99295 1.21625 9.66482 1.68247 9.43045 2.45274C9.38357 2.63517 9.09295 2.70612 9.09295 2.54396C9.09295 2.42233 8.26795 1.43923 8.0617 1.3176C7.9492 1.25679 7.8367 1.27706 7.69607 1.37841ZM8.35232 2.35139C8.50232 2.53382 8.68982 2.82774 8.78357 3.01017C8.93357 3.31423 8.9617 3.32436 9.39295 3.27368C10.0211 3.1926 10.5929 3.45612 11.1836 4.09463C11.4554 4.37841 11.9148 4.78382 12.2242 5.00679C12.6273 5.29058 12.7398 5.42233 12.6461 5.48314C12.5336 5.55409 12.5429 5.62504 12.6742 5.87841L12.8336 6.1926L12.5429 6.38517C12.2429 6.58787 11.0054 6.76017 10.7242 6.64869C10.4242 6.52706 10.2179 6.87166 10.2179 7.4899C10.2086 8.82774 9.7492 9.83112 9.12107 9.83112C8.97107 9.83112 8.8867 9.9122 8.83982 10.1048C8.75545 10.4595 8.75545 12.375 8.83982 12.9527C8.90545 13.3683 8.89607 13.3886 8.6992 13.3581C8.53982 13.3379 8.45545 13.2061 8.33357 12.821C8.12732 12.1622 7.8742 10.9561 7.8742 10.6622C7.8742 10.196 7.48982 9.80071 7.37732 10.1554C7.32107 10.3581 5.70857 10.2973 5.60545 10.0845C5.46482 9.82098 5.29607 9.9122 5.0617 10.3581C4.93982 10.6014 4.60232 11.0372 4.30232 11.3311C3.7117 11.919 3.60857 12.2129 3.73982 12.9527C3.80545 13.3277 3.79607 13.3886 3.66482 13.3581C3.43982 13.3075 3.25232 12.8007 3.2617 12.223C3.27107 10.8142 3.34607 8.94936 3.39295 8.76693C3.42107 8.65544 3.46795 8.49328 3.4867 8.4122C3.58045 7.95612 4.1617 7.50004 5.23045 7.05409C6.24295 6.62841 6.32732 6.60814 6.4867 6.76017C6.64607 6.9122 6.66482 6.9122 6.84295 6.7399C7.06795 6.51693 7.0867 6.30409 6.88982 6.22301C6.7117 6.14193 6.7867 5.83787 7.03982 5.56423C7.13357 5.46287 7.24607 5.25004 7.2742 5.09801C7.35857 4.75341 7.67732 4.07436 7.7992 3.99328C7.84607 3.96287 7.86482 3.76017 7.82732 3.54733C7.75232 3.06085 7.86482 2.02706 7.9867 2.02706C8.04295 2.02706 8.20232 2.17909 8.35232 2.35139ZM10.3492 2.35139C10.4429 2.73652 10.4148 2.83787 10.2367 2.83787C9.98357 2.83787 9.9367 2.75679 10.0492 2.42233C10.1617 2.0676 10.2648 2.04733 10.3492 2.35139ZM2.0617 5.43247C2.0617 5.82774 2.42732 6.89193 2.7367 7.42909C2.9992 7.87504 3.01795 7.95612 2.9242 8.25004C2.85857 8.43247 2.8117 8.67571 2.8117 8.79733C2.8117 9.09125 2.74607 9.08112 2.23982 8.72639C1.17107 7.99666 0.927323 6.68923 1.63982 5.48314C1.89295 5.0372 2.0617 5.01693 2.0617 5.43247ZM9.79607 10.8142C9.92732 12.0507 9.96482 12.223 10.1242 12.6892L10.2929 13.1757H10.0773C9.60857 13.1757 9.12107 10.8649 9.49607 10.3581C9.66482 10.1352 9.73045 10.2264 9.79607 10.8142ZM5.8117 10.8446C5.85857 10.8446 5.78357 11.0575 5.6617 11.321C5.44607 11.7973 5.42732 12.3345 5.6242 12.6183C5.8117 12.8919 5.82107 13.1757 5.64295 13.1757C5.5117 13.1757 5.3992 13.0034 5.2117 12.5372C4.92107 11.7771 4.9117 11.7163 5.16482 11.3413C5.26795 11.1791 5.3242 11.0473 5.2867 11.0473C5.25857 11.0473 5.27732 10.9764 5.34295 10.8953C5.40857 10.8041 5.53045 10.7636 5.59607 10.794C5.67107 10.8244 5.76482 10.8446 5.8117 10.8446Z" fill="black"/>
<path d="M9.86189 4.48019C9.58064 4.78425 9.88064 5.42276 10.1994 5.19979C10.4244 5.04776 10.4525 4.78425 10.2556 4.55114C10.0681 4.32817 10.0119 4.31803 9.86189 4.48019Z" fill="black"/>
</svg>
