<svg width="15" height="15" viewBox="0 0 15 15" fill="none" xmlns="http://www.w3.org/2000/svg">
<path d="M6.25994 1.17776C5.26863 1.4486 4.56428 1.97985 4.56428 2.43818C4.56428 2.55276 4.44689 2.60485 4.14689 2.60485C3.05124 2.60485 2.19037 3.0736 1.77298 3.87568C1.5382 4.30276 1.49907 5.0736 1.68168 5.30276C1.77298 5.40693 1.70776 5.5111 1.47298 5.65693C0.468632 6.29235 0.442545 8.02151 1.42081 8.66735C1.61646 8.80276 1.85124 9.10485 1.9295 9.34443C2.25559 10.2403 3.48168 10.7611 4.72081 10.5319C5.25559 10.4382 5.41211 10.4486 5.68602 10.584C5.85559 10.6778 6.19472 10.7923 6.4295 10.8236C6.76863 10.8861 6.84689 10.9486 6.83385 11.1569C6.79472 11.7819 6.46863 12.959 6.18168 13.5423C5.88168 14.1465 6.0382 14.2507 7.26428 14.2611C8.90776 14.2715 9.1295 14.1569 8.81646 13.459C8.63385 13.0736 8.34689 11.8757 8.30776 11.3236C8.28168 11.0423 8.29472 11.0319 9.06428 11.0007C10.0425 10.9694 10.8382 10.6465 11.1252 10.1569C11.2686 9.92776 11.4382 9.80276 11.6991 9.7611C12.4686 9.64651 12.7034 9.58401 13.1208 9.35485C13.9817 8.89651 14.2947 7.77151 13.7469 7.14651C13.6034 6.97985 13.6165 6.8861 13.9034 6.46943C14.5947 5.42776 14.086 4.27151 12.7556 3.8861C12.1556 3.71943 12.0252 3.56318 11.9469 2.89651C11.9338 2.77151 11.1121 2.08401 10.9556 2.0736C10.786 2.05276 10.6686 2.03193 10.4338 1.9486C10.3295 1.90693 10.0686 1.89651 9.84689 1.90693C9.53385 1.92776 9.36428 1.85485 8.99907 1.53193C8.56863 1.15693 8.49037 1.1361 7.6295 1.09443C7.10776 1.0736 6.52081 1.10485 6.25994 1.17776ZM8.02081 1.77151C8.25559 1.84443 8.4382 2.02151 8.58168 2.30276C8.77733 2.70901 8.80341 2.72985 9.24689 2.65693C10.786 2.43818 11.5686 2.8861 11.1904 3.77151C11.0208 4.14651 11.1252 4.24026 11.8034 4.30276C12.8208 4.39651 13.2382 4.64651 13.3817 5.2611C13.473 5.65693 13.1469 6.42776 12.8208 6.59443C12.5991 6.70901 12.6121 7.03193 12.8338 7.18818C13.2252 7.43818 13.3425 7.97985 13.0947 8.3861C12.7947 8.90693 12.3512 9.10485 11.4121 9.16735C10.7338 9.20901 10.6295 9.25068 10.5904 9.4486C10.5121 9.86526 9.59907 10.4173 8.95994 10.4173C8.1382 10.4173 8.07298 10.3028 8.42515 9.60485C8.77733 8.91735 8.81646 8.61526 8.55559 8.4486C8.29472 8.28193 8.03385 8.5111 7.81211 9.10485C7.60341 9.68818 7.56428 9.68818 7.17298 9.15693C6.58602 8.39651 6.46863 8.30276 6.14255 8.3861C5.79037 8.46943 5.84255 8.65693 6.53385 9.5736C6.82081 9.92776 7.04255 10.2507 7.04255 10.2819C7.04255 10.3965 6.29907 10.1778 6.0382 9.97985C5.81646 9.81318 5.65994 9.78193 5.32081 9.83401C4.14689 10.0111 3.65124 10.0215 3.36428 9.87568C2.97298 9.66735 2.47733 8.91735 2.56863 8.65693C2.62081 8.5111 2.5295 8.40693 2.24255 8.29235C1.09472 7.8236 1.18602 6.50068 2.41211 5.92776C2.94689 5.66735 2.93385 5.72985 2.59472 5.27151C2.34689 4.93818 2.33385 4.84443 2.47733 4.39651C2.72515 3.58401 3.09037 3.34443 4.30341 3.24026C4.99472 3.17776 5.02081 3.16735 5.29472 2.70901C5.64689 2.11526 5.99907 1.86526 6.62515 1.77151C7.34255 1.65693 7.64255 1.65693 8.02081 1.77151Z" fill="black"/>
<path d="M8.19021 3.65596C7.73368 3.86429 8.08586 4.43721 8.58151 4.30179C8.86847 4.21846 9.03803 3.85388 8.85542 3.68721C8.68586 3.52054 8.50325 3.51013 8.19021 3.65596Z" fill="black"/>
<path d="M6.01181 4.10397C5.7379 4.36438 5.95964 4.70813 6.36399 4.66647C6.66399 4.64563 6.71616 4.58313 6.71616 4.32272C6.71616 3.96855 6.28573 3.83313 6.01181 4.10397Z" fill="black"/>
<path d="M10.1988 5.12613C9.78145 5.45946 10.3162 6.03238 10.8119 5.78238C11.0467 5.66779 10.9684 5.21988 10.7075 5.10529C10.3945 4.96988 10.3945 4.96988 10.1988 5.12613Z" fill="black"/>
<path d="M4.31596 5.35547C4.04204 5.6263 4.19857 5.88672 4.629 5.88672C4.98117 5.88672 5.0203 5.85547 5.0203 5.57422C5.0203 5.22005 4.58987 5.08464 4.31596 5.35547Z" fill="black"/>
<path d="M7.39513 5.69834C7.22557 5.82334 7.30383 6.21917 7.51253 6.36501C7.91687 6.63584 8.42557 6.10459 8.08644 5.78167C7.91687 5.61501 7.53861 5.57334 7.39513 5.69834Z" fill="black"/>
<path d="M5.50372 6.79175C5.54285 7.17717 5.96024 7.31258 6.2472 7.04175C6.52111 6.78133 6.29937 6.45842 5.8559 6.45842C5.49068 6.45842 5.46459 6.47925 5.50372 6.79175Z" fill="black"/>
<path d="M8.79028 6.85529C8.33376 7.10529 8.59463 7.54279 9.1555 7.48029C9.53376 7.43862 9.62506 7.09487 9.31202 6.90737C9.05115 6.75112 8.98593 6.74071 8.79028 6.85529Z" fill="black"/>
<path d="M10.8506 7.20981C10.6028 7.40772 10.668 7.68897 10.955 7.76189C11.4767 7.89731 11.7376 7.40772 11.2941 7.16814C11.0985 7.06397 11.0332 7.06397 10.8506 7.20981Z" fill="black"/>
<path d="M3.45584 7.7094C3.27323 8.16773 4.02975 8.42815 4.30367 8.01148C4.42106 7.85523 4.40802 7.76148 4.29062 7.6469C4.05584 7.42815 3.54715 7.4594 3.45584 7.7094Z" fill="black"/>
</svg>
