<svg width="15" height="15" viewBox="0 0 15 15" fill="none" xmlns="http://www.w3.org/2000/svg">
<path d="M8.54592 1.4658C7.60707 1.95834 7.29412 2.66356 7.3157 4.30909C7.33728 5.14864 7.13225 6.57028 6.95959 6.93968C6.70059 7.4658 6.56031 7.54416 4.70419 8.29416C3.90563 8.60759 3.30131 9.21207 2.92362 10.0852C2.63225 10.7457 2.63225 10.7568 2.50275 10.477C2.3193 10.0628 2.44879 9.31282 2.8157 8.60759C3.45239 7.39864 3.5711 7.05162 3.5711 6.45834C3.58189 5.42849 3.07469 4.63371 2.45959 4.72326C2.23297 4.75685 2.21138 4.82401 2.15743 5.5964C2.11426 6.29043 2.03872 6.54789 1.74736 7.05162C1.03513 8.29416 0.83009 8.85386 0.776133 9.69341C0.711385 10.8464 1.01354 11.7643 1.70419 12.436C2.38405 13.1188 2.52433 13.2083 2.86966 13.2755C3.03153 13.3091 3.27973 13.4322 3.43081 13.5442C3.79772 13.8464 4.3157 13.9807 5.44879 14.0591C6.89484 14.171 7.45599 13.8688 6.99196 13.2531C6.938 13.1748 6.95959 13.0964 7.07829 13.0516C7.40203 12.9173 7.53153 12.9845 7.76894 13.3762C8.0711 13.8912 8.28692 14.0031 9.00995 14.0031C9.65743 14.0143 9.92721 13.8688 9.92721 13.5218C9.92721 13.3091 9.938 13.3091 10.197 13.477C10.3373 13.5777 10.6502 13.6561 10.8984 13.6561C11.7617 13.6561 11.9776 12.9061 11.2653 12.4024C11.0603 12.2568 10.8769 12.0442 10.8445 11.921C10.6394 10.8688 10.5639 10.1076 10.6287 9.76058C10.6718 9.5367 10.7366 8.5964 10.7797 7.66729L10.8445 5.98819L11.6646 5.80909C13.5099 5.4061 14.3517 4.55535 13.9092 3.5367C13.7366 3.1561 11.8481 1.86879 11.0063 1.57774C9.99196 1.20834 9.11786 1.17476 8.54592 1.4658ZM11.1035 2.20461C11.4056 2.35013 12.9272 3.33521 13.1538 3.54789C13.1862 3.57028 13.1107 3.65983 12.992 3.74938C12.7869 3.9061 12.7977 3.91729 13.0567 4.14118L13.3265 4.36506L13.0567 4.57774C12.7977 4.79043 12.7869 4.79043 12.2581 4.58894C11.5351 4.29789 11.2222 4.55535 11.8265 4.93595L12.0963 5.10386L11.4704 5.24938C11.1251 5.32774 10.7042 5.42849 10.5315 5.46207L10.2294 5.54043L10.197 7.44341C10.1646 9.41356 10.0891 9.86132 9.61426 10.8352C9.3121 11.4397 9.17182 11.518 9.17182 11.0591C9.17182 10.4098 9.0639 10.186 8.76174 10.186C8.49196 10.186 8.49196 10.186 8.55671 10.936C8.59987 11.3613 8.63225 11.9322 8.63225 12.2233C8.63225 12.6151 8.697 12.8277 8.91282 13.0852L9.1934 13.4322H8.80491C8.39484 13.4322 7.98477 12.9733 7.98477 12.5031C7.98477 12.1897 7.70419 12.1561 7.197 12.4136C6.47397 12.7718 6.37685 12.7494 6.62505 12.2457C7.0675 11.3725 6.26894 10.2419 5.30851 10.3986C4.75815 10.4994 4.71498 10.936 5.25455 10.88C5.92362 10.8128 6.37685 11.6524 6.04232 12.324C5.97757 12.436 5.85887 12.5367 5.78333 12.5367C5.697 12.5367 5.5675 12.6151 5.49196 12.7158C5.3193 12.9285 5.59987 13.2083 5.99915 13.2083C6.12865 13.2083 6.30131 13.2867 6.37685 13.3874C6.52793 13.5777 6.03153 13.5665 4.49915 13.3651C3.36606 13.2195 2.86966 11.7755 3.47397 10.3986C3.92721 9.36879 4.54232 8.88744 5.97757 8.43968C6.99196 8.12625 7.36966 7.82401 7.53153 7.20834C7.77973 6.26804 7.85527 5.67476 7.88764 4.38744C7.93081 3.02177 8.06031 2.57401 8.53513 2.20461C9.09628 1.77923 10.2186 1.77923 11.1035 2.20461ZM3.02074 6.46953C3.02074 6.82774 2.89124 7.20834 2.53513 7.92476C1.70419 9.60386 1.66103 10.3427 2.34088 11.283C2.49196 11.4845 2.57829 11.686 2.54592 11.7195C2.51354 11.7531 2.55671 11.9546 2.64304 12.1561C2.84808 12.6598 2.697 12.6374 2.15743 12.0665C1.83369 11.7195 1.66103 11.4061 1.48836 10.824C1.16462 9.69341 1.28333 9.07774 2.1898 7.42103C2.5675 6.73819 2.83728 5.86506 2.74016 5.66356C2.70779 5.5964 2.76174 5.64118 2.84808 5.75312C2.9452 5.88744 3.02074 6.18968 3.02074 6.46953ZM10.251 11.7531C10.251 12.0777 10.6179 12.7382 10.8445 12.8277C11.1358 12.9509 11.0063 13.0516 10.6287 13.0068C9.97038 12.9285 9.53872 12.0218 9.88405 11.4733C10.0891 11.1486 10.251 11.2606 10.251 11.7531Z" fill="black"/>
<path d="M8.50226 3.15567C8.16773 3.42432 8.16773 3.76014 8.49147 4.07358C8.84759 4.4094 9.02025 4.29746 8.82601 3.86089C8.71809 3.61462 8.71809 3.53626 8.82601 3.49149C8.99867 3.43552 8.99867 3.02134 8.81521 3.02134C8.73967 3.02134 8.59939 3.0885 8.50226 3.15567Z" fill="black"/>
<path d="M10.3161 3.27993C9.89523 3.59336 10.1974 3.91799 10.8233 3.81724C10.942 3.79485 10.9096 3.41426 10.7693 3.26873C10.6075 3.10082 10.5535 3.10082 10.3161 3.27993Z" fill="black"/>
</svg>
