<svg width="15" height="15" viewBox="0 0 15 15" fill="none" xmlns="http://www.w3.org/2000/svg">
<path d="M3.13666 1.37096C2.77025 1.59596 2.59849 2.23881 2.57559 3.44953C2.56414 4.08167 2.50689 4.44596 2.39238 4.57453C2.11758 4.89596 1.94582 5.23881 1.94582 5.4531C1.94582 5.89238 1.81987 5.99953 1.3046 5.99953C1.02979 5.99953 0.800781 6.04238 0.800781 6.08524C0.800781 6.26738 1.08704 6.4281 1.43055 6.4281C1.73971 6.4281 1.80841 6.48167 1.91147 6.8031C2.04887 7.21024 2.02597 7.2531 1.54506 7.3281C1.36185 7.36024 1.14429 7.45667 1.04124 7.54238C0.800781 7.7781 1.16719 7.88524 1.72826 7.74596C2.16338 7.63881 2.17483 7.64953 2.59849 8.14238C2.83895 8.42096 3.20536 8.74238 3.41147 8.83881C3.83513 9.06381 3.83513 9.08524 3.60612 9.62096C3.17101 10.5745 2.9649 12.7174 3.22826 13.446C3.46872 14.121 4.4649 14.3674 5.02597 13.8852C5.26643 13.6817 5.99925 13.7674 6.40002 14.0567C6.70918 14.271 7.47635 14.3138 7.98017 14.1317C8.15193 14.0674 8.7359 14.0031 9.27406 13.9924C9.86948 13.9817 10.3618 13.9174 10.5336 13.8317C10.6939 13.746 11.026 13.6817 11.2779 13.7031C13.0641 13.7888 14.3237 12.4924 14.3351 10.5531C14.3466 9.68524 14.3237 9.61024 14.0031 9.23524C13.5451 8.71024 12.8695 8.62453 12.4229 9.04238C12.1481 9.29953 12.1367 9.3531 12.1596 10.4888C12.1939 11.6031 12.1825 11.6674 11.9191 11.9352C11.5069 12.3424 11.3924 12.2781 11.3695 11.646C11.3351 10.9281 10.9916 10.1674 10.3962 9.5031L9.93819 8.98881L10.6023 8.42096C11.1748 7.9281 11.3122 7.86381 11.5412 7.93881C12.2741 8.20667 12.6405 7.93881 11.9649 7.63881C11.587 7.46738 11.5641 7.43524 11.6328 7.08167C11.7359 6.48167 11.7702 6.4281 12.0451 6.4281C12.3771 6.4281 12.6405 6.26738 12.5489 6.1281C12.5145 6.07453 12.3313 6.03167 12.1367 6.04238C11.7702 6.06381 11.6786 5.94596 11.6786 5.48524C11.6786 5.32453 11.5412 4.98167 11.3809 4.71381C11.1061 4.27453 11.0832 4.11381 11.0603 3.04238C11.0489 2.02453 11.0145 1.81024 10.8313 1.61738C10.4077 1.1781 9.91528 1.33881 8.93055 2.21738C8.51834 2.59238 8.35803 2.66738 8.12903 2.61381C7.96872 2.58167 7.24735 2.54953 6.50307 2.56024H5.17483L4.84277 2.20667C4.22445 1.54238 3.45727 1.16738 3.13666 1.37096ZM4.08704 2.3781C4.31605 2.57096 4.62521 2.83881 4.77406 2.9781C5.01452 3.19238 5.10612 3.22453 5.52979 3.14953C6.17101 3.04238 7.68246 3.07453 8.03742 3.2031C8.47254 3.3531 8.62139 3.29953 9.14811 2.80667C9.82368 2.16381 10.1786 1.96024 10.3046 2.14238C10.4191 2.32453 10.5336 3.25667 10.4878 3.8031C10.4649 4.1031 10.5565 4.4031 10.7855 4.81024C11.2206 5.59238 11.2206 6.10667 10.797 6.10667C10.0412 6.10667 9.61757 6.23524 9.61757 6.46024C9.61757 6.6531 9.66338 6.66381 10.3618 6.59953C11.1748 6.52453 11.2321 6.5781 10.9802 7.1031C10.8657 7.33881 10.8084 7.34953 10.2817 7.30667C9.60612 7.24238 9.54887 7.45667 10.1786 7.66024L10.568 7.7781L10.1786 8.08881C9.96109 8.24953 9.51452 8.50667 9.19391 8.63524C8.7359 8.8281 8.60994 8.92453 8.66719 9.06381C8.71299 9.18167 8.8275 9.21381 9.03361 9.18167C9.27406 9.13881 9.38857 9.2031 9.67483 9.54596C9.86948 9.78167 10.1214 10.1031 10.2588 10.2638C10.6252 10.7031 10.7626 11.2067 10.7626 12.0638C10.7626 13.1031 10.5451 13.3602 9.56032 13.446C8.56414 13.5317 8.52979 13.4781 8.88475 12.4924C9.10231 11.8924 9.14811 11.6245 9.05651 11.5388C8.8504 11.346 8.54124 11.721 8.24353 12.5031C7.93437 13.371 7.70536 13.6388 7.3962 13.5638C7.27025 13.5317 7.10994 13.5531 7.02979 13.6174C6.81223 13.7781 6.72063 13.371 6.85803 12.8888C7.08704 12.0424 7.06414 11.3031 6.81223 11.3031C6.62903 11.3031 6.56032 11.421 6.44582 11.946C6.22826 12.9638 6.11376 13.1781 5.7817 13.1781H5.49544L5.51834 12.246C5.55269 11.4424 5.52979 11.3031 5.35803 11.271C5.20918 11.2495 5.14048 11.3781 5.03742 11.8602C4.90002 12.5031 4.69391 13.2745 4.60231 13.4245C4.57941 13.4674 4.47635 13.446 4.38475 13.371C4.19009 13.221 4.10994 13.2317 3.98399 13.4245C3.82368 13.671 3.76643 13.3924 3.76643 12.2674C3.76643 11.5067 3.83513 10.9067 3.96109 10.5102C4.29315 9.43881 4.3504 9.33167 4.67101 9.29953C5.19773 9.24596 5.07177 9.02096 4.3275 8.66738C3.18246 8.14238 2.59849 7.49953 3.25116 7.49953C3.40002 7.49953 3.58322 7.42453 3.66338 7.33881C3.85803 7.12453 3.57177 7.0281 3.04506 7.11381C2.69009 7.1781 2.64429 7.15667 2.54124 6.85667L2.41528 6.53524L2.8962 6.61024C3.58322 6.70667 3.60612 6.70667 3.65193 6.58881C3.70918 6.47096 3.29696 6.25667 2.8275 6.16024C2.52979 6.10667 2.51834 6.07453 2.58704 5.64596C2.62139 5.39953 2.77025 5.02453 2.9191 4.82096C3.12521 4.49953 3.18246 4.2531 3.22826 3.37453C3.28551 1.89596 3.36567 1.79953 4.08704 2.3781ZM13.3733 9.56738C13.442 9.64238 13.5565 9.93167 13.6367 10.2102C13.9916 11.5602 13.087 12.921 11.7015 13.1352C11.0489 13.2317 11.0718 13.0495 11.7473 12.7281C12.7435 12.2674 13.0183 11.6995 12.8237 10.5638C12.755 10.1674 12.7321 9.73881 12.7664 9.63167C12.8466 9.39596 13.1901 9.36381 13.3733 9.56738Z" fill="currentColor"/>
<path d="M4.84312 5.16331C4.37366 5.72046 4.80877 6.51331 5.32404 6.04189C5.62175 5.76331 5.44999 5.03474 5.09503 5.03474C5.01488 5.03474 4.90037 5.09903 4.84312 5.16331Z" fill="currentColor"/>
<path d="M8.26715 5.1637C8.03814 5.37799 8.0954 5.97799 8.37021 6.10656C8.67937 6.26728 8.88547 6.18156 8.97708 5.86013C9.12593 5.27085 8.64501 4.81013 8.26715 5.1637Z" fill="currentColor"/>
<path d="M6.30917 6.38579C6.01146 6.58936 6.00001 6.79293 6.29772 7.0715C6.59543 7.35008 6.58398 7.47865 6.24047 7.62865C6.00001 7.72508 5.91986 7.71436 5.72521 7.55365C5.4733 7.33936 5.20994 7.4465 5.32444 7.72508C5.4504 8.02508 5.95421 8.15365 6.33208 7.98222C6.64124 7.84293 6.69849 7.84293 6.87024 7.98222C7.28246 8.33579 8.24429 8.03579 8.24429 7.55365C8.24429 7.32865 7.96948 7.35008 7.74047 7.5965C7.35116 7.99293 6.92749 7.50008 7.25956 7.05008C7.47711 6.76079 7.50001 6.43936 7.30536 6.37508C6.89314 6.2465 6.52673 6.2465 6.30917 6.38579Z" fill="currentColor"/>
</svg>
