<svg width="15" height="15" viewBox="0 0 15 15" fill="none" xmlns="http://www.w3.org/2000/svg">
<path d="M4.0879 1.46985C3.83438 1.8372 3.8555 2.8474 4.11959 3.58209L4.34142 4.16373L4.05621 4.76577C3.89776 5.0923 3.76043 5.57189 3.73931 5.8372C3.72874 6.1025 3.68649 6.3576 3.6548 6.40862C3.51748 6.62291 4.42593 7.73515 5.11255 8.19434L5.38719 8.37801L5.1548 8.68413C5.01748 8.8576 4.78508 9.29638 4.63719 9.67393L4.35198 10.3576L4.2886 10.0005C4.25691 9.80658 4.18297 9.29638 4.11959 8.87801C3.91888 7.56169 3.29564 6.53107 2.54564 6.31679C0.517475 5.73515 0.454095 9.8474 2.45057 11.8576C2.93649 12.3372 4.22522 13.0311 4.42593 12.9188C4.47874 12.8882 4.59494 12.9494 4.69001 13.0515C5.12311 13.5107 7.34142 13.776 7.47874 13.378C7.51043 13.2862 7.58438 13.3066 7.73226 13.4392C8.05973 13.725 8.99987 13.6943 9.29564 13.3882C9.57029 13.1025 9.95057 13.1025 10.352 13.378C10.69 13.6229 11.6407 13.6739 12.021 13.4801C12.3379 13.3168 12.4118 12.9903 12.2006 12.6943C12.0632 12.4801 12.0421 12.327 12.1266 11.8066C12.2428 11.0617 12.1161 9.89842 11.8309 9.11271L11.6302 8.57189L11.9999 8.41883C12.5597 8.19434 13.5844 7.16373 13.6583 6.73515C13.7745 6.16373 13.6372 5.52087 13.2675 4.79638C12.94 4.16373 12.94 4.11271 13.0773 3.72495C13.2992 3.1025 13.2992 1.93924 13.0668 1.6025C12.7393 1.11271 11.8942 1.29638 10.9647 2.05148C10.521 2.40862 10.4471 2.43924 10.1724 2.3372C9.69705 2.16373 7.73226 2.11271 7.13015 2.26577L6.60198 2.39842L6.17945 2.02087C5.34494 1.26577 4.39424 1.02087 4.0879 1.46985ZM5.12311 1.93924C5.271 1.99026 5.66184 2.27597 5.96818 2.56169C6.39071 2.94944 6.58086 3.06169 6.67593 2.99026C7.07733 2.68413 8.38719 2.61271 9.70762 2.81679C10.7323 2.96985 11.028 2.94944 11.1231 2.71475C11.2182 2.48005 12.1161 1.93924 12.4013 1.93924C12.6654 1.93924 12.6759 1.95964 12.6759 2.56169C12.6759 2.95964 12.602 3.3474 12.4541 3.67393L12.2323 4.16373L12.5175 4.5923C12.7921 5.02087 13.1302 5.81679 13.0668 5.87801C13.0456 5.89842 12.7499 5.71475 12.4013 5.48005C11.2393 4.66373 10.6478 4.38822 10.0456 4.38822C8.54564 4.38822 8.77804 6.04128 10.3942 6.89842C10.8273 7.13311 12.1372 7.46985 12.2745 7.38822C12.3379 7.3474 12.3696 7.37801 12.3379 7.45964C12.2745 7.66373 11.0914 8.24536 10.4154 8.41883C9.55973 8.63311 8.45057 8.70454 7.75339 8.58209C7.4048 8.52087 6.99283 8.43924 6.81325 8.40862C6.42241 8.3474 5.26043 7.73515 5.19705 7.57189C5.17593 7.49026 5.28156 7.44944 5.48226 7.44944C5.67241 7.44944 6.07381 7.3576 6.38015 7.25556C8.04917 6.69434 8.9048 5.42903 8.13367 4.68413C7.51043 4.08209 6.40128 4.39842 4.99635 5.58209C4.43649 6.05148 4.33086 6.1025 4.33086 5.92903C4.33086 5.80658 4.38367 5.71475 4.43649 5.71475C4.521 5.71475 4.521 5.65352 4.44705 5.54128C4.37311 5.39842 4.42593 5.21475 4.66888 4.77597L4.99635 4.18413L4.75339 3.65352C4.38367 2.8372 4.39424 1.8372 4.76395 1.8372C4.80621 1.8372 4.96466 1.87801 5.12311 1.93924ZM7.55269 5.3372C7.59494 5.45964 7.56325 5.70454 7.49987 5.86781C7.38367 6.16373 7.37311 6.16373 7.22522 5.98005C7.04564 5.73515 7.03508 5.23515 7.21466 5.17393C7.44705 5.08209 7.49987 5.1025 7.55269 5.3372ZM10.5421 5.43924C10.5949 5.70454 10.4787 6.12291 10.352 6.12291C10.2886 6.12291 10.2463 6.03107 10.2463 5.92903C10.2463 5.81679 10.2041 5.69434 10.1407 5.66373C10.0879 5.63311 10.0351 5.51067 10.0351 5.39842C10.0351 5.13311 10.4893 5.17393 10.5421 5.43924ZM2.7886 7.11271L3.08438 7.38822L2.61959 7.55148C2.36607 7.63311 2.02804 7.78618 1.86959 7.89842C1.51043 8.13311 1.48931 8.11271 1.6055 7.57189C1.69001 7.21475 1.76395 7.1025 2.0386 6.99026C2.48226 6.79638 2.46114 6.79638 2.7886 7.11271ZM3.51748 8.73515C3.55973 8.96985 3.50691 9.02087 2.99987 9.23515C2.68297 9.36781 2.31325 9.6025 2.16536 9.75556C1.84846 10.0821 1.82733 10.0719 1.73226 9.52087C1.65832 9.05148 1.81677 8.88822 2.61959 8.61271C3.23226 8.39842 3.4541 8.42903 3.51748 8.73515ZM8.29212 9.15352C9.07381 9.19434 9.58086 9.16373 10.2358 9.03107C11.1865 8.8474 11.3027 8.87801 11.3027 9.3372C11.3027 9.45964 11.3555 9.6025 11.4189 9.66373C11.6196 9.8576 11.6618 11.6127 11.4823 12.1637C11.3449 12.5821 11.3449 12.6535 11.4928 12.7964C11.7252 13.0107 11.6407 13.0515 11.0914 12.9698L10.6161 12.9086L10.6055 12.0413C10.5949 10.878 10.5738 10.6943 10.4576 10.5107C10.278 10.2352 10.0985 10.5821 10.0668 11.2862C10.0456 11.6535 10.014 12.0515 9.99283 12.1739C9.96114 12.2964 9.94001 12.4596 9.94001 12.5209C9.92945 12.6025 9.79212 12.6535 9.61255 12.6535C9.43297 12.6535 9.29564 12.5923 9.28508 12.5209C9.27452 12.4596 9.25339 12.1331 9.23226 11.8168C9.11607 10.2658 8.7041 10.3474 8.73579 11.9086L8.75691 13.0311L8.37663 13.0107C7.93297 13.0005 7.79564 12.6943 7.65832 11.327C7.56325 10.3882 7.23579 10.2045 7.13015 11.0209C7.06677 11.4596 7.05621 11.4698 6.72874 11.2147C6.43297 11.0005 6.01043 10.9801 5.93649 11.1943C5.91536 11.2658 6.06325 11.4188 6.26395 11.5311C6.63367 11.7454 6.92945 12.225 6.83438 12.4698C6.81325 12.5413 6.8555 12.6841 6.95057 12.776C7.09846 12.9494 7.07733 12.9596 6.64424 12.9801C5.53508 13.0107 5.16536 12.8474 4.91184 12.1943C4.59494 11.4086 4.89071 9.99026 5.56677 9.12291C5.7041 8.94944 5.80973 8.75556 5.80973 8.69434C5.80973 8.62291 6.08438 8.68413 6.51748 8.8372C7.02452 9.02087 7.521 9.11271 8.29212 9.15352ZM3.71818 10.3372C3.74987 10.5107 3.64424 10.7045 3.36959 11.0209C2.97874 11.4596 2.96818 11.4698 2.75691 11.276C2.63015 11.1739 2.53508 11.0413 2.53508 10.9698C2.53508 10.8372 3.14776 10.2556 3.38015 10.1739C3.64424 10.0821 3.67593 10.0923 3.71818 10.3372ZM4.26748 11.9086L4.33086 12.3372L4.01395 12.2352C3.57029 12.0821 3.5386 11.9903 3.81325 11.6229C4.07733 11.2556 4.1724 11.3168 4.26748 11.9086Z" fill="currentColor"/>
<path d="M4.90092 2.87803C5.03824 3.83721 5.24951 3.99027 5.73542 3.45966L6.0312 3.13313L5.78824 2.88823C5.55585 2.65354 5.05937 2.34742 4.90092 2.34742C4.85866 2.34742 4.86923 2.58211 4.90092 2.87803Z" fill="currentColor"/>
<path d="M11.6303 2.72413C11.1972 3.1425 11.0705 3.46903 11.3345 3.46903C11.4191 3.46903 11.5669 3.56086 11.6726 3.67311C11.9261 3.93842 12 3.92821 12.1268 3.59148C12.3275 3.09148 12.3486 2.68331 12.2113 2.48944C12.074 2.31597 12.0423 2.32617 11.6303 2.72413Z" fill="currentColor"/>
<path d="M8.26056 6.65413C8.07042 6.8378 8.10211 7.0929 8.34507 7.29699C8.83099 7.71535 8.47183 8.05209 7.95423 7.65413C7.67958 7.45005 7.5 7.46025 7.5 7.70515C7.5 8.19494 9.23239 8.42964 9.87676 8.02147C10.3415 7.72556 10.1514 7.45005 9.65493 7.70515C9.03169 8.02147 8.76761 7.72556 9.24296 7.24596C9.48592 7.00107 9.50704 6.92964 9.41197 6.74596C9.27465 6.50107 8.48239 6.43984 8.26056 6.65413Z" fill="currentColor"/>
</svg>
