<svg width="15" height="15" viewBox="0 0 15 15" fill="none" xmlns="http://www.w3.org/2000/svg">
<path d="M2.58185 1.21973C2.13072 1.68848 1.99538 2.69889 2.25478 3.53223C2.33373 3.79264 2.32245 3.94889 2.18711 4.18848C2.09689 4.35514 1.98411 4.71973 1.95027 5.00098C1.8826 5.50098 1.87132 5.52181 1.53298 5.49056C1.04802 5.45931 1.07057 5.75098 1.56681 5.89681C2.11944 6.06348 2.36756 6.66764 1.89388 6.66764C1.53298 6.66764 1.30741 6.82389 1.38636 7.02181C1.46531 7.21973 1.72471 7.24056 2.05178 7.07389C2.2435 6.98014 2.33373 7.01139 2.62696 7.29264C2.82997 7.48014 3.15704 7.75098 3.36005 7.89681C3.69839 8.13639 3.72095 8.16764 3.56305 8.38639C3.29238 8.76139 3.06681 10.1364 3.06681 11.3968C3.06681 12.0635 3.01042 12.6676 2.94275 12.7926C2.62696 13.3343 2.95403 13.7406 3.76606 13.8239C4.23975 13.876 4.30741 13.8551 4.69087 13.501C5.16456 13.0635 5.41268 13.0218 5.41268 13.3864C5.41268 13.9593 6.7999 14.0739 7.32997 13.5426C7.6232 13.251 7.65704 13.2406 7.72471 13.4281C7.91644 13.9906 10.3976 13.8864 10.939 13.2926C11.0179 13.1989 11.1871 13.126 11.3225 13.126C12.9578 13.1051 14.2322 10.7093 13.533 8.95931C13.1834 8.10514 12.6646 7.80306 12.157 8.16764C11.7849 8.42806 11.6946 8.84473 11.8525 9.66764C11.954 10.251 11.954 10.5218 11.8525 10.8343C11.6608 11.4176 11.5706 11.3551 11.424 10.5635C11.2886 9.84473 10.8488 9.06348 10.1608 8.32389C9.75478 7.87598 9.75478 7.90723 10.3412 7.31348C10.5555 7.09473 10.657 7.07389 11.0518 7.13639C11.6157 7.21973 11.7285 6.91764 11.1646 6.80306C10.8375 6.75098 10.8262 6.71973 10.8939 6.36556C10.9841 5.88639 11.0179 5.85514 11.5029 5.81348C12.0668 5.77181 12.0443 5.48014 11.4803 5.43848C11.2435 5.41764 11.0405 5.34473 11.0405 5.28223C10.9728 4.67806 10.9164 4.40723 10.7924 4.16764C10.6683 3.93848 10.657 3.79264 10.7811 3.37598C11.0179 2.52181 10.939 1.48014 10.6119 1.24056C10.1157 0.86556 9.42772 1.00098 8.44651 1.66764C8.06305 1.91764 7.96155 1.93848 7.53298 1.86556C6.85629 1.75098 5.88636 1.75098 5.4014 1.87598C5.01794 1.98014 4.93899 1.95931 4.31869 1.55306C3.51794 1.05306 2.85253 0.917643 2.58185 1.21973ZM10.251 1.93848C10.3638 2.32389 10.3412 2.63639 10.127 3.41764C10.0255 3.78223 10.0367 3.92806 10.1946 4.25098C10.2961 4.45931 10.3976 4.84473 10.4089 5.09473C10.4315 5.55306 10.4315 5.56348 9.98035 5.66764C9.08937 5.88639 9.01042 6.20931 9.87884 6.08431C10.4202 6.01139 10.4315 6.02181 10.251 6.39681C10.1382 6.61556 10.048 6.64681 9.65328 6.63639C9.30366 6.61556 9.19087 6.65723 9.19087 6.77181C9.19087 6.86556 9.30366 6.92806 9.45027 6.93848C10.2397 6.98014 9.3826 7.61556 8.08561 7.96973C7.69087 8.07389 7.44275 8.19889 7.44275 8.29264C7.44275 8.49056 8.16456 8.49056 8.77358 8.29264L9.22471 8.14681L9.69839 8.67806C11.2999 10.4906 11.3788 12.8656 9.86757 13.1781C9.43899 13.2718 8.35629 13.2718 8.26606 13.1885C8.13072 13.0635 8.42396 12.9072 8.78486 12.8968C9.23599 12.8864 9.31493 12.7718 9.08937 12.4801C8.78486 12.0843 8.85253 11.4801 9.24726 11.1468C9.642 10.8031 9.67584 10.6676 9.37132 10.5739C8.88636 10.4385 8.45779 11.001 8.34501 11.9176C8.31117 12.2197 8.22095 12.4489 8.13072 12.4801C8.00666 12.5218 7.99538 12.4072 8.06305 11.8864C8.13072 11.3447 8.10817 11.2406 7.95027 11.1885C7.6796 11.0947 7.58937 11.2301 7.5217 11.8343C7.43147 12.6051 6.81117 13.5531 6.59689 13.2406C6.49538 13.0739 6.33749 13.1051 6.29238 13.2822C6.26982 13.376 6.20215 13.3968 6.11193 13.3551C5.99914 13.2822 6.01042 13.1989 6.14576 12.9489C6.23599 12.7822 6.34877 12.2822 6.3826 11.8343C6.46155 11.0843 6.45027 11.0426 6.22471 11.0426C5.96531 11.0426 5.90892 11.1572 5.80741 12.0114C5.67208 13.126 5.07433 12.876 5.07433 11.6989C5.07433 11.1989 5.02922 11.0218 4.90516 10.9697C4.63448 10.876 4.61193 10.9593 4.55553 11.9801C4.5217 12.9281 4.43147 13.1468 4.04802 13.3343C3.89012 13.4176 3.86756 13.3968 3.91268 13.2301C3.98035 12.9801 3.77734 12.9489 3.63072 13.1885C3.56305 13.3031 3.50666 13.3239 3.45027 13.2406C3.40516 13.1781 3.43899 13.0218 3.50666 12.8968C3.58561 12.751 3.66456 12.1364 3.68711 11.4072C3.72095 10.001 3.76606 9.65723 4.03674 8.88639C4.21719 8.36556 4.23975 8.34473 4.61193 8.36556C5.18711 8.39681 5.15328 8.16764 4.55553 7.92806C3.99162 7.68848 3.04426 7.03223 3.04426 6.86556C3.04426 6.81348 3.20215 6.77181 3.39388 6.77181C3.65328 6.77181 3.73223 6.73014 3.69839 6.59473C3.67584 6.44889 3.56305 6.41764 3.20215 6.43848C2.84125 6.46973 2.71719 6.42806 2.6608 6.29264C2.55929 6.04264 2.64952 6.00098 3.03298 6.12598C3.2811 6.20931 3.41644 6.19889 3.57433 6.09473C3.83373 5.91764 3.75478 5.85514 3.08937 5.69889C2.53674 5.57389 2.53674 5.57389 2.54802 5.14681C2.54802 4.91764 2.67208 4.51139 2.80741 4.24056C2.99914 3.87598 3.03298 3.71973 2.94275 3.56348C2.78486 3.29264 2.70591 2.49056 2.78486 2.03223C2.88636 1.44889 3.48411 1.54264 4.30741 2.27181L4.72471 2.63639L5.26606 2.49056C5.89764 2.32389 7.46531 2.33431 7.95027 2.50098C8.23223 2.60514 8.31117 2.59473 8.45779 2.42806C8.6608 2.20931 9.34877 1.73014 9.58561 1.63639C9.99163 1.50098 10.1382 1.56348 10.251 1.93848ZM12.9127 9.06348C13.4653 10.1989 12.7435 12.1364 11.6495 12.4489C11.2999 12.5426 11.3225 12.501 11.8412 11.9176C12.4164 11.2718 12.5969 10.5531 12.4164 9.67806C12.2022 8.70931 12.5405 8.30306 12.9127 9.06348Z" fill="currentColor"/>
<path d="M3.28059 2.07451C3.12269 2.16826 3.15653 2.94951 3.31442 3.09534C3.41593 3.19951 3.946 2.93909 4.02495 2.75159C4.11517 2.52243 3.49487 1.94951 3.28059 2.07451Z" fill="currentColor"/>
<path d="M9.21383 2.27145C8.83037 2.64645 8.83037 2.75062 9.25894 3.03187C9.68751 3.31312 9.8003 3.21937 9.89052 2.52145C9.96947 1.8652 9.72135 1.78187 9.21383 2.27145Z" fill="currentColor"/>
<path d="M6.76656 2.81386C6.47333 3.08469 6.50716 3.37636 6.85679 3.41802C7.20641 3.47011 7.45453 2.98052 7.19513 2.75136C7.03724 2.59511 6.99213 2.60552 6.76656 2.81386Z" fill="currentColor"/>
<path d="M5.20941 3.04303C5.02896 3.20969 5.04024 3.49094 5.24324 3.64719C5.43497 3.79303 5.61542 3.70969 5.75076 3.39719C5.89738 3.02219 5.51392 2.76178 5.20941 3.04303Z" fill="currentColor"/>
<path d="M7.80458 3.46012C7.61285 3.6372 7.63541 3.96012 7.8497 4.03303C8.12037 4.12678 8.36849 3.78303 8.22188 3.53303C8.09782 3.30387 7.99631 3.28303 7.80458 3.46012Z" fill="currentColor"/>
<path d="M6.08907 4.17736C5.97629 4.36486 5.98757 4.43778 6.19058 4.61486C6.48381 4.88569 6.68682 4.73986 6.63043 4.31278C6.58531 3.93778 6.26952 3.86486 6.08907 4.17736Z" fill="currentColor"/>
<path d="M4.36306 4.77144C4.12622 5.01103 4.11494 5.35478 4.35178 5.53186C4.71268 5.81311 5.27659 5.09436 4.9608 4.75061C4.76907 4.53186 4.58862 4.54228 4.36306 4.77144Z" fill="currentColor"/>
<path d="M7.87088 4.95968C7.64531 5.4076 8.119 5.82426 8.51373 5.52218C8.7393 5.3451 8.72802 4.83468 8.50246 4.75135C8.17539 4.63676 8.00622 4.68885 7.87088 4.95968Z" fill="currentColor"/>
<path d="M5.70598 5.89588C5.46913 6.11463 5.48041 6.17713 5.80748 6.47921C6.12327 6.77088 6.08944 7.0313 5.73981 7.11463C5.5932 7.14588 5.4353 7.0938 5.32252 6.97921C5.18718 6.83338 5.10823 6.81255 4.99545 6.88546C4.62327 7.17713 5.48041 7.64588 5.9541 7.4063C6.12327 7.32296 6.26989 7.33338 6.52929 7.45838C7.05936 7.70838 8.01801 7.22921 7.84883 6.81255C7.78117 6.6563 7.74733 6.6563 7.52177 6.85421C6.92402 7.37505 6.23605 7.0313 6.78868 6.48963C7.22853 6.05213 7.05936 5.72921 6.38267 5.72921C6.07816 5.72921 5.80748 5.79171 5.70598 5.89588Z" fill="currentColor"/>
<path d="M8.3796 8.87665C8.17659 9.11623 8.13148 9.3454 8.26681 9.4704C8.45854 9.64748 8.66155 9.60581 8.79689 9.37665C9.03373 8.9704 8.66155 8.5329 8.3796 8.87665Z" fill="currentColor"/>
<path d="M5.18693 9.22957C4.95009 9.79207 5.58167 10.1671 5.84107 9.6254C5.94257 9.4379 5.94257 9.30249 5.86362 9.15665C5.69445 8.86499 5.31099 8.90665 5.18693 9.22957Z" fill="currentColor"/>
<path d="M9.3033 9.58472C9.1454 9.75138 9.13413 9.8243 9.23563 9.93888C9.48375 10.2097 9.94616 9.93888 9.84465 9.5743C9.7657 9.31388 9.5627 9.3243 9.3033 9.58472Z" fill="currentColor"/>
<path d="M7.07108 9.77158C6.8004 10.0424 6.83423 10.1987 7.17258 10.3341C7.43198 10.4487 7.49965 10.4382 7.6801 10.2195C8.08611 9.76116 7.49965 9.33408 7.07108 9.77158Z" fill="currentColor"/>
<path d="M4.25072 9.85582C4.13794 9.97041 4.14922 10.2933 4.28456 10.3662C4.51012 10.4912 4.85975 10.3037 4.82591 10.0746C4.79208 9.84541 4.4199 9.70999 4.25072 9.85582Z" fill="currentColor"/>
<path d="M9.82301 11.6366C9.59745 12.0949 10.1162 12.4178 10.3756 11.9803C10.511 11.7407 10.3869 11.4387 10.1162 11.397C10.026 11.3866 9.89068 11.4907 9.82301 11.6366Z" fill="currentColor"/>
</svg>
