<svg width="15" height="15" viewBox="0 0 15 15" fill="none" xmlns="http://www.w3.org/2000/svg">
<path d="M9.79562 0.668051C9.78408 0.755643 9.77254 1.1936 9.76101 1.6425L9.74947 2.46367H8.71101L7.67254 2.45272L7.63793 1.55491C7.60331 0.569511 7.53408 0.492869 6.92254 0.843234C6.50716 1.07316 6.2187 1.6644 6.19562 2.36513L6.17254 2.90163L5.53793 2.60601C3.34562 1.57681 2.56101 3.50382 4.64947 4.79579C5.12254 5.08046 5.13408 5.11331 5.14562 5.70455L5.15716 6.32864L4.47639 6.50382C3.12639 6.85418 2.59562 7.33593 1.68408 9.01112C1.00331 10.2374 0.864852 10.8615 1.22254 10.9929C1.44178 11.0695 1.73024 10.8834 1.73024 10.6535C1.73024 10.2483 1.93793 10.6863 2.00716 11.2337C2.08793 11.9126 2.57254 13.4345 2.80331 13.7301C3.03408 14.0367 3.88793 14.1681 4.23408 13.96C4.51101 13.7848 4.51101 13.7629 4.44177 12.6899C4.36101 11.5732 4.40716 11.4527 4.82254 11.6936C4.93793 11.7702 5.19178 12.7666 5.19178 13.1608C5.19178 13.3578 5.67639 13.6863 5.96485 13.6863C6.12639 13.6863 6.3687 13.7739 6.48408 13.8724C6.61101 13.9819 6.95716 14.0695 7.36101 14.1024C8.26101 14.1681 8.34178 14.0586 8.3187 12.8761L8.29562 11.9673L8.84947 11.9016C9.5187 11.8359 9.43793 11.7702 9.5187 12.471C9.68024 13.8177 10.0149 14.179 10.9379 14.0148C11.5264 13.9162 11.5725 13.8724 11.6072 13.4892C11.6187 13.325 11.6879 12.7228 11.7687 12.1535C11.8379 11.5841 11.8841 10.5221 11.8725 9.79944C11.8495 8.55126 11.8725 8.45272 12.1841 7.82864C12.4841 7.23739 12.5187 7.06221 12.5187 6.05491V4.93812L12.9225 4.71915C13.9725 4.16075 14.4225 3.02207 13.7995 2.52937C13.4764 2.27754 12.3572 2.32134 11.8495 2.60601C11.2841 2.91258 11.3072 2.92353 11.3072 2.40893C11.3072 1.55491 10.7764 0.755643 10.0956 0.591409C9.89947 0.547613 9.80716 0.569511 9.79562 0.668051ZM10.7533 2.35418C10.7764 2.58411 10.7418 2.78119 10.6725 2.80309C10.4187 2.89068 10.3264 2.6498 10.361 2.02572C10.4072 1.41258 10.4187 1.39068 10.5572 1.65345C10.6495 1.80674 10.7302 2.11331 10.7533 2.35418ZM7.08408 2.83593C7.06101 2.85783 6.9687 2.84688 6.86485 2.81404C6.65716 2.72645 6.63408 2.21185 6.84178 1.78484C6.98024 1.50017 6.98024 1.51112 7.06101 2.1352C7.09562 2.49652 7.10716 2.81404 7.08408 2.83593ZM5.59562 3.21915C6.32254 3.74469 6.3687 3.74469 7.16485 3.36148C8.03024 2.94542 9.26485 2.87973 10.0956 3.19725C10.3495 3.29579 10.6149 3.38338 10.6725 3.39433C10.7418 3.40528 10.9149 3.46002 11.0533 3.51477C11.261 3.59141 11.3995 3.55856 11.6302 3.38338C12.0572 3.07681 12.6456 2.84688 13.061 2.84688C13.8802 2.84688 13.4533 3.81039 12.4149 4.30309C11.8033 4.58776 11.7687 4.62061 11.8495 4.90528C12.0341 5.50747 11.9418 6.93083 11.6995 7.44542C11.1687 8.54031 9.73793 9.49287 8.80331 9.36148C8.19178 9.27389 7.09562 8.48557 6.59947 7.76294C5.84947 6.68995 5.73408 6.38338 5.72254 5.44177L5.71101 4.55491L5.28408 4.45637C4.48793 4.28119 3.62254 3.00017 4.18793 2.81404C4.44177 2.73739 5.23793 2.96732 5.59562 3.21915ZM5.72254 7.57681C6.08024 8.24469 7.21101 9.32864 7.89178 9.6571C8.7687 10.0841 9.84178 9.95272 10.6956 9.32864C10.9149 9.1863 11.1225 9.08776 11.1572 9.13156C11.2956 9.26294 11.3072 10.325 11.1802 11.7702C11.0418 13.4454 10.9956 13.6097 10.8225 13.314C10.7072 13.117 10.6841 13.117 10.5572 13.2921C10.4764 13.3907 10.3841 13.4454 10.3495 13.3907C10.2456 13.2374 10.0379 12.0221 10.0379 11.5841C10.0379 11.1133 9.80716 10.9381 9.50716 11.179C9.40331 11.2556 9.02254 11.3323 8.6187 11.3323C7.77639 11.3432 7.75331 11.3761 7.74178 12.7228C7.73024 13.2921 7.68408 13.6863 7.61485 13.6863C7.55716 13.6863 7.49947 13.6097 7.49947 13.5221C7.49947 13.4345 7.4187 13.3578 7.32639 13.3578C7.23408 13.3578 7.15331 13.4016 7.15331 13.4673C7.15331 13.5221 7.10716 13.5768 7.04947 13.5768C6.91101 13.5768 6.61101 12.6243 6.50716 11.8578C6.41485 11.1571 6.26485 11.0148 5.65331 11.1024C5.39947 11.1352 4.94947 11.1133 4.64947 11.0695C3.86485 10.9272 3.78408 11.0586 3.85331 12.4053C3.91101 13.3469 3.88793 13.4673 3.74947 13.3578C3.61101 13.2483 3.54178 13.2483 3.41485 13.3578C3.27639 13.4673 3.19562 13.3359 2.94178 12.5695C1.93793 9.49287 2.52639 7.57681 4.61485 7.11696C5.35331 6.95272 5.39947 6.97462 5.72254 7.57681ZM6.01101 12.2191C6.16101 12.8323 6.13793 13.1389 5.95331 13.1389C5.75716 13.1389 5.65331 12.7994 5.65331 12.0987C5.65331 11.4746 5.83793 11.5403 6.01101 12.2191Z" fill="black"/>
<path d="M4.73047 3.49216C4.73047 3.6126 5.51508 4.26953 5.65355 4.26953C5.8497 4.26953 5.78047 3.99581 5.52662 3.79873C5.23816 3.55785 4.73047 3.36077 4.73047 3.49216Z" fill="black"/>
<path d="M12.0462 3.75647C11.5616 4.15063 11.8039 4.32581 12.3462 3.97545C12.6 3.82216 12.8077 3.64698 12.8077 3.60319C12.8077 3.41706 12.3577 3.50465 12.0462 3.75647Z" fill="black"/>
<path d="M6.86401 5.2991C6.71401 5.50713 6.70247 5.60567 6.81785 5.84655C6.99093 6.18596 7.32555 6.21881 7.49862 5.91224C7.78709 5.39764 7.18709 4.81735 6.86401 5.2991Z" fill="black"/>
<path d="M10.3613 5.15721C10.1075 5.2886 10.0959 5.68276 10.3151 5.97838C10.5228 6.23021 10.8805 6.08787 10.9382 5.72656C10.9959 5.39809 10.6036 5.01488 10.3613 5.15721Z" fill="black"/>
<path d="M8.63004 7.36821C8.09927 7.48865 8.03004 7.86091 8.48004 8.18938C8.9185 8.51785 8.86081 8.75872 8.36466 8.68208C7.85696 8.60544 7.82235 8.80252 8.30696 9.03245C8.54927 9.15289 8.72235 9.17478 8.86081 9.09814C8.98773 9.03245 9.13773 9.03245 9.26466 9.09814C9.40312 9.17478 9.56466 9.16383 9.77235 9.06529C10.2223 8.85727 10.2454 8.64924 9.8185 8.64924C9.34543 8.64924 9.24158 8.44121 9.61081 8.18938C10.3262 7.69668 9.64543 7.12734 8.63004 7.36821Z" fill="black"/>
</svg>
