<svg width="15" height="15" viewBox="0 0 15 15" fill="none" xmlns="http://www.w3.org/2000/svg">
<path d="M7.49982 0.579328C6.79528 0.718614 6.3521 0.9329 5.86346 1.32933C5.67028 1.49004 5.39755 1.6079 5.20437 1.6079C4.42028 1.6079 4.12482 2.22933 4.53391 2.97933C4.65891 3.21504 4.73846 3.42933 4.70437 3.45076C4.443 3.7079 4.76119 5.45433 5.18164 6.07576C5.32937 6.29004 5.318 6.36504 5.12482 6.72933C4.568 7.7579 3.90891 10.19 4.02255 10.8329C4.07937 11.1865 4.05664 11.2508 3.89755 11.2615C1.8521 11.3365 0.681641 11.7865 0.681641 12.4936C0.681641 12.9758 2.2271 13.3186 4.09073 13.2436C4.70437 13.2115 5.05664 13.2543 5.39755 13.3936C6.71573 13.9293 8.9771 13.8865 8.9771 13.34C8.9771 13.0936 9.54528 13.1365 10.4771 13.4472C11.7612 13.865 12.8407 13.7472 12.8407 13.1793C12.8407 12.9222 12.3066 12.3222 12.0794 12.3222C11.943 12.3222 11.9316 12.2686 11.9998 12.0758C12.0794 11.8722 12.0907 10.94 12.0453 9.98647C12.0339 9.82576 12.0339 9.38647 12.0453 9.00076C12.068 8.61504 11.9885 7.92933 11.8748 7.46861L11.6816 6.6329L11.9998 6.29004C12.1816 6.1079 12.3635 5.92576 12.3976 5.89361C12.7044 5.64719 12.8294 4.47933 12.6362 3.66504C12.5339 3.27933 12.5566 3.1829 12.7953 2.87218C13.1362 2.4329 13.1362 2.19719 12.7839 1.86504C12.5794 1.67219 12.3976 1.6079 12.1021 1.62933C11.8407 1.64004 11.6248 1.57576 11.4544 1.42576C10.6021 0.697185 8.84073 0.322185 7.49982 0.579328ZM10.3748 1.42576C10.7157 1.57576 11.1362 1.85433 11.318 2.07933C11.7044 2.52933 11.7726 2.54004 12.0339 2.24004C12.2157 2.02576 12.2385 2.02576 12.3862 2.19719C12.5566 2.39004 12.4657 2.49719 11.9544 2.77576C11.8294 2.84004 11.8407 2.97933 11.9885 3.54718C12.3521 4.87576 12.0226 5.79719 11.0226 6.24719C10.6703 6.4079 10.568 6.75076 10.8748 6.75076C11.0453 6.75076 11.1248 6.91147 11.2839 7.62933C11.6021 9.04361 11.3294 10.865 10.8635 10.415C10.818 10.3722 10.7157 10.34 10.6476 10.34C10.5566 10.34 10.5226 10.1258 10.5453 9.66504C10.568 8.99004 10.3862 8.70076 10.1021 8.96861C9.87482 9.1829 9.89755 10.5865 10.1362 10.8758C10.3976 11.1865 11.1248 11.2508 11.3635 10.9829C11.6021 10.715 11.6816 10.8008 11.5907 11.2615C11.5339 11.5293 11.3635 11.8293 11.1362 12.0543C10.6703 12.5043 10.7271 12.7615 11.2726 12.6865C11.5339 12.6543 11.7271 12.6972 11.9316 12.8472L12.2157 13.0615L11.943 12.9972C11.7839 12.965 11.6476 12.9865 11.5907 13.0722C11.5226 13.1793 11.3407 13.1579 10.7271 12.9758C10.3066 12.8579 9.693 12.7508 9.37482 12.7508C8.99982 12.7508 8.7271 12.6972 8.64755 12.6008C8.568 12.515 8.38619 12.4186 8.2271 12.3865C7.98846 12.3222 7.943 12.2686 7.99982 12.0758C8.03391 11.9472 8.068 11.69 8.068 11.5079C8.068 11.2293 8.12482 11.1543 8.37482 11.09C9.04528 10.9293 9.13619 10.5865 8.73846 9.60076C8.48846 8.9579 8.34073 8.8079 8.14755 8.99004C8.05664 9.07576 8.07937 9.2579 8.21573 9.67576C8.46573 10.415 8.46573 10.5758 8.23846 10.3936C8.1021 10.2865 8.05664 10.2972 7.99982 10.4365C7.89755 10.6829 7.78391 10.5758 7.26119 9.75076C6.99982 9.3329 6.7271 9.00076 6.64755 9.00076C6.34073 9.00076 6.38619 9.32219 6.77255 9.9329C7.55664 11.1436 7.63619 11.5186 7.27255 12.0865C6.96573 12.5686 6.96573 12.59 7.6021 12.74C7.92028 12.815 8.23846 12.9543 8.318 13.0508C8.443 13.2008 8.43164 13.2115 8.23846 13.1365C7.88619 12.9972 7.67028 13.0079 7.693 13.1472C7.73846 13.3186 7.71573 13.3186 6.57937 13.115C5.43164 12.9115 5.07937 12.6543 4.818 11.8079C4.4771 10.7043 4.67028 9.44004 5.4771 7.50076L5.86346 6.59004L6.28391 6.62219C6.82937 6.66504 6.8521 6.41861 6.32937 6.1829C5.36346 5.74361 5.09073 4.87576 5.40891 3.19361C5.4771 2.82933 5.45437 2.78647 5.18164 2.67933C4.8521 2.57219 4.818 2.46504 5.02255 2.27219C5.12482 2.17576 5.20437 2.18647 5.36346 2.32576C5.55664 2.48647 5.59073 2.47576 5.9771 2.04719C6.46573 1.51147 7.07937 1.20076 7.80664 1.11504C8.11346 1.0829 8.36346 1.04004 8.37482 1.02933C8.48846 0.9329 9.86346 1.20076 10.3748 1.42576ZM4.34073 12.215C4.55664 12.7079 4.62482 12.665 3.52255 12.6758C2.71573 12.6758 1.61346 12.5472 1.53391 12.4293C1.38619 12.215 2.55664 11.915 3.9771 11.7972C4.07937 11.7972 4.2271 11.9686 4.34073 12.215Z" fill="currentColor"/>
<path d="M6.8515 3.182C6.64696 3.257 6.66968 3.69629 6.87423 3.857C7.24923 4.14629 7.6015 3.56771 7.24923 3.23557C7.1015 3.09629 7.06741 3.09629 6.8515 3.182Z" fill="currentColor"/>
<path d="M10.2043 3.4827C10.1133 3.68627 10.1133 3.7827 10.227 3.91127C10.5452 4.27556 11.0338 3.9327 10.8179 3.4827C10.7383 3.3327 10.602 3.21484 10.5111 3.21484C10.4202 3.21484 10.2838 3.3327 10.2043 3.4827Z" fill="currentColor"/>
<path d="M8.44283 3.96546C8.07919 4.10475 7.99964 4.46903 8.28374 4.75832C8.6701 5.14403 8.43146 5.74403 8.03374 5.36903C7.85192 5.19761 7.61328 5.21903 7.61328 5.41189C7.61328 5.67975 8.1701 5.95832 8.4201 5.80832C8.53374 5.73332 8.71555 5.67975 8.80646 5.67975C8.89737 5.67975 9.07919 5.73332 9.19283 5.80832C9.46555 5.96903 10.0337 5.66903 9.93146 5.41189C9.85192 5.21903 9.57919 5.19761 9.52237 5.36903C9.48828 5.46546 9.4201 5.46546 9.22692 5.36903C8.94283 5.22975 8.98828 5.03689 9.38601 4.66189C9.71555 4.35118 9.64737 4.12618 9.18146 3.97618C8.77237 3.83689 8.77237 3.83689 8.44283 3.96546Z" fill="currentColor"/>
<path d="M6.38562 4.72539C6.03334 4.82181 5.80607 5.07896 5.94244 5.21824C5.98789 5.25039 6.18107 5.21824 6.38562 5.13253C6.59016 5.05753 6.84016 4.98253 6.93107 4.98253C7.02198 4.98253 7.10153 4.90753 7.10153 4.82181C7.10153 4.62896 6.87425 4.59681 6.38562 4.72539Z" fill="currentColor"/>
<path d="M10.4551 4.80056C10.4551 4.91842 11.3642 5.18628 11.4437 5.10056C11.4778 5.06842 11.4437 4.97199 11.3642 4.87556C11.2164 4.70414 10.4551 4.65056 10.4551 4.80056Z" fill="currentColor"/>
<path d="M6.59116 5.41208C6.37525 5.65851 6.50025 5.80851 6.79571 5.62637C6.93207 5.52994 7.04571 5.41208 7.04571 5.3478C7.04571 5.1978 6.75025 5.22994 6.59116 5.41208Z" fill="currentColor"/>
<path d="M10.4551 5.34623C10.4551 5.47481 10.7846 5.72123 10.8642 5.64623C10.9892 5.53909 10.8074 5.24981 10.6255 5.24981C10.5346 5.24981 10.4551 5.29266 10.4551 5.34623Z" fill="currentColor"/>
</svg>
