<svg width="15" height="15" viewBox="0 0 15 15" fill="none" xmlns="http://www.w3.org/2000/svg">
<path d="M2.02361 1.04551C1.74455 1.34096 1.67478 2.06824 1.8492 2.54551C1.95385 2.80687 1.94222 2.92051 1.72129 3.21596C0.628266 4.7046 0.744545 6.40915 1.98873 7.22733L2.52361 7.56824L2.08175 8.05687C1.38408 8.81824 1.37245 9.75006 2.0585 10.0114C2.2678 10.091 2.31431 10.1591 2.23292 10.3069C2.0585 10.6478 2.08175 11.2955 2.2678 11.8182C2.44222 12.3069 2.44222 12.3182 2.16315 12.5455C1.77943 12.8751 1.72129 13.1251 1.95385 13.4091C2.19803 13.6932 2.73292 13.7614 3.94222 13.6478C4.70966 13.5682 4.86082 13.591 5.12827 13.7728C5.4771 14.0341 6.63989 14.0682 7.80268 13.8637C8.77943 13.6932 9.17478 13.5114 9.59338 13.0796C9.79106 12.8864 10.012 12.7273 10.0934 12.7273C10.6748 12.7273 11.9771 11.6932 12.3841 10.9091C12.8841 9.9546 13.0701 7.65915 12.7329 6.78415C12.6748 6.65915 12.7097 6.59096 12.8143 6.59096C13.0818 6.59096 13.698 5.88642 13.8841 5.36369C14.2911 4.23869 13.6748 2.78415 12.6166 2.38642C11.419 1.94324 9.7678 2.90915 9.23292 4.35233C9.03524 4.87506 8.95385 6.56824 9.10501 7.10233C9.19803 7.42051 9.16315 7.40915 8.54687 6.81824C8.18641 6.47733 7.93059 6.12506 7.96548 6.04551C8.13989 5.60233 8.13989 4.61369 7.9771 3.97733C7.81431 3.35233 7.81431 3.25006 7.9771 2.8296C8.61664 1.28415 7.3492 0.238691 6.23292 1.39778C5.7678 1.87506 5.74455 1.88642 5.29106 1.78415C5.03524 1.73869 4.5585 1.71596 4.22129 1.75006C3.62827 1.81824 3.60501 1.80687 3.41896 1.4546C3.08175 0.806873 2.41896 0.613691 2.02361 1.04551ZM2.83757 1.61369C3.08175 1.9546 3.07013 2.06824 2.73292 2.30687C2.44222 2.51142 2.44222 2.51142 2.31431 2.19324C2.23292 1.97733 2.23292 1.80687 2.31431 1.62506C2.46548 1.29551 2.61664 1.29551 2.83757 1.61369ZM7.37245 1.54551C7.62827 1.78415 7.60501 2.42051 7.32594 2.94324C7.10501 3.37506 7.10501 3.38642 7.33757 3.98869C7.61664 4.69324 7.58175 5.61369 7.27943 6.04551C7.03524 6.37506 7.04687 6.59096 7.29106 6.59096C7.61664 6.59096 8.88408 7.98869 9.30268 8.81824C9.83757 9.88642 9.93059 11.3751 9.50036 12.1591C9.0585 12.9887 8.66315 13.1705 6.62827 13.4773C6.17478 13.5455 6.12827 13.5341 6.25617 13.3751C6.3492 13.2728 6.36082 13.1705 6.29106 13.1364C6.15152 13.0455 5.81431 13.1705 5.81431 13.3069C5.81431 13.3637 5.73292 13.4091 5.63989 13.4091C5.54687 13.4091 5.46548 13.3751 5.46548 13.341C5.46548 13.1819 5.88408 12.966 6.18641 12.9546C6.91896 12.9546 7.07013 12.6705 6.51199 12.3637C5.63989 11.8751 5.82594 10.3864 6.80268 10.0569C7.22129 9.92051 7.3492 9.77278 7.19803 9.59096C7.13989 9.52278 7.11664 9.37506 7.16315 9.27278C7.29106 8.93187 6.89571 8.9546 6.36082 9.3296C6.07013 9.53415 5.60501 9.72733 5.32594 9.77278C5.04687 9.81824 4.67478 9.89778 4.4771 9.94324C4.17478 10.0228 4.15152 10.0114 4.2678 9.87506C4.51199 9.5796 4.25617 9.37506 3.98873 9.65915C3.77943 9.86369 3.74455 9.87506 3.67478 9.71596C3.58175 9.46596 4.10501 9.01142 4.69803 8.84096C5.29106 8.68187 5.44222 8.56824 5.2678 8.39778C5.04687 8.18187 4.03524 8.48869 3.51199 8.93187C2.98873 9.36369 2.90734 9.39778 2.90734 9.14778C2.90734 8.87506 2.60501 8.9546 2.46548 9.26142C2.27943 9.67051 2.09338 9.61369 2.09338 9.15915C2.09338 8.7046 2.58175 8.15915 3.23292 7.88642C3.86082 7.61369 3.73292 7.39778 2.66315 6.93187C0.314313 5.89778 1.88408 2.27278 4.67478 2.27278C5.04687 2.27278 5.51199 2.35233 5.68641 2.44324C6.0585 2.62506 6.11664 2.59096 6.44222 1.9546C6.60501 1.64778 6.77943 1.51142 7.17478 1.37506C7.18641 1.36369 7.27943 1.44324 7.37245 1.54551ZM12.4887 3.00006C13.3376 3.35233 13.7097 4.55687 13.2213 5.39778C12.9073 5.94324 12.4887 6.11369 12.6748 5.62506C12.8376 5.2046 12.8259 5.11369 12.5818 5.11369C12.2329 5.11369 12.1166 5.55687 12.1864 6.60233C12.3608 9.00006 12.3027 9.88642 11.8957 10.5682C11.512 11.216 11.105 11.6364 10.5352 12.0001L10.2097 12.2046L10.3027 11.5796C10.4771 10.5796 10.3725 9.56824 9.96548 8.18187C9.33757 6.00006 9.4771 4.36369 10.3725 3.56824C11.1399 2.87506 11.7678 2.7046 12.4887 3.00006ZM3.63989 10.4432C3.82594 10.5341 4.07013 10.5682 4.2678 10.5228C5.67478 10.1932 5.66315 10.1932 5.4771 10.6932C5.30268 11.1932 5.31431 11.6591 5.53524 12.0569C5.69803 12.3751 5.69803 12.4091 5.44222 12.6251C5.0585 12.9432 4.77943 13.0341 4.17478 13.0455C3.88408 13.0569 3.50036 13.1137 3.31431 13.1819C3.03524 13.2841 3.01199 13.2841 3.12827 13.1364C3.32594 12.9091 3.09338 12.7955 2.87245 13.0114C2.7678 13.1023 2.60501 13.1819 2.48873 13.1819C2.30268 13.1819 2.30268 13.1705 2.50036 12.9546C2.61664 12.8296 2.80268 12.7273 2.91896 12.7273C3.24455 12.7273 3.48873 12.6023 3.48873 12.4319C3.48873 12.341 3.44222 12.2728 3.37245 12.2728C3.16315 12.2728 2.67478 11.3751 2.67478 11.0001C2.67478 10.7955 2.79106 10.4432 2.91896 10.2273C3.15152 9.86369 3.17478 9.85233 3.25617 10.0569C3.30268 10.1819 3.4771 10.3523 3.63989 10.4432Z" fill="black"/>
<path d="M6.82677 2.25095C6.61747 2.47823 6.55933 2.89868 6.73375 3.00095C6.88491 3.09186 7.0477 2.84186 7.1291 2.41004C7.21049 2.00095 7.10584 1.94414 6.82677 2.25095Z" fill="black"/>
<path d="M2.39576 4.26148C2.26785 4.59103 2.31436 4.86376 2.51204 4.93194C2.79111 5.03421 3.03529 4.78421 3.00041 4.4433C2.9539 4.09103 2.51204 3.96603 2.39576 4.26148Z" fill="black"/>
<path d="M5.12914 4.25018C4.88496 4.53427 5.01287 4.94336 5.33845 4.94336C5.69891 4.94336 5.91984 4.62518 5.74542 4.34109C5.57101 4.07972 5.30356 4.04563 5.12914 4.25018Z" fill="black"/>
<path d="M3.15236 5.37533C2.97794 5.54579 2.98957 5.73897 3.18724 5.90943C3.44305 6.10261 3.29189 6.37533 2.96631 6.29579C2.60584 6.20488 2.51282 6.39806 2.79189 6.64806C2.96631 6.80715 3.08259 6.82988 3.28026 6.73897C3.45468 6.67079 3.64073 6.67079 3.85003 6.73897C4.09422 6.82988 4.23375 6.81852 4.46631 6.67079C4.90817 6.3867 4.85003 6.23897 4.31515 6.31852C3.75701 6.40943 3.60584 6.21624 3.93143 5.87533C4.07096 5.73897 4.14073 5.56852 4.09422 5.50033C3.96631 5.30715 3.31515 5.21624 3.15236 5.37533Z" fill="black"/>
</svg>
