<svg width="15" height="15" viewBox="0 0 15 15" fill="none" xmlns="http://www.w3.org/2000/svg">
<g clip-path="url(#clip0_1008_1630)">
<path d="M8.45729 0.465585C7.04424 0.704222 5.97903 1.85195 5.51163 3.6474C5.22903 4.69286 5.08772 5.0224 4.45729 6.0224C3.8812 6.9315 3.56598 7.63604 3.25076 8.69286C3.17468 8.94286 3.12033 9.70422 3.1312 10.4201V11.7042L2.57685 11.8633C2.05511 12.011 1.83772 12.0679 1.09859 12.2156C0.783373 12.2724 0.435547 12.5906 0.435547 12.8065C0.435547 13.0565 0.946416 13.4883 1.33772 13.5792C1.91381 13.7042 3.62033 13.727 3.87033 13.6133C4.04424 13.5338 4.17468 13.5451 4.35946 13.6815C5.03337 14.136 6.50076 14.4201 8.25076 14.4429C9.22903 14.4542 9.67468 14.2724 9.67468 13.852C9.67468 13.6815 9.72903 13.636 9.84859 13.6815C10.1095 13.7838 10.7508 13.8747 11.4573 13.9088C12.1964 13.9315 12.6095 13.6929 12.6095 13.227C12.6095 12.9201 11.8595 12.2724 11.5008 12.2724C11.3921 12.2724 11.3051 12.261 11.3051 12.2383C11.3051 12.2269 11.3812 12.011 11.4682 11.761C11.5551 11.511 11.6203 10.886 11.6312 10.3747V9.44286L11.9682 9.54513C12.6855 9.76104 13.2182 9.17013 13.0442 8.34059C12.9355 7.82922 12.5769 7.48831 11.8812 7.21559C11.4355 7.03377 11.4029 6.98831 11.4355 6.65877C11.4682 6.34059 11.5551 6.26104 12.3377 5.85195C13.3595 5.31786 14.1421 4.67013 14.4247 4.12468L14.6203 3.73831L14.316 3.46559C14.1529 3.3065 13.816 3.12468 13.566 3.04513C13.1421 2.92013 12.9464 2.73831 11.9573 1.6474C11.1312 0.738313 9.70729 0.249676 8.45729 0.465585ZM10.0551 1.24968C10.9247 1.60195 11.1964 1.78377 11.8595 2.48831C12.2616 2.8974 12.7942 3.42013 13.0442 3.65877C13.566 4.13604 13.5334 4.35195 12.8703 4.7724C12.5551 4.98831 12.3812 5.0224 11.9355 4.96559L11.3921 4.8974L11.4573 5.23831C11.5116 5.53377 11.479 5.59059 11.229 5.69286C10.8051 5.86331 10.7616 5.96559 10.7616 7.0224V7.95422L10.1964 7.5565C9.47903 7.06786 8.91381 6.92013 8.91381 7.22695C8.92468 7.36331 9.15294 7.59059 9.59859 7.85195C10.3703 8.32922 10.6095 8.67013 10.5008 9.1474L10.4247 9.47695L10.2942 9.19286C10.1095 8.82922 9.95729 8.84059 9.91381 9.22695C9.87033 9.57922 9.73989 9.63604 9.58772 9.36331C9.5225 9.22695 9.33772 9.17013 9.01163 9.17013C8.54424 9.17013 8.40294 9.11331 7.57685 8.54513C7.26163 8.31786 7.14207 8.28377 7.03337 8.3974C6.67468 8.7724 7.91381 9.76104 8.7725 9.79513C9.00076 9.79513 9.32685 9.90877 9.50076 10.0338C9.83772 10.2838 10.3595 10.1815 10.7942 9.79513C10.9682 9.63604 10.979 9.67013 10.979 10.3065C10.979 11.3292 10.8812 11.6701 10.4464 12.1474C9.87033 12.7724 9.44642 12.9429 9.07685 12.7042C9.01163 12.6701 8.80511 12.6019 8.60946 12.5565C8.32685 12.4997 8.26163 12.4315 8.31598 12.2951C8.48989 11.8292 8.50076 11.4088 8.32685 11.261C8.12033 11.0792 7.76163 11.1474 7.81598 11.3747C7.91381 11.7951 7.82685 12.0906 7.5225 12.4201C7.08772 12.886 7.18555 13.0224 7.96816 13.102C8.58772 13.1701 9.1312 13.4201 9.1312 13.636C9.1312 13.8065 8.84859 13.7724 8.69642 13.5792C8.55511 13.3974 8.26163 13.3406 8.26163 13.4997C8.26163 13.5451 8.32685 13.6588 8.40294 13.7383C8.55511 13.8974 7.47903 13.852 6.43555 13.636C6.12033 13.5792 5.82685 13.5338 5.78337 13.5451C5.73989 13.5679 5.51163 13.4883 5.2725 13.386C3.29424 12.5451 3.17468 9.22695 5.01163 6.36331C5.5225 5.57922 6.14207 4.12468 6.34859 3.23831C6.73989 1.63604 8.58772 0.63604 10.0551 1.24968ZM11.8812 7.92013C12.2616 8.12468 12.4899 8.38604 12.5008 8.62468C12.5008 8.74968 12.4682 8.74968 12.3377 8.63604C12.1529 8.47695 11.9138 8.59059 12.0008 8.81786C12.0986 9.07922 11.8812 8.99968 11.6421 8.6815C11.4355 8.40877 11.316 7.72695 11.4682 7.72695C11.5116 7.72695 11.6855 7.8065 11.8812 7.92013ZM3.53337 12.6133C3.65294 12.9883 3.50076 13.0679 2.60946 13.0679C1.28337 13.0679 1.20729 12.9429 2.33772 12.6588C2.8812 12.5224 3.34859 12.4088 3.39207 12.3974C3.43555 12.386 3.48989 12.4883 3.53337 12.6133ZM11.7399 13.011C12.0551 13.2042 12.0769 13.1929 11.2834 13.227C10.5877 13.2497 10.2725 13.136 10.5442 12.9542C10.7834 12.7951 11.4247 12.8179 11.7399 13.011Z" fill="black"/>
<path d="M9.83772 2.79566C9.62033 3.03429 9.6312 3.32975 9.8812 3.56838C10.2399 3.90929 10.6312 3.54566 10.4355 3.02293C10.316 2.68202 10.0551 2.57975 9.83772 2.79566Z" fill="black"/>
</g>
<defs>
<clipPath id="clip0_1008_1630">
<rect width="15" height="15" fill="white"/>
</clipPath>
</defs>
</svg>
