<svg width="15" height="15" viewBox="0 0 15 15" fill="none" xmlns="http://www.w3.org/2000/svg">
<g clip-path="url(#clip0_1008_1634)">
<path d="M4.65032 1.14586C4.56399 1.26859 4.54241 1.36405 4.58557 1.36405C4.62874 1.36405 4.60715 1.4595 4.53162 1.56859C4.26183 1.97768 4.34816 3.43677 4.69349 4.17314C4.9201 4.65041 5.01723 5.04586 5.02802 5.56405C5.03881 5.97314 5.10356 6.36859 5.16831 6.45041C5.33018 6.65496 5.31939 6.81859 5.12514 6.81859C5.03881 6.81859 4.59636 6.35496 4.14313 5.79586C3.33377 4.81405 3.31219 4.78677 3.03162 4.97768C1.9309 5.68677 0.884133 7.67768 0.830176 9.13677L0.808594 9.88677L1.24025 9.84586C1.82298 9.80496 2.24385 10.0504 2.44888 10.555C2.6755 11.1277 2.79421 11.1959 3.13953 10.964C3.63593 10.6368 4.00284 10.7186 4.43449 11.264C4.81219 11.7277 4.84456 11.7413 5.09277 11.5368C5.36255 11.3186 5.89133 11.4004 6.20428 11.7277C6.39852 11.9322 6.23665 12.5322 5.86974 12.9686C5.52442 13.3777 5.52442 13.6913 5.88054 13.5822C6.07478 13.514 6.12874 13.5413 6.08557 13.6913C6.01003 13.9504 6.23665 14.1004 6.4201 13.9095C6.51723 13.814 6.58198 13.8004 6.63593 13.9095C6.75464 14.155 6.90572 14.0595 6.90572 13.7186C6.90572 13.5413 6.84097 13.3231 6.75464 13.2413C6.49564 12.9686 6.66831 12.505 7.00284 12.614C7.68269 12.8322 7.98485 12.8322 8.2978 12.6413C8.75104 12.355 8.98845 12.7777 8.63233 13.2277C8.51363 13.3777 8.41651 13.5959 8.41651 13.705C8.41651 13.9504 8.69708 13.9777 8.805 13.7459C8.85895 13.6368 8.9237 13.664 9.02082 13.8277C9.1719 14.1004 9.38773 14.0186 9.38773 13.6913C9.38773 13.5822 9.48485 13.5004 9.59277 13.5004C9.93809 13.5004 9.94888 13.2686 9.61435 12.9277C9.16111 12.4777 9.07478 11.8231 9.44169 11.6186C9.80859 11.414 10.1971 11.414 10.4777 11.6322C10.6719 11.7822 10.7259 11.7413 10.9956 11.3322C11.3194 10.8413 11.5784 10.7595 12.3122 10.964C12.6791 11.0595 12.7115 11.0459 12.9273 10.5822C13.1971 10.0095 13.564 9.79132 14.1791 9.84586L14.6215 9.88677L14.6108 9.13677C14.5892 7.66405 13.4884 5.59132 12.4093 4.97768L11.9561 4.71859L11.6108 5.25041C10.9741 6.28677 9.99205 7.3095 10.1971 6.73677C10.251 6.58677 10.2942 6.09586 10.305 5.63223C10.3158 5.07314 10.3805 4.69132 10.4884 4.54132C10.9849 3.84586 11.1683 2.15496 10.8446 1.36405C10.5748 0.695865 9.91651 0.941319 9.19349 1.97768C8.75104 2.60496 8.74025 2.61859 8.28701 2.49586C8.02802 2.42768 7.5532 2.42768 7.22946 2.46859L6.63593 2.57768L6.06399 1.82768C5.74025 1.41859 5.4273 1.09132 5.36255 1.09132C5.28701 1.09132 5.13593 1.05041 5.00644 1.0095C4.87694 0.968592 4.72586 1.02314 4.65032 1.14586ZM5.63233 2.27768C6.03162 2.76859 6.16111 3.13677 5.93449 3.13677C5.88054 3.13677 5.71867 3.35496 5.58917 3.61405C5.44888 3.87314 5.30859 4.09132 5.27622 4.09132C5.15751 4.09132 4.95248 3.34132 4.94169 2.91859C4.9201 1.59586 5.00644 1.51405 5.63233 2.27768ZM10.4453 2.72768C10.3913 4.10496 10.1755 4.33677 9.66831 3.60041C9.19349 2.93223 9.19349 2.94586 9.70068 2.30496C10.3482 1.48677 10.4992 1.56859 10.4453 2.72768ZM8.62154 3.31405C9.34456 3.76405 9.72226 4.43223 9.78701 5.40041C9.84097 6.21859 9.73305 6.53223 9.02082 7.71859C8.95608 7.81405 8.98845 8.04586 9.09636 8.3595C9.59277 9.65496 8.89133 11.8504 7.9201 12.0822C6.77622 12.355 5.72946 10.0368 6.20428 8.29132C6.35536 7.73223 6.32298 7.52768 6.03162 7.22768C5.98845 7.18677 5.85895 6.88677 5.71867 6.5595C4.85536 4.40496 6.84097 2.18223 8.62154 3.31405ZM12.8841 6.30041C13.3697 6.81859 13.8661 7.89586 14.0172 8.76859C14.1036 9.20496 14.0928 9.21859 13.7367 9.23223C13.5424 9.24586 13.2618 9.34132 13.1108 9.46405C12.7546 9.76405 12.7654 9.79132 12.7007 8.82314C12.6359 7.89586 12.2259 6.50496 12.0424 6.58677C11.8913 6.65496 11.9129 6.94132 12.1719 8.12768C12.2906 8.6595 12.4093 9.32768 12.4309 9.62768L12.4633 10.1595L11.8913 10.1731C11.5784 10.1868 11.2654 10.255 11.1899 10.3504C10.9741 10.6231 10.9201 10.514 11.0172 9.98223C11.1683 9.16405 11.1359 8.04586 10.9633 8.04586C10.8661 8.04586 10.7906 8.30496 10.7367 8.82314C10.5424 10.855 10.5424 10.8413 10.046 10.8413H9.61435L9.68989 10.2959C9.78701 9.58677 9.78701 8.72768 9.6791 8.3595C9.60356 8.10041 9.65751 8.01859 10.1647 7.69132C10.4777 7.48677 11.028 6.94132 11.3841 6.47768C12.1179 5.53677 12.1395 5.52314 12.8841 6.30041ZM3.91651 6.47768C4.27262 6.90041 4.82298 7.39132 5.13593 7.58223C5.68629 7.92314 5.68629 7.93677 5.61075 8.38677C5.56759 8.64586 5.57838 9.2595 5.65392 9.80496L5.78341 10.7459L5.37334 10.8004C5.07118 10.8413 4.95248 10.7868 4.9201 10.6368C4.86615 10.3913 4.65032 8.67314 4.60715 8.18223C4.59636 7.99132 4.52082 7.84132 4.4237 7.84132C4.22946 7.84132 4.20787 8.68677 4.38054 9.76405C4.49924 10.555 4.47766 10.5959 4.16471 10.2959C3.9273 10.064 3.27982 10.0231 3.18269 10.2277C2.82658 10.9504 2.96687 9.06859 3.40931 7.03677C3.57118 6.30041 3.5496 6.13677 3.29061 6.4095C3.11795 6.60041 2.85895 7.6095 2.75104 8.59132C2.63233 9.68223 2.59996 9.73677 2.36255 9.46405C2.24385 9.32768 1.98485 9.23223 1.71507 9.23223C1.19708 9.23223 1.19708 9.09586 1.70428 7.77314C1.97406 7.07768 2.9237 5.72768 3.15032 5.72768C3.21507 5.72768 3.5496 6.06859 3.91651 6.47768Z" fill="currentColor"/>
<path d="M6.31206 5.0464C6.10702 5.33276 6.16098 5.6873 6.43076 5.82367C6.66817 5.93276 6.91638 5.57821 6.84084 5.22367C6.75451 4.81458 6.52789 4.7464 6.31206 5.0464Z" fill="currentColor"/>
<path d="M8.58862 4.97865C8.25409 5.41502 8.46992 6.12411 8.8692 5.85138C9.09581 5.70138 9.12819 5.14229 8.91236 4.92411C8.79366 4.80138 8.71812 4.81502 8.58862 4.97865Z" fill="currentColor"/>
<path d="M7.37044 5.95931C7.20857 6.02749 7.1762 6.54567 7.32727 6.54567C7.38123 6.54567 7.44598 6.6684 7.47835 6.8184C7.5431 7.13203 7.33807 7.18658 7.01432 6.92749C6.72296 6.69567 6.62584 6.88658 6.84166 7.29567C7.15461 7.89567 8.52512 7.66385 8.52512 7.00931C8.52512 6.77749 8.28771 6.76385 8.11504 6.98203C8.00713 7.1184 7.95317 7.1184 7.87763 6.95476C7.81289 6.83203 7.82368 6.69567 7.87763 6.62749C8.20138 6.2184 7.82368 5.72749 7.37044 5.95931Z" fill="currentColor"/>
</g>
<defs>
<clipPath id="clip0_1008_1634">
<rect width="15" height="15" fill="currentColor"/>
</clipPath>
</defs>
</svg>
