<svg width="15" height="15" viewBox="0 0 15 15" fill="none" xmlns="http://www.w3.org/2000/svg">
<path d="M8.4727 1.33397C7.91641 1.56927 7.58859 2.1575 7.51906 3.02025C7.50912 3.17711 7.42965 3.25554 7.25085 3.29476C7.11177 3.32417 6.9429 3.36338 6.8833 3.3928C6.81376 3.4124 6.75416 3.34378 6.75416 3.24574C6.75416 2.74574 6.00912 1.88299 5.32369 1.58888C4.89654 1.4026 3.9727 1.4026 3.9727 1.58888C3.9727 1.63789 3.93296 1.6575 3.89323 1.62809C3.72436 1.53005 3.2078 1.94182 3.02899 2.31437C2.76078 2.88299 2.74091 3.54966 2.98926 4.06927C3.18793 4.49084 3.79389 5.11829 4.08197 5.21633C4.18131 5.24574 4.11177 5.35358 3.87336 5.54966C3.68462 5.70652 3.47601 5.9026 3.40647 5.98103C2.92965 6.53005 2.68131 6.85358 2.68131 6.95162C2.68131 7.01044 2.59191 7.24574 2.49257 7.48103C2.03561 8.47123 1.93628 9.60848 2.23429 10.3928C2.54224 11.2261 2.55217 11.1771 2.03561 11.1771C1.24091 11.1771 0.704488 11.5399 0.535614 12.1967C0.406475 12.7261 1.33032 13.6281 2.08528 13.6967C2.22436 13.7065 2.46277 13.7359 2.61177 13.7653C2.76078 13.7948 2.87005 13.785 2.84025 13.7359C2.78065 13.6477 3.61508 13.7751 3.78396 13.883C3.83363 13.9124 3.9429 13.883 4.0323 13.8242C4.35018 13.5595 3.68462 13.2555 2.64157 13.1869C1.95614 13.1477 1.6184 13.0497 1.54886 12.883C1.51906 12.8046 1.40979 12.7457 1.31045 12.7457C1.08197 12.7457 1.09191 12.334 1.32038 12.0791C1.40979 11.981 1.45945 11.8732 1.42965 11.834C1.39985 11.8046 1.46939 11.8046 1.59853 11.834C1.71773 11.8732 1.7972 11.8536 1.7674 11.8046C1.58859 11.5301 2.87005 11.7751 3.38661 12.1281C3.78396 12.383 4.57866 12.6379 5.21442 12.7163C6.51575 12.8634 7.31045 12.8928 7.42965 12.8144C7.48926 12.7653 7.54886 12.7555 7.54886 12.7948C7.54886 12.8438 7.62833 12.8046 7.72767 12.7261C7.81707 12.6379 7.95614 12.5595 8.02568 12.5399C8.12502 12.5104 8.07535 12.4124 7.88661 12.2261C7.57866 11.9222 7.56873 11.932 8.12502 11.7948C8.42303 11.7261 8.54224 11.7261 8.54224 11.8046C8.55217 11.8634 8.65151 12.0399 8.78065 12.1967C9.02899 12.4908 9.62502 12.5889 10.1217 12.4124C10.2806 12.3536 10.3303 12.3634 10.2906 12.4418C10.1614 12.6477 10.5787 12.5497 10.8568 12.3144C11.2045 12.0202 11.1747 11.785 10.7575 11.5202C10.5091 11.3732 10.4595 11.2751 10.5091 11.1281C10.5787 10.9222 10.5787 10.7555 10.5191 9.75554L10.4793 9.17711L10.9263 9.04966C11.4826 8.8928 11.8701 8.71633 12.3469 8.3928C12.5555 8.25554 12.784 8.13789 12.8535 8.13789C13.0522 8.13789 13.4396 7.67711 13.38 7.51044C13.3104 7.33397 13.5787 7.1575 13.8965 7.1575C14.4032 7.1575 14.0257 6.88299 13.4098 6.80456C12.9429 6.74574 12.9429 6.72613 13.4495 6.38299C13.9859 6.02025 13.9959 5.72613 13.4793 5.9026C13.3005 5.96142 13.082 6.06927 12.9826 6.13789C12.8138 6.24574 12.7244 6.18691 12.1482 5.57907C11.7906 5.20652 11.4628 4.93201 11.4131 4.96142C11.3634 4.99084 11.3336 4.96142 11.3436 4.88299C11.3634 4.81436 11.2939 4.76535 11.1946 4.77515C11.0952 4.77515 11.0356 4.76535 11.0654 4.73593C11.125 4.66731 10.8767 4.4124 10.7475 4.4124C10.6979 4.4124 10.5787 4.32417 10.4793 4.21633C10.38 4.10848 10.3502 4.02025 10.4098 4.02025C10.4694 4.02025 10.5886 3.81437 10.6681 3.54966C10.7873 3.13789 10.7873 3.06927 10.6383 2.9026C10.5489 2.79476 10.5389 2.74574 10.6085 2.78495C10.7773 2.88299 10.7674 2.42221 10.5886 2.07907C10.38 1.67711 9.82369 1.25554 9.56542 1.30456C9.44621 1.32417 9.36674 1.30456 9.39654 1.26535C9.47601 1.12809 8.82038 1.17711 8.4727 1.33397ZM9.76409 1.9026C9.95283 2.03005 10.1416 2.10848 10.1813 2.07907C10.2111 2.03986 10.2111 2.08888 10.1813 2.16731C10.1515 2.25554 10.1714 2.44182 10.231 2.58888C10.3005 2.78495 10.3005 2.97123 10.2111 3.24574C10.0323 3.86339 9.95283 3.88299 8.99919 3.52025C8.16475 3.20652 8.14489 3.19672 8.14489 2.88299C8.14489 2.37319 8.42303 1.9026 8.78065 1.78495C9.25747 1.63789 9.37667 1.6477 9.76409 1.9026ZM5.58197 2.47123C6.06873 2.95162 6.08859 2.99084 6.22767 3.92221C6.32701 4.56927 6.63495 4.69672 6.77402 4.1477C6.87336 3.77515 7.26078 3.6575 8.02568 3.77515C8.28396 3.81437 8.61177 3.85358 8.76078 3.85358C8.89985 3.86339 8.99919 3.9026 8.98926 3.93201C8.96939 3.96142 9.33694 4.17711 9.80383 4.42221C10.2806 4.6575 10.8965 5.05946 11.1747 5.31436C11.4628 5.56927 11.731 5.74574 11.7806 5.70652C11.8303 5.66731 11.8402 5.67711 11.8005 5.72613C11.7608 5.77515 11.8601 5.96142 12.0191 6.1477C12.3568 6.52025 12.3866 6.72613 12.1681 6.96142C12.029 7.10848 12.029 7.16731 12.1681 7.48103L12.3171 7.84378L11.8999 8.10848C11.2144 8.53005 10.4495 8.75554 9.28727 8.88299C8.83032 8.92221 8.65151 9.03005 8.64157 9.25554C8.64157 9.30456 8.67138 9.32417 8.70118 9.28495C8.81045 9.17711 9.02899 9.48103 8.97932 9.66731C8.94952 9.77515 8.98926 10.0987 9.06873 10.3928C9.2376 11.0202 9.19787 11.1771 8.88992 11.1771C8.68131 11.1771 8.60184 11.0693 8.49257 10.6085C8.43297 10.3732 8.14489 10.0006 8.00581 10.0006C7.7674 10.0006 7.75747 10.1183 7.95614 10.6183C8.19455 11.2163 8.16475 11.334 7.678 11.4614C6.8833 11.6869 6.63495 11.5889 6.86343 11.1575C7.24091 10.4712 6.28727 9.11829 5.42303 9.11829C5.11508 9.11829 5.16475 9.51044 5.49257 9.6477C6.36674 10.0104 6.63495 10.883 6.06873 11.4712C5.71111 11.8438 5.68131 11.9614 5.93959 11.9614C6.03893 11.9614 6.15813 11.9908 6.18793 12.0301C6.27734 12.1085 6.93297 12.1085 7.01244 12.0301C7.05217 12.0006 7.14157 12.0399 7.23098 12.1183C7.36012 12.2555 7.36012 12.285 7.24091 12.3634C7.0025 12.5202 4.80714 12.2261 4.22104 11.9614C3.86343 11.8046 2.87005 10.981 3.03893 10.981C3.06873 10.981 3.05879 10.9222 2.99919 10.8536C2.93959 10.7948 2.88992 10.6869 2.87998 10.6379C2.87005 10.5791 2.81045 10.432 2.76078 10.2948C2.59191 9.86338 2.5621 9.17711 2.67138 8.62809C2.74091 8.33397 2.79058 8.03005 2.80051 7.96142C2.81045 7.9026 2.86012 7.84378 2.90979 7.84378C2.95946 7.84378 2.97932 7.78495 2.94952 7.71633C2.91972 7.6477 2.98926 7.48103 3.08859 7.34378C3.18793 7.21633 3.27734 7.06927 3.27734 7.02025C3.28727 6.6477 4.55879 5.59868 5.08528 5.53005C5.66144 5.46142 5.71111 5.00064 5.15482 5.00064C4.58859 5.00064 3.35681 4.09868 3.53561 3.81437C3.55548 3.77515 3.53561 3.70652 3.47601 3.67711C3.41641 3.63789 3.37667 3.38299 3.39654 3.08888C3.40647 2.80456 3.45614 2.58888 3.49588 2.60848C3.53561 2.63789 3.61508 2.56927 3.67469 2.45162C3.82369 2.16731 4.26078 1.98103 4.71773 1.99084C5.04555 2.01044 5.19455 2.08888 5.58197 2.47123ZM10.0124 10.0987C10.0422 10.7948 9.98263 11.1771 9.83363 11.1771C9.77403 11.1771 9.73429 11.0693 9.73429 10.932C9.73429 10.6771 9.49588 9.86338 9.32701 9.57907C9.2376 9.42221 9.2674 9.4026 9.60515 9.43201L9.98263 9.46142L10.0124 10.0987ZM10.4297 11.883C10.4297 12.1085 10.3005 12.1085 10.0919 11.8732C9.92303 11.6967 9.93297 11.6869 10.1714 11.7065C10.3502 11.7163 10.4297 11.7751 10.4297 11.883Z" fill="currentColor"/>
<path d="M9.06834 5.37227C8.99881 5.41149 8.92927 5.58796 8.89947 5.75463C8.80013 6.26443 9.30675 6.59776 9.53523 6.186C9.65444 5.9507 9.60477 5.52914 9.44583 5.55855C9.38622 5.57816 9.34649 5.53894 9.36636 5.48012C9.39616 5.33306 9.22728 5.27423 9.06834 5.37227Z" fill="currentColor"/>
<path d="M10.6781 7.32336C10.2411 7.38218 9.73443 7.80375 9.93311 7.94101C10.1219 8.06846 10.3901 8.01944 10.3603 7.86258C10.3404 7.79395 10.3603 7.75473 10.4099 7.76454C10.5291 7.80375 11.3238 7.4312 11.3238 7.33316C11.3238 7.25473 11.2444 7.25473 10.6781 7.32336Z" fill="currentColor"/>
<path d="M10.5586 8.23522C10.4294 8.28424 10.3301 8.37247 10.3301 8.4313C10.3301 8.66659 10.946 8.50973 11.0056 8.25483C11.0254 8.11757 10.8764 8.10777 10.5586 8.23522Z" fill="currentColor"/>
</svg>
