<svg width="15" height="15" viewBox="0 0 15 15" fill="none" xmlns="http://www.w3.org/2000/svg">
<path d="M6.58312 1.05014C6.29686 1.11137 5.95335 1.32565 5.60984 1.63178C5.30068 1.91749 4.94572 2.13178 4.72816 2.17259C3.62892 2.36647 2.8732 3.08076 2.86175 3.9379C2.86175 4.27463 2.79305 4.40729 2.44953 4.7032C1.59075 5.4379 1.419 6.56035 2.03732 7.4481C2.34648 7.87667 2.39228 8.02974 2.33503 8.39708C2.24343 8.98892 2.73579 9.83586 3.41137 10.2542C3.97243 10.6012 5.35793 10.7134 5.47243 10.4277C5.50679 10.3257 5.60984 10.3665 5.83885 10.5603C6.0106 10.7134 6.35411 10.8971 6.59457 10.9685C7.12129 11.1318 7.10984 11.0808 6.80068 12.4889C6.52587 13.7032 6.53732 13.8767 6.91518 13.8869C8.14037 13.9175 8.83885 13.8971 8.93045 13.8155C8.99915 13.7542 8.9648 13.2848 8.81595 12.5195C8.52969 10.9991 8.51824 11.0808 8.97625 10.9379C9.19381 10.8665 9.52587 10.6624 9.72053 10.4889C10.0526 10.1828 10.0984 10.1726 10.4534 10.2848C11.0259 10.4685 11.5755 10.4379 12.1366 10.1726C12.6976 9.92769 13.2129 9.34606 13.1213 9.06035C13.0984 8.95831 13.1213 8.89708 13.1785 8.9379C13.2587 8.97872 13.3388 8.4379 13.293 8.14198C13.293 8.10116 13.4419 7.78484 13.6251 7.42769C14.003 6.71341 14.0602 6.12157 13.8083 5.47871C13.6137 4.99912 13.293 4.67259 13.0869 4.74402C12.9953 4.76443 12.961 4.74402 12.9953 4.693C13.0297 4.64198 12.9495 4.53994 12.8007 4.48892C12.5831 4.39708 12.5373 4.29504 12.5259 3.88688C12.503 3.37667 12.1938 2.71341 11.8388 2.4379C11.4953 2.16239 10.877 1.92769 10.7396 1.99912C10.6595 2.03994 10.648 2.02974 10.6938 1.95831C10.7511 1.86647 10.6137 1.83586 10.2243 1.83586C9.78923 1.83586 9.61747 1.78484 9.39992 1.57055C8.74724 0.968511 7.73961 0.774634 6.58312 1.05014ZM8.60984 1.75423C8.83885 1.87667 9.09076 2.10116 9.15946 2.25423C9.29686 2.53994 9.30831 2.53994 10.0182 2.47872C10.7167 2.42769 10.7396 2.42769 11.1862 2.79504C11.7014 3.20321 11.919 3.74402 11.7816 4.21341C11.6556 4.61137 11.7587 4.79504 12.1366 4.86647C13.2358 5.06035 13.5908 6.37667 12.8236 7.34606C12.6404 7.58076 12.606 7.73382 12.6633 8.22361C12.7434 8.95831 12.4915 9.37667 11.8045 9.693C11.2091 9.95831 11.003 9.9481 10.5335 9.64198C10.0297 9.30525 9.77778 9.31545 9.56022 9.693C9.34266 10.0706 8.90755 10.3359 8.56404 10.2848C8.32358 10.2542 8.30068 10.193 8.24343 9.55014C8.18617 8.81545 8.01442 8.57055 7.62511 8.7032C7.4877 8.75423 7.4419 8.91749 7.43045 9.35627C7.40755 10.5501 7.05259 10.7644 6.34266 10.0297L5.9877 9.66239L5.41518 9.83586C4.63656 10.0706 3.99534 9.9379 3.44572 9.4481C3.0335 9.07055 2.9419 8.63178 3.10221 7.80525C3.13656 7.6828 3.09075 7.61137 2.99915 7.63178C2.93045 7.64198 2.8732 7.62157 2.88465 7.58076C2.90755 7.52974 2.79305 7.31545 2.64419 7.10116C2.08312 6.30525 2.35793 5.32565 3.25106 4.9481C3.61747 4.79504 3.61747 4.77463 3.57167 4.23382C3.50297 3.35627 4.33885 2.55014 5.19763 2.693C5.56404 2.75423 5.95335 2.58076 5.95335 2.35627C5.95335 2.193 6.68617 1.62157 7.02969 1.53994C7.4877 1.40729 8.08312 1.49912 8.60984 1.75423Z" fill="black"/>
<path d="M7.47534 3.04982C7.41809 3.08044 7.25778 3.2539 7.12038 3.42737C6.93717 3.66207 6.75397 3.76411 6.42191 3.81513C5.59748 3.92737 5.36847 4.54982 5.95244 5.04982C6.2387 5.29472 6.2845 5.40697 6.2387 5.63146C6.06694 6.29472 6.57076 6.63146 7.31504 6.36615C7.65855 6.2437 7.81885 6.2335 8.00206 6.31513C8.64328 6.62125 9.08984 6.35595 9.02114 5.70288C8.98679 5.35595 9.03259 5.22329 9.25015 5.02942C9.73107 4.60084 9.3761 3.94778 8.59748 3.84574C8.43717 3.82533 8.28832 3.7437 8.26542 3.66207C8.11656 3.17227 7.75015 2.87635 7.47534 3.04982ZM7.79595 3.9988C7.8761 4.13146 7.93336 4.2437 7.92191 4.2539C7.8074 4.40697 7.95626 4.4988 8.21962 4.44778C8.74633 4.34574 8.89519 4.52942 8.48297 4.78452L8.13946 5.00901L8.32267 5.35595C8.58603 5.84574 8.42572 5.91717 7.96771 5.51921L7.58985 5.19268L7.26923 5.51921C6.83412 5.9988 6.61656 5.9886 6.87992 5.51921L7.08603 5.15186L6.74252 4.86615C6.34175 4.53962 6.39901 4.35595 6.90282 4.40697C7.22343 4.43758 7.28068 4.39676 7.38374 4.10084C7.50969 3.71309 7.61275 3.69268 7.79595 3.9988Z" fill="black"/>
<path d="M10.7061 5.79503C10.5115 5.83585 9.40079 6.62156 9.48094 6.66238C9.49239 6.67258 9.45804 6.83585 9.40079 7.00931C9.30919 7.30523 9.33209 7.36646 9.58399 7.55013C9.7443 7.66238 9.91606 7.7338 9.96186 7.70319C10.0191 7.67258 10.0306 7.74401 9.99621 7.84605C9.96186 7.9787 10.0306 8.10115 10.2138 8.20319C10.5 8.36646 11.1069 8.38687 11.1069 8.2338C11.1069 8.19299 11.1641 8.18278 11.2328 8.2134C11.2901 8.25421 11.4046 8.15217 11.4733 7.98891C11.542 7.82564 11.7481 7.61136 11.9313 7.51952C12.4122 7.27462 12.3664 6.85625 11.8168 6.34605C11.313 5.87666 11.0153 5.7338 10.7061 5.79503ZM10.9924 6.4787C11.0496 6.62156 11.1756 6.7338 11.2672 6.7338C11.542 6.7338 11.5993 7.07054 11.3588 7.24401C11.2443 7.33585 11.084 7.50931 11.0038 7.63176C10.8206 7.93789 10.7061 7.91748 10.5344 7.55013C10.4428 7.36646 10.3054 7.24401 10.1794 7.24401C10.042 7.24401 9.96186 7.17258 9.96186 7.03993C9.96186 6.84605 10.0764 6.79503 10.397 6.82564C10.4657 6.83585 10.5344 6.76442 10.5344 6.65217C10.5344 6.49911 10.729 6.2236 10.8435 6.2236C10.8664 6.2236 10.9351 6.33585 10.9924 6.4787Z" fill="black"/>
<path d="M4.41977 6.68254C4.30526 6.76417 4.20221 6.95805 4.19076 7.13152C4.17931 7.29479 4.14496 7.40703 4.09916 7.38662C3.9961 7.3254 3.89305 7.49887 3.82435 7.81519C3.7671 8.0805 4.03045 8.46826 4.25946 8.46826C4.32816 8.46826 4.49992 8.56009 4.66023 8.67234C5.25565 9.0907 6.11442 8.76417 6.48084 7.97846C6.69839 7.49887 6.54954 7.29479 5.63351 6.85601C4.85488 6.48866 4.72893 6.46826 4.41977 6.68254ZM5.2671 7.40703C5.2671 7.48866 5.3816 7.54989 5.55336 7.54989C5.87397 7.54989 5.96557 7.91723 5.66786 8.01928C5.57626 8.06009 5.4961 8.14172 5.4961 8.21315C5.4961 8.48866 5.2671 8.47846 4.86633 8.19275C4.43122 7.88662 4.36252 7.71315 4.63732 7.61111C4.72893 7.5805 4.80908 7.48866 4.80908 7.40703C4.80908 7.25397 5.02664 7.14172 5.18694 7.21315C5.23274 7.23356 5.2671 7.3254 5.2671 7.40703Z" fill="black"/>
</svg>
