<svg width="15" height="15" viewBox="0 0 15 15" fill="none" xmlns="http://www.w3.org/2000/svg">
<g clip-path="url(#clip0_1008_1646)">
<path d="M7.31295 0.959101C7.19108 1.05837 6.90983 1.35616 6.70358 1.62087C6.32858 2.07307 6.18795 2.12822 6.18795 1.78631C6.18795 1.51057 5.88795 0.881895 5.76608 0.881895C5.69108 0.881895 5.6067 0.992189 5.57858 1.12454C5.47545 1.51057 5.02545 2.6466 4.9692 2.6466C4.94108 2.6466 4.83795 2.44807 4.7442 2.20542C4.64108 1.96278 4.53795 1.76425 4.50983 1.76425C4.35045 1.77528 4.17233 2.00689 4.16295 2.22748C4.16295 2.37087 4.1067 2.72381 4.04108 3.01057L3.90983 3.53998L3.70358 3.30837C3.5817 3.17601 3.45983 2.94439 3.4317 2.80101C3.3942 2.65763 3.3192 2.53631 3.2442 2.53631C2.9067 2.53631 2.82233 3.12087 2.95358 4.77528C3.02858 5.72381 3.03795 5.69072 2.10045 6.85984C1.75358 7.28998 1.58483 7.40028 1.1442 7.51057C0.00982586 7.80837 -0.0276741 8.6466 1.04108 9.78263C1.2567 10.0142 1.52858 10.301 1.6317 10.4334C2.02545 10.8966 3.2817 11.5473 3.49733 11.3929C3.5442 11.3598 3.56295 11.3709 3.53483 11.426C3.5067 11.4922 3.6942 11.6466 3.94733 11.779C4.5192 12.0878 4.52858 12.2753 3.98483 12.562C3.75045 12.6834 3.56295 12.8378 3.56295 12.915C3.56295 12.9812 3.48795 13.1025 3.40358 13.1797C3.25358 13.312 3.25358 13.3341 3.3942 13.5878C3.70358 14.1392 4.1442 14.2054 5.31608 13.8635C5.52233 13.8084 5.9817 13.2238 6.10358 12.8819C6.18795 12.6282 6.26295 12.5731 6.42233 12.6172C6.53483 12.6503 7.09733 12.6834 7.67858 12.6944C8.25045 12.7054 8.7192 12.7606 8.7192 12.8047C8.7192 12.8598 8.61608 12.904 8.4942 12.904C8.27858 12.904 7.7817 13.3562 7.7817 13.5437C7.7817 14.0069 8.4942 14.2606 9.23483 14.0731C9.33795 14.051 9.5067 14.0951 9.6192 14.1723C9.87233 14.3598 10.7536 14.3047 11.138 14.0731C11.6161 13.7753 12.338 12.3194 12.3942 11.5032C12.4036 11.3709 12.8348 11.6797 12.8442 11.8231C12.8442 12.0216 13.1067 11.8892 13.2192 11.6356C13.3223 11.404 13.3223 11.2165 13.2005 10.4223C13.0692 9.56204 13.0692 9.49587 13.2098 9.62822C13.3598 9.78263 13.5473 9.7716 13.7536 9.57307C13.8755 9.46278 13.5567 8.48116 13.2286 7.94072L13.0598 7.66498L13.4536 7.69807C14.2786 7.77528 14.213 7.23484 13.2848 6.38557C12.6661 5.81204 12.6661 5.8341 13.2192 5.54734C14.0255 5.13925 13.6036 4.54366 12.3567 4.35616C11.9536 4.30101 11.9536 4.26793 12.3286 3.79366C12.9098 3.0216 12.7223 2.80101 11.4567 2.8341L10.5755 2.85616L10.7911 2.58042C10.9036 2.43704 10.9692 2.31572 10.9223 2.31572C10.8755 2.31572 10.9223 2.24954 11.0255 2.16131C11.1661 2.02895 11.1848 1.96278 11.1005 1.79734C10.9505 1.51057 10.7348 1.49954 10.2661 1.75322C10.0317 1.88557 9.78795 1.98484 9.72233 1.98484C9.6567 1.98484 9.55358 2.03998 9.49733 2.10616C9.4317 2.18337 9.41295 2.07307 9.4317 1.72013C9.45983 1.26792 9.44108 1.21278 9.27233 1.21278C8.9817 1.21278 8.42858 1.55469 8.50358 1.68704C8.5317 1.74219 8.52233 1.76425 8.46608 1.73116C8.4192 1.68704 8.2317 1.78631 8.06295 1.92969C7.68795 2.26057 7.65045 2.2716 7.73483 2.00689C8.0817 1.03631 7.86608 0.506895 7.31295 0.959101ZM7.4067 1.7091C7.20983 1.98484 7.2192 2.72381 7.41608 2.93337C7.5942 3.12087 7.61295 3.10984 7.95045 2.74587C8.85983 1.75322 9.0567 1.64292 8.7942 2.28263C8.50358 2.96645 8.7942 3.30837 9.26295 2.82307C9.37545 2.70175 9.53483 2.59145 9.60983 2.58042C9.68483 2.56939 9.8817 2.48116 10.0411 2.38189C10.4442 2.15028 10.4723 2.21645 10.1817 2.72381C9.81608 3.34145 9.86295 3.59513 10.313 3.53998C10.8098 3.48484 11.1567 3.37454 11.1567 3.28631C11.1567 3.2091 11.1942 3.2091 11.2786 3.28631C11.3348 3.34145 11.4848 3.37454 11.6067 3.35248C11.8973 3.29734 11.8598 3.49587 11.4848 3.98116C11.1473 4.42234 11.063 4.73116 11.2786 4.75322C11.3348 4.75322 11.4755 4.77528 11.5786 4.79734C11.6817 4.8194 12.0005 4.86351 12.2911 4.90763C12.6473 4.95175 12.8161 5.01793 12.8161 5.12822C12.8161 5.21645 12.788 5.2716 12.7598 5.2716C12.7317 5.26057 12.5817 5.31572 12.4411 5.3819C12.2911 5.4591 12.1411 5.51425 12.0942 5.51425C11.7661 5.51425 11.9348 5.99954 12.3567 6.30837C12.7786 6.60616 13.3505 7.16866 13.2473 7.17969C13.2098 7.19072 13.0973 7.19072 13.013 7.17969C12.6005 7.12454 12.338 7.54366 12.5911 7.85248C12.6567 7.92969 12.7973 8.16131 12.8911 8.35984C12.9942 8.54734 13.1067 8.71278 13.1442 8.71278C13.1817 8.71278 13.2192 8.78998 13.2192 8.87822C13.2192 8.99954 13.1348 9.04366 12.9098 9.0216C12.4036 8.98851 12.3286 9.15395 12.5348 9.81572C12.6098 10.0473 12.638 10.1576 12.7317 10.5988C12.7973 10.9076 12.788 10.9959 12.6942 10.9959C12.6192 10.9959 12.5817 10.9628 12.6098 10.9407C12.6661 10.8635 12.4692 10.5878 12.3567 10.5878C12.2067 10.5878 11.6911 12.0106 11.7473 12.3084C11.7661 12.4517 11.7661 12.551 11.738 12.529C11.7098 12.4959 11.5786 12.6834 11.4286 12.9591C11.1286 13.5106 10.9036 13.687 10.3411 13.7863C9.82545 13.8856 9.81608 13.7091 10.3036 13.3782C10.6692 13.1356 10.7817 12.8378 10.7817 12.165C10.7817 11.9003 10.7536 11.8892 10.4348 11.9554C9.2817 12.187 7.2942 12.2422 6.6567 12.0657C6.42233 12.0106 6.15045 11.9775 5.93483 12.0106C5.8692 12.0106 5.81295 12.1098 5.81295 12.2091C5.81295 12.7716 4.9317 13.5657 4.31295 13.5657C3.93795 13.5657 3.94733 13.301 4.31295 13.1245C4.71608 12.926 4.87545 12.6062 4.87545 12.0216V11.5253L4.1442 11.2606C3.75045 11.1062 3.23483 10.8966 3.00983 10.7753L2.6067 10.5657L3.00983 10.29C3.45983 9.99219 3.56295 9.85984 3.56295 9.56204C3.56295 9.23116 3.32858 9.24219 3.0192 9.57307C2.4942 10.1576 2.09108 10.1356 1.46295 9.48484L1.12545 9.1319L1.32233 8.81204C1.42545 8.63557 1.50045 8.41498 1.4817 8.30469C1.46295 8.1944 1.54733 8.06204 1.67858 7.98484C1.95045 7.8194 2.63483 7.04734 3.1317 6.34145C3.49733 5.82307 3.5067 5.82307 3.96608 5.87822C4.69733 5.98851 5.6067 6.59513 5.73795 7.08043C5.7942 7.27895 6.0942 6.99219 6.0942 6.73851C6.10358 6.49587 6.72233 5.95543 6.9942 5.95543C7.53795 5.95543 7.35983 7.05837 6.75983 7.41131C6.62858 7.48851 6.5067 7.66498 6.48795 7.79734C6.42233 8.3819 7.27545 7.8966 7.68795 7.11351C8.02545 6.46278 7.91295 5.62454 7.46295 5.4591C6.90045 5.26057 6.77858 5.28263 6.29108 5.67969C5.77545 6.08778 5.58795 6.14293 5.47545 5.9444C5.37233 5.73484 4.57545 5.40395 4.02233 5.32675L3.47858 5.26057L3.42233 4.69807C3.38483 4.38925 3.37545 3.98116 3.3942 3.80469L3.42233 3.47381L3.60045 3.93704C3.77858 4.38925 3.96608 4.57675 4.12545 4.46645C4.2192 4.40028 4.54733 3.19807 4.50983 3.05469C4.50045 2.99954 4.53795 2.98851 4.5942 3.03263C4.64108 3.06572 4.68795 3.17601 4.68795 3.25322C4.68795 3.34145 4.77233 3.46278 4.87545 3.52895C5.02545 3.62822 5.0817 3.59513 5.22233 3.28631C5.3067 3.08778 5.37233 2.88925 5.36295 2.8341C5.35358 2.78998 5.3817 2.75689 5.42858 2.75689C5.51295 2.75689 5.6817 2.32675 5.6442 2.18337C5.63483 2.15028 5.6817 2.06204 5.74733 2.00689C5.8317 1.91866 5.85983 2.00689 5.8692 2.33778C5.8692 2.71278 6.00045 2.96645 6.19733 2.97748C6.2442 2.97748 6.59108 2.56939 7.1817 1.80837C7.2942 1.67601 7.35983 1.5216 7.32233 1.47748C7.2942 1.43337 7.32233 1.43337 7.38795 1.47748C7.4817 1.54366 7.4817 1.59881 7.4067 1.7091ZM10.2192 12.6834C10.2192 12.8047 10.0692 12.9701 9.8442 13.1025C9.71295 13.1687 9.5442 13.279 9.4692 13.3341C9.18795 13.5437 8.43795 13.7642 8.3817 13.654C8.3067 13.5106 8.52233 13.3451 8.7942 13.3451C8.91608 13.3451 8.9817 13.301 8.95358 13.2348C8.92545 13.1687 8.96295 13.1576 9.03795 13.1907C9.1317 13.2348 9.18795 13.2017 9.18795 13.0915C9.18795 12.7937 9.42233 12.6282 9.82545 12.6282C10.0411 12.6172 10.2192 12.6392 10.2192 12.6834Z" fill="black"/>
<path d="M6.08457 3.87025C5.75644 4.35554 5.66269 4.80775 5.86894 4.89598C5.95332 4.92907 6.08457 4.77466 6.23457 4.47686C6.36582 4.20113 6.53457 3.95848 6.60957 3.93642C6.76894 3.85922 6.68457 3.41804 6.51582 3.41804C6.45019 3.41804 6.25332 3.61657 6.08457 3.87025Z" fill="black"/>
<path d="M8.23125 3.91583C7.89375 4.19156 7.6875 4.48936 7.6875 4.732C7.6875 4.9195 7.93125 4.87538 8.07188 4.67686C8.14688 4.57759 8.38125 4.40112 8.59688 4.29083C8.86875 4.15847 8.98125 4.03715 8.9625 3.89377C8.925 3.59597 8.61563 3.59597 8.23125 3.91583Z" fill="black"/>
<path d="M9.69502 4.90689C9.29189 5.11645 9.15127 5.33704 9.32002 5.50248C9.40439 5.59072 9.51689 5.60175 9.66689 5.52454C9.78877 5.46939 10.07 5.37013 10.295 5.29292C10.595 5.20469 10.6888 5.11645 10.67 4.9841C10.6325 4.74145 10.0888 4.69734 9.69502 4.90689Z" fill="black"/>
<path d="M10.6408 6.70517C10.6127 6.79341 10.6221 6.91473 10.6689 6.96988C10.8658 7.2015 11.7283 7.28973 11.7846 7.0912C11.8877 6.74929 10.7533 6.36326 10.6408 6.70517Z" fill="black"/>
<path d="M8.40906 6.91525C8.29656 7.03657 8.34343 7.36746 8.47468 7.4226C8.67156 7.51084 9.59968 7.37848 9.67468 7.24613C9.82468 6.9704 9.62781 6.83804 9.05593 6.83804C8.72781 6.83804 8.43718 6.87113 8.40906 6.91525Z" fill="black"/>
<path d="M3.66629 7.62016C3.52567 8.10545 3.53504 8.38119 3.70379 8.4584C4.06004 8.61281 4.38817 7.74148 4.10692 7.4106C3.91942 7.19001 3.77879 7.25619 3.66629 7.62016Z" fill="black"/>
<path d="M10.9607 8.55847C10.8576 8.70186 10.8857 8.77906 11.1295 9.04377C11.4389 9.38568 11.8514 9.57318 11.9357 9.40774C12.0201 9.25333 11.617 8.63568 11.3639 8.50333C11.092 8.34892 11.1107 8.34892 10.9607 8.55847Z" fill="black"/>
<path d="M9.00143 8.76867C8.84205 9.00029 8.9358 9.09956 9.58268 9.36426C10.0702 9.56279 10.1171 9.56279 10.1733 9.39735C10.2389 9.17676 9.88268 8.7797 9.6858 8.86794C9.62018 8.90103 9.5733 8.86794 9.59205 8.79073C9.62018 8.5922 9.14205 8.57015 9.00143 8.76867Z" fill="black"/>
<path d="M6.55446 8.88845C6.46071 9.03183 6.46071 9.07595 6.57321 9.16419C7.11696 9.59433 7.50133 9.6936 7.78258 9.48404C7.86696 9.41786 7.88571 9.37375 7.81071 9.37375C7.74508 9.37375 7.71696 9.30757 7.73571 9.23036C7.80133 9.06492 7.27633 8.77816 7.03258 8.85536C6.92946 8.88845 6.84508 8.86639 6.84508 8.81125C6.84508 8.65683 6.69508 8.68992 6.55446 8.88845Z" fill="black"/>
<path d="M8.50305 10.3338C8.31555 10.5544 8.54055 10.8191 9.0468 10.9625C9.10305 10.9846 9.21555 11.0287 9.29993 11.0728C9.4968 11.1721 9.65618 11.0728 9.65618 10.8522C9.65618 10.5103 8.7093 10.0802 8.50305 10.3338Z" fill="black"/>
<path d="M10.6131 10.3993C10.4162 10.6751 11.3444 11.5684 11.6162 11.3699C11.7662 11.2596 11.6537 10.9618 11.3162 10.6309C10.9975 10.3001 10.735 10.2229 10.6131 10.3993Z" fill="black"/>
</g>
<defs>
<clipPath id="clip0_1008_1646">
<rect width="15" height="15" fill="white"/>
</clipPath>
</defs>
</svg>
