<svg width="15" height="15" viewBox="0 0 15 15" fill="none" xmlns="http://www.w3.org/2000/svg">
<path d="M10.9492 1.40482C10.7959 1.47213 10.5989 1.52982 10.5003 1.53944C10.4018 1.53944 10.1062 1.6452 9.84339 1.7702C9.41639 1.98174 9.3069 2.00097 8.87989 1.91444C8.61712 1.86636 8.33244 1.83751 8.24485 1.86636C8.16821 1.8952 8.10252 1.88559 8.10252 1.83751C8.10252 1.75097 7.98208 1.74136 7.12806 1.73174C6.81055 1.73174 6.47113 1.77982 6.37259 1.84713C6.23025 1.9529 6.21931 1.9529 6.29595 1.83751C6.36164 1.73174 6.32879 1.71251 6.12077 1.7702C5.11347 2.02982 4.60982 2.01059 4.13901 1.72213C3.94193 1.59713 3.7777 1.51059 3.7777 1.5202C3.7777 1.53944 3.63536 1.51059 3.47113 1.4529C3.03317 1.30867 2.86894 1.31828 2.7485 1.5202C2.62806 1.73174 2.89084 2.6452 3.14266 2.90482C3.285 3.03944 3.27405 3.08751 3.09887 3.24136C2.67186 3.61636 2.38719 4.30867 2.33244 5.11636C2.2777 5.79905 2.21201 5.97213 1.83974 6.51059C1.60982 6.84713 1.44558 7.16444 1.47843 7.21251C1.51128 7.25097 1.48938 7.30867 1.43463 7.3279C1.12806 7.42405 1.07332 9.25097 1.35799 9.90482C1.45653 10.1452 1.55507 10.3856 1.56602 10.4433C1.62077 10.6548 2.31055 11.3279 2.51858 11.376C2.69376 11.4144 2.78135 11.3664 2.86894 11.1933C3.02223 10.9144 3.21931 10.8952 3.35069 11.1548C3.51493 11.4625 4.60982 12.4048 4.73025 12.3471C4.79595 12.3087 4.82879 12.3375 4.79595 12.4144C4.77405 12.4817 4.59887 12.5491 4.42369 12.5587C4.2485 12.5683 4.07332 12.5779 4.01858 12.5875C3.97478 12.5875 3.85434 12.751 3.7558 12.9337C3.59157 13.2414 3.59157 13.2894 3.7339 13.4241C3.88719 13.5491 3.94193 13.5394 4.2485 13.2606L4.59887 12.9433L4.56602 13.3279C4.54412 13.6452 4.57697 13.7029 4.77405 13.7317C5.05872 13.7702 5.2558 13.3856 5.21201 12.9048C5.19011 12.6644 5.22296 12.5971 5.33244 12.6452C5.42004 12.6741 5.51858 12.6933 5.54047 12.6933C5.63901 12.6933 5.57332 13.1452 5.47478 13.2317C5.38719 13.3087 5.42004 13.4048 5.57332 13.5683C5.89084 13.9144 6.05507 13.7414 6.12077 12.9625C6.13171 12.8183 6.2631 12.7991 7.19376 12.8183L8.24485 12.8375L8.40909 13.251C8.56237 13.6644 8.7485 13.751 8.96748 13.5202C9.04412 13.4337 9.05507 13.3087 9.00033 13.1644C8.87989 12.8952 8.94558 12.6933 9.13171 12.6933C9.19741 12.6933 9.27405 12.8087 9.285 12.9529C9.31785 13.2798 9.61347 13.6741 9.7777 13.626C9.90909 13.5875 9.92004 13.5587 9.95288 13.1452L9.97478 12.9337L10.1828 13.1548C10.4018 13.3856 10.7303 13.4144 10.8069 13.2029C10.8288 13.1452 10.6646 12.9144 10.4456 12.6933C10.0514 12.3087 10.0405 12.2894 10.2376 12.1837C10.4894 12.0683 11.0259 11.5779 11.2886 11.2414C11.4638 11.0202 11.4748 11.0202 11.7595 11.1837C12.1208 11.3952 12.3835 11.3375 12.6135 10.9914C13.0405 10.3375 13.3689 8.37597 13.15 7.75097C13.0952 7.58751 12.9857 7.26059 12.92 7.02982C12.8543 6.79905 12.6573 6.50097 12.504 6.36636C12.3397 6.23174 12.285 6.15482 12.3726 6.2029C12.4602 6.25097 12.4273 6.17405 12.285 6.03944C12.077 5.84713 12.0332 5.7029 12.0551 5.3279C12.0879 4.77982 11.9237 4.23174 11.5405 3.55867C11.223 3.01059 11.1354 2.69328 11.2777 2.69328C11.3872 2.69328 11.65 1.92405 11.6609 1.59713C11.6609 1.34713 11.2777 1.24136 10.9492 1.40482ZM3.7558 2.0779C3.95288 2.16444 4.19376 2.31828 4.30325 2.41444C4.52223 2.61636 5.12441 2.66444 5.20106 2.47213C5.3215 2.22213 8.17916 2.19328 8.95653 2.44328C9.41639 2.58751 9.42733 2.58751 9.88719 2.31828C10.3032 2.06828 11.0587 1.83751 11.0587 1.96251C11.0587 2.08751 10.7959 2.50097 10.7084 2.50097C10.6646 2.50097 10.6208 2.63559 10.6208 2.79905C10.6208 2.99136 10.6646 3.06828 10.7522 3.0202C10.8288 2.98174 10.8397 2.99136 10.7959 3.05867C10.7522 3.11636 10.8397 3.3952 10.9821 3.67405C11.2558 4.19328 11.3872 4.58751 11.42 4.97213C11.431 5.09713 11.4857 5.19328 11.5295 5.19328C11.5843 5.19328 11.5843 5.24136 11.5405 5.30867C11.4967 5.37597 11.4638 5.58751 11.4857 5.78944C11.4967 6.06828 11.42 6.26059 11.1792 6.56828C10.7959 7.03944 10.5879 7.71251 10.774 7.89521C10.8616 7.98174 10.8616 7.99136 10.7522 7.93367C10.5003 7.80867 10.6427 9.47213 10.9383 9.99136C11.0587 10.2317 11.1682 10.4721 11.1682 10.5394C11.1682 10.7414 9.88719 11.8279 9.64631 11.8279C9.52587 11.8279 9.40544 11.8664 9.36164 11.9144C9.25215 12.0779 8.05872 12.3279 7.45653 12.3183C6.43828 12.2991 5.54047 12.1164 5.03682 11.8279C4.77405 11.6741 4.52223 11.5683 4.46748 11.5971C4.42369 11.626 4.37989 11.5875 4.37989 11.5106C4.37989 11.4337 4.30325 11.3087 4.19376 11.2414C3.7339 10.9048 3.46018 10.0971 3.46018 9.02021C3.44923 8.39521 3.40544 7.98174 3.33974 7.98174C3.285 7.98174 3.29595 7.94328 3.37259 7.89521C3.58062 7.77982 3.66821 7.2029 3.49303 7.10674C3.18646 6.94328 3.06602 7.19328 2.90179 8.36636C2.89084 8.44328 2.84704 8.7029 2.8142 8.94328C2.7704 9.18367 2.71566 9.63559 2.68281 9.9529C2.60617 10.5875 2.48573 10.7798 2.2777 10.5875C2.15726 10.4817 2.16821 10.4721 2.2996 10.5298C2.43098 10.5971 2.42004 10.5683 2.2777 10.4241C1.97113 10.1164 1.7412 9.36636 1.7631 8.73174C1.785 7.68367 1.8069 7.52021 1.90544 7.56828C1.96018 7.60674 1.97113 7.50097 1.92733 7.34713C1.87259 7.15482 1.88354 7.10674 1.96018 7.2029C2.04777 7.31828 2.08062 7.29905 2.13536 7.08751C2.17916 6.9529 2.2777 6.78944 2.36529 6.72213C2.45288 6.66444 2.48573 6.5779 2.45288 6.52982C2.42004 6.48174 2.45288 6.4529 2.52952 6.46251C2.7266 6.50097 2.96748 6.04905 2.90179 5.77021C2.7485 5.14521 3.03317 3.91444 3.39449 3.65482C3.7996 3.36636 4.02952 2.69328 3.72295 2.69328C3.62441 2.69328 3.285 2.15482 3.285 2.00097C3.285 1.8952 3.36164 1.90482 3.7558 2.0779ZM12.3178 7.0779C12.7668 7.90482 12.7449 9.29905 12.274 10.3664C12.1646 10.6067 12.0989 10.6548 11.9894 10.5779C11.7923 10.4337 11.3215 9.54905 11.223 9.13559C11.1792 8.9529 11.0916 8.74136 11.0149 8.66444C10.9273 8.55867 10.9273 8.53944 11.0149 8.58751C11.1025 8.62597 11.1573 8.4529 11.1901 8.03944C11.2558 7.38559 11.4857 6.85674 11.6938 6.89521C11.7704 6.91444 11.8251 6.8279 11.8251 6.72213C11.8251 6.44328 12.066 6.61636 12.3178 7.0779Z" fill="black"/>
<path d="M4.6641 3.18393C3.10935 3.50124 2.83563 5.73201 4.29184 6.29931C4.86118 6.52047 5.43052 6.5397 5.84658 6.36662C6.1641 6.23201 6.17505 6.24162 6.55826 6.62624C7.06191 7.13585 7.40133 7.15508 7.75169 6.68393C7.88308 6.50124 7.99257 6.30893 7.99257 6.25124C7.99257 6.12624 8.1787 6.12624 8.26629 6.25124C8.31008 6.30893 8.38673 6.32816 8.44147 6.29931C8.49622 6.26085 8.54001 6.2897 8.54001 6.35701C8.54001 6.42431 8.57286 6.45316 8.60571 6.42431C8.63855 6.38585 8.81373 6.40508 8.98892 6.44354C9.35023 6.5397 10.1495 6.33778 10.1057 6.1647C10.0838 6.11662 10.1386 6.08778 10.2261 6.11662C10.5327 6.22239 10.9597 5.5397 11.0145 4.86662C11.0473 4.49162 11.0254 4.22239 10.9597 4.18393C10.894 4.15508 10.8393 4.04931 10.8393 3.95316C10.8393 3.75124 10.478 3.43393 10.3575 3.53008C10.3137 3.57816 10.2918 3.54931 10.3137 3.47239C10.4123 3.06854 9.07651 2.95316 8.37578 3.29931C7.81738 3.57816 7.20425 4.35701 7.24804 4.74162C7.26994 4.89547 7.23709 5.03008 7.18235 5.0397C7.1276 5.0397 7.06191 4.85701 7.04001 4.62624C6.98527 3.96278 6.38308 3.33778 5.71519 3.22239C5.51811 3.19354 5.28819 3.14547 5.22249 3.12624C5.14585 3.11662 4.89403 3.13585 4.6641 3.18393ZM9.68965 3.71278C9.87578 3.75124 10.0619 3.77047 10.1057 3.76085C10.1604 3.75124 10.1714 3.7897 10.1386 3.83778C10.0948 3.88585 10.1386 3.97239 10.2261 4.01085C10.5108 4.14547 10.5437 4.9147 10.2918 5.39547C10.1714 5.62624 10.0729 5.78008 10.0729 5.74162C10.0729 5.69354 9.96337 5.73201 9.83198 5.80893C9.06556 6.28008 7.6422 5.52047 7.82833 4.74162C7.95972 4.14547 8.60571 3.51085 8.95607 3.63585C9.06556 3.67431 9.09841 3.64547 9.04366 3.56854C8.97797 3.48201 8.99987 3.47239 9.15315 3.54931C9.27359 3.59739 9.51446 3.67431 9.68965 3.71278ZM6.17505 4.07816C6.85388 4.99162 6.1203 6.07816 4.92687 5.93393C3.85388 5.80893 3.51446 4.65508 4.31373 3.86662C4.49987 3.67431 4.63125 3.64547 5.21154 3.6647C5.86848 3.68393 5.89038 3.69354 6.17505 4.07816ZM7.44512 5.67431C7.56556 5.86662 7.39038 6.5397 7.22614 6.5397C7.06191 6.5397 6.77724 5.93393 6.83198 5.71278C6.91957 5.42431 7.28089 5.40508 7.44512 5.67431Z" fill="black"/>
<path d="M8.97822 4.5401C8.7264 4.78049 8.7045 4.90549 8.90158 5.11703C9.09866 5.33818 9.38333 5.39587 9.52567 5.23241C9.60231 5.15549 9.62421 5.0978 9.56946 5.0978C9.52567 5.0978 9.53662 5.04972 9.61326 4.98241C9.81034 4.80933 9.76654 4.65549 9.47092 4.48241C9.2191 4.33818 9.1972 4.33818 8.97822 4.5401Z" fill="black"/>
<path d="M4.83877 4.54834C4.70739 4.68296 4.70739 5.09642 4.83877 5.09642C4.88257 5.09642 4.92637 5.16373 4.92637 5.24065C4.92637 5.5195 5.43002 5.41373 5.5833 5.10604C5.81323 4.60604 5.21104 4.15411 4.83877 4.54834Z" fill="black"/>
<path d="M4.63166 8.14562C4.52218 8.39562 4.83969 9.08793 5.06962 9.07831C5.16816 9.06869 5.22291 9.09754 5.19006 9.14562C5.08057 9.30908 5.69371 9.34754 5.95648 9.20331C6.18641 9.06869 6.24115 9.06869 6.44918 9.19369C6.56962 9.27062 6.73385 9.30908 6.7886 9.28023C6.85429 9.24177 6.88714 9.27062 6.87619 9.33793C6.8105 9.56869 7.40174 9.52062 7.71926 9.261C8.00393 9.02062 8.02582 9.02062 8.32145 9.16485C9.01123 9.53023 9.98568 8.87639 9.77765 8.18408C9.69006 7.89562 9.39444 7.96293 9.2959 8.29946C9.14261 8.80908 8.62801 9.05908 8.47473 8.70331C8.43093 8.62639 8.36524 8.57831 8.32145 8.60716C8.2667 8.636 8.25575 8.56869 8.2886 8.46293C8.39809 8.10716 7.93823 8.24177 7.62072 8.65523C7.46743 8.86677 7.2594 9.03985 7.18276 9.03985C6.98568 9.03985 6.67911 8.78023 6.66816 8.59754C6.65721 8.52062 6.64626 8.41485 6.63531 8.34754C6.61342 8.10716 6.36159 8.18408 6.04407 8.511C5.62801 8.96293 5.36524 8.93408 5.14626 8.386C4.98203 7.97254 4.7521 7.85716 4.63166 8.14562Z" fill="black"/>
<path d="M6.03393 10.3273C5.93539 10.4331 5.93539 10.5196 6.01203 10.6638C6.53758 11.5196 8.08138 11.4042 8.27846 10.5004C8.34415 10.2023 8.3332 10.1735 8.09232 10.2119C7.91714 10.2311 7.82955 10.2985 7.8405 10.4042C7.85145 10.5004 7.8186 10.5485 7.76386 10.5196C7.70911 10.4908 7.66532 10.5388 7.66532 10.6158C7.66532 11.0196 6.64707 10.8658 6.46094 10.4331C6.3405 10.1638 6.22006 10.135 6.03393 10.3273Z" fill="black"/>
</svg>
