<svg width="15" height="15" viewBox="0 0 15 15" fill="none" xmlns="http://www.w3.org/2000/svg">
<path d="M2.44395 1.35013C2.35506 1.4433 2.33284 1.60168 2.3884 1.79733C2.42173 1.95572 2.4884 2.21659 2.51062 2.37497C2.54395 2.52404 2.62173 2.79423 2.6884 2.97125C2.76617 3.18553 2.76617 3.34392 2.6884 3.48367C2.62173 3.58615 2.46617 3.93087 2.34395 4.23833C2.14395 4.76938 2.0884 5.0023 1.93284 6.10168C1.8884 6.35323 1.7884 6.73522 1.69951 6.94019C1.19951 8.08615 1.1884 8.16069 1.19951 9.26938C1.19951 9.88429 1.23284 10.4899 1.26617 10.6203C1.61062 11.8967 1.7884 12.083 2.47729 11.8781C2.69951 11.8129 2.8884 11.7942 2.8884 11.8408C2.8884 11.9619 3.35506 12.2973 3.72173 12.4371C4.34395 12.67 4.41062 12.7352 4.1884 12.875C3.96617 13.0147 3.74395 13.6669 3.8884 13.7414C4.05506 13.8253 4.29951 13.6948 4.45506 13.434C4.75506 12.9402 5.22173 12.7352 5.05506 13.1545C4.89951 13.5644 4.86617 13.9557 4.9884 14.0116C5.09951 14.0675 5.4884 13.7787 5.51062 13.6203C5.5884 13.024 5.8884 12.9309 5.8884 13.4992C5.8884 13.9091 6.14395 14.17 6.36617 13.9837C6.44395 13.9185 6.49951 13.7135 6.49951 13.5271V13.1824L7.52173 13.1638C8.57729 13.1358 8.67729 13.1638 8.75506 13.5551C8.76617 13.6576 8.85506 13.8067 8.94395 13.8812C9.21062 14.1048 9.4884 13.816 9.33284 13.4712C9.17729 13.1172 9.1884 12.9495 9.37729 12.9495C9.46617 12.9495 9.56617 13.0706 9.61062 13.2197C9.71062 13.6296 10.3328 14.0209 10.4995 13.7787C10.5328 13.7414 10.4662 13.5365 10.344 13.3222C10.2328 13.1172 10.1551 12.9495 10.1884 12.9495C10.2551 12.9495 10.7217 13.434 10.7217 13.5085C10.7328 13.8346 11.1328 13.8532 11.2995 13.5365C11.4328 13.3129 11.4106 13.2663 10.9995 12.9216C10.5328 12.5303 10.4551 12.3905 10.7106 12.3905C10.7995 12.3905 11.1662 12.1855 11.5106 11.9247C11.8551 11.6731 12.1884 11.4588 12.244 11.4588C12.6995 11.4588 13.7773 10.2104 13.844 9.6141C13.8551 9.41845 13.8995 9.1669 13.9328 9.04578C13.9662 8.92466 13.9106 8.70106 13.8217 8.55199C13.7217 8.39361 13.6995 8.30044 13.7662 8.32839C13.944 8.42156 13.8995 8.13274 13.6662 7.59236C13.5662 7.33149 13.4106 7.13584 13.3328 7.15448C13.2662 7.16379 13.2328 7.13584 13.2773 7.07994C13.3106 7.03336 13.2995 6.98677 13.244 6.98677C13.1884 6.98677 13.1551 6.7259 13.1551 6.39982C13.1662 5.87808 12.9884 4.91845 12.8106 4.56441C12.7773 4.48988 12.7328 4.40603 12.7217 4.37808C12.644 4.11721 12.5106 3.85634 12.444 3.81907C12.244 3.70727 12.3106 3.26007 12.6773 2.27249C12.7328 2.1141 12.744 1.90913 12.6995 1.81597C12.6551 1.69485 12.6662 1.6669 12.7551 1.71348C12.944 1.80665 12.9217 1.53646 12.7328 1.40603C12.5328 1.26628 11.3884 1.71348 11.5106 1.88118C11.5551 1.93709 11.544 1.95572 11.4773 1.92777C11.4217 1.89982 11.1995 1.99299 10.9884 2.13274C10.6662 2.35634 10.5662 2.38429 10.2773 2.30976C10.0995 2.26317 9.82173 2.20727 9.66617 2.17932C9.51062 2.16069 9.24395 2.1141 9.05506 2.07684C8.87729 2.03957 8.6884 2.02094 8.64395 2.03025C8.59951 2.03957 8.44395 2.01162 8.2884 1.95572C7.9884 1.86255 6.16617 1.99299 5.66617 2.14205C5.51062 2.17932 5.24395 2.24454 5.07729 2.27249C4.8884 2.30976 4.79951 2.37497 4.84395 2.44019C4.93284 2.56131 4.73284 2.46814 4.45506 2.26317C3.26617 1.39671 2.66617 1.12653 2.44395 1.35013ZM8.54395 2.55199C8.86617 2.57994 9.43284 2.69174 9.7884 2.79423C10.1662 2.90603 10.5551 2.97125 10.6995 2.93398C10.844 2.89671 10.8884 2.90603 10.8106 2.95261C10.7106 3.01783 10.8106 3.13895 11.1884 3.39982C11.7328 3.78181 12.2773 4.62031 12.3884 5.28181C12.4884 5.82218 12.5217 6.70727 12.444 6.70727C12.4106 6.70727 12.3662 6.78181 12.3551 6.86566C12.3328 7.07062 12.2773 7.27559 12.1884 7.45261C11.9773 7.92777 11.8995 8.36566 11.8662 9.32528C11.844 9.93087 11.7995 10.3967 11.7551 10.3688C11.6995 10.3501 11.6662 10.3967 11.6662 10.4806C11.6662 10.5644 11.5662 10.7973 11.444 10.993C11.3217 11.198 11.244 11.3657 11.2884 11.3657C11.4106 11.3657 10.0884 12.1948 9.86617 12.2601C9.75506 12.288 9.6884 12.3439 9.72173 12.3905C9.75506 12.4278 9.67729 12.4464 9.56617 12.4185C9.45506 12.3905 9.25506 12.4185 9.14395 12.4744C8.92173 12.5675 7.66617 12.6793 6.82173 12.6886C6.56617 12.6886 6.02173 12.6141 5.59951 12.5303C4.54395 12.316 2.93284 11.5613 3.22173 11.4122C3.2884 11.3843 3.29951 11.3098 3.26617 11.2539C3.22173 11.198 3.24395 11.1793 3.29951 11.2073C3.47729 11.3004 3.92173 10.3594 3.97729 9.78181C4.05506 8.8874 3.59951 7.81597 2.71062 6.84702C2.53284 6.64205 2.45506 6.46503 2.4884 6.2787C2.66617 5.26317 2.71062 5.06752 2.81062 4.95572C2.86617 4.89982 2.87729 4.84392 2.83284 4.84392C2.7884 4.84392 2.81062 4.78802 2.87729 4.71348C2.94395 4.63895 3.02173 4.45261 3.03284 4.29423C3.04395 4.13584 3.09951 4.00541 3.14395 4.00541C3.19951 4.00541 3.19951 3.95882 3.15506 3.89361C3.11062 3.82839 3.12173 3.81907 3.19951 3.85634C3.26617 3.89361 3.39951 3.80044 3.49951 3.63274C3.59951 3.46504 3.82173 3.29733 4.01062 3.24143C4.1884 3.19485 4.33284 3.111 4.33284 3.06441C4.33284 3.02715 4.41062 3.01783 4.52173 3.04578C4.63284 3.08305 4.67729 3.06441 4.63284 3.00851C4.5884 2.9433 4.63284 2.91535 4.74395 2.92466C4.85506 2.9433 5.21062 2.86876 5.54395 2.77559C6.06617 2.61721 7.72173 2.41224 7.89951 2.48677C7.93284 2.49609 8.22173 2.52404 8.54395 2.55199ZM2.85506 7.73212C2.84395 7.76007 2.92173 7.92777 3.02173 8.10479C3.66617 9.26938 3.5884 10.0893 2.76617 10.9278C2.33284 11.375 2.17729 11.3657 2.01062 10.8812C1.59951 9.75386 1.69951 7.60168 2.15506 7.34081C2.25506 7.28491 2.87729 7.62963 2.85506 7.73212ZM13.2995 8.66379C13.3662 9.41845 13.0551 10.2756 12.5884 10.583C12.2551 10.7973 12.0995 10.8067 12.3217 10.5924C12.3884 10.5178 12.4662 9.98677 12.4884 9.35323C12.5217 8.74764 12.5662 8.17932 12.5995 8.10479C12.6328 8.03025 12.7217 7.8346 12.7884 7.68553L12.9106 7.40603L13.0773 7.73212C13.1662 7.90913 13.2662 8.32839 13.2995 8.66379Z" fill="black"/>
<path d="M5.00993 3.73538C3.86549 3.92172 3.08771 5.34718 3.65438 6.22296C4.10993 6.93103 5.34327 7.35029 5.98771 7.01488C6.13215 6.94035 6.20993 6.92172 6.1766 6.97762C6.12104 7.04283 6.19882 7.04283 6.39882 6.9683C6.62104 6.88445 6.70993 6.87513 6.74327 6.94967C6.92104 7.38756 7.30993 7.87203 7.50993 7.89998C7.79882 7.93724 8.29882 7.52731 8.38771 7.16395C8.4766 6.84718 8.43215 6.8565 8.8766 7.04283C9.38771 7.25712 10.0099 7.21985 10.7322 6.94967C11.421 6.67948 11.6655 6.35339 11.7544 5.53352C11.9433 3.67948 8.75438 2.99936 7.89882 4.72296C7.82104 4.88134 7.78771 5.05836 7.82104 5.11426C7.85438 5.16085 7.84327 5.21675 7.7766 5.23538C7.72104 5.2447 7.66549 5.39377 7.64327 5.55215C7.63215 5.71985 7.56549 5.83165 7.49882 5.81302C7.43215 5.78507 7.39882 5.58942 7.42104 5.3565C7.46549 4.89066 6.96549 4.10805 6.52104 3.93103C6.06549 3.76333 5.65438 3.6329 5.5766 3.64221C5.53215 3.65153 5.2766 3.6888 5.00993 3.73538ZM6.44327 4.55526C6.6766 4.74159 6.83215 4.94656 6.80993 5.00246C6.7766 5.06768 6.80993 5.12358 6.86549 5.12358C7.06549 5.12358 6.92104 5.85029 6.66549 6.14842C6.00993 6.92172 4.68771 6.80992 4.1766 5.95277C3.44327 4.71364 5.24327 3.60495 6.44327 4.55526ZM10.7655 4.61116C11.121 4.90929 11.4433 5.8037 11.221 5.88756C11.1877 5.90619 11.0544 6.04594 10.921 6.20433C10.5433 6.64221 9.76549 6.82855 9.16549 6.60495C8.40993 6.32544 8.15438 5.83165 8.36549 5.03041C8.5766 4.18259 9.96549 3.93103 10.7655 4.61116ZM7.80993 6.40929C7.98771 6.53041 7.93215 6.8565 7.68771 7.23849C7.5766 7.38756 7.55438 7.37824 7.45438 7.12669C7.38771 6.9683 7.2766 6.77265 7.20993 6.67948C6.98771 6.34408 7.43215 6.14842 7.80993 6.40929Z" fill="black"/>
<path d="M5.31029 5.00189C4.79918 5.11369 5.04362 6.05469 5.57695 6.05469C5.81029 6.05469 6.09918 5.64475 6.03251 5.41183C5.96584 5.19754 5.69918 4.92736 5.55473 4.94599C5.5214 4.95531 5.41029 4.97394 5.31029 5.00189Z" fill="black"/>
<path d="M9.61089 5.01236C9.122 5.09621 8.89977 5.7018 9.26644 5.95335C9.64422 6.22354 10.3331 5.84155 10.3331 5.35708C10.3331 5.18938 9.87755 4.96577 9.61089 5.01236Z" fill="black"/>
<path d="M5.64444 8.86841C5.58889 9.14792 5.94444 9.72556 6.27778 9.91189C6.67778 10.1355 7.2 10.0982 7.63333 9.81872C8 9.58581 8.02222 9.58581 8.16667 9.74419C8.25556 9.84668 8.33333 9.88394 8.33333 9.84668C8.33333 9.80009 8.41111 9.83736 8.51111 9.91189C8.81111 10.1634 9.57778 10.1075 9.91111 9.80009C10.2778 9.48332 10.3889 8.83115 10.0889 8.77525C9.97778 8.75661 9.88889 8.79388 9.88889 8.84978C9.88889 9.07338 9.52222 9.59512 9.36667 9.59512C9.27778 9.59512 9.24444 9.64171 9.28889 9.70692C9.34444 9.80009 9.33333 9.80009 9.22222 9.71624C9.14444 9.66034 9.01111 9.63239 8.93333 9.66034C8.84444 9.68829 8.77778 9.66966 8.77778 9.62307C8.77778 9.45537 8.05556 8.8591 7.94444 8.92431C7.87778 8.96158 7.71111 9.12928 7.56667 9.28767C7.15556 9.79077 6.41111 9.65102 6.15556 9.00817C6.01111 8.64481 5.7 8.56096 5.64444 8.86841Z" fill="black"/>
<path d="M5.33203 10.8531C5.33203 11.468 6.43203 11.9711 6.90981 11.5705C6.97648 11.5146 7.18759 11.5519 7.46536 11.6637C8.14314 11.9432 8.85425 11.6823 9.14314 11.0581C9.27648 10.7506 8.84314 10.6854 8.63203 10.9836C8.53203 11.1326 8.46536 11.2631 8.4987 11.291C8.57648 11.3469 8.07648 11.3749 7.7987 11.319C7.66536 11.291 7.4987 11.1606 7.44314 11.0395C7.30981 10.7413 7.03203 10.7413 6.86536 11.0395C6.70981 11.3376 6.30981 11.3469 5.9987 11.0674C5.87648 10.9556 5.77648 10.8345 5.77648 10.7879C5.77648 10.7506 5.67648 10.7134 5.55425 10.7134C5.43203 10.7134 5.33203 10.7786 5.33203 10.8531Z" fill="black"/>
</svg>
