<svg width="15" height="15" viewBox="0 0 15 15" fill="none" xmlns="http://www.w3.org/2000/svg">
<path d="M4.66908 1.26233C4.27286 1.4175 3.60305 1.93474 3.48984 2.17268C3.43324 2.28647 3.32946 2.37957 3.25399 2.37957C2.8389 2.37957 1.3389 3.2175 0.829462 3.7244C0.44267 4.10716 0.461538 4.7175 0.867198 4.64509C0.933236 4.63475 1.22569 4.65543 1.50871 4.68647C1.79173 4.72785 2.25399 4.77957 2.53701 4.81061C3.17852 4.87268 3.20682 4.9244 3.19739 5.94854C3.19739 6.40371 3.23512 7.1175 3.30116 7.5313C3.40493 8.29681 3.77286 9.26923 3.90493 9.13475C3.94267 9.09337 3.94267 9.13475 3.91437 9.2175C3.8389 9.43475 4.82946 10.4278 5.46154 10.7692C5.72569 10.9037 5.93324 11.0692 5.94267 11.1416C5.94267 11.4003 5.38607 12.3623 5.21625 12.383C4.4521 12.4658 4.26342 12.4968 4.07475 12.6106C3.96154 12.6727 3.8672 12.7968 3.8672 12.8796C3.8672 13.0554 4.21625 13.1899 4.3672 13.0554C4.50871 12.9416 4.99927 12.8278 4.99927 12.921C4.99927 12.952 4.90493 13.0347 4.79173 13.0865C4.53701 13.2106 4.49927 13.583 4.73512 13.6347C4.82946 13.6554 4.97097 13.5934 5.05588 13.5003C5.3389 13.2003 5.68795 12.983 5.94267 12.9727C6.48041 12.952 6.65022 12.5278 6.15022 12.4865C5.91437 12.4658 5.91437 12.4658 6.03701 12.2278C6.15965 12.0003 6.35776 11.452 6.3389 11.3692C6.3389 11.3382 6.41437 11.2554 6.52758 11.183C6.63135 11.1106 6.68795 11.1003 6.65022 11.1623C6.61248 11.2347 6.71625 11.2761 6.9521 11.2865C7.85776 11.3072 7.8955 11.3382 7.73512 12.052C7.63135 12.5278 7.56531 12.6313 7.3672 12.6934C7.23512 12.7244 7.08418 12.7865 7.02758 12.8382C6.9238 12.921 6.87663 12.9313 6.65965 12.9313C6.41437 12.9313 6.01814 13.3761 6.08418 13.5727C6.14078 13.7278 6.17852 13.7278 6.53701 13.5313C6.75399 13.4072 7.01814 13.2416 7.11248 13.1485C7.32946 12.952 7.27286 13.0865 6.9238 13.6037C6.81059 13.7692 6.74456 13.9761 6.76342 14.0382C6.84833 14.2865 7.12191 14.1623 7.37663 13.7589C7.63135 13.3554 7.65965 13.3451 8.15965 13.3451C8.48984 13.3451 8.66908 13.3037 8.63135 13.2416C8.60305 13.1796 8.62191 13.1382 8.68795 13.1382C8.76342 13.1382 8.76342 13.0968 8.67852 12.983C8.61248 12.9003 8.44267 12.8278 8.29173 12.8278C7.97097 12.8278 7.98041 12.8485 8.15022 12.3416C8.22569 12.1244 8.31059 11.8244 8.3389 11.6589C8.38607 11.4623 8.46154 11.3796 8.61248 11.3692C8.72569 11.3692 8.88607 11.3485 8.96154 11.3175C9.54644 11.152 9.61248 11.152 10.037 11.4727C10.2634 11.6485 10.4993 11.7934 10.5559 11.7934C10.6125 11.7934 10.6597 11.8347 10.6597 11.8968C10.6597 11.9485 10.8483 12.1141 11.0842 12.2589C11.3106 12.4141 11.4898 12.5899 11.4804 12.652C11.471 12.7141 11.5276 12.7658 11.603 12.7761C11.6785 12.7761 11.9049 12.8589 12.1125 12.9623C12.5464 13.1692 13.2823 13.2003 13.3578 13.0037C13.4238 12.7968 13.2634 12.3934 12.9427 12.021C12.7917 11.8451 12.6785 11.6899 12.688 11.6899C12.7917 11.6899 11.9332 10.7589 11.7917 10.7072C11.6974 10.6761 11.5936 10.5727 11.5653 10.4899C11.5181 10.3554 11.5653 10.3658 11.8295 10.5313C12.5464 10.9968 13.1785 10.8623 12.9427 10.3037C12.8861 10.1589 12.7729 10.0347 12.6974 10.0347C12.5276 10.0347 11.6408 9.16578 11.4898 8.84509C11.3861 8.63819 10.6785 7.56233 10.3766 7.16923C10.32 7.09681 10.2823 7.00371 10.2823 6.96233C10.2823 6.92095 10.1502 6.74509 9.99927 6.57957C9.8389 6.41406 9.71625 6.23819 9.71625 6.18647C9.71625 6.05199 9.3955 5.68992 9.27286 5.68992C9.20682 5.68992 9.15965 5.63819 9.16908 5.57612C9.19739 5.45199 8.41437 4.77957 8.23512 4.76923C8.05588 4.75888 7.85776 4.34509 7.79173 3.82785C7.75399 3.57957 7.69739 3.32095 7.65022 3.25888C7.61248 3.20716 7.52758 2.96923 7.47097 2.74164C7.19739 1.68647 5.65965 0.869227 4.66908 1.26233ZM6.4238 2.24509C6.90493 2.7313 7.15965 3.30026 7.23512 4.03474L7.29173 4.63475L6.8955 4.70716C6.68795 4.74854 6.50871 4.82095 6.50871 4.87268C6.50871 4.9244 6.4521 4.96578 6.38607 4.96578C6.25399 4.96578 5.76342 5.51406 5.61248 5.84509C5.3389 6.40371 5.66908 7.87268 6.16908 8.35888C6.31059 8.48302 6.41437 8.62785 6.41437 8.66923C6.41437 8.9175 8.30116 10.1072 9.13135 10.3865C9.35776 10.4692 9.41437 10.6451 9.22569 10.6658C8.07475 10.8106 7.79173 10.821 7.16908 10.7278C6.8389 10.6761 6.34833 10.5313 6.08418 10.3968C5.82946 10.2623 5.54644 10.1382 5.47097 10.1175C5.3955 10.0968 5.25399 9.98302 5.15965 9.84854C5.06531 9.7244 4.91437 9.62095 4.8389 9.62095C4.75399 9.62095 4.71625 9.58992 4.74456 9.55888C4.78229 9.5175 4.71625 9.40371 4.61248 9.30026C4.38607 9.08302 4.12191 8.53475 3.91437 7.86233C3.71625 7.18992 3.67852 4.85199 3.8672 4.60371C4.04644 4.36578 4.06531 3.57957 3.90493 3.15543C3.74456 2.7313 3.82003 2.46233 4.15965 2.18302C4.90493 1.57268 5.79173 1.60371 6.4238 2.24509ZM3.37663 3.38302C3.40493 3.70371 3.38607 3.7244 3.12191 3.7244C2.97097 3.7244 2.81059 3.77612 2.78229 3.82785C2.74456 3.88992 2.68795 3.91061 2.65022 3.88992C2.61248 3.85888 2.28229 3.91061 1.9238 3.99337C1.56531 4.06578 1.23512 4.13819 1.18795 4.13819C0.999273 4.13819 1.53701 3.70371 2.05588 3.4244C3.07475 2.87612 3.32946 2.86578 3.37663 3.38302ZM8.67852 6.05199C8.67852 6.1244 8.65022 6.19681 8.62191 6.23819C8.54644 6.32095 8.30116 6.20716 8.30116 6.08302C8.30116 6.0313 8.3389 6.01061 8.38607 6.05199C8.43324 6.08302 8.49927 6.06233 8.52758 6.01061C8.56531 5.95888 8.54644 5.88647 8.48984 5.84509C8.44267 5.81406 8.3955 5.72095 8.3955 5.65888C8.40493 5.50371 8.67852 5.89681 8.67852 6.05199ZM7.21625 6.01061C7.17852 6.06233 7.22569 6.2175 7.32946 6.34164C7.49927 6.56923 7.49927 6.56923 7.31059 6.40371C7.12191 6.22785 6.8389 6.24854 6.94267 6.4244C6.97097 6.47612 6.91437 6.5175 6.82003 6.5175C6.66908 6.50716 6.67852 6.48647 6.87663 6.31061C6.99927 6.19681 7.05588 6.10371 7.01814 6.10371C6.97097 6.10371 6.99927 6.05199 7.07475 6.00026C7.25399 5.86578 7.29173 5.87612 7.21625 6.01061ZM6.60305 6.50716C6.60305 6.61061 6.32946 6.87957 6.29173 6.8175C6.04644 6.34164 6.03701 6.32095 6.19739 6.38302C6.30116 6.43475 6.32946 6.41406 6.27286 6.32095C6.21625 6.2175 6.24456 6.20716 6.40493 6.30026C6.50871 6.37268 6.60305 6.45543 6.60305 6.50716ZM9.00871 6.4244C8.97097 6.47612 9.00871 6.61061 9.09361 6.70371C9.22569 6.86923 9.22569 6.88992 9.05588 6.88992C8.96154 6.88992 8.8955 6.85888 8.9238 6.8175C8.94267 6.77612 8.8672 6.71406 8.74456 6.68302C8.53701 6.62095 8.53701 6.61061 8.71625 6.46578C8.93324 6.28992 9.09361 6.25888 9.00871 6.4244ZM8.21625 7.17957C8.16908 7.24164 8.12191 7.33475 8.11248 7.39681C8.08418 7.58302 8.02758 7.58302 7.96154 7.40716C7.87663 7.15888 7.98984 6.92095 8.15965 6.99337C8.25399 7.03475 8.27286 7.09681 8.21625 7.17957ZM8.91437 7.86233C8.88607 7.91406 8.9238 7.96578 8.99927 7.96578C9.18795 7.96578 9.34833 8.29681 9.24456 8.48302C9.19739 8.57612 9.20682 8.68992 9.27286 8.78302C9.3672 8.90716 9.35776 8.9175 9.18795 8.81406C8.9238 8.65888 8.67852 8.34854 8.8955 8.4313C9.12191 8.53475 9.16908 8.32785 8.96154 8.12095C8.75399 7.91406 8.71625 7.75888 8.87663 7.75888C8.9238 7.75888 8.94267 7.80026 8.91437 7.86233ZM12.103 12.0727C12.188 12.1037 12.2634 12.1658 12.2634 12.2175C12.2634 12.2692 12.1597 12.2589 12.037 12.2072C11.9144 12.1554 11.7823 12.1451 11.7351 12.1865C11.6974 12.2278 11.6974 12.2072 11.7257 12.1451C11.7634 12.0727 11.7257 12.0003 11.6502 11.9589C11.5747 11.9278 11.5087 11.8451 11.5087 11.783C11.5087 11.7106 11.5842 11.7313 11.7257 11.8347C11.8389 11.9278 12.0087 12.0313 12.103 12.0727Z" fill="black"/>
<path d="M4.83957 2.55589C4.46222 2.8352 4.7075 3.7352 5.11316 3.56969C5.38674 3.45589 5.51882 2.82486 5.32071 2.57658C5.13203 2.33865 5.11316 2.33865 4.83957 2.55589Z" fill="black"/>
</svg>
