<svg width="15" height="15" viewBox="0 0 15 15" fill="none" xmlns="http://www.w3.org/2000/svg">
<path d="M4.17863 1.35781C3.97506 1.41903 3.73934 1.52107 3.65363 1.5823C3.27863 1.84761 2.79648 2.39863 2.76434 2.5823C2.74291 2.70475 2.53934 2.88842 2.25006 3.03128C1.65006 3.3374 1.14648 3.8476 1.14648 4.15373C1.1572 4.48026 1.1572 4.48026 1.88577 4.55169C3.02148 4.66393 3.07506 4.78638 2.61434 6.0925C2.19648 7.24556 2.18577 8.89863 2.57148 9.70475C2.97863 10.5313 4.35006 11.6333 4.99291 11.6333C5.07863 11.6333 5.14291 11.6741 5.14291 11.7252C5.14291 11.7762 5.29291 11.8374 5.46434 11.8782L5.78577 11.9394L5.62506 12.3068C5.53934 12.5109 5.46434 12.6945 5.46434 12.7047C5.46434 12.715 5.21791 12.7354 4.91791 12.7456C4.32863 12.7558 3.88934 12.919 3.7072 13.1843C3.51434 13.4905 3.77148 13.6231 4.18934 13.4292C4.62863 13.2252 4.61791 13.215 4.54291 13.5721C4.4572 13.9496 4.65006 13.9803 5.16434 13.6741C5.53934 13.4598 5.96791 13.4905 6.17148 13.7558C6.26791 13.8782 6.35363 13.8884 6.64291 13.7966C7.09291 13.6435 7.07148 13.6435 7.07148 13.868C7.07148 14.2047 7.27506 14.215 7.71434 13.9292C7.95006 13.7762 8.2072 13.6741 8.30363 13.715C8.75363 13.8782 8.96791 13.4088 8.55006 13.1435C8.34648 13.0109 8.32506 12.9496 8.42148 12.5415C8.51791 12.0925 8.51791 12.0925 9.05363 12.0313C9.35363 12.0007 9.80363 11.8782 10.0715 11.766C10.9715 11.3782 11.1965 11.3782 11.8179 11.7558C13.2001 12.5925 13.4786 12.715 13.7036 12.5823C14.0036 12.3986 13.8965 12.2252 13.2429 11.8476C12.8893 11.6435 12.5786 11.419 12.5572 11.3374C12.5251 11.2558 12.5465 11.2252 12.6001 11.2558C12.7072 11.3068 13.8215 11.1129 14.1751 10.9701C14.6358 10.7864 14.3143 10.2966 13.2322 9.54148C12.9965 9.37822 12.4072 8.86801 11.9358 8.41903C10.1679 6.76597 9.09648 6.00067 8.34648 5.86801C7.6072 5.73536 7.32863 5.22516 7.24291 3.92924C7.18934 2.89863 7.02863 2.50067 6.43934 1.90883C5.86077 1.31699 5.00363 1.11291 4.17863 1.35781ZM5.6572 2.0823C6.31077 2.40883 6.60006 3.10271 6.67506 4.5823C6.71791 5.3272 6.77148 5.57209 6.90006 5.67414C7.05006 5.77618 7.0072 5.81699 6.54648 5.91903C5.2822 6.20475 4.6822 7.61291 5.31434 8.78638C6.05363 10.1843 8.01434 10.9598 9.87863 10.6027C10.3929 10.5007 10.5751 10.3986 11.1429 9.87822C11.8715 9.21495 11.7751 9.21495 12.5465 9.85781C12.7608 10.0313 13.0286 10.2252 13.1358 10.2864C13.2429 10.3476 13.3072 10.4292 13.2643 10.4598C13.1786 10.5517 11.7215 10.817 11.3465 10.817C11.1858 10.817 10.6929 10.9292 10.2429 11.0721C8.51791 11.6129 6.1822 11.5925 5.03577 11.0313C4.8322 10.9292 4.50006 10.766 4.3072 10.6639C4.10363 10.5721 3.80363 10.2966 3.6322 10.0619C3.46077 9.8374 3.27863 9.5823 3.21434 9.52107C3.15006 9.44965 3.06434 9.19454 3.01077 8.95985C2.9572 8.71495 2.90363 8.47005 2.8822 8.41903C2.81791 8.23536 3.00006 6.98026 3.17148 6.42924C3.41791 5.62311 3.45006 5.50067 3.50363 5.02107C3.53577 4.78638 3.52506 4.51087 3.47148 4.40883C3.42863 4.31699 3.39648 4.20475 3.4072 4.16393C3.41791 4.12311 3.36434 3.91903 3.27863 3.70475C3.11791 3.26597 3.13934 3.17414 3.50363 2.62312C3.92148 2.00067 4.96077 1.73536 5.6572 2.0823ZM2.71077 3.43944C2.7322 3.49046 2.78577 3.63332 2.81791 3.77618C2.8822 4.03128 2.72148 4.07209 1.87506 3.98026C1.7572 3.97005 2.45363 3.36801 2.59291 3.36801C2.63577 3.36801 2.68934 3.39863 2.71077 3.43944ZM8.76434 6.75577C9.51434 7.11291 11.3572 8.72516 11.3572 9.03128C11.3572 9.17414 11.2822 9.19454 10.6929 9.21495C10.3608 9.21495 9.53577 8.97005 9.53577 8.85781C9.53577 8.81699 9.47148 8.77618 9.38577 8.77618C9.31077 8.77618 9.11791 8.67414 8.9572 8.56189C8.74291 8.39863 8.63577 8.36801 8.55006 8.44965C8.30363 8.68434 9.3322 9.44965 10.1572 9.65373L10.6608 9.77618L10.3608 9.88842C9.79291 10.1027 9.39648 10.0211 8.61434 9.55169C8.16434 9.26597 7.8322 9.13332 7.77863 9.18434C7.63934 9.31699 7.89648 9.74556 8.2072 9.90883C8.67863 10.1435 8.37863 10.1333 7.69291 9.88842C6.99648 9.64352 6.73934 9.48026 6.12863 8.87822C5.66791 8.41903 5.53934 8.11291 5.62506 7.64352C5.70006 7.24556 6.22506 6.57209 6.57863 6.41903C6.99648 6.24556 8.01434 6.40883 8.76434 6.75577ZM7.46791 12.1435H7.84291L7.77863 12.5721C7.74648 12.817 7.72506 13.0211 7.72506 13.0313C7.71434 13.0517 7.5322 13.0619 7.3072 13.0619C7.0822 13.0619 6.72863 13.1435 6.51434 13.2456L6.12863 13.4394L6.07506 13.1741C6.04291 13.0211 6.1072 12.715 6.22506 12.4598C6.41791 12.0415 6.45006 12.0211 6.76077 12.0823C6.94291 12.1129 7.26434 12.1435 7.46791 12.1435Z" fill="currentColor"/>
<path d="M4.20035 2.98018C4.01821 3.15365 4.03964 3.40875 4.26464 3.60262C4.52178 3.82711 4.63964 3.81691 4.87535 3.57201C5.27178 3.15365 4.61821 2.58222 4.20035 2.98018Z" fill="currentColor"/>
</svg>
