<svg width="15" height="15" viewBox="0 0 15 15" fill="none" xmlns="http://www.w3.org/2000/svg">
<path d="M8.43426 1.46298C8.24933 1.53798 8.02331 1.59423 7.95139 1.59423C7.80755 1.59423 6.79043 2.21298 6.65687 2.3911C6.47194 2.62548 6.67742 2.82235 7.18084 2.8786C7.67399 2.94423 7.65344 2.90673 7.39659 3.30985C7.28358 3.48798 7.1192 3.83485 7.037 4.08798C6.93426 4.40673 6.78016 4.62235 6.57468 4.76298C6.40002 4.88485 6.287 5.02548 6.3281 5.08173C6.3692 5.13798 6.35892 5.15673 6.29728 5.1286C6.0918 5.0161 4.57125 6.60985 3.3692 8.2036C3.0507 8.6161 2.537 9.19735 2.21851 9.48798C1.90002 9.78798 1.64317 10.1067 1.64317 10.2099C1.64317 10.4724 1.92057 10.688 2.23906 10.688C2.48563 10.688 2.43426 10.763 1.67399 11.4005C0.48221 12.3942 0.574676 12.7036 2.0644 12.7974C2.99933 12.8442 2.99933 12.8442 4.26303 11.738L5.24933 10.8755L6.04043 11.0442C6.8007 11.213 6.8418 11.2317 7.05755 11.6161C7.27331 11.9817 7.27331 12.0099 7.10892 12.0661C6.35892 12.3005 6.25618 12.3755 6.287 12.5817C6.31783 12.7692 6.3692 12.7974 6.67742 12.7692C7.49933 12.7036 8.01303 12.7505 8.3829 12.938C8.92742 13.2286 9.29728 12.9942 8.88632 12.6192C8.48563 12.2536 9.12262 12.2817 9.58495 12.6567C9.78016 12.8067 10.0165 12.938 10.1089 12.938C10.3349 12.938 10.4274 12.6849 10.2733 12.5161C10.0576 12.2724 10.2322 12.2536 10.561 12.4692C10.9 12.7036 11.1158 12.6849 11.1569 12.4411C11.1877 12.1974 10.5199 11.8411 9.91372 11.7661C9.42057 11.7099 9.38974 11.6911 9.26646 11.3255C9.14317 10.988 9.25618 10.5661 9.42057 10.7255C9.61577 10.8942 11.6089 9.45985 11.6089 9.15048C11.6089 9.12235 11.7425 8.92548 11.9069 8.70048C12.061 8.47548 12.2048 8.23173 12.2048 8.15673C12.2048 8.08173 12.2562 7.78173 12.3076 7.48173C12.4103 6.88173 12.2973 5.71923 12.0815 5.15673C11.876 4.61298 12.0096 4.5286 12.9856 4.54735C13.6432 4.5661 13.787 4.53798 13.8692 4.39735C14.1466 3.93798 13.5096 3.16923 12.6774 2.9536C12.4308 2.89735 12.2665 2.78485 12.2254 2.67235C11.948 1.70673 9.66714 0.975476 8.43426 1.46298ZM10.6432 2.07235C11.0952 2.26923 11.7117 2.77548 11.7117 2.94423C11.7117 2.9911 11.5986 3.15048 11.4548 3.28173C11.126 3.60048 11.013 4.12548 11.2288 4.33173C11.424 4.50985 11.7219 5.93485 11.7322 6.75985C11.763 8.11923 10.9103 9.45985 9.68769 9.98485C8.78358 10.3786 8.72194 10.4067 8.16714 10.5286C7.5918 10.6599 5.91714 10.6036 6.3692 10.4724C7.02673 10.2755 8.09522 9.83485 8.5781 9.5536C9.30755 9.13173 9.96509 8.13798 10.037 7.33173C10.1808 5.77548 9.45139 5.07235 7.79728 5.18485C7.45824 5.2036 7.19111 5.18485 7.19111 5.14735C7.19111 5.10048 7.23221 5.06298 7.27331 5.06298C7.39659 5.06298 7.61235 4.6786 7.64317 4.39735C7.71509 3.87235 7.94111 3.33798 8.17742 3.1411C8.50618 2.86923 8.48563 2.75673 8.11577 2.5411L7.79728 2.37235L8.3418 2.1286C9.0507 1.80985 10.0062 1.7911 10.6432 2.07235ZM12.5439 3.46923C12.7391 3.52548 13.0165 3.6661 13.1603 3.80673L13.4069 4.0411L12.5849 3.99423C12.1329 3.97548 11.7322 3.94735 11.6911 3.94735C11.5473 3.9286 11.6089 3.75048 11.8144 3.56298C12.0507 3.34735 12.0507 3.34735 12.5439 3.46923ZM8.94796 5.9536C9.24591 6.04735 9.48221 6.54423 9.47194 7.09735C9.46166 8.34423 8.21851 9.43173 6.25618 9.8911C4.96166 10.2005 2.67057 10.3036 2.67057 10.0411C2.67057 9.98485 2.99933 9.60048 3.31783 9.28173C3.40002 9.20673 3.61577 8.92548 3.8007 8.67235C4.56098 7.63173 5.65002 6.57235 6.15344 6.38485C6.3281 6.30985 6.47194 6.22548 6.47194 6.1786C6.47194 6.13173 6.52331 6.09423 6.58495 6.09423C6.64659 6.09423 6.8418 6.03798 7.01646 5.96298C7.5507 5.73798 8.19796 5.73798 8.94796 5.9536ZM4.33495 10.7724C4.41714 10.7817 3.33837 11.7661 2.91714 12.0567C2.59865 12.2817 1.92057 12.3661 1.80755 12.1974C1.77673 12.1505 2.11577 11.7942 2.56783 11.4005C3.44111 10.6599 3.46166 10.6505 4.33495 10.7724ZM8.6192 11.1755C8.8555 11.7567 8.8555 11.813 8.63974 11.813C8.52673 11.813 8.40344 11.8505 8.37262 11.9067C8.19796 12.1692 7.81783 12.0005 7.70481 11.6161C7.57125 11.1661 7.62262 11.0911 8.11577 11.0349C8.31098 11.0161 8.48563 10.988 8.50618 10.988C8.51646 10.9786 8.56783 11.063 8.6192 11.1755Z" fill="black"/>
<path d="M10.1697 2.7845C9.62516 2.972 9.93338 3.67512 10.4882 3.51575C10.7348 3.44075 10.7656 2.8595 10.519 2.77512C10.4265 2.747 10.3546 2.71887 10.3443 2.72825C10.3341 2.72825 10.2519 2.75637 10.1697 2.7845Z" fill="black"/>
<path d="M6.96573 7.70589C6.83216 7.82777 6.62668 8.03402 6.5034 8.16527C6.1849 8.49339 6.05134 8.57777 5.46572 8.84964C5.09586 9.01839 4.95203 9.13089 4.99312 9.23402C5.1986 9.72152 7.07874 8.63402 7.34586 7.87464C7.45888 7.53714 7.24312 7.44339 6.96573 7.70589Z" fill="black"/>
<path d="M5.44458 7.78195C5.44458 7.82882 5.26993 7.97882 5.06445 8.1007C4.30417 8.56007 3.94458 8.8882 4.07815 9.01007C4.34527 9.25382 6.10212 8.07257 5.90691 7.78195C5.82472 7.66007 5.44458 7.66007 5.44458 7.78195Z" fill="black"/>
<path d="M8.08587 7.88496C7.93176 7.98809 7.82902 8.11934 7.85985 8.16621C7.90094 8.21309 7.89067 8.25059 7.8393 8.25059C7.7982 8.25059 7.57218 8.39121 7.34615 8.56934C7.12012 8.74746 6.82218 8.97246 6.67834 9.08496C6.46259 9.24434 6.45231 9.29121 6.56533 9.36621C7.01738 9.63809 8.8256 8.10996 8.45574 7.77246C8.39409 7.71621 8.25026 7.76309 8.08587 7.88496Z" fill="black"/>
</svg>
