<svg width="15" height="15" viewBox="0 0 15 15" fill="none" xmlns="http://www.w3.org/2000/svg">
<path d="M4.64416 1.47868C3.93525 1.86717 3.69895 2.3312 3.69895 3.324C3.69895 3.86357 3.65786 4.11177 3.54484 4.2089C3.04142 4.65134 2.99005 6.14055 3.45238 6.77724C3.68868 7.10098 3.70923 7.16573 3.59621 7.4571C3.49347 7.69451 3.42155 7.75926 3.29827 7.7053C2.24005 7.1981 1.29484 8.02904 1.5106 9.28084C1.59279 9.77724 2.02429 10.6729 2.29142 10.8995C2.50717 11.083 2.50717 11.083 2.12703 11.2772C1.72635 11.4715 1.33594 11.9031 1.33594 12.1513C1.33594 12.3456 1.7469 12.6262 2.02429 12.6262C2.18868 12.6262 2.2606 12.6909 2.2606 12.8312C2.2606 13.2089 2.52772 13.3276 3.04142 13.1873C3.43183 13.0794 3.53457 13.0794 3.65786 13.2197C3.83251 13.4031 4.4695 13.4355 4.57224 13.2736C4.61333 13.2089 4.72635 13.2521 4.84964 13.3816C5.14758 13.6621 5.51744 13.6513 5.75375 13.3492C5.90786 13.1549 5.9695 13.1334 6.07224 13.2413C6.57566 13.7593 7.28457 12.8744 6.90443 12.2161C6.77087 11.9679 6.77087 11.9571 7.00717 12.0434C7.34621 12.1621 8.28114 12.119 8.53799 11.9787C8.80512 11.8276 8.89758 11.9031 8.68183 12.0866C8.58936 12.1621 8.52772 12.3995 8.52772 12.637C8.52772 13.1657 8.99005 13.4895 9.43183 13.2844C9.64758 13.1765 9.70923 13.1873 9.83251 13.3816C9.9969 13.6298 10.3565 13.6621 10.6339 13.4463C10.7572 13.36 10.9729 13.3168 11.2092 13.3492C11.5072 13.3923 11.6305 13.36 11.8154 13.1657C11.9695 13.0039 12.0722 12.9715 12.1544 13.047C12.514 13.36 13.3565 13.1873 13.3565 12.8096C13.3565 12.7341 13.5003 12.6262 13.6853 12.5722C14.3839 12.3456 14.2811 11.6765 13.4798 11.3096C13.0483 11.1046 13.038 11.0938 13.2332 10.9211C13.5209 10.6513 13.8907 9.73408 13.9524 9.15134C14.0448 8.09379 13.5106 7.47868 12.5962 7.59738C12.0928 7.65134 12.0414 7.64055 11.9387 7.40314C11.8462 7.18731 11.8668 7.11177 12.0209 6.96069C12.6681 6.34559 12.6579 4.94271 12.0003 4.1981C11.8257 4.00386 11.7743 3.85278 11.8257 3.71249C12.4626 2.00746 10.3257 0.485873 9.04142 1.73767C8.68183 2.083 6.84279 2.13695 6.66813 1.80242C6.4421 1.38156 5.19895 1.18731 4.64416 1.47868ZM10.9524 2.16933C11.312 2.56861 11.4147 3.09738 11.2298 3.66933C11.0757 4.12256 11.0757 4.13336 11.4044 4.43551C11.5791 4.60818 11.6921 4.74846 11.6407 4.74846C11.5996 4.74846 11.6202 4.79163 11.6921 4.84559C12.1236 5.12616 11.8873 6.23767 11.2606 6.8312L10.9421 7.14415L11.1579 7.3276C11.8873 7.94271 11.764 10.1657 10.9524 11.2017C10.6853 11.5362 10.7058 11.6657 11.1065 12.2053C11.3942 12.5938 11.4866 12.842 11.3325 12.842C11.199 12.8312 10.788 12.4319 10.788 12.3132C10.788 11.9787 10.49 12.2377 10.4284 12.6262C10.3462 13.1549 10.2126 13.1765 10.1305 12.6909C10.0483 12.2161 9.84279 12.1406 9.54484 12.4751C9.42155 12.6154 9.25717 12.7341 9.18525 12.7341C9.06196 12.7341 9.21607 12.3672 9.96607 10.9535C10.3668 10.1765 10.5106 9.09738 10.2435 8.85997C9.9969 8.65494 9.89416 8.78443 9.83251 9.41033C9.76059 10.1118 9.41128 10.9535 9.11333 11.1585C8.99005 11.2449 8.63046 11.342 8.32224 11.3852C7.05854 11.5254 6.33936 11.3636 6.10306 10.878C5.86676 10.4031 5.63046 9.51825 5.65101 9.19451C5.68183 8.73048 5.66128 8.63336 5.51744 8.65494C4.89073 8.79523 5.07566 10.3168 5.87703 11.6226C6.56539 12.7449 6.60649 12.9931 6.02087 12.4643C5.63046 12.1082 5.57909 12.119 5.50717 12.5722C5.42498 13.0039 5.24005 13.1873 5.24005 12.8204C5.22977 12.2377 4.93183 12.1945 4.47977 12.7233C4.21265 13.0362 4.09964 13.0039 4.22292 12.6477C4.27429 12.4859 4.41813 12.3024 4.55169 12.2485C4.87018 12.0974 4.88046 11.7413 4.60306 11.2557C4.22292 10.6298 4.01744 10.1226 3.9558 9.64774C3.86333 9.04343 3.84279 7.98587 3.9147 7.9535C3.9558 7.94271 4.07909 7.71609 4.1921 7.44631L4.40786 6.96069L4.07909 6.60458C3.62703 6.10818 3.60649 5.24487 4.03799 4.5758C4.28457 4.18731 4.31539 4.06861 4.26402 3.55062C4.16128 2.54702 4.61333 1.94271 5.47635 1.94271C5.85649 1.94271 6.46265 2.40674 6.59621 2.80602C6.61676 2.89235 6.70923 2.89235 6.93525 2.80602C7.33594 2.64415 8.43525 2.63336 8.72292 2.79523C8.83594 2.87077 8.93868 2.88156 8.93868 2.83839C8.93868 2.7089 9.47292 2.09379 9.70923 1.96429C10.0688 1.74846 10.6544 1.84559 10.9524 2.16933ZM2.97977 8.23408C2.97977 8.2017 3.04142 8.23408 3.12361 8.29882C3.19553 8.36357 3.28799 8.73048 3.31881 9.15134C3.37018 9.8312 3.56539 10.4463 4.00717 11.3528L4.20238 11.7521L3.82224 12.065C3.61676 12.2377 3.28799 12.4643 3.09279 12.5722L2.74347 12.7557L2.95923 12.4643C3.35991 11.9247 3.2058 11.7305 2.59964 12.0003C2.44553 12.065 2.2195 12.1406 2.11676 12.1621C1.73662 12.2377 2.24005 11.7844 2.76402 11.5902C3.55512 11.2772 3.55512 11.2664 2.88731 10.5866C2.10649 9.79882 1.83936 8.90314 2.20923 8.34199C2.34279 8.14774 2.4147 8.12616 2.67155 8.2017C2.84621 8.25566 2.97977 8.26645 2.97977 8.23408ZM13.0894 8.27724C13.6031 8.71969 13.3565 9.91753 12.5757 10.7808C12.1031 11.3096 12.1236 11.4931 12.6681 11.6334C13.1613 11.7736 13.7263 12.1513 13.2537 12.0434C12.3394 11.8168 12.1955 11.8276 12.3291 12.0758C12.3907 12.2053 12.514 12.3456 12.5962 12.378C12.6784 12.4103 12.74 12.4967 12.74 12.583C12.74 12.788 12.0517 12.3995 11.6613 11.9787L11.3736 11.6657L11.6921 10.9859C11.9592 10.4031 12.0928 10.0147 12.175 9.55062C12.1853 9.48587 12.2058 9.19451 12.2058 8.89235C12.2263 8.43911 12.2674 8.32041 12.4626 8.22328C12.7811 8.06141 12.8325 8.0722 13.0894 8.27724Z" fill="black"/>
<path d="M10.1618 2.55743C9.60698 2.70851 9.72 3.88477 10.2851 3.88477C10.7166 3.88477 10.8912 3.06462 10.5522 2.61138C10.4494 2.48189 10.4392 2.4711 10.1618 2.55743Z" fill="black"/>
<path d="M4.97231 2.74039C4.69491 3.07492 4.8182 3.99219 5.13669 3.99219C5.34217 3.99219 5.75313 3.73319 5.8045 3.57132C5.9997 2.92384 5.35244 2.27636 4.97231 2.74039Z" fill="black"/>
<path d="M7.01742 4.27428C6.92495 4.54406 7.2229 4.80305 7.38728 4.59802C7.4592 4.5009 7.5003 4.34982 7.4592 4.26349C7.38728 4.04766 7.09961 4.05845 7.01742 4.27428Z" fill="black"/>
<path d="M8.29125 4.1766C8.13714 4.32768 8.21934 4.64062 8.41454 4.64062C8.65084 4.64062 8.77413 4.25214 8.55838 4.1658C8.37345 4.09027 8.37345 4.09027 8.29125 4.1766Z" fill="black"/>
<path d="M6.52428 5.472C5.8462 5.54754 5.18867 5.5907 5.05511 5.56912C4.91127 5.54754 4.78798 5.60149 4.72634 5.73099C4.53113 6.10869 4.92154 6.18423 6.41127 6.06552C7.151 6.01157 7.93182 5.94682 8.15785 5.94682C8.3736 5.93603 8.57908 5.92524 8.62017 5.91444C8.67154 5.90365 9.1236 5.94682 10.4489 6.0979C10.8291 6.14106 10.901 6.07631 10.8291 5.75257C10.788 5.57991 10.6852 5.52595 10.3976 5.52595C10.0072 5.51516 8.32223 5.40725 7.96264 5.36408C7.84963 5.3425 7.20237 5.39646 6.52428 5.472Z" fill="black"/>
</svg>
