<svg width="15" height="15" viewBox="0 0 15 15" fill="none" xmlns="http://www.w3.org/2000/svg">
<path d="M5.51065 1.45804C5.48938 1.47947 5.28725 1.52232 5.06385 1.55447C4.84044 1.57589 4.59576 1.66161 4.51065 1.72589C4.42555 1.79018 4.36172 1.81161 4.36172 1.77947C4.36172 1.65089 3.4681 2.32589 3.03193 2.78661C2.61704 3.21518 2.6064 3.24732 2.61704 3.92232C2.62768 4.51161 2.59576 4.60804 2.43619 4.60804C2.34044 4.60804 2.23406 4.64018 2.21278 4.68304C2.20214 4.73661 2.02129 4.84375 1.84044 4.92947C1.43619 5.11161 1.50002 5.37947 1.95746 5.37947C2.18087 5.37947 2.21278 5.41161 2.12768 5.58304C2.04257 5.73304 2.06385 5.80804 2.23406 5.89375C2.42555 6.00089 2.4681 5.96875 2.6064 5.63661C2.6915 5.42232 2.76597 5.21875 2.76597 5.15447C2.76597 4.97232 3.21278 4.95089 3.64895 5.10089C3.97874 5.21875 4.34044 5.25089 5.02129 5.20804C5.72342 5.15447 5.93619 5.17589 5.91491 5.27232C5.84044 5.64732 5.56385 5.99018 4.9681 6.47232C3.72342 7.45804 2.44682 8.77589 2.73406 8.78661C2.77661 8.78661 2.73406 8.84018 2.62768 8.90447C2.53193 8.96875 2.4681 9.05447 2.50002 9.10804C2.53193 9.15089 2.47874 9.37589 2.38299 9.60089C2.26597 9.87947 2.22342 10.2116 2.25533 10.6616C2.34044 11.733 2.64895 12.258 3.68087 13.0616C3.79789 13.158 4.57448 13.4473 4.73406 13.4473C4.79789 13.4473 4.89363 13.4795 4.94682 13.5223C5.27661 13.7259 6.91491 13.4045 7.23406 13.0723C7.26597 13.0402 7.45746 12.9009 7.65959 12.7616C8.09576 12.4723 8.64895 11.7652 9.12768 10.9295C9.77661 9.77232 10.2234 9.79375 10.4894 11.0152C10.7766 12.3545 11.149 12.8473 12.0426 13.1152C13.149 13.458 14.4681 12.6009 14.4681 11.5402C14.4681 11.1759 14.0745 11.133 13.7766 11.4652C13.5 11.7652 12.9255 11.7545 12.7234 11.433C12.6383 11.2938 12.5426 10.8116 12.5107 10.2652C12.4787 9.61161 12.3936 9.20447 12.2341 8.89375C11.9894 8.40089 11.4255 7.82232 11.2021 7.82232C11.1277 7.82232 11.0638 7.77947 11.0638 7.72589C11.0638 7.67232 10.8085 7.56518 10.5 7.50089C9.69151 7.31875 8.91491 7.49018 8.28725 8.01518C7.84044 8.36875 6.70214 9.84732 6.70214 10.0616C6.70214 10.2116 5.97874 10.8116 5.70214 10.8866C5.50002 10.9295 5.37236 10.8866 5.17023 10.683C4.79789 10.308 4.94682 9.92232 5.73406 9.16161C7.92555 7.04018 8.08512 6.85804 8.39363 6.16161C9.21278 4.30804 8.58512 2.47589 6.88299 1.71518C6.42555 1.51161 5.6064 1.35089 5.51065 1.45804ZM6.47874 2.21875C6.72342 2.32589 6.91491 2.44375 6.91491 2.48661C6.91491 2.54018 6.97874 2.57232 7.06385 2.57232C7.28725 2.57232 7.71278 3.12947 7.92555 3.69732C8.17023 4.32947 8.09576 5.55089 7.79789 5.87232C7.72342 5.94732 7.65959 6.08661 7.65959 6.18304C7.65959 6.27947 7.00002 7.00804 6.18087 7.81161C4.47874 9.49375 4.36172 9.65447 4.34044 10.3295C4.34044 10.758 4.38299 10.8759 4.67023 11.1438C5.39363 11.8402 6.47874 11.5295 7.22342 10.4045C8.52129 8.43304 8.79789 8.17589 9.69151 8.13304C11.2553 8.06875 11.8404 8.79732 12.0532 11.0902C12.1277 11.883 12.5319 12.3223 13.1809 12.3223C13.5426 12.3223 13.5532 12.333 13.3404 12.483C12.3724 13.158 11.0638 12.0973 11.0638 10.6402C11.0638 10.2009 10.5213 9.47232 10.1277 9.37589C9.7447 9.30089 9.00002 9.69732 9.08512 9.93304C9.11704 10.0188 9.1064 10.0616 9.05321 10.0295C9.00002 9.99732 8.71278 10.3723 8.41491 10.8652C8.11704 11.358 7.79789 11.8188 7.71278 11.8938C7.62768 11.9688 7.58512 12.0759 7.62768 12.1402C7.65959 12.1938 7.63831 12.2152 7.58512 12.183C7.52129 12.1402 7.34044 12.2366 7.17023 12.3759C7.00002 12.5259 6.79789 12.6438 6.73406 12.6438C6.65959 12.6438 6.59576 12.6866 6.59576 12.7295C6.59576 12.8259 6.52129 12.8366 6.01065 12.8688C5.86172 12.8795 5.7447 12.933 5.7447 12.9866C5.7447 13.0402 5.69151 13.0509 5.62768 13.0188C5.57448 12.9759 5.36172 12.9223 5.18087 12.8902C4.76597 12.8366 3.86172 12.408 3.56385 12.1402C2.81916 11.4759 2.73406 10.0938 3.36172 8.95804C3.61704 8.48661 5.21278 6.91161 5.21278 7.12589C5.21278 7.28661 6.48938 5.88304 6.50002 5.71161C6.51065 5.60447 6.53193 5.37947 6.55321 5.19732C6.59576 4.76875 6.3298 4.36161 6.05321 4.44732C5.65959 4.57589 4.1064 4.60804 3.9681 4.47947C3.89363 4.41518 3.8298 4.40447 3.8298 4.43661C3.8298 4.47947 3.6915 4.41518 3.51065 4.28661C3.14895 4.02947 3.11704 3.87947 3.36172 3.40804C3.86172 2.43304 5.52129 1.80089 6.47874 2.21875Z" fill="currentColor"/>
<path d="M5.03141 2.88214C4.70162 3.09643 4.88248 3.75 5.26545 3.75C5.54205 3.75 5.78673 3.25714 5.61652 3.03214C5.47822 2.82857 5.20162 2.76429 5.03141 2.88214Z" fill="currentColor"/>
</svg>
