<svg width="15" height="15" viewBox="0 0 15 15" fill="none" xmlns="http://www.w3.org/2000/svg">
<path d="M9.59977 1.16225C9.40977 1.20876 9.23977 1.31342 9.21977 1.38318C9.19977 1.44132 9.11977 1.46458 9.03977 1.42969C8.95977 1.39481 8.89977 1.41807 8.89977 1.46458C8.89977 1.52272 8.76977 1.639 8.59977 1.72039C8.43977 1.81342 8.29977 1.91807 8.29977 1.97621C8.29977 2.03435 8.07977 2.33667 7.79977 2.65062C7.31977 3.20876 7.27977 3.22039 6.69977 3.24365C5.25977 3.27853 3.07977 3.97621 2.69977 4.52272C2.66977 4.5576 2.48977 4.73202 2.29977 4.89481C1.82977 5.30179 1.19977 6.03435 1.19977 6.17388C1.19977 6.24365 1.11977 6.39481 1.00977 6.52272C0.849772 6.73202 0.599772 7.54597 0.439772 8.40644C0.149772 9.96458 0.829772 11.7902 1.99977 12.6041C3.41977 13.5925 4.84977 13.7436 6.97977 13.1274C7.71977 12.9064 8.53977 12.7553 8.94977 12.7436L9.64977 12.732V12.3948C9.64977 11.7088 8.24977 11.3483 6.79977 11.639C5.85977 11.8367 4.35977 11.7669 3.74977 11.4995C3.23977 11.2785 2.61977 10.639 2.58977 10.3134C2.57977 10.232 2.55977 10.046 2.54977 9.88318C2.50977 9.46458 2.68977 8.97621 2.90977 8.89481C3.15977 8.80179 3.29977 8.90644 3.29977 9.18551C3.29977 9.31342 3.52977 9.67388 3.79977 9.99946C4.07977 10.325 4.29977 10.639 4.29977 10.6971C4.29977 10.8483 4.66977 10.8483 4.74977 10.6971C4.77977 10.639 4.72977 10.453 4.63977 10.2902C4.47977 10.0111 4.48977 9.99946 4.68977 9.99946C4.80977 9.99946 4.92977 10.0692 4.95977 10.1506C5.03977 10.3948 5.59977 10.3948 5.59977 10.139C5.59977 10.0227 5.54977 9.87156 5.47977 9.79016C5.38977 9.68551 5.43977 9.67388 5.67977 9.75528C5.89977 9.83667 6.01977 9.82504 6.09977 9.70876C6.22977 9.52272 5.68977 8.95295 5.37977 8.95295C5.26977 8.95295 5.19977 8.91807 5.21977 8.85993C5.50977 8.17388 5.52977 8.15063 5.88977 8.15063C6.08977 8.15063 6.40977 8.09249 6.59977 8.03435C7.06977 7.85993 7.06977 7.85993 7.14977 8.22039C7.21977 8.5576 7.51977 9.11574 7.81977 9.45295C7.91977 9.56923 7.97977 9.70876 7.94977 9.75528C7.85977 9.94132 8.28977 10.2902 8.41977 10.139C8.50977 10.0343 8.46977 9.85993 8.24977 9.39481C7.42977 7.60411 7.39977 7.46458 7.61977 6.61574C7.80977 5.87156 7.37977 5.8483 7.15977 6.59249C6.98977 7.12737 6.76977 7.31342 6.15977 7.39481C5.63977 7.46458 5.60977 7.45295 5.54977 7.18551C5.43977 6.68551 4.78977 6.30179 4.23977 6.39481C3.77977 6.47621 3.43977 6.77853 3.55977 6.99946C3.58977 7.0576 3.80977 7.06923 4.04977 7.02272C4.60977 6.92969 4.83977 7.02272 4.98977 7.40644C5.13977 7.77853 4.74977 8.5576 4.34977 8.67388C4.02977 8.7669 4.06977 8.96458 4.43977 9.17388C4.75977 9.3483 4.62977 9.54597 4.25977 9.44132C3.90977 9.3483 3.81977 9.19714 3.82977 8.70876C3.83977 8.18551 3.68977 7.99946 3.31977 8.08086C2.51977 8.24365 1.99977 8.82504 1.99977 9.54597C1.99977 11.7204 3.43977 12.6739 6.19977 12.325C7.86977 12.1157 8.27977 12.0809 8.03977 12.2088C7.91977 12.2553 7.69977 12.3367 7.53977 12.3716C7.37977 12.3948 6.93977 12.4995 6.54977 12.5925C6.16977 12.6971 5.46977 12.7785 5.00977 12.7902C4.54977 12.7902 4.13977 12.8134 4.10977 12.825C4.05977 12.8367 3.81977 12.7553 3.09977 12.4878C3.01977 12.453 2.94977 12.4413 2.94977 12.4646C2.94977 12.4878 2.80977 12.3832 2.62977 12.232C2.45977 12.0925 2.27977 11.9762 2.22977 11.9762C2.11977 11.9762 1.39977 11.0692 1.39977 10.9413C1.39977 10.8948 1.34977 10.8018 1.27977 10.7204C0.979772 10.3716 0.949772 8.32504 1.23977 7.61574C1.50977 6.95295 1.98977 6.17388 2.38977 5.7669C2.57977 5.56923 2.78977 5.33667 2.86977 5.25528C3.33977 4.70876 4.99977 4.09249 6.24977 3.99946C7.22977 3.92969 8.09977 3.639 8.09977 3.38318C8.09977 3.32504 8.28977 3.04597 8.52977 2.75528C9.46977 1.60411 10.4598 1.42969 11.7198 2.18551C12.6298 2.72039 12.9898 3.32504 12.6498 3.70876C12.4498 3.91807 11.3898 4.37156 10.8998 4.44132C10.7598 4.46458 10.6698 4.51109 10.6998 4.5576C10.7298 4.60411 10.5698 4.79016 10.3498 4.97621C10.1298 5.16225 9.75977 5.51109 9.53977 5.7669C9.30977 6.01109 8.96977 6.38318 8.76977 6.58086C8.33977 7.01109 8.21977 7.58086 8.38977 8.35993C8.45977 8.65063 8.51977 9.0576 8.52977 9.2669C8.55977 9.68551 8.92977 10.1041 9.26977 10.1157C9.51977 10.1157 9.49977 9.88318 9.20977 9.48783C9.05977 9.27853 9.05977 9.27853 9.41977 9.45295C9.73977 9.60411 9.79977 9.61574 9.90977 9.46458C10.0698 9.23202 9.77977 8.87156 9.28977 8.70876C8.71977 8.49946 8.65977 7.60411 9.18977 7.04597C9.30977 6.91807 9.40977 6.8483 9.42977 6.87156C9.82977 7.49946 10.1698 7.98783 10.2698 8.0576C10.4698 8.19714 10.4298 8.35993 10.2098 8.29016C9.96977 8.22039 9.83977 8.59249 10.0398 8.81342C10.1998 8.99946 10.5598 8.80179 10.4498 8.60411C10.3198 8.35993 10.5998 8.40644 10.7998 8.66225C10.9298 8.82504 11.1398 8.95295 11.2698 8.95295C11.5398 8.95295 11.5598 8.85993 11.3398 8.51109C11.2598 8.37156 11.1998 8.25528 11.2198 8.24365C11.2398 8.24365 11.3498 8.22039 11.4698 8.20876C11.9898 8.139 11.6998 7.70876 11.0398 7.56923C10.6798 7.48783 10.4898 7.37156 10.2798 7.06923C9.90977 6.5576 9.92977 6.32504 10.3798 5.8483C10.6898 5.51109 11.5498 4.88318 11.5498 4.99946C11.5498 5.09249 12.7298 4.51109 12.8598 4.37156C12.9298 4.27853 13.0498 4.18551 13.1198 4.16225C13.2098 4.12737 13.2498 3.88318 13.2498 3.45295C13.2498 2.83667 13.2198 2.7669 12.8098 2.27853C12.0298 1.3483 10.6198 0.859927 9.59977 1.16225Z" fill="currentColor"/>
<path d="M10.2701 2.76724C10.0601 3.03469 10.0601 3.0812 10.2601 3.30213C10.5001 3.5812 10.7901 3.53469 10.8601 3.19748C10.9801 2.66259 10.5801 2.3719 10.2701 2.76724Z" fill="currentColor"/>
<path d="M9.0399 2.88259C8.7699 3.08026 8.8799 3.60352 9.1899 3.60352C9.3699 3.60352 9.5299 3.12677 9.4099 2.98724C9.3499 2.91747 9.2999 2.90584 9.2999 2.96398C9.2999 3.03375 9.2599 3.02212 9.2199 2.94072C9.1799 2.85933 9.0999 2.83607 9.0399 2.88259Z" fill="currentColor"/>
<path d="M7.93061 4.40567C7.75061 4.74288 7.99061 5.05684 8.33061 4.95218C8.62061 4.87079 8.69061 4.56846 8.48061 4.32428C8.30061 4.11497 8.06061 4.14986 7.93061 4.40567Z" fill="currentColor"/>
<path d="M6.46016 4.63814C6.31016 4.83581 6.31016 4.85907 6.46016 4.9986C6.62016 5.16139 6.90016 5.05674 6.98016 4.7893C7.05016 4.53349 6.64016 4.40558 6.46016 4.63814Z" fill="currentColor"/>
<path d="M4.81894 5.012C4.56894 5.11665 4.52894 5.44223 4.73894 5.53525C4.89894 5.60502 5.49894 5.27944 5.49894 5.12828C5.49894 4.97711 5.05894 4.90735 4.81894 5.012Z" fill="currentColor"/>
<path d="M3.19048 5.76774C3.04048 5.97704 3.24048 6.2096 3.48048 6.10495C3.56048 6.07007 3.65048 6.04681 3.70048 6.04681C3.75048 6.04681 3.78048 5.94216 3.77048 5.81425C3.75048 5.52356 3.38048 5.5003 3.19048 5.76774Z" fill="currentColor"/>
<path d="M5.80984 5.86063C5.71984 5.97691 5.73984 6.04668 5.85984 6.17458C5.98984 6.30249 6.02984 6.29086 6.10984 6.15133C6.31984 5.75598 6.05984 5.50016 5.80984 5.86063Z" fill="currentColor"/>
<path d="M1.85982 6.96466C1.76982 7.11582 1.89982 7.44141 2.03982 7.44141C2.24982 7.44141 2.52982 7.13908 2.45982 6.99955C2.36982 6.83676 1.93982 6.8135 1.85982 6.96466Z" fill="currentColor"/>
<path d="M1.55004 8.44211C1.39004 8.62815 1.36004 8.75606 1.46004 8.87234C1.55004 8.97699 1.80004 8.82583 1.90004 8.6049C2.03004 8.32583 1.76004 8.19792 1.55004 8.44211Z" fill="currentColor"/>
</svg>
