<svg width="15" height="15" viewBox="0 0 15 15" fill="none" xmlns="http://www.w3.org/2000/svg">
<path d="M7.22206 0.905143C6.21095 1.40147 5.94429 1.91985 6.03318 3.21029C6.09984 4.1147 6.09984 4.16985 5.8554 4.26911C5.61095 4.37941 5.28873 4.24705 4.91095 3.89411C4.69984 3.69558 3.91095 3.50808 3.63317 3.59632C2.47762 3.94926 1.38873 5.65882 1.9554 6.22132C2.1554 6.41985 2.32206 6.43088 2.97762 6.2875C3.73317 6.11103 3.91095 6.26544 3.72206 6.9272C3.5554 7.51176 3.5554 7.57794 3.54429 8.70294C3.53317 9.15514 3.59984 9.71764 3.67762 9.94926C3.81095 10.3463 3.79984 10.3904 3.5554 10.5559C3.29984 10.7323 3.11095 10.9198 2.81095 11.2838C2.56651 11.5816 2.51095 12.4971 2.71095 12.8831C3.22206 13.8757 3.86651 13.9199 4.79984 13.0154C5.5554 12.2765 5.48873 12.3096 5.81095 12.486C5.94429 12.5522 6.3554 12.7176 6.72206 12.85C7.2554 13.0375 7.42206 13.1588 7.56651 13.4456C7.88873 14.1184 8.36651 14.1956 8.7554 13.6441C8.88873 13.4456 8.99984 13.225 8.99984 13.1478C8.99984 13.0816 9.21095 12.9713 9.47762 12.9051C9.73317 12.839 10.1332 12.6846 10.3665 12.5632C10.8443 12.3096 11.1221 12.3537 11.3776 12.7397C12.2332 14.0301 13.5887 13.9309 13.8887 12.5412C13.9998 11.9897 13.7221 11.3169 13.1443 10.8096C12.6665 10.4015 12.6554 10.3573 12.7665 10.0154C12.9332 9.48603 12.9887 9.1 12.9887 8.39411C12.9998 7.44558 12.9998 7.4125 12.8221 6.9272C12.5887 6.26544 12.7776 6.16617 13.9221 6.32058C14.3776 6.38676 14.7776 6.13308 14.7776 5.79117C14.7776 5.2397 13.911 3.99338 13.3332 3.69558C12.7221 3.38676 11.7221 3.64044 11.2665 4.225C11.0554 4.47867 11.0221 4.4897 10.6776 4.34632C10.4443 4.24705 10.3332 4.13676 10.3665 4.0375C10.8443 2.81323 10.411 1.44558 9.39984 0.916172C8.89984 0.651466 7.74429 0.651466 7.22206 0.905143ZM9.03317 1.47867C9.77762 1.7875 10.0443 2.44926 9.8554 3.44191C9.76651 3.90514 9.72206 3.96029 9.51095 3.91617C9.07762 3.81691 7.22206 3.77279 7.27762 3.87205C7.3554 3.98235 6.88873 3.90514 6.7554 3.77279C6.71095 3.72867 6.6554 3.35367 6.64429 2.95661C6.62206 2.19558 6.8554 1.74338 7.38873 1.46764C7.72206 1.3022 8.62206 1.3022 9.03317 1.47867ZM4.59984 4.53382C4.72206 4.65514 4.8554 4.74338 4.91095 4.74338C5.07762 4.74338 4.99984 4.90882 4.57762 5.38308C4.19984 5.81323 4.14429 5.83529 3.94429 5.69191C3.76651 5.57058 3.58873 5.55956 3.12206 5.64779C2.42206 5.76911 2.41095 5.76911 2.62206 5.35C3.12206 4.3022 3.96651 3.96029 4.59984 4.53382ZM13.4332 4.62205C13.811 4.99705 14.0887 5.57058 13.9665 5.70294C13.9443 5.725 13.711 5.70294 13.4665 5.64779C13.1332 5.57058 12.9332 5.58161 12.711 5.69191C12.5554 5.78014 12.411 5.84632 12.3998 5.84632C12.3887 5.84632 12.1887 5.62573 11.9665 5.35L11.5443 4.85367L11.911 4.52279C12.4332 4.04853 12.8776 4.07058 13.4332 4.62205ZM8.77762 4.40147C9.49984 4.42353 9.62206 4.52279 9.39984 4.94191C9.23317 5.27279 9.21095 5.28382 8.2554 5.31691L7.29984 5.35L7.08873 5.01911C6.97762 4.83161 6.88873 4.65514 6.88873 4.61103C6.88873 4.52279 7.7554 4.33529 8.0554 4.36838C8.17762 4.37941 8.49984 4.40147 8.77762 4.40147ZM6.33318 6.16617C6.07762 6.46397 5.77762 6.72867 5.67762 6.76176C5.4554 6.81691 4.66651 6.76176 4.58873 6.68456C4.41095 6.51911 5.26651 5.44926 5.87762 5.06323L6.37762 4.74338L6.58873 5.17353L6.79984 5.6147L6.33318 6.16617ZM10.3998 4.94191C11.1554 5.35 12.1554 6.50808 11.8887 6.67353C11.7554 6.75073 10.6998 6.80588 10.6443 6.72867C10.6221 6.69558 10.3998 6.41985 10.1443 6.11103C9.69984 5.58161 9.68873 5.5375 9.81095 5.15147C9.96651 4.68823 9.94429 4.68823 10.3998 4.94191ZM9.27762 5.93456C9.49984 6.08897 10.111 6.9272 10.111 7.07058C10.111 7.23603 9.73317 7.89779 9.52206 8.09632C9.43317 8.18456 8.9554 8.22867 8.19984 8.21764L7.01095 8.20661L6.74429 7.83161C6.29984 7.16985 6.29984 7.07058 6.68873 6.5522C6.88873 6.2875 7.17762 6.02279 7.33318 5.96764C7.66651 5.84632 9.12206 5.81323 9.27762 5.93456ZM12.2776 7.4125C12.311 7.61103 12.3554 7.89779 12.3776 8.0522C12.4332 8.43823 12.2332 9.62941 12.0998 9.71764C11.9887 9.78382 11.6998 9.7397 10.811 9.54117C10.6665 9.50808 10.5554 9.41985 10.5554 9.33161C10.5554 9.25441 10.4554 9.1 10.3332 8.9897C9.96651 8.65882 9.97762 8.43823 10.3443 7.84264C10.6998 7.28014 10.6998 7.28014 11.2887 7.28014C11.611 7.28014 11.911 7.225 11.9443 7.16985C12.0776 6.96029 12.211 7.05956 12.2776 7.4125ZM5.92206 7.52279C6.02206 7.64411 6.11095 7.80956 6.11095 7.88676C6.11095 7.96397 6.1554 8.0522 6.21095 8.07426C6.46651 8.17353 6.43318 8.58161 6.12206 9.05588C5.81095 9.50808 5.73318 9.56323 5.09984 9.69558C4.73318 9.77279 4.39984 9.80588 4.37762 9.78382C4.28873 9.69558 4.13317 8.54853 4.16651 8.27279C4.18873 8.11838 4.24429 7.82058 4.27762 7.6L4.33317 7.21397L5.03318 7.25808C5.5554 7.29117 5.76651 7.35735 5.92206 7.52279ZM9.78873 9.18823C10.1443 9.67353 10.111 9.89411 9.59984 10.4676L9.22206 10.8757L8.22206 10.8537C7.12206 10.8316 7.0554 10.7875 6.59984 9.94926C6.44429 9.65147 6.42206 9.54117 6.53318 9.39779C6.61095 9.29853 6.71095 9.1 6.76651 8.96764C6.86651 8.74706 6.93317 8.73603 8.17762 8.74706L9.48873 8.76911L9.78873 9.18823ZM6.36651 10.589C6.7554 11.1073 6.84429 11.5816 6.5554 11.5816C6.51095 11.5816 6.44429 11.6919 6.41095 11.8132L6.34429 12.0559L5.97762 11.8243C5.61095 11.6037 4.66651 10.5559 4.66651 10.3794C4.66651 10.2801 5.33318 10.0706 5.72206 10.0485C5.87762 10.0375 6.08873 10.225 6.36651 10.589ZM11.6998 10.214C12.011 10.3022 11.9221 10.4897 11.2887 11.0963C10.411 11.9456 10.2887 11.9897 9.98873 11.5706C9.71095 11.1846 9.76651 10.9971 10.2776 10.3904C10.5887 10.0154 10.8554 9.98235 11.6998 10.214ZM4.58873 11.4382L5.02206 11.9456L4.67762 12.2103C4.48873 12.3647 4.33317 12.5412 4.33317 12.6073C4.33317 12.6846 4.17762 12.8279 3.99984 12.9272C3.18873 13.3794 2.88873 11.9897 3.63317 11.2507C4.04429 10.8426 4.09984 10.8537 4.58873 11.4382ZM12.8776 11.4051C13.5665 12.111 13.2665 13.3463 12.4887 12.9934C12.3443 12.9272 12.2221 12.839 12.2221 12.7949C12.2221 12.7618 12.0443 12.5412 11.8332 12.3096L11.4443 11.8794L11.6776 11.6809C11.811 11.5596 11.8887 11.4713 11.8332 11.4713C11.711 11.4713 12.2554 11.0412 12.3998 11.0301C12.4554 11.0301 12.6776 11.1956 12.8776 11.4051ZM8.44429 11.4051C9.18873 11.4382 9.28873 11.4823 9.51095 11.7581C9.83317 12.1551 9.78873 12.2103 9.02206 12.3096C7.9554 12.4419 6.99984 12.3868 6.79984 12.1882C6.71095 12.111 7.36651 11.2728 7.47762 11.3059C7.5554 11.3279 7.98873 11.3721 8.44429 11.4051Z" fill="black"/>
<path d="M7.1224 2.30653C6.9224 2.43888 7.06685 2.64844 7.34463 2.64844C7.50018 2.64844 7.55574 2.58226 7.53352 2.46094C7.48907 2.24035 7.33352 2.17417 7.1224 2.30653Z" fill="black"/>
<path d="M8.96617 2.38382C8.78839 2.56029 8.8995 2.76985 9.14395 2.73676C9.27728 2.7147 9.38839 2.62646 9.38839 2.53823C9.38839 2.36176 9.0995 2.26249 8.96617 2.38382Z" fill="black"/>
</svg>
